<svg width="1372" height="766" viewBox="0 0 1372 766" fill="none" xmlns="http://www.w3.org/2000/svg">
<rect width="1372" height="766" rx="14.9131" fill="url(#paint0_linear_733_1610)"/>
<path d="M499.209 159.822C497.512 159.822 495.894 159.557 494.357 159.026C492.819 158.496 491.48 157.754 490.34 156.799C489.2 155.845 488.365 154.745 487.835 153.498C487.57 152.942 487.57 152.425 487.835 151.948C488.126 151.47 488.604 151.165 489.266 151.033C489.744 150.927 490.208 151.006 490.658 151.271C491.136 151.51 491.493 151.881 491.732 152.385C492.05 153.048 492.567 153.658 493.283 154.214C494.025 154.771 494.914 155.222 495.948 155.566C496.981 155.911 498.068 156.083 499.209 156.083C500.481 156.083 501.648 155.885 502.708 155.487C503.795 155.089 504.67 154.519 505.333 153.777C505.996 153.008 506.327 152.067 506.327 150.953C506.327 149.548 505.77 148.289 504.657 147.175C503.57 146.062 501.767 145.372 499.248 145.107C495.961 144.789 493.376 143.822 491.493 142.204C489.611 140.587 488.67 138.585 488.67 136.199C488.67 134.449 489.16 132.965 490.141 131.745C491.122 130.526 492.448 129.598 494.118 128.961C495.815 128.325 497.697 128.007 499.765 128.007C501.383 128.007 502.788 128.232 503.981 128.683C505.2 129.134 506.261 129.757 507.162 130.552C508.064 131.348 508.846 132.289 509.509 133.376C509.88 133.959 510.026 134.516 509.946 135.046C509.893 135.55 509.641 135.947 509.19 136.239C508.687 136.557 508.143 136.623 507.56 136.438C506.977 136.252 506.539 135.908 506.248 135.404C505.823 134.635 505.306 133.985 504.697 133.455C504.087 132.925 503.371 132.514 502.549 132.222C501.727 131.904 500.759 131.745 499.646 131.745C497.684 131.719 496.04 132.09 494.715 132.859C493.389 133.601 492.726 134.754 492.726 136.319C492.726 137.114 492.925 137.883 493.323 138.625C493.747 139.341 494.503 139.964 495.59 140.494C496.703 141.024 498.294 141.396 500.362 141.608C503.517 141.926 505.969 142.894 507.719 144.511C509.495 146.102 510.383 148.209 510.383 150.834C510.383 152.345 510.065 153.658 509.429 154.771C508.819 155.885 507.984 156.826 506.924 157.595C505.89 158.337 504.697 158.894 503.344 159.265C502.019 159.636 500.64 159.822 499.209 159.822ZM526.19 159.583C524.043 159.583 522.147 159.119 520.504 158.191C518.86 157.237 517.561 155.938 516.606 154.294C515.678 152.624 515.214 150.715 515.214 148.567C515.214 146.393 515.678 144.484 516.606 142.841C517.561 141.17 518.86 139.871 520.504 138.943C522.147 137.989 524.043 137.512 526.19 137.512C528.311 137.512 530.194 137.989 531.838 138.943C533.481 139.871 534.767 141.17 535.695 142.841C536.649 144.484 537.127 146.393 537.127 148.567C537.127 150.715 536.663 152.624 535.735 154.294C534.807 155.938 533.521 157.237 531.877 158.191C530.234 159.119 528.338 159.583 526.19 159.583ZM526.19 156.004C527.569 156.004 528.789 155.686 529.849 155.049C530.91 154.413 531.731 153.538 532.315 152.425C532.925 151.311 533.229 150.025 533.229 148.567C533.229 147.109 532.925 145.823 532.315 144.71C531.731 143.57 530.91 142.681 529.849 142.045C528.789 141.409 527.569 141.091 526.19 141.091C524.812 141.091 523.592 141.409 522.532 142.045C521.471 142.681 520.636 143.57 520.026 144.71C519.417 145.823 519.112 147.109 519.112 148.567C519.112 150.025 519.417 151.311 520.026 152.425C520.636 153.538 521.471 154.413 522.532 155.049C523.592 155.686 524.812 156.004 526.19 156.004ZM548.334 159.424C547.167 159.424 546.133 159.106 545.232 158.47C544.33 157.833 543.628 156.972 543.124 155.885C542.62 154.771 542.368 153.498 542.368 152.067V130.353C542.368 129.77 542.554 129.293 542.925 128.922C543.296 128.55 543.774 128.365 544.357 128.365C544.94 128.365 545.417 128.55 545.788 128.922C546.16 129.293 546.345 129.77 546.345 130.353V152.067C546.345 153.048 546.531 153.856 546.902 154.493C547.273 155.129 547.75 155.447 548.334 155.447H549.328C549.858 155.447 550.282 155.633 550.6 156.004C550.945 156.375 551.117 156.852 551.117 157.436C551.117 158.019 550.866 158.496 550.362 158.867C549.858 159.238 549.209 159.424 548.413 159.424H548.334ZM562.95 159.583C561.014 159.583 559.278 159.106 557.74 158.151C556.202 157.17 554.983 155.858 554.081 154.214C553.206 152.544 552.769 150.662 552.769 148.567C552.769 146.473 553.246 144.59 554.201 142.92C555.182 141.25 556.494 139.937 558.138 138.983C559.808 138.002 561.677 137.512 563.745 137.512C565.813 137.512 567.669 138.002 569.313 138.983C570.956 139.937 572.256 141.25 573.21 142.92C574.191 144.59 574.681 146.473 574.681 148.567H573.13C573.13 150.662 572.68 152.544 571.778 154.214C570.903 155.858 569.697 157.17 568.159 158.151C566.622 159.106 564.885 159.583 562.95 159.583ZM563.745 156.004C565.097 156.004 566.304 155.686 567.364 155.049C568.424 154.387 569.26 153.498 569.869 152.385C570.479 151.245 570.784 149.972 570.784 148.567C570.784 147.136 570.479 145.863 569.869 144.749C569.26 143.609 568.424 142.721 567.364 142.085C566.304 141.422 565.097 141.091 563.745 141.091C562.419 141.091 561.213 141.422 560.126 142.085C559.066 142.721 558.217 143.609 557.581 144.749C556.971 145.863 556.666 147.136 556.666 148.567C556.666 149.972 556.971 151.245 557.581 152.385C558.217 153.498 559.066 154.387 560.126 155.049C561.213 155.686 562.419 156.004 563.745 156.004ZM572.653 159.464C572.07 159.464 571.579 159.278 571.182 158.907C570.811 158.509 570.625 158.019 570.625 157.436V151.351L571.381 147.136L574.681 148.567V157.436C574.681 158.019 574.483 158.509 574.085 158.907C573.714 159.278 573.236 159.464 572.653 159.464ZM590.581 159.583C588.46 159.583 586.564 159.106 584.894 158.151C583.25 157.17 581.951 155.858 580.997 154.214C580.069 152.544 579.605 150.662 579.605 148.567C579.605 146.42 580.069 144.511 580.997 142.841C581.925 141.17 583.197 139.871 584.815 138.943C586.432 137.989 588.288 137.512 590.382 137.512C591.946 137.512 593.378 137.816 594.677 138.426C595.976 139.01 597.143 139.898 598.177 141.091C598.548 141.515 598.68 141.952 598.574 142.403C598.468 142.854 598.177 143.251 597.699 143.596C597.328 143.861 596.917 143.954 596.467 143.875C596.016 143.768 595.605 143.53 595.234 143.159C593.935 141.78 592.318 141.091 590.382 141.091C589.03 141.091 587.837 141.409 586.803 142.045C585.769 142.655 584.96 143.517 584.377 144.63C583.794 145.744 583.502 147.056 583.502 148.567C583.502 149.999 583.794 151.271 584.377 152.385C584.987 153.498 585.822 154.387 586.882 155.049C587.943 155.686 589.176 156.004 590.581 156.004C591.509 156.004 592.318 155.898 593.007 155.686C593.723 155.447 594.372 155.089 594.955 154.612C595.38 154.267 595.817 154.082 596.268 154.055C596.719 154.002 597.116 154.122 597.461 154.413C597.912 154.784 598.163 155.209 598.216 155.686C598.269 156.136 598.11 156.547 597.739 156.919C595.83 158.695 593.444 159.583 590.581 159.583ZM614.823 159.583C612.623 159.583 610.661 159.119 608.937 158.191C607.241 157.237 605.902 155.938 604.921 154.294C603.966 152.624 603.489 150.715 603.489 148.567C603.489 146.393 603.94 144.484 604.841 142.841C605.769 141.17 607.042 139.871 608.659 138.943C610.276 137.989 612.132 137.512 614.227 137.512C616.295 137.512 618.071 137.976 619.556 138.903C621.04 139.805 622.167 141.064 622.936 142.681C623.731 144.272 624.129 146.115 624.129 148.209C624.129 148.713 623.957 149.137 623.612 149.482C623.267 149.8 622.83 149.959 622.3 149.959H606.273V146.778H622.18L620.55 147.891C620.523 146.566 620.258 145.386 619.754 144.352C619.251 143.291 618.535 142.456 617.607 141.846C616.679 141.237 615.552 140.932 614.227 140.932C612.715 140.932 611.416 141.263 610.329 141.926C609.269 142.589 608.46 143.503 607.903 144.67C607.347 145.81 607.068 147.109 607.068 148.567C607.068 150.025 607.4 151.324 608.063 152.464C608.725 153.605 609.64 154.506 610.807 155.169C611.973 155.832 613.312 156.163 614.823 156.163C615.645 156.163 616.48 156.017 617.329 155.725C618.203 155.407 618.906 155.049 619.436 154.652C619.834 154.36 620.258 154.214 620.709 154.214C621.186 154.188 621.597 154.32 621.942 154.612C622.392 155.01 622.631 155.447 622.658 155.924C622.684 156.402 622.472 156.812 622.021 157.157C621.12 157.873 619.993 158.456 618.641 158.907C617.315 159.358 616.043 159.583 614.823 159.583Z" fill="black"/>
<circle cx="367.883" cy="176.525" r="76.2759" fill="#ABD6FF"/>
<g clip-path="url(#clip0_733_1610)">
<path d="M424.703 205.694C422.845 208.969 420.136 211.197 417.38 213.292C409.619 219.206 401.081 221.791 391.766 221.047C387.628 220.734 383.56 219.662 379.716 217.871C395.227 217.123 408.205 210.204 418.66 196.837C420.841 198.963 423.349 200.611 424.703 203.661V205.694Z" fill="#281EB3"/>
<path d="M350.663 167.166C350.93 150.288 355.725 136.658 365.262 125.273C366.951 123.257 368.877 123.267 370.575 125.273C378.257 134.413 383.079 145.225 384.543 157.845C386.736 176.688 381.959 193.009 370.676 206.84C368.883 209.038 366.951 208.993 365.128 206.82C357.821 198.223 353.013 187.225 351.368 175.347C350.915 172.297 350.826 169.179 350.663 167.166Z" fill="#281EB3"/>
<path d="M383.52 200.529C384.924 197.09 386.483 193.681 387.734 190.123C390.994 180.744 392.179 170.976 391.5 160.895C391.091 154.794 389.933 148.791 388.06 143.065C387.763 142.192 387.873 141.745 388.611 141.4C392.058 139.803 395.463 138.07 398.951 136.624C401.185 135.689 403.029 136.965 403.556 139.657C407.79 161.094 403.117 179.545 389.536 195.012C387.935 196.824 386.068 198.318 384.314 199.949C384.059 200.159 383.794 200.353 383.52 200.529Z" fill="#281EB3"/>
<path d="M352.195 200.802C349.759 198.363 347.183 196.08 344.907 193.453C337.226 184.583 332.727 173.839 331.153 161.478C330.257 154.218 330.625 146.824 332.238 139.729C332.831 136.979 334.609 135.672 336.906 136.621C340.296 138.023 343.597 139.691 346.952 141.223C347.909 141.656 348.07 142.223 347.696 143.338C344.86 151.834 343.781 160.67 344.205 169.721C344.659 180.075 347.27 190.152 351.818 199.099L352.485 200.42L352.195 200.802Z" fill="#281EB3"/>
<path d="M324.838 164.552C328.172 184.34 337.339 199.325 352.314 209.809C351.7 209.727 351.084 209.652 350.47 209.556C349.857 209.461 349.225 209.386 348.612 209.239C332.759 205.432 321.473 195.048 314.756 178.087C313.867 175.821 313.274 173.392 312.628 171.004C312.495 170.548 312.442 170.065 312.472 169.585C312.502 169.105 312.616 168.637 312.805 168.207C312.994 167.778 313.256 167.396 313.574 167.084C313.893 166.773 314.263 166.537 314.661 166.391C317.962 165.231 321.388 164.612 324.838 164.552V164.552Z" fill="#281EB3"/>
<path d="M383.518 209.856C398.448 199.379 407.623 184.388 411.017 164.375C413.34 164.716 415.664 165.057 417.981 165.467C418.926 165.646 419.859 165.895 420.776 166.214C422.77 166.896 423.769 168.882 423.167 171.157C417.688 191.856 405.7 204.473 387.406 209.208C386.131 209.539 384.816 209.648 383.518 209.856Z" fill="#281EB3"/>
<path d="M317.119 196.775C327.619 210.2 340.59 217.109 356.161 218.061C354.324 218.692 352.513 219.48 350.643 219.931C336.18 223.417 323.464 219.494 312.602 207.877C310.563 205.697 310.545 203.537 312.587 201.333C314.028 199.764 315.578 198.314 317.119 196.775Z" fill="#281EB3"/>
</g>
<path d="M498.989 182.087V196.837H496.819V189.507L497.799 190.387H489.659L490.639 189.517V196.837H488.469V182.087H490.639V189.487L489.659 188.577H497.799L496.819 189.487V182.087H498.989ZM506.892 197.037C505.798 197.037 504.832 196.801 503.992 196.327C503.158 195.854 502.505 195.204 502.032 194.377C501.565 193.544 501.332 192.591 501.332 191.517C501.332 190.451 501.565 189.507 502.032 188.687C502.505 187.861 503.158 187.217 503.992 186.757C504.832 186.291 505.798 186.057 506.892 186.057C507.985 186.057 508.948 186.291 509.782 186.757C510.622 187.217 511.275 187.861 511.742 188.687C512.215 189.507 512.452 190.451 512.452 191.517C512.452 192.591 512.215 193.544 511.742 194.377C511.275 195.204 510.622 195.854 509.782 196.327C508.948 196.801 507.985 197.037 506.892 197.037ZM506.892 195.177C507.558 195.177 508.145 195.027 508.652 194.727C509.158 194.427 509.555 194.004 509.842 193.457C510.128 192.904 510.272 192.257 510.272 191.517C510.272 190.784 510.128 190.147 509.842 189.607C509.555 189.067 509.158 188.651 508.652 188.357C508.145 188.064 507.558 187.917 506.892 187.917C506.232 187.917 505.645 188.064 505.132 188.357C504.625 188.651 504.228 189.067 503.942 189.607C503.655 190.147 503.512 190.784 503.512 191.517C503.512 192.257 503.655 192.904 503.942 193.457C504.228 194.004 504.625 194.427 505.132 194.727C505.645 195.027 506.232 195.177 506.892 195.177ZM523.173 196.837L520.453 186.217H522.213L524.823 196.047H524.453L526.153 186.217H528.403L526.163 196.837H523.173ZM515.923 196.837L513.673 186.217H515.923L517.643 196.047H517.263L519.853 186.217H521.613L518.933 196.837H515.923ZM539.016 197.047C538.216 197.047 537.513 196.921 536.906 196.667C536.306 196.414 535.839 196.051 535.506 195.577C535.173 195.104 535.006 194.534 535.006 193.867C535.006 193.154 535.193 192.564 535.566 192.097C535.946 191.631 536.466 191.271 537.126 191.017C537.793 190.757 538.549 190.587 539.396 190.507C540.656 190.381 541.543 190.257 542.056 190.137C542.576 190.017 542.836 189.821 542.836 189.547C542.836 189.541 542.836 189.534 542.836 189.527C542.836 188.987 542.606 188.577 542.146 188.297C541.686 188.017 541.029 187.877 540.176 187.877C539.276 187.877 538.579 188.037 538.086 188.357C537.599 188.671 537.356 189.171 537.356 189.857H535.226C535.226 189.044 535.436 188.354 535.856 187.787C536.283 187.221 536.869 186.791 537.616 186.497C538.363 186.197 539.219 186.047 540.186 186.047C541.073 186.047 541.879 186.184 542.606 186.457C543.339 186.724 543.923 187.124 544.356 187.657C544.789 188.191 545.006 188.854 545.006 189.647C545.006 189.787 545.006 189.927 545.006 190.067C545.006 190.201 545.006 190.337 545.006 190.477V194.717C545.006 194.964 545.016 195.204 545.036 195.437C545.056 195.664 545.093 195.867 545.146 196.047C545.206 196.254 545.276 196.424 545.356 196.557C545.443 196.691 545.513 196.784 545.566 196.837H543.406C543.366 196.797 543.306 196.714 543.226 196.587C543.153 196.454 543.086 196.301 543.026 196.127C542.966 195.961 542.919 195.771 542.886 195.557C542.859 195.337 542.846 195.101 542.846 194.847L543.246 195.127C543.046 195.514 542.743 195.851 542.336 196.137C541.936 196.424 541.453 196.647 540.886 196.807C540.326 196.967 539.703 197.047 539.016 197.047ZM539.466 195.247C540.086 195.247 540.649 195.151 541.156 194.957C541.669 194.757 542.079 194.457 542.386 194.057C542.693 193.651 542.846 193.141 542.846 192.527V190.767L543.356 191.437C542.929 191.604 542.406 191.741 541.786 191.847C541.173 191.947 540.539 192.031 539.886 192.097C538.986 192.177 538.309 192.334 537.856 192.567C537.403 192.794 537.176 193.174 537.176 193.707C537.176 194.221 537.363 194.607 537.736 194.867C538.116 195.121 538.693 195.247 539.466 195.247ZM547.641 196.837V186.217H549.811V189.607L549.231 189.347C549.277 188.914 549.387 188.501 549.561 188.107C549.734 187.714 549.964 187.364 550.251 187.057C550.544 186.744 550.904 186.497 551.331 186.317C551.757 186.137 552.251 186.047 552.811 186.047C553.237 186.047 553.581 186.081 553.841 186.147C554.107 186.214 554.271 186.267 554.331 186.307L553.871 188.347C553.804 188.301 553.667 188.241 553.461 188.167C553.261 188.094 552.981 188.057 552.621 188.057C552.074 188.057 551.621 188.154 551.261 188.347C550.901 188.541 550.614 188.797 550.401 189.117C550.187 189.437 550.034 189.787 549.941 190.167C549.854 190.541 549.811 190.917 549.811 191.297V196.837H547.641ZM556.653 192.287V190.597H564.473L564.173 191.097C564.173 191.057 564.173 191.017 564.173 190.977C564.173 190.931 564.173 190.891 564.173 190.857C564.173 190.317 564.056 189.821 563.823 189.367C563.59 188.907 563.24 188.541 562.773 188.267C562.313 187.987 561.736 187.847 561.043 187.847C560.35 187.847 559.74 187.997 559.213 188.297C558.693 188.591 558.286 189.011 557.993 189.557C557.706 190.097 557.563 190.747 557.563 191.507C557.563 192.281 557.703 192.947 557.983 193.507C558.263 194.061 558.666 194.487 559.193 194.787C559.72 195.087 560.35 195.237 561.083 195.237C561.596 195.237 562.04 195.187 562.413 195.087C562.793 194.981 563.103 194.841 563.343 194.667C563.59 194.494 563.776 194.307 563.903 194.107C564.03 193.901 564.103 193.697 564.123 193.497H566.283C566.243 193.931 566.1 194.361 565.853 194.787C565.613 195.207 565.27 195.591 564.823 195.937C564.383 196.277 563.843 196.551 563.203 196.757C562.57 196.957 561.84 197.057 561.013 197.057C559.906 197.057 558.936 196.824 558.103 196.357C557.27 195.891 556.62 195.244 556.153 194.417C555.686 193.584 555.453 192.631 555.453 191.557C555.453 190.464 555.69 189.504 556.163 188.677C556.636 187.851 557.293 187.207 558.133 186.747C558.973 186.281 559.936 186.047 561.023 186.047C562.13 186.047 563.086 186.281 563.893 186.747C564.706 187.214 565.333 187.857 565.773 188.677C566.213 189.497 566.433 190.441 566.433 191.507C566.433 191.634 566.43 191.781 566.423 191.947C566.416 192.114 566.406 192.227 566.393 192.287H556.653ZM574.362 201.357C574.075 201.357 573.812 201.341 573.572 201.307C573.338 201.281 573.195 201.254 573.142 201.227V199.457C573.228 199.497 573.372 199.531 573.572 199.557C573.778 199.584 573.992 199.597 574.212 199.597C574.605 199.597 574.942 199.517 575.222 199.357C575.508 199.197 575.748 198.974 575.942 198.687C576.142 198.407 576.302 198.087 576.422 197.727L576.692 196.927L573.032 186.217H575.292L578.022 195.217H577.742L580.402 186.217H582.632L578.822 197.617C578.588 198.331 578.302 198.967 577.962 199.527C577.622 200.094 577.168 200.541 576.602 200.867C576.035 201.194 575.288 201.357 574.362 201.357ZM589.118 197.037C588.025 197.037 587.058 196.801 586.218 196.327C585.385 195.854 584.732 195.204 584.258 194.377C583.792 193.544 583.558 192.591 583.558 191.517C583.558 190.451 583.792 189.507 584.258 188.687C584.732 187.861 585.385 187.217 586.218 186.757C587.058 186.291 588.025 186.057 589.118 186.057C590.212 186.057 591.175 186.291 592.008 186.757C592.848 187.217 593.502 187.861 593.968 188.687C594.442 189.507 594.678 190.451 594.678 191.517C594.678 192.591 594.442 193.544 593.968 194.377C593.502 195.204 592.848 195.854 592.008 196.327C591.175 196.801 590.212 197.037 589.118 197.037ZM589.118 195.177C589.785 195.177 590.372 195.027 590.878 194.727C591.385 194.427 591.782 194.004 592.068 193.457C592.355 192.904 592.498 192.257 592.498 191.517C592.498 190.784 592.355 190.147 592.068 189.607C591.782 189.067 591.385 188.651 590.878 188.357C590.372 188.064 589.785 187.917 589.118 187.917C588.458 187.917 587.872 188.064 587.358 188.357C586.852 188.651 586.455 189.067 586.168 189.607C585.882 190.147 585.738 190.784 585.738 191.517C585.738 192.257 585.882 192.904 586.168 193.457C586.455 194.004 586.852 194.427 587.358 194.727C587.872 195.027 588.458 195.177 589.118 195.177ZM600.964 197.027C600.21 197.027 599.584 196.901 599.084 196.647C598.584 196.387 598.187 196.051 597.894 195.637C597.6 195.217 597.394 194.761 597.274 194.267C597.154 193.767 597.094 193.281 597.094 192.807C597.094 192.561 597.094 192.304 597.094 192.037C597.094 191.764 597.094 191.491 597.094 191.217V186.217H599.274V190.907C599.274 191.147 599.274 191.384 599.274 191.617C599.274 191.844 599.274 192.057 599.274 192.257C599.274 192.771 599.34 193.244 599.474 193.677C599.607 194.104 599.84 194.451 600.174 194.717C600.514 194.977 600.987 195.107 601.594 195.107C602.16 195.107 602.654 194.941 603.074 194.607C603.494 194.267 603.82 193.841 604.054 193.327C604.287 192.807 604.404 192.287 604.404 191.767L605.354 192.277C605.354 192.891 605.25 193.481 605.044 194.047C604.844 194.614 604.554 195.124 604.174 195.577C603.794 196.024 603.33 196.377 602.784 196.637C602.244 196.897 601.637 197.027 600.964 197.027ZM604.404 196.837V186.217H606.574V196.837H604.404ZM615.63 196.837V188.017H613.34V186.217H615.63V185.057C615.63 184.511 615.697 184.021 615.83 183.587C615.97 183.154 616.164 182.781 616.41 182.467C616.657 182.147 616.947 181.884 617.28 181.677C617.62 181.471 617.99 181.317 618.39 181.217C618.797 181.111 619.22 181.057 619.66 181.057C620.02 181.057 620.3 181.081 620.5 181.127C620.707 181.167 620.844 181.204 620.91 181.237V183.047C620.83 183.021 620.694 182.991 620.5 182.957C620.307 182.924 620.1 182.907 619.88 182.907C619.454 182.907 619.104 182.971 618.83 183.097C618.557 183.224 618.344 183.401 618.19 183.627C618.037 183.847 617.93 184.104 617.87 184.397C617.817 184.684 617.79 184.991 617.79 185.317V186.217H620.81V188.017H617.79V196.837H615.63ZM622.903 192.287V190.597H630.723L630.423 191.097C630.423 191.057 630.423 191.017 630.423 190.977C630.423 190.931 630.423 190.891 630.423 190.857C630.423 190.317 630.306 189.821 630.073 189.367C629.84 188.907 629.49 188.541 629.023 188.267C628.563 187.987 627.986 187.847 627.293 187.847C626.6 187.847 625.99 187.997 625.463 188.297C624.943 188.591 624.536 189.011 624.243 189.557C623.956 190.097 623.813 190.747 623.813 191.507C623.813 192.281 623.953 192.947 624.233 193.507C624.513 194.061 624.916 194.487 625.443 194.787C625.97 195.087 626.6 195.237 627.333 195.237C627.846 195.237 628.29 195.187 628.663 195.087C629.043 194.981 629.353 194.841 629.593 194.667C629.84 194.494 630.026 194.307 630.153 194.107C630.28 193.901 630.353 193.697 630.373 193.497H632.533C632.493 193.931 632.35 194.361 632.103 194.787C631.863 195.207 631.52 195.591 631.073 195.937C630.633 196.277 630.093 196.551 629.453 196.757C628.82 196.957 628.09 197.057 627.263 197.057C626.156 197.057 625.186 196.824 624.353 196.357C623.52 195.891 622.87 195.244 622.403 194.417C621.936 193.584 621.703 192.631 621.703 191.557C621.703 190.464 621.94 189.504 622.413 188.677C622.886 187.851 623.543 187.207 624.383 186.747C625.223 186.281 626.186 186.047 627.273 186.047C628.38 186.047 629.336 186.281 630.143 186.747C630.956 187.214 631.583 187.857 632.023 188.677C632.463 189.497 632.683 190.441 632.683 191.507C632.683 191.634 632.68 191.781 632.673 191.947C632.666 192.114 632.656 192.227 632.643 192.287H622.903ZM635.872 192.287V190.597H643.692L643.392 191.097C643.392 191.057 643.392 191.017 643.392 190.977C643.392 190.931 643.392 190.891 643.392 190.857C643.392 190.317 643.275 189.821 643.042 189.367C642.808 188.907 642.458 188.541 641.992 188.267C641.532 187.987 640.955 187.847 640.262 187.847C639.568 187.847 638.958 187.997 638.432 188.297C637.912 188.591 637.505 189.011 637.212 189.557C636.925 190.097 636.782 190.747 636.782 191.507C636.782 192.281 636.922 192.947 637.202 193.507C637.482 194.061 637.885 194.487 638.412 194.787C638.938 195.087 639.568 195.237 640.302 195.237C640.815 195.237 641.258 195.187 641.632 195.087C642.012 194.981 642.322 194.841 642.562 194.667C642.808 194.494 642.995 194.307 643.122 194.107C643.248 193.901 643.322 193.697 643.342 193.497H645.502C645.462 193.931 645.318 194.361 645.072 194.787C644.832 195.207 644.488 195.591 644.042 195.937C643.602 196.277 643.062 196.551 642.422 196.757C641.788 196.957 641.058 197.057 640.232 197.057C639.125 197.057 638.155 196.824 637.322 196.357C636.488 195.891 635.838 195.244 635.372 194.417C634.905 193.584 634.672 192.631 634.672 191.557C634.672 190.464 634.908 189.504 635.382 188.677C635.855 187.851 636.512 187.207 637.352 186.747C638.192 186.281 639.155 186.047 640.242 186.047C641.348 186.047 642.305 186.281 643.112 186.747C643.925 187.214 644.552 187.857 644.992 188.677C645.432 189.497 645.652 190.441 645.652 191.507C645.652 191.634 645.648 191.781 645.642 191.947C645.635 192.114 645.625 192.227 645.612 192.287H635.872ZM650.36 181.207V196.837H648.22V181.207H650.36ZM653.296 196.837V186.217H655.436V196.837H653.296ZM654.376 184.017C654.002 184.017 653.679 183.917 653.406 183.717C653.139 183.511 653.006 183.227 653.006 182.867C653.006 182.514 653.139 182.237 653.406 182.037C653.679 181.831 654.002 181.727 654.376 181.727C654.742 181.727 655.059 181.831 655.326 182.037C655.599 182.237 655.736 182.514 655.736 182.867C655.736 183.227 655.599 183.511 655.326 183.717C655.059 183.917 654.742 184.017 654.376 184.017ZM665.884 196.837V191.937C665.884 191.651 665.884 191.407 665.884 191.207C665.884 191.007 665.884 190.821 665.884 190.647C665.884 190.127 665.804 189.671 665.644 189.277C665.484 188.877 665.221 188.567 664.854 188.347C664.488 188.121 663.998 188.007 663.384 188.007C662.844 188.007 662.354 188.141 661.914 188.407C661.481 188.674 661.134 189.037 660.874 189.497C660.621 189.951 660.494 190.467 660.494 191.047L659.564 190.587C659.564 189.727 659.768 188.957 660.174 188.277C660.581 187.591 661.124 187.047 661.804 186.647C662.491 186.247 663.241 186.047 664.054 186.047C664.894 186.047 665.611 186.211 666.204 186.537C666.804 186.857 667.261 187.317 667.574 187.917C667.894 188.511 668.054 189.221 668.054 190.047C668.054 190.354 668.054 190.694 668.054 191.067C668.054 191.441 668.054 191.801 668.054 192.147V196.837H665.884ZM658.324 196.837V186.217H660.494V196.837H658.324ZM677.755 195.987C678.355 196.041 678.882 196.154 679.335 196.327C679.789 196.494 680.142 196.741 680.395 197.067C680.655 197.401 680.785 197.837 680.785 198.377C680.785 198.984 680.579 199.511 680.165 199.957C679.759 200.411 679.149 200.761 678.335 201.007C677.522 201.261 676.512 201.387 675.305 201.387C673.579 201.387 672.262 201.137 671.355 200.637C670.449 200.137 669.995 199.457 669.995 198.597C669.995 198.337 670.025 198.107 670.085 197.907C670.145 197.707 670.219 197.541 670.305 197.407L672.325 197.707C672.279 197.774 672.232 197.871 672.185 197.997C672.139 198.131 672.115 198.291 672.115 198.477C672.115 198.951 672.405 199.287 672.985 199.487C673.565 199.687 674.369 199.787 675.395 199.787C676.149 199.787 676.772 199.734 677.265 199.627C677.765 199.527 678.139 199.381 678.385 199.187C678.632 198.994 678.755 198.767 678.755 198.507C678.755 198.114 678.585 197.867 678.245 197.767C677.905 197.667 677.495 197.597 677.015 197.557L672.985 197.227C672.285 197.167 671.712 196.957 671.265 196.597C670.825 196.237 670.605 195.784 670.605 195.237C670.605 194.897 670.692 194.581 670.865 194.287C671.039 193.994 671.239 193.747 671.465 193.547C671.699 193.347 671.899 193.224 672.065 193.177L673.485 193.857C673.332 193.877 673.145 193.981 672.925 194.167C672.712 194.347 672.605 194.561 672.605 194.807C672.605 195.034 672.699 195.221 672.885 195.367C673.079 195.514 673.452 195.611 674.005 195.657L677.755 195.987ZM679.085 186.217H681.055L680.245 190.367C680.099 191.141 679.829 191.841 679.435 192.467C679.049 193.087 678.522 193.577 677.855 193.937C677.195 194.297 676.372 194.477 675.385 194.477C674.359 194.477 673.475 194.301 672.735 193.947C671.995 193.594 671.425 193.104 671.025 192.477C670.632 191.844 670.435 191.124 670.435 190.317C670.435 189.497 670.639 188.764 671.045 188.117C671.459 187.471 672.025 186.964 672.745 186.597C673.472 186.231 674.302 186.047 675.235 186.047C676.022 186.047 676.719 186.181 677.325 186.447C677.939 186.714 678.425 187.054 678.785 187.467C679.145 187.881 679.342 188.311 679.375 188.757L678.755 188.827L679.085 186.217ZM675.375 192.707C675.955 192.707 676.455 192.614 676.875 192.427C677.295 192.234 677.619 191.957 677.845 191.597C678.072 191.231 678.185 190.791 678.185 190.277C678.185 189.771 678.072 189.337 677.845 188.977C677.619 188.611 677.295 188.331 676.875 188.137C676.455 187.937 675.959 187.837 675.385 187.837C674.832 187.837 674.342 187.941 673.915 188.147C673.495 188.347 673.165 188.631 672.925 188.997C672.685 189.364 672.565 189.801 672.565 190.307C672.565 190.814 672.679 191.247 672.905 191.607C673.132 191.961 673.455 192.234 673.875 192.427C674.295 192.614 674.795 192.707 675.375 192.707ZM692.649 197.017C692.296 197.017 691.943 196.981 691.589 196.907C691.243 196.834 690.923 196.701 690.629 196.507C690.343 196.307 690.113 196.024 689.939 195.657C689.766 195.291 689.679 194.811 689.679 194.217C689.679 194.077 689.679 193.931 689.679 193.777C689.679 193.624 689.679 193.467 689.679 193.307V188.017H687.129V186.217H688.469C688.756 186.217 688.979 186.207 689.139 186.187C689.306 186.161 689.426 186.104 689.499 186.017C689.579 185.924 689.629 185.777 689.649 185.577C689.669 185.377 689.679 185.104 689.679 184.757V182.707H691.849V186.217H695.099V188.017H691.849V192.727C691.849 192.861 691.849 192.994 691.849 193.127C691.849 193.261 691.849 193.384 691.849 193.497C691.849 194.031 691.913 194.451 692.039 194.757C692.173 195.064 692.473 195.217 692.939 195.217C693.139 195.217 693.329 195.201 693.509 195.167C693.689 195.134 693.826 195.097 693.919 195.057V196.827C693.799 196.874 693.629 196.917 693.409 196.957C693.189 196.997 692.936 197.017 692.649 197.017ZM701.989 197.037C700.896 197.037 699.929 196.801 699.089 196.327C698.256 195.854 697.603 195.204 697.129 194.377C696.663 193.544 696.429 192.591 696.429 191.517C696.429 190.451 696.663 189.507 697.129 188.687C697.603 187.861 698.256 187.217 699.089 186.757C699.929 186.291 700.896 186.057 701.989 186.057C703.083 186.057 704.046 186.291 704.879 186.757C705.719 187.217 706.373 187.861 706.839 188.687C707.313 189.507 707.549 190.451 707.549 191.517C707.549 192.591 707.313 193.544 706.839 194.377C706.373 195.204 705.719 195.854 704.879 196.327C704.046 196.801 703.083 197.037 701.989 197.037ZM701.989 195.177C702.656 195.177 703.243 195.027 703.749 194.727C704.256 194.427 704.653 194.004 704.939 193.457C705.226 192.904 705.369 192.257 705.369 191.517C705.369 190.784 705.226 190.147 704.939 189.607C704.653 189.067 704.256 188.651 703.749 188.357C703.243 188.064 702.656 187.917 701.989 187.917C701.329 187.917 700.743 188.064 700.229 188.357C699.723 188.651 699.326 189.067 699.039 189.607C698.753 190.147 698.609 190.784 698.609 191.517C698.609 192.257 698.753 192.904 699.039 193.457C699.326 194.004 699.723 194.427 700.229 194.727C700.743 195.027 701.329 195.177 701.989 195.177ZM714.365 197.047C713.492 197.047 712.688 196.837 711.955 196.417C711.222 195.991 710.635 195.364 710.195 194.537C709.755 193.711 709.535 192.701 709.535 191.507C709.535 190.341 709.758 189.351 710.205 188.537C710.652 187.724 711.242 187.107 711.975 186.687C712.708 186.261 713.505 186.047 714.365 186.047C715.192 186.047 715.958 186.247 716.665 186.647C717.378 187.047 717.952 187.604 718.385 188.317C718.818 189.024 719.035 189.841 719.035 190.767C719.035 190.794 719.035 190.821 719.035 190.847C719.035 190.867 719.035 190.887 719.035 190.907L717.775 190.947C717.775 190.927 717.775 190.907 717.775 190.887C717.775 190.861 717.775 190.837 717.775 190.817C717.775 190.264 717.635 189.774 717.355 189.347C717.075 188.914 716.705 188.574 716.245 188.327C715.792 188.074 715.308 187.947 714.795 187.947C713.935 187.947 713.215 188.237 712.635 188.817C712.055 189.391 711.765 190.287 711.765 191.507C711.765 192.721 712.055 193.621 712.635 194.207C713.222 194.787 713.942 195.077 714.795 195.077C715.328 195.077 715.822 194.951 716.275 194.697C716.728 194.437 717.092 194.084 717.365 193.637C717.638 193.191 717.775 192.681 717.775 192.107L719.035 192.157C719.035 193.077 718.825 193.907 718.405 194.647C717.992 195.387 717.432 195.974 716.725 196.407C716.025 196.834 715.238 197.047 714.365 197.047ZM717.775 196.837V181.207H719.955V196.837H717.775ZM726.418 197.047C725.618 197.047 724.915 196.921 724.308 196.667C723.708 196.414 723.242 196.051 722.908 195.577C722.575 195.104 722.408 194.534 722.408 193.867C722.408 193.154 722.595 192.564 722.968 192.097C723.348 191.631 723.868 191.271 724.528 191.017C725.195 190.757 725.952 190.587 726.798 190.507C728.058 190.381 728.945 190.257 729.458 190.137C729.978 190.017 730.238 189.821 730.238 189.547C730.238 189.541 730.238 189.534 730.238 189.527C730.238 188.987 730.008 188.577 729.548 188.297C729.088 188.017 728.432 187.877 727.578 187.877C726.678 187.877 725.982 188.037 725.488 188.357C725.002 188.671 724.758 189.171 724.758 189.857H722.628C722.628 189.044 722.838 188.354 723.258 187.787C723.685 187.221 724.272 186.791 725.018 186.497C725.765 186.197 726.622 186.047 727.588 186.047C728.475 186.047 729.282 186.184 730.008 186.457C730.742 186.724 731.325 187.124 731.758 187.657C732.192 188.191 732.408 188.854 732.408 189.647C732.408 189.787 732.408 189.927 732.408 190.067C732.408 190.201 732.408 190.337 732.408 190.477V194.717C732.408 194.964 732.418 195.204 732.438 195.437C732.458 195.664 732.495 195.867 732.548 196.047C732.608 196.254 732.678 196.424 732.758 196.557C732.845 196.691 732.915 196.784 732.968 196.837H730.808C730.768 196.797 730.708 196.714 730.628 196.587C730.555 196.454 730.488 196.301 730.428 196.127C730.368 195.961 730.322 195.771 730.288 195.557C730.262 195.337 730.248 195.101 730.248 194.847L730.648 195.127C730.448 195.514 730.145 195.851 729.738 196.137C729.338 196.424 728.855 196.647 728.288 196.807C727.728 196.967 727.105 197.047 726.418 197.047ZM726.868 195.247C727.488 195.247 728.052 195.151 728.558 194.957C729.072 194.757 729.482 194.457 729.788 194.057C730.095 193.651 730.248 193.141 730.248 192.527V190.767L730.758 191.437C730.332 191.604 729.808 191.741 729.188 191.847C728.575 191.947 727.942 192.031 727.288 192.097C726.388 192.177 725.712 192.334 725.258 192.567C724.805 192.794 724.578 193.174 724.578 193.707C724.578 194.221 724.765 194.607 725.138 194.867C725.518 195.121 726.095 195.247 726.868 195.247ZM735.182 201.357C734.895 201.357 734.632 201.341 734.392 201.307C734.159 201.281 734.015 201.254 733.962 201.227V199.457C734.049 199.497 734.192 199.531 734.392 199.557C734.599 199.584 734.812 199.597 735.032 199.597C735.425 199.597 735.762 199.517 736.042 199.357C736.329 199.197 736.569 198.974 736.762 198.687C736.962 198.407 737.122 198.087 737.242 197.727L737.512 196.927L733.852 186.217H736.112L738.842 195.217H738.562L741.222 186.217H743.452L739.642 197.617C739.409 198.331 739.122 198.967 738.782 199.527C738.442 200.094 737.989 200.541 737.422 200.867C736.855 201.194 736.109 201.357 735.182 201.357ZM753.316 193.197C753.316 192.591 753.409 192.051 753.596 191.577C753.789 191.097 754.029 190.664 754.316 190.277C754.602 189.884 754.899 189.511 755.206 189.157C755.472 188.851 755.722 188.544 755.956 188.237C756.189 187.924 756.376 187.591 756.516 187.237C756.662 186.884 756.736 186.491 756.736 186.057C756.736 185.251 756.536 184.644 756.136 184.237C755.736 183.831 755.142 183.627 754.356 183.627C753.542 183.627 752.919 183.867 752.486 184.347C752.052 184.821 751.836 185.537 751.836 186.497H749.906C749.906 185.471 750.099 184.624 750.486 183.957C750.872 183.291 751.399 182.794 752.066 182.467C752.732 182.141 753.489 181.977 754.336 181.977C755.176 181.977 755.919 182.137 756.566 182.457C757.219 182.771 757.729 183.241 758.096 183.867C758.469 184.487 758.656 185.257 758.656 186.177C758.656 186.784 758.559 187.317 758.366 187.777C758.172 188.237 757.922 188.651 757.616 189.017C757.316 189.384 757.006 189.734 756.686 190.067C756.252 190.527 755.862 190.997 755.516 191.477C755.176 191.951 755.006 192.524 755.006 193.197H753.316ZM754.276 197.107C753.909 197.107 753.596 196.981 753.336 196.727C753.076 196.474 752.946 196.161 752.946 195.787C752.946 195.421 753.076 195.111 753.336 194.857C753.596 194.597 753.909 194.467 754.276 194.467C754.642 194.467 754.952 194.597 755.206 194.857C755.466 195.111 755.596 195.421 755.596 195.787C755.596 196.161 755.466 196.474 755.206 196.727C754.952 196.981 754.642 197.107 754.276 197.107Z" fill="black"/>
<rect x="597.354" y="221.172" width="78.4363" height="82.2316" rx="21.1996" fill="#AEAFF7"/>
<path d="M627.539 323.712C627.539 324.2 627.449 324.695 627.269 325.199C627.089 325.702 626.816 326.168 626.45 326.598C626.084 327.027 625.623 327.374 625.067 327.639C624.51 327.899 623.856 328.029 623.103 328.029C622.08 328.029 621.208 327.772 620.488 327.258C619.772 326.738 619.226 326.025 618.85 325.119C618.474 324.213 618.285 323.174 618.285 322.003C618.285 320.826 618.474 319.787 618.85 318.886C619.226 317.98 619.772 317.27 620.488 316.756C621.208 316.242 622.08 315.985 623.103 315.985C623.956 315.985 624.682 316.152 625.281 316.486C625.886 316.819 626.365 317.249 626.72 317.773C627.081 318.298 627.319 318.844 627.436 319.411C627.505 319.719 627.539 320.01 627.539 320.286H625.806C625.806 320.137 625.793 319.976 625.766 319.801C625.708 319.377 625.565 318.987 625.337 318.632C625.114 318.277 624.815 317.993 624.439 317.781C624.068 317.569 623.622 317.463 623.103 317.463C622.499 317.463 621.966 317.633 621.505 317.972C621.044 318.306 620.684 318.81 620.424 319.483C620.17 320.156 620.042 320.996 620.042 322.003C620.042 323.004 620.17 323.844 620.424 324.523C620.684 325.196 621.044 325.705 621.505 326.049C621.966 326.388 622.499 326.558 623.103 326.558C623.543 326.558 623.93 326.479 624.264 326.32C624.598 326.161 624.879 325.946 625.106 325.676C625.334 325.405 625.507 325.101 625.623 324.761C625.745 324.422 625.806 324.072 625.806 323.712H627.539ZM632.345 328.029C631.709 328.029 631.15 327.928 630.668 327.727C630.191 327.525 629.82 327.236 629.555 326.86C629.29 326.484 629.157 326.031 629.157 325.501C629.157 324.934 629.305 324.465 629.602 324.094C629.904 323.723 630.318 323.436 630.842 323.235C631.372 323.028 631.974 322.893 632.647 322.83C633.649 322.729 634.354 322.631 634.762 322.535C635.175 322.44 635.382 322.284 635.382 322.066C635.382 322.061 635.382 322.056 635.382 322.05C635.382 321.621 635.199 321.295 634.833 321.073C634.468 320.85 633.946 320.739 633.267 320.739C632.552 320.739 631.998 320.866 631.606 321.12C631.219 321.369 631.025 321.767 631.025 322.313H629.332C629.332 321.666 629.499 321.118 629.833 320.667C630.172 320.217 630.638 319.875 631.232 319.642C631.826 319.403 632.507 319.284 633.275 319.284C633.98 319.284 634.621 319.393 635.199 319.61C635.782 319.822 636.246 320.14 636.59 320.564C636.935 320.988 637.107 321.515 637.107 322.146C637.107 322.257 637.107 322.368 637.107 322.48C637.107 322.586 637.107 322.694 637.107 322.806V326.176C637.107 326.373 637.115 326.563 637.131 326.749C637.147 326.929 637.176 327.091 637.218 327.234C637.266 327.398 637.322 327.533 637.385 327.639C637.454 327.745 637.51 327.819 637.552 327.862H635.835C635.803 327.83 635.755 327.764 635.692 327.663C635.634 327.557 635.581 327.435 635.533 327.297C635.485 327.165 635.448 327.014 635.422 326.844C635.4 326.669 635.39 326.481 635.39 326.28L635.708 326.502C635.549 326.81 635.308 327.077 634.984 327.305C634.666 327.533 634.282 327.711 633.832 327.838C633.386 327.965 632.891 328.029 632.345 328.029ZM632.703 326.598C633.196 326.598 633.643 326.521 634.046 326.367C634.454 326.208 634.78 325.97 635.024 325.652C635.268 325.328 635.39 324.923 635.39 324.435V323.036L635.795 323.569C635.456 323.701 635.04 323.81 634.547 323.895C634.059 323.974 633.556 324.041 633.037 324.094C632.321 324.157 631.783 324.282 631.423 324.467C631.062 324.647 630.882 324.95 630.882 325.374C630.882 325.782 631.031 326.089 631.327 326.296C631.629 326.497 632.088 326.598 632.703 326.598ZM641.022 315.436V327.862H639.321V315.436H641.022ZM648.555 327.862V324.284C648.555 323.961 648.555 323.683 648.555 323.45C648.555 323.211 648.555 323.01 648.555 322.845C648.555 322.639 648.539 322.419 648.507 322.186C648.481 321.952 648.417 321.735 648.316 321.534C648.221 321.327 648.07 321.16 647.863 321.033C647.656 320.906 647.373 320.842 647.012 320.842C646.652 320.842 646.347 320.914 646.098 321.057C645.849 321.2 645.648 321.391 645.494 321.629C645.34 321.862 645.229 322.125 645.16 322.416C645.091 322.702 645.057 322.991 645.057 323.283L644.325 322.885C644.325 322.223 644.455 321.621 644.715 321.081C644.98 320.535 645.351 320.1 645.828 319.777C646.31 319.448 646.877 319.284 647.529 319.284C648.192 319.284 648.722 319.422 649.119 319.697C649.522 319.968 649.813 320.339 649.994 320.81C650.174 321.277 650.264 321.807 650.264 322.4C650.264 322.618 650.264 322.901 650.264 323.251C650.264 323.601 650.264 324.006 650.264 324.467V327.862H648.555ZM643.332 327.862V319.419H645.057V327.862H643.332ZM653.754 327.862V324.292C653.754 323.943 653.754 323.651 653.754 323.418C653.754 323.179 653.754 322.981 653.754 322.822C653.754 322.604 653.741 322.382 653.714 322.154C653.688 321.921 653.624 321.706 653.523 321.51C653.423 321.314 653.266 321.155 653.054 321.033C652.848 320.906 652.559 320.842 652.188 320.842C651.822 320.842 651.515 320.914 651.266 321.057C651.022 321.195 650.826 321.38 650.677 321.613C650.529 321.841 650.423 322.093 650.359 322.368C650.296 322.644 650.264 322.917 650.264 323.187L649.533 322.806C649.533 322.17 649.66 321.584 649.914 321.049C650.174 320.513 650.54 320.087 651.011 319.769C651.488 319.446 652.053 319.284 652.705 319.284C653.341 319.284 653.863 319.411 654.271 319.666C654.679 319.92 654.981 320.272 655.177 320.723C655.373 321.173 655.471 321.695 655.471 322.289C655.471 322.517 655.471 322.803 655.471 323.148C655.471 323.492 655.471 323.892 655.471 324.348V327.862H653.754Z" fill="#575757"/>
<path d="M661.337 258.581C661.311 258.367 661.286 258.141 661.247 257.927C661.184 257.451 661.133 256.963 661.056 256.475C660.534 253.025 659.172 249.86 657.033 247.088C655.2 244.697 652.87 242.757 650.132 241.33C647.649 240.033 644.912 239.224 641.984 238.914C641.143 238.819 640.277 238.772 639.437 238.772C637.947 238.772 636.47 238.914 634.993 239.2V239.188L634.777 239.248C634.433 239.319 634.102 239.39 633.758 239.474C633.326 239.581 632.88 239.712 632.447 239.842C632.052 239.949 631.721 240.045 631.403 240.152C627.953 241.306 624.948 243.245 622.465 245.922C619.982 248.587 618.301 251.669 617.448 255.06C616.85 257.451 616.697 259.842 616.977 262.174C617.27 264.554 617.919 266.779 618.913 268.778C619.995 270.943 621.472 272.87 623.293 274.5C625.33 276.321 627.723 277.737 630.614 278.831C631.874 279.307 633.109 279.533 634.255 279.7C634.853 279.819 635.477 279.914 636.088 279.985C636.305 280.009 636.509 280.033 636.725 280.057C637.387 280.164 638.228 280.211 639.233 280.211C639.641 280.211 640.035 280.199 640.405 280.188L640.099 280.307L641.423 280.14C641.984 280.104 642.429 280.045 642.658 280.009L642.722 279.997C642.76 279.985 642.786 279.973 642.811 279.962C644.492 279.735 646.109 279.367 647.611 278.843C649.61 278.141 651.469 277.201 653.112 276.023C655.072 274.619 656.74 272.918 658.039 270.943C659.338 268.992 660.229 266.922 660.7 264.768C660.853 264.054 660.967 263.328 661.069 262.615C661.12 262.281 661.171 261.96 661.222 261.627C661.235 261.568 661.247 261.496 661.26 261.437L661.286 261.33L661.298 258.653L661.337 258.581ZM643.868 245.125C645.523 245.125 646.898 246.422 646.885 247.945C646.873 249.468 645.498 250.765 643.868 250.765C642.238 250.765 640.863 249.468 640.863 247.945C640.876 246.422 642.251 245.125 643.868 245.125ZM647.217 275.762C646.071 277.392 644.543 278.581 642.697 279.307C642.289 279.355 641.869 279.402 641.449 279.438C639.972 279.557 638.444 279.545 636.878 279.39C636.33 279.295 635.796 279.224 635.274 279.152C634.993 279.117 634.713 279.081 634.433 279.033C632.829 278.724 631.276 278.248 629.811 277.63C628.207 276.951 626.718 276.095 625.381 275.095C624.158 274.179 623.063 273.156 622.121 272.038C620.988 270.693 620.046 269.218 619.333 267.635C618.671 266.148 618.225 264.732 617.97 263.281C617.881 262.734 617.805 262.163 617.729 261.603C617.69 261.353 617.665 261.104 617.627 260.854V258.498C617.627 258.486 617.627 258.486 617.639 258.474C617.652 258.415 617.678 258.343 617.678 258.26C617.818 256.642 618.149 255.06 618.658 253.584C619.32 251.669 620.275 249.86 621.523 248.206C623.025 246.208 624.897 244.471 627.074 243.055C628.831 241.913 630.715 241.032 632.689 240.413C633.02 240.318 633.364 240.235 633.708 240.152C633.873 240.104 634.051 240.068 634.217 240.021C634.166 240.366 634.128 240.699 634.077 241.032C633.924 242.103 633.784 243.126 633.669 244.149C633.453 245.922 633.275 248.04 633.542 250.205C633.771 252.085 634.319 253.644 635.197 254.988C636.038 256.273 637.082 257.368 638.317 258.224C639.552 259.093 640.838 259.938 642.149 260.711C642.569 260.961 643.015 261.139 643.46 261.318C643.766 261.437 644.059 261.556 644.339 261.699C646.172 262.603 647.497 263.685 648.388 265.018C649.19 266.22 649.572 267.588 649.521 269.075C649.406 271.502 648.643 273.739 647.217 275.762Z" fill="white"/>
<path d="M634.664 264.934H634.613C632.576 264.934 630.985 266.385 630.921 268.324C630.87 270.204 632.5 271.775 634.563 271.822C634.588 271.822 634.626 271.822 634.664 271.822C636.638 271.822 638.268 270.288 638.306 268.396C638.319 267.492 637.949 266.623 637.262 265.969C636.574 265.314 635.657 264.945 634.664 264.934Z" fill="white"/>
<rect x="487.119" y="221.172" width="78.4363" height="82.2316" rx="21.1996" fill="#9A1EB3"/>
<path d="M511.681 316.136V327.862H509.956V322.035L510.735 322.734H504.264L505.043 322.043V327.862H503.318V316.136H505.043V322.019L504.264 321.295H510.735L509.956 322.019V316.136H511.681ZM516.811 328.029C516.175 328.029 515.615 327.928 515.133 327.727C514.656 327.525 514.285 327.236 514.02 326.86C513.755 326.484 513.623 326.031 513.623 325.501C513.623 324.934 513.771 324.465 514.068 324.094C514.37 323.723 514.783 323.436 515.308 323.235C515.838 323.028 516.44 322.893 517.113 322.83C518.114 322.729 518.819 322.631 519.227 322.535C519.641 322.44 519.847 322.284 519.847 322.066C519.847 322.061 519.847 322.056 519.847 322.05C519.847 321.621 519.665 321.295 519.299 321.073C518.933 320.85 518.411 320.739 517.733 320.739C517.017 320.739 516.463 320.866 516.071 321.12C515.684 321.369 515.491 321.767 515.491 322.313H513.798C513.798 321.666 513.964 321.118 514.298 320.667C514.638 320.217 515.104 319.875 515.698 319.642C516.291 319.403 516.972 319.284 517.741 319.284C518.446 319.284 519.087 319.393 519.665 319.61C520.248 319.822 520.711 320.14 521.056 320.564C521.4 320.988 521.573 321.515 521.573 322.146C521.573 322.257 521.573 322.368 521.573 322.48C521.573 322.586 521.573 322.694 521.573 322.806V326.176C521.573 326.373 521.58 326.563 521.596 326.749C521.612 326.929 521.641 327.091 521.684 327.234C521.732 327.398 521.787 327.533 521.851 327.639C521.92 327.745 521.975 327.819 522.018 327.862H520.301C520.269 327.83 520.221 327.764 520.157 327.663C520.099 327.557 520.046 327.435 519.998 327.297C519.951 327.165 519.914 327.014 519.887 326.844C519.866 326.669 519.855 326.481 519.855 326.28L520.173 326.502C520.014 326.81 519.773 327.077 519.45 327.305C519.132 327.533 518.748 327.711 518.297 327.838C517.852 327.965 517.356 328.029 516.811 328.029ZM517.168 326.598C517.661 326.598 518.109 326.521 518.512 326.367C518.92 326.208 519.246 325.97 519.49 325.652C519.733 325.328 519.855 324.923 519.855 324.435V323.036L520.261 323.569C519.922 323.701 519.506 323.81 519.013 323.895C518.525 323.974 518.022 324.041 517.502 324.094C516.787 324.157 516.249 324.282 515.888 324.467C515.528 324.647 515.348 324.95 515.348 325.374C515.348 325.782 515.496 326.089 515.793 326.296C516.095 326.497 516.554 326.598 517.168 326.598ZM523.667 331.336V319.419H525.392V331.336H523.667ZM528.111 328.029C527.454 328.029 526.844 327.864 526.283 327.536C525.721 327.202 525.265 326.746 524.915 326.168C524.571 325.591 524.398 324.936 524.398 324.205C524.398 324.184 524.398 324.168 524.398 324.157C524.398 324.141 524.398 324.125 524.398 324.109L525.4 324.086C525.4 324.096 525.4 324.109 525.4 324.125C525.4 324.136 525.4 324.149 525.4 324.165C525.4 324.6 525.511 324.992 525.734 325.342C525.962 325.686 526.256 325.959 526.616 326.161C526.977 326.362 527.364 326.463 527.777 326.463C528.456 326.463 529.025 326.232 529.486 325.771C529.953 325.305 530.186 324.589 530.186 323.625C530.186 322.655 529.955 321.942 529.494 321.486C529.033 321.025 528.461 320.794 527.777 320.794C527.364 320.794 526.977 320.895 526.616 321.096C526.256 321.293 525.962 321.563 525.734 321.907C525.511 322.247 525.4 322.636 525.4 323.076L524.398 323.036C524.398 322.3 524.571 321.65 524.915 321.089C525.265 320.521 525.721 320.079 526.283 319.761C526.844 319.443 527.454 319.284 528.111 319.284C528.795 319.284 529.428 319.454 530.011 319.793C530.594 320.127 531.063 320.617 531.418 321.263C531.779 321.91 531.959 322.697 531.959 323.625C531.959 324.573 531.784 325.376 531.434 326.033C531.084 326.691 530.618 327.189 530.035 327.528C529.452 327.862 528.811 328.029 528.111 328.029ZM533.868 331.336V319.419H535.593V331.336H533.868ZM538.312 328.029C537.655 328.029 537.046 327.864 536.484 327.536C535.922 327.202 535.466 326.746 535.116 326.168C534.772 325.591 534.6 324.936 534.6 324.205C534.6 324.184 534.6 324.168 534.6 324.157C534.6 324.141 534.6 324.125 534.6 324.109L535.601 324.086C535.601 324.096 535.601 324.109 535.601 324.125C535.601 324.136 535.601 324.149 535.601 324.165C535.601 324.6 535.713 324.992 535.935 325.342C536.163 325.686 536.457 325.959 536.818 326.161C537.178 326.362 537.565 326.463 537.978 326.463C538.657 326.463 539.227 326.232 539.688 325.771C540.154 325.305 540.387 324.589 540.387 323.625C540.387 322.655 540.157 321.942 539.696 321.486C539.235 321.025 538.662 320.794 537.978 320.794C537.565 320.794 537.178 320.895 536.818 321.096C536.457 321.293 536.163 321.563 535.935 321.907C535.713 322.247 535.601 322.636 535.601 323.076L534.6 323.036C534.6 322.3 534.772 321.65 535.116 321.089C535.466 320.521 535.922 320.079 536.484 319.761C537.046 319.443 537.655 319.284 538.312 319.284C538.996 319.284 539.629 319.454 540.212 319.793C540.795 320.127 541.264 320.617 541.619 321.263C541.98 321.91 542.16 322.697 542.16 323.625C542.16 324.573 541.985 325.376 541.635 326.033C541.286 326.691 540.819 327.189 540.236 327.528C539.653 327.862 539.012 328.029 538.312 328.029ZM544.009 331.455C543.781 331.455 543.572 331.442 543.381 331.415C543.196 331.394 543.082 331.373 543.039 331.352V329.945C543.108 329.976 543.222 330.003 543.381 330.024C543.546 330.045 543.715 330.056 543.89 330.056C544.203 330.056 544.47 329.992 544.693 329.865C544.921 329.738 545.112 329.56 545.265 329.333C545.424 329.11 545.552 328.856 545.647 328.569L545.862 327.933L542.952 319.419H544.749L546.919 326.574H546.696L548.811 319.419H550.584L547.555 328.482C547.369 329.049 547.142 329.555 546.871 330C546.601 330.451 546.241 330.806 545.79 331.066C545.34 331.325 544.746 331.455 544.009 331.455Z" fill="#575757"/>
<g clip-path="url(#clip1_733_1610)">
<path d="M504.027 262.317C504.027 250.177 513.869 240.335 526.009 240.335C538.149 240.335 547.991 250.177 547.991 262.317C547.991 274.457 538.149 284.298 526.009 284.298C513.869 284.298 504.027 274.457 504.027 262.317Z" fill="white"/>
<path d="M519.535 256.984C519.535 258.492 518.81 259.714 517.915 259.714C517.021 259.714 516.295 258.492 516.295 256.984C516.295 255.475 517.021 254.254 517.915 254.254C518.81 254.254 519.535 255.476 519.535 256.984Z" fill="#9A1EB3"/>
<path d="M535.728 256.984C535.728 258.492 535.002 259.714 534.108 259.714C533.213 259.714 532.488 258.492 532.488 256.984C532.488 255.475 533.213 254.254 534.108 254.254C535.002 254.254 535.728 255.476 535.728 256.984Z" fill="#9A1EB3"/>
<path d="M511.239 264.395C512.077 271.814 518.369 277.579 526.01 277.579C533.652 277.579 539.943 271.814 540.781 264.395H511.239Z" fill="#9A1EB3"/>
</g>
<rect x="707.591" y="221.172" width="78.4363" height="82.2316" rx="21.1996" fill="#ABD6FF"/>
<path d="M732.164 316.136H735.113V327.862H733.475V317.344L733.523 317.36L730.764 327.862H728.395L725.613 317.352L725.661 317.328V327.862H724.015V316.136H726.964L729.596 326.749H729.516L732.164 316.136ZM740.37 328.029C739.734 328.029 739.175 327.928 738.693 327.727C738.216 327.525 737.845 327.236 737.58 326.86C737.315 326.484 737.182 326.031 737.182 325.501C737.182 324.933 737.33 324.464 737.627 324.093C737.929 323.722 738.343 323.436 738.867 323.235C739.397 323.028 739.999 322.893 740.672 322.829C741.674 322.729 742.379 322.631 742.787 322.535C743.2 322.44 743.407 322.284 743.407 322.066C743.407 322.061 743.407 322.056 743.407 322.05C743.407 321.621 743.224 321.295 742.858 321.073C742.493 320.85 741.971 320.739 741.292 320.739C740.577 320.739 740.023 320.866 739.631 321.12C739.244 321.369 739.05 321.767 739.05 322.313H737.357C737.357 321.666 737.524 321.118 737.858 320.667C738.197 320.217 738.663 319.875 739.257 319.642C739.851 319.403 740.532 319.284 741.3 319.284C742.005 319.284 742.646 319.392 743.224 319.61C743.807 319.822 744.271 320.14 744.615 320.564C744.96 320.988 745.132 321.515 745.132 322.146C745.132 322.257 745.132 322.368 745.132 322.48C745.132 322.586 745.132 322.694 745.132 322.806V326.176C745.132 326.372 745.14 326.563 745.156 326.749C745.172 326.929 745.201 327.091 745.243 327.234C745.291 327.398 745.347 327.533 745.41 327.639C745.479 327.745 745.535 327.819 745.577 327.862H743.86C743.828 327.83 743.78 327.764 743.717 327.663C743.659 327.557 743.606 327.435 743.558 327.297C743.51 327.165 743.473 327.014 743.447 326.844C743.425 326.669 743.415 326.481 743.415 326.28L743.733 326.502C743.574 326.81 743.333 327.077 743.009 327.305C742.691 327.533 742.307 327.711 741.857 327.838C741.411 327.965 740.916 328.029 740.37 328.029ZM740.728 326.598C741.221 326.598 741.668 326.521 742.071 326.367C742.479 326.208 742.805 325.97 743.049 325.652C743.293 325.328 743.415 324.923 743.415 324.435V323.036L743.82 323.569C743.481 323.701 743.065 323.81 742.572 323.895C742.084 323.974 741.581 324.04 741.062 324.093C740.346 324.157 739.808 324.282 739.448 324.467C739.087 324.647 738.907 324.949 738.907 325.373C738.907 325.781 739.056 326.089 739.352 326.296C739.654 326.497 740.113 326.598 740.728 326.598ZM753.237 327.862V323.966C753.237 323.738 753.237 323.545 753.237 323.386C753.237 323.227 753.237 323.079 753.237 322.941C753.237 322.527 753.173 322.164 753.046 321.852C752.919 321.534 752.709 321.287 752.418 321.112C752.126 320.932 751.737 320.842 751.249 320.842C750.82 320.842 750.43 320.948 750.08 321.16C749.736 321.372 749.46 321.661 749.254 322.026C749.052 322.387 748.952 322.798 748.952 323.259L748.212 322.893C748.212 322.209 748.374 321.597 748.697 321.057C749.02 320.511 749.452 320.079 749.993 319.761C750.539 319.443 751.135 319.284 751.782 319.284C752.45 319.284 753.019 319.414 753.491 319.673C753.968 319.928 754.331 320.293 754.58 320.77C754.834 321.242 754.962 321.807 754.962 322.464C754.962 322.708 754.962 322.978 754.962 323.275C754.962 323.571 754.962 323.858 754.962 324.133V327.862H753.237ZM747.226 327.862V319.419H748.952V327.862H747.226ZM757.157 327.862V319.419H758.858V327.862H757.157ZM758.015 317.67C757.718 317.67 757.461 317.59 757.244 317.431C757.032 317.267 756.926 317.042 756.926 316.756C756.926 316.475 757.032 316.255 757.244 316.096C757.461 315.932 757.718 315.849 758.015 315.849C758.307 315.849 758.558 315.932 758.77 316.096C758.988 316.255 759.096 316.475 759.096 316.756C759.096 317.042 758.988 317.267 758.77 317.431C758.558 317.59 758.307 317.67 758.015 317.67ZM765.248 328.029C764.4 328.029 763.64 327.851 762.967 327.496C762.299 327.136 761.772 326.624 761.385 325.962C761.003 325.299 760.812 324.52 760.812 323.624C760.812 322.729 761.003 321.958 761.385 321.311C761.772 320.659 762.299 320.158 762.967 319.808C763.64 319.459 764.4 319.284 765.248 319.284C765.89 319.284 766.459 319.382 766.958 319.578C767.456 319.769 767.877 320.023 768.222 320.341C768.566 320.659 768.829 321.009 769.009 321.391C769.189 321.772 769.279 322.154 769.279 322.535C769.279 322.541 769.279 322.549 769.279 322.559C769.279 322.57 769.279 322.58 769.279 322.591H767.57C767.57 322.564 767.567 322.535 767.562 322.503C767.557 322.466 767.551 322.432 767.546 322.4C767.504 322.087 767.382 321.809 767.18 321.565C766.979 321.322 766.714 321.128 766.385 320.985C766.057 320.842 765.672 320.77 765.233 320.77C764.75 320.77 764.305 320.876 763.897 321.088C763.494 321.295 763.171 321.61 762.927 322.034C762.683 322.458 762.561 322.988 762.561 323.624C762.561 324.26 762.681 324.796 762.919 325.23C763.163 325.66 763.486 325.986 763.889 326.208C764.297 326.431 764.745 326.542 765.233 326.542C765.757 326.542 766.187 326.463 766.52 326.304C766.854 326.139 767.106 325.922 767.276 325.652C767.445 325.376 767.543 325.079 767.57 324.761H769.279C769.279 325.143 769.192 325.53 769.017 325.922C768.842 326.309 768.585 326.661 768.246 326.979C767.906 327.297 767.485 327.552 766.982 327.742C766.483 327.933 765.906 328.029 765.248 328.029Z" fill="#575757"/>
<path d="M766.378 259.72C765.127 259.13 763.737 258.823 762.372 258.823C759.402 258.823 756.9 260.264 755.839 262.578C754.992 264.42 755.106 267.219 756.104 268.932C756.749 270.042 758.202 271.222 760.376 271.222C760.805 271.222 761.248 271.175 761.69 271.093C762.89 270.856 764.584 269.18 764.988 267.845C765.292 266.841 764.129 265.129 762.928 264.326C762.84 264.267 762.739 264.267 762.663 264.267C762.511 264.267 761.753 264.291 761.387 264.727C761.26 264.869 761.121 265.129 761.21 265.507L761.235 265.601L761.311 265.66C762.082 266.357 762.486 267.196 762.322 267.751C762.208 268.128 761.854 268.388 761.26 268.53C760.691 268.436 759.883 267.987 759.605 267.668C759.087 267.066 758.619 265.59 758.834 264.786C759.213 263.369 760.755 262.377 762.6 262.377C763.876 262.377 765.014 262.885 765.721 263.771C766.884 265.235 767.718 268.022 767.036 269.404C766.189 271.14 763.826 272.947 761.538 273.608C760.957 273.773 760.363 273.856 759.794 273.856C757.57 273.856 755.396 272.569 753.69 270.242C751.63 267.444 751.517 264.503 753.349 261.716C754.12 260.559 755.182 259.52 756.218 258.516C756.711 258.043 757.216 257.559 757.684 257.063C760.881 253.674 761.652 249.765 759.996 245.431C758.581 241.711 755.46 239.432 750.973 238.818C750.556 238.759 750.139 238.735 749.722 238.735C745.767 238.735 741.988 241.121 740.535 244.522C739.056 247.982 740.206 251.761 743.391 253.934C744.604 254.761 746.171 255.209 747.789 255.209C749.899 255.209 751.833 254.43 752.995 253.119C755.245 250.568 755.232 247.675 752.945 245.762C752.174 245.112 750.834 244.876 749.836 244.876C749.33 244.876 748.888 244.935 748.547 245.03C747.763 245.266 746.057 246.754 746.045 247.71C746.045 248.077 746.259 248.36 746.664 248.49L746.727 248.513H746.79C746.954 248.513 747.056 248.419 747.245 248.254C747.637 247.899 748.458 247.179 749.583 247.179C750 247.179 750.442 247.285 750.872 247.486C751.239 247.663 751.314 248.088 751.327 248.336C751.365 249.187 750.784 250.415 749.76 250.993C749.191 251.312 748.319 251.513 747.485 251.513C747.005 251.513 746.563 251.454 746.222 251.324C745.008 250.899 744.174 249.99 743.846 248.75C743.441 247.203 743.947 245.467 745.147 244.215C746.348 242.975 748.016 242.29 749.848 242.29C752.085 242.29 754.234 243.329 755.586 245.077C757.343 247.333 757.608 250.238 756.294 252.836C754.967 255.481 752.325 257.158 749.242 257.335C749.027 257.347 748.8 257.347 748.572 257.347C746.929 257.347 745.223 257.028 743.58 256.721C742.493 256.52 741.369 256.308 740.269 256.189C739.814 256.142 739.347 256.119 738.892 256.119C733.053 256.119 728.023 260.11 727.177 265.389C726.355 270.538 730.045 275.368 735.581 276.395C736.149 276.501 736.743 276.56 737.312 276.56C741.053 276.56 744.301 274.387 745.577 271.022C746.904 267.538 745.362 263.913 742.064 262.767C741.331 262.519 740.459 262.389 739.524 262.389C738.26 262.389 737.009 262.625 735.985 263.039C734.696 263.57 733.559 265.613 733.71 267.148C733.9 269.203 734.961 269.711 735.972 270.195L736.086 270.254C736.44 270.419 737.097 270.62 737.792 270.62C738.866 270.62 739.574 270.16 739.776 269.321L739.789 269.286C739.941 267.94 738.74 267.373 737.944 266.983C737.691 266.865 737.262 266.664 737.236 266.558C737.236 266.404 737.577 266.298 738.058 266.298C739.182 266.298 740.699 266.829 741.103 267.585C741.609 268.554 741.735 270.171 740.964 271.258C740.092 272.474 738.93 273.088 737.476 273.088C736.39 273.088 735.164 272.722 733.938 272.049C731.056 270.443 730.058 266.759 731.701 263.83C733.344 260.901 736.112 259.449 739.65 259.65C743.517 259.862 746.373 261.858 747.928 265.424C748.281 266.251 748.547 267.137 748.8 267.987C749.128 269.12 749.482 270.29 750.051 271.352C752.136 275.214 755.813 277.34 760.413 277.34C760.578 277.34 760.755 277.34 760.919 277.328C765.696 277.174 769.146 274.907 770.877 270.774C772.621 266.593 770.65 261.74 766.378 259.72Z" fill="white"/>
<rect x="817.827" y="221.172" width="78.4363" height="82.2316" rx="21.1996" fill="#5F56E0"/>
<path d="M834.795 327.862L837.928 316.112H840.639L843.739 327.862H841.966L839.271 317.201H839.287L836.576 327.862H834.795ZM836.608 324.881V323.45H841.95V324.881H836.608ZM851.44 327.862V323.966C851.44 323.738 851.44 323.545 851.44 323.386C851.44 323.227 851.44 323.079 851.44 322.941C851.44 322.527 851.376 322.164 851.249 321.852C851.122 321.534 850.912 321.287 850.621 321.112C850.329 320.932 849.94 320.842 849.452 320.842C849.023 320.842 848.633 320.948 848.283 321.16C847.939 321.372 847.663 321.661 847.457 322.027C847.255 322.387 847.155 322.798 847.155 323.259L846.415 322.893C846.415 322.209 846.577 321.597 846.9 321.057C847.223 320.511 847.655 320.079 848.196 319.761C848.742 319.443 849.338 319.284 849.985 319.284C850.652 319.284 851.222 319.414 851.694 319.673C852.171 319.928 852.534 320.294 852.783 320.771C853.037 321.242 853.165 321.807 853.165 322.464C853.165 322.708 853.165 322.978 853.165 323.275C853.165 323.572 853.165 323.858 853.165 324.133V327.862H851.44ZM845.429 327.862V319.419H847.155V327.862H845.429ZM860.877 327.186C861.354 327.228 861.772 327.319 862.133 327.456C862.493 327.589 862.774 327.785 862.976 328.045C863.182 328.31 863.286 328.657 863.286 329.086C863.286 329.568 863.121 329.987 862.793 330.342C862.469 330.703 861.984 330.981 861.338 331.177C860.691 331.378 859.888 331.479 858.929 331.479C857.556 331.479 856.51 331.28 855.789 330.883C855.068 330.485 854.708 329.945 854.708 329.261C854.708 329.054 854.731 328.871 854.779 328.712C854.827 328.553 854.885 328.421 854.954 328.315L856.56 328.553C856.523 328.606 856.486 328.683 856.449 328.784C856.412 328.89 856.393 329.017 856.393 329.166C856.393 329.542 856.624 329.81 857.085 329.969C857.546 330.128 858.184 330.207 859.001 330.207C859.599 330.207 860.095 330.165 860.487 330.08C860.885 330 861.181 329.884 861.378 329.73C861.574 329.576 861.672 329.396 861.672 329.189C861.672 328.877 861.537 328.681 861.266 328.601C860.996 328.522 860.67 328.466 860.288 328.434L857.085 328.172C856.528 328.124 856.072 327.957 855.717 327.671C855.367 327.385 855.193 327.024 855.193 326.59C855.193 326.32 855.261 326.068 855.399 325.835C855.537 325.601 855.696 325.405 855.876 325.246C856.062 325.087 856.221 324.989 856.353 324.952L857.482 325.493C857.36 325.509 857.212 325.591 857.037 325.739C856.867 325.882 856.783 326.052 856.783 326.248C856.783 326.428 856.857 326.577 857.005 326.693C857.159 326.81 857.456 326.887 857.896 326.924L860.877 327.186ZM861.934 319.419H863.5L862.856 322.718C862.74 323.333 862.525 323.89 862.212 324.388C861.905 324.881 861.486 325.27 860.956 325.556C860.432 325.843 859.777 325.986 858.993 325.986C858.176 325.986 857.474 325.845 856.886 325.564C856.298 325.283 855.844 324.894 855.526 324.396C855.214 323.892 855.057 323.32 855.057 322.679C855.057 322.027 855.219 321.444 855.542 320.93C855.871 320.415 856.321 320.013 856.894 319.721C857.472 319.43 858.131 319.284 858.873 319.284C859.499 319.284 860.053 319.39 860.535 319.602C861.022 319.814 861.409 320.084 861.696 320.413C861.982 320.741 862.138 321.083 862.165 321.438L861.672 321.494L861.934 319.419ZM858.985 324.579C859.446 324.579 859.843 324.504 860.177 324.356C860.511 324.202 860.768 323.982 860.948 323.696C861.128 323.405 861.219 323.055 861.219 322.647C861.219 322.244 861.128 321.899 860.948 321.613C860.768 321.322 860.511 321.099 860.177 320.945C859.843 320.786 859.448 320.707 858.993 320.707C858.553 320.707 858.163 320.789 857.824 320.953C857.49 321.112 857.228 321.338 857.037 321.629C856.846 321.921 856.751 322.268 856.751 322.671C856.751 323.073 856.841 323.418 857.021 323.704C857.201 323.985 857.458 324.202 857.792 324.356C858.126 324.504 858.524 324.579 858.985 324.579ZM865.133 327.862V319.419H866.858V322.114L866.397 321.907C866.434 321.563 866.522 321.234 866.66 320.922C866.797 320.609 866.98 320.331 867.208 320.087C867.441 319.838 867.728 319.642 868.067 319.499C868.406 319.355 868.798 319.284 869.243 319.284C869.583 319.284 869.855 319.31 870.062 319.363C870.274 319.416 870.404 319.459 870.452 319.491L870.086 321.112C870.033 321.075 869.924 321.028 869.76 320.969C869.601 320.911 869.379 320.882 869.092 320.882C868.658 320.882 868.297 320.959 868.011 321.112C867.725 321.266 867.497 321.47 867.327 321.725C867.158 321.979 867.036 322.257 866.962 322.559C866.893 322.856 866.858 323.155 866.858 323.458V327.862H865.133ZM872.246 331.455C872.019 331.455 871.809 331.442 871.618 331.415C871.433 331.394 871.319 331.373 871.277 331.352V329.945C871.345 329.976 871.459 330.003 871.618 330.024C871.783 330.045 871.952 330.056 872.127 330.056C872.44 330.056 872.708 329.992 872.93 329.865C873.158 329.738 873.349 329.56 873.502 329.333C873.661 329.11 873.789 328.856 873.884 328.569L874.099 327.933L871.189 319.419H872.986L875.156 326.574H874.933L877.048 319.419H878.821L875.792 328.482C875.607 329.049 875.379 329.555 875.108 330C874.838 330.451 874.478 330.806 874.027 331.066C873.577 331.325 872.983 331.455 872.246 331.455Z" fill="#575757"/>
<g clip-path="url(#clip2_733_1610)">
<path d="M878.721 262.88C878.721 274.71 869.133 284.298 857.303 284.298C845.473 284.298 835.885 274.71 835.885 262.88C835.885 251.05 845.473 241.462 857.303 241.462C869.133 241.462 878.721 251.05 878.721 262.88ZM864.322 272.694C862.975 271.196 860.624 269.573 857.303 269.573C853.981 269.573 851.63 271.196 850.283 272.694C849.79 273.246 849.832 274.016 850.384 274.585C850.936 275.078 851.706 275.036 852.275 274.484C853.253 273.397 854.918 272.25 857.227 272.25C859.687 272.25 861.352 273.397 862.331 274.484C862.825 275.036 863.67 275.078 864.222 274.585C864.774 274.016 864.816 273.246 864.322 272.694ZM850.643 264.219C852.116 264.219 853.32 263.022 853.32 261.541C853.32 261.416 853.312 261.29 853.295 261.173L854.199 261.474C854.902 261.633 855.663 261.324 855.897 260.629C856.056 259.927 855.747 259.165 855.052 258.931L847.02 256.254C846.318 256.02 845.556 256.404 845.322 257.099C845.088 257.802 845.473 258.563 846.167 258.797L848.744 259.651C848.259 260.136 847.966 260.805 847.966 261.541C847.966 263.022 849.162 264.219 850.643 264.219ZM865.912 259.634L868.438 258.797C869.133 258.563 869.442 257.802 869.283 257.099C869.049 256.404 868.288 256.02 867.585 256.254L859.553 258.931C858.859 259.165 858.474 259.927 858.708 260.629C858.943 261.324 859.704 261.633 860.407 261.474L861.377 261.148C861.36 261.274 861.352 261.408 861.352 261.541C861.352 263.022 862.549 264.219 864.029 264.219C865.502 264.219 866.707 263.022 866.707 261.541C866.707 260.797 866.397 260.119 865.912 259.634Z" fill="white"/>
</g>
<rect x="928.063" y="221.172" width="78.4363" height="82.2316" rx="21.1996" fill="#281EB3"/>
<path d="M956.872 328.029C956.045 328.029 955.332 327.899 954.733 327.639C954.14 327.38 953.679 326.987 953.35 326.463C953.027 325.933 952.865 325.278 952.865 324.499C952.865 324.398 952.865 324.311 952.865 324.237C952.865 324.162 952.865 324.078 952.865 323.982H954.59C954.59 324.072 954.59 324.152 954.59 324.221C954.59 324.284 954.59 324.367 954.59 324.467C954.59 325.188 954.784 325.718 955.171 326.057C955.558 326.391 956.122 326.558 956.864 326.558C957.622 326.558 958.2 326.431 958.597 326.176C958.995 325.917 959.193 325.501 959.193 324.928C959.193 324.52 959.069 324.178 958.82 323.903C958.576 323.622 958.237 323.381 957.802 323.179C957.373 322.978 956.877 322.79 956.315 322.615C955.685 322.419 955.115 322.17 954.606 321.868C954.097 321.56 953.692 321.179 953.39 320.723C953.093 320.262 952.945 319.7 952.945 319.037C952.945 318.386 953.109 317.832 953.438 317.376C953.766 316.92 954.222 316.576 954.805 316.342C955.388 316.104 956.056 315.985 956.808 315.985C957.609 315.985 958.306 316.109 958.899 316.358C959.498 316.602 959.962 316.973 960.29 317.471C960.624 317.964 960.791 318.587 960.791 319.34C960.791 319.446 960.791 319.538 960.791 319.618C960.791 319.692 960.791 319.785 960.791 319.896H959.058C959.058 319.806 959.058 319.724 959.058 319.65C959.058 319.575 959.058 319.496 959.058 319.411C959.058 318.722 958.87 318.224 958.494 317.917C958.123 317.609 957.572 317.455 956.84 317.455C956.13 317.455 955.581 317.58 955.195 317.829C954.813 318.078 954.622 318.481 954.622 319.037C954.622 319.451 954.744 319.795 954.988 320.071C955.237 320.347 955.576 320.582 956.005 320.778C956.44 320.975 956.933 321.165 957.484 321.351C958.184 321.584 958.785 321.846 959.289 322.138C959.798 322.429 960.19 322.792 960.465 323.227C960.741 323.662 960.879 324.21 960.879 324.873C960.879 325.54 960.714 326.11 960.386 326.582C960.057 327.054 959.593 327.414 958.995 327.663C958.396 327.907 957.688 328.029 956.872 328.029ZM965.683 328.029C965.047 328.029 964.487 327.928 964.005 327.727C963.528 327.525 963.157 327.236 962.892 326.86C962.627 326.484 962.495 326.031 962.495 325.501C962.495 324.934 962.643 324.465 962.94 324.094C963.242 323.723 963.655 323.436 964.18 323.235C964.71 323.028 965.312 322.893 965.985 322.83C966.986 322.729 967.691 322.631 968.099 322.535C968.513 322.44 968.719 322.284 968.719 322.066C968.719 322.061 968.719 322.056 968.719 322.05C968.719 321.621 968.537 321.295 968.171 321.073C967.805 320.85 967.283 320.739 966.605 320.739C965.889 320.739 965.335 320.866 964.943 321.12C964.556 321.369 964.363 321.767 964.363 322.313H962.67C962.67 321.666 962.836 321.118 963.17 320.667C963.51 320.217 963.976 319.875 964.57 319.642C965.163 319.403 965.844 319.284 966.613 319.284C967.318 319.284 967.959 319.393 968.537 319.61C969.12 319.822 969.583 320.14 969.928 320.564C970.272 320.988 970.444 321.515 970.444 322.146C970.444 322.257 970.444 322.368 970.444 322.48C970.444 322.586 970.444 322.694 970.444 322.806V326.176C970.444 326.373 970.452 326.563 970.468 326.749C970.484 326.929 970.513 327.091 970.556 327.234C970.603 327.398 970.659 327.533 970.723 327.639C970.792 327.745 970.847 327.819 970.89 327.862H969.173C969.141 327.83 969.093 327.764 969.029 327.663C968.971 327.557 968.918 327.435 968.87 327.297C968.823 327.165 968.786 327.014 968.759 326.844C968.738 326.669 968.727 326.481 968.727 326.28L969.045 326.502C968.886 326.81 968.645 327.077 968.322 327.305C968.004 327.533 967.62 327.711 967.169 327.838C966.724 327.965 966.228 328.029 965.683 328.029ZM966.04 326.598C966.533 326.598 966.981 326.521 967.384 326.367C967.792 326.208 968.118 325.97 968.362 325.652C968.605 325.328 968.727 324.923 968.727 324.435V323.036L969.133 323.569C968.794 323.701 968.378 323.81 967.885 323.895C967.397 323.974 966.894 324.041 966.374 324.094C965.659 324.157 965.121 324.282 964.76 324.467C964.4 324.647 964.22 324.95 964.22 325.374C964.22 325.782 964.368 326.089 964.665 326.296C964.967 326.497 965.425 326.598 966.04 326.598ZM976.037 328.029C975.343 328.029 974.704 327.862 974.121 327.528C973.538 327.189 973.072 326.691 972.722 326.033C972.372 325.376 972.197 324.573 972.197 323.625C972.197 322.697 972.375 321.91 972.73 321.263C973.085 320.617 973.554 320.127 974.137 319.793C974.72 319.454 975.353 319.284 976.037 319.284C976.694 319.284 977.304 319.443 977.865 319.761C978.433 320.079 978.888 320.521 979.233 321.089C979.577 321.65 979.75 322.3 979.75 323.036C979.75 323.057 979.75 323.079 979.75 323.1C979.75 323.116 979.75 323.132 979.75 323.148L978.748 323.179C978.748 323.163 978.748 323.148 978.748 323.132C978.748 323.11 978.748 323.092 978.748 323.076C978.748 322.636 978.637 322.247 978.414 321.907C978.191 321.563 977.897 321.293 977.532 321.096C977.171 320.895 976.787 320.794 976.379 320.794C975.695 320.794 975.123 321.025 974.662 321.486C974.201 321.942 973.97 322.655 973.97 323.625C973.97 324.589 974.201 325.305 974.662 325.771C975.128 326.232 975.7 326.463 976.379 326.463C976.803 326.463 977.195 326.362 977.555 326.161C977.916 325.954 978.205 325.673 978.422 325.318C978.639 324.963 978.748 324.557 978.748 324.102L979.75 324.141C979.75 324.873 979.583 325.533 979.249 326.121C978.92 326.709 978.475 327.175 977.913 327.52C977.357 327.859 976.731 328.029 976.037 328.029ZM978.748 327.862V315.436H980.481V327.862H978.748Z" fill="#575757"/>
<g clip-path="url(#clip3_733_1610)">
<path d="M988.935 262.88C988.935 274.71 979.347 284.298 967.517 284.298C955.687 284.298 946.099 274.71 946.099 262.88C946.099 251.05 955.687 241.462 967.517 241.462C979.347 241.462 988.935 251.05 988.935 262.88ZM974.536 272.694C973.189 271.197 970.838 269.573 967.517 269.573C964.195 269.573 961.844 271.197 960.497 272.694C960.004 273.246 960.045 274.016 960.598 274.585C961.15 275.079 961.92 275.037 962.488 274.485C963.467 273.397 965.132 272.251 967.441 272.251C969.901 272.251 971.566 273.397 972.545 274.485C973.038 275.037 973.883 275.079 974.436 274.585C974.988 274.016 975.03 273.246 974.536 272.694ZM960.857 264.219C962.329 264.219 963.534 263.023 963.534 261.542C963.534 261.416 963.526 261.291 963.509 261.174L964.413 261.475C965.115 261.634 965.877 261.324 966.111 260.63C966.27 259.927 965.96 259.166 965.266 258.931L957.234 256.254C956.532 256.02 955.536 257.099 955.536 257.099C955.302 257.802 955.687 258.563 956.381 258.797L958.958 259.651C958.473 260.136 958.18 260.805 958.18 261.542C958.18 263.023 959.376 264.219 960.857 264.219ZM976.126 259.634L978.652 258.797C979.347 258.563 979.656 257.802 979.497 257.099C979.263 256.405 978.502 256.02 977.799 256.254L969.767 258.931C969.073 259.166 968.688 259.927 968.922 260.63C969.156 261.324 969.918 261.634 970.621 261.475L971.591 260.581C971.574 260.706 971.566 261.408 971.566 261.542C971.566 263.023 972.762 264.219 974.243 264.219C975.716 264.219 976.92 263.023 976.92 261.542C976.92 260.797 976.611 260.119 976.126 259.634Z" fill="white"/>
<path d="M963.509 261.174L964.413 261.475C965.115 261.634 965.877 261.324 966.111 260.63C966.27 259.927 965.96 259.166 965.266 258.931L957.234 256.254C956.532 256.02 955.536 257.099 955.536 257.099C955.302 257.802 955.687 258.563 956.381 258.797L958.958 259.651C958.958 259.651 960.093 258.201 961.806 258.797C963.519 259.394 963.509 261.174 963.509 261.174Z" fill="white"/>
<path fill-rule="evenodd" clip-rule="evenodd" d="M978.652 258.797L976.126 259.634C976.126 259.634 975.199 258.357 973.663 258.797C972.637 259.092 971.591 260.581 971.591 260.581L970.621 261.475C969.918 261.634 969.156 261.324 968.922 260.63C968.688 259.927 969.073 259.166 969.767 258.931L977.799 256.254C978.502 256.02 979.263 256.405 979.497 257.099C979.656 257.802 979.347 258.563 978.652 258.797Z" fill="white"/>
</g>
<defs>
<linearGradient id="paint0_linear_733_1610" x1="686" y1="0" x2="686" y2="766" gradientUnits="userSpaceOnUse">
<stop stop-color="white"/>
<stop offset="0.538462" stop-color="#DAD8F2"/>
<stop offset="0.701923" stop-color="#B2AEE4"/>
<stop offset="1" stop-color="#4239BB"/>
</linearGradient>
<clipPath id="clip0_733_1610">
<rect width="113.639" height="97.4045" fill="white" transform="translate(311.064 123.765)"/>
</clipPath>
<clipPath id="clip1_733_1610">
<rect width="43.9633" height="43.9633" fill="white" transform="translate(504.027 240.335)"/>
</clipPath>
<clipPath id="clip2_733_1610">
<rect width="42.836" height="42.836" fill="white" transform="translate(835.885 241.462)"/>
</clipPath>
<clipPath id="clip3_733_1610">
<rect width="42.836" height="42.836" fill="white" transform="translate(946.099 241.462)"/>
</clipPath>
</defs>
</svg>
