<svg width="458" height="441" viewBox="0 0 458 441" fill="none" xmlns="http://www.w3.org/2000/svg">
<g filter="url(#filter0_d_666_1639)">
<rect x="3.56934" y="2.7395" width="445.36" height="428.526" rx="18.2635" fill="white"/>
</g>
<g filter="url(#filter1_d_666_1639)">
<path d="M328.176 157.697L285.811 139.91V294.495H328.176V157.697Z" fill="#20087A" stroke="#20087A" stroke-width="1.17636"/>
<path d="M145.489 60.4533L263.189 107.254V296.361H145.489V60.4533Z" fill="#7678ED"/>
<path d="M243.548 77.5515L285.921 95.3803V295.631H243.548V77.5515Z" fill="#F18702"/>
<path d="M243.576 98.7314L263.186 106.078V295.185H243.576L243.576 98.7314Z" fill="#3E348B"/>
<path d="M168.903 157.355L121.942 179.011L121.941 296.527H172.177L168.903 157.355Z" fill="#F18702"/>
<path d="M168.903 157.355L145.106 167.95L147.059 296.527H172.177L168.903 157.355Z" fill="#F35B05"/>
<path d="M312.325 227.911C336.404 232.073 329.7 296.073 329.7 296.073H234.318C234.318 296.073 229.555 272.587 239.762 263.075C250.44 253.124 266.306 263.075 266.306 263.075C266.306 263.075 270.241 237.924 284.014 236.236C289.215 235.598 295.434 242.964 295.434 242.964C295.434 242.964 305.768 226.778 312.325 227.911Z" fill="#0F7112" stroke="#0F7112" stroke-width="1.17636"/>
<path d="M235.663 296.25H207.733L215.568 149.115C215.568 149.115 205.738 144.511 204.476 138.557C203.617 134.503 206.934 130.422 210.448 127.364V121.322L217.598 120.438V104.04L220.034 78.6034V47.1877L221.127 78.6034L224.501 104.04L225.544 120.438H232.778V127.641C236.083 130.699 239.126 134.69 238.308 138.557C237.054 144.485 226.938 149.115 226.938 149.115L235.663 296.25Z" fill="#FFDD2A"/>
<path d="M210.448 127.364C213.926 124.337 217.598 122.313 217.598 122.313V120.438M210.448 127.364C206.934 130.422 203.617 134.503 204.476 138.557C205.738 144.511 215.568 149.115 215.568 149.115L207.733 296.25H235.663L226.938 149.115C226.938 149.115 237.054 144.485 238.308 138.557C239.126 134.69 236.083 130.699 232.778 127.641M210.448 127.364V121.322L217.598 120.438M217.598 120.438V104.04L220.034 78.6034V47.1877L221.127 78.6034L224.501 104.04L225.544 120.438M232.778 127.641C229.361 124.478 225.663 122.313 225.663 122.313L225.544 120.438M232.778 127.641V120.438H225.544" stroke="#FFDD2A" stroke-width="1.17636"/>
</g>
<path d="M375.178 379.912C370.637 379.912 367.023 378.523 364.333 375.746C361.644 372.925 360.168 369.089 359.903 364.24C359.859 363.667 359.837 362.94 359.837 362.058C359.837 361.132 359.859 360.383 359.903 359.81C360.079 356.68 360.807 353.947 362.085 351.61C363.364 349.23 365.105 347.4 367.309 346.122C369.557 344.844 372.18 344.204 375.178 344.204C378.528 344.204 381.328 344.91 383.576 346.32C385.868 347.731 387.609 349.737 388.8 352.338C389.99 354.939 390.585 357.98 390.585 361.463V362.587C390.585 363.072 390.431 363.447 390.122 363.711C389.858 363.976 389.505 364.108 389.064 364.108H366.185C366.185 364.152 366.185 364.24 366.185 364.372C366.185 364.505 366.185 364.615 366.185 364.703C366.273 366.51 366.67 368.208 367.375 369.795C368.08 371.338 369.094 372.594 370.417 373.564C371.739 374.534 373.326 375.019 375.178 375.019C376.765 375.019 378.087 374.776 379.145 374.291C380.203 373.806 381.063 373.277 381.724 372.704C382.386 372.087 382.826 371.624 383.047 371.316C383.444 370.742 383.752 370.412 383.973 370.324C384.193 370.191 384.546 370.125 385.031 370.125H388.205C388.645 370.125 388.998 370.258 389.263 370.522C389.571 370.742 389.703 371.073 389.659 371.514C389.615 372.175 389.263 372.991 388.601 373.961C387.94 374.886 386.992 375.812 385.758 376.738C384.524 377.664 383.025 378.435 381.261 379.052C379.498 379.625 377.47 379.912 375.178 379.912ZM366.185 359.545H384.303V359.347C384.303 357.363 383.928 355.6 383.179 354.057C382.474 352.514 381.438 351.302 380.071 350.42C378.705 349.494 377.073 349.031 375.178 349.031C373.282 349.031 371.651 349.494 370.285 350.42C368.962 351.302 367.948 352.514 367.243 354.057C366.538 355.6 366.185 357.363 366.185 359.347V359.545Z" fill="#FFDD2A"/>
<path d="M339.196 379.253C338.755 379.253 338.38 379.121 338.072 378.856C337.807 378.548 337.675 378.173 337.675 377.732V346.455C337.675 346.014 337.807 345.64 338.072 345.331C338.38 345.022 338.755 344.868 339.196 344.868H342.237C342.678 344.868 343.053 345.022 343.362 345.331C343.67 345.64 343.824 346.014 343.824 346.455V349.365C344.706 347.866 345.918 346.742 347.461 345.992C349.004 345.243 350.856 344.868 353.016 344.868H355.661C356.102 344.868 356.454 345.022 356.719 345.331C356.983 345.596 357.116 345.948 357.116 346.389V349.1C357.116 349.541 356.983 349.894 356.719 350.158C356.454 350.423 356.102 350.555 355.661 350.555H351.693C349.313 350.555 347.439 351.26 346.073 352.671C344.706 354.037 344.023 355.911 344.023 358.292V377.732C344.023 378.173 343.869 378.548 343.56 378.856C343.251 379.121 342.877 379.253 342.436 379.253H339.196Z" fill="#FFDD2A"/>
<path d="M315.019 379.912C310.478 379.912 306.863 378.523 304.174 375.746C301.485 372.925 300.008 369.089 299.744 364.24C299.7 363.667 299.678 362.94 299.678 362.058C299.678 361.132 299.7 360.383 299.744 359.81C299.92 356.68 300.648 353.947 301.926 351.61C303.204 349.23 304.946 347.4 307.15 346.122C309.398 344.844 312.021 344.204 315.019 344.204C318.369 344.204 321.168 344.91 323.417 346.32C325.709 347.731 327.45 349.737 328.64 352.338C329.831 354.939 330.426 357.98 330.426 361.463V362.587C330.426 363.072 330.272 363.447 329.963 363.711C329.698 363.976 329.346 364.108 328.905 364.108H306.026C306.026 364.152 306.026 364.24 306.026 364.372C306.026 364.505 306.026 364.615 306.026 364.703C306.114 366.51 306.511 368.208 307.216 369.795C307.921 371.338 308.935 372.594 310.258 373.564C311.58 374.534 313.167 375.019 315.019 375.019C316.606 375.019 317.928 374.776 318.986 374.291C320.044 373.806 320.904 373.277 321.565 372.704C322.226 372.087 322.667 371.624 322.888 371.316C323.284 370.742 323.593 370.412 323.813 370.324C324.034 370.191 324.386 370.125 324.871 370.125H328.045C328.486 370.125 328.839 370.258 329.103 370.522C329.412 370.742 329.544 371.073 329.5 371.514C329.456 372.175 329.103 372.991 328.442 373.961C327.781 374.886 326.833 375.812 325.599 376.738C324.364 377.664 322.866 378.435 321.102 379.052C319.339 379.625 317.311 379.912 315.019 379.912ZM306.026 359.545H324.144V359.347C324.144 357.363 323.769 355.6 323.02 354.057C322.314 352.514 321.279 351.302 319.912 350.42C318.545 349.494 316.914 349.031 315.019 349.031C313.123 349.031 311.492 349.494 310.125 350.42C308.803 351.302 307.789 352.514 307.084 354.057C306.378 355.6 306.026 357.363 306.026 359.347V359.545Z" fill="#FFDD2A"/>
<path d="M263.286 379.252C262.845 379.252 262.47 379.12 262.161 378.855C261.897 378.547 261.765 378.172 261.765 377.731V333.824C261.765 333.384 261.897 333.031 262.161 332.766C262.47 332.458 262.845 332.303 263.286 332.303H266.592C267.077 332.303 267.451 332.458 267.716 332.766C267.98 333.031 268.113 333.384 268.113 333.824V349.231C269.303 347.733 270.758 346.52 272.477 345.595C274.196 344.669 276.378 344.206 279.023 344.206C281.889 344.206 284.313 344.845 286.297 346.124C288.325 347.358 289.846 349.099 290.86 351.347C291.918 353.552 292.447 356.13 292.447 359.084V377.731C292.447 378.172 292.314 378.547 292.05 378.855C291.785 379.12 291.411 379.252 290.926 379.252H287.619C287.179 379.252 286.804 379.12 286.495 378.855C286.231 378.547 286.099 378.172 286.099 377.731V359.415C286.099 356.329 285.349 353.926 283.85 352.207C282.352 350.444 280.147 349.562 277.238 349.562C274.505 349.562 272.301 350.444 270.625 352.207C268.95 353.926 268.113 356.329 268.113 359.415V377.731C268.113 378.172 267.98 378.547 267.716 378.855C267.451 379.12 267.077 379.252 266.592 379.252H263.286Z" fill="#FFDD2A"/>
<path d="M224.563 391.814C224.122 391.814 223.747 391.66 223.439 391.351C223.174 391.087 223.042 390.734 223.042 390.293V346.386C223.042 345.946 223.174 345.593 223.439 345.328C223.747 345.02 224.122 344.866 224.563 344.866H227.605C228.045 344.866 228.398 345.02 228.663 345.328C228.971 345.593 229.125 345.946 229.125 346.386V349.296C230.183 347.841 231.594 346.629 233.357 345.659C235.121 344.689 237.325 344.204 239.97 344.204C242.439 344.204 244.533 344.623 246.252 345.461C248.015 346.298 249.448 347.444 250.55 348.899C251.696 350.354 252.556 352.007 253.129 353.859C253.702 355.71 254.01 357.694 254.055 359.81C254.099 360.515 254.121 361.265 254.121 362.058C254.121 362.852 254.099 363.601 254.055 364.306C254.01 366.378 253.702 368.362 253.129 370.258C252.556 372.109 251.696 373.762 250.55 375.217C249.448 376.628 248.015 377.774 246.252 378.655C244.533 379.493 242.439 379.912 239.97 379.912C237.413 379.912 235.253 379.449 233.49 378.523C231.77 377.553 230.36 376.363 229.258 374.952V390.293C229.258 390.734 229.125 391.087 228.861 391.351C228.596 391.66 228.222 391.814 227.737 391.814H224.563ZM238.581 374.556C240.874 374.556 242.659 374.071 243.937 373.101C245.26 372.087 246.208 370.787 246.781 369.2C247.354 367.568 247.685 365.827 247.773 363.976C247.817 362.697 247.817 361.419 247.773 360.14C247.685 358.289 247.354 356.57 246.781 354.983C246.208 353.352 245.26 352.051 243.937 351.081C242.659 350.067 240.874 349.56 238.581 349.56C236.421 349.56 234.658 350.067 233.291 351.081C231.969 352.095 230.977 353.396 230.316 354.983C229.699 356.526 229.346 358.113 229.258 359.744C229.214 360.449 229.192 361.287 229.192 362.256C229.192 363.226 229.214 364.086 229.258 364.835C229.302 366.378 229.654 367.899 230.316 369.398C231.021 370.897 232.057 372.131 233.424 373.101C234.79 374.071 236.509 374.556 238.581 374.556Z" fill="#FFDD2A"/>
<path d="M198.239 379.913C194.404 379.913 191.186 379.34 188.585 378.194C185.984 377.004 183.979 375.483 182.568 373.632C181.201 371.736 180.474 369.73 180.386 367.614C180.386 367.262 180.518 366.953 180.782 366.688C181.091 366.38 181.444 366.226 181.84 366.226H185.213C185.742 366.226 186.139 366.358 186.403 366.622C186.668 366.887 186.844 367.195 186.932 367.548C187.153 368.606 187.682 369.664 188.519 370.722C189.401 371.736 190.613 372.596 192.156 373.301C193.743 373.962 195.771 374.293 198.239 374.293C202.031 374.293 204.808 373.632 206.571 372.309C208.379 370.942 209.282 369.135 209.282 366.887C209.282 365.344 208.797 364.11 207.828 363.184C206.902 362.214 205.469 361.354 203.529 360.605C201.59 359.856 199.077 359.04 195.991 358.158C192.773 357.233 190.106 356.219 187.99 355.117C185.874 354.014 184.287 352.648 183.229 351.017C182.215 349.386 181.708 347.314 181.708 344.801C181.708 342.421 182.347 340.305 183.626 338.453C184.904 336.558 186.734 335.059 189.114 333.957C191.539 332.855 194.47 332.303 197.909 332.303C200.642 332.303 203.023 332.678 205.05 333.428C207.122 334.133 208.841 335.103 210.208 336.337C211.575 337.527 212.611 338.828 213.316 340.238C214.021 341.605 214.396 342.95 214.44 344.272C214.44 344.581 214.33 344.889 214.109 345.198C213.889 345.462 213.536 345.595 213.051 345.595H209.547C209.238 345.595 208.908 345.506 208.555 345.33C208.246 345.154 208.004 344.823 207.828 344.338C207.563 342.531 206.549 341.01 204.786 339.776C203.023 338.541 200.73 337.924 197.909 337.924C195.043 337.924 192.707 338.475 190.9 339.577C189.136 340.679 188.255 342.399 188.255 344.735C188.255 346.234 188.673 347.49 189.511 348.504C190.349 349.474 191.671 350.334 193.478 351.083C195.286 351.832 197.644 352.626 200.554 353.463C204.081 354.433 206.968 355.469 209.216 356.571C211.464 357.629 213.118 358.974 214.176 360.605C215.278 362.192 215.829 364.242 215.829 366.755C215.829 369.532 215.101 371.912 213.647 373.896C212.192 375.836 210.142 377.335 207.497 378.393C204.896 379.406 201.81 379.913 198.239 379.913Z" fill="#FFDD2A"/>
<path d="M152.76 391.817C152.407 391.817 152.099 391.685 151.834 391.42C151.57 391.156 151.438 390.847 151.438 390.494C151.438 390.318 151.46 390.142 151.504 389.965C151.548 389.789 151.636 389.569 151.768 389.304L156.86 377.203L144.23 347.381C144.01 346.852 143.899 346.477 143.899 346.257C143.899 345.86 144.032 345.529 144.296 345.265C144.561 345 144.891 344.868 145.288 344.868H148.528C148.969 344.868 149.322 344.978 149.586 345.199C149.851 345.419 150.027 345.684 150.115 345.992L160.166 370.062L170.482 345.992C170.614 345.684 170.79 345.419 171.011 345.199C171.275 344.978 171.65 344.868 172.135 344.868H175.243C175.639 344.868 175.97 345 176.234 345.265C176.499 345.529 176.631 345.838 176.631 346.191C176.631 346.411 176.521 346.808 176.301 347.381L157.521 390.693C157.389 391.001 157.191 391.266 156.926 391.486C156.706 391.707 156.353 391.817 155.868 391.817H152.76Z" fill="#FFDD2A"/>
<path d="M134.993 379.252C132.524 379.252 130.518 378.789 128.975 377.864C127.432 376.894 126.308 375.549 125.603 373.83C124.897 372.067 124.545 369.995 124.545 367.614V350.157H119.387C118.946 350.157 118.572 350.025 118.263 349.76C117.998 349.452 117.866 349.077 117.866 348.636V346.388C117.866 345.947 117.998 345.595 118.263 345.33C118.572 345.021 118.946 344.867 119.387 344.867H124.545V333.824C124.545 333.384 124.677 333.031 124.942 332.766C125.25 332.458 125.625 332.303 126.066 332.303H129.174C129.614 332.303 129.967 332.458 130.232 332.766C130.54 333.031 130.694 333.384 130.694 333.824V344.867H138.894C139.335 344.867 139.687 345.021 139.952 345.33C140.261 345.595 140.415 345.947 140.415 346.388V348.636C140.415 349.077 140.261 349.452 139.952 349.76C139.687 350.025 139.335 350.157 138.894 350.157H130.694V367.151C130.694 369.223 131.047 370.854 131.752 372.045C132.458 373.235 133.714 373.83 135.522 373.83H139.555C139.996 373.83 140.349 373.984 140.613 374.293C140.922 374.557 141.076 374.91 141.076 375.351V377.731C141.076 378.172 140.922 378.547 140.613 378.855C140.349 379.12 139.996 379.252 139.555 379.252H134.993Z" fill="#FFDD2A"/>
<path d="M107.737 379.252C107.297 379.252 106.922 379.12 106.613 378.855C106.349 378.547 106.216 378.172 106.216 377.731V346.388C106.216 345.947 106.349 345.594 106.613 345.33C106.922 345.021 107.297 344.867 107.737 344.867H110.911C111.352 344.867 111.705 345.021 111.969 345.33C112.234 345.594 112.366 345.947 112.366 346.388V377.731C112.366 378.172 112.234 378.547 111.969 378.855C111.705 379.12 111.352 379.252 110.911 379.252H107.737ZM107.208 338.453C106.768 338.453 106.393 338.321 106.084 338.056C105.82 337.747 105.688 337.373 105.688 336.932V333.361C105.688 332.92 105.82 332.568 106.084 332.303C106.393 331.995 106.768 331.84 107.208 331.84H111.374C111.815 331.84 112.168 331.995 112.432 332.303C112.741 332.568 112.895 332.92 112.895 333.361V336.932C112.895 337.373 112.741 337.747 112.432 338.056C112.168 338.321 111.815 338.453 111.374 338.453H107.208Z" fill="#FFDD2A"/>
<path d="M80.3619 379.913C76.3063 379.913 72.9339 379.164 70.2448 377.665C67.5998 376.166 65.594 374.072 64.2275 371.383C62.8609 368.694 62.1115 365.564 61.9792 361.994C61.9351 360.186 61.9131 358.246 61.9131 356.175C61.9131 354.103 61.9351 352.119 61.9792 350.223C62.1115 346.653 62.8609 343.523 64.2275 340.834C65.594 338.145 67.5998 336.051 70.2448 334.552C72.9339 333.053 76.3063 332.303 80.3619 332.303C83.4037 332.303 86.0707 332.722 88.3631 333.56C90.6554 334.397 92.551 335.522 94.0498 336.932C95.5927 338.343 96.7609 339.93 97.5544 341.693C98.3479 343.412 98.7888 345.198 98.8769 347.049C98.921 347.446 98.7888 347.777 98.4802 348.041C98.2157 348.306 97.885 348.438 97.4883 348.438H93.8514C93.4547 348.438 93.102 348.328 92.7934 348.107C92.5289 347.887 92.3306 347.49 92.1983 346.917C91.4489 343.479 90.0382 341.12 87.9663 339.842C85.9385 338.563 83.3816 337.924 80.2958 337.924C76.7692 337.924 73.9699 338.938 71.898 340.966C69.826 342.95 68.7019 346.146 68.5256 350.554C68.3933 354.169 68.3933 357.872 68.5256 361.663C68.7019 366.071 69.826 369.289 71.898 371.317C73.9699 373.301 76.7692 374.293 80.2958 374.293C83.3816 374.293 85.9385 373.654 87.9663 372.375C90.0382 371.097 91.4489 368.738 92.1983 365.3C92.3306 364.727 92.5289 364.33 92.7934 364.11C93.102 363.889 93.4547 363.779 93.8514 363.779H97.4883C97.885 363.779 98.2157 363.911 98.4802 364.176C98.7888 364.44 98.921 364.771 98.8769 365.168C98.7888 367.019 98.3479 368.826 97.5544 370.59C96.7609 372.309 95.5927 373.874 94.0498 375.285C92.551 376.695 90.6554 377.819 88.3631 378.657C86.0707 379.495 83.4037 379.913 80.3619 379.913Z" fill="#FFDD2A"/>
<defs>
<filter id="filter0_d_666_1639" x="-0.000350237" y="-2.47955e-05" width="457.481" height="440.646" filterUnits="userSpaceOnUse" color-interpolation-filters="sRGB">
<feFlood flood-opacity="0" result="BackgroundImageFix"/>
<feColorMatrix in="SourceAlpha" type="matrix" values="0 0 0 0 0 0 0 0 0 0 0 0 0 0 0 0 0 0 127 0" result="hardAlpha"/>
<feOffset dx="2.49048" dy="3.32064"/>
<feGaussianBlur stdDeviation="3.03008"/>
<feComposite in2="hardAlpha" operator="out"/>
<feColorMatrix type="matrix" values="0 0 0 0 0 0 0 0 0 0 0 0 0 0 0 0 0 0 0.25 0"/>
<feBlend mode="normal" in2="BackgroundImageFix" result="effect1_dropShadow_666_1639"/>
<feBlend mode="normal" in="SourceGraphic" in2="effect1_dropShadow_666_1639" result="shape"/>
</filter>
<filter id="filter1_d_666_1639" x="120.941" y="47.1672" width="217.204" height="257.671" filterUnits="userSpaceOnUse" color-interpolation-filters="sRGB">
<feFlood flood-opacity="0" result="BackgroundImageFix"/>
<feColorMatrix in="SourceAlpha" type="matrix" values="0 0 0 0 0 0 0 0 0 0 0 0 0 0 0 0 0 0 127 0" result="hardAlpha"/>
<feOffset dx="3" dy="4"/>
<feGaussianBlur stdDeviation="2"/>
<feComposite in2="hardAlpha" operator="out"/>
<feColorMatrix type="matrix" values="0 0 0 0 0 0 0 0 0 0 0 0 0 0 0 0 0 0 0.25 0"/>
<feBlend mode="normal" in2="BackgroundImageFix" result="effect1_dropShadow_666_1639"/>
<feBlend mode="normal" in="SourceGraphic" in2="effect1_dropShadow_666_1639" result="shape"/>
</filter>
</defs>
</svg>
