<svg width="285" height="615" viewBox="0 0 285 615" fill="none" xmlns="http://www.w3.org/2000/svg">
<mask id="mask0_783_1773" style="mask-type:luminance" maskUnits="userSpaceOnUse" x="0" y="0" width="285" height="615">
<path d="M284.163 0H0V614.958H284.163V0Z" fill="white"/>
</mask>
<g mask="url(#mask0_783_1773)">
<path d="M284.163 0H0V614.958H284.163V0Z" fill="#E0E0E0"/>
<mask id="mask1_783_1773" style="mask-type:luminance" maskUnits="userSpaceOnUse" x="0" y="0" width="285" height="33">
<path d="M284.163 0H0V32.0594H284.163V0Z" fill="white"/>
</mask>
<g mask="url(#mask1_783_1773)">
<path opacity="0.35" d="M257.692 12.9951H269.835C270.708 12.9951 271.414 13.7021 271.414 14.574V18.9455C271.414 19.8177 270.708 20.5237 269.835 20.5237H257.692C256.82 20.5237 256.113 19.8177 256.113 18.9455V14.574L256.121 14.4125C256.202 13.6163 256.875 12.9951 257.692 12.9951Z" fill="black" stroke="black" stroke-width="0.728624"/>
<path opacity="0.4" d="M272.504 15.3018V18.2163C273.09 17.9695 273.472 17.3952 273.472 16.759C273.472 16.1228 273.09 15.5486 272.504 15.3018Z" fill="black"/>
<path d="M257.203 15.0594C257.203 14.5228 257.638 14.0879 258.174 14.0879H269.347C269.883 14.0879 270.318 14.5228 270.318 15.0594V18.4596C270.318 18.9963 269.883 19.4313 269.347 19.4313H258.174C257.638 19.4313 257.203 18.9963 257.203 18.4596V15.0594Z" fill="black"/>
<path d="M244.907 18.7493C245.837 17.9632 247.198 17.9632 248.128 18.7493C248.175 18.7916 248.201 18.8514 248.203 18.9143C248.204 18.9771 248.18 19.0384 248.134 19.0821L246.679 20.551C246.636 20.594 246.578 20.6187 246.518 20.6187C246.457 20.6187 246.399 20.594 246.356 20.551L244.9 19.0821C244.856 19.0384 244.831 18.9771 244.832 18.9143C244.833 18.8514 244.861 18.7915 244.907 18.7493ZM242.966 16.7897C244.968 14.9273 248.069 14.9273 250.071 16.7897C250.116 16.8333 250.143 16.8934 250.143 16.9562C250.144 17.019 250.119 17.0795 250.075 17.1241L249.234 17.9744C249.147 18.0612 249.007 18.0631 248.918 17.9786C248.26 17.3833 247.404 17.0537 246.518 17.0537C245.631 17.054 244.776 17.3836 244.119 17.9786C244.03 18.0631 243.889 18.0612 243.803 17.9744L242.962 17.1241C242.917 17.0796 242.893 17.0189 242.893 16.9562C242.894 16.8934 242.92 16.8332 242.966 16.7897ZM241.024 14.8358C244.095 11.8927 248.94 11.8925 252.011 14.8358C252.056 14.8794 252.081 14.9393 252.081 15.0016C252.081 15.0639 252.057 15.1238 252.013 15.168L251.171 16.0184C251.084 16.1054 250.943 16.1063 250.855 16.0205C249.685 14.9081 248.132 14.2879 246.518 14.2879C244.903 14.2879 243.35 14.908 242.179 16.0205C242.091 16.1064 241.951 16.1056 241.864 16.0184L241.022 15.168C240.978 15.1237 240.953 15.0639 240.953 15.0016C240.954 14.9393 240.979 14.8794 241.024 14.8358Z" fill="black"/>
<path d="M226.36 17.7308C226.762 17.7308 227.088 18.057 227.088 18.4594V19.9169C227.088 20.3191 226.762 20.6456 226.36 20.6456H225.631C225.229 20.6456 224.902 20.3191 224.902 19.9169V18.4594C224.902 18.057 225.229 17.7308 225.631 17.7308H226.36ZM229.76 16.2735C230.162 16.2737 230.489 16.5998 230.489 17.0022V19.9169C230.489 20.3191 230.162 20.6448 229.76 20.6456H229.031C228.629 20.6456 228.303 20.3191 228.303 19.9169V17.0022C228.303 16.5997 228.629 16.2735 229.031 16.2735H229.76ZM233.16 14.5729C233.562 14.5729 233.888 14.8993 233.888 15.3016V19.9169C233.888 20.3191 233.562 20.6456 233.16 20.6456H232.431C232.029 20.6448 231.703 20.3191 231.703 19.9169V15.3016C231.703 14.8993 232.029 14.5731 232.431 14.5729H233.16ZM236.56 12.873C236.963 12.873 237.289 13.1993 237.289 13.6017V19.9169C237.289 20.3191 236.963 20.6456 236.56 20.6456H235.832C235.43 20.6456 235.103 20.3191 235.103 19.9169V13.6017C235.103 13.1993 235.43 12.873 235.832 12.873H236.56Z" fill="black"/>
<path d="M27.1927 20.5891C29.1511 20.5891 30.3147 19.0575 30.3147 16.4642C30.3147 15.4876 30.1281 14.6658 29.7704 14.0307C29.2523 13.0434 28.3614 12.5098 27.2354 12.5098C25.5597 12.5098 24.375 13.6358 24.375 15.2154C24.375 16.699 25.4424 17.777 26.9099 17.777C27.8118 17.777 28.5427 17.3554 28.9055 16.6243H28.9215C28.9215 16.6243 28.9434 16.6243 28.9485 16.6243C28.9594 16.6243 28.9966 16.6243 28.9966 16.6243C28.9966 18.3853 28.3295 19.4364 27.2034 19.4364C26.5417 19.4364 26.0293 19.0736 25.8532 18.4921H24.4817C24.7113 19.757 25.7839 20.5891 27.1927 20.5891ZM27.2407 16.683C26.3549 16.683 25.7252 16.0533 25.7252 15.1727C25.7252 14.3135 26.3869 13.6571 27.2461 13.6571C28.1053 13.6571 28.7671 14.3242 28.7671 15.1941C28.7671 16.0533 28.1213 16.683 27.2407 16.683Z" fill="black"/>
<path d="M32.5668 20.5142C33.074 20.5142 33.4208 20.1513 33.4208 19.6712C33.4208 19.1852 33.074 18.8277 32.5668 18.8277C32.0655 18.8277 31.7129 19.1852 31.7129 19.6712C31.7129 20.1513 32.0655 20.5142 32.5668 20.5142ZM32.5668 16.5116C33.074 16.5116 33.4208 16.154 33.4208 15.6737C33.4208 15.1881 33.074 14.8306 32.5668 14.8306C32.0655 14.8306 31.7129 15.1881 31.7129 15.6737C31.7129 16.154 32.0655 16.5116 32.5668 16.5116Z" fill="black"/>
<path d="M38.4169 20.4023H39.735V18.967H40.7755V17.8034H39.735V12.7017H37.7925C36.4314 14.7509 35.3479 16.4639 34.6543 17.7394V18.967H38.4169V20.4023ZM35.9301 17.7554C36.8263 16.1757 37.6271 14.911 38.363 13.8223H38.438V17.8355H35.9301V17.7554Z" fill="black"/>
<path d="M43.7098 20.4023H45.0861V12.7017H43.7149L41.7031 14.1105V15.434L43.6187 14.0891H43.7098V20.4023Z" fill="black"/>
</g>
<g filter="url(#filter0_i_783_1773)">
<path d="M0 276.148C0 266.49 7.82921 258.661 17.487 258.661H266.676C276.334 258.661 284.163 266.49 284.163 276.148V614.958H0V276.148Z" fill="white"/>
<path d="M132.973 274.327H151.188" stroke="#BDBDBD" stroke-width="3.64312" stroke-linecap="round"/>
<path d="M266.677 289.263H17.4877C12.2564 289.263 8.01562 293.504 8.01562 298.735V302.378C8.01562 307.61 12.2564 311.851 17.4877 311.851H266.677C271.908 311.851 276.149 307.61 276.149 302.378V298.735C276.149 293.504 271.908 289.263 266.677 289.263Z" fill="black"/>
<path d="M45.249 299.067C45.2118 298.753 45.061 298.509 44.7958 298.334C44.5306 298.16 44.2056 298.074 43.8209 298.074C43.5389 298.074 43.2926 298.119 43.0821 298.21C42.873 298.301 42.709 298.426 42.591 298.586C42.4751 298.745 42.4176 298.926 42.4176 299.129C42.4176 299.299 42.4576 299.445 42.5385 299.567C42.6209 299.687 42.7265 299.787 42.8555 299.868C42.9837 299.947 43.1178 300.012 43.2584 300.063C43.3998 300.114 43.5287 300.154 43.6468 300.185L44.293 300.359C44.4584 300.402 44.6428 300.462 44.8453 300.539C45.0501 300.616 45.2461 300.72 45.4319 300.853C45.6206 300.983 45.7758 301.151 45.8982 301.355C46.0199 301.56 46.0811 301.812 46.0811 302.11C46.0811 302.453 45.9907 302.764 45.8108 303.041C45.633 303.319 45.3721 303.539 45.0282 303.703C44.6872 303.866 44.2719 303.948 43.7837 303.948C43.3283 303.948 42.9334 303.875 42.6005 303.728C42.2697 303.581 42.0088 303.376 41.8179 303.113C41.6299 302.85 41.5228 302.544 41.498 302.197H42.293C42.3141 302.437 42.3943 302.635 42.5356 302.793C42.6784 302.948 42.8584 303.064 43.0755 303.14C43.2948 303.215 43.5309 303.253 43.7837 303.253C44.0774 303.253 44.3411 303.205 44.575 303.11C44.8089 303.012 44.9947 302.878 45.131 302.706C45.2679 302.532 45.3357 302.329 45.3357 302.098C45.3357 301.886 45.2767 301.715 45.1586 301.582C45.0413 301.449 44.8854 301.342 44.6931 301.259C44.5007 301.176 44.293 301.104 44.0694 301.042L43.2868 300.818C42.7899 300.675 42.3964 300.471 42.1072 300.206C41.8172 299.942 41.6722 299.595 41.6722 299.167C41.6722 298.81 41.7684 298.5 41.9607 298.235C42.1553 297.968 42.4161 297.761 42.7433 297.614C43.0726 297.465 43.4398 297.39 43.8457 297.39C44.2552 297.39 44.6195 297.464 44.9386 297.611C45.257 297.756 45.5098 297.955 45.6964 298.207C45.8844 298.46 45.9842 298.746 45.9944 299.067H45.249ZM49.2477 303.935C48.7879 303.935 48.3916 303.834 48.0578 303.632C47.7271 303.427 47.4713 303.14 47.2913 302.775C47.1135 302.406 47.0239 301.978 47.0239 301.489C47.0239 301 47.1135 300.57 47.2913 300.198C47.4713 299.822 47.7219 299.531 48.0425 299.322C48.3653 299.11 48.742 299.005 49.1726 299.005C49.4211 299.005 49.6666 299.046 49.9086 299.129C50.1512 299.212 50.3712 299.346 50.5701 299.533C50.7691 299.717 50.9272 299.961 51.0452 300.265C51.1632 300.57 51.2223 300.944 51.2223 301.39V301.7H47.5456V301.067H50.4769C50.4769 300.798 50.423 300.557 50.3158 300.346C50.2102 300.135 50.0587 299.969 49.8619 299.846C49.6674 299.725 49.4379 299.663 49.1726 299.663C48.8812 299.663 48.6284 299.736 48.4156 299.881C48.2043 300.023 48.0418 300.21 47.9281 300.439C47.8138 300.669 47.7569 300.915 47.7569 301.178V301.601C47.7569 301.961 47.8189 302.266 47.9435 302.517C48.0695 302.765 48.2444 302.955 48.4681 303.085C48.6917 303.213 48.9511 303.277 49.2477 303.277C49.44 303.277 49.6135 303.25 49.7694 303.197C49.926 303.14 50.0616 303.058 50.176 302.948C50.2896 302.837 50.3778 302.697 50.4397 302.532L51.1479 302.731C51.0729 302.971 50.9476 303.182 50.772 303.364C50.5956 303.544 50.3785 303.685 50.1198 303.787C49.8612 303.886 49.5705 303.935 49.2477 303.935ZM53.7404 303.948C53.438 303.948 53.164 303.891 52.9178 303.777C52.6708 303.661 52.4755 303.495 52.3305 303.277C52.1855 303.058 52.1134 302.793 52.1134 302.482C52.1134 302.209 52.1673 301.988 52.2744 301.818C52.3822 301.646 52.5265 301.512 52.7065 301.414C52.8864 301.317 53.0854 301.245 53.3025 301.197C53.5218 301.148 53.7426 301.108 53.9641 301.079C54.2533 301.042 54.4887 301.014 54.6687 300.995C54.8508 300.974 54.9834 300.941 55.0658 300.893C55.151 300.845 55.1933 300.762 55.1933 300.644V300.619C55.1933 300.313 55.1095 300.075 54.9419 299.905C54.7765 299.736 54.5244 299.651 54.187 299.651C53.8373 299.651 53.5633 299.728 53.3644 299.881C53.1655 300.034 53.0263 300.198 52.9455 300.371L52.2496 300.122C52.3742 299.833 52.5396 299.607 52.7465 299.446C52.9557 299.282 53.1837 299.169 53.43 299.105C53.6784 299.038 53.9225 299.005 54.1623 299.005C54.316 299.005 54.4916 299.024 54.6905 299.061C54.8909 299.096 55.0847 299.169 55.2712 299.282C55.4592 299.393 55.6159 299.562 55.7397 299.787C55.8643 300.013 55.9263 300.316 55.9263 300.694V303.836H55.1933V303.191H55.1561C55.1066 303.294 55.0235 303.405 54.9076 303.523C54.7918 303.641 54.6373 303.741 54.445 303.824C54.2526 303.907 54.0173 303.948 53.7404 303.948ZM53.8519 303.29C54.1419 303.29 54.3859 303.233 54.5849 303.119C54.7852 303.005 54.9368 302.858 55.0381 302.678C55.1415 302.498 55.1933 302.308 55.1933 302.11V301.439C55.1619 301.476 55.0942 301.511 54.9885 301.542C54.8851 301.571 54.7648 301.596 54.6286 301.619C54.4938 301.64 54.3619 301.658 54.2337 301.675C54.1076 301.69 54.0049 301.702 53.9262 301.712C53.736 301.737 53.5582 301.778 53.3928 301.833C53.2289 301.887 53.0963 301.969 52.995 302.079C52.8959 302.187 52.8464 302.333 52.8464 302.52C52.8464 302.775 52.9403 302.967 53.1283 303.097C53.3192 303.226 53.5604 303.29 53.8519 303.29ZM57.2633 303.836V299.067H57.9715V299.787H58.021C58.1078 299.551 58.2651 299.36 58.4932 299.213C58.7205 299.066 58.9777 298.992 59.2634 298.992C59.3173 298.992 59.3843 298.994 59.4652 298.996C59.5453 298.997 59.6065 299.001 59.6481 299.005V299.75C59.6233 299.744 59.5665 299.735 59.4776 299.722C59.3901 299.708 59.2983 299.701 59.2007 299.701C58.969 299.701 58.7621 299.749 58.5799 299.846C58.3999 299.942 58.2571 300.074 58.1515 300.244C58.048 300.412 57.9963 300.603 57.9963 300.818V303.836H57.2633ZM62.309 303.935C61.8616 303.935 61.4769 303.83 61.1541 303.619C60.8313 303.408 60.5829 303.117 60.4087 302.746C60.2353 302.376 60.1479 301.953 60.1479 301.476C60.1479 300.992 60.2368 300.565 60.4153 300.194C60.5953 299.822 60.8459 299.531 61.1665 299.322C61.4893 299.11 61.866 299.005 62.2966 299.005C62.6318 299.005 62.9342 299.067 63.203 299.191C63.4726 299.315 63.6926 299.489 63.8646 299.713C64.0366 299.937 64.1429 300.198 64.1845 300.496H63.4515C63.3961 300.278 63.2715 300.085 63.0792 299.918C62.889 299.748 62.6318 299.663 62.309 299.663C62.0234 299.663 61.7727 299.738 61.5578 299.887C61.3443 300.034 61.1782 300.242 61.058 300.511C60.9399 300.778 60.8809 301.092 60.8809 301.451C60.8809 301.82 60.9385 302.141 61.055 302.414C61.1723 302.687 61.3385 302.899 61.5512 303.051C61.7669 303.202 62.019 303.277 62.309 303.277C62.4992 303.277 62.6726 303.245 62.8278 303.178C62.983 303.112 63.1141 303.017 63.222 302.893C63.3298 302.768 63.4063 302.619 63.4515 302.445H64.1845C64.1429 302.727 64.0409 302.98 63.877 303.206C63.7152 303.43 63.501 303.607 63.2344 303.74C62.9691 303.871 62.6609 303.935 62.309 303.935ZM65.9886 300.967V303.836H65.2556V297.478H65.9886V299.812H66.0505C66.162 299.566 66.3303 299.371 66.5532 299.226C66.7791 299.078 67.0793 299.005 67.4538 299.005C67.7788 299.005 68.0637 299.07 68.3078 299.201C68.5518 299.329 68.7413 299.526 68.8761 299.794C69.0123 300.058 69.0808 300.396 69.0808 300.806V303.836H68.3478V300.855C68.3478 300.477 68.2502 300.184 68.0535 299.977C67.8589 299.768 67.5886 299.663 67.2425 299.663C67.0028 299.663 66.7871 299.714 66.5969 299.816C66.409 299.917 66.2596 300.065 66.1496 300.259C66.0425 300.454 65.9886 300.69 65.9886 300.967Z" fill="white"/>
<path d="M34.5707 582.17H33.8005C33.7546 581.949 33.6752 581.754 33.5615 581.587C33.4493 581.419 33.3131 581.278 33.1513 581.164C32.9925 581.048 32.8154 580.961 32.6209 580.903C32.4263 580.846 32.223 580.816 32.0117 580.816C31.627 580.816 31.278 580.914 30.9654 581.109C30.655 581.303 30.408 581.59 30.2237 581.968C30.0415 582.347 29.9505 582.812 29.9505 583.362C29.9505 583.913 30.0415 584.378 30.2237 584.757C30.408 585.136 30.655 585.422 30.9654 585.617C31.278 585.811 31.627 585.909 32.0117 585.909C32.223 585.909 32.4263 585.88 32.6209 585.821C32.8154 585.764 32.9925 585.678 33.1513 585.564C33.3131 585.448 33.4493 585.306 33.5615 585.139C33.6752 584.969 33.7546 584.774 33.8005 584.555H34.5707C34.5124 584.88 34.4067 585.171 34.2537 585.427C34.1007 585.684 33.9098 585.902 33.6825 586.082C33.4544 586.261 33.1994 586.396 32.9152 586.49C32.634 586.582 32.3331 586.629 32.0117 586.629C31.4696 586.629 30.9873 586.497 30.5654 586.232C30.1428 585.966 29.8106 585.59 29.5687 585.102C29.326 584.613 29.2051 584.033 29.2051 583.362C29.2051 582.692 29.326 582.112 29.5687 581.624C29.8106 581.136 30.1428 580.758 30.5654 580.494C30.9873 580.228 31.4696 580.096 32.0117 580.096C32.3331 580.096 32.634 580.142 32.9152 580.236C33.1994 580.329 33.4544 580.466 33.6825 580.646C33.9098 580.824 34.1007 581.041 34.2537 581.298C34.4067 581.552 34.5124 581.843 34.5707 582.17ZM37.6527 586.641C37.2221 586.641 36.8447 586.539 36.5197 586.334C36.197 586.129 35.9441 585.843 35.762 585.474C35.582 585.105 35.4916 584.675 35.4916 584.182C35.4916 583.686 35.582 583.252 35.762 582.881C35.9441 582.511 36.197 582.223 36.5197 582.018C36.8447 581.813 37.2221 581.71 37.6527 581.71C38.0834 581.71 38.4601 581.813 38.7828 582.018C39.1078 582.223 39.3606 582.511 39.5406 582.881C39.7228 583.252 39.8138 583.686 39.8138 584.182C39.8138 584.675 39.7228 585.105 39.5406 585.474C39.3606 585.843 39.1078 586.129 38.7828 586.334C38.4601 586.539 38.0834 586.641 37.6527 586.641ZM37.6527 585.983C37.9799 585.983 38.2488 585.899 38.4601 585.732C38.6714 585.564 38.8273 585.343 38.9293 585.07C39.0306 584.797 39.0808 584.501 39.0808 584.182C39.0808 583.864 39.0306 583.566 38.9293 583.291C38.8273 583.016 38.6714 582.793 38.4601 582.623C38.2488 582.454 37.9799 582.369 37.6527 582.369C37.3256 582.369 37.0567 582.454 36.8454 582.623C36.6341 582.793 36.4782 583.016 36.3769 583.291C36.2756 583.566 36.2246 583.864 36.2246 584.182C36.2246 584.501 36.2756 584.797 36.3769 585.07C36.4782 585.343 36.6341 585.564 36.8454 585.732C37.0567 585.899 37.3256 585.983 37.6527 585.983ZM40.9323 588.331V581.773H41.6405V582.53H41.7272C41.7811 582.448 41.8554 582.342 41.9509 582.214C42.0485 582.084 42.187 581.968 42.3669 581.866C42.5491 581.762 42.7954 581.71 43.1058 581.71C43.5072 581.71 43.8613 581.811 44.1681 582.012C44.4741 582.213 44.7131 582.497 44.8851 582.866C45.057 583.234 45.143 583.669 45.143 584.17C45.143 584.675 45.057 585.112 44.8851 585.483C44.7131 585.852 44.4748 586.138 44.171 586.34C43.8664 586.541 43.516 586.641 43.1181 586.641C42.8121 586.641 42.5666 586.591 42.3822 586.49C42.1979 586.386 42.0565 586.269 41.9574 586.138C41.8576 586.006 41.7811 585.896 41.7272 585.809H41.6653V588.331H40.9323ZM41.6529 584.157C41.6529 584.518 41.7053 584.836 41.811 585.111C41.9166 585.384 42.0711 585.598 42.2737 585.754C42.477 585.907 42.7247 585.983 43.0191 585.983C43.3251 585.983 43.5808 585.902 43.7856 585.741C43.9932 585.577 44.1484 585.358 44.2519 585.083C44.3575 584.805 44.41 584.497 44.41 584.157C44.41 583.822 44.3583 583.52 44.2548 583.251C44.1535 582.98 43.9991 582.766 43.7921 582.608C43.5874 582.449 43.3294 582.369 43.0191 582.369C42.721 582.369 42.4704 582.444 42.2678 582.596C42.0646 582.744 41.9115 582.954 41.8081 583.223C41.7046 583.49 41.6529 583.802 41.6529 584.157ZM46.5616 588.331C46.4378 588.331 46.327 588.32 46.2294 588.299C46.1325 588.28 46.0647 588.262 46.0275 588.243L46.2141 587.598C46.3919 587.643 46.5492 587.66 46.6862 587.647C46.8225 587.635 46.9434 587.574 47.0491 587.464C47.1569 587.357 47.2553 587.182 47.3442 586.939L47.4804 586.567L45.7172 581.773H46.5121L47.8287 585.573H47.8782L49.1949 581.773H49.9898L47.965 587.238C47.8739 587.484 47.7609 587.687 47.6269 587.849C47.4921 588.012 47.3362 588.134 47.1576 588.213C46.982 588.291 46.7831 588.331 46.5616 588.331ZM54.1488 580.183V586.542H53.4158V580.183H54.1488ZM55.4909 586.542V581.773H56.2232V586.542H55.4909ZM55.8632 580.978C55.7204 580.978 55.5973 580.929 55.4938 580.832C55.3925 580.735 55.3415 580.618 55.3415 580.481C55.3415 580.344 55.3925 580.228 55.4938 580.13C55.5973 580.033 55.7204 579.984 55.8632 579.984C56.006 579.984 56.1285 580.033 56.2297 580.13C56.3332 580.228 56.3849 580.344 56.3849 580.481C56.3849 580.618 56.3332 580.735 56.2297 580.832C56.1285 580.929 56.006 580.978 55.8632 580.978ZM58.2983 583.673V586.542H57.5653V581.773H58.2735V582.518H58.3355C58.4477 582.276 58.6174 582.081 58.8448 581.934C59.0728 581.786 59.3665 581.71 59.7264 581.71C60.0492 581.71 60.3319 581.777 60.5745 581.909C60.8164 582.04 61.0051 582.239 61.1392 582.505C61.274 582.771 61.341 583.106 61.341 583.512V586.542H60.6088V583.561C60.6088 583.187 60.5111 582.894 60.3166 582.685C60.122 582.475 59.8546 582.369 59.5158 582.369C59.2819 582.369 59.0728 582.419 58.8885 582.521C58.7063 582.623 58.5621 582.771 58.4564 582.965C58.3515 583.16 58.2983 583.396 58.2983 583.673ZM63.363 584.804L63.3506 583.896H63.4999L65.5867 581.773H66.4931L64.2701 584.021H64.2082L63.363 584.804ZM62.6802 586.542V580.183H63.4132V586.542H62.6802ZM65.7106 586.542L63.8475 584.182L64.3692 583.673L66.6418 586.542H65.7106Z" fill="white"/>
<path d="M26.0947 302.194H25.7349L25.6075 302.055C26.0538 301.47 26.3224 300.711 26.3224 299.885C26.3224 298.043 24.9973 296.55 23.3624 296.55C21.7276 296.55 20.4023 298.043 20.4023 299.885C20.4023 301.727 21.7276 303.22 23.3624 303.22C24.0955 303.22 24.7695 302.917 25.2886 302.415L25.4116 302.558V302.964L27.6886 305.524L28.3671 304.759L26.0947 302.194ZM23.3624 302.194C22.2284 302.194 21.3131 301.163 21.3131 299.885C21.3131 298.607 22.2284 297.576 23.3624 297.576C24.4963 297.576 25.4116 298.607 25.4116 299.885C25.4116 301.163 24.4963 302.194 23.3624 302.194Z" fill="white"/>
<path d="M59.3832 395.642C78.9 395.642 94.7214 379.821 94.7214 360.304C94.7214 340.787 78.9 324.966 59.3832 324.966C39.8664 324.966 24.0449 340.787 24.0449 360.304C24.0449 379.821 39.8664 395.642 59.3832 395.642Z" fill="#D9D9D9"/>
<path d="M47.6328 366.832C47.6328 366.747 47.6328 366.66 47.6328 366.57V354.038C47.6328 352.576 47.6328 351.844 47.9177 351.286C48.1676 350.795 48.5669 350.396 49.058 350.145C49.6169 349.861 50.3484 349.861 51.8107 349.861H66.9537C68.4161 349.861 69.1469 349.861 69.705 350.145C70.1968 350.396 70.5961 350.795 70.8468 351.286C71.1309 351.844 71.1309 352.575 71.1309 354.034V366.575C71.1309 367.208 71.1309 367.703 71.1076 368.108M47.6328 366.832C47.6335 368.122 47.6503 368.797 47.9177 369.322C48.1676 369.813 48.5669 370.213 49.058 370.463C49.6161 370.748 50.3469 370.748 51.8064 370.748H66.9581C68.4175 370.748 69.1476 370.748 69.705 370.463C70.1968 370.213 70.5961 369.813 70.8468 369.322C71.0078 369.005 71.0777 368.635 71.1076 368.108M47.6328 366.832L53.8574 359.57L53.8589 359.568C54.4112 358.924 54.6874 358.601 55.0152 358.485C55.3038 358.383 55.6178 358.385 55.9049 358.491C56.2313 358.612 56.5031 358.939 57.0474 359.592L60.5346 363.776C61.0388 364.381 61.2916 364.685 61.5991 364.806C61.8708 364.914 62.1696 364.927 62.4501 364.844C62.7685 364.75 63.049 364.469 63.6101 363.908L64.2585 363.26C64.8298 362.688 65.1154 362.403 65.4389 362.309C65.7224 362.228 66.0262 362.245 66.2994 362.358C66.6098 362.486 66.8627 362.8 67.3669 363.431L71.1076 368.108M71.1076 368.108L71.1309 368.136M63.2982 357.694C62.5769 357.694 61.9925 357.109 61.9925 356.388C61.9925 355.667 62.5769 355.082 63.2982 355.082C64.0196 355.082 64.6039 355.667 64.6039 356.388C64.6039 357.109 64.0196 357.694 63.2982 357.694Z" stroke="#BDBDBD" stroke-width="1.45725" stroke-linecap="round" stroke-linejoin="round"/>
<path d="M59.3832 476.52C78.9 476.52 94.7214 460.698 94.7214 441.182C94.7214 421.665 78.9 405.843 59.3832 405.843C39.8664 405.843 24.0449 421.665 24.0449 441.182C24.0449 460.698 39.8664 476.52 59.3832 476.52Z" fill="#D9D9D9"/>
<path d="M47.6328 447.709C47.6328 447.625 47.6328 447.537 47.6328 447.448V434.916C47.6328 433.454 47.6328 432.722 47.9177 432.163C48.1676 431.672 48.5669 431.273 49.058 431.022C49.6169 430.738 50.3484 430.738 51.8107 430.738H66.9537C68.4161 430.738 69.1469 430.738 69.705 431.022C70.1968 431.273 70.5961 431.672 70.8468 432.163C71.1309 432.722 71.1309 433.452 71.1309 434.911V447.452C71.1309 448.085 71.1309 448.581 71.1076 448.985M47.6328 447.709C47.6335 448.999 47.6503 449.674 47.9177 450.199C48.1676 450.69 48.5669 451.091 49.058 451.341C49.6161 451.625 50.3469 451.625 51.8064 451.625H66.9581C68.4175 451.625 69.1476 451.625 69.705 451.341C70.1968 451.091 70.5961 450.69 70.8468 450.199C71.0078 449.883 71.0777 449.512 71.1076 448.985M47.6328 447.709L53.8574 440.447L53.8589 440.445C54.4112 439.802 54.6874 439.479 55.0152 439.362C55.3038 439.26 55.6178 439.262 55.9049 439.369C56.2313 439.49 56.5031 439.816 57.0474 440.469L60.5346 444.654C61.0388 445.258 61.2916 445.562 61.5991 445.684C61.8708 445.792 62.1696 445.804 62.4501 445.721C62.7685 445.627 63.049 445.346 63.6101 444.785L64.2585 444.137C64.8298 443.566 65.1154 443.28 65.4389 443.187C65.7224 443.105 66.0262 443.123 66.2994 443.236C66.6098 443.364 66.8627 443.678 67.3669 444.309L71.1076 448.985M71.1076 448.985L71.1309 449.014M63.2982 438.571C62.5769 438.571 61.9925 437.987 61.9925 437.265C61.9925 436.545 62.5769 435.96 63.2982 435.96C64.0196 435.96 64.6039 436.545 64.6039 437.265C64.6039 437.987 64.0196 438.571 63.2982 438.571Z" stroke="#BDBDBD" stroke-width="1.45725" stroke-linecap="round" stroke-linejoin="round"/>
<path d="M59.3832 557.397C78.9 557.397 94.7214 541.575 94.7214 522.058C94.7214 502.542 78.9 486.72 59.3832 486.72C39.8664 486.72 24.0449 502.542 24.0449 522.058C24.0449 541.575 39.8664 557.397 59.3832 557.397Z" fill="#D9D9D9"/>
<path d="M47.6328 528.586C47.6328 528.502 47.6328 528.414 47.6328 528.325V515.792C47.6328 514.33 47.6328 513.599 47.9177 513.04C48.1676 512.549 48.5669 512.15 49.058 511.899C49.6169 511.615 50.3484 511.615 51.8107 511.615H66.9537C68.4161 511.615 69.1469 511.615 69.705 511.899C70.1968 512.15 70.5961 512.549 70.8468 513.04C71.1309 513.599 71.1309 514.329 71.1309 515.788V528.328C71.1309 528.962 71.1309 529.458 71.1076 529.861M47.6328 528.586C47.6335 529.876 47.6503 530.551 47.9177 531.076C48.1676 531.567 48.5669 531.968 49.058 532.218C49.6161 532.502 50.3469 532.502 51.8064 532.502H66.9581C68.4175 532.502 69.1476 532.502 69.705 532.218C70.1968 531.968 70.5961 531.567 70.8468 531.076C71.0078 530.76 71.0777 530.389 71.1076 529.861M47.6328 528.586L53.8574 521.324L53.8589 521.322C54.4112 520.678 54.6874 520.356 55.0152 520.239C55.3038 520.137 55.6178 520.139 55.9049 520.246C56.2313 520.367 56.5031 520.693 57.0474 521.346L60.5346 525.531C61.0388 526.135 61.2916 526.439 61.5991 526.561C61.8708 526.669 62.1696 526.681 62.4501 526.598C62.7685 526.504 63.049 526.223 63.6101 525.662L64.2585 525.014C64.8298 524.443 65.1154 524.157 65.4389 524.064C65.7224 523.982 66.0262 524 66.2994 524.113C66.6098 524.241 66.8627 524.555 67.3669 525.186L71.1076 529.861M71.1076 529.861L71.1309 529.891M63.2982 519.448C62.5769 519.448 61.9925 518.863 61.9925 518.142C61.9925 517.421 62.5769 516.837 63.2982 516.837C64.0196 516.837 64.6039 517.421 64.6039 518.142C64.6039 518.863 64.0196 519.448 63.2982 519.448Z" stroke="#BDBDBD" stroke-width="1.45725" stroke-linecap="round" stroke-linejoin="round"/>
<path d="M142.448 395.642C161.964 395.642 177.786 379.821 177.786 360.304C177.786 340.787 161.964 324.966 142.448 324.966C122.931 324.966 107.109 340.787 107.109 360.304C107.109 379.821 122.931 395.642 142.448 395.642Z" fill="#D9D9D9"/>
<path d="M130.695 366.832C130.695 366.747 130.695 366.66 130.695 366.57V354.038C130.695 352.576 130.695 351.844 130.98 351.286C131.23 350.795 131.629 350.396 132.12 350.145C132.679 349.861 133.411 349.861 134.873 349.861H150.016C151.479 349.861 152.209 349.861 152.768 350.145C153.259 350.396 153.659 350.795 153.909 351.286C154.193 351.844 154.193 352.575 154.193 354.034V366.575C154.193 367.208 154.193 367.703 154.17 368.108M130.695 366.832C130.696 368.122 130.713 368.797 130.98 369.322C131.23 369.813 131.629 370.213 132.12 370.463C132.679 370.748 133.409 370.748 134.869 370.748H150.021C151.48 370.748 152.21 370.748 152.768 370.463C153.259 370.213 153.659 369.813 153.909 369.322C154.07 369.005 154.14 368.635 154.17 368.108M130.695 366.832L136.92 359.57L136.921 359.568C137.474 358.924 137.75 358.601 138.078 358.485C138.366 358.383 138.68 358.385 138.967 358.491C139.294 358.612 139.566 358.939 140.11 359.592L143.597 363.776C144.101 364.381 144.354 364.685 144.662 364.806C144.933 364.914 145.232 364.927 145.513 364.844C145.831 364.75 146.112 364.469 146.673 363.908L147.321 363.26C147.892 362.688 148.178 362.403 148.501 362.309C148.785 362.228 149.089 362.245 149.362 362.358C149.672 362.486 149.925 362.8 150.429 363.431L154.17 368.108M154.17 368.108L154.193 368.136M146.361 357.694C145.639 357.694 145.055 357.109 145.055 356.388C145.055 355.667 145.639 355.082 146.361 355.082C147.082 355.082 147.666 355.667 147.666 356.388C147.666 357.109 147.082 357.694 146.361 357.694Z" stroke="#BDBDBD" stroke-width="1.45725" stroke-linecap="round" stroke-linejoin="round"/>
<path d="M142.448 476.52C161.964 476.52 177.786 460.698 177.786 441.182C177.786 421.665 161.964 405.843 142.448 405.843C122.931 405.843 107.109 421.665 107.109 441.182C107.109 460.698 122.931 476.52 142.448 476.52Z" fill="#D9D9D9"/>
<path d="M130.695 447.709C130.695 447.625 130.695 447.537 130.695 447.448V434.916C130.695 433.454 130.695 432.722 130.98 432.163C131.23 431.672 131.629 431.273 132.12 431.022C132.679 430.738 133.411 430.738 134.873 430.738H150.016C151.479 430.738 152.209 430.738 152.768 431.022C153.259 431.273 153.659 431.672 153.909 432.163C154.193 432.722 154.193 433.452 154.193 434.911V447.452C154.193 448.085 154.193 448.581 154.17 448.985M130.695 447.709C130.696 448.999 130.713 449.674 130.98 450.199C131.23 450.69 131.629 451.091 132.12 451.341C132.679 451.625 133.409 451.625 134.869 451.625H150.021C151.48 451.625 152.21 451.625 152.768 451.341C153.259 451.091 153.659 450.69 153.909 450.199C154.07 449.883 154.14 449.512 154.17 448.985M130.695 447.709L136.92 440.447L136.921 440.445C137.474 439.802 137.75 439.479 138.078 439.362C138.366 439.26 138.68 439.262 138.967 439.369C139.294 439.49 139.566 439.816 140.11 440.469L143.597 444.654C144.101 445.258 144.354 445.562 144.662 445.684C144.933 445.792 145.232 445.804 145.513 445.721C145.831 445.627 146.112 445.346 146.673 444.785L147.321 444.137C147.892 443.566 148.178 443.28 148.501 443.187C148.785 443.105 149.089 443.123 149.362 443.236C149.672 443.364 149.925 443.678 150.429 444.309L154.17 448.985M154.17 448.985L154.193 449.014M146.361 438.571C145.639 438.571 145.055 437.987 145.055 437.265C145.055 436.545 145.639 435.96 146.361 435.96C147.082 435.96 147.666 436.545 147.666 437.265C147.666 437.987 147.082 438.571 146.361 438.571Z" stroke="#BDBDBD" stroke-width="1.45725" stroke-linecap="round" stroke-linejoin="round"/>
<path d="M142.448 557.397C161.964 557.397 177.786 541.575 177.786 522.058C177.786 502.542 161.964 486.72 142.448 486.72C122.931 486.72 107.109 502.542 107.109 522.058C107.109 541.575 122.931 557.397 142.448 557.397Z" fill="#D9D9D9"/>
<path d="M130.695 528.586C130.695 528.502 130.695 528.414 130.695 528.325V515.792C130.695 514.33 130.695 513.599 130.98 513.04C131.23 512.549 131.629 512.15 132.12 511.899C132.679 511.615 133.411 511.615 134.873 511.615H150.016C151.479 511.615 152.209 511.615 152.768 511.899C153.259 512.15 153.659 512.549 153.909 513.04C154.193 513.599 154.193 514.329 154.193 515.788V528.328C154.193 528.962 154.193 529.458 154.17 529.861M130.695 528.586C130.696 529.876 130.713 530.551 130.98 531.076C131.23 531.567 131.629 531.968 132.12 532.218C132.679 532.502 133.409 532.502 134.869 532.502H150.021C151.48 532.502 152.21 532.502 152.768 532.218C153.259 531.968 153.659 531.567 153.909 531.076C154.07 530.76 154.14 530.389 154.17 529.861M130.695 528.586L136.92 521.324L136.921 521.322C137.474 520.678 137.75 520.356 138.078 520.239C138.366 520.137 138.68 520.139 138.967 520.246C139.294 520.367 139.566 520.693 140.11 521.346L143.597 525.531C144.101 526.135 144.354 526.439 144.662 526.561C144.933 526.669 145.232 526.681 145.513 526.598C145.831 526.504 146.112 526.223 146.673 525.662L147.321 525.014C147.892 524.443 148.178 524.157 148.501 524.064C148.785 523.982 149.089 524 149.362 524.113C149.672 524.241 149.925 524.555 150.429 525.186L154.17 529.861M154.17 529.861L154.193 529.891M146.361 519.448C145.639 519.448 145.055 518.863 145.055 518.142C145.055 517.421 145.639 516.837 146.361 516.837C147.082 516.837 147.666 517.421 147.666 518.142C147.666 518.863 147.082 519.448 146.361 519.448Z" stroke="#BDBDBD" stroke-width="1.45725" stroke-linecap="round" stroke-linejoin="round"/>
<path d="M225.51 395.642C245.027 395.642 260.848 379.821 260.848 360.304C260.848 340.787 245.027 324.966 225.51 324.966C205.993 324.966 190.172 340.787 190.172 360.304C190.172 379.821 205.993 395.642 225.51 395.642Z" fill="#D9D9D9"/>
<path d="M213.762 366.832C213.762 366.747 213.762 366.66 213.762 366.57V354.038C213.762 352.576 213.762 351.844 214.047 351.286C214.297 350.795 214.696 350.396 215.187 350.145C215.746 349.861 216.477 349.861 217.94 349.861H233.083C234.545 349.861 235.276 349.861 235.834 350.145C236.326 350.396 236.725 350.795 236.976 351.286C237.26 351.844 237.26 352.575 237.26 354.034V366.575C237.26 367.208 237.26 367.703 237.237 368.108M213.762 366.832C213.762 368.122 213.779 368.797 214.047 369.322C214.297 369.813 214.696 370.213 215.187 370.463C215.745 370.748 216.476 370.748 217.935 370.748H233.087C234.546 370.748 235.277 370.748 235.834 370.463C236.326 370.213 236.725 369.813 236.976 369.322C237.137 369.005 237.207 368.635 237.237 368.108M213.762 366.832L219.986 359.57L219.988 359.568C220.54 358.924 220.816 358.601 221.144 358.485C221.433 358.383 221.747 358.385 222.034 358.491C222.36 358.612 222.632 358.939 223.176 359.592L226.663 363.776C227.168 364.381 227.421 364.685 227.728 364.806C228 364.914 228.298 364.927 228.579 364.844C228.897 364.75 229.178 364.469 229.739 363.908L230.387 363.26C230.959 362.688 231.244 362.403 231.568 362.309C231.851 362.228 232.155 362.245 232.428 362.358C232.739 362.486 232.992 362.8 233.496 363.431L237.237 368.108M237.237 368.108L237.26 368.136M229.427 357.694C228.706 357.694 228.121 357.109 228.121 356.388C228.121 355.667 228.706 355.082 229.427 355.082C230.148 355.082 230.733 355.667 230.733 356.388C230.733 357.109 230.148 357.694 229.427 357.694Z" stroke="#BDBDBD" stroke-width="1.45725" stroke-linecap="round" stroke-linejoin="round"/>
<path d="M225.51 476.52C245.027 476.52 260.848 460.698 260.848 441.182C260.848 421.665 245.027 405.843 225.51 405.843C205.993 405.843 190.172 421.665 190.172 441.182C190.172 460.698 205.993 476.52 225.51 476.52Z" fill="#D9D9D9"/>
<path d="M213.762 447.709C213.762 447.625 213.762 447.537 213.762 447.448V434.916C213.762 433.454 213.762 432.722 214.047 432.163C214.297 431.672 214.696 431.273 215.187 431.022C215.746 430.738 216.477 430.738 217.94 430.738H233.083C234.545 430.738 235.276 430.738 235.834 431.022C236.326 431.273 236.725 431.672 236.976 432.163C237.26 432.722 237.26 433.452 237.26 434.911V447.452C237.26 448.085 237.26 448.581 237.237 448.985M213.762 447.709C213.762 448.999 213.779 449.674 214.047 450.199C214.297 450.69 214.696 451.091 215.187 451.341C215.745 451.625 216.476 451.625 217.935 451.625H233.087C234.546 451.625 235.277 451.625 235.834 451.341C236.326 451.091 236.725 450.69 236.976 450.199C237.137 449.883 237.207 449.512 237.237 448.985M213.762 447.709L219.986 440.447L219.988 440.445C220.54 439.802 220.816 439.479 221.144 439.362C221.433 439.26 221.747 439.262 222.034 439.369C222.36 439.49 222.632 439.816 223.176 440.469L226.663 444.654C227.168 445.258 227.421 445.562 227.728 445.684C228 445.792 228.298 445.804 228.579 445.721C228.897 445.627 229.178 445.346 229.739 444.785L230.387 444.137C230.959 443.566 231.244 443.28 231.568 443.187C231.851 443.105 232.155 443.123 232.428 443.236C232.739 443.364 232.992 443.678 233.496 444.309L237.237 448.985M237.237 448.985L237.26 449.014M229.427 438.571C228.706 438.571 228.121 437.987 228.121 437.265C228.121 436.545 228.706 435.96 229.427 435.96C230.148 435.96 230.733 436.545 230.733 437.265C230.733 437.987 230.148 438.571 229.427 438.571Z" stroke="#BDBDBD" stroke-width="1.45725" stroke-linecap="round" stroke-linejoin="round"/>
<path d="M225.51 557.397C245.027 557.397 260.848 541.575 260.848 522.058C260.848 502.542 245.027 486.72 225.51 486.72C205.993 486.72 190.172 502.542 190.172 522.058C190.172 541.575 205.993 557.397 225.51 557.397Z" fill="#D9D9D9"/>
<path d="M213.762 528.586C213.762 528.502 213.762 528.414 213.762 528.325V515.792C213.762 514.33 213.762 513.599 214.047 513.04C214.297 512.549 214.696 512.15 215.187 511.899C215.746 511.615 216.477 511.615 217.94 511.615H233.083C234.545 511.615 235.276 511.615 235.834 511.899C236.326 512.15 236.725 512.549 236.976 513.04C237.26 513.599 237.26 514.329 237.26 515.788V528.328C237.26 528.962 237.26 529.458 237.237 529.861M213.762 528.586C213.762 529.876 213.779 530.551 214.047 531.076C214.297 531.567 214.696 531.968 215.187 532.218C215.745 532.502 216.476 532.502 217.935 532.502H233.087C234.546 532.502 235.277 532.502 235.834 532.218C236.326 531.968 236.725 531.567 236.976 531.076C237.137 530.76 237.207 530.389 237.237 529.861M213.762 528.586L219.986 521.324L219.988 521.322C220.54 520.678 220.816 520.356 221.144 520.239C221.433 520.137 221.747 520.139 222.034 520.246C222.36 520.367 222.632 520.693 223.176 521.346L226.663 525.531C227.168 526.135 227.421 526.439 227.728 526.561C228 526.669 228.298 526.681 228.579 526.598C228.897 526.504 229.178 526.223 229.739 525.662L230.387 525.014C230.959 524.443 231.244 524.157 231.568 524.064C231.851 523.982 232.155 524 232.428 524.113C232.739 524.241 232.992 524.555 233.496 525.186L237.237 529.861M237.237 529.861L237.26 529.891M229.427 519.448C228.706 519.448 228.121 518.863 228.121 518.142C228.121 517.421 228.706 516.837 229.427 516.837C230.148 516.837 230.733 517.421 230.733 518.142C230.733 518.863 230.148 519.448 229.427 519.448Z" stroke="#BDBDBD" stroke-width="1.45725" stroke-linecap="round" stroke-linejoin="round"/>
<g filter="url(#filter1_d_783_1773)">
<path d="M252.103 567.598H31.3303C23.2821 567.598 16.7578 574.122 16.7578 582.171V585.814C16.7578 593.862 23.2821 600.386 31.3303 600.386H252.103C260.151 600.386 266.676 593.862 266.676 585.814V582.171C266.676 574.122 260.151 567.598 252.103 567.598Z" fill="white"/>
<path d="M252.104 567.962H31.3312C23.4843 567.962 17.123 574.324 17.123 582.171V585.814C17.123 593.661 23.4843 600.022 31.3312 600.022H252.104C259.951 600.022 266.312 593.661 266.312 585.814V582.171C266.312 574.324 259.951 567.962 252.104 567.962Z" stroke="#BDBDBD" stroke-width="0.728624"/>
</g>
<path d="M35.5755 582.17H34.5489C34.4884 581.875 34.382 581.616 34.2305 581.392C34.0811 581.169 33.8989 580.981 33.684 580.829C33.4712 580.674 33.2352 580.559 32.9758 580.481C32.7164 580.404 32.4461 580.366 32.1648 580.366C31.6511 580.366 31.1863 580.495 30.7695 580.755C30.3556 581.014 30.0256 581.397 29.78 581.901C29.5374 582.406 29.4157 583.026 29.4157 583.76C29.4157 584.494 29.5374 585.114 29.78 585.619C30.0256 586.124 30.3556 586.506 30.7695 586.766C31.1863 587.025 31.6511 587.155 32.1648 587.155C32.4461 587.155 32.7164 587.116 32.9758 587.039C33.2352 586.962 33.4712 586.847 33.684 586.695C33.8989 586.541 34.0811 586.352 34.2305 586.128C34.382 585.902 34.4884 585.642 34.5489 585.35H35.5755C35.4983 585.783 35.3576 586.171 35.1536 586.513C34.9496 586.855 34.6953 587.147 34.3915 587.387C34.0884 587.624 33.7474 587.805 33.3692 587.929C32.994 588.053 32.5925 588.115 32.1648 588.115C31.4413 588.115 30.7986 587.939 30.2354 587.585C29.6722 587.232 29.2292 586.73 28.9064 586.079C28.5836 585.427 28.4219 584.654 28.4219 583.76C28.4219 582.866 28.5836 582.093 28.9064 581.442C29.2292 580.79 29.6722 580.288 30.2354 579.935C30.7986 579.582 31.4413 579.405 32.1648 579.405C32.5925 579.405 32.994 579.467 33.3692 579.591C33.7474 579.716 34.0884 579.898 34.3915 580.138C34.6953 580.375 34.9496 580.665 35.1536 581.007C35.3576 581.346 35.4983 581.735 35.5755 582.17ZM39.6857 588.132C39.1115 588.132 38.608 587.995 38.1745 587.722C37.7439 587.449 37.4073 587.067 37.1646 586.575C36.9242 586.084 36.804 585.51 36.804 584.853C36.804 584.191 36.9242 583.612 37.1646 583.118C37.4073 582.624 37.7439 582.241 38.1745 581.968C38.608 581.695 39.1115 581.558 39.6857 581.558C40.2598 581.558 40.7618 581.695 41.1925 581.968C41.626 582.241 41.9626 582.624 42.2031 583.118C42.4457 583.612 42.5674 584.191 42.5674 584.853C42.5674 585.51 42.4457 586.084 42.2031 586.575C41.9626 587.067 41.626 587.449 41.1925 587.722C40.7618 587.995 40.2598 588.132 39.6857 588.132ZM39.6857 587.254C40.1221 587.254 40.4806 587.143 40.7618 586.919C41.0438 586.695 41.2522 586.401 41.387 586.037C41.5225 585.673 41.5903 585.278 41.5903 584.853C41.5903 584.428 41.5225 584.032 41.387 583.665C41.2522 583.298 41.0438 583.001 40.7618 582.775C40.4806 582.549 40.1221 582.436 39.6857 582.436C39.25 582.436 38.8907 582.549 38.6095 582.775C38.3275 583.001 38.1191 583.298 37.9843 583.665C37.8488 584.032 37.781 584.428 37.781 584.853C37.781 585.278 37.8488 585.673 37.9843 586.037C38.1191 586.401 38.3275 586.695 38.6095 586.919C38.8907 587.143 39.25 587.254 39.6857 587.254ZM44.0581 590.384V581.641H45.0024V582.651H45.1183C45.1897 582.54 45.2895 582.399 45.4163 582.229C45.546 582.055 45.7311 581.9 45.9708 581.765C46.2141 581.627 46.5427 581.558 46.9566 581.558C47.4921 581.558 47.9636 581.692 48.3723 581.959C48.7811 582.227 49.0995 582.606 49.3283 583.098C49.5578 583.589 49.6722 584.168 49.6722 584.836C49.6722 585.51 49.5578 586.093 49.3283 586.587C49.0995 587.079 48.7818 587.459 48.3767 587.73C47.9709 587.998 47.5031 588.132 46.9726 588.132C46.5646 588.132 46.2375 588.064 45.9919 587.929C45.7464 587.791 45.5569 587.635 45.4243 587.461C45.2924 587.285 45.1897 587.138 45.1183 587.022H45.0352V590.384H44.0581ZM45.0192 584.82C45.0192 585.3 45.0891 585.724 45.2298 586.091C45.3711 586.455 45.5766 586.741 45.8469 586.948C46.1172 587.152 46.4488 587.254 46.8408 587.254C47.2488 587.254 47.5898 587.147 47.863 586.931C48.1392 586.713 48.3461 586.42 48.4838 586.054C48.6252 585.684 48.6951 585.273 48.6951 584.82C48.6951 584.373 48.6259 583.97 48.4882 583.611C48.3527 583.249 48.1472 582.964 47.871 582.754C47.5978 582.541 47.2546 582.436 46.8408 582.436C46.4429 582.436 46.1092 582.536 45.8389 582.737C45.5679 582.936 45.3638 583.215 45.2261 583.574C45.0877 583.93 45.0192 584.345 45.0192 584.82ZM51.5644 590.384C51.3983 590.384 51.2511 590.37 51.1214 590.343C50.9917 590.318 50.9021 590.293 50.8518 590.268L51.1003 589.407C51.3378 589.468 51.5477 589.489 51.7298 589.473C51.912 589.457 52.073 589.375 52.2144 589.229C52.3579 589.086 52.489 588.852 52.6071 588.529L52.7892 588.032L50.438 581.641H51.4981L53.2534 586.707H53.3197L55.0749 581.641H56.1343L53.4355 588.927C53.3139 589.255 53.1637 589.527 52.9838 589.742C52.8045 589.96 52.5962 590.122 52.3594 590.227C52.1247 590.332 51.8595 590.384 51.5644 590.384ZM60.8354 587.999V579.521H61.8621V587.089H65.8032V587.999H60.8354ZM67.2604 587.999V581.641H68.2375V587.999H67.2604ZM67.7574 580.58C67.5672 580.58 67.4025 580.516 67.2648 580.386C67.1293 580.256 67.0615 580.1 67.0615 579.918C67.0615 579.736 67.1293 579.58 67.2648 579.45C67.4025 579.321 67.5672 579.256 67.7574 579.256C67.9475 579.256 68.1107 579.321 68.2455 579.45C68.384 579.58 68.4532 579.736 68.4532 579.918C68.4532 580.1 68.384 580.256 68.2455 580.386C68.1107 580.516 67.9475 580.58 67.7574 580.58ZM71.0041 584.174V587.999H70.027V581.641H70.9713V582.634H71.0536C71.203 582.311 71.4289 582.052 71.7327 581.856C72.0366 581.657 72.4286 581.558 72.9087 581.558C73.3393 581.558 73.716 581.646 74.0388 581.823C74.3616 581.996 74.613 582.261 74.7922 582.618C74.9715 582.97 75.0611 583.418 75.0611 583.959V587.999H74.084V584.025C74.084 583.526 73.9543 583.137 73.6949 582.857C73.4355 582.576 73.0792 582.436 72.6267 582.436C72.3149 582.436 72.0366 582.503 71.791 582.638C71.5477 582.774 71.356 582.97 71.2154 583.231C71.0748 583.49 71.0041 583.804 71.0041 584.174ZM77.757 585.681L77.741 584.472H77.9391L80.7218 581.641H81.9306L78.9665 584.637H78.8834L77.757 585.681ZM76.8462 587.999V579.521H77.8233V587.999H76.8462ZM80.8872 587.999L78.4033 584.853L79.0984 584.174L82.1287 587.999H80.8872Z" fill="#ACACAC"/>
<path d="M232.565 584.5C232.565 582.956 233.729 581.7 235.162 581.7H238.514V579.984H235.162C232.85 579.984 230.973 582.007 230.973 584.5C230.973 586.992 232.85 589.015 235.162 589.015H238.514V587.299H235.162C233.729 587.299 232.565 586.044 232.565 584.5ZM236 585.402H242.704V583.597H236V585.402ZM243.541 579.984H240.19V581.7H243.541C244.974 581.7 246.139 582.956 246.139 584.5C246.139 586.044 244.974 587.299 243.541 587.299H240.19V589.015H243.541C245.854 589.015 247.731 586.992 247.731 584.5C247.731 582.007 245.854 579.984 243.541 579.984Z" fill="#BDBDBD"/>
</g>
</g>
<defs>
<filter id="filter0_i_783_1773" x="0" y="258.661" width="284.164" height="357.025" filterUnits="userSpaceOnUse" color-interpolation-filters="sRGB">
<feFlood flood-opacity="0" result="BackgroundImageFix"/>
<feBlend mode="normal" in="SourceGraphic" in2="BackgroundImageFix" result="shape"/>
<feColorMatrix in="SourceAlpha" type="matrix" values="0 0 0 0 0 0 0 0 0 0 0 0 0 0 0 0 0 0 127 0" result="hardAlpha"/>
<feOffset dy="0.728624"/>
<feGaussianBlur stdDeviation="2.18587"/>
<feComposite in2="hardAlpha" operator="arithmetic" k2="-1" k3="1"/>
<feColorMatrix type="matrix" values="0 0 0 0 0 0 0 0 0 0 0 0 0 0 0 0 0 0 0.25 0"/>
<feBlend mode="normal" in2="shape" result="effect1_innerShadow_783_1773"/>
</filter>
<filter id="filter1_d_783_1773" x="13.8433" y="566.87" width="255.747" height="38.6171" filterUnits="userSpaceOnUse" color-interpolation-filters="sRGB">
<feFlood flood-opacity="0" result="BackgroundImageFix"/>
<feColorMatrix in="SourceAlpha" type="matrix" values="0 0 0 0 0 0 0 0 0 0 0 0 0 0 0 0 0 0 127 0" result="hardAlpha"/>
<feOffset dy="2.18587"/>
<feGaussianBlur stdDeviation="1.45725"/>
<feComposite in2="hardAlpha" operator="out"/>
<feColorMatrix type="matrix" values="0 0 0 0 0 0 0 0 0 0 0 0 0 0 0 0 0 0 0.25 0"/>
<feBlend mode="normal" in2="BackgroundImageFix" result="effect1_dropShadow_783_1773"/>
<feBlend mode="normal" in="SourceGraphic" in2="effect1_dropShadow_783_1773" result="shape"/>
</filter>
</defs>
</svg>
