<svg width="285" height="615" viewBox="0 0 285 615" fill="none" xmlns="http://www.w3.org/2000/svg">
<mask id="mask0_783_1727" style="mask-type:luminance" maskUnits="userSpaceOnUse" x="0" y="0" width="285" height="615">
<path d="M281.249 0H2.9145C1.30486 0 0 1.30486 0 2.9145V612.044C0 613.654 1.30486 614.958 2.9145 614.958H281.249C282.858 614.958 284.163 613.654 284.163 612.044V2.9145C284.163 1.30486 282.858 0 281.249 0Z" fill="white"/>
</mask>
<g mask="url(#mask0_783_1727)">
<path d="M281.249 0H2.9145C1.30486 0 0 1.30486 0 2.9145V612.044C0 613.654 1.30486 614.958 2.9145 614.958H281.249C282.858 614.958 284.163 613.654 284.163 612.044V2.9145C284.163 1.30486 282.858 0 281.249 0Z" fill="#E0E0E0"/>
<mask id="mask1_783_1727" style="mask-type:luminance" maskUnits="userSpaceOnUse" x="0" y="0" width="285" height="33">
<path d="M284.163 0H0V32.0594H284.163V0Z" fill="white"/>
</mask>
<g mask="url(#mask1_783_1727)">
<path opacity="0.35" d="M257.692 12.9951H269.831C270.706 12.9951 271.412 13.7021 271.412 14.574V18.9455C271.412 19.8177 270.706 20.5237 269.831 20.5237H257.692C256.818 20.5237 256.111 19.8177 256.111 18.9455V14.574L256.119 14.4125C256.199 13.6163 256.876 12.9951 257.692 12.9951Z" fill="black" stroke="black" stroke-width="0.728624"/>
<path opacity="0.4" d="M272.506 15.3018V18.2163C273.089 17.9695 273.475 17.3952 273.475 16.759C273.475 16.1228 273.089 15.5486 272.506 15.3018Z" fill="black"/>
<path d="M257.205 15.0594C257.205 14.5228 257.642 14.0879 258.174 14.0879H269.351C269.883 14.0879 270.32 14.5228 270.32 15.0594V18.4596C270.32 18.9963 269.883 19.4313 269.351 19.4313H258.174C257.642 19.4313 257.205 18.9963 257.205 18.4596V15.0594Z" fill="black"/>
<path d="M244.905 18.7493C245.838 17.9632 247.201 17.9632 248.126 18.7493C248.177 18.7916 248.199 18.8514 248.199 18.9143C248.206 18.9771 248.177 19.0384 248.133 19.0821L246.676 20.551C246.64 20.594 246.581 20.6187 246.516 20.6187C246.457 20.6187 246.399 20.594 246.355 20.551L244.898 19.0821C244.854 19.0384 244.833 18.9771 244.833 18.9143C244.833 18.8514 244.862 18.7915 244.905 18.7493ZM242.967 16.7897C244.971 14.9273 248.068 14.9273 250.071 16.7897C250.115 16.8333 250.144 16.8934 250.144 16.9562C250.144 17.019 250.115 17.0795 250.071 17.1241L249.233 17.9744C249.146 18.0612 249.008 18.0631 248.92 17.9786C248.257 17.3833 247.405 17.0537 246.516 17.0537C245.634 17.054 244.774 17.3836 244.118 17.9786C244.031 18.0631 243.893 18.0612 243.805 17.9744L242.96 17.1241C242.916 17.0796 242.894 17.0189 242.894 16.9562C242.894 16.8934 242.923 16.8332 242.967 16.7897ZM241.022 14.8358C244.097 11.8927 248.942 11.8925 252.009 14.8358C252.053 14.8794 252.082 14.9393 252.082 15.0016C252.082 15.0639 252.053 15.1238 252.009 15.168L251.172 16.0184C251.084 16.1054 250.946 16.1063 250.858 16.0205C249.685 14.9081 248.133 14.2879 246.516 14.2879C244.905 14.2879 243.346 14.908 242.18 16.0205C242.093 16.1064 241.947 16.1056 241.867 16.0184L241.022 15.168C240.978 15.1237 240.949 15.0639 240.956 15.0016C240.956 14.9393 240.978 14.8794 241.022 14.8358Z" fill="black"/>
<path d="M226.362 17.7308C226.762 17.7308 227.09 18.057 227.09 18.4594V19.9169C227.09 20.3191 226.762 20.6456 226.362 20.6456H225.633C225.232 20.6456 224.904 20.3191 224.904 19.9169V18.4594C224.904 18.057 225.232 17.7308 225.633 17.7308H226.362ZM229.757 16.2735C230.165 16.2737 230.485 16.5998 230.485 17.0022V19.9169C230.485 20.3191 230.165 20.6448 229.757 20.6456H229.028C228.628 20.6456 228.307 20.3191 228.3 19.9169V17.0022C228.3 16.5997 228.628 16.2735 229.028 16.2735H229.757ZM233.16 14.5729C233.56 14.5729 233.888 14.8993 233.888 15.3016V19.9169C233.888 20.3191 233.56 20.6456 233.16 20.6456H232.431C232.03 20.6448 231.702 20.3191 231.702 19.9169V15.3016C231.702 14.8993 232.03 14.5731 232.431 14.5729H233.16ZM236.562 12.873C236.963 12.873 237.291 13.1993 237.291 13.6017V19.9169C237.291 20.3191 236.963 20.6456 236.562 20.6456H235.834C235.433 20.6456 235.105 20.3191 235.105 19.9169V13.6017C235.105 13.1993 235.433 12.873 235.834 12.873H236.562Z" fill="black"/>
<path d="M27.1926 20.5891C29.1511 20.5891 30.3147 19.0575 30.3147 16.4642C30.3147 15.4876 30.1282 14.6658 29.7704 14.0307C29.2524 13.0434 28.3613 12.5098 27.2356 12.5098C25.5598 12.5098 24.375 13.6358 24.375 15.2154C24.375 16.699 25.4424 17.777 26.9099 17.777C27.8119 17.777 28.5427 17.3554 28.9056 16.6243H28.9216C28.9216 16.6243 28.9435 16.6243 28.9486 16.6243C28.9595 16.6243 28.9967 16.6243 28.9967 16.6243C28.9967 18.3853 28.3293 19.4364 27.2035 19.4364C26.5419 19.4364 26.0297 19.0736 25.8534 18.4921H24.4821C24.7116 19.757 25.7842 20.5891 27.1926 20.5891ZM27.2407 16.683C26.3547 16.683 25.7252 16.0533 25.7252 15.1727C25.7252 14.3135 26.3867 13.6571 27.2465 13.6571C28.1055 13.6571 28.7672 14.3242 28.7672 15.1941C28.7672 16.0533 28.1216 16.683 27.2407 16.683Z" fill="black"/>
<path d="M32.5668 20.5142C33.074 20.5142 33.4208 20.1513 33.4208 19.6712C33.4208 19.1852 33.074 18.8277 32.5668 18.8277C32.0655 18.8277 31.7129 19.1852 31.7129 19.6712C31.7129 20.1513 32.0655 20.5142 32.5668 20.5142ZM32.5668 16.5116C33.074 16.5116 33.4208 16.154 33.4208 15.6737C33.4208 15.1881 33.074 14.8306 32.5668 14.8306C32.0655 14.8306 31.7129 15.1881 31.7129 15.6737C31.7129 16.154 32.0655 16.5116 32.5668 16.5116Z" fill="black"/>
<path d="M38.4169 20.4023H39.735V18.967H40.7755V17.8034H39.735V12.7017H37.7925C36.4314 14.7509 35.3479 16.4639 34.6543 17.7394V18.967H38.4169V20.4023ZM35.9301 17.7554C36.8263 16.1757 37.6271 14.911 38.363 13.8223H38.438V17.8355H35.9301V17.7554Z" fill="black"/>
<path d="M43.7097 20.4023H45.0861V12.7017H43.7148L41.7031 14.1105V15.434L43.6187 14.0891H43.7097V20.4023Z" fill="black"/>
</g>
<path d="M233.888 243.36H42.2602C40.6506 243.36 39.3457 244.665 39.3457 246.275V348.282C39.3457 349.892 40.6506 351.197 42.2602 351.197H233.888C235.498 351.197 236.803 349.892 236.803 348.282V246.275C236.803 244.665 235.498 243.36 233.888 243.36Z" fill="white"/>
<path d="M87.9883 269.591V260.052H89.4236V268.352H93.7444V269.591H87.9883ZM95.2745 269.591V262.437H96.6735V269.591H95.2745ZM95.9813 261.333C95.7408 261.333 95.5295 261.252 95.3547 261.091C95.1871 260.927 95.0997 260.731 95.0997 260.504C95.0997 260.275 95.1871 260.079 95.3547 259.918C95.5295 259.753 95.7408 259.671 95.9813 259.671C96.2217 259.671 96.433 259.753 96.6006 259.918C96.7755 260.079 96.8629 260.275 96.8629 260.504C96.8629 260.731 96.7755 260.927 96.6006 261.091C96.433 261.252 96.2217 261.333 95.9813 261.333ZM99.8211 267.164L99.8138 265.465H100.054L102.91 262.437H104.572L101.322 265.884H101.104L99.8211 267.164ZM98.546 269.591V260.052H99.9377V269.591H98.546ZM103.063 269.591L100.499 266.191L101.461 265.218L104.769 269.591H103.063ZM108.63 269.735C107.931 269.735 107.319 269.584 106.809 269.283C106.306 268.979 105.912 268.552 105.636 268.002C105.366 267.45 105.228 266.802 105.228 266.061C105.228 265.328 105.366 264.682 105.636 264.123C105.912 263.564 106.299 263.128 106.794 262.815C107.289 262.501 107.872 262.344 108.535 262.344C108.936 262.344 109.33 262.411 109.709 262.544C110.087 262.678 110.43 262.887 110.729 263.173C111.027 263.459 111.268 263.83 111.443 264.286C111.618 264.74 111.705 265.29 111.705 265.94V266.433H106.014V265.39H110.335C110.335 265.024 110.262 264.699 110.117 264.416C109.964 264.13 109.752 263.905 109.483 263.741C109.22 263.577 108.907 263.494 108.543 263.494C108.157 263.494 107.814 263.591 107.523 263.783C107.231 263.972 107.005 264.221 106.852 264.528C106.692 264.832 106.619 265.163 106.619 265.52V266.335C106.619 266.813 106.699 267.22 106.867 267.556C107.042 267.891 107.275 268.147 107.581 268.324C107.887 268.498 108.237 268.585 108.645 268.585C108.907 268.585 109.155 268.547 109.366 268.473C109.585 268.395 109.774 268.281 109.934 268.128C110.087 267.976 110.211 267.788 110.299 267.564L111.61 267.802C111.508 268.19 111.319 268.531 111.042 268.822C110.772 269.111 110.437 269.336 110.022 269.498C109.621 269.656 109.155 269.735 108.63 269.735ZM120.055 262.437V263.555H116.15V262.437H120.055ZM117.199 260.723H118.59V267.49C118.59 267.76 118.634 267.964 118.714 268.101C118.795 268.234 118.896 268.325 119.02 268.375C119.151 268.422 119.297 268.445 119.45 268.445C119.56 268.445 119.654 268.437 119.742 268.422C119.822 268.406 119.887 268.394 119.938 268.384L120.186 269.535C120.106 269.566 119.989 269.597 119.844 269.628C119.691 269.662 119.509 269.681 119.283 269.684C118.918 269.69 118.576 269.625 118.263 269.488C117.942 269.352 117.687 269.14 117.49 268.855C117.294 268.569 117.199 268.211 117.199 267.779V260.723ZM123.144 265.343V269.591H121.753V260.052H123.123V263.601H123.217C123.385 263.216 123.64 262.911 123.982 262.684C124.325 262.458 124.776 262.344 125.33 262.344C125.826 262.344 126.256 262.444 126.62 262.646C126.992 262.848 127.276 263.15 127.472 263.55C127.684 263.948 127.786 264.444 127.786 265.041V269.591H126.387V265.208C126.387 264.683 126.256 264.277 125.986 263.988C125.716 263.696 125.338 263.55 124.857 263.55C124.529 263.55 124.237 263.62 123.975 263.76C123.713 263.899 123.509 264.104 123.363 264.375C123.217 264.641 123.144 264.965 123.144 265.343ZM129.644 269.591V262.437H131.035V269.591H129.644ZM130.343 261.333C130.103 261.333 129.891 261.252 129.724 261.091C129.549 260.927 129.462 260.731 129.462 260.504C129.462 260.275 129.549 260.079 129.724 259.918C129.891 259.753 130.103 259.671 130.343 259.671C130.584 259.671 130.795 259.753 130.962 259.918C131.137 260.079 131.225 260.275 131.225 260.504C131.225 260.731 131.137 260.927 130.962 261.091C130.795 261.252 130.584 261.333 130.343 261.333ZM138.271 264.184L137.003 264.407C136.952 264.246 136.872 264.092 136.755 263.946C136.646 263.8 136.493 263.68 136.296 263.588C136.107 263.494 135.866 263.448 135.575 263.448C135.181 263.448 134.853 263.536 134.591 263.713C134.321 263.887 134.19 264.112 134.19 264.388C134.19 264.627 134.278 264.82 134.46 264.966C134.635 265.112 134.919 265.231 135.312 265.325L136.449 265.586C137.112 265.738 137.6 265.972 137.921 266.289C138.249 266.606 138.409 267.017 138.409 267.523C138.409 267.951 138.285 268.333 138.037 268.668C137.79 269.001 137.447 269.261 137.003 269.451C136.566 269.64 136.063 269.735 135.48 269.735C134.678 269.735 134.03 269.565 133.52 269.223C133.017 268.878 132.704 268.389 132.587 267.756L133.935 267.551C134.023 267.902 134.19 268.167 134.453 268.347C134.715 268.524 135.057 268.613 135.473 268.613C135.932 268.613 136.296 268.518 136.566 268.329C136.843 268.136 136.981 267.902 136.981 267.626C136.981 267.402 136.894 267.214 136.726 267.062C136.558 266.909 136.311 266.795 135.968 266.717L134.759 266.452C134.088 266.3 133.593 266.058 133.272 265.725C132.959 265.393 132.799 264.972 132.799 264.463C132.799 264.041 132.915 263.671 133.156 263.354C133.389 263.038 133.717 262.791 134.132 262.614C134.547 262.434 135.028 262.344 135.56 262.344C136.333 262.344 136.945 262.511 137.389 262.847C137.833 263.179 138.125 263.625 138.271 264.184ZM143.407 272.274V262.437H144.77V263.596H144.886C144.967 263.448 145.083 263.275 145.236 263.08C145.389 262.884 145.601 262.713 145.87 262.568C146.14 262.418 146.497 262.344 146.941 262.344C147.517 262.344 148.034 262.49 148.486 262.782C148.938 263.073 149.295 263.494 149.55 264.044C149.812 264.593 149.943 265.255 149.943 266.028C149.943 266.801 149.812 267.464 149.557 268.016C149.302 268.566 148.945 268.99 148.493 269.288C148.049 269.583 147.531 269.731 146.956 269.731C146.519 269.731 146.162 269.658 145.885 269.511C145.615 269.366 145.397 269.195 145.244 268.999C145.09 268.804 144.967 268.63 144.886 268.477H144.799V272.274H143.407ZM144.777 266.014C144.777 266.517 144.85 266.958 144.996 267.336C145.142 267.715 145.353 268.012 145.63 268.226C145.899 268.437 146.242 268.543 146.642 268.543C147.058 268.543 147.408 268.433 147.684 268.212C147.961 267.989 148.173 267.686 148.318 267.304C148.464 266.922 148.537 266.492 148.537 266.014C148.537 265.542 148.464 265.118 148.326 264.743C148.18 264.367 147.969 264.07 147.692 263.853C147.408 263.636 147.058 263.527 146.642 263.527C146.234 263.527 145.899 263.631 145.615 263.839C145.338 264.047 145.134 264.337 144.989 264.71C144.843 265.082 144.777 265.517 144.777 266.014ZM151.502 269.591V262.437H152.85V263.573H152.923C153.054 263.188 153.288 262.886 153.615 262.665C153.943 262.441 154.322 262.33 154.737 262.33C154.825 262.33 154.927 262.333 155.051 262.339C155.167 262.345 155.262 262.353 155.335 262.363V263.695C155.277 263.679 155.175 263.662 155.036 263.643C154.891 263.622 154.752 263.611 154.606 263.611C154.278 263.611 153.98 263.68 153.725 263.82C153.47 263.957 153.266 264.148 153.12 264.393C152.974 264.635 152.894 264.912 152.894 265.222V269.591H151.502ZM159.291 269.735C158.621 269.735 158.038 269.581 157.535 269.274C157.04 268.966 156.654 268.536 156.377 267.984C156.1 267.431 155.962 266.786 155.962 266.047C155.962 265.304 156.1 264.656 156.377 264.1C156.654 263.544 157.04 263.113 157.535 262.805C158.038 262.498 158.621 262.344 159.291 262.344C159.969 262.344 160.552 262.498 161.047 262.805C161.55 263.113 161.936 263.544 162.213 264.1C162.49 264.656 162.628 265.304 162.628 266.047C162.628 266.786 162.49 267.431 162.213 267.984C161.936 268.536 161.55 268.966 161.047 269.274C160.552 269.581 159.969 269.735 159.291 269.735ZM159.299 268.566C159.736 268.566 160.093 268.451 160.377 268.222C160.668 267.991 160.88 267.686 161.011 267.304C161.149 266.922 161.222 266.501 161.222 266.042C161.222 265.586 161.149 265.167 161.011 264.784C160.88 264.399 160.668 264.09 160.377 263.857C160.093 263.625 159.736 263.508 159.299 263.508C158.862 263.508 158.497 263.625 158.213 263.857C157.922 264.09 157.71 264.399 157.572 264.784C157.433 265.167 157.368 265.586 157.368 266.042C157.368 266.501 157.433 266.922 157.572 267.304C157.71 267.686 157.922 267.991 158.213 268.222C158.497 268.451 158.862 268.566 159.299 268.566ZM167.59 262.437V263.555H163.547V262.437H167.59ZM164.654 269.591V261.608C164.654 261.161 164.749 260.79 164.946 260.495C165.142 260.197 165.405 259.975 165.725 259.829C166.046 259.68 166.403 259.605 166.774 259.605C167.059 259.605 167.299 259.628 167.496 259.675C167.692 259.719 167.838 259.759 167.94 259.797L167.612 260.923C167.547 260.905 167.459 260.883 167.357 260.858C167.255 260.831 167.131 260.816 166.986 260.816C166.651 260.816 166.41 260.9 166.264 261.068C166.119 261.236 166.046 261.478 166.046 261.794V269.591H164.654ZM169.026 269.591V262.437H170.417V269.591H169.026ZM169.725 261.333C169.485 261.333 169.281 261.252 169.106 261.091C168.931 260.927 168.851 260.731 168.851 260.504C168.851 260.275 168.931 260.079 169.106 259.918C169.281 259.753 169.485 259.671 169.725 259.671C169.973 259.671 170.177 259.753 170.345 259.918C170.52 260.079 170.607 260.275 170.607 260.504C170.607 260.731 170.52 260.927 170.345 261.091C170.177 261.252 169.973 261.333 169.725 261.333ZM173.682 260.052V269.591H172.29V260.052H173.682ZM178.644 269.735C177.937 269.735 177.332 269.584 176.822 269.283C176.312 268.979 175.919 268.552 175.649 268.002C175.372 267.45 175.234 266.802 175.234 266.061C175.234 265.328 175.372 264.682 175.649 264.123C175.919 263.564 176.305 263.128 176.8 262.815C177.296 262.501 177.879 262.344 178.542 262.344C178.95 262.344 179.336 262.411 179.715 262.544C180.094 262.678 180.436 262.887 180.735 263.173C181.041 263.459 181.274 263.83 181.449 264.286C181.624 264.74 181.711 265.29 181.711 265.94V266.433H176.021V265.39H180.349C180.349 265.024 180.268 264.699 180.123 264.416C179.97 264.13 179.766 263.905 179.496 263.741C179.227 263.577 178.913 263.494 178.549 263.494C178.163 263.494 177.82 263.591 177.529 263.783C177.237 263.972 177.012 264.221 176.859 264.528C176.698 264.832 176.625 265.163 176.625 265.52V266.335C176.625 266.813 176.706 267.22 176.873 267.556C177.048 267.891 177.281 268.147 177.587 268.324C177.893 268.498 178.25 268.585 178.651 268.585C178.92 268.585 179.161 268.547 179.38 268.473C179.591 268.395 179.78 268.281 179.941 268.128C180.101 267.976 180.217 267.788 180.305 267.564L181.624 267.802C181.514 268.19 181.325 268.531 181.055 268.822C180.786 269.111 180.443 269.336 180.035 269.498C179.627 269.656 179.161 269.735 178.644 269.735ZM184.779 266.847V266.759C184.786 266.182 184.844 265.722 184.954 265.381C185.063 265.039 185.223 264.763 185.427 264.552C185.631 264.34 185.879 264.148 186.163 263.974C186.352 263.856 186.52 263.724 186.666 263.578C186.819 263.432 186.935 263.264 187.023 263.075C187.11 262.886 187.154 262.676 187.154 262.447C187.154 262.17 187.088 261.931 186.957 261.729C186.826 261.527 186.651 261.372 186.433 261.263C186.221 261.152 185.981 261.096 185.719 261.096C185.478 261.096 185.252 261.145 185.034 261.244C184.815 261.344 184.633 261.499 184.494 261.711C184.349 261.918 184.269 262.187 184.247 262.516H182.833C182.855 261.957 182.994 261.486 183.256 261.1C183.518 260.712 183.861 260.419 184.291 260.22C184.72 260.021 185.194 259.922 185.719 259.922C186.287 259.922 186.79 260.029 187.22 260.243C187.649 260.455 187.977 260.751 188.218 261.133C188.451 261.512 188.575 261.954 188.575 262.46C188.575 262.808 188.516 263.121 188.407 263.401C188.305 263.677 188.145 263.924 187.948 264.141C187.744 264.359 187.504 264.552 187.227 264.719C186.965 264.884 186.746 265.054 186.586 265.231C186.425 265.408 186.309 265.618 186.229 265.86C186.156 266.102 186.119 266.402 186.112 266.759V266.847H184.779ZM185.478 269.679C185.223 269.679 185.005 269.589 184.822 269.409C184.64 269.226 184.553 269.006 184.553 268.748C184.553 268.493 184.64 268.276 184.822 268.096C185.005 267.913 185.223 267.821 185.478 267.821C185.733 267.821 185.952 267.913 186.134 268.096C186.316 268.276 186.411 268.493 186.411 268.748C186.411 268.918 186.367 269.076 186.28 269.218C186.2 269.358 186.083 269.47 185.944 269.554C185.806 269.637 185.653 269.679 185.478 269.679Z" fill="black"/>
<path d="M63.615 292.24C63.2128 292.24 62.8514 292.17 62.5308 292.03C62.216 291.884 61.9683 291.686 61.7876 291.435C61.6069 291.179 61.5136 290.885 61.5078 290.552H62.3559C62.3851 290.838 62.5016 291.08 62.7057 291.278C62.9155 291.47 63.2186 291.567 63.615 291.567C63.9939 291.567 64.2911 291.473 64.5068 291.287C64.7283 291.094 64.8391 290.85 64.8391 290.552C64.8391 290.319 64.7749 290.13 64.6467 289.984C64.5185 289.838 64.3582 289.728 64.1658 289.652C63.9735 289.576 63.7141 289.494 63.3876 289.407C62.9854 289.302 62.6619 289.197 62.4171 289.092C62.1781 288.987 61.9712 288.824 61.7963 288.603C61.6273 288.375 61.5428 288.072 61.5428 287.693C61.5428 287.361 61.6273 287.067 61.7963 286.81C61.9654 286.554 62.2014 286.356 62.5046 286.216C62.8135 286.076 63.1662 286.006 63.5625 286.006C64.1338 286.006 64.6001 286.149 64.9615 286.434C65.3287 286.72 65.5356 287.099 65.5823 287.571H64.7079C64.6788 287.338 64.5564 287.134 64.3407 286.959C64.125 286.778 63.8394 286.688 63.4838 286.688C63.1516 286.688 62.8805 286.775 62.6707 286.95C62.4609 287.119 62.3559 287.358 62.3559 287.667C62.3559 287.889 62.4171 288.069 62.5395 288.209C62.6677 288.349 62.8223 288.457 63.0029 288.533C63.1895 288.603 63.4489 288.684 63.7811 288.777C64.1833 288.888 64.5068 288.999 64.7516 289.11C64.9964 289.215 65.2063 289.381 65.3812 289.608C65.556 289.83 65.6435 290.133 65.6435 290.517C65.6435 290.815 65.5648 291.095 65.4074 291.357C65.25 291.619 65.0168 291.832 64.7079 291.995C64.399 292.158 64.0347 292.24 63.615 292.24ZM73.1971 287.387L71.702 292.179H70.8801L69.726 288.375L68.5718 292.179H67.7499L66.246 287.387H67.0592L68.1609 291.409L69.35 287.387H70.1631L71.326 291.418L72.4102 287.387H73.1971ZM74.3979 286.609C74.2463 286.609 74.1181 286.557 74.0132 286.452C73.9082 286.347 73.8558 286.219 73.8558 286.067C73.8558 285.915 73.9082 285.787 74.0132 285.682C74.1181 285.577 74.2463 285.525 74.3979 285.525C74.5436 285.525 74.666 285.577 74.7651 285.682C74.87 285.787 74.9225 285.915 74.9225 286.067C74.9225 286.219 74.87 286.347 74.7651 286.452C74.666 286.557 74.5436 286.609 74.3979 286.609ZM74.7826 287.387V292.179H73.987V287.387H74.7826ZM76.9342 288.27C77.0916 287.996 77.3247 287.769 77.6337 287.588C77.9485 287.402 78.3128 287.309 78.7266 287.309C79.1521 287.309 79.5369 287.411 79.8808 287.615C80.2305 287.819 80.5045 288.107 80.7027 288.48C80.9009 288.847 81 289.276 81 289.765C81 290.249 80.9009 290.681 80.7027 291.06C80.5045 291.438 80.2305 291.733 79.8808 291.943C79.5369 292.152 79.1521 292.257 78.7266 292.257C78.3186 292.257 77.9572 292.167 77.6424 291.986C77.3335 291.8 77.0974 291.57 76.9342 291.296V294.452H76.1385V287.387H76.9342V288.27ZM80.1868 289.765C80.1868 289.404 80.1139 289.089 79.9682 288.821C79.8225 288.553 79.6243 288.349 79.3736 288.209C79.1288 288.069 78.8578 287.999 78.5605 287.999C78.2691 287.999 77.998 288.072 77.7474 288.218C77.5025 288.358 77.3044 288.565 77.1528 288.839C77.0071 289.107 76.9342 289.419 76.9342 289.774C76.9342 290.136 77.0071 290.453 77.1528 290.727C77.3044 290.995 77.5025 291.202 77.7474 291.348C77.998 291.488 78.2691 291.558 78.5605 291.558C78.8578 291.558 79.1288 291.488 79.3736 291.348C79.6243 291.202 79.8225 290.995 79.9682 290.727C80.1139 290.453 80.1868 290.133 80.1868 289.765ZM82.4586 286.609C82.3071 286.609 82.1789 286.557 82.074 286.452C81.969 286.347 81.9166 286.219 81.9166 286.067C81.9166 285.915 81.969 285.787 82.074 285.682C82.1789 285.577 82.3071 285.525 82.4586 285.525C82.6044 285.525 82.7268 285.577 82.8259 285.682C82.9308 285.787 82.9833 285.915 82.9833 286.067C82.9833 286.219 82.9308 286.347 82.8259 286.452C82.7268 286.557 82.6044 286.609 82.4586 286.609ZM82.8434 287.387V292.179H82.0477V287.387H82.8434ZM86.5317 287.3C87.1146 287.3 87.5882 287.478 87.9525 287.833C88.3095 288.183 88.4917 288.69 88.4917 289.355V292.179H87.7047V289.468C87.7047 288.99 87.5882 288.626 87.3477 288.375C87.1073 288.119 86.7794 287.991 86.3641 287.991C85.9488 287.991 85.6136 288.122 85.3586 288.384C85.1181 288.646 84.9943 289.028 84.9943 289.529V292.179H84.2001V287.387H84.9943V288.069C85.1546 287.824 85.3659 287.635 85.6355 287.501C85.9051 287.367 86.2038 287.3 86.5317 287.3ZM91.7705 287.309C92.1785 287.309 92.5428 287.399 92.8488 287.58C93.1694 287.76 93.4026 287.988 93.5483 288.262V287.387H94.3571V292.284C94.3571 292.721 94.2623 293.108 94.0729 293.446C93.8907 293.79 93.6212 294.059 93.2714 294.251C92.929 294.443 92.5282 294.539 92.0619 294.539C91.4353 294.539 90.9107 294.391 90.4881 294.094C90.0728 293.796 89.825 293.391 89.7449 292.878H90.5318C90.6192 293.17 90.8014 293.403 91.0783 293.578C91.3479 293.758 91.683 293.849 92.0619 293.849C92.4991 293.849 92.8561 293.712 93.133 293.438C93.4099 293.164 93.5483 292.779 93.5483 292.284V291.278C93.3953 291.558 93.1621 291.791 92.8488 291.978C92.5428 292.164 92.1785 292.257 91.7705 292.257C91.3406 292.257 90.9544 292.152 90.6046 291.943C90.2622 291.733 89.9926 291.438 89.7886 291.06C89.5919 290.681 89.4972 290.249 89.4972 289.765C89.4972 289.276 89.5919 288.847 89.7886 288.48C89.9926 288.107 90.2622 287.819 90.6046 287.615C90.9544 287.411 91.3406 287.309 91.7705 287.309ZM93.5483 289.774C93.5483 289.413 93.4755 289.098 93.3297 288.83C93.184 288.562 92.9873 288.358 92.7396 288.218C92.4918 288.072 92.2222 287.999 91.9235 287.999C91.6247 287.999 91.3551 288.069 91.1147 288.209C90.867 288.349 90.6702 288.553 90.5245 288.821C90.3788 289.089 90.3059 289.404 90.3059 289.765C90.3059 290.133 90.3788 290.453 90.5245 290.727C90.6702 290.995 90.867 291.202 91.1147 291.348C91.3551 291.488 91.6247 291.558 91.9235 291.558C92.2222 291.558 92.4918 291.488 92.7396 291.348C92.9873 291.202 93.184 290.995 93.3297 290.727C93.4755 290.453 93.5483 290.136 93.5483 289.774ZM99.0057 288.043V290.867C99.0057 291.1 99.0494 291.266 99.1514 291.366C99.2534 291.459 99.421 291.505 99.6687 291.505H100.252V292.179H99.5376C99.0931 292.179 98.758 292.077 98.5394 291.873C98.3208 291.669 98.2042 291.333 98.2042 290.867V288.043H97.5849V287.387H98.2042V286.181H99.0057V287.387H100.252V288.043H99.0057ZM103.305 292.257C102.86 292.257 102.452 292.155 102.08 291.951C101.723 291.747 101.432 291.459 101.228 291.086C101.024 290.707 100.922 290.27 100.922 289.774C100.922 289.285 101.024 288.853 101.235 288.48C101.447 288.101 101.738 287.813 102.11 287.615C102.474 287.411 102.889 287.309 103.341 287.309C103.793 287.309 104.208 287.411 104.572 287.615C104.944 287.813 105.228 288.098 105.439 288.471C105.658 288.844 105.76 289.279 105.76 289.774C105.76 290.27 105.651 290.707 105.432 291.086C105.214 291.459 104.922 291.747 104.551 291.951C104.172 292.155 103.764 292.257 103.305 292.257ZM103.305 291.558C103.589 291.558 103.858 291.491 104.113 291.357C104.361 291.223 104.565 291.022 104.711 290.754C104.871 290.485 104.951 290.159 104.951 289.774C104.951 289.39 104.871 289.063 104.725 288.795C104.572 288.527 104.376 288.329 104.128 288.2C103.88 288.066 103.618 287.999 103.334 287.999C103.042 287.999 102.773 288.066 102.525 288.2C102.292 288.329 102.095 288.527 101.949 288.795C101.804 289.063 101.731 289.39 101.731 289.774C101.731 290.165 101.804 290.494 101.942 290.762C102.088 291.03 102.277 291.231 102.518 291.366C102.758 291.494 103.02 291.558 103.305 291.558ZM109.935 288.165C110.073 287.891 110.277 287.679 110.532 287.527C110.795 287.376 111.108 287.3 111.487 287.3V288.122H111.276C110.379 288.122 109.935 288.606 109.935 289.573V292.179H109.141V287.387H109.935V288.165ZM112.813 286.609C112.66 286.609 112.536 286.557 112.427 286.452C112.325 286.347 112.274 286.219 112.274 286.067C112.274 285.915 112.325 285.787 112.427 285.682C112.536 285.577 112.66 285.525 112.813 285.525C112.959 285.525 113.083 285.577 113.177 285.682C113.287 285.787 113.338 285.915 113.338 286.067C113.338 286.219 113.287 286.347 113.177 286.452C113.083 286.557 112.959 286.609 112.813 286.609ZM113.199 287.387V292.179H112.405V287.387H113.199ZM116.529 287.309C116.944 287.309 117.301 287.399 117.615 287.58C117.928 287.76 118.161 287.988 118.314 288.262V287.387H119.116V292.284C119.116 292.721 119.021 293.108 118.839 293.446C118.649 293.79 118.38 294.059 118.03 294.251C117.688 294.443 117.287 294.539 116.828 294.539C116.194 294.539 115.669 294.391 115.254 294.094C114.831 293.796 114.584 293.391 114.511 292.878H115.298C115.385 293.17 115.567 293.403 115.837 293.578C116.114 293.758 116.442 293.849 116.828 293.849C117.265 293.849 117.622 293.712 117.892 293.438C118.176 293.164 118.314 292.779 118.314 292.284V291.278C118.154 291.558 117.921 291.791 117.615 291.978C117.301 292.164 116.944 292.257 116.529 292.257C116.107 292.257 115.713 292.152 115.363 291.943C115.021 291.733 114.751 291.438 114.555 291.06C114.358 290.681 114.256 290.249 114.256 289.765C114.256 289.276 114.358 288.847 114.555 288.48C114.751 288.107 115.021 287.819 115.363 287.615C115.713 287.411 116.107 287.309 116.529 287.309ZM118.314 289.774C118.314 289.413 118.241 289.098 118.096 288.83C117.95 288.562 117.753 288.358 117.498 288.218C117.258 288.072 116.981 287.999 116.689 287.999C116.391 287.999 116.121 288.069 115.873 288.209C115.626 288.349 115.436 288.553 115.29 288.821C115.145 289.089 115.072 289.404 115.072 289.765C115.072 290.133 115.145 290.453 115.29 290.727C115.436 290.995 115.626 291.202 115.873 291.348C116.121 291.488 116.391 291.558 116.689 291.558C116.981 291.558 117.258 291.488 117.498 291.348C117.753 291.202 117.95 290.995 118.096 290.727C118.241 290.453 118.314 290.136 118.314 289.774ZM122.839 287.3C123.203 287.3 123.531 287.379 123.823 287.536C124.114 287.687 124.34 287.918 124.5 288.227C124.668 288.536 124.755 288.912 124.755 289.355V292.179H123.968V289.468C123.968 288.99 123.852 288.626 123.611 288.375C123.371 288.119 123.043 287.991 122.628 287.991C122.212 287.991 121.877 288.122 121.622 288.384C121.382 288.646 121.258 289.028 121.258 289.529V292.179H120.464V285.709H121.258V288.069C121.418 287.824 121.63 287.635 121.906 287.501C122.183 287.367 122.497 287.3 122.839 287.3ZM127.029 288.043V290.867C127.029 291.1 127.072 291.266 127.174 291.366C127.276 291.459 127.444 291.505 127.692 291.505H128.275V292.179H127.56C127.116 292.179 126.781 292.077 126.562 291.873C126.344 291.669 126.227 291.333 126.227 290.867V288.043H125.608V287.387H126.227V286.181H127.029V287.387H128.275V288.043H127.029ZM137.331 287.3C137.703 287.3 138.038 287.379 138.33 287.536C138.621 287.687 138.854 287.918 139.022 288.227C139.189 288.536 139.277 288.912 139.277 289.355V292.179H138.49V289.468C138.49 288.99 138.366 288.626 138.125 288.375C137.892 288.119 137.579 287.991 137.178 287.991C136.763 287.991 136.435 288.125 136.187 288.393C135.94 288.655 135.823 289.037 135.823 289.538V292.179H135.036V289.468C135.036 288.99 134.912 288.626 134.672 288.375C134.439 288.119 134.125 287.991 133.725 287.991C133.309 287.991 132.981 288.125 132.734 288.393C132.486 288.655 132.369 289.037 132.369 289.538V292.179H131.568V287.387H132.369V288.078C132.522 287.827 132.734 287.635 132.996 287.501C133.266 287.367 133.557 287.3 133.878 287.3C134.278 287.3 134.635 287.39 134.949 287.571C135.255 287.752 135.488 288.017 135.634 288.367C135.772 288.028 135.991 287.766 136.304 287.58C136.61 287.393 136.952 287.3 137.331 287.3ZM144.953 289.599C144.953 289.751 144.945 289.911 144.924 290.08H141.098C141.127 290.552 141.288 290.923 141.579 291.191C141.871 291.453 142.235 291.584 142.65 291.584C142.993 291.584 143.284 291.505 143.51 291.348C143.743 291.185 143.903 290.969 143.998 290.701H144.858C144.727 291.162 144.472 291.537 144.086 291.829C143.699 292.115 143.226 292.257 142.65 292.257C142.199 292.257 141.79 292.155 141.426 291.951C141.069 291.747 140.792 291.459 140.588 291.086C140.384 290.707 140.282 290.27 140.282 289.774C140.282 289.279 140.384 288.844 140.581 288.471C140.778 288.098 141.055 287.813 141.412 287.615C141.769 287.411 142.184 287.309 142.65 287.309C143.109 287.309 143.51 287.408 143.86 287.606C144.209 287.804 144.479 288.078 144.661 288.428C144.858 288.772 144.953 289.162 144.953 289.599ZM144.129 289.433C144.129 289.13 144.064 288.871 143.925 288.655C143.794 288.434 143.612 288.267 143.379 288.157C143.153 288.04 142.898 287.982 142.614 287.982C142.213 287.982 141.871 288.11 141.586 288.367C141.302 288.623 141.142 288.979 141.106 289.433H144.129ZM145.703 289.765C145.703 289.276 145.805 288.847 146.002 288.48C146.199 288.107 146.468 287.819 146.818 287.615C147.168 287.411 147.554 287.309 147.976 287.309C148.399 287.309 148.763 287.399 149.069 287.58C149.383 287.76 149.609 287.988 149.762 288.262V287.387H150.563V292.179H149.762V291.287C149.601 291.567 149.368 291.8 149.055 291.986C148.742 292.167 148.384 292.257 147.969 292.257C147.547 292.257 147.16 292.152 146.818 291.943C146.468 291.733 146.199 291.438 146.002 291.06C145.805 290.681 145.703 290.249 145.703 289.765ZM149.762 289.774C149.762 289.413 149.689 289.098 149.543 288.83C149.397 288.562 149.201 288.358 148.946 288.218C148.705 288.072 148.436 287.999 148.137 287.999C147.838 287.999 147.568 288.069 147.321 288.209C147.08 288.349 146.884 288.553 146.738 288.821C146.592 289.089 146.519 289.404 146.519 289.765C146.519 290.133 146.592 290.453 146.738 290.727C146.884 290.995 147.08 291.202 147.321 291.348C147.568 291.488 147.838 291.558 148.137 291.558C148.436 291.558 148.705 291.488 148.946 291.348C149.201 291.202 149.397 290.995 149.543 290.727C149.689 290.453 149.762 290.136 149.762 289.774ZM154.243 287.3C154.826 287.3 155.299 287.478 155.663 287.833C156.021 288.183 156.203 288.69 156.203 289.355V292.179H155.416V289.468C155.416 288.99 155.299 288.626 155.059 288.375C154.818 288.119 154.49 287.991 154.075 287.991C153.66 287.991 153.325 288.122 153.07 288.384C152.829 288.646 152.705 289.028 152.705 289.529V292.179H151.911V287.387H152.705V288.069C152.866 287.824 153.077 287.635 153.346 287.501C153.616 287.367 153.915 287.3 154.243 287.3ZM159.197 292.257C158.833 292.257 158.505 292.196 158.214 292.074C157.922 291.946 157.689 291.771 157.521 291.549C157.354 291.322 157.259 291.062 157.237 290.771H158.061C158.083 291.01 158.199 291.205 158.396 291.357C158.6 291.508 158.862 291.584 159.19 291.584C159.496 291.584 159.729 291.517 159.904 291.383C160.079 291.249 160.166 291.08 160.166 290.876C160.166 290.666 160.079 290.512 159.889 290.412C159.7 290.308 159.416 290.206 159.022 290.106C158.665 290.013 158.374 289.92 158.148 289.827C157.93 289.728 157.733 289.585 157.572 289.398C157.412 289.206 157.339 288.955 157.339 288.646C157.339 288.402 157.412 288.177 157.558 287.973C157.704 287.769 157.908 287.609 158.177 287.492C158.447 287.37 158.753 287.309 159.095 287.309C159.627 287.309 160.05 287.443 160.378 287.711C160.706 287.979 160.88 288.346 160.902 288.812H160.108C160.094 288.562 159.991 288.361 159.802 288.209C159.62 288.058 159.38 287.982 159.066 287.982C158.782 287.982 158.556 288.043 158.389 288.165C158.214 288.288 158.134 288.448 158.134 288.646C158.134 288.804 158.185 288.935 158.279 289.04C158.389 289.139 158.512 289.22 158.665 289.285C158.826 289.343 159.037 289.41 159.314 289.486C159.656 289.579 159.933 289.672 160.152 289.765C160.37 289.853 160.553 289.987 160.706 290.168C160.859 290.348 160.939 290.584 160.946 290.876C160.946 291.138 160.873 291.374 160.727 291.584C160.582 291.794 160.378 291.96 160.108 292.083C159.846 292.199 159.54 292.257 159.197 292.257ZM168.531 287.387L165.646 294.435H164.822L165.762 292.126L163.831 287.387H164.713L166.221 291.269L167.708 287.387H168.531ZM171.416 292.257C170.972 292.257 170.564 292.155 170.192 291.951C169.835 291.747 169.544 291.459 169.34 291.086C169.136 290.707 169.034 290.27 169.034 289.774C169.034 289.285 169.136 288.853 169.347 288.48C169.558 288.101 169.85 287.813 170.221 287.615C170.586 287.411 171.001 287.309 171.453 287.309C171.905 287.309 172.32 287.411 172.684 287.615C173.056 287.813 173.34 288.098 173.551 288.471C173.77 288.844 173.872 289.279 173.872 289.774C173.872 290.27 173.763 290.707 173.544 291.086C173.325 291.459 173.034 291.747 172.662 291.951C172.283 292.155 171.875 292.257 171.416 292.257ZM171.416 291.558C171.701 291.558 171.97 291.491 172.225 291.357C172.473 291.223 172.677 291.022 172.823 290.754C172.983 290.485 173.063 290.159 173.063 289.774C173.063 289.39 172.983 289.063 172.837 288.795C172.684 288.527 172.487 288.329 172.24 288.2C171.992 288.066 171.73 287.999 171.446 287.999C171.154 287.999 170.884 288.066 170.637 288.2C170.404 288.329 170.207 288.527 170.061 288.795C169.915 289.063 169.842 289.39 169.842 289.774C169.842 290.165 169.915 290.494 170.054 290.762C170.2 291.03 170.389 291.231 170.629 291.366C170.87 291.494 171.132 291.558 171.416 291.558ZM179.169 287.387V292.179H178.375V291.47C178.222 291.715 178.01 291.908 177.734 292.048C177.471 292.182 177.172 292.249 176.845 292.249C176.473 292.249 176.138 292.173 175.839 292.021C175.54 291.864 175.307 291.631 175.132 291.322C174.965 291.013 174.877 290.637 174.877 290.194V287.387H175.664V290.089C175.664 290.561 175.781 290.925 176.021 291.182C176.262 291.433 176.59 291.558 177.005 291.558C177.428 291.558 177.763 291.427 178.01 291.164C178.251 290.902 178.375 290.52 178.375 290.019V287.387H179.169ZM189.231 287.387L187.73 292.179H186.914L185.756 288.375L184.604 292.179H183.781L182.28 287.387H183.089L184.189 291.409L185.384 287.387H186.193L187.359 291.418L188.444 287.387H189.231ZM189.719 289.765C189.719 289.276 189.821 288.847 190.018 288.48C190.215 288.107 190.484 287.819 190.834 287.615C191.184 287.411 191.57 287.309 191.993 287.309C192.415 287.309 192.78 287.399 193.086 287.58C193.399 287.76 193.625 287.988 193.778 288.262V287.387H194.579V292.179H193.778V291.287C193.617 291.567 193.384 291.8 193.071 291.986C192.758 292.167 192.401 292.257 191.985 292.257C191.563 292.257 191.177 292.152 190.834 291.943C190.484 291.733 190.215 291.438 190.018 291.06C189.821 290.681 189.719 290.249 189.719 289.765ZM193.778 289.774C193.778 289.413 193.705 289.098 193.559 288.83C193.413 288.562 193.217 288.358 192.962 288.218C192.721 288.072 192.452 287.999 192.153 287.999C191.854 287.999 191.585 288.069 191.337 288.209C191.096 288.349 190.9 288.553 190.754 288.821C190.608 289.089 190.535 289.404 190.535 289.765C190.535 290.133 190.608 290.453 190.754 290.727C190.9 290.995 191.096 291.202 191.337 291.348C191.585 291.488 191.854 291.558 192.153 291.558C192.452 291.558 192.721 291.488 192.962 291.348C193.217 291.202 193.413 290.995 193.559 290.727C193.705 290.453 193.778 290.136 193.778 289.774ZM198.259 287.3C198.842 287.3 199.315 287.478 199.68 287.833C200.037 288.183 200.219 288.69 200.219 289.355V292.179H199.432V289.468C199.432 288.99 199.315 288.626 199.075 288.375C198.834 288.119 198.507 287.991 198.091 287.991C197.676 287.991 197.341 288.122 197.086 288.384C196.845 288.646 196.721 289.028 196.721 289.529V292.179H195.927V287.387H196.721V288.069C196.882 287.824 197.093 287.635 197.363 287.501C197.632 287.367 197.931 287.3 198.259 287.3ZM202.492 288.043V290.867C202.492 291.1 202.536 291.266 202.638 291.366C202.74 291.459 202.907 291.505 203.155 291.505H203.738V292.179H203.024C202.58 292.179 202.244 292.077 202.026 291.873C201.807 291.669 201.691 291.333 201.691 290.867V288.043H201.071V287.387H201.691V286.181H202.492V287.387H203.738V288.043H202.492ZM208.008 288.043V290.867C208.008 291.1 208.052 291.266 208.154 291.366C208.256 291.459 208.423 291.505 208.671 291.505H209.254V292.179H208.54C208.095 292.179 207.76 292.077 207.541 291.873C207.323 291.669 207.206 291.333 207.206 290.867V288.043H206.587V287.387H207.206V286.181H208.008V287.387H209.254V288.043H208.008ZM212.307 292.257C211.862 292.257 211.454 292.155 211.083 291.951C210.726 291.747 210.441 291.459 210.23 291.086C210.026 290.707 209.924 290.27 209.924 289.774C209.924 289.285 210.026 288.853 210.237 288.48C210.456 288.101 210.747 287.813 211.112 287.615C211.476 287.411 211.891 287.309 212.343 287.309C212.802 287.309 213.21 287.411 213.574 287.615C213.946 287.813 214.23 288.098 214.442 288.471C214.66 288.844 214.769 289.279 214.769 289.774C214.769 290.27 214.653 290.707 214.434 291.086C214.216 291.459 213.924 291.747 213.553 291.951C213.181 292.155 212.766 292.257 212.307 292.257ZM212.307 291.558C212.598 291.558 212.86 291.491 213.115 291.357C213.363 291.223 213.567 291.022 213.72 290.754C213.873 290.485 213.953 290.159 213.953 289.774C213.953 289.39 213.88 289.063 213.727 288.795C213.574 288.527 213.378 288.329 213.13 288.2C212.89 288.066 212.62 287.999 212.336 287.999C212.044 287.999 211.775 288.066 211.534 288.2C211.294 288.329 211.097 288.527 210.951 288.795C210.806 289.063 210.733 289.39 210.733 289.774C210.733 290.165 210.806 290.494 210.944 290.762C211.09 291.03 211.287 291.231 211.52 291.366C211.76 291.494 212.023 291.558 212.307 291.558ZM119.531 302.889C119.531 302.394 119.626 301.963 119.83 301.595C120.026 301.222 120.296 300.934 120.646 300.73C121.003 300.526 121.411 300.424 121.863 300.424C122.453 300.424 122.934 300.567 123.313 300.852C123.699 301.138 123.954 301.534 124.078 302.041H123.218C123.138 301.75 122.977 301.52 122.737 301.351C122.504 301.182 122.212 301.097 121.863 301.097C121.411 301.097 121.039 301.254 120.762 301.569C120.486 301.878 120.34 302.318 120.34 302.889C120.34 303.467 120.486 303.912 120.762 304.227C121.039 304.542 121.411 304.699 121.863 304.699C122.212 304.699 122.504 304.618 122.737 304.455C122.97 304.291 123.13 304.058 123.218 303.755H124.078C123.947 304.245 123.691 304.638 123.305 304.935C122.919 305.227 122.438 305.373 121.863 305.373C121.411 305.373 121.003 305.271 120.646 305.067C120.296 304.863 120.026 304.574 119.83 304.201C119.626 303.828 119.531 303.391 119.531 302.889ZM127.225 305.373C126.781 305.373 126.373 305.271 126.001 305.067C125.644 304.863 125.353 304.574 125.149 304.201C124.945 303.822 124.843 303.385 124.843 302.889C124.843 302.4 124.945 301.968 125.156 301.595C125.367 301.217 125.659 300.928 126.03 300.73C126.395 300.526 126.81 300.424 127.262 300.424C127.714 300.424 128.129 300.526 128.493 300.73C128.865 300.928 129.149 301.214 129.36 301.587C129.579 301.96 129.681 302.394 129.681 302.889C129.681 303.385 129.571 303.822 129.353 304.201C129.134 304.574 128.843 304.863 128.471 305.067C128.092 305.271 127.684 305.373 127.225 305.373ZM127.225 304.673C127.509 304.673 127.779 304.606 128.034 304.472C128.282 304.338 128.486 304.137 128.632 303.869C128.792 303.601 128.872 303.274 128.872 302.889C128.872 302.505 128.792 302.178 128.646 301.91C128.493 301.642 128.296 301.444 128.049 301.316C127.801 301.182 127.539 301.115 127.254 301.115C126.963 301.115 126.693 301.182 126.446 301.316C126.213 301.444 126.016 301.642 125.87 301.91C125.724 302.178 125.651 302.505 125.651 302.889C125.651 303.28 125.724 303.609 125.863 303.877C126.008 304.146 126.198 304.347 126.438 304.481C126.679 304.609 126.941 304.673 127.225 304.673ZM133.062 300.415C133.644 300.415 134.118 300.593 134.482 300.948C134.839 301.298 135.022 301.805 135.022 302.47V305.294H134.235V302.583C134.235 302.105 134.118 301.741 133.878 301.49C133.637 301.234 133.309 301.106 132.901 301.106C132.479 301.106 132.144 301.237 131.896 301.499C131.648 301.762 131.524 302.143 131.524 302.645V305.294H130.73V300.502H131.524V301.184C131.684 300.94 131.896 300.75 132.165 300.616C132.435 300.482 132.741 300.415 133.062 300.415ZM138.657 300.415C139.24 300.415 139.714 300.593 140.071 300.948C140.435 301.298 140.617 301.805 140.617 302.47V305.294H139.831V302.583C139.831 302.105 139.707 301.741 139.473 301.49C139.233 301.234 138.905 301.106 138.49 301.106C138.074 301.106 137.739 301.237 137.484 301.499C137.244 301.762 137.12 302.143 137.12 302.645V305.294H136.326V300.502H137.12V301.184C137.273 300.94 137.492 300.75 137.754 300.616C138.031 300.482 138.33 300.415 138.657 300.415ZM146.286 302.715C146.286 302.866 146.279 303.026 146.264 303.195H142.432C142.461 303.668 142.621 304.038 142.913 304.306C143.211 304.568 143.568 304.699 143.991 304.699C144.333 304.699 144.618 304.621 144.843 304.463C145.077 304.3 145.244 304.084 145.332 303.816H146.191C146.06 304.277 145.805 304.653 145.419 304.944C145.04 305.23 144.559 305.373 143.991 305.373C143.532 305.373 143.124 305.271 142.767 305.067C142.41 304.863 142.126 304.574 141.922 304.201C141.718 303.822 141.616 303.385 141.616 302.889C141.616 302.394 141.718 301.96 141.914 301.587C142.111 301.214 142.388 300.928 142.745 300.73C143.109 300.526 143.525 300.424 143.991 300.424C144.443 300.424 144.843 300.523 145.193 300.721C145.543 300.919 145.812 301.193 146.002 301.543C146.191 301.887 146.286 302.277 146.286 302.715ZM145.463 302.548C145.463 302.245 145.397 301.986 145.266 301.77C145.128 301.549 144.945 301.383 144.712 301.272C144.486 301.155 144.231 301.097 143.954 301.097C143.554 301.097 143.204 301.225 142.92 301.482C142.643 301.738 142.483 302.094 142.439 302.548H145.463ZM147.044 302.889C147.044 302.394 147.139 301.963 147.335 301.595C147.539 301.222 147.809 300.934 148.159 300.73C148.516 300.526 148.924 300.424 149.375 300.424C149.966 300.424 150.447 300.567 150.825 300.852C151.212 301.138 151.467 301.534 151.591 302.041H150.731C150.651 301.75 150.49 301.52 150.25 301.351C150.017 301.182 149.725 301.097 149.375 301.097C148.924 301.097 148.552 301.254 148.275 301.569C147.991 301.878 147.853 302.318 147.853 302.889C147.853 303.467 147.991 303.912 148.275 304.227C148.552 304.542 148.924 304.699 149.375 304.699C149.725 304.699 150.017 304.618 150.25 304.455C150.483 304.291 150.643 304.058 150.731 303.755H151.591C151.459 304.245 151.204 304.638 150.818 304.935C150.432 305.227 149.951 305.373 149.375 305.373C148.924 305.373 148.516 305.271 148.159 305.067C147.809 304.863 147.539 304.574 147.335 304.201C147.139 303.828 147.044 303.391 147.044 302.889ZM153.616 301.158V303.982C153.616 304.216 153.667 304.382 153.769 304.481C153.864 304.574 154.039 304.621 154.286 304.621H154.869V305.294H154.155C153.711 305.294 153.376 305.192 153.157 304.988C152.931 304.784 152.822 304.449 152.822 303.982V301.158H152.203V300.502H152.822V299.296H153.616V300.502H154.869V301.158H153.616ZM156.086 305.346C155.933 305.346 155.809 305.294 155.7 305.189C155.598 305.084 155.547 304.956 155.547 304.804C155.547 304.653 155.598 304.524 155.7 304.42C155.809 304.315 155.933 304.262 156.086 304.262C156.232 304.262 156.356 304.315 156.458 304.42C156.56 304.524 156.611 304.653 156.611 304.804C156.611 304.956 156.56 305.084 156.458 305.189C156.356 305.294 156.232 305.346 156.086 305.346Z" fill="#4F4F4F"/>
<path d="M107.625 334.561C108.863 334.561 109.679 333.99 110.248 333.214L109.526 332.817C109.14 333.398 108.433 333.806 107.625 333.806C106.167 333.806 105.038 332.653 105.038 331.042C105.038 329.42 106.167 328.277 107.625 328.277C108.433 328.277 109.14 328.696 109.526 329.267L110.24 328.869C109.701 328.104 108.863 327.522 107.625 327.522C105.701 327.522 104.156 328.951 104.156 331.042C104.156 333.133 105.701 334.561 107.625 334.561ZM115.144 334.439V331.052C115.144 329.858 114.277 329.389 113.235 329.389C112.433 329.389 111.8 329.654 111.268 330.205L111.625 330.736C112.062 330.266 112.543 330.052 113.133 330.052C113.847 330.052 114.379 330.43 114.379 331.093V331.98C113.978 331.521 113.417 331.307 112.747 331.307C111.909 331.307 111.02 331.827 111.02 332.929C111.02 334 111.909 334.561 112.747 334.561C113.41 334.561 113.971 334.326 114.379 333.878V334.439H115.144ZM114.379 333.398C114.08 333.806 113.563 334.01 113.024 334.01C112.31 334.01 111.807 333.561 111.807 332.939C111.807 332.307 112.31 331.858 113.024 331.858C113.563 331.858 114.08 332.062 114.379 332.47V333.398ZM120.769 334.439V330.981C120.769 329.909 120.23 329.389 119.195 329.389C118.459 329.389 117.789 329.818 117.439 330.226V329.512H116.674V334.439H117.439V330.838C117.731 330.44 118.299 330.073 118.904 330.073C119.567 330.073 120.004 330.348 120.004 331.215V334.439H120.769ZM122.008 331.97C122.008 333.439 122.998 334.561 124.47 334.561C125.366 334.561 125.898 334.194 126.27 333.704L125.76 333.235C125.439 333.674 125.017 333.878 124.507 333.878C123.458 333.878 122.802 333.061 122.802 331.97C122.802 330.879 123.458 330.073 124.507 330.073C125.017 330.073 125.439 330.266 125.76 330.715L126.27 330.246C125.898 329.756 125.366 329.389 124.47 329.389C122.998 329.389 122.008 330.511 122.008 331.97ZM127.057 331.97C127.057 333.51 128.113 334.561 129.571 334.561C130.372 334.561 131.035 334.296 131.531 333.806L131.159 333.306C130.773 333.704 130.205 333.929 129.644 333.929C128.58 333.929 127.924 333.153 127.866 332.225H131.851V332.031C131.851 330.552 130.977 329.389 129.491 329.389C128.077 329.389 127.057 330.542 127.057 331.97ZM129.476 330.022C130.598 330.022 131.086 330.93 131.101 331.664H127.866C127.909 330.909 128.427 330.022 129.476 330.022ZM133.862 334.439V327.635H133.097V334.439H133.862Z" fill="black"/>
<path d="M158.957 331.042C158.957 333.051 160.312 334.561 162.331 334.561C164.342 334.561 165.711 333.051 165.711 331.042C165.711 329.032 164.342 327.522 162.331 327.522C160.312 327.522 158.957 329.032 158.957 331.042ZM164.83 331.042C164.83 332.623 163.853 333.806 162.331 333.806C160.8 333.806 159.831 332.623 159.831 331.042C159.831 329.45 160.8 328.277 162.331 328.277C163.853 328.277 164.83 329.45 164.83 331.042ZM172.189 334.439L169.114 330.868L171.948 327.635H170.885L167.875 331.154V327.635H167.03V334.439H167.875V332.154L168.56 331.378L171.14 334.439H172.189Z" fill="black"/>
<path d="M87.7852 61.933V49.2148H92.6597C93.5777 49.2148 94.3355 49.3598 94.9475 49.6498C95.5596 49.9355 96.0186 50.3267 96.3174 50.8237C96.6234 51.3206 96.7764 51.8831 96.7764 52.5126C96.7764 53.0299 96.6817 53.4729 96.4849 53.8416C96.2809 54.2059 96.0186 54.5017 95.6835 54.7298C95.3483 54.9571 94.9694 55.1211 94.5541 55.2202V55.344C95.0058 55.3688 95.443 55.508 95.851 55.7601C96.2736 56.0085 96.6161 56.3605 96.8784 56.8159C97.1407 57.2712 97.2791 57.8221 97.2791 58.4676C97.2791 59.1263 97.1188 59.718 96.7982 60.244C96.4776 60.7657 95.9968 61.1774 95.3556 61.4798C94.7144 61.7822 93.9056 61.933 92.9365 61.933H87.7852ZM90.0949 60.008H92.5722C93.4029 60.008 94.0076 59.8484 94.3792 59.53C94.7508 59.2072 94.933 58.7926 94.933 58.2877C94.933 57.911 94.8455 57.5714 94.6561 57.2691C94.4666 56.963 94.2044 56.7226 93.8619 56.5492C93.5194 56.3707 93.1041 56.2818 92.6305 56.2818H90.0949V60.008ZM90.0949 54.6241H92.3682C92.769 54.6241 93.126 54.5513 93.4466 54.4063C93.7672 54.2576 94.0149 54.0485 94.1971 53.7797C94.3792 53.5064 94.4739 53.1829 94.4739 52.8106C94.4739 52.3181 94.2991 51.9122 93.9566 51.5938C93.6069 51.2747 93.0969 51.1151 92.4192 51.1151H90.0949V54.6241ZM107.298 49.2148H109.6V57.5241C109.6 58.4349 109.389 59.2356 108.959 59.9271C108.529 60.6185 107.932 61.1584 107.152 61.5483C106.38 61.933 105.476 62.1253 104.441 62.1253C103.4 62.1253 102.496 61.933 101.724 61.5483C100.944 61.1584 100.347 60.6185 99.9168 59.9271C99.4942 59.2356 99.2829 58.4349 99.2829 57.5241V49.2148H101.585V57.3317C101.585 57.8614 101.702 58.3336 101.935 58.7474C102.168 59.1613 102.496 59.4863 102.926 59.7223C103.349 59.954 103.859 60.0699 104.441 60.0699C105.024 60.0699 105.527 59.954 105.957 59.7223C106.387 59.4863 106.715 59.1613 106.948 58.7474C107.181 58.3336 107.298 57.8614 107.298 57.3317V49.2148ZM122.555 49.2148V61.933H120.508L114.518 53.2704H114.409V61.933H112.107V49.2148H114.169L120.151 57.884H120.267V49.2148H122.555ZM125.069 61.933V49.2148H127.371V55.0584H127.524L132.486 49.2148H135.299L130.38 54.9222L135.342 61.933H132.574L128.778 56.4807L127.371 58.1449V61.933H125.069ZM136.902 61.933V49.2148H141.769C142.687 49.2148 143.452 49.3598 144.064 49.6498C144.676 49.9355 145.135 50.3267 145.434 50.8237C145.74 51.3206 145.893 51.8831 145.893 52.5126C145.893 53.0299 145.791 53.4729 145.594 53.8416C145.397 54.2059 145.128 54.5017 144.793 54.7298C144.458 54.9571 144.086 55.1211 143.671 55.2202V55.344C144.122 55.3688 144.552 55.508 144.968 55.7601C145.383 56.0085 145.725 56.3605 145.995 56.8159C146.257 57.2712 146.388 57.8221 146.388 58.4676C146.388 59.1263 146.228 59.718 145.915 60.244C145.594 60.7657 145.113 61.1774 144.472 61.4798C143.831 61.7822 143.022 61.933 142.046 61.933H136.902ZM139.204 60.008H141.681C142.519 60.008 143.124 59.8484 143.488 59.53C143.86 59.2072 144.049 58.7926 144.049 58.2877C144.049 57.911 143.955 57.5714 143.773 57.2691C143.583 56.963 143.321 56.7226 142.971 56.5492C142.629 56.3707 142.221 56.2818 141.747 56.2818H139.204V60.008ZM139.204 54.6241H141.485C141.878 54.6241 142.243 54.5513 142.556 54.4063C142.876 54.2576 143.131 54.0485 143.314 53.7797C143.496 53.5064 143.59 53.1829 143.59 52.8106C143.59 52.3181 143.416 51.9122 143.066 51.5938C142.723 51.2747 142.213 51.1151 141.536 51.1151H139.204V54.6241ZM156.414 49.2148H158.717V57.5241C158.717 58.4349 158.498 59.2356 158.068 59.9271C157.646 60.6185 157.041 61.1584 156.269 61.5483C155.496 61.933 154.593 62.1253 153.558 62.1253C152.516 62.1253 151.605 61.933 150.833 61.5483C150.061 61.1584 149.463 60.6185 149.033 59.9271C148.611 59.2356 148.392 58.4349 148.392 57.5241V49.2148H150.695V57.3317C150.695 57.8614 150.811 58.3336 151.044 58.7474C151.285 59.1613 151.613 59.4863 152.043 59.7223C152.465 59.954 152.968 60.0699 153.558 60.0699C154.141 60.0699 154.644 59.954 155.066 59.7223C155.503 59.4863 155.831 59.1613 156.064 58.7474C156.298 58.3336 156.414 57.8614 156.414 57.3317V49.2148ZM165.529 61.933H161.216V49.2148H165.617C166.877 49.2148 167.963 49.4699 168.866 49.9792C169.777 50.4841 170.477 51.2106 170.972 52.1585C171.46 53.1064 171.701 54.2409 171.701 55.5619C171.701 56.8865 171.453 58.0246 170.965 58.9769C170.477 59.9293 169.77 60.6601 168.845 61.1694C167.926 61.6787 166.819 61.933 165.529 61.933ZM163.526 59.9395H165.42C166.302 59.9395 167.045 59.7784 167.635 59.4549C168.225 59.1285 168.67 58.6418 168.968 57.9962C169.267 57.3463 169.413 56.5346 169.413 55.5619C169.413 54.5884 169.267 53.7811 168.968 53.1399C168.67 52.4937 168.232 52.012 167.65 51.6929C167.067 51.3701 166.345 51.2084 165.486 51.2084H163.526V59.9395ZM178.2 61.933H173.894V49.2148H178.287C179.548 49.2148 180.634 49.4699 181.545 49.9792C182.455 50.4841 183.155 51.2106 183.643 52.1585C184.131 53.1064 184.372 54.2409 184.372 55.5619C184.372 56.8865 184.124 58.0246 183.636 58.9769C183.147 59.9293 182.441 60.6601 181.515 61.1694C180.597 61.6787 179.49 61.933 178.2 61.933ZM176.196 59.9395H178.091C178.972 59.9395 179.716 59.7784 180.306 59.4549C180.896 59.1285 181.34 58.6418 181.639 57.9962C181.938 57.3463 182.091 56.5346 182.091 55.5619C182.091 54.5884 181.938 53.7811 181.639 53.1399C181.34 52.4937 180.903 52.012 180.32 51.6929C179.737 51.3701 179.016 51.2084 178.156 51.2084H176.196V59.9395ZM184.976 49.2148H187.577L190.689 54.8413H190.813L193.924 49.2148H196.525L191.898 57.1889V61.933H189.603V57.1889L184.976 49.2148Z" fill="black"/>
<path d="M284.163 563.955H0V614.959H284.163V563.955Z" fill="white"/>
<mask id="mask2_783_1727" style="mask-type:luminance" maskUnits="userSpaceOnUse" x="19" y="575" width="19" height="19">
<path d="M37.1608 575.612H19.6738V593.099H37.1608V575.612Z" fill="white"/>
</mask>
<g mask="url(#mask2_783_1727)">
<path d="M30.9672 585.813H30.3916L30.1875 585.616C30.9016 584.786 31.3315 583.707 31.3315 582.534C31.3315 579.919 29.2112 577.798 26.5954 577.798C23.9797 577.798 21.8594 579.919 21.8594 582.534C21.8594 585.15 23.9797 587.27 26.5954 587.27C27.7685 587.27 28.8469 586.841 29.6775 586.127L29.8742 586.331V586.906L33.5174 590.542L34.603 589.456L30.9672 585.813ZM26.5954 585.813C24.7812 585.813 23.3166 584.349 23.3166 582.534C23.3166 580.72 24.7812 579.256 26.5954 579.256C28.4097 579.256 29.8742 580.72 29.8742 582.534C29.8742 584.349 28.4097 585.813 26.5954 585.813Z" fill="black"/>
</g>
<path d="M15.8828 601.115V595.815H19.2053V596.504H16.6821V598.119H19.0319V598.804H16.6821V600.426H19.2359V601.115H15.8828ZM20.8214 597.14L21.6987 598.688L22.5839 597.14H23.4299L22.1905 599.128L23.4401 601.115H22.5942L21.6987 599.63L20.8061 601.115H19.9573L21.1945 599.128L19.9726 597.14H20.8214ZM24.2241 602.605V597.14H24.9797V597.785H25.0445C25.089 597.702 25.1538 597.606 25.2383 597.498C25.3228 597.389 25.4402 597.294 25.5903 597.213C25.7404 597.13 25.9386 597.088 26.1856 597.088C26.5062 597.088 26.7925 597.17 27.0446 597.332C27.296 597.494 27.4934 597.728 27.637 598.033C27.782 598.339 27.8541 598.706 27.8541 599.135C27.8541 599.565 27.7827 599.933 27.6392 600.24C27.4964 600.546 27.2996 600.781 27.0497 600.946C26.7998 601.11 26.5141 601.193 26.1928 601.193C25.9516 601.193 25.7542 601.152 25.6005 601.071C25.4489 600.989 25.3301 600.895 25.2434 600.786C25.1575 600.678 25.0911 600.581 25.0445 600.496H24.9979V602.605H24.2241ZM24.9818 599.128C24.9818 599.407 25.0226 599.652 25.1035 599.862C25.1851 600.073 25.3025 600.237 25.4555 600.357C25.6092 600.474 25.7972 600.533 26.0194 600.533C26.2511 600.533 26.4442 600.471 26.5994 600.349C26.7546 600.224 26.8719 600.057 26.9513 599.844C27.0322 599.632 27.073 599.393 27.073 599.128C27.073 598.865 27.0329 598.63 26.9535 598.421C26.8763 598.213 26.759 598.048 26.6016 597.927C26.4464 597.806 26.2526 597.746 26.0194 597.746C25.7957 597.746 25.6056 597.804 25.4504 597.919C25.2973 598.035 25.1808 598.196 25.1013 598.403C25.0219 598.61 24.9818 598.852 24.9818 599.128ZM29.495 595.815V601.115H28.7212V595.815H29.495ZM32.2098 601.195C31.8367 601.195 31.5118 601.11 31.2342 600.939C30.9566 600.768 30.7409 600.529 30.5871 600.222C30.4334 599.915 30.3569 599.556 30.3569 599.146C30.3569 598.734 30.4334 598.373 30.5871 598.064C30.7409 597.755 30.9566 597.515 31.2342 597.345C31.5118 597.174 31.8367 597.088 32.2098 597.088C32.5821 597.088 32.9071 597.174 33.1847 597.345C33.463 597.515 33.6787 597.755 33.8317 598.064C33.9855 598.373 34.062 598.734 34.062 599.146C34.062 599.556 33.9855 599.915 33.8317 600.222C33.6787 600.529 33.463 600.768 33.1847 600.939C32.9071 601.11 32.5821 601.195 32.2098 601.195ZM32.212 600.546C32.4539 600.546 32.6535 600.482 32.8124 600.354C32.9712 600.227 33.0885 600.057 33.1643 599.844C33.2423 599.632 33.2809 599.398 33.2809 599.143C33.2809 598.89 33.2423 598.656 33.1643 598.444C33.0885 598.231 32.9712 598.059 32.8124 597.93C32.6535 597.8 32.4539 597.735 32.212 597.735C31.9686 597.735 31.7668 597.8 31.6065 597.93C31.4477 598.059 31.3296 598.231 31.2524 598.444C31.1766 598.656 31.1387 598.89 31.1387 599.143C31.1387 599.398 31.1766 599.632 31.2524 599.844C31.3296 600.057 31.4477 600.227 31.6065 600.354C31.7668 600.482 31.9686 600.546 32.212 600.546ZM34.9254 601.115V597.14H35.6737V597.772H35.7152C35.7874 597.558 35.9149 597.39 36.0978 597.267C36.2821 597.143 36.4912 597.081 36.7244 597.081C36.7725 597.081 36.8293 597.083 36.8949 597.086C36.9619 597.09 37.0144 597.094 37.053 597.099V597.839C37.0216 597.83 36.9662 597.821 36.8868 597.81C36.8074 597.799 36.728 597.792 36.6493 597.792C36.4664 597.792 36.3032 597.832 36.1597 597.909C36.0183 597.985 35.9061 598.091 35.8238 598.227C35.7407 598.362 35.6992 598.515 35.6992 598.688V601.115H34.9254ZM39.2927 601.195C38.9015 601.195 38.5641 601.111 38.2807 600.944C38.0002 600.775 37.7823 600.538 37.6293 600.232C37.477 599.926 37.4012 599.566 37.4012 599.153C37.4012 598.747 37.477 598.387 37.6293 598.077C37.7823 597.767 37.9966 597.524 38.2705 597.35C38.5467 597.176 38.8694 597.088 39.2381 597.088C39.4625 597.088 39.6796 597.126 39.8902 597.2C40.1008 597.274 40.2895 597.391 40.4571 597.55C40.6247 597.708 40.7565 597.914 40.8527 598.167C40.9496 598.42 40.9977 598.726 40.9977 599.086V599.36H37.8384V598.781H40.24C40.24 598.578 40.1984 598.397 40.1154 598.24C40.033 598.081 39.9165 597.956 39.7664 597.865C39.6177 597.773 39.4436 597.728 39.2432 597.728C39.0261 597.728 38.8366 597.781 38.6741 597.888C38.5138 597.993 38.39 598.132 38.3018 598.302C38.2151 598.471 38.1721 598.655 38.1721 598.853V599.306C38.1721 599.571 38.2187 599.797 38.312 599.984C38.4067 600.17 38.5386 600.313 38.7077 600.411C38.8767 600.508 39.0742 600.556 39.3008 600.556C39.4472 600.556 39.5806 600.535 39.7015 600.494C39.8225 600.451 39.9267 600.387 40.0148 600.302C40.1023 600.218 40.17 600.114 40.2166 599.989L40.9489 600.121C40.8899 600.337 40.785 600.526 40.6327 600.688C40.4826 600.848 40.2939 600.973 40.0665 601.063C39.8407 601.151 39.5827 601.195 39.2927 601.195Z" fill="black"/>
<path d="M82.341 588.681C83.1964 589.174 84.1924 589.457 85.2489 589.457C88.4694 589.457 91.0779 586.847 91.0779 583.628C91.0779 580.409 88.4694 577.799 85.2489 577.799C82.0299 577.799 79.4199 580.409 79.4199 583.628C79.4199 584.687 79.7026 585.68 80.1959 586.536L80.1981 586.539C80.2454 586.622 80.2695 586.663 80.2804 586.702C80.2906 586.739 80.2935 586.773 80.2906 586.811C80.2877 586.852 80.2739 586.895 80.2454 586.98L79.7478 588.474L79.7471 588.476C79.6421 588.791 79.5897 588.948 79.6268 589.054C79.6596 589.145 79.7318 589.217 79.8236 589.25C79.9285 589.288 80.0852 589.235 80.3992 589.13L80.4028 589.129L81.8965 588.631C81.9818 588.603 82.0248 588.588 82.0663 588.585C82.1042 588.583 82.1377 588.586 82.1741 588.596C82.2135 588.607 82.255 588.631 82.3381 588.679L82.341 588.681Z" stroke="#BDBDBD" stroke-width="1.45725" stroke-linecap="round" stroke-linejoin="round"/>
<path d="M79.6671 597.538H78.8605C78.8292 597.367 78.7716 597.214 78.6871 597.083C78.6026 596.952 78.4991 596.841 78.376 596.749C78.2536 596.658 78.1166 596.589 77.965 596.542C77.8149 596.496 77.6554 596.473 77.4863 596.473C77.181 596.473 76.9078 596.55 76.6659 596.703C76.4261 596.857 76.2367 597.082 76.0968 597.378C75.9591 597.675 75.8899 598.038 75.8899 598.465C75.8899 598.896 75.9591 599.26 76.0968 599.557C76.2367 599.853 76.4269 600.078 76.6688 600.23C76.91 600.382 77.1817 600.457 77.4834 600.457C77.651 600.457 77.8098 600.435 77.9599 600.39C78.1115 600.344 78.2485 600.275 78.3709 600.186C78.4933 600.096 78.5975 599.987 78.682 599.857C78.768 599.726 78.8277 599.576 78.8605 599.407L79.6671 599.41C79.6241 599.67 79.5403 599.909 79.4164 600.129C79.294 600.346 79.1359 600.534 78.9428 600.693C78.7512 600.85 78.5326 600.972 78.2856 601.058C78.0393 601.144 77.7698 601.187 77.4783 601.187C77.0193 601.187 76.6105 601.078 76.252 600.861C75.8935 600.642 75.6101 600.329 75.4032 599.922C75.1977 599.515 75.0957 599.029 75.0957 598.465C75.0957 597.899 75.1992 597.414 75.4061 597.008C75.613 596.601 75.8957 596.289 76.2549 596.072C76.6134 595.852 77.0215 595.743 77.4783 595.743C77.7596 595.743 78.0218 595.783 78.2652 595.865C78.51 595.944 78.7301 596.062 78.9246 596.217C79.1199 596.37 79.2809 596.558 79.4084 596.781C79.5367 597.002 79.6226 597.254 79.6671 597.538ZM81.3357 598.755V601.115H80.5618V595.815H81.3254V597.787H81.3743C81.4675 597.573 81.6103 597.403 81.8012 597.278C81.9929 597.152 82.2428 597.088 82.5517 597.088C82.8242 597.088 83.0625 597.144 83.2658 597.257C83.4712 597.369 83.6301 597.536 83.7423 597.759C83.8574 597.979 83.9157 598.255 83.9157 598.587V601.115H83.139V598.68C83.139 598.388 83.0639 598.162 82.9138 598.002C82.7637 597.839 82.5553 597.759 82.2879 597.759C82.105 597.759 81.9411 597.797 81.7961 597.875C81.6533 597.953 81.5404 598.067 81.4573 598.217C81.3765 598.365 81.3357 598.545 81.3357 598.755ZM86.1016 601.203C85.8465 601.203 85.6207 601.156 85.4166 601.063C85.2126 600.968 85.0524 600.831 84.9358 600.651C84.8192 600.472 84.7609 600.252 84.7609 599.992C84.7609 599.767 84.8046 599.583 84.8848 599.438C84.9722 599.293 85.0888 599.179 85.2345 599.094C85.3875 599.01 85.5478 598.945 85.7299 598.902C85.9121 598.859 86.0943 598.827 86.2837 598.804C86.5242 598.776 86.7136 598.754 86.8593 598.737C87.0124 598.717 87.1216 598.688 87.1872 598.646C87.2528 598.604 87.2892 598.537 87.2892 598.444V598.426C87.2892 598.2 87.2237 598.025 87.0925 597.901C86.9686 597.777 86.7792 597.715 86.5315 597.715C86.2692 597.715 86.0651 597.772 85.9121 597.888C85.7664 598.002 85.6644 598.129 85.6061 598.269L84.8775 598.102C84.9649 597.861 85.0961 597.667 85.2564 597.518C85.424 597.368 85.6207 597.259 85.832 597.192C86.0506 597.123 86.2837 597.088 86.5242 597.088C86.6772 597.088 86.8448 597.107 87.0269 597.146C87.2018 597.181 87.3694 597.249 87.5297 597.348C87.6827 597.445 87.8138 597.586 87.9158 597.769C88.0105 597.95 88.0616 598.186 88.0616 598.476V601.115H87.3111V600.571H87.2747C87.2237 600.672 87.1508 600.77 87.0488 600.866C86.954 600.963 86.8229 601.043 86.6626 601.107C86.5096 601.171 86.3201 601.203 86.1016 601.203ZM86.2692 600.581C86.4805 600.581 86.6699 600.539 86.8156 600.454C86.9686 600.37 87.0852 600.26 87.1654 600.124C87.2455 599.986 87.2892 599.838 87.2892 599.681V599.169C87.2601 599.196 87.2091 599.222 87.1289 599.246C87.0488 599.269 86.9614 599.289 86.8593 599.306C86.7646 599.321 86.6626 599.336 86.5679 599.35C86.4732 599.362 86.393 599.372 86.3347 599.381C86.1817 599.4 86.0433 599.432 85.9194 599.477C85.7955 599.522 85.7008 599.586 85.628 599.67C85.5551 599.754 85.5187 599.864 85.5187 600.002C85.5187 600.194 85.5842 600.339 85.7299 600.437C85.8684 600.533 86.0506 600.581 86.2692 600.581ZM90.9469 597.14V597.761H88.7756V597.14H90.9469ZM89.3585 596.188H90.1309V599.947C90.1309 600.097 90.1527 600.21 90.2037 600.287C90.2474 600.36 90.3057 600.411 90.3713 600.439C90.4442 600.465 90.5243 600.478 90.6117 600.478C90.67 600.478 90.7283 600.474 90.7721 600.465C90.8158 600.457 90.8522 600.449 90.8813 600.444L91.0198 601.083C90.976 601.101 90.9105 601.118 90.8303 601.135C90.7502 601.154 90.6409 601.165 90.517 601.166C90.313 601.17 90.1236 601.134 89.9487 601.058C89.7738 600.982 89.6281 600.865 89.5261 600.706C89.4168 600.547 89.3585 600.348 89.3585 600.108V596.188ZM94.7212 598.11L94.0144 598.235C93.9853 598.145 93.9416 598.059 93.876 597.979C93.8177 597.898 93.7302 597.831 93.621 597.78C93.5189 597.728 93.3805 597.702 93.2202 597.702C93.0016 597.702 92.8195 597.751 92.6738 597.849C92.528 597.946 92.4552 598.071 92.4552 598.224C92.4552 598.357 92.5062 598.464 92.6009 598.545C92.7029 598.626 92.8559 598.693 93.0818 598.744L93.7084 598.889C94.0727 598.974 94.3496 599.104 94.5244 599.28C94.7066 599.456 94.794 599.684 94.794 599.966C94.794 600.204 94.7285 600.416 94.59 600.602C94.4516 600.787 94.2622 600.932 94.0144 601.037C93.774 601.142 93.4898 601.195 93.1692 601.195C92.7247 601.195 92.3604 601.1 92.0836 600.91C91.7994 600.719 91.6318 600.447 91.5662 600.095L92.3094 599.982C92.3604 600.176 92.4552 600.324 92.6009 600.424C92.7466 600.522 92.9361 600.571 93.1692 600.571C93.4169 600.571 93.621 600.519 93.774 600.414C93.927 600.307 93.9999 600.176 93.9999 600.022C93.9999 599.898 93.9561 599.794 93.8614 599.71C93.774 599.625 93.6282 599.561 93.4388 599.518L92.7685 599.371C92.3969 599.286 92.12 599.152 91.9451 598.967C91.7703 598.782 91.6828 598.548 91.6828 598.266C91.6828 598.031 91.7484 597.826 91.8795 597.65C92.0107 597.474 92.1929 597.337 92.4188 597.238C92.6519 597.138 92.9142 597.088 93.2129 597.088C93.6428 597.088 93.9853 597.181 94.233 597.368C94.4735 597.552 94.641 597.8 94.7212 598.11Z" fill="#BDBDBD"/>
<mask id="mask3_783_1727" style="mask-type:luminance" maskUnits="userSpaceOnUse" x="133" y="575" width="18" height="19">
<path d="M150.825 575.613H133.338V593.1H150.825V575.613Z" fill="white"/>
</mask>
<g mask="url(#mask3_783_1727)">
<path d="M145.36 577.798C144.092 577.798 142.875 578.389 142.081 579.321C141.287 578.389 140.07 577.798 138.802 577.798C136.558 577.798 134.795 579.562 134.795 581.806C134.795 584.56 137.272 586.804 141.025 590.214L142.081 591.169L143.138 590.207C146.89 586.804 149.367 584.56 149.367 581.806C149.367 579.562 147.604 577.798 145.36 577.798ZM142.154 589.128L142.081 589.201L142.008 589.128C138.54 585.988 136.252 583.911 136.252 581.806C136.252 580.349 137.345 579.256 138.802 579.256C139.924 579.256 141.017 579.977 141.404 580.975H142.766C143.145 579.977 144.238 579.256 145.36 579.256C146.817 579.256 147.91 580.349 147.91 581.806C147.91 583.911 145.622 585.988 142.154 589.128Z" fill="#BDBDBD"/>
</g>
<path d="M133.557 601.114V595.815H134.358V600.426H136.755V601.114H133.557ZM137.608 601.114V597.14H138.38V601.114H137.608ZM137.994 596.527C137.863 596.527 137.746 596.482 137.652 596.392C137.557 596.301 137.506 596.193 137.506 596.066C137.506 595.939 137.557 595.83 137.652 595.74C137.746 595.649 137.863 595.603 137.994 595.603C138.132 595.603 138.249 595.649 138.344 595.74C138.438 595.83 138.489 595.939 138.489 596.066C138.489 596.193 138.438 596.301 138.344 596.392C138.249 596.482 138.132 596.527 137.994 596.527ZM140.136 599.766L140.129 598.822H140.26L141.848 597.14H142.774L140.967 599.055H140.843L140.136 599.766ZM139.422 601.114V595.815H140.194V601.114H139.422ZM141.929 601.114L140.508 599.226L141.04 598.684L142.883 601.114H141.929ZM145.025 601.194C144.632 601.194 144.297 601.111 144.012 600.944C143.735 600.775 143.517 600.537 143.364 600.232C143.211 599.925 143.138 599.565 143.138 599.153C143.138 598.746 143.211 598.387 143.364 598.077C143.517 597.766 143.728 597.524 144.005 597.35C144.282 597.175 144.603 597.088 144.974 597.088C145.193 597.088 145.411 597.125 145.623 597.199C145.834 597.274 146.023 597.39 146.191 597.549C146.359 597.707 146.49 597.914 146.584 598.167C146.686 598.419 146.73 598.725 146.73 599.086V599.36H143.575V598.781H145.972C145.972 598.577 145.929 598.397 145.849 598.24C145.768 598.081 145.652 597.956 145.499 597.865C145.353 597.773 145.178 597.728 144.974 597.728C144.763 597.728 144.573 597.781 144.406 597.888C144.245 597.993 144.122 598.131 144.034 598.302C143.947 598.471 143.903 598.655 143.903 598.853V599.306C143.903 599.571 143.954 599.797 144.049 599.984C144.143 600.17 144.275 600.312 144.442 600.411C144.61 600.507 144.807 600.555 145.032 600.555C145.178 600.555 145.317 600.535 145.433 600.494C145.557 600.451 145.659 600.386 145.747 600.302C145.834 600.217 145.907 600.113 145.951 599.989L146.679 600.121C146.621 600.336 146.519 600.526 146.366 600.687C146.213 600.848 146.031 600.973 145.797 601.063C145.572 601.151 145.317 601.194 145.025 601.194ZM150.57 598.11L149.863 598.235C149.834 598.144 149.79 598.059 149.725 597.978C149.666 597.897 149.579 597.831 149.47 597.779C149.368 597.728 149.229 597.701 149.069 597.701C148.85 597.701 148.668 597.751 148.523 597.849C148.377 597.946 148.304 598.071 148.304 598.224C148.304 598.357 148.355 598.464 148.45 598.545C148.552 598.626 148.705 598.692 148.931 598.744L149.557 598.889C149.922 598.974 150.198 599.104 150.373 599.28C150.555 599.456 150.643 599.684 150.643 599.965C150.643 600.204 150.577 600.416 150.439 600.602C150.3 600.786 150.111 600.931 149.863 601.036C149.623 601.142 149.339 601.194 149.018 601.194C148.574 601.194 148.209 601.1 147.932 600.91C147.648 600.719 147.481 600.447 147.415 600.095L148.158 599.981C148.209 600.176 148.304 600.324 148.45 600.424C148.595 600.522 148.785 600.571 149.018 600.571C149.266 600.571 149.47 600.518 149.623 600.413C149.776 600.306 149.849 600.176 149.849 600.022C149.849 599.898 149.805 599.794 149.71 599.71C149.623 599.625 149.477 599.561 149.288 599.518L148.617 599.371C148.246 599.286 147.969 599.151 147.794 598.967C147.619 598.782 147.532 598.548 147.532 598.265C147.532 598.031 147.597 597.826 147.728 597.65C147.859 597.474 148.042 597.336 148.268 597.238C148.501 597.138 148.763 597.088 149.062 597.088C149.492 597.088 149.834 597.181 150.082 597.368C150.322 597.552 150.49 597.8 150.57 598.11Z" fill="#BDBDBD"/>
<path d="M194.543 580.859V587.77C194.543 588.762 194.543 589.258 194.689 589.561C194.966 590.123 195.57 590.447 196.19 590.364C196.525 590.319 196.94 590.045 197.764 589.495V589.493C198.091 589.275 198.259 589.166 198.427 589.106C198.74 588.995 199.082 588.995 199.403 589.106C199.571 589.166 199.738 589.275 200.066 589.495C200.889 590.045 201.305 590.319 201.64 590.364C202.259 590.447 202.864 590.123 203.141 589.561C203.286 589.258 203.286 588.762 203.286 587.77V580.857C203.286 580.042 203.286 579.634 203.126 579.323C202.988 579.048 202.762 578.826 202.492 578.686C202.179 578.527 201.771 578.527 200.955 578.527H196.875C196.058 578.527 195.65 578.527 195.337 578.686C195.068 578.826 194.842 579.048 194.703 579.323C194.543 579.635 194.543 580.043 194.543 580.859Z" stroke="#BDBDBD" stroke-width="1.45725" stroke-linecap="round" stroke-linejoin="round"/>
<path d="M191.459 597.208C191.43 596.963 191.314 596.773 191.117 596.639C190.913 596.502 190.665 596.434 190.359 596.434C190.141 596.434 189.951 596.468 189.798 596.537C189.638 596.604 189.514 596.698 189.427 596.817C189.339 596.934 189.295 597.068 189.295 597.218C189.295 597.344 189.325 597.453 189.383 597.544C189.441 597.635 189.521 597.712 189.616 597.774C189.718 597.834 189.82 597.885 189.937 597.927C190.046 597.966 190.155 597.999 190.257 598.025L190.774 598.16C190.942 598.201 191.117 598.257 191.299 598.328C191.474 598.398 191.642 598.492 191.787 598.607C191.94 598.723 192.064 598.866 192.159 599.037C192.254 599.208 192.297 599.412 192.297 599.65C192.297 599.95 192.224 600.217 192.064 600.449C191.911 600.682 191.693 600.866 191.394 601.001C191.102 601.135 190.753 601.203 190.337 601.203C189.944 601.203 189.601 601.139 189.31 601.014C189.018 600.888 188.793 600.709 188.625 600.478C188.465 600.245 188.377 599.969 188.355 599.65H189.157C189.172 599.842 189.237 600.001 189.346 600.129C189.456 600.255 189.594 600.349 189.769 600.411C189.937 600.471 190.126 600.501 190.33 600.501C190.556 600.501 190.76 600.466 190.935 600.395C191.117 600.323 191.255 600.223 191.357 600.095C191.459 599.966 191.51 599.815 191.51 599.642C191.51 599.485 191.467 599.357 191.372 599.257C191.285 599.157 191.168 599.074 191.015 599.008C190.862 598.943 190.694 598.885 190.505 598.835L189.878 598.664C189.456 598.548 189.12 598.379 188.865 598.155C188.625 597.93 188.501 597.634 188.501 597.265C188.501 596.959 188.581 596.693 188.749 596.465C188.909 596.237 189.135 596.06 189.419 595.935C189.703 595.807 190.024 595.743 190.374 595.743C190.738 595.743 191.051 595.806 191.328 595.932C191.605 596.058 191.824 596.231 191.977 596.452C192.137 596.671 192.217 596.923 192.224 597.208H191.459ZM194.352 601.203C194.097 601.203 193.871 601.156 193.667 601.063C193.463 600.968 193.303 600.831 193.186 600.651C193.062 600.472 193.004 600.252 193.004 599.992C193.004 599.767 193.048 599.583 193.135 599.438C193.223 599.293 193.339 599.179 193.485 599.094C193.631 599.01 193.798 598.945 193.98 598.902C194.155 598.859 194.345 598.827 194.534 598.804C194.767 598.776 194.964 598.754 195.11 598.737C195.256 598.717 195.365 598.688 195.43 598.646C195.503 598.604 195.532 598.537 195.532 598.444V598.426C195.532 598.2 195.474 598.025 195.343 597.901C195.219 597.777 195.03 597.715 194.782 597.715C194.52 597.715 194.316 597.772 194.163 597.888C194.017 598.002 193.915 598.129 193.857 598.269L193.128 598.102C193.215 597.861 193.339 597.667 193.507 597.518C193.674 597.368 193.864 597.259 194.082 597.192C194.301 597.123 194.527 597.088 194.767 597.088C194.928 597.088 195.095 597.107 195.27 597.146C195.452 597.181 195.62 597.249 195.773 597.348C195.933 597.445 196.064 597.586 196.159 597.769C196.261 597.95 196.312 598.186 196.312 598.476V601.115H195.554V600.571H195.525C195.474 600.672 195.401 600.77 195.299 600.866C195.197 600.963 195.073 601.043 194.913 601.107C194.76 601.171 194.571 601.203 194.352 601.203ZM194.52 600.581C194.731 600.581 194.913 600.539 195.066 600.454C195.219 600.37 195.336 600.26 195.416 600.124C195.496 599.986 195.54 599.838 195.54 599.681V599.169C195.511 599.196 195.46 599.222 195.379 599.246C195.299 599.269 195.212 599.289 195.11 599.306C195.008 599.321 194.913 599.336 194.818 599.35C194.724 599.362 194.644 599.372 194.578 599.381C194.432 599.4 194.294 599.432 194.17 599.477C194.046 599.522 193.951 599.586 193.871 599.67C193.798 599.754 193.762 599.864 193.762 600.002C193.762 600.194 193.835 600.339 193.98 600.437C194.119 600.533 194.301 600.581 194.52 600.581ZM200.596 597.14L199.161 601.115H198.33L196.888 597.14H197.718L198.724 600.199H198.768L199.766 597.14H200.596ZM202.906 601.195C202.513 601.195 202.177 601.111 201.893 600.944C201.609 600.775 201.39 600.538 201.237 600.232C201.092 599.925 201.012 599.566 201.012 599.153C201.012 598.747 201.092 598.387 201.237 598.077C201.39 597.767 201.609 597.524 201.879 597.35C202.156 597.176 202.483 597.088 202.848 597.088C203.074 597.088 203.292 597.125 203.504 597.2C203.715 597.274 203.904 597.391 204.065 597.549C204.232 597.708 204.371 597.914 204.465 598.167C204.56 598.419 204.611 598.725 204.611 599.086V599.36H201.449V598.781H203.853C203.853 598.578 203.81 598.397 203.729 598.24C203.642 598.081 203.525 597.956 203.38 597.865C203.227 597.773 203.052 597.728 202.855 597.728C202.637 597.728 202.447 597.781 202.287 597.888C202.126 597.993 202.003 598.132 201.915 598.302C201.828 598.471 201.784 598.655 201.784 598.853V599.306C201.784 599.571 201.828 599.797 201.922 599.984C202.017 600.17 202.148 600.312 202.316 600.411C202.491 600.508 202.687 600.556 202.913 600.556C203.059 600.556 203.19 600.535 203.314 600.494C203.431 600.451 203.54 600.387 203.627 600.302C203.715 600.218 203.78 600.113 203.824 599.989L204.56 600.121C204.502 600.336 204.392 600.526 204.247 600.688C204.094 600.848 203.904 600.973 203.678 601.063C203.453 601.151 203.19 601.195 202.906 601.195ZM206.957 601.193C206.637 601.193 206.345 601.11 206.097 600.946C205.842 600.781 205.646 600.546 205.507 600.24C205.362 599.933 205.296 599.565 205.296 599.135C205.296 598.706 205.369 598.339 205.507 598.033C205.653 597.728 205.85 597.494 206.105 597.332C206.352 597.17 206.644 597.088 206.957 597.088C207.205 597.088 207.402 597.13 207.555 597.213C207.708 597.294 207.824 597.388 207.904 597.498C207.992 597.606 208.057 597.702 208.101 597.785H208.152V595.815H208.925V601.115H208.167V600.496H208.101C208.057 600.581 207.992 600.677 207.904 600.786C207.817 600.895 207.693 600.989 207.547 601.071C207.394 601.152 207.198 601.193 206.957 601.193ZM207.125 600.532C207.351 600.532 207.533 600.474 207.693 600.357C207.846 600.237 207.963 600.073 208.043 599.862C208.123 599.652 208.167 599.407 208.167 599.128C208.167 598.851 208.123 598.61 208.043 598.403C207.963 598.196 207.846 598.035 207.693 597.919C207.54 597.804 207.351 597.745 207.125 597.745C206.892 597.745 206.702 597.806 206.542 597.927C206.389 598.048 206.272 598.212 206.192 598.421C206.112 598.63 206.076 598.865 206.076 599.128C206.076 599.393 206.112 599.632 206.192 599.844C206.272 600.057 206.389 600.224 206.549 600.349C206.702 600.471 206.899 600.532 207.125 600.532Z" fill="#BDBDBD"/>
<path d="M260.847 590.914C260.847 588.097 258.567 585.814 255.747 585.814C252.927 585.814 250.646 588.097 250.646 590.914M255.747 583.628C254.137 583.628 252.832 582.323 252.832 580.713C252.832 579.104 254.137 577.799 255.747 577.799C257.357 577.799 258.661 579.104 258.661 580.713C258.661 582.323 257.357 583.628 255.747 583.628Z" stroke="#BDBDBD" stroke-width="1.45725" stroke-linecap="round" stroke-linejoin="round"/>
<path d="M245.035 601.115V595.815H246.922C247.338 595.815 247.68 595.89 247.95 596.041C248.219 596.191 248.423 596.396 248.554 596.656C248.693 596.916 248.758 597.207 248.758 597.531C248.758 597.857 248.693 598.151 248.554 598.411C248.416 598.669 248.212 598.875 247.942 599.026C247.673 599.176 247.33 599.252 246.922 599.252H245.625V598.574H246.849C247.112 598.574 247.323 598.529 247.483 598.439C247.644 598.348 247.76 598.223 247.84 598.067C247.913 597.909 247.95 597.731 247.95 597.531C247.95 597.331 247.913 597.153 247.84 596.998C247.76 596.843 247.644 596.721 247.476 596.633C247.316 596.545 247.104 596.501 246.835 596.501H245.837V601.115H245.035ZM249.633 601.115V597.14H250.383V597.772H250.42C250.492 597.557 250.624 597.39 250.806 597.267C250.988 597.143 251.199 597.081 251.432 597.081C251.476 597.081 251.534 597.082 251.6 597.086C251.673 597.09 251.724 597.094 251.76 597.099V597.839C251.731 597.83 251.673 597.821 251.593 597.81C251.513 597.799 251.432 597.792 251.36 597.792C251.17 597.792 251.01 597.831 250.864 597.909C250.726 597.984 250.616 598.091 250.529 598.227C250.449 598.362 250.405 598.515 250.405 598.688V601.115H249.633ZM253.961 601.195C253.589 601.195 253.261 601.11 252.984 600.939C252.708 600.768 252.489 600.529 252.336 600.222C252.183 599.915 252.11 599.556 252.11 599.146C252.11 598.733 252.183 598.373 252.336 598.064C252.489 597.755 252.708 597.515 252.984 597.345C253.261 597.174 253.589 597.088 253.961 597.088C254.332 597.088 254.66 597.174 254.937 597.345C255.214 597.515 255.433 597.755 255.586 598.064C255.739 598.373 255.811 598.733 255.811 599.146C255.811 599.556 255.739 599.915 255.586 600.222C255.433 600.529 255.214 600.768 254.937 600.939C254.66 601.11 254.332 601.195 253.961 601.195ZM253.961 600.546C254.209 600.546 254.405 600.481 254.566 600.354C254.726 600.226 254.842 600.057 254.915 599.844C254.995 599.632 255.032 599.398 255.032 599.143C255.032 598.889 254.995 598.656 254.915 598.444C254.842 598.231 254.726 598.059 254.566 597.93C254.405 597.8 254.209 597.735 253.961 597.735C253.72 597.735 253.516 597.8 253.356 597.93C253.203 598.059 253.079 598.231 253.006 598.444C252.926 598.656 252.89 598.889 252.89 599.143C252.89 599.398 252.926 599.632 253.006 599.844C253.079 600.057 253.203 600.226 253.356 600.354C253.516 600.481 253.72 600.546 253.961 600.546ZM258.566 597.14V597.762H256.322V597.14H258.566ZM256.941 601.115V596.68C256.941 596.431 256.992 596.226 257.101 596.062C257.21 595.896 257.356 595.772 257.531 595.692C257.713 595.608 257.91 595.567 258.121 595.567C258.274 595.567 258.405 595.58 258.515 595.606C258.624 595.63 258.711 595.653 258.762 595.673L258.58 596.299C258.544 596.289 258.5 596.277 258.442 596.263C258.383 596.247 258.318 596.24 258.238 596.24C258.048 596.24 257.91 596.287 257.83 596.379C257.75 596.473 257.713 596.607 257.713 596.783V601.115H256.941ZM259.367 601.115V597.14H260.14V601.115H259.367ZM259.761 596.527C259.622 596.527 259.506 596.482 259.411 596.392C259.316 596.301 259.265 596.193 259.265 596.067C259.265 595.939 259.316 595.83 259.411 595.74C259.506 595.649 259.622 595.603 259.761 595.603C259.892 595.603 260.008 595.649 260.103 595.74C260.198 595.83 260.249 595.939 260.249 596.067C260.249 596.193 260.198 596.301 260.103 596.392C260.008 596.482 259.892 596.527 259.761 596.527ZM261.954 595.815V601.115H261.181V595.815H261.954ZM264.708 601.195C264.315 601.195 263.979 601.111 263.695 600.944C263.418 600.775 263.2 600.538 263.047 600.232C262.894 599.926 262.821 599.566 262.821 599.153C262.821 598.747 262.894 598.387 263.047 598.077C263.2 597.767 263.411 597.524 263.688 597.35C263.965 597.176 264.285 597.088 264.657 597.088C264.876 597.088 265.094 597.125 265.305 597.2C265.517 597.274 265.706 597.391 265.874 597.549C266.041 597.708 266.172 597.914 266.267 598.167C266.362 598.419 266.413 598.725 266.413 599.086V599.36H263.258V598.781H265.655C265.655 598.578 265.611 598.397 265.531 598.24C265.451 598.081 265.335 597.956 265.182 597.865C265.036 597.773 264.861 597.728 264.657 597.728C264.446 597.728 264.249 597.781 264.089 597.888C263.928 597.993 263.804 598.132 263.717 598.302C263.63 598.471 263.586 598.655 263.586 598.853V599.306C263.586 599.571 263.637 599.797 263.732 599.984C263.826 600.17 263.957 600.312 264.125 600.411C264.293 600.508 264.489 600.556 264.715 600.556C264.861 600.556 264.999 600.535 265.116 600.494C265.24 600.451 265.342 600.387 265.429 600.302C265.517 600.218 265.582 600.114 265.633 599.989L266.362 600.121C266.304 600.336 266.202 600.526 266.049 600.688C265.896 600.848 265.713 600.973 265.48 601.063C265.254 601.151 264.999 601.195 264.708 601.195Z" fill="#BDBDBD"/>
</g>
</svg>
