<svg width="285" height="616" viewBox="0 0 285 616" fill="none" xmlns="http://www.w3.org/2000/svg">
<mask id="mask0_783_2371" style="mask-type:luminance" maskUnits="userSpaceOnUse" x="0" y="0" width="285" height="616">
<path d="M281.319 0H2.91522C1.30519 0 0 1.30519 0 2.91522V612.196C0 613.806 1.30519 615.111 2.91522 615.111H281.319C282.929 615.111 284.234 613.806 284.234 612.196V2.91522C284.234 1.30519 282.929 0 281.319 0Z" fill="white"/>
</mask>
<g mask="url(#mask0_783_2371)">
<path d="M281.319 0H2.91522C1.30519 0 0 1.30519 0 2.91522V612.196C0 613.806 1.30519 615.111 2.91522 615.111H281.319C282.929 615.111 284.234 613.806 284.234 612.196V2.91522C284.234 1.30519 282.929 0 281.319 0Z" fill="#FCFCFC"/>
<path d="M271.843 121.71H11.6602V554.62H271.843V121.71Z" fill="#D9D9D9"/>
<path d="M22.3457 494.1C22.3457 493.09 22.5643 492.191 23.0016 491.404C23.4389 490.607 24.046 489.99 24.8236 489.553C25.6107 489.106 26.4999 488.882 27.4911 488.882C28.706 488.882 29.7453 489.203 30.6103 489.844C31.4754 490.485 32.0534 491.36 32.3449 492.468H29.6046C29.4005 492.04 29.109 491.715 28.73 491.491C28.3605 491.267 27.9378 491.156 27.4619 491.156C26.6945 491.156 26.0721 491.423 25.5962 491.958C25.1203 492.492 24.8819 493.206 24.8819 494.1C24.8819 494.995 25.1203 495.709 25.5962 496.243C26.0721 496.777 26.6945 497.045 27.4619 497.045C27.9378 497.045 28.3605 496.933 28.73 496.709C29.109 496.486 29.4005 496.161 29.6046 495.733H32.3449C32.0534 496.841 31.4754 497.715 30.6103 498.357C29.7453 498.988 28.706 499.304 27.4911 499.304C26.4999 499.304 25.6107 499.085 24.8236 498.648C24.046 498.201 23.4389 497.584 23.0016 496.797C22.5643 496.01 22.3457 495.111 22.3457 494.1ZM38.8706 491.01C39.8035 491.01 40.552 491.321 41.1153 491.943C41.6794 492.555 41.9607 493.401 41.9607 494.479V499.231H39.4828V494.815C39.4828 494.27 39.3421 493.847 39.0601 493.546C38.7788 493.245 38.3998 493.095 37.9232 493.095C37.4473 493.095 37.0683 493.245 36.7862 493.546C36.5049 493.847 36.3635 494.27 36.3635 494.815V499.231H33.871V488.445H36.3635V492.191C36.6164 491.832 36.9611 491.544 37.3984 491.331C37.8357 491.117 38.3269 491.01 38.8706 491.01ZM43.1975 495.15C43.1975 494.314 43.3528 493.581 43.664 492.949C43.9846 492.317 44.4168 491.832 44.9612 491.491C45.5056 491.151 46.1127 490.981 46.7832 490.981C47.3568 490.981 47.8568 491.098 48.2846 491.331C48.7219 491.564 49.0571 491.87 49.2903 492.249V491.098H51.7828V499.231H49.2903V498.08C49.0476 498.459 48.7073 498.765 48.27 498.998C47.8422 499.231 47.3422 499.348 46.7687 499.348C46.1076 499.348 45.5056 499.178 44.9612 498.838C44.4168 498.488 43.9846 497.997 43.664 497.365C43.3528 496.724 43.1975 495.986 43.1975 495.15ZM49.2903 495.164C49.2903 494.543 49.1154 494.052 48.7656 493.692C48.4252 493.333 48.0076 493.153 47.512 493.153C47.0165 493.153 46.5938 493.333 46.2439 493.692C45.9036 494.042 45.7338 494.528 45.7338 495.15C45.7338 495.772 45.9036 496.267 46.2439 496.637C46.5938 496.996 47.0165 497.176 47.512 497.176C48.0076 497.176 48.4252 496.996 48.7656 496.637C49.1154 496.277 49.2903 495.786 49.2903 495.164ZM56.0784 492.453C56.3699 492.006 56.7343 491.657 57.1716 491.404C57.6089 491.141 58.095 491.01 58.6292 491.01V493.649H57.9442C57.3225 493.649 56.8561 493.785 56.5449 494.057C56.2337 494.319 56.0784 494.785 56.0784 495.456V499.231H53.5859V491.098H56.0784V492.453ZM62.3133 488.445V499.231H59.8208V488.445H62.3133ZM65.3729 490.252C64.9356 490.252 64.5763 490.126 64.2942 489.873C64.0224 489.611 63.8861 489.29 63.8861 488.911C63.8861 488.523 64.0224 488.202 64.2942 487.949C64.5763 487.687 64.9356 487.556 65.3729 487.556C65.8007 487.556 66.1505 487.687 66.4223 487.949C66.7044 488.202 66.845 488.523 66.845 488.911C66.845 489.29 66.7044 489.611 66.4223 489.873C66.1505 490.126 65.8007 490.252 65.3729 490.252ZM66.6118 491.098V499.231H64.1193V491.098H66.6118ZM76.0856 495.033C76.0856 495.266 76.071 495.509 76.0418 495.762H70.4009C70.4395 496.267 70.5998 496.656 70.8819 496.928C71.1734 497.19 71.5276 497.322 71.9459 497.322C72.5676 497.322 72.9998 497.059 73.2432 496.535H75.8961C75.7598 497.069 75.512 497.55 75.1527 497.978C74.8029 498.405 74.3605 498.741 73.8263 498.983C73.2913 499.226 72.6937 499.348 72.0334 499.348C71.2361 499.348 70.527 499.178 69.9053 498.838C69.2829 498.497 68.7975 498.012 68.4477 497.38C68.0979 496.748 67.9229 496.01 67.9229 495.164C67.9229 494.319 68.0928 493.581 68.4331 492.949C68.7829 492.317 69.2683 491.832 69.8907 491.491C70.5124 491.151 71.2266 490.981 72.0334 490.981C72.8205 490.981 73.5202 491.146 74.1324 491.477C74.7445 491.807 75.2205 492.278 75.5608 492.891C75.9106 493.503 76.0856 494.217 76.0856 495.033ZM73.5347 494.377C73.5347 493.949 73.389 493.61 73.0975 493.357C72.8059 493.104 72.4415 492.978 72.0042 492.978C71.5859 492.978 71.2317 493.1 70.9402 493.342C70.6581 493.585 70.4832 493.931 70.4155 494.377H73.5347ZM82.3693 500.776H81.0429V487.643H82.3693V500.776ZM87.4848 497.234C87.8149 496.972 87.9658 496.85 87.9366 496.87C88.8885 496.083 89.6369 495.436 90.1814 494.931C90.7353 494.426 91.2017 493.896 91.5807 493.342C91.9596 492.788 92.1491 492.249 92.1491 491.724C92.1491 491.326 92.0566 491.015 91.8722 490.792C91.6871 490.568 91.4101 490.456 91.0413 490.456C90.6718 490.456 90.3803 490.597 90.1668 490.879C89.9627 491.151 89.8607 491.54 89.8607 492.045H87.4556C87.4746 491.219 87.6495 490.529 87.9804 489.975C88.32 489.421 88.7624 489.013 89.3068 488.751C89.8607 488.489 90.4729 488.357 91.1434 488.357C92.2993 488.357 93.1695 488.654 93.7525 489.246C94.345 489.839 94.6416 490.612 94.6416 491.564C94.6416 492.604 94.2867 493.571 93.5776 494.465C92.8677 495.349 91.964 496.214 90.8664 497.059H94.802V499.085H87.4848V497.234ZM101.162 491.462C101.084 491.103 100.947 490.835 100.753 490.66C100.559 490.476 100.282 490.383 99.9226 490.383C99.3687 490.383 98.97 490.626 98.7273 491.112C98.4839 491.588 98.3578 492.346 98.3483 493.386C98.5619 493.046 98.868 492.779 99.2666 492.584C99.6748 492.39 100.122 492.293 100.608 492.293C101.559 492.293 102.323 492.594 102.896 493.197C103.479 493.799 103.771 494.64 103.771 495.718C103.771 496.427 103.625 497.05 103.333 497.584C103.051 498.118 102.634 498.537 102.08 498.838C101.535 499.139 100.889 499.289 100.141 499.289C98.6442 499.289 97.605 498.823 97.0219 497.89C96.4389 496.948 96.1473 495.597 96.1473 493.838C96.1473 491.992 96.4535 490.622 97.0657 489.728C97.6873 488.824 98.6785 488.372 100.039 488.372C100.768 488.372 101.38 488.518 101.876 488.809C102.381 489.091 102.76 489.465 103.013 489.932C103.275 490.398 103.43 490.908 103.479 491.462H101.162ZM100.01 494.261C99.5917 494.261 99.2419 494.387 98.9605 494.64C98.688 494.882 98.5524 495.232 98.5524 495.689C98.5524 496.156 98.6785 496.52 98.9314 496.782C99.1938 497.045 99.5625 497.176 100.039 497.176C100.466 497.176 100.801 497.05 101.045 496.797C101.297 496.535 101.424 496.18 101.424 495.733C101.424 495.276 101.302 494.917 101.059 494.654C100.816 494.392 100.466 494.261 100.01 494.261Z" fill="black"/>
<path d="M30.6094 508.705C27.789 508.705 25.5078 510.986 25.5078 513.807C25.5078 517.633 30.6094 523.281 30.6094 523.281C30.6094 523.281 35.7111 517.633 35.7111 513.807C35.7111 510.986 33.4299 508.705 30.6094 508.705ZM26.9654 513.807C26.9654 511.795 28.5979 510.163 30.6094 510.163C32.6209 510.163 34.2535 511.795 34.2535 513.807C34.2535 515.906 32.1545 519.047 30.6094 521.007C29.0935 519.061 26.9654 515.884 26.9654 513.807Z" fill="black"/>
<path d="M30.6091 515.629C31.6156 515.629 32.4311 514.814 32.4311 513.807C32.4311 512.801 31.6156 511.985 30.6091 511.985C29.6026 511.985 28.7871 512.801 28.7871 513.807C28.7871 514.814 29.6026 515.629 30.6091 515.629Z" fill="#323232"/>
<path d="M48.0463 512.516V513.669H46.1485V519.637H44.7201V513.669H42.8223V512.516H48.0463ZM51.5985 519.729C51.0541 519.729 50.5644 519.61 50.1293 519.372C49.6934 519.127 49.3502 518.784 49.0987 518.342C48.8539 517.899 48.7314 517.389 48.7314 516.811C48.7314 516.233 48.8568 515.723 49.1089 515.281C49.3669 514.838 49.7175 514.499 50.1599 514.26C50.6015 514.015 51.0949 513.893 51.6393 513.893C52.183 513.893 52.6764 514.015 53.1188 514.26C53.5605 514.499 53.9074 514.838 54.1595 515.281C54.4175 515.723 54.5473 516.233 54.5473 516.811C54.5473 517.389 54.4146 517.899 54.1494 518.342C53.8906 518.784 53.5371 519.127 53.0882 519.372C52.6458 519.61 52.1495 519.729 51.5985 519.729ZM51.5985 518.485C51.8565 518.485 52.0985 518.423 52.323 518.301C52.554 518.172 52.7377 517.981 52.8739 517.729C53.0095 517.478 53.078 517.172 53.078 516.811C53.078 516.274 52.9352 515.862 52.6495 515.577C52.3703 515.284 52.0271 515.138 51.6189 515.138C51.2108 515.138 50.8668 515.284 50.5884 515.577C50.3158 515.862 50.1803 516.274 50.1803 516.811C50.1803 517.348 50.3129 517.764 50.5782 518.056C50.85 518.342 51.1904 518.485 51.5985 518.485ZM57.023 514.862C57.2067 514.563 57.445 514.328 57.7372 514.158C58.0368 513.989 58.3771 513.903 58.7576 513.903V515.403H58.3801C57.9311 515.403 57.5915 515.509 57.3597 515.719C57.1353 515.93 57.023 516.297 57.023 516.821V519.637H55.5946V513.985H57.023V514.862ZM62.2303 519.729C61.6859 519.729 61.1962 519.61 60.7611 519.372C60.3252 519.127 59.982 518.784 59.7305 518.342C59.4856 517.899 59.3632 517.389 59.3632 516.811C59.3632 516.233 59.4886 515.723 59.7407 515.281C59.9987 514.838 60.3493 514.499 60.7917 514.26C61.2333 514.015 61.7267 513.893 62.2711 513.893C62.8148 513.893 63.3082 514.015 63.7506 514.26C64.1923 514.499 64.5392 514.838 64.7913 515.281C65.0493 515.723 65.1791 516.233 65.1791 516.811C65.1791 517.389 65.0464 517.899 64.7811 518.342C64.5224 518.784 64.1689 519.127 63.72 519.372C63.2776 519.61 62.7813 519.729 62.2303 519.729ZM62.2303 518.485C62.4883 518.485 62.7303 518.423 62.9548 518.301C63.1858 518.172 63.3695 517.981 63.5057 517.729C63.6413 517.478 63.7098 517.172 63.7098 516.811C63.7098 516.274 63.567 515.862 63.2813 515.577C63.0021 515.284 62.6589 515.138 62.2507 515.138C61.8426 515.138 61.4986 515.284 61.2202 515.577C60.9476 515.862 60.8121 516.274 60.8121 516.811C60.8121 517.348 60.9447 517.764 61.21 518.056C61.4818 518.342 61.8222 518.485 62.2303 518.485ZM69.3588 513.903C70.0322 513.903 70.5766 514.117 70.9913 514.546C71.4067 514.968 71.6137 515.56 71.6137 516.321V519.637H70.1852V516.515C70.1852 516.066 70.073 515.723 69.8485 515.485C69.6241 515.24 69.318 515.117 68.9302 515.117C68.5359 515.117 68.2233 515.24 67.9915 515.485C67.7671 515.723 67.6548 516.066 67.6548 516.515V519.637H66.2264V513.985H67.6548V514.689C67.8458 514.444 68.087 514.254 68.3793 514.118C68.6788 513.975 69.0053 513.903 69.3588 513.903ZM74.6353 515.158V517.893C74.6353 518.083 74.6798 518.223 74.768 518.311C74.8634 518.393 75.0201 518.434 75.2373 518.434H75.9005V519.637H75.0026C73.7986 519.637 73.1967 519.052 73.1967 517.882V515.158H72.5232V513.985H73.1967V512.587H74.6353V513.985H75.9005V515.158H74.6353ZM79.4381 519.729C78.8937 519.729 78.404 519.61 77.9689 519.372C77.5338 519.127 77.1898 518.784 76.9383 518.342C76.6935 517.899 76.571 517.389 76.571 516.811C76.571 516.233 76.6971 515.723 76.9485 515.281C77.2073 514.838 77.5571 514.499 77.9995 514.26C78.4419 514.015 78.9345 513.893 79.4789 513.893C80.0234 513.893 80.516 514.015 80.9584 514.26C81.4008 514.499 81.7477 514.838 81.9992 515.281C82.2579 515.723 82.3869 516.233 82.3869 516.811C82.3869 517.389 82.2542 517.899 81.9889 518.342C81.7302 518.784 81.3768 519.127 80.9278 519.372C80.4854 519.61 79.9891 519.729 79.4381 519.729ZM79.4381 518.485C79.6969 518.485 79.9381 518.423 80.1626 518.301C80.3936 518.172 80.5773 517.981 80.7135 517.729C80.8498 517.478 80.9176 517.172 80.9176 516.811C80.9176 516.274 80.7748 515.862 80.4891 515.577C80.2099 515.284 79.8667 515.138 79.4585 515.138C79.0504 515.138 78.7071 515.284 78.428 515.577C78.1562 515.862 78.0199 516.274 78.0199 516.811C78.0199 517.348 78.1525 517.764 78.4178 518.056C78.6897 518.342 79.03 518.485 79.4381 518.485ZM84.996 518.138L83.8022 521.005H82.8839L83.5471 518.138H84.996ZM91.7622 519.709C91.0961 519.709 90.4839 519.552 89.9256 519.24C89.3681 518.927 88.9257 518.495 88.5992 517.944C88.2727 517.386 88.1095 516.757 88.1095 516.056C88.1095 515.362 88.2727 514.74 88.5992 514.189C88.9257 513.631 89.3681 513.196 89.9256 512.883C90.4839 512.57 91.0961 512.414 91.7622 512.414C92.4356 512.414 93.0478 512.57 93.5988 512.883C94.1571 513.196 94.5958 513.631 94.915 514.189C95.2415 514.74 95.4048 515.362 95.4048 516.056C95.4048 516.757 95.2415 517.386 94.915 517.944C94.5958 518.495 94.1571 518.927 93.5988 519.24C93.0413 519.552 92.4291 519.709 91.7622 519.709ZM91.7622 518.434C92.1908 518.434 92.5683 518.338 92.8948 518.148C93.2213 517.95 93.4764 517.672 93.66 517.311C93.8437 516.95 93.9355 516.532 93.9355 516.056C93.9355 515.58 93.8437 515.165 93.66 514.811C93.4764 514.451 93.2213 514.175 92.8948 513.985C92.5683 513.795 92.1908 513.699 91.7622 513.699C91.3337 513.699 90.9532 513.795 90.6195 513.985C90.2929 514.175 90.0379 514.451 89.8542 514.811C89.6705 515.165 89.5787 515.58 89.5787 516.056C89.5787 516.532 89.6705 516.95 89.8542 517.311C90.0379 517.672 90.2929 517.95 90.6195 518.148C90.9532 518.338 91.3337 518.434 91.7622 518.434ZM102.559 519.637H101.13L97.8958 514.75V519.637H96.4674V512.505H97.8958L101.13 517.403V512.505H102.559V519.637Z" fill="black"/>
<path d="M30.2716 540.508V528.583H31.0361V540.508H30.2716ZM32.4755 532.398C32.4318 531.991 32.2488 531.674 31.926 531.447C31.606 531.221 31.1899 531.107 30.6768 531.107C30.3168 531.107 30.0077 531.162 29.7497 531.27C29.4925 531.379 29.295 531.526 29.1587 531.713C29.0217 531.899 28.9517 532.112 28.9488 532.351C28.9488 532.55 28.994 532.722 29.0836 532.868C29.1769 533.014 29.303 533.138 29.4611 533.241C29.6193 533.34 29.7949 533.424 29.9873 533.492C30.1805 533.561 30.3743 533.619 30.5697 533.664L31.4646 533.888C31.8246 533.972 32.1708 534.086 32.5032 534.229C32.8384 534.371 33.1387 534.551 33.4025 534.769C33.6693 534.987 33.8806 535.249 34.0358 535.556C34.1911 535.863 34.2691 536.224 34.2691 536.637C34.2691 537.196 34.1262 537.688 33.8405 538.114C33.5548 538.536 33.1416 538.867 32.6008 539.106C32.0637 539.342 31.4129 539.46 30.6491 539.46C29.9072 539.46 29.2622 539.345 28.7156 539.115C28.1726 538.886 27.747 538.55 27.4394 538.109C27.1348 537.668 26.9708 537.131 26.9453 536.497H28.6463C28.6711 536.83 28.7731 537.106 28.9532 537.327C29.1339 537.547 29.3679 537.712 29.6572 537.82C29.9487 537.929 30.2752 537.983 30.6352 537.983C31.0113 537.983 31.34 537.927 31.6228 537.816C31.9085 537.701 32.1322 537.542 32.294 537.341C32.4551 537.136 32.5374 536.896 32.5403 536.623C32.5374 536.374 32.4645 536.169 32.3217 536.008C32.1789 535.844 31.9784 535.707 31.7204 535.598C31.4661 535.486 31.168 535.387 30.8262 535.3L29.741 535.021C28.9554 534.819 28.3337 534.513 27.8774 534.102C27.4241 533.69 27.1975 533.141 27.1975 532.458C27.1975 531.896 27.3491 531.404 27.6537 530.982C27.9613 530.559 28.3789 530.232 28.9072 529.999C29.4349 529.762 30.0325 529.644 30.7001 529.644C31.3772 529.644 31.9704 529.762 32.4798 529.999C32.9922 530.232 33.3945 530.556 33.6868 530.972C33.9783 531.385 34.1291 531.861 34.1386 532.398H32.4755Z" fill="black"/>
<path d="M42.6387 531.736V530.42H45.0977V537.858H43.6284V531.736H42.6387ZM46.5086 534.042C46.5086 532.865 46.72 531.944 47.1412 531.277C47.5698 530.61 48.2774 530.277 49.2635 530.277C50.2503 530.277 50.9543 530.61 51.3756 531.277C51.8041 531.944 52.0184 532.865 52.0184 534.042C52.0184 535.225 51.8041 536.154 51.3756 536.827C50.9543 537.501 50.2503 537.837 49.2635 537.837C48.2774 537.837 47.5698 537.501 47.1412 536.827C46.72 536.154 46.5086 535.225 46.5086 534.042ZM50.6103 534.042C50.6103 533.538 50.5768 533.117 50.5083 532.777C50.4471 532.43 50.3181 532.148 50.1206 531.93C49.9304 531.712 49.6447 531.603 49.2635 531.603C48.8831 531.603 48.5937 531.712 48.3962 531.93C48.206 532.148 48.077 532.43 48.0085 532.777C47.9473 533.117 47.9167 533.538 47.9167 534.042C47.9167 534.558 47.9473 534.994 48.0085 535.348C48.0697 535.695 48.1995 535.977 48.3962 536.195C48.5937 536.405 48.8831 536.511 49.2635 536.511C49.6447 536.511 49.934 536.405 50.1308 536.195C50.3283 535.977 50.4573 535.695 50.5185 535.348C50.5797 534.994 50.6103 534.558 50.6103 534.042ZM53.105 534.042C53.105 532.865 53.3157 531.944 53.7376 531.277C54.1662 530.61 54.8738 530.277 55.8599 530.277C56.846 530.277 57.55 530.61 57.972 531.277C58.4005 531.944 58.6148 532.865 58.6148 534.042C58.6148 535.225 58.4005 536.154 57.972 536.827C57.55 537.501 56.846 537.837 55.8599 537.837C54.8738 537.837 54.1662 537.501 53.7376 536.827C53.3157 536.154 53.105 535.225 53.105 534.042ZM57.2067 534.042C57.2067 533.538 57.1725 533.117 57.1047 532.777C57.0435 532.43 56.9145 532.148 56.717 531.93C56.5268 531.712 56.2411 531.603 55.8599 531.603C55.4788 531.603 55.1901 531.712 54.9926 531.93C54.8024 532.148 54.6727 532.43 54.6049 532.777C54.5437 533.117 54.5131 533.538 54.5131 534.042C54.5131 534.558 54.5437 534.994 54.6049 535.348C54.6661 535.695 54.7951 535.977 54.9926 536.195C55.1901 536.405 55.4788 536.511 55.8599 536.511C56.2411 536.511 56.5297 536.405 56.7272 536.195C56.9247 535.977 57.0537 535.695 57.1149 535.348C57.1761 534.994 57.2067 534.558 57.2067 534.042ZM59.7014 534.042C59.7014 532.865 59.9121 531.944 60.334 531.277C60.7626 530.61 61.4695 530.277 62.4563 530.277C63.4424 530.277 64.1464 530.61 64.5684 531.277C64.9969 531.944 65.2112 532.865 65.2112 534.042C65.2112 535.225 64.9969 536.154 64.5684 536.827C64.1464 537.501 63.4424 537.837 62.4563 537.837C61.4695 537.837 60.7626 537.501 60.334 536.827C59.9121 536.154 59.7014 535.225 59.7014 534.042ZM63.8032 534.042C63.8032 533.538 63.7689 533.117 63.7011 532.777C63.6399 532.43 63.5102 532.148 63.3134 531.93C63.1224 531.712 62.8368 531.603 62.4563 531.603C62.0752 531.603 61.7858 531.712 61.589 531.93C61.3981 532.148 61.2691 532.43 61.2013 532.777C61.1401 533.117 61.1095 533.538 61.1095 534.042C61.1095 534.558 61.1401 534.994 61.2013 535.348C61.2625 535.695 61.3915 535.977 61.589 536.195C61.7858 536.405 62.0752 536.511 62.4563 536.511C62.8368 536.511 63.1261 536.405 63.3236 536.195C63.5204 535.977 63.6501 535.695 63.7113 535.348C63.7725 534.994 63.8032 534.558 63.8032 534.042ZM70.2873 528.195L67.5324 539.705H66.1346L68.8895 528.195H70.2873ZM78.4426 532.124C79.1365 532.124 79.6947 532.338 80.116 532.766C80.5445 533.188 80.7588 533.78 80.7588 534.542V537.858H79.3303V534.736C79.3303 534.293 79.2181 533.957 78.9936 533.725C78.7691 533.487 78.4631 533.368 78.0753 533.368C77.6876 533.368 77.3786 533.487 77.1468 533.725C76.9224 533.957 76.8101 534.293 76.8101 534.736V537.858H75.3817V534.736C75.3817 534.293 75.2694 533.957 75.045 533.725C74.8205 533.487 74.5144 533.368 74.1267 533.368C73.7324 533.368 73.4197 533.487 73.188 533.725C72.9635 533.957 72.8513 534.293 72.8513 534.736V537.858H71.4228V532.205H72.8513V532.889C73.0349 532.65 73.2696 532.464 73.5553 532.328C73.8483 532.191 74.1675 532.124 74.5144 532.124C74.9568 532.124 75.3511 532.219 75.698 532.409C76.0449 532.593 76.3138 532.858 76.504 533.205C76.6877 532.879 76.953 532.617 77.2999 532.419C77.6541 532.222 78.0345 532.124 78.4426 532.124Z" fill="black"/>
<path d="M126.174 315.846C126.174 315.734 126.174 315.619 126.174 315.499V298.883C126.174 296.944 126.174 295.974 126.551 295.234C126.883 294.582 127.412 294.053 128.064 293.721C128.804 293.344 129.774 293.344 131.713 293.344H151.791C153.731 293.344 154.699 293.344 155.44 293.721C156.091 294.053 156.621 294.582 156.953 295.234C157.33 295.973 157.33 296.943 157.33 298.878V315.504C157.33 316.344 157.33 317.001 157.3 317.537M126.174 315.846C126.175 317.556 126.197 318.452 126.551 319.147C126.883 319.799 127.412 320.329 128.064 320.662C128.803 321.038 129.773 321.038 131.708 321.038H151.797C153.733 321.038 154.7 321.038 155.44 320.662C156.091 320.329 156.621 319.799 156.953 319.147C157.167 318.728 157.26 318.237 157.3 317.537M126.174 315.846L134.427 306.217L134.429 306.214C135.161 305.361 135.528 304.933 135.962 304.779C136.344 304.644 136.762 304.647 137.142 304.787C137.575 304.948 137.935 305.38 138.657 306.246L143.28 311.794C143.949 312.596 144.285 312.999 144.692 313.161C145.052 313.304 145.449 313.32 145.819 313.21C146.242 313.086 146.615 312.713 147.358 311.97L148.219 311.109C148.976 310.352 149.354 309.974 149.783 309.85C150.16 309.741 150.562 309.764 150.924 309.914C151.336 310.084 151.67 310.501 152.339 311.337L157.3 317.537M157.3 317.537L157.33 317.576M146.945 303.729C145.989 303.729 145.214 302.954 145.214 301.998C145.214 301.042 145.989 300.267 146.945 300.267C147.901 300.267 148.676 301.042 148.676 301.998C148.676 302.954 147.901 303.729 146.945 303.729Z" stroke="#BDBDBD" stroke-width="1.45761" stroke-linecap="round" stroke-linejoin="round"/>
<mask id="mask1_783_2371" style="mask-type:luminance" maskUnits="userSpaceOnUse" x="0" y="0" width="285" height="33">
<path d="M284.234 0H0V32.0674H284.234V0Z" fill="white"/>
</mask>
<g mask="url(#mask1_783_2371)">
<path opacity="0.35" d="M257.755 12.9961H269.901C270.774 12.9961 271.481 13.7038 271.481 14.5754V18.9482C271.481 19.8206 270.774 20.5268 269.901 20.5268H257.755C256.883 20.5268 256.176 19.8206 256.176 18.9482V14.5754L256.184 14.4143C256.265 13.6178 256.937 12.9961 257.755 12.9961Z" fill="black" stroke="black" stroke-width="0.728804"/>
<path opacity="0.4" d="M272.574 15.3047V18.2199C273.161 17.9728 273.542 17.3985 273.542 16.7623C273.542 16.1261 273.161 15.5518 272.574 15.3047Z" fill="black"/>
<path d="M257.268 15.0621C257.268 14.5249 257.703 14.0898 258.239 14.0898H269.415C269.951 14.0898 270.386 14.5249 270.386 15.0621V18.4627C270.386 18.9998 269.951 19.4349 269.415 19.4349H258.239C257.703 19.4349 257.268 18.9998 257.268 18.4627V15.0621Z" fill="black"/>
<path d="M244.967 18.753C245.897 17.9666 247.258 17.9666 248.188 18.753C248.235 18.7953 248.262 18.855 248.263 18.9184C248.264 18.9811 248.24 19.0423 248.195 19.0861L246.739 20.5553C246.696 20.5983 246.638 20.6231 246.578 20.6231C246.517 20.6231 246.459 20.5983 246.416 20.5553L244.96 19.0861C244.915 19.0423 244.89 18.9811 244.892 18.9184C244.893 18.855 244.92 18.7953 244.967 18.753ZM243.025 16.7932C245.027 14.9304 248.129 14.9304 250.132 16.7932C250.177 16.837 250.203 16.8967 250.204 16.9594C250.205 17.0221 250.18 17.0833 250.136 17.1278L249.295 17.9783C249.208 18.065 249.067 18.0672 248.978 17.9827C248.321 17.3865 247.465 17.0571 246.578 17.0571C245.691 17.0578 244.836 17.3872 244.178 17.9827C244.089 18.0665 243.949 18.065 243.862 17.9783L243.021 17.1278C242.977 17.0833 242.953 17.0221 242.953 16.9594C242.953 16.8967 242.979 16.837 243.025 16.7932ZM241.082 14.8386C244.154 11.8949 249.001 11.8949 252.073 14.8386C252.117 14.8823 252.142 14.9421 252.143 15.0048C252.143 15.0667 252.118 15.1265 252.074 15.1709L251.232 16.0214C251.145 16.1089 251.004 16.1096 250.916 16.0236C249.746 14.9107 248.193 14.2905 246.578 14.2905C244.963 14.2905 243.409 14.9107 242.238 16.0236C242.15 16.1096 242.009 16.1089 241.923 16.0214L241.08 15.1709C241.036 15.1265 241.012 15.0667 241.012 15.0048C241.012 14.9421 241.038 14.8823 241.082 14.8386Z" fill="black"/>
<path d="M226.417 17.7344C226.819 17.7344 227.145 18.0602 227.145 18.4632V19.9208C227.145 20.3231 226.819 20.6496 226.417 20.6496H225.688C225.285 20.6496 224.959 20.3231 224.959 19.9208V18.4632C224.959 18.0602 225.285 17.7344 225.688 17.7344H226.417ZM229.818 16.2768C230.22 16.2768 230.547 16.6026 230.547 17.0056V19.9208C230.547 20.3231 230.22 20.6489 229.818 20.6496H229.089C228.687 20.6496 228.36 20.3231 228.36 19.9208V17.0056C228.36 16.6026 228.687 16.2768 229.089 16.2768H229.818ZM233.219 14.5758C233.621 14.5758 233.947 14.9016 233.947 15.3046V19.9208C233.947 20.3231 233.621 20.6496 233.219 20.6496H232.49C232.087 20.6489 231.761 20.3231 231.761 19.9208V15.3046C231.761 14.9023 232.087 14.5758 232.49 14.5758H233.219ZM236.62 12.8755C237.022 12.8755 237.349 13.2013 237.349 13.6043V19.9208C237.349 20.3231 237.022 20.6496 236.62 20.6496H235.891C235.489 20.6496 235.162 20.3231 235.162 19.9208V13.6043C235.162 13.2013 235.489 12.8755 235.891 12.8755H236.62Z" fill="black"/>
<path d="M27.1991 20.5925C29.1582 20.5925 30.3221 19.0605 30.3221 16.4667C30.3221 15.4894 30.1355 14.6673 29.7777 14.0325C29.2595 13.045 28.3681 12.5107 27.2421 12.5107C25.5659 12.5107 24.3809 13.6375 24.3809 15.2175C24.3809 16.7014 25.4486 17.7793 26.9164 17.7793C27.8186 17.7793 28.5496 17.358 28.9126 16.6263H28.9286C28.9286 16.6263 28.9505 16.6263 28.9556 16.6263C28.9665 16.6263 29.0037 16.6263 29.0037 16.6263C29.0037 18.3878 28.3361 19.4395 27.2101 19.4395C26.5483 19.4395 26.036 19.0765 25.8596 18.495H24.488C24.7176 19.7602 25.7904 20.5925 27.1991 20.5925ZM27.2472 16.6853C26.361 16.6853 25.7313 16.0556 25.7313 15.1745C25.7313 14.3153 26.3931 13.6586 27.2531 13.6586C28.1123 13.6586 28.7741 14.3262 28.7741 15.1964C28.7741 16.0556 28.1284 16.6853 27.2472 16.6853Z" fill="black"/>
<path d="M32.5749 20.5182C33.0821 20.5182 33.429 20.1552 33.429 19.6749C33.429 19.1888 33.0821 18.831 32.5749 18.831C32.0734 18.831 31.7207 19.1888 31.7207 19.6749C31.7207 20.1552 32.0734 20.5182 32.5749 20.5182ZM32.5749 16.5149C33.0821 16.5149 33.429 16.157 33.429 15.6767C33.429 15.1906 33.0821 14.8335 32.5749 14.8335C32.0734 14.8335 31.7207 15.1906 31.7207 15.6767C31.7207 16.157 32.0734 16.5149 32.5749 16.5149Z" fill="black"/>
<path d="M38.4257 20.4059H39.7441V18.9701H40.7848V17.8062H39.7441V12.7031H37.8011C36.4397 14.7533 35.3559 16.4667 34.6621 17.7421V18.9701H38.4257V20.4059ZM35.9383 17.7581C36.8347 16.1781 37.6356 14.9129 38.3717 13.824H38.4468V17.8383H35.9383V17.7581Z" fill="black"/>
<path d="M43.722 20.4059H45.0987V12.7031H43.7271L41.7148 14.1126V15.4361L43.6309 14.0908H43.722V20.4059Z" fill="black"/>
</g>
<path d="M284.234 564.094H0V615.111H284.234V564.094Z" fill="white"/>
<mask id="mask2_783_2371" style="mask-type:luminance" maskUnits="userSpaceOnUse" x="19" y="575" width="19" height="19">
<path d="M37.169 575.756H19.6777V593.248H37.169V575.756Z" fill="white"/>
</mask>
<g mask="url(#mask2_783_2371)">
<path d="M30.9733 585.959H30.3976L30.1935 585.762C30.9077 584.932 31.3377 583.853 31.3377 582.68C31.3377 580.063 29.2169 577.942 26.6005 577.942C23.9841 577.942 21.8633 580.063 21.8633 582.68C21.8633 585.296 23.9841 587.417 26.6005 587.417C27.7739 587.417 28.8525 586.987 29.6834 586.273L29.8801 586.477V587.052L33.5242 590.689L34.6101 589.603L30.9733 585.959ZM26.6005 585.959C24.7858 585.959 23.3209 584.494 23.3209 582.68C23.3209 580.865 24.7858 579.4 26.6005 579.4C28.4152 579.4 29.8801 580.865 29.8801 582.68C29.8801 584.494 28.4152 585.959 26.6005 585.959Z" fill="black"/>
</g>
<path d="M15.8867 601.263V595.963H19.2101V596.652H16.6862V598.267H19.0366V598.952H16.6862V600.575H19.2407V601.263H15.8867ZM20.8266 597.288L21.704 598.836L22.5895 597.288H23.4357L22.196 599.276L23.4459 601.263H22.5997L21.704 599.778L20.8112 601.263H19.9622L21.1997 599.276L19.9775 597.288H20.8266ZM24.2301 602.754V597.288H24.9858V597.933H25.0507C25.0952 597.85 25.16 597.754 25.2446 597.646C25.3291 597.536 25.4464 597.442 25.5966 597.361C25.7467 597.278 25.9449 597.236 26.192 597.236C26.5127 597.236 26.7991 597.318 27.0513 597.48C27.3027 597.642 27.5002 597.876 27.6438 598.181C27.7888 598.487 27.861 598.854 27.861 599.283C27.861 599.713 27.7896 600.081 27.646 600.389C27.5031 600.694 27.3064 600.93 27.0564 601.095C26.8064 601.259 26.5207 601.341 26.1993 601.341C25.9581 601.341 25.7606 601.301 25.6068 601.22C25.4552 601.138 25.3364 601.043 25.2497 600.935C25.1637 600.826 25.0973 600.729 25.0507 600.645H25.0041V602.754H24.2301ZM24.988 599.276C24.988 599.555 25.0288 599.8 25.1097 600.011C25.1914 600.221 25.3087 600.386 25.4617 600.506C25.6155 600.623 25.8036 600.681 26.0258 600.681C26.2576 600.681 26.4507 600.62 26.606 600.498C26.7612 600.373 26.8785 600.205 26.958 599.992C27.0389 599.78 27.0797 599.541 27.0797 599.276C27.0797 599.014 27.0396 598.778 26.9602 598.569C26.8829 598.361 26.7656 598.196 26.6082 598.075C26.4529 597.954 26.2591 597.893 26.0258 597.893C25.8021 597.893 25.6119 597.952 25.4566 598.067C25.3036 598.183 25.187 598.344 25.1076 598.551C25.0281 598.758 24.988 599 24.988 599.276ZM29.5022 595.963V601.263H28.7283V595.963H29.5022ZM32.2178 601.344C31.8446 601.344 31.5196 601.258 31.2419 601.088C30.9642 600.917 30.7485 600.678 30.5947 600.371C30.4409 600.063 30.3644 599.705 30.3644 599.294C30.3644 598.882 30.4409 598.521 30.5947 598.212C30.7485 597.903 30.9642 597.663 31.2419 597.493C31.5196 597.322 31.8446 597.236 32.2178 597.236C32.5902 597.236 32.9152 597.322 33.1929 597.493C33.4713 597.663 33.687 597.903 33.8401 598.212C33.9939 598.521 34.0704 598.882 34.0704 599.294C34.0704 599.705 33.9939 600.063 33.8401 600.371C33.687 600.678 33.4713 600.917 33.1929 601.088C32.9152 601.258 32.5902 601.344 32.2178 601.344ZM32.22 600.694C32.4619 600.694 32.6616 600.63 32.8205 600.503C32.9794 600.375 33.0967 600.205 33.1725 599.992C33.2505 599.78 33.2891 599.546 33.2891 599.291C33.2891 599.038 33.2505 598.805 33.1725 598.592C33.0967 598.379 32.9794 598.207 32.8205 598.078C32.6616 597.948 32.4619 597.883 32.22 597.883C31.9765 597.883 31.7747 597.948 31.6143 598.078C31.4554 598.207 31.3374 598.379 31.2601 598.592C31.1843 598.805 31.1464 599.038 31.1464 599.291C31.1464 599.546 31.1843 599.78 31.2601 599.992C31.3374 600.205 31.4554 600.375 31.6143 600.503C31.7747 600.63 31.9765 600.694 32.22 600.694ZM34.934 601.263V597.288H35.6825V597.92H35.724C35.7962 597.705 35.9237 597.538 36.1067 597.415C36.2911 597.291 36.5002 597.229 36.7334 597.229C36.7815 597.229 36.8384 597.23 36.904 597.234C36.971 597.238 37.0235 597.242 37.0621 597.247V597.987C37.0308 597.978 36.9754 597.969 36.896 597.958C36.8165 597.947 36.7371 597.94 36.6584 597.94C36.4754 597.94 36.3122 597.979 36.1686 598.057C36.0272 598.133 35.915 598.239 35.8326 598.375C35.7496 598.51 35.708 598.663 35.708 598.836V601.263H34.934ZM39.3025 601.344C38.9111 601.344 38.5737 601.26 38.2902 601.093C38.0096 600.924 37.7917 600.686 37.6386 600.381C37.4863 600.074 37.4105 599.714 37.4105 599.302C37.4105 598.895 37.4863 598.536 37.6386 598.225C37.7917 597.915 38.0059 597.672 38.28 597.498C38.5562 597.324 38.879 597.236 39.2478 597.236C39.4723 597.236 39.6895 597.273 39.9001 597.348C40.1107 597.422 40.2995 597.539 40.4671 597.697C40.6347 597.856 40.7666 598.062 40.8628 598.315C40.9598 598.568 41.0079 598.874 41.0079 599.235V599.509H37.8478V598.929H40.2499C40.2499 598.726 40.2084 598.545 40.1253 598.388C40.0429 598.229 39.9263 598.104 39.7762 598.013C39.6275 597.921 39.4533 597.876 39.2529 597.876C39.0357 597.876 38.8462 597.929 38.6837 598.036C38.5234 598.141 38.3995 598.28 38.3113 598.45C38.2246 598.619 38.1816 598.803 38.1816 599.001V599.455C38.1816 599.72 38.2282 599.946 38.3215 600.132C38.4162 600.319 38.5482 600.461 38.7172 600.559C38.8863 600.656 39.0838 600.704 39.3105 600.704C39.457 600.704 39.5904 600.684 39.7113 600.643C39.8323 600.6 39.9365 600.535 40.0247 600.451C40.1122 600.366 40.18 600.262 40.2266 600.138L40.9591 600.269C40.9 600.485 40.7951 600.675 40.6427 600.836C40.4926 600.997 40.3039 601.122 40.0765 601.212C39.8505 601.3 39.5925 601.344 39.3025 601.344Z" fill="black"/>
<path d="M82.3612 588.827C83.2168 589.32 84.2102 589.603 85.2699 589.603C88.4897 589.603 91.1003 586.993 91.1003 583.773C91.1003 580.553 88.4897 577.942 85.2699 577.942C82.05 577.942 79.4395 580.553 79.4395 583.773C79.4395 584.832 79.7222 585.825 80.2156 586.681L80.2178 586.685C80.2652 586.767 80.2892 586.809 80.3002 586.848C80.3104 586.885 80.3133 586.918 80.3104 586.957C80.3075 586.998 80.2936 587.041 80.2652 587.126L79.7674 588.62L79.7667 588.622C79.6617 588.937 79.6093 589.095 79.6464 589.2C79.6792 589.291 79.7514 589.363 79.8432 589.396C79.9482 589.434 80.1048 589.382 80.419 589.277L80.4226 589.275L81.9167 588.778C82.0019 588.749 82.0449 588.735 82.0865 588.732C82.1244 588.729 82.1579 588.732 82.1943 588.743C82.2337 588.753 82.2752 588.778 82.3583 588.826L82.3612 588.827Z" stroke="#BDBDBD" stroke-width="1.45761" stroke-linecap="round" stroke-linejoin="round"/>
<path d="M79.6858 597.686H78.879C78.8477 597.514 78.7901 597.362 78.7056 597.231C78.621 597.1 78.5175 596.989 78.3944 596.897C78.2719 596.806 78.1349 596.737 77.9833 596.69C77.8332 596.643 77.6736 596.62 77.5045 596.62C77.1991 596.62 76.9258 596.697 76.6839 596.85C76.4441 597.004 76.2546 597.229 76.1147 597.526C75.9769 597.823 75.9077 598.186 75.9077 598.613C75.9077 599.044 75.9769 599.409 76.1147 599.705C76.2546 600.002 76.4448 600.226 76.6868 600.379C76.928 600.53 77.1998 600.606 77.5016 600.606C77.6692 600.606 77.8281 600.583 77.9782 600.539C78.1298 600.492 78.2668 600.424 78.3893 600.334C78.5117 600.244 78.6159 600.135 78.7005 600.005C78.7865 599.874 78.8462 599.724 78.879 599.555L79.6858 599.558C79.6428 599.818 79.559 600.058 79.4351 600.277C79.3126 600.494 79.1545 600.683 78.9614 600.841C78.7697 600.999 78.551 601.121 78.304 601.207C78.0576 601.293 77.788 601.336 77.4965 601.336C77.0373 601.336 76.6285 601.227 76.2699 601.01C75.9113 600.79 75.6278 600.478 75.4208 600.07C75.2153 599.663 75.1133 599.178 75.1133 598.613C75.1133 598.047 75.2168 597.562 75.4237 597.156C75.6307 596.749 75.9135 596.436 76.2728 596.219C76.6314 596 77.0395 595.891 77.4965 595.891C77.7778 595.891 78.0402 595.931 78.2836 596.012C78.5285 596.092 78.7486 596.209 78.9432 596.364C79.1385 596.517 79.2995 596.705 79.4271 596.928C79.5553 597.149 79.6413 597.402 79.6858 597.686ZM81.3548 598.903V601.263H80.5808V595.963H81.3446V597.935H81.3934C81.4867 597.721 81.6295 597.551 81.8205 597.426C82.0121 597.299 82.2621 597.236 82.5711 597.236C82.8437 597.236 83.082 597.292 83.2854 597.404C83.4909 597.517 83.6498 597.684 83.762 597.906C83.8757 598.127 83.9325 598.404 83.9325 598.735V601.263H83.1586V598.828C83.1586 598.536 83.0835 598.31 82.9333 598.15C82.7832 597.987 82.5748 597.906 82.3073 597.906C82.1244 597.906 81.9604 597.945 81.8154 598.023C81.6725 598.101 81.5596 598.215 81.4765 598.365C81.3956 598.513 81.3548 598.693 81.3548 598.903ZM86.1219 601.352C85.8704 601.352 85.6423 601.305 85.439 601.212C85.2349 601.117 85.0738 600.98 84.9551 600.8C84.8377 600.621 84.7787 600.4 84.7787 600.14C84.7787 599.916 84.8217 599.731 84.9084 599.586C84.9944 599.441 85.111 599.327 85.2575 599.242C85.404 599.158 85.568 599.094 85.7494 599.051C85.9302 599.008 86.1153 598.975 86.3033 598.952C86.5417 598.925 86.7348 598.902 86.8827 598.885C87.0314 598.866 87.1393 598.836 87.2063 598.794C87.2741 598.753 87.3076 598.686 87.3076 598.592V598.574C87.3076 598.348 87.2435 598.173 87.116 598.049C86.9899 597.925 86.8018 597.863 86.5519 597.863C86.2909 597.863 86.0862 597.92 85.936 598.036C85.7873 598.15 85.6846 598.277 85.6277 598.417L84.9004 598.251C84.9871 598.009 85.1125 597.815 85.2786 597.666C85.4455 597.516 85.6379 597.407 85.8559 597.34C86.073 597.271 86.3012 597.236 86.5417 597.236C86.6998 597.236 86.8682 597.255 87.046 597.294C87.2253 597.329 87.3929 597.397 87.5481 597.495C87.7048 597.593 87.8338 597.734 87.9337 597.917C88.0335 598.098 88.0838 598.334 88.0838 598.624V601.263H87.328V600.72H87.2967C87.2471 600.82 87.1721 600.919 87.0722 601.015C86.9717 601.112 86.8434 601.192 86.686 601.255C86.5293 601.32 86.3412 601.352 86.1219 601.352ZM86.2902 600.73C86.5045 600.73 86.6874 600.688 86.839 600.603C86.9928 600.519 87.1087 600.409 87.1881 600.272C87.2697 600.134 87.3098 599.987 87.3098 599.83V599.317C87.2821 599.344 87.2289 599.371 87.1495 599.395C87.0722 599.417 86.9833 599.437 86.8827 599.454C86.7829 599.47 86.6852 599.484 86.5905 599.498C86.4957 599.511 86.4163 599.521 86.3522 599.53C86.202 599.548 86.065 599.581 85.9411 599.625C85.8187 599.67 85.7203 599.734 85.646 599.819C85.5731 599.902 85.5374 600.013 85.5374 600.151C85.5374 600.342 85.6081 600.487 85.7494 600.586C85.8908 600.682 86.0709 600.73 86.2902 600.73ZM90.9699 597.288V597.909H88.7988V597.288H90.9699ZM89.3811 596.336H90.1551V600.096C90.1551 600.246 90.1777 600.359 90.2221 600.435C90.2673 600.509 90.3249 600.56 90.3956 600.588C90.4685 600.614 90.5464 600.626 90.631 600.626C90.6929 600.626 90.7476 600.623 90.7942 600.614C90.8409 600.605 90.8773 600.598 90.9028 600.593L91.0428 601.232C90.9976 601.25 90.9342 601.267 90.8511 601.284C90.768 601.303 90.6645 601.314 90.5406 601.315C90.3373 601.319 90.1471 601.282 89.9714 601.207C89.795 601.131 89.6529 601.013 89.5443 600.855C89.4357 600.696 89.3811 600.497 89.3811 600.257V596.336ZM94.7407 598.259L94.0396 598.383C94.0104 598.293 93.9638 598.207 93.8997 598.127C93.8377 598.046 93.7532 597.979 93.646 597.928C93.5396 597.876 93.4055 597.85 93.2452 597.85C93.0258 597.85 92.8429 597.899 92.6964 597.997C92.5499 598.094 92.4763 598.219 92.4763 598.372C92.4763 598.506 92.5259 598.612 92.6243 598.694C92.7226 598.775 92.8808 598.841 93.1002 598.893L93.732 599.038C94.0972 599.122 94.3697 599.253 94.5498 599.428C94.729 599.605 94.8187 599.833 94.8187 600.114C94.8187 600.352 94.7495 600.564 94.6117 600.751C94.4754 600.935 94.2845 601.08 94.0396 601.185C93.7962 601.291 93.5141 601.344 93.1935 601.344C92.7482 601.344 92.3852 601.249 92.1039 601.059C91.8226 600.868 91.6499 600.596 91.5864 600.244L92.3342 600.13C92.3808 600.325 92.4763 600.473 92.6213 600.572C92.7664 600.671 92.9551 600.72 93.1884 600.72C93.442 600.72 93.6446 600.667 93.7962 600.562C93.9485 600.455 94.0243 600.325 94.0243 600.171C94.0243 600.047 93.9777 599.943 93.8844 599.858C93.7933 599.774 93.6526 599.71 93.4624 599.667L92.7897 599.519C92.4187 599.435 92.144 599.3 91.9669 599.116C91.7905 598.93 91.7023 598.697 91.7023 598.414C91.7023 598.179 91.7679 597.974 91.8991 597.798C92.0303 597.622 92.2118 597.485 92.4428 597.386C92.6738 597.286 92.9391 597.236 93.2372 597.236C93.6672 597.236 94.0053 597.329 94.2517 597.516C94.4987 597.7 94.662 597.948 94.7407 598.259Z" fill="#BDBDBD"/>
<mask id="mask3_783_2371" style="mask-type:luminance" maskUnits="userSpaceOnUse" x="133" y="575" width="18" height="19">
<path d="M150.862 575.755H133.371V593.247H150.862V575.755Z" fill="white"/>
</mask>
<g mask="url(#mask3_783_2371)">
<path d="M145.396 577.942C144.128 577.942 142.911 578.533 142.116 579.466C141.322 578.533 140.105 577.942 138.837 577.942C136.592 577.942 134.828 579.706 134.828 581.951C134.828 584.706 137.306 586.95 141.059 590.361L142.116 591.316L143.173 590.354C146.926 586.95 149.404 584.706 149.404 581.951C149.404 579.706 147.641 577.942 145.396 577.942ZM142.189 589.275L142.116 589.348L142.043 589.275C138.574 586.134 136.286 584.057 136.286 581.951C136.286 580.493 137.379 579.4 138.837 579.4C139.959 579.4 141.052 580.121 141.438 581.12H142.801C143.18 580.121 144.273 579.4 145.396 579.4C146.853 579.4 147.947 580.493 147.947 581.951C147.947 584.057 145.658 586.134 142.189 589.275Z" fill="#BDBDBD"/>
</g>
<path d="M133.588 601.263V595.962H134.387V600.574H136.79V601.263H133.588ZM137.639 601.263V597.287H138.413V601.263H137.639ZM138.031 596.674C137.896 596.674 137.78 596.629 137.684 596.539C137.588 596.448 137.541 596.34 137.541 596.214C137.541 596.086 137.588 595.977 137.684 595.887C137.78 595.796 137.896 595.75 138.031 595.75C138.165 595.75 138.28 595.796 138.375 595.887C138.471 595.977 138.52 596.086 138.52 596.214C138.52 596.34 138.471 596.448 138.375 596.539C138.28 596.629 138.165 596.674 138.031 596.674ZM140.166 599.914L140.161 598.97H140.296L141.879 597.287H142.806L141 599.202H140.878L140.166 599.914ZM139.455 601.263V595.962H140.228V601.263H139.455ZM141.965 601.263L140.541 599.374L141.075 598.832L142.914 601.263H141.965ZM145.061 601.343C144.669 601.343 144.332 601.259 144.049 601.092C143.768 600.923 143.551 600.685 143.397 600.38C143.245 600.073 143.169 599.713 143.169 599.301C143.169 598.894 143.245 598.535 143.397 598.224C143.551 597.914 143.764 597.671 144.038 597.497C144.314 597.323 144.637 597.235 145.007 597.235C145.231 597.235 145.448 597.273 145.659 597.347C145.869 597.421 146.058 597.538 146.225 597.697C146.393 597.855 146.525 598.061 146.622 598.315C146.718 598.567 146.766 598.873 146.766 599.234V599.508H143.606V598.928H146.008C146.008 598.725 145.967 598.544 145.884 598.388C145.801 598.229 145.685 598.103 145.534 598.012C145.386 597.92 145.212 597.875 145.012 597.875C144.794 597.875 144.604 597.928 144.442 598.036C144.282 598.141 144.158 598.279 144.07 598.45C143.984 598.619 143.941 598.802 143.941 599V599.454C143.941 599.719 143.986 599.945 144.08 600.132C144.175 600.318 144.307 600.46 144.476 600.559C144.645 600.656 144.843 600.704 145.069 600.704C145.215 600.704 145.349 600.683 145.47 600.642C145.591 600.599 145.695 600.535 145.783 600.45C145.871 600.366 145.938 600.261 145.985 600.137L146.717 600.269C146.658 600.484 146.553 600.674 146.402 600.836C146.252 600.996 146.062 601.121 145.835 601.211C145.609 601.299 145.351 601.343 145.061 601.343ZM150.604 598.258L149.902 598.382C149.873 598.292 149.826 598.207 149.763 598.126C149.7 598.045 149.616 597.979 149.509 597.927C149.402 597.875 149.268 597.849 149.108 597.849C148.889 597.849 148.706 597.899 148.559 597.996C148.412 598.093 148.34 598.218 148.34 598.372C148.34 598.505 148.388 598.611 148.487 598.693C148.585 598.774 148.744 598.84 148.963 598.892L149.595 599.037C149.96 599.121 150.233 599.252 150.412 599.428C150.592 599.604 150.681 599.832 150.681 600.113C150.681 600.352 150.613 600.564 150.474 600.75C150.338 600.935 150.148 601.08 149.902 601.185C149.659 601.29 149.377 601.343 149.056 601.343C148.611 601.343 148.248 601.248 147.966 601.058C147.685 600.867 147.513 600.595 147.449 600.243L148.197 600.129C148.243 600.324 148.34 600.472 148.484 600.572C148.629 600.67 148.818 600.719 149.051 600.719C149.305 600.719 149.507 600.667 149.659 600.562C149.811 600.454 149.887 600.324 149.887 600.17C149.887 600.046 149.84 599.942 149.747 599.858C149.656 599.773 149.515 599.709 149.326 599.666L148.652 599.519C148.281 599.434 148.007 599.299 147.829 599.115C147.654 598.93 147.566 598.696 147.566 598.413C147.566 598.178 147.631 597.974 147.762 597.797C147.894 597.622 148.074 597.484 148.305 597.385C148.537 597.286 148.802 597.235 149.1 597.235C149.53 597.235 149.868 597.329 150.115 597.515C150.361 597.7 150.525 597.947 150.604 598.258Z" fill="#BDBDBD"/>
<path d="M194.59 581.003V587.915C194.59 588.907 194.59 589.404 194.739 589.707C195.014 590.269 195.619 590.593 196.24 590.51C196.574 590.465 196.988 590.191 197.813 589.64L197.815 589.639C198.142 589.421 198.305 589.312 198.477 589.251C198.791 589.14 199.134 589.14 199.448 589.251C199.619 589.312 199.784 589.421 200.112 589.64C200.938 590.191 201.351 590.465 201.685 590.51C202.306 590.593 202.911 590.269 203.187 589.707C203.335 589.404 203.335 588.907 203.335 587.915V581C203.335 580.186 203.336 579.777 203.177 579.466C203.037 579.191 202.814 578.969 202.539 578.829C202.228 578.67 201.82 578.67 201.003 578.67H196.922C196.106 578.67 195.698 578.67 195.386 578.829C195.111 578.969 194.889 579.191 194.749 579.466C194.59 579.778 194.59 580.186 194.59 581.003Z" stroke="#BDBDBD" stroke-width="1.45761" stroke-linecap="round" stroke-linejoin="round"/>
<path d="M191.505 597.356C191.478 597.111 191.363 596.92 191.164 596.786C190.963 596.65 190.712 596.582 190.408 596.582C190.191 596.582 190.003 596.616 189.844 596.685C189.685 596.752 189.562 596.845 189.473 596.965C189.387 597.082 189.344 597.216 189.344 597.366C189.344 597.492 189.374 597.6 189.432 597.692C189.492 597.783 189.571 597.86 189.667 597.922C189.766 597.982 189.871 598.033 189.984 598.075C190.095 598.114 190.203 598.147 190.306 598.173L190.825 598.308C190.994 598.349 191.167 598.405 191.344 598.476C191.522 598.546 191.687 598.64 191.839 598.756C191.991 598.871 192.113 599.014 192.206 599.185C192.301 599.356 192.349 599.56 192.349 599.798C192.349 600.099 192.271 600.365 192.116 600.598C191.962 600.831 191.739 601.015 191.446 601.15C191.154 601.284 190.801 601.352 190.387 601.352C189.99 601.352 189.647 601.288 189.357 601.163C189.067 601.037 188.84 600.858 188.676 600.626C188.512 600.394 188.422 600.118 188.404 599.798H189.207C189.223 599.99 189.285 600.15 189.393 600.277C189.503 600.403 189.644 600.497 189.815 600.559C189.987 600.62 190.177 600.65 190.382 600.65C190.608 600.65 190.809 600.615 190.985 600.544C191.163 600.471 191.302 600.371 191.404 600.244C191.506 600.114 191.557 599.963 191.557 599.79C191.557 599.634 191.512 599.506 191.422 599.405C191.334 599.305 191.215 599.222 191.062 599.156C190.912 599.091 190.742 599.033 190.553 598.983L189.926 598.812C189.502 598.697 189.165 598.527 188.917 598.303C188.67 598.078 188.547 597.782 188.547 597.412C188.547 597.107 188.63 596.84 188.796 596.613C188.961 596.385 189.186 596.208 189.468 596.082C189.751 595.954 190.07 595.891 190.426 595.891C190.785 595.891 191.102 595.953 191.376 596.079C191.652 596.205 191.869 596.379 192.028 596.6C192.187 596.819 192.269 597.071 192.276 597.356H191.505ZM194.399 601.352C194.147 601.352 193.92 601.305 193.716 601.212C193.513 601.117 193.351 600.98 193.232 600.8C193.115 600.621 193.056 600.4 193.056 600.14C193.056 599.916 193.099 599.731 193.185 599.586C193.272 599.441 193.388 599.327 193.535 599.242C193.682 599.158 193.846 599.094 194.026 599.051C194.208 599.008 194.392 598.975 194.58 598.952C194.819 598.925 195.012 598.902 195.16 598.885C195.308 598.866 195.416 598.836 195.484 598.794C195.551 598.753 195.584 598.686 195.584 598.592V598.574C195.584 598.348 195.521 598.173 195.393 598.049C195.267 597.925 195.079 597.863 194.829 597.863C194.569 597.863 194.363 597.92 194.213 598.036C194.064 598.15 193.962 598.277 193.905 598.417L193.178 598.251C193.264 598.009 193.39 597.815 193.556 597.666C193.723 597.516 193.916 597.407 194.133 597.34C194.35 597.271 194.579 597.236 194.819 597.236C194.977 597.236 195.146 597.255 195.323 597.294C195.503 597.329 195.67 597.397 195.825 597.495C195.982 597.593 196.111 597.734 196.211 597.917C196.311 598.098 196.361 598.334 196.361 598.624V601.263H195.606V600.72H195.574C195.524 600.82 195.449 600.919 195.349 601.015C195.249 601.112 195.12 601.192 194.964 601.255C194.806 601.32 194.618 601.352 194.399 601.352ZM194.568 600.73C194.781 600.73 194.964 600.688 195.116 600.603C195.27 600.519 195.386 600.409 195.466 600.272C195.547 600.134 195.587 599.987 195.587 599.83V599.317C195.56 599.344 195.506 599.371 195.426 599.395C195.349 599.417 195.26 599.437 195.16 599.454C195.06 599.47 194.963 599.484 194.867 599.498C194.773 599.511 194.693 599.521 194.63 599.53C194.48 599.548 194.343 599.581 194.218 599.625C194.096 599.67 193.997 599.734 193.923 599.819C193.851 599.902 193.814 600.013 193.814 600.151C193.814 600.342 193.885 600.487 194.026 600.586C194.168 600.682 194.348 600.73 194.568 600.73ZM200.65 597.288L199.209 601.263H198.38L196.936 597.288H197.767L198.774 600.347H198.815L199.82 597.288H200.65ZM202.956 601.344C202.564 601.344 202.227 601.26 201.943 601.093C201.662 600.924 201.445 600.686 201.291 600.381C201.139 600.074 201.064 599.714 201.064 599.301C201.064 598.895 201.139 598.535 201.291 598.225C201.445 597.915 201.659 597.672 201.933 597.498C202.209 597.323 202.532 597.236 202.901 597.236C203.125 597.236 203.343 597.273 203.553 597.348C203.764 597.422 203.953 597.538 204.12 597.697C204.287 597.855 204.419 598.062 204.516 598.315C204.613 598.568 204.661 598.874 204.661 599.234V599.508H201.501V598.929H203.902C203.902 598.726 203.862 598.545 203.778 598.388C203.695 598.229 203.579 598.104 203.429 598.013C203.281 597.921 203.106 597.876 202.906 597.876C202.689 597.876 202.499 597.929 202.337 598.036C202.177 598.141 202.052 598.28 201.964 598.45C201.878 598.619 201.835 598.803 201.835 599.001V599.454C201.835 599.72 201.881 599.946 201.975 600.132C202.069 600.319 202.201 600.461 202.37 600.559C202.539 600.656 202.737 600.704 202.963 600.704C203.11 600.704 203.243 600.684 203.364 600.642C203.485 600.599 203.59 600.535 203.678 600.451C203.765 600.366 203.833 600.262 203.879 600.137L204.611 600.269C204.553 600.485 204.448 600.675 204.296 600.836C204.146 600.997 203.957 601.122 203.73 601.212C203.503 601.3 203.245 601.344 202.956 601.344ZM207.008 601.341C206.687 601.341 206.401 601.259 206.149 601.095C205.899 600.93 205.702 600.694 205.558 600.389C205.417 600.081 205.346 599.713 205.346 599.283C205.346 598.854 205.418 598.487 205.561 598.181C205.706 597.876 205.904 597.642 206.157 597.479C206.408 597.318 206.694 597.236 207.013 597.236C207.26 597.236 207.458 597.278 207.608 597.361C207.76 597.442 207.877 597.536 207.96 597.646C208.045 597.754 208.11 597.85 208.157 597.933H208.204V595.963H208.977V601.263H208.221V600.645H208.157C208.11 600.729 208.043 600.826 207.955 600.935C207.868 601.043 207.75 601.138 207.598 601.22C207.446 601.301 207.249 601.341 207.008 601.341ZM207.178 600.681C207.401 600.681 207.589 600.623 207.742 600.505C207.898 600.386 208.016 600.221 208.094 600.011C208.176 599.8 208.216 599.555 208.216 599.276C208.216 599 208.177 598.758 208.097 598.551C208.018 598.344 207.901 598.183 207.748 598.067C207.594 597.952 207.404 597.893 207.178 597.893C206.946 597.893 206.751 597.954 206.596 598.075C206.441 598.196 206.323 598.361 206.244 598.569C206.167 598.778 206.128 599.014 206.128 599.276C206.128 599.541 206.167 599.78 206.247 599.992C206.326 600.205 206.444 600.373 206.599 600.497C206.756 600.62 206.949 600.681 207.178 600.681Z" fill="#BDBDBD"/>
<path d="M260.912 591.061C260.912 588.243 258.628 585.959 255.811 585.959C252.993 585.959 250.709 588.243 250.709 591.061M255.811 583.773C254.201 583.773 252.895 582.468 252.895 580.858C252.895 579.248 254.201 577.942 255.811 577.942C257.421 577.942 258.726 579.248 258.726 580.858C258.726 582.468 257.421 583.773 255.811 583.773Z" stroke="#BDBDBD" stroke-width="1.45761" stroke-linecap="round" stroke-linejoin="round"/>
<path d="M245.096 601.263V595.962H246.985C247.397 595.962 247.739 596.037 248.01 596.188C248.281 596.338 248.483 596.543 248.618 596.803C248.753 597.063 248.82 597.354 248.82 597.679C248.82 598.004 248.752 598.298 248.616 598.558C248.481 598.817 248.278 599.023 248.004 599.174C247.734 599.324 247.393 599.399 246.983 599.399H245.683V598.722H246.91C247.171 598.722 247.382 598.676 247.544 598.587C247.706 598.496 247.825 598.371 247.901 598.214C247.977 598.057 248.015 597.878 248.015 597.679C248.015 597.478 247.977 597.3 247.901 597.145C247.825 596.99 247.706 596.868 247.542 596.78C247.379 596.693 247.165 596.648 246.899 596.648H245.895V601.263H245.096ZM249.695 601.263V597.287H250.444V597.919H250.484C250.557 597.705 250.685 597.537 250.868 597.414C251.052 597.29 251.261 597.228 251.494 597.228C251.543 597.228 251.6 597.23 251.665 597.233C251.732 597.237 251.785 597.241 251.823 597.247V597.986C251.792 597.978 251.737 597.968 251.657 597.958C251.578 597.946 251.498 597.94 251.419 597.94C251.236 597.94 251.073 597.979 250.93 598.056C250.788 598.132 250.676 598.238 250.594 598.375C250.511 598.51 250.469 598.663 250.469 598.835V601.263H249.695ZM254.024 601.343C253.652 601.343 253.327 601.258 253.049 601.087C252.771 600.916 252.556 600.677 252.402 600.37C252.248 600.063 252.172 599.704 252.172 599.294C252.172 598.881 252.248 598.52 252.402 598.211C252.556 597.902 252.771 597.663 253.049 597.492C253.327 597.322 253.652 597.236 254.024 597.236C254.397 597.236 254.722 597.322 255 597.492C255.278 597.663 255.494 597.902 255.647 598.211C255.801 598.52 255.878 598.881 255.878 599.294C255.878 599.704 255.801 600.063 255.647 600.37C255.494 600.677 255.278 600.916 255 601.087C254.722 601.258 254.397 601.343 254.024 601.343ZM254.027 600.694C254.268 600.694 254.469 600.63 254.628 600.502C254.787 600.375 254.904 600.205 254.98 599.992C255.057 599.78 255.096 599.546 255.096 599.291C255.096 599.037 255.057 598.804 254.98 598.592C254.904 598.378 254.787 598.206 254.628 598.077C254.469 597.948 254.268 597.883 254.027 597.883C253.784 597.883 253.582 597.948 253.422 598.077C253.263 598.206 253.145 598.378 253.067 598.592C252.991 598.804 252.953 599.037 252.953 599.291C252.953 599.546 252.991 599.78 253.067 599.992C253.145 600.205 253.263 600.375 253.422 600.502C253.582 600.63 253.784 600.694 254.027 600.694ZM258.633 597.287V597.909H256.387V597.287H258.633ZM257.003 601.263V596.827C257.003 596.578 257.057 596.373 257.166 596.209C257.275 596.043 257.418 595.919 257.598 595.839C257.778 595.755 257.972 595.714 258.183 595.714C258.338 595.714 258.471 595.727 258.581 595.753C258.692 595.777 258.774 595.8 258.827 595.82L258.646 596.446C258.61 596.436 258.563 596.424 258.506 596.411C258.45 596.395 258.38 596.387 258.299 596.387C258.111 596.387 257.977 596.434 257.896 596.526C257.816 596.62 257.777 596.755 257.777 596.93V601.263H257.003ZM259.432 601.263V597.287H260.205V601.263H259.432ZM259.823 596.674C259.688 596.674 259.573 596.629 259.476 596.54C259.381 596.448 259.334 596.34 259.334 596.214C259.334 596.086 259.381 595.977 259.476 595.887C259.573 595.796 259.688 595.75 259.823 595.75C259.957 595.75 260.072 595.796 260.167 595.887C260.264 595.977 260.312 596.086 260.312 596.214C260.312 596.34 260.264 596.448 260.167 596.54C260.072 596.629 259.957 596.674 259.823 596.674ZM262.021 595.962V601.263H261.247V595.962H262.021ZM264.775 601.343C264.384 601.343 264.046 601.259 263.763 601.092C263.482 600.923 263.264 600.686 263.111 600.38C262.959 600.074 262.883 599.714 262.883 599.301C262.883 598.894 262.959 598.535 263.111 598.225C263.264 597.914 263.478 597.671 263.752 597.497C264.029 597.323 264.351 597.236 264.72 597.236C264.945 597.236 265.162 597.273 265.372 597.347C265.583 597.421 265.772 597.538 265.939 597.697C266.107 597.855 266.239 598.061 266.335 598.315C266.432 598.567 266.48 598.873 266.48 599.234V599.508H263.32V598.929H265.722C265.722 598.725 265.681 598.545 265.598 598.388C265.515 598.229 265.399 598.104 265.249 598.013C265.1 597.921 264.926 597.876 264.725 597.876C264.508 597.876 264.319 597.929 264.156 598.036C263.996 598.141 263.872 598.279 263.784 598.45C263.698 598.619 263.654 598.803 263.654 599.001V599.454C263.654 599.719 263.701 599.945 263.794 600.132C263.889 600.318 264.021 600.461 264.19 600.559C264.359 600.656 264.556 600.704 264.783 600.704C264.929 600.704 265.063 600.684 265.184 600.642C265.305 600.599 265.409 600.535 265.497 600.45C265.585 600.366 265.652 600.262 265.699 600.137L266.431 600.269C266.372 600.485 266.267 600.674 266.115 600.836C265.965 600.996 265.776 601.122 265.549 601.211C265.323 601.299 265.065 601.343 264.775 601.343Z" fill="#BDBDBD"/>
<path d="M87.8086 61.9483V49.2271H92.6785C93.5975 49.2271 94.362 49.3721 94.9706 49.6621C95.5835 49.9478 96.0412 50.3392 96.3436 50.8363C96.6497 51.3333 96.8028 51.8959 96.8028 52.5256C96.8028 53.0431 96.7036 53.4862 96.5047 53.855C96.3057 54.2194 96.039 54.5153 95.7037 54.7434C95.3677 54.9708 94.9931 55.1347 94.5792 55.2339V55.3578C95.0303 55.3825 95.4632 55.5217 95.8772 55.7739C96.2955 56.0224 96.6373 56.3744 96.9026 56.8299C97.1672 57.2854 97.2998 57.8364 97.2998 58.4821C97.2998 59.141 97.1402 59.7328 96.8217 60.259C96.5025 60.7808 96.0222 61.1926 95.3809 61.495C94.7388 61.7975 93.9313 61.9483 92.9583 61.9483H87.8086ZM90.1131 60.0228H92.5917C93.4284 60.0228 94.0304 59.8632 94.3992 59.5447C94.7716 59.2219 94.9582 58.8072 94.9582 58.3021C94.9582 57.9253 94.8649 57.5857 94.6783 57.2833C94.4925 56.9772 94.2272 56.7366 93.8839 56.5632C93.5399 56.3846 93.1296 56.2957 92.6537 56.2957H90.1131V60.0228ZM90.1131 54.6377H92.3928C92.7907 54.6377 93.1485 54.5648 93.4678 54.4198C93.7862 54.2711 94.037 54.0619 94.2192 53.793C94.405 53.5197 94.4983 53.1961 94.4983 52.8237C94.4983 52.331 94.3248 51.9251 93.9765 51.6066C93.6332 51.2874 93.1216 51.1278 92.4423 51.1278H90.1131V54.6377ZM107.324 49.2271H109.628V57.5383C109.628 58.4493 109.413 59.2503 108.982 59.9419C108.555 60.6336 107.955 61.1736 107.181 61.5635C106.406 61.9483 105.502 62.1407 104.466 62.1407C103.427 62.1407 102.52 61.9483 101.746 61.5635C100.972 61.1736 100.371 60.6336 99.9446 59.9419C99.5176 59.2503 99.3048 58.4493 99.3048 57.5383V49.2271H101.609V57.3459C101.609 57.8758 101.725 58.348 101.957 58.762C102.193 59.176 102.524 59.501 102.951 59.7371C103.377 59.9689 103.882 60.0848 104.466 60.0848C105.05 60.0848 105.555 59.9689 105.982 59.7371C106.413 59.501 106.744 59.176 106.975 58.762C107.207 58.348 107.324 57.8758 107.324 57.3459V49.2271ZM122.586 49.2271V61.9483H120.537L114.543 53.2836H114.437V61.9483H112.132V49.2271H114.195L120.183 57.8984H120.294V49.2271H122.586ZM125.097 61.9483V49.2271H127.402V55.0721H127.557L132.52 49.2271H135.334L130.414 54.9358L135.377 61.9483H132.607L128.812 56.4947L127.402 58.1593V61.9483H125.097ZM136.935 61.9483V49.2271H141.804C142.724 49.2271 143.488 49.3721 144.096 49.6621C144.709 49.9478 145.167 50.3392 145.469 50.8363C145.776 51.3333 145.929 51.8959 145.929 52.5256C145.929 53.0431 145.829 53.4862 145.63 53.855C145.432 54.2194 145.165 54.5153 144.83 54.7434C144.494 54.9708 144.12 55.1347 143.705 55.2339V55.3578C144.157 55.3825 144.589 55.5217 145.004 55.7739C145.421 56.0224 145.763 56.3744 146.028 56.8299C146.293 57.2854 146.426 57.8364 146.426 58.4821C146.426 59.141 146.267 59.7328 145.948 60.259C145.629 60.7808 145.148 61.1926 144.507 61.495C143.865 61.7975 143.057 61.9483 142.084 61.9483H136.935ZM139.239 60.0228H141.718C142.554 60.0228 143.156 59.8632 143.525 59.5447C143.898 59.2219 144.084 58.8072 144.084 58.3021C144.084 57.9253 143.991 57.5857 143.805 57.2833C143.618 56.9772 143.353 56.7366 143.01 56.5632C142.666 56.3846 142.256 56.2957 141.779 56.2957H139.239V60.0228ZM139.239 54.6377H141.519C141.916 54.6377 142.274 54.5648 142.594 54.4198C142.912 54.2711 143.163 54.0619 143.345 53.793C143.532 53.5197 143.625 53.1961 143.625 52.8237C143.625 52.331 143.451 51.9251 143.103 51.6066C142.759 51.2874 142.247 51.1278 141.569 51.1278H139.239V54.6377ZM156.45 49.2271H158.754V57.5383C158.754 58.4493 158.538 59.2503 158.108 59.9419C157.681 60.6336 157.081 61.1736 156.307 61.5635C155.532 61.9483 154.628 62.1407 153.592 62.1407C152.553 62.1407 151.646 61.9483 150.871 61.5635C150.097 61.1736 149.497 60.6336 149.07 59.9419C148.644 59.2503 148.431 58.4493 148.431 57.5383V49.2271H150.735V57.3459C150.735 57.8758 150.851 58.348 151.083 58.762C151.319 59.176 151.65 59.501 152.077 59.7371C152.503 59.9689 153.008 60.0848 153.592 60.0848C154.176 60.0848 154.682 59.9689 155.108 59.7371C155.539 59.501 155.869 59.176 156.102 58.762C156.334 58.348 156.45 57.8758 156.45 57.3459V49.2271ZM165.569 61.9483H161.259V49.2271H165.657C166.92 49.2271 168.004 49.4821 168.911 49.9916C169.822 50.4966 170.522 51.2233 171.01 52.1714C171.499 53.1196 171.744 54.2543 171.744 55.5757C171.744 56.9006 171.497 58.039 171.005 58.9916C170.516 59.9441 169.81 60.6751 168.886 61.1845C167.967 61.694 166.861 61.9483 165.569 61.9483ZM163.563 59.9543H165.458C166.344 59.9543 167.083 59.7933 167.675 59.4697C168.267 59.1432 168.712 58.6563 169.011 58.0106C169.309 57.3605 169.458 56.5486 169.458 55.5757C169.458 54.602 169.309 53.7945 169.011 53.1531C168.712 52.5067 168.272 52.0249 167.688 51.7057C167.108 51.3829 166.387 51.2211 165.526 51.2211H163.563V59.9543ZM178.244 61.9483H173.933V49.2271H178.33C179.593 49.2271 180.679 49.4821 181.585 49.9916C182.496 50.4966 183.196 51.2233 183.685 52.1714C184.173 53.1196 184.418 54.2543 184.418 55.5757C184.418 56.9006 184.171 58.039 183.678 58.9916C183.19 59.9441 182.484 60.6751 181.561 61.1845C180.642 61.694 179.536 61.9483 178.244 61.9483ZM176.237 59.9543H178.132C179.018 59.9543 179.757 59.7933 180.349 59.4697C180.942 59.1432 181.386 58.6563 181.685 58.0106C181.983 57.3605 182.132 56.5486 182.132 55.5757C182.132 54.602 181.983 53.7945 181.685 53.1531C181.386 52.5067 180.945 52.0249 180.362 51.7057C179.782 51.3829 179.061 51.2211 178.2 51.2211H176.237V59.9543ZM185.02 49.2271H187.623L190.735 54.8549H190.859L193.971 49.2271H196.574L191.946 57.2031V61.9483H189.648V57.2031L185.02 49.2271Z" fill="black"/>
<path d="M259.455 99.8458H267.472M254.354 99.8458H256.54M256.54 99.8458V101.303M256.54 99.8458V98.3882M266.743 95.473H267.472M254.354 95.473H263.828M263.828 95.473V96.9306M263.828 95.473V94.0154M262.37 91.1002H267.472M254.354 91.1002H259.455M259.455 91.1002V92.5578M259.455 91.1002V89.6426" stroke="black" stroke-width="1.45761" stroke-linecap="round" stroke-linejoin="round"/>
<g filter="url(#filter0_d_783_2371)">
<path d="M220.827 78.71H28.4227C19.165 78.71 11.6602 86.2148 11.6602 95.4725C11.6602 104.73 19.165 112.235 28.4227 112.235H220.827C230.085 112.235 237.59 104.73 237.59 95.4725C237.59 86.2148 230.085 78.71 220.827 78.71Z" fill="white"/>
<path d="M220.828 79.0742H28.4235C19.3671 79.0742 12.0254 86.4159 12.0254 95.4723C12.0254 104.529 19.3671 111.87 28.4235 111.87H220.828C229.884 111.87 237.226 104.529 237.226 95.4723C237.226 86.4159 229.884 79.0742 220.828 79.0742Z" stroke="#F5F5F5" stroke-width="0.728804"/>
<path d="M111.507 82.3545H28.4232C21.178 82.3545 15.3047 88.2278 15.3047 95.473C15.3047 102.718 21.178 108.591 28.4232 108.591H111.507C118.752 108.591 124.625 102.718 124.625 95.473C124.625 88.2278 118.752 82.3545 111.507 82.3545Z" fill="black"/>
<path d="M52.7833 97.659L51.4889 95.4814H50.4744V97.659H49.4512V91.8257H52.0136C53.1681 91.8257 53.9202 92.5778 53.9202 93.6535C53.9202 94.6943 53.238 95.254 52.5384 95.3677L53.9639 97.659H52.7833ZM52.8707 93.6535C52.8707 93.0938 52.4509 92.7265 51.8737 92.7265H50.4744V94.5806H51.8737C52.4509 94.5806 52.8707 94.2132 52.8707 93.6535ZM56.5585 97.764C55.2204 97.764 54.3896 96.7582 54.3896 95.5426C54.3896 94.3357 55.2204 93.3299 56.5585 93.3299C57.914 93.3299 58.7361 94.3357 58.7361 95.5426C58.7361 96.7582 57.914 97.764 56.5585 97.764ZM56.5585 96.9506C57.3456 96.9506 57.7829 96.2947 57.7829 95.5426C57.7829 94.7992 57.3456 94.1433 56.5585 94.1433C55.7801 94.1433 55.3428 94.7992 55.3428 95.5426C55.3428 96.2947 55.7801 96.9506 56.5585 96.9506ZM61.5719 97.764C60.2338 97.764 59.403 96.7582 59.403 95.5426C59.403 94.3357 60.2338 93.3299 61.5719 93.3299C62.9275 93.3299 63.7496 94.3357 63.7496 95.5426C63.7496 96.7582 62.9275 97.764 61.5719 97.764ZM61.5719 96.9506C62.359 96.9506 62.7963 96.2947 62.7963 95.5426C62.7963 94.7992 62.359 94.1433 61.5719 94.1433C60.7936 94.1433 60.3563 94.7992 60.3563 95.5426C60.3563 96.2947 60.7936 96.9506 61.5719 96.9506ZM69.8562 97.659V94.9042C69.8562 94.4494 69.6551 94.1433 69.1653 94.1433C68.7543 94.1433 68.3695 94.4319 68.1858 94.703V97.659H67.2675V94.9042C67.2675 94.4494 67.0664 94.1433 66.5679 94.1433C66.1656 94.1433 65.7895 94.4319 65.5971 94.7117V97.659H64.6788V93.4349H65.5971V94.0121C65.772 93.7497 66.3317 93.3299 66.9702 93.3299C67.5999 93.3299 67.9847 93.6448 68.1246 94.1083C68.3695 93.7235 68.9292 93.3299 69.5589 93.3299C70.3372 93.3299 70.7745 93.7497 70.7745 94.6068V97.659H69.8562ZM77.1414 97.659V94.9042C77.1414 94.4494 76.9402 94.1433 76.4505 94.1433C76.0394 94.1433 75.6546 94.4319 75.4709 94.703V97.659H74.5527V94.9042C74.5527 94.4494 74.3515 94.1433 73.853 94.1433C73.4507 94.1433 73.0746 94.4319 72.8822 94.7117V97.659H71.9639V93.4349H72.8822V94.0121C73.0571 93.7497 73.6169 93.3299 74.2553 93.3299C74.885 93.3299 75.2698 93.6448 75.4097 94.1083C75.6546 93.7235 76.2143 93.3299 76.844 93.3299C77.6224 93.3299 78.0597 93.7497 78.0597 94.6068V97.659H77.1414ZM81.829 97.659V97.2043C81.5142 97.5628 81.0244 97.764 80.4647 97.764C79.7738 97.764 78.9954 97.3005 78.9954 96.3647C78.9954 95.3939 79.7738 94.9916 80.4647 94.9916C81.0332 94.9916 81.5229 95.1753 81.829 95.5338V94.9042C81.829 94.4144 81.4267 94.117 80.8408 94.117C80.3685 94.117 79.9575 94.292 79.5901 94.6505L79.2141 94.0121C79.7038 93.5486 80.316 93.3299 80.9895 93.3299C81.9252 93.3299 82.7473 93.7235 82.7473 94.8604V97.659H81.829ZM81.829 96.697V96.0586C81.6191 95.77 81.2256 95.6213 80.8233 95.6213C80.3073 95.6213 79.9225 95.9186 79.9225 96.3822C79.9225 96.8369 80.3073 97.1343 80.8233 97.1343C81.2256 97.1343 81.6191 96.9856 81.829 96.697ZM85.2056 97.764C84.4972 97.764 84.1211 97.3792 84.1211 96.6795V94.2395H83.4215V93.4349H84.1211V92.2805H85.0394V93.4349H85.8965V94.2395H85.0394V96.4521C85.0394 96.7407 85.1794 96.9506 85.4417 96.9506C85.6166 96.9506 85.7828 96.8807 85.8528 96.802L86.0714 97.4929C85.9052 97.6503 85.6341 97.764 85.2056 97.764ZM86.4686 95.5426C86.4686 94.3182 87.3607 93.3299 88.6113 93.3299C89.8794 93.3299 90.6928 94.3007 90.6928 95.63V95.8487H87.4306C87.5006 96.4871 87.9816 97.0119 88.7775 97.0119C89.1885 97.0119 89.6783 96.8457 89.9756 96.5483L90.3954 97.1518C89.9756 97.5541 89.3547 97.764 88.6813 97.764C87.4131 97.764 86.4686 96.8807 86.4686 95.5426ZM88.6113 94.0821C87.8242 94.0821 87.4656 94.6855 87.4212 95.2015H89.8007C89.7832 94.703 89.4421 94.0821 88.6113 94.0821Z" fill="white"/>
<path d="M166.066 98.3881V92.0278H167.219V94.72H170.166V92.0278H171.321V98.3881H170.166V95.6864H167.219V98.3881H166.066ZM174.605 98.4814C174.139 98.4814 173.736 98.3786 173.394 98.1738C173.053 97.969 172.787 97.6819 172.599 97.3139C172.413 96.9451 172.32 96.5144 172.32 96.0217C172.32 95.529 172.413 95.0968 172.599 94.7266C172.787 94.3556 173.053 94.0678 173.394 93.863C173.736 93.6582 174.139 93.5554 174.605 93.5554C175.072 93.5554 175.475 93.6582 175.816 93.863C176.158 94.0678 176.422 94.3556 176.609 94.7266C176.797 95.0968 176.891 95.529 176.891 96.0217C176.891 96.5144 176.797 96.9451 176.609 97.3139C176.422 97.6819 176.158 97.969 175.816 98.1738C175.475 98.3786 175.072 98.4814 174.605 98.4814ZM174.612 97.5806C174.865 97.5806 175.075 97.5114 175.245 97.3729C175.415 97.2315 175.542 97.0435 175.624 96.8073C175.709 96.5712 175.751 96.3081 175.751 96.0188C175.751 95.7265 175.709 95.4627 175.624 95.2266C175.542 94.9882 175.415 94.7988 175.245 94.6581C175.075 94.5174 174.865 94.4467 174.612 94.4467C174.353 94.4467 174.137 94.5174 173.966 94.6581C173.796 94.7988 173.669 94.9882 173.583 95.2266C173.501 95.4627 173.459 95.7265 173.459 96.0188C173.459 96.3081 173.501 96.5712 173.583 96.8073C173.669 97.0435 173.796 97.2315 173.966 97.3729C174.137 97.5114 174.353 97.5806 174.612 97.5806ZM180.886 96.3817V93.6181H182.01V98.3881H180.92V97.5405H180.871C180.763 97.8073 180.586 98.0259 180.339 98.1957C180.095 98.3655 179.793 98.4501 179.436 98.4501C179.123 98.4501 178.847 98.3808 178.606 98.2424C178.368 98.1017 178.182 97.8976 178.047 97.6302C177.912 97.3612 177.845 97.0362 177.845 96.655V93.6181H178.97V96.4816C178.97 96.7833 179.052 97.0238 179.218 97.2016C179.384 97.3794 179.601 97.4691 179.87 97.4691C180.036 97.4691 180.196 97.4283 180.352 97.3474C180.507 97.2672 180.634 97.147 180.734 96.9874C180.835 96.8263 180.886 96.6244 180.886 96.3817ZM186.936 94.8789L185.912 94.9904C185.883 94.8869 185.832 94.7893 185.759 94.6989C185.689 94.6071 185.594 94.5342 185.474 94.4781C185.353 94.422 185.207 94.3943 185.033 94.3943C184.799 94.3943 184.602 94.4446 184.442 94.5466C184.285 94.6479 184.208 94.7791 184.21 94.9409C184.208 95.0793 184.258 95.1923 184.362 95.279C184.467 95.3665 184.641 95.4379 184.883 95.4933L185.697 95.6675C186.149 95.7651 186.484 95.9189 186.704 96.1303C186.926 96.3416 187.037 96.6178 187.039 96.9597C187.037 97.2599 186.949 97.5245 186.775 97.7548C186.603 97.9822 186.364 98.16 186.058 98.289C185.751 98.4173 185.399 98.4814 185.001 98.4814C184.418 98.4814 183.948 98.359 183.592 98.1148C183.236 97.8685 183.024 97.5259 182.955 97.0865L184.051 96.9815C184.101 97.1965 184.206 97.359 184.368 97.4691C184.53 97.5784 184.74 97.6331 184.999 97.6331C185.266 97.6331 185.48 97.5784 185.641 97.4691C185.805 97.359 185.887 97.2235 185.887 97.0617C185.887 96.9254 185.834 96.8124 185.728 96.7235C185.625 96.6346 185.464 96.5661 185.244 96.5187L184.43 96.3475C183.972 96.2527 183.634 96.0916 183.415 95.8664C183.196 95.6383 183.086 95.3505 183.088 95.0028C183.086 94.7091 183.166 94.454 183.327 94.239C183.491 94.0218 183.718 93.8535 184.008 93.7354C184.3 93.6159 184.636 93.5554 185.018 93.5554C185.577 93.5554 186.016 93.6749 186.337 93.9125C186.66 94.1508 186.86 94.473 186.936 94.8789ZM190.078 98.4814C189.6 98.4814 189.187 98.3815 188.839 98.1833C188.493 97.9822 188.227 97.6987 188.041 97.3321C187.854 96.9633 187.761 96.5297 187.761 96.0312C187.761 95.5399 187.854 95.1092 188.041 94.739C188.229 94.3666 188.492 94.0765 188.829 93.8695C189.167 93.6604 189.564 93.5554 190.019 93.5554C190.313 93.5554 190.591 93.6035 190.852 93.6983C191.114 93.7915 191.346 93.9366 191.547 94.1334C191.75 94.3301 191.909 94.5808 192.025 94.8847C192.141 95.1872 192.199 95.5472 192.199 95.9656V96.3103H188.289V95.5523H191.121C191.12 95.3373 191.073 95.1457 190.982 94.978C190.891 94.8082 190.763 94.6749 190.599 94.5772C190.438 94.4803 190.25 94.4314 190.035 94.4314C189.805 94.4314 189.603 94.4875 189.429 94.5991C189.255 94.7091 189.119 94.8541 189.022 95.0342C188.927 95.212 188.878 95.408 188.876 95.6208V96.2826C188.876 96.5595 188.927 96.7979 189.028 96.9968C189.129 97.1936 189.272 97.3445 189.454 97.4501C189.636 97.5536 189.849 97.6054 190.094 97.6054C190.257 97.6054 190.405 97.5828 190.537 97.5369C190.67 97.4895 190.785 97.4203 190.882 97.3292C190.98 97.2381 191.053 97.1251 191.103 96.9903L192.153 97.1083C192.086 97.386 191.96 97.628 191.774 97.8349C191.589 98.0405 191.354 98.1993 191.066 98.3138C190.778 98.4253 190.449 98.4814 190.078 98.4814Z" fill="black"/>
</g>
<path fill-rule="evenodd" clip-rule="evenodd" d="M117.04 486.016C116.825 486.199 116.718 486.29 116.604 486.367C116.341 486.543 116.046 486.665 115.736 486.726C115.601 486.753 115.46 486.764 115.18 486.786C114.474 486.842 114.121 486.871 113.826 486.975C113.146 487.216 112.61 487.751 112.37 488.432C112.265 488.726 112.238 489.079 112.182 489.785C112.159 490.066 112.147 490.206 112.121 490.341C112.06 490.651 111.937 490.946 111.762 491.209C111.684 491.323 111.593 491.431 111.41 491.645C110.951 492.184 110.722 492.453 110.587 492.735C110.276 493.386 110.276 494.144 110.587 494.796C110.722 495.077 110.951 495.347 111.41 495.885C111.593 496.1 111.684 496.208 111.762 496.322C111.937 496.584 112.06 496.879 112.121 497.189C112.147 497.324 112.159 497.465 112.182 497.746C112.238 498.452 112.265 498.804 112.37 499.099C112.61 499.779 113.146 500.315 113.826 500.556C114.121 500.66 114.474 500.687 115.18 500.744C115.46 500.766 115.601 500.778 115.736 500.805C116.046 500.866 116.341 500.988 116.604 501.164C116.718 501.241 116.825 501.332 117.04 501.515C117.579 501.974 117.848 502.203 118.13 502.338C118.782 502.649 119.539 502.649 120.19 502.338C120.472 502.203 120.741 501.974 121.28 501.515C121.495 501.332 121.602 501.241 121.716 501.164C121.979 500.988 122.274 500.866 122.584 500.805C122.719 500.778 122.86 500.766 123.141 500.744C123.846 500.687 124.199 500.66 124.493 500.556C125.175 500.315 125.71 499.779 125.951 499.099C126.054 498.804 126.083 498.452 126.139 497.746C126.161 497.465 126.172 497.324 126.199 497.189C126.261 496.879 126.382 496.584 126.559 496.322C126.635 496.208 126.727 496.1 126.909 495.885C127.368 495.347 127.598 495.077 127.733 494.796C128.044 494.144 128.044 493.386 127.733 492.735C127.598 492.453 127.368 492.184 126.909 491.645C126.727 491.431 126.635 491.323 126.559 491.209C126.382 490.946 126.261 490.651 126.199 490.341C126.172 490.206 126.161 490.066 126.139 489.785C126.083 489.079 126.054 488.726 125.951 488.432C125.71 487.751 125.175 487.216 124.493 486.975C124.199 486.871 123.846 486.842 123.141 486.786C122.86 486.764 122.719 486.753 122.584 486.726C122.274 486.665 121.979 486.543 121.716 486.367C121.602 486.29 121.495 486.199 121.28 486.016C120.741 485.557 120.472 485.327 120.19 485.192C119.539 484.881 118.782 484.881 118.13 485.192C117.848 485.327 117.579 485.557 117.04 486.016ZM123.012 491.884C123.291 491.604 123.291 491.15 123.012 490.87C122.732 490.59 122.278 490.59 121.998 490.87L117.727 495.141L116.322 493.737C116.042 493.457 115.589 493.457 115.309 493.737C115.029 494.017 115.029 494.47 115.309 494.751L117.22 496.662C117.5 496.941 117.954 496.941 118.234 496.662L123.012 491.884Z" fill="black"/>
<path d="M259.142 134.109C258.9 134.082 258.637 134.12 258.372 134.225C258.044 134.354 252.905 136.516 248.114 138.532L246.532 139.199C245.919 139.447 245.609 139.852 245.609 140.396C245.609 140.777 245.77 141.294 246.54 141.599L249.212 142.669C249.443 143.362 249.98 144.971 250.115 145.399C250.195 145.653 250.397 146.292 250.909 146.441C251.013 146.477 251.124 146.495 251.235 146.495C251.558 146.495 251.79 146.345 251.904 146.258L253.602 144.821L255.665 146.729C255.744 146.809 256.165 147.218 256.729 147.218C257.434 147.218 257.968 146.632 258.08 146.064C258.14 145.753 260.13 135.767 260.13 135.768C260.309 134.967 259.987 134.552 259.781 134.375C259.605 134.223 259.385 134.134 259.142 134.109ZM258.659 135.683C258.385 137.06 256.887 144.579 256.659 145.662L253.644 142.874L251.599 144.606L252.166 142.39C252.166 142.39 256.074 138.434 256.31 138.204C256.499 138.019 256.539 137.955 256.539 137.89C256.539 137.805 256.495 137.744 256.393 137.744C256.302 137.744 256.178 137.831 256.113 137.872C255.28 138.392 251.731 140.413 249.985 141.406L247.451 140.395L248.681 139.878C251.814 138.559 257.394 136.209 258.659 135.683Z" fill="black"/>
<path d="M228.844 144.995L232.488 143.428L236.132 144.995V135.557H228.844V144.995ZM227.387 147.218V135.557C227.387 135.156 227.53 134.813 227.815 134.527C228.1 134.242 228.443 134.1 228.844 134.1H236.132C236.533 134.1 236.876 134.242 237.162 134.527C237.447 134.813 237.59 135.156 237.59 135.557V147.218L232.488 145.032L227.387 147.218Z" fill="black"/>
</g>
<defs>
<filter id="filter0_d_783_2371" x="8.01613" y="76.5235" width="234.675" height="42.2706" filterUnits="userSpaceOnUse" color-interpolation-filters="sRGB">
<feFlood flood-opacity="0" result="BackgroundImageFix"/>
<feColorMatrix in="SourceAlpha" type="matrix" values="0 0 0 0 0 0 0 0 0 0 0 0 0 0 0 0 0 0 127 0" result="hardAlpha"/>
<feOffset dx="0.728804" dy="2.18641"/>
<feGaussianBlur stdDeviation="2.18641"/>
<feComposite in2="hardAlpha" operator="out"/>
<feColorMatrix type="matrix" values="0 0 0 0 0 0 0 0 0 0 0 0 0 0 0 0 0 0 0.1 0"/>
<feBlend mode="normal" in2="BackgroundImageFix" result="effect1_dropShadow_783_2371"/>
<feBlend mode="normal" in="SourceGraphic" in2="effect1_dropShadow_783_2371" result="shape"/>
</filter>
</defs>
</svg>
