<svg width="285" height="616" viewBox="0 0 285 616" fill="none" xmlns="http://www.w3.org/2000/svg">
<mask id="mask0_783_2314" style="mask-type:luminance" maskUnits="userSpaceOnUse" x="0" y="0" width="285" height="616">
<path d="M284.635 0H0V615.979H284.635V0Z" fill="white"/>
</mask>
<g mask="url(#mask0_783_2314)">
<path d="M284.635 0H0V615.979H284.635V0Z" fill="white"/>
<mask id="mask1_783_2314" style="mask-type:luminance" maskUnits="userSpaceOnUse" x="0" y="-1" width="285" height="34">
<path d="M284.635 -0.000976562H0V32.1117H284.635V-0.000976562Z" fill="white"/>
</mask>
<g mask="url(#mask1_783_2314)">
<path opacity="0.35" d="M258.117 13.0161H270.28C271.154 13.0161 271.862 13.7243 271.862 14.5977V18.9764C271.862 19.85 271.154 20.5572 270.28 20.5572H258.117C257.243 20.5572 256.535 19.85 256.535 18.9764V14.5977L256.543 14.4359C256.624 13.6384 257.298 13.0161 258.117 13.0161Z" fill="black" stroke="black" stroke-width="0.729833"/>
<path opacity="0.4" d="M272.957 15.3271V18.2465C273.545 17.9992 273.926 17.424 273.926 16.7868C273.926 16.1496 273.545 15.5744 272.957 15.3271Z" fill="black"/>
<path d="M257.629 15.0844C257.629 14.547 258.065 14.1113 258.602 14.1113H269.793C270.33 14.1113 270.766 14.547 270.766 15.0844V18.49C270.766 19.0279 270.33 19.4636 269.793 19.4636H258.602C258.065 19.4636 257.629 19.0279 257.629 18.49V15.0844Z" fill="black"/>
<path d="M245.312 18.7802C246.243 17.993 247.607 17.993 248.538 18.7802C248.584 18.8226 248.611 18.8824 248.613 18.9459C248.614 19.0087 248.589 19.07 248.544 19.1138L247.087 20.5851C247.044 20.6282 246.986 20.653 246.925 20.653C246.864 20.653 246.806 20.6282 246.763 20.5851L245.305 19.1138C245.26 19.07 245.235 19.0087 245.237 18.9459C245.238 18.8824 245.265 18.8226 245.312 18.7802ZM243.367 16.8176C245.373 14.9521 248.478 14.9521 250.484 16.8176C250.529 16.8613 250.556 16.9215 250.556 16.9843C250.557 17.0473 250.532 17.1079 250.488 17.1526L249.645 18.0043C249.559 18.0912 249.418 18.0931 249.329 18.0085C248.67 17.4122 247.814 17.082 246.925 17.082C246.037 17.0824 245.18 17.4125 244.522 18.0085C244.433 18.0931 244.293 18.0912 244.206 18.0043L243.364 17.1526C243.319 17.108 243.294 17.0472 243.295 16.9843C243.296 16.9215 243.321 16.8612 243.367 16.8176ZM241.422 14.8605C244.499 11.9125 249.352 11.9123 252.428 14.8605C252.472 14.9042 252.498 14.9641 252.498 15.0265C252.498 15.089 252.474 15.149 252.429 15.1933L251.585 16.045C251.498 16.1322 251.358 16.1331 251.27 16.0471C250.098 14.9329 248.542 14.3117 246.925 14.3116C245.307 14.3116 243.751 14.9328 242.579 16.0471C242.492 16.1332 242.351 16.1323 242.264 16.045L241.419 15.1933C241.376 15.1489 241.351 15.089 241.352 15.0265C241.352 14.9641 241.377 14.9042 241.422 14.8605Z" fill="black"/>
<path d="M226.733 17.7598C227.136 17.7598 227.463 18.0866 227.463 18.49V19.9496C227.462 20.3525 227.136 20.6795 226.733 20.6795H226.003C225.6 20.6795 225.273 20.3525 225.273 19.9496V18.49C225.273 18.0866 225.6 17.7598 226.003 17.7598H226.733ZM230.139 16.3002C230.542 16.3003 230.869 16.627 230.869 17.03V19.9496C230.868 20.3525 230.542 20.6787 230.139 20.6795H229.409C229.006 20.6795 228.68 20.3525 228.68 19.9496V17.03C228.68 16.6269 229.006 16.3002 229.409 16.3002H230.139ZM233.545 14.5967C233.948 14.5967 234.274 14.9236 234.274 15.3266V19.9496C234.274 20.3525 233.948 20.6795 233.545 20.6795H232.815C232.412 20.6787 232.085 20.3525 232.085 19.9496V15.3266C232.085 14.9237 232.412 14.5969 232.815 14.5967H233.545ZM236.951 12.894C237.354 12.894 237.681 13.2208 237.681 13.6239V19.9496C237.68 20.3525 237.354 20.6795 236.951 20.6795H236.221C235.817 20.6795 235.491 20.3525 235.491 19.9496V13.6239C235.491 13.2208 235.817 12.894 236.221 12.894H236.951Z" fill="black"/>
<path d="M27.237 20.6225C29.1988 20.6225 30.3636 19.0884 30.3636 16.4907C30.3636 15.5125 30.1768 14.6894 29.8185 14.0532C29.3003 13.0643 28.4077 12.5298 27.2794 12.5298C25.6008 12.5298 24.4141 13.6577 24.4141 15.2399C24.4141 16.726 25.4833 17.8057 26.9532 17.8057C27.8567 17.8057 28.5894 17.3835 28.9529 16.6511H28.9689C28.9689 16.6511 28.9901 16.6511 28.9952 16.6511C29.0062 16.6511 29.0434 16.6511 29.0434 16.6511C29.0434 18.4148 28.3756 19.4679 27.2473 19.4679C26.5846 19.4679 26.0715 19.1045 25.8949 18.5221H24.5213C24.7512 19.7891 25.8255 20.6225 27.237 20.6225ZM27.2852 16.7099C26.3978 16.7099 25.7672 16.0792 25.7672 15.1972C25.7672 14.3366 26.4298 13.6791 27.2903 13.6791C28.1508 13.6791 28.8135 14.3472 28.8135 15.2186C28.8135 16.0792 28.1669 16.7099 27.2852 16.7099Z" fill="black"/>
<path d="M32.6202 20.5485C33.1282 20.5485 33.4756 20.1851 33.4756 19.7041C33.4756 19.2173 33.1282 18.859 32.6202 18.859C32.1181 18.859 31.7656 19.2173 31.7656 19.7041C31.7656 20.1851 32.1181 20.5485 32.6202 20.5485ZM32.6202 16.5393C33.1282 16.5393 33.4756 16.1811 33.4756 15.7C33.4756 15.2136 33.1282 14.8555 32.6202 14.8555C32.1181 14.8555 31.7656 15.2136 31.7656 15.7C31.7656 16.1811 32.1181 16.5393 32.6202 16.5393Z" fill="black"/>
<path d="M38.4791 20.4356H39.7994V18.9979H40.8416V17.8324H39.7994V12.7222H37.8536C36.4903 14.7748 35.4057 16.4907 34.7109 17.7682V18.9979H38.4791V20.4356ZM35.9881 17.7843C36.8858 16.202 37.6879 14.9352 38.4258 13.8447H38.5002V17.8645H35.9881V17.7843Z" fill="black"/>
<path d="M43.7814 20.4356H45.1608V12.7222H43.7865L41.7715 14.1333V15.459L43.6902 14.1119H43.7814V20.4356Z" fill="black"/>
</g>
<path d="M20.9922 97.0687V86.4533H24.9727C25.7886 86.4533 26.4725 86.6051 27.0257 86.9094C27.5819 87.213 28.0015 87.6312 28.2854 88.1633C28.5722 88.6924 28.7153 89.2938 28.7153 89.9674C28.7153 90.6483 28.5722 91.2526 28.2854 91.7818C27.9986 92.3102 27.5753 92.7269 27.0155 93.0305C26.4557 93.3312 25.766 93.4815 24.9472 93.4815H22.3088V91.9007H24.6881C25.1647 91.9007 25.5551 91.8175 25.8594 91.6519C26.1631 91.4862 26.3878 91.2577 26.5331 90.968C26.682 90.6775 26.7564 90.344 26.7564 89.9674C26.7564 89.5908 26.682 89.2587 26.5331 88.9719C26.3878 88.6851 26.1616 88.4625 25.8543 88.3034C25.55 88.1414 25.1581 88.0596 24.6771 88.0596H22.9153V97.0687H20.9922ZM30.3027 97.0687V89.1069H32.1221V90.4338H32.2054C32.3506 89.974 32.5995 89.62 32.952 89.3711C33.3074 89.1186 33.7139 88.9931 34.17 88.9931C34.2737 88.9931 34.389 88.9982 34.5167 89.0084C34.6481 89.015 34.7568 89.0274 34.8437 89.0449V90.7709C34.7641 90.7432 34.6379 90.7191 34.4649 90.698C34.2956 90.6739 34.1314 90.6622 33.973 90.6622C33.6307 90.6622 33.3227 90.7359 33.0498 90.8848C32.7804 91.03 32.5681 91.2322 32.4126 91.4913C32.2572 91.7504 32.1791 92.0496 32.1791 92.3883V97.0687H30.3027ZM39.2351 97.2241C38.4578 97.2241 37.7842 97.0533 37.2135 96.7111C36.6435 96.3688 36.2012 95.89 35.8866 95.2755C35.5757 94.6602 35.4202 93.9413 35.4202 93.1188C35.4202 92.2963 35.5757 91.576 35.8866 90.9571C36.2012 90.3389 36.6435 89.8586 37.2135 89.5164C37.7842 89.1741 38.4578 89.0033 39.2351 89.0033C40.0131 89.0033 40.6867 89.1741 41.2567 89.5164C41.8267 89.8586 42.2676 90.3389 42.5785 90.9571C42.893 91.576 43.0507 92.2963 43.0507 93.1188C43.0507 93.9413 42.893 94.6602 42.5785 95.2755C42.2676 95.89 41.8267 96.3688 41.2567 96.7111C40.6867 97.0533 40.0131 97.2241 39.2351 97.2241ZM39.2453 95.7207C39.6672 95.7207 40.0197 95.6054 40.3028 95.374C40.5867 95.139 40.7969 94.8244 40.9356 94.4303C41.0772 94.0362 41.148 93.5976 41.148 93.1137C41.148 92.6262 41.0772 92.1861 40.9356 91.792C40.7969 91.3942 40.5867 91.0782 40.3028 90.8432C40.0197 90.6082 39.6672 90.4907 39.2453 90.4907C38.814 90.4907 38.4542 90.6082 38.1674 90.8432C37.8842 91.0782 37.6718 91.3942 37.5302 91.792C37.3915 92.1861 37.3222 92.6262 37.3222 93.1137C37.3222 93.5976 37.3915 94.0362 37.5302 94.4303C37.6718 94.8244 37.8842 95.139 38.1674 95.374C38.4542 95.6054 38.814 95.7207 39.2453 95.7207ZM48.6755 89.1069V90.5586H43.9688V89.1069H48.6755ZM45.146 97.0687V88.3552C45.146 87.8195 45.2562 87.3736 45.4774 87.0181C45.7022 86.662 46.0028 86.3956 46.3794 86.2197C46.756 86.0431 47.1742 85.9555 47.634 85.9555C47.9588 85.9555 48.2471 85.981 48.4996 86.0329C48.7514 86.0847 48.9382 86.1314 49.0594 86.173L48.6857 87.6246C48.6069 87.6005 48.5062 87.5757 48.3857 87.5517C48.2646 87.5239 48.1296 87.51 47.9814 87.51C47.6318 87.51 47.3851 87.5947 47.2399 87.764C47.0983 87.9304 47.0275 88.1684 47.0275 88.48V97.0687H45.146ZM50.1454 97.0687V89.1069H52.0218V97.0687H50.1454ZM51.0883 87.9771C50.7913 87.9771 50.5358 87.8786 50.3212 87.6816C50.1074 87.4809 50.0001 87.2407 50.0001 86.9612C50.0001 86.6773 50.1074 86.4372 50.3212 86.2401C50.5358 86.0402 50.7913 85.9395 51.0883 85.9395C51.389 85.9395 51.6452 86.0402 51.8554 86.2401C52.07 86.4372 52.1772 86.6773 52.1772 86.9612C52.1772 87.2407 52.07 87.4809 51.8554 87.6816C51.6452 87.8786 51.389 87.9771 51.0883 87.9771ZM55.8279 86.4533V97.0687H53.9514V86.4533H55.8279ZM61.2819 97.2241C60.4834 97.2241 59.7945 97.0585 59.2135 96.7264C58.6362 96.3914 58.1925 95.9177 57.8816 95.3061C57.5707 94.6909 57.4152 93.9669 57.4152 93.1341C57.4152 92.3153 57.5707 91.5964 57.8816 90.9782C58.1961 90.3564 58.6348 89.8725 59.1982 89.5266C59.7617 89.1777 60.4229 89.0033 61.1833 89.0033C61.6738 89.0033 62.1372 89.0828 62.5722 89.2419C63.0116 89.3974 63.3984 89.639 63.7334 89.9674C64.072 90.2958 64.3384 90.714 64.5318 91.222C64.7252 91.7263 64.8223 92.3277 64.8223 93.0254V93.6012H58.2961V92.3364H63.0233C63.0204 91.9766 62.9423 91.657 62.7905 91.3774C62.6379 91.0935 62.4255 90.8709 62.1526 90.7089C61.8833 90.5462 61.5687 90.4651 61.2096 90.4651C60.8257 90.4651 60.4885 90.5586 60.1988 90.7447C59.9083 90.9279 59.6821 91.1702 59.5193 91.4709C59.3602 91.7679 59.2792 92.0941 59.2756 92.4503V93.5545C59.2756 94.0172 59.3602 94.415 59.5295 94.7463C59.6989 95.0748 59.9361 95.3273 60.2397 95.5032C60.544 95.6761 60.9002 95.7623 61.3074 95.7623C61.5811 95.7623 61.8278 95.7243 62.049 95.6484C62.2701 95.5689 62.4621 95.4528 62.6241 95.301C62.7868 95.1492 62.9094 94.9609 62.9926 94.7361L64.7442 94.9332C64.634 95.3959 64.4231 95.8002 64.1122 96.1462C63.8042 96.4885 63.4108 96.7541 62.9298 96.9446C62.4496 97.1307 61.9008 97.2241 61.2819 97.2241Z" fill="black"/>
<path d="M87.9336 62.0361V49.2969H92.8103C93.7307 49.2969 94.4963 49.4421 95.1057 49.7326C95.7195 50.0187 96.1778 50.4106 96.4807 50.9084C96.7872 51.4061 96.9405 51.9695 96.9405 52.6001C96.9405 53.1183 96.8412 53.562 96.642 53.9313C96.4427 54.2962 96.1756 54.5925 95.8399 54.821C95.5034 55.0487 95.1283 55.2129 94.7138 55.3122V55.4362C95.1655 55.461 95.5991 55.6004 96.0136 55.853C96.4325 56.1018 96.7748 56.4544 97.0405 56.9105C97.3054 57.3666 97.4382 57.9184 97.4382 58.565C97.4382 59.2248 97.2784 59.8174 96.9594 60.3444C96.6398 60.8669 96.1588 61.2793 95.5166 61.5822C94.8736 61.885 94.065 62.0361 93.0906 62.0361H87.9336ZM90.2414 60.1079H92.7235C93.5614 60.1079 94.1642 59.9481 94.5335 59.6291C94.9064 59.3058 95.0933 58.8905 95.0933 58.3848C95.0933 58.0074 94.9999 57.6673 94.813 57.3645C94.6269 57.0579 94.3612 56.8171 94.0175 56.6434C93.673 56.4646 93.2621 56.3755 92.7855 56.3755H90.2414V60.1079ZM90.2414 54.7152H92.5243C92.9228 54.7152 93.2811 54.6422 93.6008 54.4969C93.9197 54.3481 94.1708 54.1386 94.3532 53.8693C94.5393 53.5956 94.6327 53.2715 94.6327 52.8986C94.6327 52.4052 94.459 51.9987 94.1102 51.6798C93.7664 51.3601 93.2541 51.2003 92.5739 51.2003H90.2414V54.7152ZM107.476 49.2969H109.784V57.6199C109.784 58.5322 109.568 59.3343 109.137 60.0269C108.71 60.7195 108.108 61.2603 107.333 61.6508C106.558 62.0361 105.652 62.2288 104.615 62.2288C103.574 62.2288 102.666 62.0361 101.89 61.6508C101.115 61.2603 100.514 60.7195 100.087 60.0269C99.6591 59.3343 99.446 58.5322 99.446 57.6199V49.2969H101.754V57.4272C101.754 57.9578 101.87 58.4307 102.102 58.8453C102.338 59.2598 102.67 59.5853 103.097 59.8218C103.524 60.0539 104.03 60.1699 104.615 60.1699C105.199 60.1699 105.705 60.0539 106.133 59.8218C106.564 59.5853 106.895 59.2598 107.127 58.8453C107.36 58.4307 107.476 57.9578 107.476 57.4272V49.2969ZM122.761 49.2969V62.0361H120.708L114.705 53.3591H114.6V62.0361H112.292V49.2969H114.357L120.354 57.9804H120.465V49.2969H122.761ZM125.275 62.0361V49.2969H127.583V55.1501H127.738L132.708 49.2969H135.526L130.6 55.0137L135.569 62.0361H132.795L128.995 56.5748L127.583 58.2417V62.0361H125.275ZM137.129 62.0361V49.2969H142.005C142.927 49.2969 143.691 49.4421 144.301 49.7326C144.915 50.0187 145.373 50.4106 145.676 50.9084C145.982 51.4061 146.136 51.9695 146.136 52.6001C146.136 53.1183 146.036 53.562 145.837 53.9313C145.639 54.2962 145.371 54.5925 145.035 54.821C144.699 55.0487 144.324 55.2129 143.909 55.3122V55.4362C144.361 55.461 144.794 55.6004 145.209 55.853C145.628 56.1018 145.97 56.4544 146.236 56.9105C146.501 57.3666 146.633 57.9184 146.633 58.565C146.633 59.2248 146.474 59.8174 146.155 60.3444C145.836 60.8669 145.354 61.2793 144.712 61.5822C144.069 61.885 143.26 62.0361 142.286 62.0361H137.129ZM139.437 60.1079H141.919C142.757 60.1079 143.359 59.9481 143.729 59.6291C144.102 59.3058 144.288 58.8905 144.288 58.3848C144.288 58.0074 144.195 57.6673 144.009 57.3645C143.822 57.0579 143.556 56.8171 143.213 56.6434C142.868 56.4646 142.458 56.3755 141.981 56.3755H139.437V60.1079ZM139.437 54.7152H141.719C142.118 54.7152 142.476 54.6422 142.796 54.4969C143.115 54.3481 143.366 54.1386 143.548 53.8693C143.735 53.5956 143.829 53.2715 143.829 52.8986C143.829 52.4052 143.654 51.9987 143.306 51.6798C142.962 51.3601 142.449 51.2003 141.77 51.2003H139.437V54.7152ZM156.672 49.2969H158.979V57.6199C158.979 58.5322 158.763 59.3343 158.332 60.0269C157.905 60.7195 157.304 61.2603 156.528 61.6508C155.753 62.0361 154.847 62.2288 153.81 62.2288C152.769 62.2288 151.861 62.0361 151.085 61.6508C150.31 61.2603 149.709 60.7195 149.282 60.0269C148.855 59.3343 148.641 58.5322 148.641 57.6199V49.2969H150.949V57.4272C150.949 57.9578 151.065 58.4307 151.297 58.8453C151.533 59.2598 151.866 59.5853 152.293 59.8218C152.719 60.0539 153.225 60.1699 153.81 60.1699C154.395 60.1699 154.901 60.0539 155.328 59.8218C155.759 59.5853 156.091 59.2598 156.323 58.8453C156.555 58.4307 156.672 57.9578 156.672 57.4272V49.2969ZM165.804 62.0361H161.488V49.2969H165.891C167.156 49.2969 168.242 49.5523 169.151 50.0625C170.063 50.5682 170.764 51.2959 171.253 52.2454C171.743 53.1949 171.987 54.3313 171.987 55.6545C171.987 56.9813 171.74 58.1213 171.247 59.0752C170.757 60.0291 170.051 60.7611 169.125 61.2712C168.205 61.7814 167.098 62.0361 165.804 62.0361ZM163.795 60.0393H165.692C166.58 60.0393 167.32 59.878 167.913 59.554C168.506 59.227 168.952 58.7395 169.25 58.0928C169.549 57.4418 169.698 56.6288 169.698 55.6545C169.698 54.6794 169.549 53.8707 169.25 53.2285C168.952 52.5811 168.51 52.0987 167.926 51.779C167.345 51.4557 166.623 51.2937 165.761 51.2937H163.795V60.0393ZM178.496 62.0361H174.179V49.2969H178.583C179.848 49.2969 180.935 49.5523 181.843 50.0625C182.755 50.5682 183.456 51.2959 183.945 52.2454C184.434 53.1949 184.68 54.3313 184.68 55.6545C184.68 56.9813 184.432 58.1213 183.939 59.0752C183.45 60.0291 182.743 60.7611 181.818 61.2712C180.898 61.7814 179.79 62.0361 178.496 62.0361ZM176.487 60.0393H178.385C179.271 60.0393 180.012 59.878 180.605 59.554C181.198 59.227 181.643 58.7395 181.943 58.0928C182.241 57.4418 182.39 56.6288 182.39 55.6545C182.39 54.6794 182.241 53.8707 181.943 53.2285C181.643 52.5811 181.202 52.0987 180.617 51.779C180.037 51.4557 179.315 51.2937 178.453 51.2937H176.487V60.0393ZM185.282 49.2969H187.889L191.005 54.9326H191.13L194.246 49.2969H196.852L192.218 57.2842V62.0361H189.917V57.2842L185.282 49.2969Z" fill="black"/>
<path d="M284.635 564.892H0V615.98H284.635V564.892Z" fill="white"/>
<mask id="mask2_783_2314" style="mask-type:luminance" maskUnits="userSpaceOnUse" x="19" y="576" width="19" height="19">
<path d="M37.2211 576.567H19.7051V594.083H37.2211V576.567Z" fill="white"/>
</mask>
<g mask="url(#mask2_783_2314)">
<path d="M31.0174 586.786H30.4409L30.2365 586.589C30.9518 585.757 31.3824 584.677 31.3824 583.502C31.3824 580.882 29.2585 578.758 26.6384 578.758C24.0183 578.758 21.8945 580.882 21.8945 583.502C21.8945 586.122 24.0183 588.246 26.6384 588.246C27.8135 588.246 28.8936 587.815 29.7256 587.1L29.9227 587.304V587.881L33.5719 591.523L34.6593 590.435L31.0174 586.786ZM26.6384 586.786C24.8212 586.786 23.3542 585.319 23.3542 583.502C23.3542 581.684 24.8212 580.217 26.6384 580.217C28.4557 580.217 29.9227 581.684 29.9227 583.502C29.9227 585.319 28.4557 586.786 26.6384 586.786Z" fill="#BDBDBD"/>
</g>
<path d="M15.9102 602.113V596.805H19.2382V597.494H16.7108V599.112H19.0645V599.798H16.7108V601.423H19.2688V602.113H15.9102ZM20.857 598.132L21.7357 599.682L22.6224 598.132H23.4697L22.2283 600.123L23.48 602.113H22.6326L21.7357 600.625L20.8417 602.113H19.9914L21.2306 600.123L20.0067 598.132H20.857ZM24.2653 603.605V598.132H25.0221V598.777H25.0871C25.1316 598.694 25.1965 598.599 25.2812 598.49C25.3658 598.38 25.4834 598.286 25.6337 598.205C25.7841 598.121 25.9826 598.08 26.23 598.08C26.5511 598.08 26.8379 598.161 27.0904 598.323C27.3422 598.486 27.5401 598.721 27.6838 599.026C27.8291 599.332 27.9013 599.7 27.9013 600.13C27.9013 600.56 27.8298 600.929 27.686 601.237C27.543 601.543 27.3459 601.778 27.0956 601.944C26.8452 602.108 26.5591 602.191 26.2373 602.191C25.9957 602.191 25.7979 602.15 25.6439 602.069C25.4921 601.987 25.3732 601.892 25.2863 601.784C25.2002 601.675 25.1338 601.578 25.0871 601.493H25.0404V603.605H24.2653ZM25.0243 600.123C25.0243 600.402 25.0652 600.647 25.1462 600.858C25.2279 601.069 25.3454 601.234 25.4987 601.354C25.6527 601.471 25.841 601.53 26.0636 601.53C26.2957 601.53 26.4891 601.468 26.6445 601.346C26.8 601.221 26.9175 601.053 26.997 600.84C27.078 600.628 27.1189 600.388 27.1189 600.123C27.1189 599.86 27.0788 599.624 26.9992 599.415C26.9219 599.206 26.8044 599.041 26.6467 598.92C26.4913 598.799 26.2971 598.738 26.0636 598.738C25.8395 598.738 25.649 598.796 25.4936 598.912C25.3403 599.028 25.2235 599.189 25.144 599.396C25.0644 599.604 25.0243 599.846 25.0243 600.123ZM29.5449 596.805V602.113H28.7698V596.805H29.5449ZM32.2642 602.193C31.8906 602.193 31.5651 602.108 31.287 601.937C31.0089 601.765 30.7929 601.526 30.6389 601.219C30.4849 600.911 30.4083 600.552 30.4083 600.141C30.4083 599.728 30.4849 599.366 30.6389 599.057C30.7929 598.748 31.0089 598.507 31.287 598.337C31.5651 598.166 31.8906 598.08 32.2642 598.08C32.6372 598.08 32.9627 598.166 33.2408 598.337C33.5195 598.507 33.7356 598.748 33.8888 599.057C34.0428 599.366 34.1195 599.728 34.1195 600.141C34.1195 600.552 34.0428 600.911 33.8888 601.219C33.7356 601.526 33.5195 601.765 33.2408 601.937C32.9627 602.108 32.6372 602.193 32.2642 602.193ZM32.2665 601.543C32.5088 601.543 32.7087 601.479 32.8678 601.351C33.0269 601.223 33.1444 601.053 33.2204 600.84C33.2984 600.628 33.3371 600.393 33.3371 600.138C33.3371 599.884 33.2984 599.65 33.2204 599.438C33.1444 599.224 33.0269 599.052 32.8678 598.923C32.7087 598.793 32.5088 598.728 32.2665 598.728C32.0227 598.728 31.8205 598.793 31.66 598.923C31.5009 599.052 31.3826 599.224 31.3053 599.438C31.2293 599.65 31.1914 599.884 31.1914 600.138C31.1914 600.393 31.2293 600.628 31.3053 600.84C31.3826 601.053 31.5009 601.223 31.66 601.351C31.8205 601.479 32.0227 601.543 32.2665 601.543ZM34.9844 602.113V598.132H35.7339V598.764H35.7755C35.8477 598.55 35.9755 598.382 36.1587 598.259C36.3433 598.134 36.5528 598.072 36.7863 598.072C36.8345 598.072 36.8914 598.074 36.9571 598.078C37.0242 598.081 37.0768 598.086 37.1155 598.091V598.831C37.0841 598.823 37.0286 598.813 36.949 598.803C36.8695 598.791 36.7899 598.785 36.7111 598.785C36.5279 598.785 36.3644 598.824 36.2207 598.901C36.0791 598.977 35.9667 599.084 35.8842 599.22C35.801 599.355 35.7594 599.509 35.7594 599.682V602.113H34.9844ZM39.3589 602.193C38.967 602.193 38.6291 602.109 38.3452 601.942C38.0642 601.773 37.846 601.535 37.6928 601.229C37.5402 600.922 37.4643 600.561 37.4643 600.148C37.4643 599.741 37.5402 599.381 37.6928 599.07C37.846 598.759 38.0606 598.516 38.335 598.342C38.6116 598.167 38.9349 598.08 39.3042 598.08C39.529 598.08 39.7465 598.117 39.9574 598.191C40.1683 598.266 40.3574 598.383 40.5252 598.542C40.6931 598.7 40.8252 598.907 40.9215 599.161C41.0186 599.413 41.0668 599.72 41.0668 600.081V600.355H37.9022V599.775H40.3078C40.3078 599.571 40.2661 599.39 40.1829 599.234C40.1005 599.074 39.9837 598.949 39.8334 598.858C39.6845 598.766 39.51 598.72 39.3093 598.72C39.0918 598.72 38.9021 598.774 38.7393 598.881C38.5788 598.986 38.4547 599.125 38.3664 599.296C38.2795 599.465 38.2365 599.649 38.2365 599.847V600.301C38.2365 600.567 38.2832 600.793 38.3766 600.98C38.4715 601.167 38.6036 601.309 38.7729 601.408C38.9422 601.505 39.14 601.553 39.367 601.553C39.5137 601.553 39.6473 601.533 39.7684 601.491C39.8896 601.448 39.9939 601.384 40.0822 601.299C40.1698 601.214 40.2377 601.11 40.2844 600.985L41.0179 601.117C40.9587 601.333 40.8537 601.523 40.7011 601.685C40.5508 601.846 40.3617 601.971 40.134 602.061C39.9078 602.149 39.6494 602.193 39.3589 602.193Z" fill="#BDBDBD"/>
<path d="M82.4767 589.658C83.3335 590.152 84.3283 590.436 85.3894 590.436C88.6138 590.436 91.2281 587.821 91.2281 584.597C91.2281 581.373 88.6138 578.758 85.3894 578.758C82.165 578.758 79.5508 581.373 79.5508 584.597C79.5508 585.657 79.834 586.652 80.3281 587.51L80.3302 587.513C80.3777 587.596 80.4018 587.637 80.4127 587.676C80.423 587.713 80.4259 587.747 80.4229 587.786C80.42 587.826 80.4061 587.87 80.3777 587.955L79.8792 589.451L79.8785 589.453C79.7734 589.769 79.7208 589.926 79.7581 590.032C79.7909 590.123 79.8632 590.196 79.9551 590.228C80.0602 590.266 80.2171 590.214 80.5317 590.109L80.5353 590.107L82.0315 589.609C82.1169 589.58 82.1599 589.566 82.2015 589.563C82.2395 589.561 82.2731 589.563 82.3096 589.574C82.349 589.585 82.3906 589.609 82.4738 589.657L82.4767 589.658Z" stroke="#BDBDBD" stroke-width="1.45967" stroke-linecap="round" stroke-linejoin="round"/>
<path d="M79.7977 598.531H78.9898C78.9584 598.358 78.9008 598.206 78.8161 598.075C78.7314 597.943 78.6278 597.832 78.5045 597.74C78.3819 597.649 78.2446 597.58 78.0928 597.533C77.9425 597.486 77.7827 597.463 77.6133 597.463C77.3075 597.463 77.0338 597.54 76.7915 597.694C76.5514 597.848 76.3617 598.073 76.2216 598.37C76.0836 598.667 76.0143 599.031 76.0143 599.459C76.0143 599.89 76.0836 600.255 76.2216 600.552C76.3617 600.849 76.5522 601.074 76.7945 601.227C77.036 601.379 77.3082 601.454 77.6104 601.454C77.7783 601.454 77.9374 601.432 78.0877 601.387C78.2395 601.341 78.3767 601.272 78.4993 601.182C78.622 601.092 78.7263 600.983 78.811 600.853C78.8971 600.722 78.9569 600.571 78.9898 600.402L79.7977 600.405C79.7547 600.665 79.6707 600.906 79.5467 601.125C79.424 601.343 79.2657 601.531 79.0722 601.69C78.8803 601.848 78.6614 601.97 78.414 602.056C78.1673 602.142 77.8973 602.185 77.6053 602.185C77.1455 602.185 76.7361 602.076 76.377 601.859C76.0179 601.639 75.734 601.326 75.5267 600.918C75.3209 600.51 75.2188 600.024 75.2188 599.459C75.2188 598.892 75.3224 598.406 75.5297 597.999C75.737 597.592 76.0201 597.279 76.3799 597.062C76.739 596.842 77.1477 596.732 77.6053 596.732C77.887 596.732 78.1497 596.773 78.3935 596.854C78.6387 596.934 78.8592 597.051 79.054 597.207C79.2496 597.36 79.4109 597.548 79.5386 597.772C79.6671 597.993 79.7532 598.246 79.7977 598.531ZM81.4691 599.749V602.113H80.694V596.805H81.4588V598.78H81.5077C81.6011 598.566 81.7442 598.395 81.9354 598.269C82.1274 598.143 82.3777 598.08 82.6871 598.08C82.9601 598.08 83.1988 598.136 83.4024 598.248C83.6082 598.361 83.7673 598.529 83.8797 598.751C83.9935 598.972 84.0505 599.249 84.0505 599.581V602.113H83.2754V599.674C83.2754 599.382 83.2002 599.155 83.0498 598.995C82.8995 598.832 82.6908 598.751 82.4229 598.751C82.2397 598.751 82.0755 598.79 81.9303 598.868C81.7872 598.946 81.6741 599.06 81.5909 599.21C81.5099 599.358 81.4691 599.539 81.4691 599.749ZM86.2429 602.201C85.9911 602.201 85.7626 602.154 85.559 602.061C85.3547 601.966 85.1934 601.829 85.0744 601.649C84.9569 601.469 84.8978 601.249 84.8978 600.988C84.8978 600.763 84.9409 600.579 85.0277 600.433C85.1138 600.288 85.2306 600.174 85.3773 600.089C85.524 600.004 85.6882 599.94 85.8699 599.897C86.0509 599.854 86.2363 599.821 86.4246 599.798C86.6633 599.771 86.8567 599.748 87.0048 599.731C87.1537 599.712 87.2617 599.682 87.3289 599.64C87.3968 599.598 87.4303 599.531 87.4303 599.438V599.42C87.4303 599.193 87.3661 599.018 87.2384 598.893C87.1121 598.769 86.9238 598.707 86.6735 598.707C86.4122 598.707 86.2071 598.765 86.0568 598.881C85.9079 598.995 85.805 599.122 85.7481 599.262L85.0197 599.096C85.1065 598.854 85.2321 598.659 85.3985 598.51C85.5656 598.36 85.7583 598.251 85.9765 598.183C86.194 598.115 86.4224 598.08 86.6632 598.08C86.8216 598.08 86.9902 598.099 87.1683 598.137C87.3478 598.173 87.5157 598.241 87.6712 598.34C87.8281 598.437 87.9573 598.578 88.0572 598.761C88.1572 598.943 88.2076 599.179 88.2076 599.469V602.113H87.4508V601.568H87.4194C87.3697 601.669 87.2946 601.768 87.1946 601.864C87.0939 601.961 86.9654 602.041 86.8077 602.105C86.6508 602.169 86.4625 602.201 86.2429 602.201ZM86.4115 601.579C86.626 601.579 86.8092 601.536 86.961 601.452C87.115 601.367 87.2311 601.257 87.3106 601.12C87.3924 600.982 87.4325 600.834 87.4325 600.677V600.164C87.4048 600.191 87.3515 600.217 87.272 600.241C87.1946 600.264 87.1055 600.284 87.0048 600.301C86.9048 600.317 86.807 600.331 86.7122 600.345C86.6173 600.358 86.5377 600.368 86.4735 600.376C86.3232 600.395 86.1859 600.428 86.0619 600.472C85.9393 600.517 85.8408 600.582 85.7663 600.666C85.6933 600.749 85.6575 600.86 85.6575 600.998C85.6575 601.19 85.7283 601.335 85.8699 601.434C86.0115 601.53 86.1918 601.579 86.4115 601.579ZM91.0977 598.132V598.754H88.9236V598.132H91.0977ZM89.5067 597.178H90.2818V600.944C90.2818 601.094 90.3044 601.207 90.3489 601.284C90.3942 601.357 90.4518 601.408 90.5226 601.436C90.5956 601.462 90.6737 601.475 90.7584 601.475C90.8204 601.475 90.8751 601.471 90.9218 601.462C90.9685 601.454 91.005 601.446 91.0306 601.441L91.1707 602.081C91.1255 602.099 91.062 602.116 90.9788 602.133C90.8956 602.152 90.7919 602.163 90.6678 602.165C90.4642 602.168 90.2738 602.132 90.0979 602.056C89.9213 601.98 89.7789 601.862 89.6702 601.703C89.5615 601.544 89.5067 601.345 89.5067 601.105V597.178ZM94.8739 599.104L94.1718 599.228C94.1426 599.138 94.0959 599.053 94.0316 598.972C93.9696 598.891 93.885 598.824 93.7777 598.772C93.6711 598.72 93.5368 598.694 93.3762 598.694C93.1566 598.694 92.9734 598.744 92.8267 598.842C92.68 598.939 92.6063 599.064 92.6063 599.218C92.6063 599.351 92.6559 599.458 92.7544 599.539C92.853 599.62 93.0113 599.687 93.231 599.739L93.8638 599.884C94.2294 599.968 94.5024 600.099 94.6827 600.275C94.8622 600.452 94.952 600.68 94.952 600.962C94.952 601.2 94.8826 601.413 94.7447 601.6C94.6082 601.784 94.417 601.93 94.1718 602.035C93.928 602.14 93.6456 602.193 93.3244 602.193C92.8785 602.193 92.5151 602.098 92.2333 601.908C91.9516 601.716 91.7787 601.444 91.7152 601.092L92.464 600.978C92.5107 601.173 92.6063 601.321 92.7515 601.421C92.8968 601.519 93.0858 601.568 93.3194 601.568C93.5733 601.568 93.7762 601.516 93.928 601.411C94.0806 601.303 94.1565 601.173 94.1565 601.019C94.1565 600.895 94.1097 600.79 94.0163 600.706C93.9251 600.621 93.7842 600.557 93.5938 600.514L92.9201 600.366C92.5486 600.282 92.2735 600.147 92.0961 599.962C91.9195 599.777 91.8312 599.542 91.8312 599.259C91.8312 599.024 91.8969 598.819 92.0283 598.642C92.1596 598.467 92.3414 598.329 92.5727 598.23C92.8041 598.13 93.0697 598.08 93.3682 598.08C93.7988 598.08 94.1375 598.173 94.3842 598.36C94.6316 598.545 94.795 598.793 94.8739 599.104Z" fill="#BDBDBD"/>
<mask id="mask3_783_2314" style="mask-type:luminance" maskUnits="userSpaceOnUse" x="133" y="576" width="19" height="19">
<path d="M151.075 576.567H133.559V594.083H151.075V576.567Z" fill="white"/>
</mask>
<g mask="url(#mask3_783_2314)">
<path d="M145.602 578.758C144.332 578.758 143.113 579.349 142.318 580.283C141.522 579.349 140.304 578.758 139.034 578.758C136.786 578.758 135.02 580.524 135.02 582.772C135.02 585.531 137.501 587.779 141.26 591.194L142.318 592.15L143.376 591.187C147.135 587.779 149.616 585.531 149.616 582.772C149.616 580.524 147.85 578.758 145.602 578.758ZM142.391 590.107L142.318 590.18L142.245 590.107C138.771 586.961 136.479 584.881 136.479 582.772C136.479 581.312 137.574 580.217 139.034 580.217C140.158 580.217 141.252 580.94 141.639 581.94H143.004C143.383 580.94 144.478 580.217 145.602 580.217C147.062 580.217 148.157 581.312 148.157 582.772C148.157 584.881 145.865 586.961 142.391 590.107Z" fill="#BDBDBD"/>
</g>
<path d="M133.777 602.112V596.804H134.578V601.423H136.984V602.112H133.777ZM137.834 602.112V598.131H138.61V602.112H137.834ZM138.226 597.517C138.091 597.517 137.975 597.472 137.879 597.382C137.783 597.291 137.736 597.182 137.736 597.056C137.736 596.928 137.783 596.819 137.879 596.729C137.975 596.638 138.091 596.592 138.226 596.592C138.361 596.592 138.476 596.638 138.571 596.729C138.667 596.819 138.716 596.928 138.716 597.056C138.716 597.182 138.667 597.291 138.571 597.382C138.476 597.472 138.361 597.517 138.226 597.517ZM140.365 600.762L140.36 599.816H140.495L142.081 598.131H143.008L141.2 600.049H141.078L140.365 600.762ZM139.652 602.112V596.804H140.427V602.112H139.652ZM142.166 602.112L140.741 600.221L141.275 599.678L143.117 602.112H142.166ZM145.266 602.193C144.874 602.193 144.537 602.109 144.253 601.941C143.972 601.772 143.754 601.534 143.6 601.228C143.448 600.921 143.372 600.561 143.372 600.148C143.372 599.74 143.448 599.381 143.6 599.07C143.754 598.759 143.968 598.516 144.242 598.341C144.519 598.167 144.842 598.079 145.212 598.079C145.436 598.079 145.655 598.116 145.866 598.191C146.076 598.265 146.265 598.382 146.433 598.541C146.6 598.7 146.733 598.906 146.83 599.16C146.926 599.413 146.974 599.719 146.974 600.08V600.355H143.81V599.775H146.215C146.215 599.571 146.174 599.39 146.09 599.233C146.008 599.074 145.891 598.948 145.741 598.857C145.592 598.765 145.417 598.72 145.217 598.72C144.999 598.72 144.81 598.773 144.647 598.881C144.486 598.986 144.362 599.124 144.274 599.295C144.188 599.464 144.145 599.648 144.145 599.847V600.301C144.145 600.566 144.191 600.793 144.284 600.98C144.38 601.166 144.512 601.309 144.681 601.407C144.85 601.504 145.048 601.552 145.274 601.552C145.421 601.552 145.555 601.532 145.676 601.49C145.797 601.447 145.901 601.383 145.99 601.299C146.078 601.214 146.145 601.109 146.192 600.985L146.925 601.117C146.866 601.333 146.761 601.523 146.609 601.685C146.459 601.845 146.269 601.971 146.041 602.06C145.815 602.149 145.557 602.193 145.266 602.193ZM150.817 599.103L150.115 599.228C150.085 599.137 150.039 599.052 149.975 598.971C149.912 598.89 149.828 598.824 149.721 598.772C149.614 598.72 149.48 598.694 149.319 598.694C149.1 598.694 148.917 598.743 148.77 598.841C148.623 598.938 148.55 599.064 148.55 599.217C148.55 599.351 148.599 599.457 148.697 599.539C148.796 599.62 148.955 599.686 149.174 599.738L149.807 599.883C150.173 599.968 150.446 600.099 150.626 600.275C150.805 600.451 150.895 600.68 150.895 600.961C150.895 601.2 150.826 601.412 150.688 601.599C150.551 601.784 150.361 601.929 150.115 602.034C149.872 602.14 149.589 602.193 149.267 602.193C148.821 602.193 148.458 602.098 148.176 601.907C147.895 601.716 147.722 601.444 147.658 601.091L148.407 600.977C148.454 601.172 148.55 601.32 148.694 601.42C148.84 601.519 149.029 601.568 149.262 601.568C149.516 601.568 149.719 601.515 149.872 601.41C150.023 601.303 150.099 601.172 150.099 601.018C150.099 600.894 150.053 600.79 149.959 600.705C149.868 600.621 149.727 600.556 149.537 600.513L148.863 600.366C148.491 600.281 148.217 600.146 148.039 599.961C147.863 599.776 147.775 599.542 147.775 599.259C147.775 599.024 147.84 598.819 147.972 598.642C148.103 598.466 148.284 598.328 148.516 598.23C148.748 598.13 149.013 598.079 149.312 598.079C149.742 598.079 150.08 598.173 150.328 598.359C150.574 598.544 150.738 598.792 150.817 599.103Z" fill="#BDBDBD"/>
<path d="M194.867 581.824V588.746C194.867 589.74 194.867 590.237 195.016 590.54C195.292 591.104 195.898 591.428 196.52 591.344C196.855 591.3 197.268 591.025 198.095 590.474L198.097 590.472C198.424 590.254 198.588 590.145 198.759 590.084C199.074 589.973 199.418 589.973 199.732 590.084C199.904 590.145 200.069 590.254 200.397 590.474C201.224 591.025 201.638 591.3 201.973 591.344C202.595 591.428 203.2 591.104 203.476 590.54C203.625 590.237 203.625 589.74 203.625 588.746V581.822C203.625 581.006 203.625 580.597 203.466 580.285C203.326 580.01 203.103 579.788 202.827 579.647C202.516 579.488 202.107 579.488 201.29 579.488H197.203C196.385 579.488 195.977 579.488 195.664 579.647C195.389 579.788 195.166 580.01 195.026 580.285C194.867 580.598 194.867 581.006 194.867 581.824Z" stroke="#BDBDBD" stroke-width="1.45967" stroke-linecap="round" stroke-linejoin="round"/>
<path d="M191.773 598.199C191.746 597.954 191.631 597.764 191.431 597.629C191.23 597.493 190.979 597.424 190.674 597.424C190.457 597.424 190.269 597.459 190.109 597.528C189.95 597.595 189.827 597.689 189.739 597.808C189.653 597.926 189.609 598.059 189.609 598.21C189.609 598.336 189.639 598.445 189.697 598.536C189.758 598.628 189.836 598.704 189.933 598.766C190.031 598.827 190.137 598.878 190.25 598.92C190.361 598.959 190.469 598.992 190.573 599.018L191.092 599.153C191.261 599.194 191.435 599.25 191.612 599.321C191.79 599.392 191.955 599.485 192.108 599.601C192.259 599.717 192.382 599.861 192.476 600.031C192.57 600.203 192.618 600.407 192.618 600.646C192.618 600.946 192.54 601.214 192.385 601.446C192.231 601.68 192.007 601.864 191.714 601.999C191.422 602.133 191.068 602.201 190.654 602.201C190.256 602.201 189.912 602.138 189.622 602.012C189.331 601.886 189.104 601.707 188.94 601.475C188.776 601.242 188.685 600.965 188.668 600.646H189.472C189.488 600.838 189.55 600.998 189.658 601.125C189.769 601.252 189.909 601.346 190.081 601.408C190.253 601.468 190.443 601.498 190.648 601.498C190.875 601.498 191.076 601.463 191.252 601.392C191.43 601.319 191.57 601.219 191.672 601.092C191.774 600.962 191.825 600.811 191.825 600.638C191.825 600.481 191.78 600.352 191.69 600.252C191.602 600.152 191.482 600.069 191.33 600.003C191.179 599.937 191.009 599.879 190.82 599.829L190.192 599.658C189.767 599.542 189.43 599.372 189.181 599.148C188.934 598.923 188.811 598.626 188.811 598.256C188.811 597.951 188.893 597.683 189.06 597.456C189.226 597.227 189.45 597.05 189.734 596.924C190.017 596.796 190.336 596.732 190.693 596.732C191.052 596.732 191.369 596.795 191.644 596.921C191.92 597.048 192.138 597.221 192.297 597.443C192.456 597.662 192.538 597.914 192.546 598.199H191.773ZM194.672 602.201C194.419 602.201 194.191 602.154 193.987 602.061C193.783 601.966 193.621 601.829 193.502 601.649C193.385 601.469 193.326 601.249 193.326 600.988C193.326 600.763 193.37 600.579 193.456 600.433C193.543 600.288 193.659 600.174 193.806 600.089C193.953 600.004 194.117 599.94 194.298 599.897C194.48 599.854 194.664 599.821 194.853 599.798C195.091 599.771 195.285 599.748 195.434 599.731C195.582 599.712 195.69 599.682 195.758 599.64C195.825 599.598 195.858 599.531 195.858 599.438V599.42C195.858 599.193 195.795 599.018 195.666 598.893C195.54 598.769 195.352 598.707 195.101 598.707C194.841 598.707 194.635 598.765 194.485 598.881C194.336 598.995 194.234 599.122 194.176 599.262L193.448 599.096C193.534 598.854 193.661 598.659 193.826 598.51C193.994 598.36 194.187 598.251 194.404 598.183C194.622 598.115 194.851 598.08 195.091 598.08C195.25 598.08 195.419 598.099 195.596 598.137C195.777 598.173 195.944 598.241 196.099 598.34C196.257 598.437 196.385 598.578 196.485 598.761C196.586 598.943 196.636 599.179 196.636 599.469V602.113H195.879V601.568H195.848C195.798 601.669 195.723 601.768 195.623 601.864C195.523 601.961 195.393 602.041 195.236 602.105C195.079 602.169 194.891 602.201 194.672 602.201ZM194.84 601.579C195.054 601.579 195.237 601.536 195.389 601.452C195.543 601.367 195.66 601.257 195.739 601.12C195.82 600.982 195.861 600.834 195.861 600.677V600.164C195.833 600.191 195.779 600.217 195.7 600.241C195.623 600.264 195.534 600.284 195.434 600.301C195.333 600.317 195.236 600.331 195.14 600.345C195.045 600.358 194.966 600.368 194.902 600.376C194.752 600.395 194.615 600.428 194.49 600.472C194.367 600.517 194.269 600.582 194.194 600.666C194.122 600.749 194.086 600.86 194.086 600.998C194.086 601.19 194.156 601.335 194.298 601.434C194.439 601.53 194.621 601.579 194.84 601.579ZM200.931 598.132L199.488 602.113H198.658L197.212 598.132H198.044L199.052 601.195H199.094L200.099 598.132H200.931ZM203.24 602.193C202.847 602.193 202.51 602.109 202.226 601.942C201.944 601.773 201.727 601.535 201.573 601.229C201.421 600.922 201.345 600.561 201.345 600.148C201.345 599.741 201.421 599.381 201.573 599.07C201.727 598.759 201.941 598.516 202.216 598.342C202.492 598.167 202.816 598.08 203.185 598.08C203.41 598.08 203.627 598.117 203.838 598.191C204.049 598.266 204.238 598.383 204.406 598.542C204.573 598.7 204.705 598.907 204.802 599.161C204.899 599.413 204.948 599.72 204.948 600.081V600.355H201.783V599.775H204.188C204.188 599.571 204.147 599.39 204.064 599.234C203.981 599.074 203.865 598.949 203.714 598.858C203.565 598.766 203.391 598.72 203.19 598.72C202.973 598.72 202.783 598.774 202.62 598.881C202.46 598.986 202.335 599.125 202.247 599.296C202.16 599.465 202.117 599.649 202.117 599.847V600.301C202.117 600.567 202.164 600.793 202.257 600.98C202.352 601.167 202.484 601.309 202.654 601.408C202.823 601.505 203.021 601.553 203.247 601.553C203.395 601.553 203.528 601.533 203.649 601.491C203.77 601.448 203.875 601.384 203.963 601.299C204.051 601.214 204.119 601.11 204.165 600.985L204.898 601.117C204.84 601.333 204.735 601.523 204.582 601.685C204.432 601.846 204.243 601.971 204.015 602.061C203.788 602.149 203.53 602.193 203.24 602.193ZM207.298 602.191C206.977 602.191 206.69 602.108 206.437 601.944C206.187 601.778 205.99 601.543 205.846 601.237C205.704 600.929 205.634 600.56 205.634 600.13C205.634 599.7 205.705 599.332 205.849 599.026C205.994 598.72 206.193 598.486 206.445 598.323C206.697 598.161 206.983 598.08 207.303 598.08C207.55 598.08 207.749 598.121 207.899 598.205C208.051 598.286 208.168 598.38 208.252 598.49C208.336 598.599 208.402 598.694 208.449 598.777H208.495V596.805H209.27V602.113H208.513V601.493H208.449C208.402 601.578 208.334 601.675 208.246 601.784C208.16 601.892 208.041 601.987 207.889 602.069C207.736 602.15 207.539 602.191 207.298 602.191ZM207.468 601.53C207.692 601.53 207.88 601.471 208.033 601.354C208.19 601.234 208.307 601.069 208.386 600.858C208.468 600.647 208.508 600.402 208.508 600.123C208.508 599.846 208.468 599.604 208.389 599.396C208.309 599.189 208.192 599.028 208.039 598.912C207.885 598.796 207.695 598.738 207.468 598.738C207.236 598.738 207.041 598.799 206.885 598.92C206.73 599.041 206.612 599.206 206.533 599.415C206.455 599.624 206.417 599.86 206.417 600.123C206.417 600.388 206.456 600.628 206.536 600.84C206.615 601.053 206.733 601.221 206.888 601.346C207.045 601.468 207.239 601.53 207.468 601.53Z" fill="#BDBDBD"/>
<path d="M261.28 591.895C261.28 589.074 258.993 586.786 256.171 586.786C253.35 586.786 251.062 589.074 251.062 591.895M256.171 584.597C254.559 584.597 253.252 583.29 253.252 581.678C253.252 580.065 254.559 578.758 256.171 578.758C257.784 578.758 259.091 580.065 259.091 581.678C259.091 583.29 257.784 584.597 256.171 584.597Z" stroke="black" stroke-width="1.45967" stroke-linecap="round" stroke-linejoin="round"/>
<path d="M245.441 602.113V596.805H247.333C247.746 596.805 248.088 596.88 248.36 597.03C248.631 597.18 248.834 597.386 248.969 597.647C249.104 597.907 249.171 598.199 249.171 598.523C249.171 598.85 249.103 599.144 248.967 599.404C248.831 599.663 248.628 599.869 248.354 600.021C248.083 600.171 247.742 600.246 247.331 600.246H246.03V599.568H247.258C247.519 599.568 247.731 599.522 247.893 599.433C248.056 599.341 248.175 599.217 248.251 599.06C248.327 598.902 248.365 598.723 248.365 598.523C248.365 598.323 248.327 598.145 248.251 597.989C248.175 597.834 248.055 597.712 247.891 597.623C247.728 597.536 247.514 597.491 247.248 597.491H246.242V602.113H245.441ZM250.047 602.113V598.131H250.797V598.764H250.838C250.911 598.55 251.038 598.382 251.222 598.258C251.406 598.134 251.616 598.072 251.849 598.072C251.898 598.072 251.954 598.074 252.02 598.077C252.087 598.081 252.14 598.085 252.178 598.091V598.831C252.147 598.823 252.092 598.813 252.012 598.803C251.933 598.791 251.853 598.785 251.773 598.785C251.59 598.785 251.428 598.824 251.284 598.901C251.142 598.977 251.03 599.084 250.947 599.22C250.864 599.355 250.822 599.509 250.822 599.682V602.113H250.047ZM254.383 602.193C254.01 602.193 253.684 602.107 253.406 601.937C253.127 601.765 252.912 601.526 252.758 601.219C252.604 600.911 252.527 600.551 252.527 600.141C252.527 599.728 252.604 599.366 252.758 599.057C252.912 598.747 253.127 598.507 253.406 598.336C253.684 598.166 254.01 598.08 254.383 598.08C254.756 598.08 255.082 598.166 255.36 598.336C255.638 598.507 255.854 598.747 256.008 599.057C256.162 599.366 256.239 599.728 256.239 600.141C256.239 600.551 256.162 600.911 256.008 601.219C255.854 601.526 255.638 601.765 255.36 601.937C255.082 602.107 254.756 602.193 254.383 602.193ZM254.386 601.543C254.627 601.543 254.828 601.478 254.987 601.351C255.146 601.223 255.264 601.053 255.339 600.84C255.417 600.627 255.456 600.393 255.456 600.138C255.456 599.884 255.417 599.65 255.339 599.438C255.264 599.224 255.146 599.052 254.987 598.923C254.828 598.793 254.627 598.728 254.386 598.728C254.142 598.728 253.94 598.793 253.779 598.923C253.62 599.052 253.502 599.224 253.424 599.438C253.348 599.65 253.31 599.884 253.31 600.138C253.31 600.393 253.348 600.627 253.424 600.84C253.502 601.053 253.62 601.223 253.779 601.351C253.94 601.478 254.142 601.543 254.386 601.543ZM258.998 598.131V598.754H256.749V598.131H258.998ZM257.365 602.113V597.67C257.365 597.421 257.419 597.215 257.529 597.051C257.638 596.885 257.781 596.761 257.962 596.68C258.141 596.597 258.336 596.556 258.547 596.556C258.702 596.556 258.836 596.569 258.946 596.595C259.057 596.619 259.139 596.642 259.192 596.662L259.011 597.289C258.975 597.279 258.928 597.267 258.871 597.253C258.814 597.237 258.745 597.23 258.664 597.23C258.475 597.23 258.34 597.277 258.259 597.369C258.18 597.463 258.14 597.598 258.14 597.774V602.113H257.365ZM259.798 602.113V598.131H260.572V602.113H259.798ZM260.189 597.518C260.054 597.518 259.939 597.472 259.842 597.383C259.747 597.291 259.699 597.183 259.699 597.056C259.699 596.929 259.747 596.819 259.842 596.729C259.939 596.638 260.054 596.592 260.189 596.592C260.324 596.592 260.439 596.638 260.534 596.729C260.631 596.819 260.679 596.929 260.679 597.056C260.679 597.183 260.631 597.291 260.534 597.383C260.439 597.472 260.324 597.518 260.189 597.518ZM262.39 596.805V602.113H261.615V596.805H262.39ZM265.148 602.193C264.756 602.193 264.419 602.109 264.135 601.942C263.854 601.773 263.635 601.535 263.482 601.229C263.33 600.922 263.254 600.561 263.254 600.148C263.254 599.741 263.33 599.381 263.482 599.07C263.635 598.759 263.85 598.516 264.124 598.342C264.401 598.167 264.724 598.08 265.094 598.08C265.318 598.08 265.536 598.117 265.747 598.191C265.958 598.266 266.147 598.382 266.315 598.542C266.482 598.7 266.615 598.906 266.711 599.16C266.808 599.413 266.856 599.72 266.856 600.081V600.355H263.692V599.775H266.097C266.097 599.571 266.056 599.39 265.972 599.233C265.89 599.074 265.773 598.949 265.623 598.858C265.474 598.766 265.299 598.72 265.099 598.72C264.881 598.72 264.691 598.774 264.529 598.881C264.368 598.986 264.244 599.125 264.156 599.295C264.07 599.465 264.026 599.649 264.026 599.847V600.301C264.026 600.567 264.073 600.793 264.166 600.98C264.261 601.167 264.393 601.309 264.562 601.408C264.732 601.505 264.929 601.553 265.156 601.553C265.303 601.553 265.437 601.532 265.558 601.491C265.679 601.448 265.783 601.384 265.872 601.299C265.959 601.214 266.027 601.11 266.074 600.985L266.807 601.117C266.748 601.333 266.643 601.523 266.491 601.685C266.34 601.846 266.151 601.971 265.923 602.061C265.697 602.149 265.439 602.193 265.148 602.193Z" fill="black"/>
<path d="M142.317 199.245C164.486 199.245 182.457 181.273 182.457 159.104C182.457 136.935 164.486 118.963 142.317 118.963C120.147 118.963 102.176 136.935 102.176 159.104C102.176 181.273 120.147 199.245 142.317 199.245Z" fill="#D9D9D9"/>
<path d="M128.973 166.519C128.973 166.423 128.973 166.325 128.973 166.222V151.987C128.973 150.326 128.973 149.495 129.296 148.86C129.58 148.302 130.034 147.849 130.591 147.565C131.226 147.242 132.057 147.242 133.718 147.242H150.919C152.581 147.242 153.41 147.242 154.045 147.565C154.603 147.849 155.057 148.302 155.342 148.86C155.664 149.494 155.664 150.325 155.664 151.982V166.227C155.664 166.946 155.664 167.509 155.638 167.968M128.973 166.519C128.974 167.984 128.992 168.751 129.296 169.347C129.58 169.905 130.034 170.36 130.591 170.645C131.226 170.967 132.055 170.967 133.713 170.967H150.925C152.582 170.967 153.411 170.967 154.045 170.645C154.603 170.36 155.057 169.905 155.342 169.347C155.524 168.989 155.604 168.567 155.638 167.968M128.973 166.519L136.043 158.27L136.045 158.268C136.672 157.537 136.986 157.17 137.358 157.038C137.686 156.922 138.043 156.924 138.369 157.046C138.74 157.183 139.049 157.554 139.667 158.295L143.628 163.048C144.2 163.734 144.487 164.08 144.837 164.218C145.145 164.341 145.485 164.355 145.803 164.261C146.165 164.154 146.484 163.835 147.121 163.198L147.858 162.461C148.507 161.812 148.831 161.488 149.199 161.382C149.521 161.29 149.866 161.309 150.176 161.438C150.529 161.583 150.815 161.941 151.389 162.657L155.638 167.968M155.638 167.968L155.664 168.001M146.767 156.138C145.948 156.138 145.284 155.475 145.284 154.656C145.284 153.837 145.948 153.173 146.767 153.173C147.586 153.173 148.25 153.837 148.25 154.656C148.25 155.475 147.586 156.138 146.767 156.138Z" stroke="#BDBDBD" stroke-width="1.45967" stroke-linecap="round" stroke-linejoin="round"/>
<path d="M133.559 213.841V206.41H138.043V207.209H134.459V209.719H137.811V210.518H134.459V213.043H138.101V213.841H133.559ZM141.653 213.958C141.189 213.958 140.779 213.84 140.423 213.606C140.068 213.369 139.789 213.035 139.588 212.604C139.388 212.171 139.288 211.659 139.288 211.07C139.288 210.484 139.388 209.976 139.588 209.546C139.789 209.115 140.069 208.782 140.427 208.547C140.785 208.313 141.199 208.195 141.668 208.195C142.031 208.195 142.317 208.256 142.528 208.377C142.741 208.495 142.903 208.631 143.014 208.784C143.127 208.933 143.216 209.057 143.279 209.154H143.352V206.41H144.208V213.841H143.381V212.985H143.279C143.216 213.087 143.127 213.215 143.011 213.37C142.895 213.522 142.728 213.659 142.513 213.779C142.298 213.898 142.012 213.958 141.653 213.958ZM141.769 213.188C142.113 213.188 142.403 213.099 142.64 212.92C142.877 212.739 143.057 212.488 143.181 212.169C143.304 211.847 143.366 211.476 143.366 211.055C143.366 210.639 143.306 210.275 143.184 209.962C143.064 209.648 142.884 209.404 142.647 209.23C142.411 209.053 142.118 208.965 141.769 208.965C141.406 208.965 141.104 209.058 140.862 209.244C140.623 209.428 140.442 209.679 140.322 209.995C140.203 210.31 140.144 210.663 140.144 211.055C140.144 211.451 140.204 211.812 140.326 212.136C140.449 212.458 140.63 212.714 140.869 212.905C141.112 213.094 141.412 213.188 141.769 213.188ZM145.895 213.841V208.268H146.751V213.841H145.895ZM146.331 207.339C146.164 207.339 146.02 207.282 145.899 207.169C145.78 207.055 145.721 206.918 145.721 206.758C145.721 206.599 145.78 206.462 145.899 206.349C146.02 206.235 146.164 206.178 146.331 206.178C146.497 206.178 146.64 206.235 146.758 206.349C146.88 206.462 146.94 206.599 146.94 206.758C146.94 206.918 146.88 207.055 146.758 207.169C146.64 207.282 146.497 207.339 146.331 207.339ZM150.743 208.268V208.994H147.855V208.268H150.743ZM148.697 206.933H149.554V212.245C149.554 212.487 149.589 212.669 149.659 212.789C149.731 212.908 149.823 212.988 149.935 213.028C150.048 213.067 150.167 213.087 150.294 213.087C150.388 213.087 150.465 213.082 150.526 213.072C150.586 213.06 150.635 213.05 150.671 213.043L150.845 213.812C150.787 213.834 150.706 213.856 150.602 213.878C150.498 213.902 150.366 213.914 150.207 213.914C149.965 213.914 149.727 213.862 149.495 213.758C149.265 213.654 149.074 213.496 148.922 213.282C148.772 213.07 148.697 212.801 148.697 212.477V206.933Z" fill="black"/>
<path d="M22.2111 225.387V232.818H21.3404L17.2905 226.984H17.2183V232.818H16.3184V225.387H17.189L21.2528 231.236H21.3258V225.387H22.2111ZM25.5354 232.949C25.1822 232.949 24.8618 232.882 24.5742 232.749C24.286 232.614 24.0575 232.419 23.8882 232.165C23.7189 231.909 23.6342 231.599 23.6342 231.236C23.6342 230.917 23.697 230.658 23.8225 230.459C23.9488 230.258 24.1166 230.101 24.3268 229.988C24.5378 229.874 24.7699 229.789 25.0238 229.734C25.28 229.676 25.5376 229.63 25.7967 229.596C26.1353 229.553 26.4098 229.52 26.6199 229.498C26.8331 229.474 26.9878 229.434 27.0849 229.378C27.1841 229.323 27.2337 229.226 27.2337 229.088V229.059C27.2337 228.701 27.1352 228.423 26.9397 228.224C26.7462 228.026 26.4521 227.927 26.058 227.927C25.6493 227.927 25.3289 228.016 25.0961 228.195C24.864 228.374 24.7012 228.565 24.6064 228.769L23.7941 228.478C23.9386 228.14 24.1327 227.876 24.3743 227.687C24.6188 227.496 24.8844 227.363 25.1727 227.288C25.4632 227.211 25.7485 227.172 26.0288 227.172C26.2076 227.172 26.4134 227.194 26.6455 227.238C26.8805 227.278 27.1068 227.365 27.3243 227.495C27.5447 227.626 27.7271 227.823 27.8723 228.086C28.0176 228.35 28.0899 228.703 28.0899 229.146V232.818H27.2337V232.063H27.19C27.1316 232.184 27.0352 232.314 26.8995 232.451C26.7645 232.589 26.5842 232.707 26.3594 232.803C26.1339 232.9 25.8595 232.949 25.5354 232.949ZM25.6661 232.179C26.0047 232.179 26.2901 232.113 26.5222 231.98C26.7572 231.846 26.9338 231.675 27.052 231.465C27.1732 231.254 27.2337 231.033 27.2337 230.801V230.017C27.1972 230.061 27.1177 230.1 26.9944 230.136C26.8732 230.17 26.7331 230.201 26.5733 230.227C26.4156 230.251 26.2623 230.273 26.112 230.293C25.9646 230.309 25.8449 230.324 25.7529 230.336C25.5303 230.365 25.3223 230.412 25.1289 230.477C24.9377 230.54 24.783 230.636 24.6648 230.764C24.5487 230.89 24.4903 231.062 24.4903 231.279C24.4903 231.577 24.6005 231.802 24.8209 231.954C25.0435 232.104 25.3253 232.179 25.6661 232.179ZM29.6531 232.818V227.245H30.48V228.116H30.5523C30.6691 227.818 30.8559 227.587 31.115 227.422C31.3741 227.256 31.685 227.172 32.0477 227.172C32.4156 227.172 32.7214 227.256 32.9659 227.422C33.2125 227.587 33.4045 227.818 33.5424 228.116H33.6008C33.7431 227.827 33.957 227.599 34.2431 227.43C34.5284 227.258 34.8707 227.172 35.27 227.172C35.7677 227.172 36.1757 227.328 36.4924 227.64C36.8092 227.95 36.9676 228.432 36.9676 229.088V232.818H36.1114V229.088C36.1114 228.677 35.9991 228.383 35.7743 228.206C35.5487 228.029 35.2838 227.941 34.9795 227.941C34.5876 227.941 34.284 228.06 34.0687 228.297C33.8534 228.532 33.7453 228.829 33.7453 229.189V232.818H32.8746V229.001C32.8746 228.684 32.7717 228.429 32.5666 228.235C32.3608 228.039 32.0959 227.941 31.7719 227.941C31.5493 227.941 31.3413 228 31.1479 228.119C30.9566 228.237 30.8019 228.402 30.6829 228.613C30.5669 228.821 30.5093 229.061 30.5093 229.334V232.818H29.6531ZM40.87 232.934C40.3328 232.934 39.8701 232.816 39.4804 232.578C39.0935 232.339 38.7943 232.005 38.5841 231.577C38.3761 231.147 38.2725 230.646 38.2725 230.074C38.2725 229.504 38.3761 229.001 38.5841 228.565C38.7943 228.127 39.087 227.786 39.4621 227.542C39.8394 227.295 40.2795 227.172 40.7831 227.172C41.0736 227.172 41.3597 227.22 41.6429 227.317C41.926 227.414 42.1836 227.571 42.4157 227.789C42.6478 228.004 42.8332 228.289 42.9712 228.645C43.1091 229.001 43.1777 229.439 43.1777 229.958V230.322H38.8819V229.581H42.307C42.307 229.267 42.2443 228.986 42.118 228.74C41.9946 228.493 41.818 228.298 41.5888 228.156C41.3611 228.013 41.0925 227.941 40.7831 227.941C40.4423 227.941 40.1467 228.026 39.8978 228.195C39.6512 228.362 39.4614 228.58 39.3278 228.848C39.195 229.117 39.1286 229.404 39.1286 229.712V230.205C39.1286 230.626 39.2008 230.983 39.3461 231.276C39.4935 231.566 39.6979 231.787 39.9591 231.94C40.2204 232.09 40.524 232.165 40.87 232.165C41.0947 232.165 41.2984 232.133 41.4794 232.071C41.6633 232.005 41.8217 231.909 41.9552 231.78C42.088 231.649 42.191 231.487 42.2632 231.294L43.0909 231.526C43.0033 231.807 42.8573 232.054 42.6515 232.266C42.4464 232.477 42.1917 232.641 41.8895 232.76C41.5874 232.876 41.2473 232.934 40.87 232.934Z" fill="black"/>
<path d="M16.3066 298.503V291.071H18.9048C19.4223 291.071 19.8493 291.161 20.1857 291.34C20.5222 291.517 20.7725 291.755 20.9367 292.055C21.1009 292.352 21.1834 292.683 21.1834 293.046C21.1834 293.365 21.1265 293.628 21.0126 293.837C20.9017 294.045 20.7543 294.209 20.5704 294.33C20.3886 294.451 20.1916 294.54 19.9792 294.599V294.671C20.2062 294.686 20.4346 294.765 20.6645 294.91C20.8944 295.056 21.0871 295.264 21.2418 295.534C21.3965 295.805 21.4739 296.137 21.4739 296.528C21.4739 296.901 21.3892 297.236 21.2199 297.534C21.0506 297.831 20.7834 298.067 20.4178 298.241C20.0529 298.416 19.577 298.503 18.9917 298.503H16.3066ZM17.2065 297.704H18.9917C19.58 297.704 19.9967 297.59 20.2441 297.363C20.493 297.133 20.6178 296.855 20.6178 296.528C20.6178 296.277 20.5535 296.045 20.4251 295.832C20.2966 295.617 20.1142 295.445 19.877 295.317C19.6405 295.186 19.3595 295.121 19.0355 295.121H17.2065V297.704ZM17.2065 294.337H18.8757C19.1464 294.337 19.391 294.284 19.6084 294.178C19.8289 294.071 20.0032 293.921 20.131 293.727C20.2616 293.534 20.3273 293.307 20.3273 293.046C20.3273 292.719 20.2134 292.442 19.9865 292.214C19.7587 291.984 19.3982 291.87 18.9048 291.87H17.2065V294.337ZM22.8365 298.503V292.93H23.6925V298.503H22.8365ZM23.2715 292.001C23.1051 292.001 22.9605 291.944 22.8401 291.83C22.7212 291.716 22.662 291.579 22.662 291.42C22.662 291.26 22.7212 291.123 22.8401 291.01C22.9605 290.896 23.1051 290.839 23.2715 290.839C23.4386 290.839 23.5816 290.896 23.6999 291.01C23.821 291.123 23.8816 291.26 23.8816 291.42C23.8816 291.579 23.821 291.716 23.6999 291.83C23.5816 291.944 23.4386 292.001 23.2715 292.001ZM27.5249 298.619C27.0221 298.619 26.5805 298.499 26.201 298.26C25.8237 298.02 25.5281 297.685 25.3157 297.255C25.1048 296.824 24.9997 296.32 24.9997 295.745C24.9997 295.164 25.1048 294.658 25.3157 294.224C25.5281 293.792 25.8237 293.456 26.201 293.216C26.5805 292.976 27.0221 292.857 27.5249 292.857C28.0285 292.857 28.4686 292.976 28.8459 293.216C29.2254 293.456 29.521 293.792 29.7312 294.224C29.9443 294.658 30.0501 295.164 30.0501 295.745C30.0501 296.32 29.9443 296.824 29.7312 297.255C29.521 297.685 29.2254 298.02 28.8459 298.26C28.4686 298.499 28.0285 298.619 27.5249 298.619ZM27.5249 297.849C27.9074 297.849 28.2219 297.752 28.4686 297.555C28.7153 297.36 28.8978 297.102 29.0167 296.782C29.1349 296.463 29.194 296.117 29.194 295.745C29.194 295.372 29.1349 295.026 29.0167 294.704C28.8978 294.382 28.7153 294.122 28.4686 293.924C28.2219 293.725 27.9074 293.626 27.5249 293.626C27.1432 293.626 26.8287 293.725 26.582 293.924C26.3353 294.122 26.1521 294.382 26.0339 294.704C25.9156 295.026 25.8558 295.372 25.8558 295.745C25.8558 296.117 25.9156 296.463 26.0339 296.782C26.1521 297.102 26.3353 297.36 26.582 297.555C26.8287 297.752 27.1432 297.849 27.5249 297.849Z" fill="black"/>
<path d="M16.4707 359.079V351.648H18.9813C19.5645 351.648 20.041 351.753 20.4111 351.964C20.784 352.172 21.0591 352.454 21.2387 352.809C21.4175 353.165 21.5073 353.562 21.5073 353.999C21.5073 354.437 21.4175 354.835 21.2387 355.193C21.0621 355.551 20.7884 355.836 20.4184 356.05C20.0483 356.26 19.5739 356.365 18.9959 356.365H17.1961V355.567H18.9667C19.3659 355.567 19.6863 355.498 19.9286 355.36C20.1702 355.222 20.3461 355.036 20.4549 354.801C20.5658 354.564 20.6213 354.297 20.6213 353.999C20.6213 353.702 20.5658 353.436 20.4549 353.201C20.3461 352.967 20.1695 352.783 19.925 352.649C19.6805 352.514 19.3565 352.446 18.9529 352.446H17.3706V359.079H16.4707ZM23.6968 355.726V359.079H22.8407V351.648H23.6968V354.377H23.769C23.8997 354.089 24.096 353.86 24.3573 353.691C24.6207 353.519 24.9718 353.433 25.409 353.433C25.7892 353.433 26.122 353.51 26.4074 353.662C26.6927 353.812 26.9139 354.043 27.0708 354.355C27.2306 354.664 27.3109 355.058 27.3109 355.538V359.079H26.4541V355.596C26.4541 355.153 26.3395 354.811 26.1096 354.569C25.8819 354.325 25.5666 354.202 25.1623 354.202C24.882 354.202 24.6302 354.261 24.4076 354.38C24.188 354.499 24.0135 354.672 23.8851 354.899C23.7595 355.126 23.6968 355.402 23.6968 355.726ZM31.1411 359.195C30.6382 359.195 30.1967 359.075 29.8172 358.836C29.4398 358.597 29.1442 358.262 28.9319 357.831C28.7209 357.4 28.6159 356.897 28.6159 356.322C28.6159 355.741 28.7209 355.234 28.9319 354.801C29.1442 354.368 29.4398 354.032 29.8172 353.792C30.1967 353.553 30.6382 353.433 31.1411 353.433C31.6447 353.433 32.0848 353.553 32.4621 353.792C32.8416 354.032 33.1371 354.368 33.3473 354.801C33.5604 355.234 33.667 355.741 33.667 356.322C33.667 356.897 33.5604 357.4 33.3473 357.831C33.1371 358.262 32.8416 358.597 32.4621 358.836C32.0848 359.075 31.6447 359.195 31.1411 359.195ZM31.1411 358.426C31.5235 358.426 31.8381 358.328 32.0847 358.132C32.3314 357.936 32.5139 357.679 32.6328 357.359C32.7511 357.04 32.8102 356.694 32.8102 356.322C32.8102 355.949 32.7511 355.602 32.6328 355.28C32.5139 354.958 32.3314 354.699 32.0847 354.5C31.8381 354.302 31.5235 354.202 31.1411 354.202C30.7594 354.202 30.4448 354.302 30.1981 354.5C29.9514 354.699 29.7683 354.958 29.65 355.28C29.5318 355.602 29.4719 355.949 29.4719 356.322C29.4719 356.694 29.5318 357.04 29.65 357.359C29.7683 357.679 29.9514 357.936 30.1981 358.132C30.4448 358.328 30.7594 358.426 31.1411 358.426ZM35.8303 355.726V359.079H34.9741V353.506H35.801V354.377H35.874C36.004 354.094 36.2025 353.866 36.4689 353.694C36.7345 353.521 37.0783 353.433 37.4994 353.433C37.8767 353.433 38.2066 353.51 38.4898 353.665C38.7729 353.818 38.9926 354.05 39.1503 354.362C39.3072 354.672 39.386 355.064 39.386 355.538V359.079H38.5299V355.596C38.5299 355.158 38.416 354.817 38.1883 354.572C37.9613 354.326 37.649 354.202 37.2527 354.202C36.979 354.202 36.7345 354.261 36.5192 354.38C36.3068 354.499 36.1382 354.672 36.0149 354.899C35.8916 355.126 35.8303 355.402 35.8303 355.726ZM43.2877 359.195C42.7505 359.195 42.2871 359.077 41.8981 358.84C41.5105 358.6 41.212 358.266 41.0019 357.838C40.7939 357.408 40.6895 356.907 40.6895 356.336C40.6895 355.765 40.7939 355.262 41.0019 354.826C41.212 354.388 41.5047 354.048 41.8798 353.803C42.2572 353.556 42.6972 353.433 43.2001 353.433C43.4906 353.433 43.7774 353.481 44.0606 353.578C44.343 353.675 44.6007 353.832 44.8335 354.05C45.0656 354.265 45.2502 354.551 45.3882 354.907C45.5261 355.262 45.5954 355.7 45.5954 356.22V356.583H41.2989V355.842H44.724C44.724 355.528 44.6612 355.247 44.5357 355.001C44.4124 354.754 44.2357 354.559 44.0058 354.417C43.7788 354.274 43.5103 354.202 43.2001 354.202C42.8593 354.202 42.5644 354.287 42.3148 354.456C42.0681 354.623 41.8784 354.841 41.7455 355.11C41.6127 355.378 41.5456 355.666 41.5456 355.973V356.466C41.5456 356.887 41.6186 357.244 41.7638 357.537C41.9112 357.827 42.1156 358.049 42.3768 358.201C42.6381 358.351 42.9417 358.426 43.2877 358.426C43.5125 358.426 43.7154 358.395 43.8971 358.332C44.081 358.266 44.2394 358.17 44.3722 358.041C44.5058 357.911 44.6079 357.749 44.6809 357.555L45.5079 357.787C45.421 358.068 45.2743 358.315 45.0692 358.527C44.8634 358.738 44.6094 358.902 44.3073 359.021C44.0044 359.137 43.665 359.195 43.2877 359.195ZM50.6276 355.726V359.079H49.7715V353.506H50.5984V354.377H50.6714C50.802 354.094 51.0005 353.866 51.2662 353.694C51.5326 353.521 51.8756 353.433 52.2968 353.433C52.6741 353.433 53.0047 353.51 53.2871 353.665C53.5703 353.818 53.7907 354.05 53.9476 354.362C54.1053 354.672 54.1834 355.064 54.1834 355.538V359.079H53.3273V355.596C53.3273 355.158 53.2134 354.817 52.9864 354.572C52.7587 354.326 52.4471 354.202 52.0501 354.202C51.7771 354.202 51.5326 354.261 51.3173 354.38C51.1042 354.499 50.9363 354.672 50.813 354.899C50.6897 355.126 50.6276 355.402 50.6276 355.726ZM59.2608 356.801V353.506H60.1169V359.079H59.2608V358.135H59.2024C59.0718 358.419 58.8689 358.659 58.593 358.858C58.3171 359.054 57.969 359.151 57.5479 359.151C57.1997 359.151 56.8903 359.075 56.6195 358.923C56.348 358.768 56.1357 358.536 55.9809 358.227C55.8255 357.914 55.7481 357.522 55.7481 357.047V353.506H56.6049V356.989C56.6049 357.395 56.7181 357.719 56.9458 357.962C57.1757 358.203 57.4684 358.324 57.8238 358.324C58.0369 358.324 58.2529 358.27 58.4733 358.161C58.6959 358.052 58.882 357.885 59.0324 357.66C59.1849 357.436 59.2608 357.149 59.2608 356.801ZM61.6853 359.079V353.506H62.513V354.377H62.5852C62.7013 354.079 62.8888 353.848 63.1479 353.683C63.4063 353.517 63.7172 353.433 64.0799 353.433C64.4477 353.433 64.7535 353.517 64.998 353.683C65.2447 353.848 65.4374 354.079 65.5753 354.377H65.633C65.776 354.089 65.9899 353.86 66.2752 353.691C66.5606 353.519 66.9029 353.433 67.3021 353.433C67.8006 353.433 68.2078 353.589 68.5253 353.902C68.8421 354.211 69.0004 354.694 69.0004 355.349V359.079H68.1444V355.349C68.1444 354.938 68.0312 354.644 67.8064 354.467C67.5816 354.291 67.3167 354.202 67.0117 354.202C66.6205 354.202 66.3168 354.321 66.1015 354.558C65.8862 354.793 65.7782 355.091 65.7782 355.45V359.079H64.9075V355.262C64.9075 354.945 64.8046 354.69 64.5988 354.496C64.3937 354.3 64.1288 354.202 63.8047 354.202C63.5821 354.202 63.3742 354.261 63.18 354.38C62.9895 354.499 62.8348 354.664 62.7159 354.874C62.5998 355.082 62.5414 355.323 62.5414 355.596V359.079H61.6853ZM70.682 359.079V351.648H71.5388V354.391H71.6111C71.6738 354.294 71.7607 354.171 71.8723 354.021C71.9862 353.869 72.1482 353.733 72.3584 353.615C72.5715 353.494 72.8591 353.433 73.2218 353.433C73.6911 353.433 74.1049 353.551 74.4632 353.785C74.8208 354.02 75.1004 354.353 75.3011 354.783C75.5018 355.214 75.6025 355.722 75.6025 356.307C75.6025 356.897 75.5018 357.409 75.3011 357.842C75.1004 358.273 74.8223 358.606 74.4669 358.843C74.1107 359.078 73.7013 359.195 73.2364 359.195C72.8788 359.195 72.592 359.136 72.3767 359.017C72.1614 358.897 71.9957 358.759 71.8796 358.608C71.7636 358.453 71.6738 358.324 71.6111 358.223H71.5096V359.079H70.682ZM71.5242 356.293C71.5242 356.714 71.5855 357.084 71.7088 357.406C71.8322 357.726 72.0125 357.976 72.2497 358.157C72.4869 358.336 72.7773 358.426 73.1203 358.426C73.4787 358.426 73.7772 358.332 74.0166 358.143C74.2589 357.952 74.4399 357.695 74.561 357.374C74.6844 357.049 74.7457 356.689 74.7457 356.293C74.7457 355.901 74.6858 355.547 74.5647 355.233C74.4457 354.916 74.2662 354.666 74.0239 354.482C73.7845 354.296 73.4831 354.202 73.1203 354.202C72.7722 354.202 72.4796 354.291 72.2424 354.467C72.0052 354.642 71.8263 354.885 71.7052 355.2C71.5848 355.512 71.5242 355.877 71.5242 356.293ZM79.2487 359.195C78.7116 359.195 78.2489 359.077 77.8591 358.84C77.4723 358.6 77.1731 358.266 76.9629 357.838C76.7549 357.408 76.6513 356.907 76.6513 356.336C76.6513 355.765 76.7549 355.262 76.9629 354.826C77.1731 354.388 77.4658 354.048 77.8409 353.803C78.2183 353.556 78.6583 353.433 79.1619 353.433C79.4524 353.433 79.7385 353.481 80.0216 353.578C80.3048 353.675 80.5625 353.832 80.7946 354.05C81.0266 354.265 81.212 354.551 81.35 354.907C81.4879 355.262 81.5565 355.7 81.5565 356.22V356.583H77.2607V355.842H80.6858C80.6858 355.528 80.623 355.247 80.4968 355.001C80.3734 354.754 80.1968 354.559 79.9676 354.417C79.7399 354.274 79.4714 354.202 79.1619 354.202C78.8211 354.202 78.5255 354.287 78.2766 354.456C78.0299 354.623 77.8402 354.841 77.7066 355.11C77.5738 355.378 77.5074 355.666 77.5074 355.973V356.466C77.5074 356.887 77.5796 357.244 77.7248 357.537C77.8723 357.827 78.0766 358.049 78.3379 358.201C78.5992 358.351 78.9028 358.426 79.2487 358.426C79.4735 358.426 79.6772 358.395 79.8582 358.332C80.0421 358.266 80.2004 358.17 80.334 358.041C80.4668 357.911 80.5697 357.749 80.642 357.555L81.4696 357.787C81.3821 358.068 81.2361 358.315 81.0303 358.527C80.8245 358.738 80.5705 358.902 80.2683 359.021C79.9662 359.137 79.6261 359.195 79.2487 359.195ZM82.8592 359.079V353.506H83.6861V354.348H83.7445C83.846 354.072 84.0299 353.848 84.2963 353.676C84.5619 353.505 84.8619 353.419 85.1961 353.419C85.2589 353.419 85.337 353.42 85.4319 353.422C85.5261 353.425 85.5976 353.429 85.6457 353.433V354.304C85.6165 354.296 85.5501 354.286 85.4465 354.272C85.3443 354.254 85.237 354.246 85.1232 354.246C84.8524 354.246 84.6108 354.303 84.3977 354.417C84.1868 354.528 84.0204 354.683 83.8971 354.881C83.7759 355.077 83.7153 355.301 83.7153 355.553V359.079H82.8592Z" fill="black"/>
<path d="M15.3398 418.195V410.764H17.8505C18.4314 410.764 18.908 410.863 19.2802 411.062C19.6532 411.257 19.9283 411.527 20.1079 411.871C20.2867 412.214 20.3764 412.604 20.3764 413.042C20.3764 413.48 20.2867 413.869 20.1079 414.207C19.9283 414.546 19.6539 414.812 19.2839 415.006C18.9138 415.197 18.4409 415.292 17.8651 415.292H15.8332V414.479H17.8366C18.2329 414.479 18.5526 414.422 18.7942 414.305C19.0387 414.189 19.2153 414.025 19.324 413.812C19.435 413.596 19.4911 413.34 19.4911 413.042C19.4911 412.745 19.435 412.485 19.324 412.262C19.2124 412.04 19.035 411.868 18.7905 411.747C18.546 411.624 18.2234 411.562 17.822 411.562H16.2398V418.195H15.3398ZM18.838 414.857L20.6662 418.195H19.6218L17.822 414.857H18.838ZM24.0365 418.311C23.4994 418.311 23.036 418.193 22.647 417.956C22.2594 417.716 21.9609 417.382 21.7507 416.954C21.5427 416.524 21.4383 416.023 21.4383 415.452C21.4383 414.881 21.5427 414.378 21.7507 413.942C21.9609 413.504 22.2536 413.164 22.6287 412.919C23.006 412.672 23.4461 412.549 23.949 412.549C24.2394 412.549 24.5263 412.597 24.8095 412.694C25.0919 412.791 25.3495 412.948 25.5823 413.166C25.8144 413.381 25.9991 413.666 26.137 414.023C26.2749 414.378 26.3443 414.816 26.3443 415.335V415.699H22.0478V414.958H25.4729C25.4729 414.644 25.4101 414.363 25.2846 414.117C25.1612 413.87 24.9846 413.675 24.7547 413.533C24.5277 413.39 24.2591 413.318 23.949 413.318C23.6081 413.318 23.3133 413.403 23.0637 413.572C22.817 413.739 22.6273 413.957 22.4944 414.225C22.3616 414.494 22.2944 414.782 22.2944 415.089V415.582C22.2944 416.003 22.3674 416.36 22.5126 416.653C22.6601 416.943 22.8644 417.164 23.1257 417.317C23.387 417.467 23.6906 417.542 24.0365 417.542C24.2613 417.542 24.4642 417.51 24.646 417.448C24.8299 417.382 24.9883 417.286 25.1211 417.157C25.2547 417.027 25.3568 416.864 25.4298 416.671L26.2567 416.903C26.1698 417.184 26.0239 417.431 25.8181 417.643C25.6122 417.854 25.3583 418.018 25.0561 418.137C24.7532 418.253 24.4139 418.311 24.0365 418.311ZM32.0341 412.622L29.9737 418.195H29.1023L27.0413 412.622H27.9704L29.5088 417.063H29.5672L31.1057 412.622H32.0341ZM33.1646 418.195V412.622H34.0207V418.195H33.1646ZM33.6003 411.693C33.4332 411.693 33.2894 411.636 33.1682 411.522C33.05 411.408 32.9901 411.272 32.9901 411.112C32.9901 410.953 33.05 410.816 33.1682 410.703C33.2894 410.589 33.4332 410.532 33.6003 410.532C33.7667 410.532 33.9097 410.589 34.028 410.703C34.1491 410.816 34.2097 410.953 34.2097 411.112C34.2097 411.272 34.1491 411.408 34.028 411.522C33.9097 411.636 33.7667 411.693 33.6003 411.693ZM37.926 418.311C37.3888 418.311 36.9254 418.193 36.5364 417.956C36.1496 417.716 35.8503 417.382 35.6402 416.954C35.4322 416.524 35.3278 416.023 35.3278 415.452C35.3278 414.881 35.4322 414.378 35.6402 413.942C35.8503 413.504 36.143 413.164 36.5181 412.919C36.8955 412.672 37.3356 412.549 37.8391 412.549C38.1289 412.549 38.4157 412.597 38.6989 412.694C38.9821 412.791 39.2397 412.948 39.4718 413.166C39.7039 413.381 39.8892 413.666 40.0272 414.023C40.1644 414.378 40.2337 414.816 40.2337 415.335V415.699H35.9379V414.958H39.363C39.363 414.644 39.3003 414.363 39.174 414.117C39.0507 413.87 38.8741 413.675 38.6442 413.533C38.4172 413.39 38.1486 413.318 37.8391 413.318C37.4976 413.318 37.2027 413.403 36.9538 413.572C36.7072 413.739 36.5167 413.957 36.3839 414.225C36.2511 414.494 36.1846 414.782 36.1846 415.089V415.582C36.1846 416.003 36.2569 416.36 36.4021 416.653C36.5495 416.943 36.7539 417.164 37.0152 417.317C37.2765 417.467 37.5801 417.542 37.926 417.542C38.1508 417.542 38.3544 417.51 38.5354 417.448C38.7193 417.382 38.8777 417.286 39.0113 417.157C39.1441 417.027 39.247 416.864 39.3193 416.671L40.1469 416.903C40.0593 417.184 39.9133 417.431 39.7075 417.643C39.5017 417.854 39.2477 418.018 38.9456 418.137C38.6434 418.253 38.3033 418.311 37.926 418.311ZM42.7991 418.195L41.1008 412.622H42.0007L43.2056 416.889H43.2633L44.4536 412.622H45.3681L46.5439 416.874H46.6015L47.8065 412.622H48.7064L47.008 418.195H46.1658L44.947 413.914H44.8601L43.6406 418.195H42.7991Z" fill="black"/>
<path d="M259.091 240.481H24.0845C19.4491 240.481 15.6914 244.239 15.6914 248.874V261.281C15.6914 265.917 19.4491 269.674 24.0845 269.674H259.091C263.726 269.674 267.484 265.917 267.484 261.281V248.874C267.484 244.239 263.726 240.481 259.091 240.481Z" fill="white" stroke="black" stroke-width="0.729833"/>
<path d="M259.091 306.166H24.0845C19.4491 306.166 15.6914 309.923 15.6914 314.559V326.966C15.6914 331.601 19.4491 335.359 24.0845 335.359H259.091C263.726 335.359 267.484 331.601 267.484 326.966V314.559C267.484 309.923 263.726 306.166 259.091 306.166Z" fill="white" stroke="black" stroke-width="0.729833"/>
<path d="M259.091 366.742H24.0845C19.4491 366.742 15.6914 370.5 15.6914 375.135V387.542C15.6914 392.178 19.4491 395.936 24.0845 395.936H259.091C263.726 395.936 267.484 392.178 267.484 387.542V375.135C267.484 370.5 263.726 366.742 259.091 366.742Z" fill="white" stroke="black" stroke-width="0.729833"/>
<path d="M259.091 425.128H24.0845C19.4491 425.128 15.6914 428.886 15.6914 433.521V445.929C15.6914 450.564 19.4491 454.322 24.0845 454.322H259.091C263.726 454.322 267.484 450.564 267.484 445.929V433.521C267.484 428.886 263.726 425.128 259.091 425.128Z" fill="white" stroke="black" stroke-width="0.729833"/>
<path d="M31.3837 450.308C37.0267 450.308 41.6013 445.733 41.6013 440.09C41.6013 434.447 37.0267 429.873 31.3837 429.873C25.7406 429.873 21.166 434.447 21.166 440.09C21.166 445.733 25.7406 450.308 31.3837 450.308Z" fill="#D9D9D9"/>
<path d="M27.9844 441.977C27.9844 441.953 27.9844 441.927 27.9844 441.902V438.278C27.9844 437.855 27.9844 437.643 28.0669 437.482C28.1391 437.34 28.2544 437.224 28.3967 437.152C28.558 437.07 28.7697 437.07 29.1923 437.07H33.5713C33.9938 437.07 34.2055 437.07 34.3668 437.152C34.5084 437.224 34.6244 437.34 34.6967 437.482C34.7791 437.643 34.7792 437.855 34.7792 438.277V441.903C34.7792 442.086 34.7792 442.229 34.7719 442.346M27.9844 441.977C27.9851 442.35 27.9895 442.546 28.0669 442.697C28.1391 442.839 28.2544 442.955 28.3967 443.027C28.558 443.109 28.7697 443.109 29.1916 443.109H33.572C33.9946 443.109 34.2055 443.109 34.3668 443.027C34.5084 442.955 34.6244 442.839 34.6967 442.697C34.7434 442.605 34.7631 442.498 34.7719 442.346M27.9844 441.977L29.7841 439.877L29.7849 439.877C29.9447 439.69 30.0243 439.597 30.1192 439.563C30.2024 439.534 30.2936 439.535 30.3761 439.566C30.4709 439.601 30.5498 439.695 30.7067 439.884L31.7153 441.093C31.8605 441.268 31.9342 441.356 32.0226 441.392C32.1014 441.422 32.1875 441.426 32.2685 441.402C32.3612 441.375 32.4422 441.294 32.6042 441.132L32.7918 440.944C32.9568 440.779 33.0392 440.696 33.1334 440.669C33.2151 440.646 33.3027 440.651 33.3815 440.684C33.472 440.721 33.545 440.811 33.6903 440.994L34.7719 442.346M34.7719 442.346L34.7792 442.354M32.5145 439.335C32.3057 439.335 32.1364 439.166 32.1364 438.957C32.1364 438.749 32.3057 438.58 32.5145 438.58C32.7225 438.58 32.8918 438.749 32.8918 438.957C32.8918 439.166 32.7225 439.335 32.5145 439.335Z" stroke="#BDBDBD" stroke-width="1.45967" stroke-linecap="round" stroke-linejoin="round"/>
<path d="M51.4355 444.469V437.038H55.8912V437.837H52.3354V440.347H55.5577V441.146H52.3354V444.469H51.4355ZM60.4796 442.191V438.896H61.3357V444.469H60.4796V443.526H60.4213C60.2906 443.809 60.0877 444.05 59.8118 444.248C59.536 444.444 59.1878 444.542 58.7667 444.542C58.4186 444.542 58.1091 444.466 57.8376 444.313C57.5669 444.158 57.3545 443.926 57.199 443.617C57.0443 443.305 56.9669 442.912 56.9669 442.438V438.896H57.8238V442.379C57.8238 442.786 57.9369 443.11 58.1646 443.352C58.3945 443.594 58.6871 443.715 59.0426 443.715C59.2557 443.715 59.4717 443.66 59.6921 443.551C59.9147 443.443 60.1008 443.275 60.2512 443.051C60.403 442.826 60.4796 442.539 60.4796 442.191ZM63.7602 437.038V444.469H62.9041V437.038H63.7602ZM66.1854 437.038V444.469H65.3287V437.038H66.1854ZM70.6272 444.469V438.896H71.4549V439.738H71.5125C71.614 439.462 71.7979 439.239 72.0643 439.066C72.33 438.895 72.6299 438.809 72.9642 438.809C73.0269 438.809 73.1057 438.81 73.1999 438.812C73.294 438.815 73.3656 438.819 73.4138 438.823V439.694C73.3853 439.687 73.3181 439.677 73.2145 439.662C73.1131 439.644 73.005 439.636 72.8912 439.636C72.6204 439.636 72.3788 439.693 72.1657 439.807C71.9555 439.918 71.7884 440.073 71.665 440.271C71.5439 440.467 71.4833 440.691 71.4833 440.943V444.469H70.6272ZM76.5958 444.585C76.0594 444.585 75.5959 444.467 75.2062 444.23C74.8194 443.991 74.5209 443.656 74.31 443.229C74.102 442.798 73.9983 442.297 73.9983 441.726C73.9983 441.155 74.102 440.652 74.31 440.217C74.5209 439.779 74.8135 439.438 75.188 439.193C75.5653 438.947 76.0061 438.823 76.5089 438.823C76.7994 438.823 77.0862 438.872 77.3687 438.969C77.6519 439.066 77.9095 439.223 78.1416 439.44C78.3737 439.655 78.559 439.941 78.697 440.297C78.8349 440.652 78.9035 441.09 78.9035 441.61V441.973H74.6077V441.233H78.0329C78.0329 440.918 77.9701 440.638 77.8446 440.391C77.7212 440.144 77.5446 439.95 77.3147 439.807C77.087 439.664 76.8184 439.593 76.5089 439.593C76.1681 439.593 75.8725 439.677 75.6237 439.847C75.377 440.014 75.1872 440.231 75.0536 440.5C74.9208 440.768 74.8544 441.056 74.8544 441.363V441.857C74.8544 442.278 74.9267 442.635 75.0719 442.927C75.2193 443.218 75.4244 443.439 75.6857 443.591C75.9463 443.741 76.2499 443.816 76.5958 443.816C76.8213 443.816 77.0242 443.785 77.206 443.722C77.3891 443.656 77.5482 443.56 77.6811 443.432C77.8139 443.301 77.9168 443.139 77.9891 442.945L78.8167 443.178C78.7298 443.459 78.5831 443.705 78.3773 443.918C78.1722 444.129 77.9183 444.293 77.6154 444.411C77.3132 444.528 76.9731 444.585 76.5958 444.585ZM84.594 438.896L82.533 444.469H81.6623L79.6013 438.896H80.5303L82.0688 443.337H82.1265L83.665 438.896H84.594ZM85.7246 444.469V438.896H86.5806V444.469H85.7246ZM86.1595 437.967C85.9931 437.967 85.8486 437.91 85.7282 437.797C85.6093 437.683 85.5501 437.546 85.5501 437.386C85.5501 437.227 85.6093 437.09 85.7282 436.977C85.8486 436.863 85.9931 436.806 86.1595 436.806C86.3267 436.806 86.469 436.863 86.5879 436.977C86.7091 437.09 86.7689 437.227 86.7689 437.386C86.7689 437.546 86.7091 437.683 86.5879 437.797C86.469 437.91 86.3267 437.967 86.1595 437.967ZM90.486 444.585C89.9488 444.585 89.4854 444.467 89.0964 444.23C88.7088 443.991 88.4103 443.656 88.2001 443.229C87.9914 442.798 87.8878 442.297 87.8878 441.726C87.8878 441.155 87.9914 440.652 88.2001 440.217C88.4103 439.779 88.703 439.438 89.0781 439.193C89.4554 438.947 89.8956 438.823 90.3984 438.823C90.6889 438.823 90.9757 438.872 91.2589 438.969C91.5413 439.066 91.7989 439.223 92.0318 439.44C92.2638 439.655 92.4485 439.941 92.5864 440.297C92.7244 440.652 92.7937 441.09 92.7937 441.61V441.973H88.4972V441.233H91.9223C91.9223 440.918 91.8595 440.638 91.734 440.391C91.6107 440.144 91.434 439.95 91.2041 439.807C90.9764 439.664 90.7086 439.593 90.3984 439.593C90.0576 439.593 89.7627 439.677 89.5131 439.847C89.2664 440.014 89.0767 440.231 88.9439 440.5C88.8103 440.768 88.7439 441.056 88.7439 441.363V441.857C88.7439 442.278 88.8168 442.635 88.9621 442.927C89.1095 443.218 89.3139 443.439 89.5752 443.591C89.8364 443.741 90.14 443.816 90.486 443.816C90.7108 443.816 90.9137 443.785 91.0954 443.722C91.2793 443.656 91.4377 443.56 91.5705 443.432C91.7034 443.301 91.8063 443.139 91.8792 442.945L92.7061 443.178C92.6193 443.459 92.4726 443.705 92.2675 443.918C92.0617 444.129 91.8077 444.293 91.5056 444.411C91.2027 444.528 90.8633 444.585 90.486 444.585ZM95.3584 444.469L93.6607 438.896H94.5606L95.7649 443.163H95.8232L97.0136 438.896H97.9274L99.1031 443.148H99.1615L100.366 438.896H101.266L99.5681 444.469H98.7258L97.507 440.188H97.4194L96.2006 444.469H95.3584ZM102.263 444.528C102.085 444.528 101.931 444.464 101.803 444.335C101.674 444.207 101.611 444.053 101.611 443.875C101.611 443.695 101.674 443.542 101.803 443.413C101.931 443.286 102.085 443.221 102.263 443.221C102.443 443.221 102.596 443.286 102.725 443.413C102.852 443.542 102.916 443.695 102.916 443.875C102.916 443.993 102.887 444.102 102.826 444.201C102.768 444.3 102.69 444.38 102.59 444.44C102.493 444.499 102.384 444.528 102.263 444.528ZM105.078 444.528C104.899 444.528 104.745 444.464 104.616 444.335C104.489 444.207 104.424 444.053 104.424 443.875C104.424 443.695 104.489 443.542 104.616 443.413C104.745 443.286 104.899 443.221 105.078 443.221C105.256 443.221 105.41 443.286 105.538 443.413C105.667 443.542 105.731 443.695 105.731 443.875C105.731 443.993 105.7 444.102 105.64 444.201C105.582 444.3 105.503 444.38 105.404 444.44C105.307 444.499 105.199 444.528 105.078 444.528ZM107.891 444.528C107.712 444.528 107.559 444.464 107.431 444.335C107.302 444.207 107.238 444.053 107.238 443.875C107.238 443.695 107.302 443.542 107.431 443.413C107.559 443.286 107.712 443.221 107.891 443.221C108.071 443.221 108.224 443.286 108.352 443.413C108.48 443.542 108.544 443.695 108.544 443.875C108.544 443.993 108.514 444.102 108.454 444.201C108.395 444.3 108.317 444.38 108.218 444.44C108.121 444.499 108.012 444.528 107.891 444.528Z" fill="#BDBDBD"/>
</g>
</svg>
