<svg width="285" height="616" viewBox="0 0 285 616" fill="none" xmlns="http://www.w3.org/2000/svg">
<mask id="mask0_783_2123" style="mask-type:luminance" maskUnits="userSpaceOnUse" x="0" y="0" width="285" height="616">
<path d="M284.433 0H0V615.542H284.433V0Z" fill="white"/>
</mask>
<g mask="url(#mask0_783_2123)">
<path d="M284.433 0H0V615.542H284.433V0Z" fill="#E0E0E0"/>
<path d="M23.4206 48.2188L18.4102 53.2401L23.4206 58.2614L21.8781 59.8039L15.3145 53.2401L21.8781 46.6763L23.4206 48.2188Z" fill="black"/>
<mask id="mask1_783_2123" style="mask-type:luminance" maskUnits="userSpaceOnUse" x="0" y="0" width="285" height="33">
<path d="M284.433 0H0V32.0899H284.433V0Z" fill="white"/>
</mask>
<g mask="url(#mask1_783_2123)">
<path opacity="0.35" d="M257.936 13.0063H270.091C270.964 13.0063 271.671 13.714 271.671 14.5865V18.9624C271.671 19.8354 270.964 20.5421 270.091 20.5421H257.936C257.063 20.5421 256.355 19.8354 256.355 18.9624V14.5865L256.363 14.4253C256.444 13.6282 257.118 13.0063 257.936 13.0063Z" fill="black" stroke="black" stroke-width="0.729315"/>
<path opacity="0.4" d="M272.764 15.3164V18.2337C273.351 17.9864 273.732 17.4117 273.732 16.775C273.732 16.1383 273.351 15.5636 272.764 15.3164Z" fill="black"/>
<path d="M257.449 15.0735C257.449 14.536 257.885 14.1006 258.421 14.1006H269.605C270.141 14.1006 270.577 14.536 270.577 15.0735V18.4765C270.577 19.014 270.141 19.4494 269.605 19.4494H258.421C257.885 19.4494 257.449 19.014 257.449 18.4765V15.0735Z" fill="black"/>
<path d="M245.14 18.7657C246.07 17.9787 247.433 17.9787 248.363 18.7657C248.41 18.808 248.437 18.8678 248.438 18.9312C248.439 18.9939 248.415 19.0552 248.37 19.099L246.913 20.5693C246.87 20.6123 246.812 20.6371 246.751 20.6371C246.691 20.6371 246.633 20.6123 246.589 20.5693L245.132 19.099C245.088 19.0552 245.063 18.9939 245.065 18.9312C245.065 18.8678 245.093 18.808 245.14 18.7657ZM243.196 16.8045C245.2 14.9404 248.304 14.9404 250.308 16.8045C250.354 16.8483 250.38 16.9081 250.38 16.9708C250.381 17.0335 250.356 17.0948 250.312 17.1393L249.47 17.9904C249.384 18.0772 249.243 18.0794 249.154 17.9948C248.496 17.3982 247.639 17.0686 246.751 17.0686C245.864 17.0693 245.008 17.3989 244.351 17.9948C244.262 18.0787 244.121 18.0772 244.034 17.9904L243.192 17.1393C243.148 17.0948 243.124 17.0335 243.124 16.9708C243.125 16.9081 243.151 16.8483 243.196 16.8045ZM241.252 14.8485C244.326 11.9028 249.176 11.9026 252.25 14.8485C252.295 14.8923 252.32 14.9521 252.32 15.0148C252.32 15.0768 252.296 15.1366 252.252 15.1811L251.409 16.0322C251.322 16.1197 251.181 16.1204 251.093 16.0344C249.922 14.9207 248.368 14.3001 246.751 14.3001C245.135 14.3001 243.58 14.9207 242.409 16.0344C242.321 16.1204 242.18 16.1197 242.093 16.0322L241.25 15.1811C241.206 15.1366 241.182 15.0768 241.182 15.0148C241.182 14.9521 241.208 14.8923 241.252 14.8485Z" fill="black"/>
<path d="M226.576 17.7484C226.978 17.7484 227.305 18.0744 227.305 18.4777V19.9363C227.305 20.3389 226.978 20.6656 226.576 20.6656H225.847C225.444 20.6656 225.117 20.3389 225.117 19.9363V18.4777C225.117 18.0744 225.444 17.7484 225.847 17.7484H226.576ZM229.98 16.2897C230.382 16.2897 230.709 16.6158 230.709 17.0191V19.9363C230.709 20.3389 230.382 20.6649 229.98 20.6656H229.25C228.848 20.6656 228.521 20.3389 228.521 19.9363V17.0191C228.521 16.6158 228.848 16.2897 229.25 16.2897H229.98ZM233.383 14.5875C233.785 14.5875 234.112 14.9135 234.112 15.3168V19.9363C234.112 20.3389 233.785 20.6656 233.383 20.6656H232.653C232.251 20.6649 231.924 20.3389 231.924 19.9363V15.3168C231.924 14.9143 232.251 14.5875 232.653 14.5875H233.383ZM236.786 12.8857C237.189 12.8857 237.516 13.2123 237.516 13.6151V19.9363C237.516 20.3389 237.189 20.6656 236.786 20.6656H236.057C235.654 20.6656 235.328 20.3389 235.328 19.9363V13.6151C235.328 13.2123 235.654 12.8857 236.057 12.8857H236.786Z" fill="black"/>
<path d="M27.2187 20.6085C29.1791 20.6085 30.3438 19.0755 30.3438 16.4798C30.3438 15.5018 30.1571 14.6792 29.799 14.0439C29.2805 13.0556 28.3885 12.5215 27.2617 12.5215C25.5843 12.5215 24.3984 13.6486 24.3984 15.2298C24.3984 16.7147 25.4669 17.7933 26.9357 17.7933C27.8386 17.7933 28.5701 17.3718 28.9333 16.6396H28.9494C28.9494 16.6396 28.9712 16.6396 28.9764 16.6396C28.9873 16.6396 29.0245 16.6396 29.0245 16.6396C29.0245 18.4023 28.3564 19.4547 27.2296 19.4547C26.5674 19.4547 26.0547 19.0915 25.8782 18.5095H24.5056C24.7354 19.7756 25.8089 20.6085 27.2187 20.6085ZM27.2668 16.6986C26.38 16.6986 25.7499 16.0685 25.7499 15.1868C25.7499 14.3269 26.4121 13.6699 27.2727 13.6699C28.1325 13.6699 28.7948 14.3378 28.7948 15.2086C28.7948 16.0685 28.1486 16.6986 27.2668 16.6986Z" fill="black"/>
<path d="M32.5969 20.5339C33.1045 20.5339 33.4517 20.1707 33.4517 19.6901C33.4517 19.2036 33.1045 18.8455 32.5969 18.8455C32.0952 18.8455 31.7422 19.2036 31.7422 19.6901C31.7422 20.1707 32.0952 20.5339 32.5969 20.5339ZM32.5969 16.5278C33.1045 16.5278 33.4517 16.1697 33.4517 15.689C33.4517 15.2026 33.1045 14.8452 32.5969 14.8452C32.0952 14.8452 31.7422 15.2026 31.7422 15.689C31.7422 16.1697 32.0952 16.5278 32.5969 16.5278Z" fill="black"/>
<path d="M38.4537 20.4209H39.773V18.9841H40.8145V17.8194H39.773V12.7129H37.8287C36.4663 14.7643 35.3818 16.4789 34.6875 17.7552V18.9841H38.4537V20.4209ZM35.9645 17.7713C36.8616 16.1901 37.6631 14.924 38.3997 13.8346H38.4748V17.8515H35.9645V17.7713Z" fill="black"/>
<path d="M43.7527 20.4209H45.1304V12.7129H43.7578L41.7441 14.1232V15.4477L43.6615 14.1014H43.7527V20.4209Z" fill="black"/>
</g>
<path d="M54.3347 72.932C65.0086 72.932 73.6615 64.2791 73.6615 53.6052C73.6615 42.9312 65.0086 34.2783 54.3347 34.2783C43.6607 34.2783 35.0078 42.9312 35.0078 53.6052C35.0078 64.2791 43.6607 72.932 54.3347 72.932Z" fill="#D9D9D9"/>
<path d="M47.9102 57.1751C47.9102 57.1291 47.9102 57.081 47.9102 57.0321V50.178C47.9102 49.3787 47.9102 48.9783 48.0662 48.6727C48.2033 48.4043 48.4214 48.1863 48.6898 48.0491C48.9954 47.8931 49.3958 47.8931 50.1951 47.8931H58.4772C59.2773 47.8931 59.6769 47.8931 59.9818 48.0491C60.2509 48.1863 60.4697 48.4043 60.6061 48.6727C60.7622 48.9783 60.7622 49.378 60.7622 50.1758V57.0343C60.7622 57.3807 60.7622 57.652 60.749 57.873M47.9102 57.1751C47.9109 57.8803 47.9196 58.2501 48.0662 58.5367C48.2033 58.8051 48.4214 59.0246 48.6898 59.161C48.9954 59.3171 49.395 59.3171 50.1929 59.3171H58.4794C59.278 59.3171 59.6769 59.3171 59.9818 59.161C60.2509 59.0246 60.4697 58.8051 60.6061 58.5367C60.6943 58.3638 60.7323 58.1611 60.749 57.873M47.9102 57.1751L51.3146 53.2032L51.3153 53.2025C51.6173 52.8502 51.769 52.6737 51.9484 52.6103C52.1059 52.5541 52.278 52.5556 52.4341 52.6139C52.6128 52.6796 52.7616 52.8582 53.0599 53.2156L54.9663 55.5042C55.242 55.8346 55.3805 56.0009 55.549 56.0672C55.6971 56.1263 55.8612 56.1329 56.0143 56.0877C56.1886 56.0366 56.3418 55.8827 56.6488 55.5764L57.0033 55.2212C57.3154 54.9091 57.4722 54.753 57.6487 54.702C57.8041 54.6567 57.9696 54.6669 58.1191 54.7282C58.289 54.7982 58.4276 54.9703 58.7033 55.3153L60.749 57.873M60.749 57.873L60.7622 57.8883M56.4782 52.1771C56.0836 52.1771 55.7642 51.8576 55.7642 51.4631C55.7642 51.0685 56.0836 50.7491 56.4782 50.7491C56.872 50.7491 57.1922 51.0685 57.1922 51.4631C57.1922 51.8576 56.872 52.1771 56.4782 52.1771Z" stroke="#BDBDBD" stroke-width="1.45863" stroke-linecap="round" stroke-linejoin="round"/>
<path d="M89.3342 64.6438C89.3342 65.3155 89.2132 65.8953 88.9703 66.3847C88.7282 66.8733 88.3956 67.2504 87.9726 67.5158C87.5503 67.7813 87.0675 67.9133 86.5242 67.9133C85.9816 67.9133 85.4988 67.7813 85.0765 67.5158C84.6535 67.2504 84.3209 66.8733 84.0788 66.3847C83.8359 65.8953 83.7148 65.3155 83.7148 64.6438C83.7148 63.9728 83.8359 63.3923 84.0788 62.9037C84.3209 62.415 84.6535 62.0372 85.0765 61.7725C85.4988 61.507 85.9816 61.3743 86.5242 61.3743C87.0675 61.3743 87.5503 61.507 87.9726 61.7725C88.3956 62.0372 88.7282 62.415 88.9703 62.9037C89.2132 63.3923 89.3342 63.9728 89.3342 64.6438ZM88.5881 64.6438C88.5881 64.0932 88.4962 63.6279 88.3117 63.2486C88.1294 62.8694 87.8814 62.5828 87.5686 62.388C87.2579 62.1933 86.91 62.0956 86.5242 62.0956C86.1391 62.0956 85.7897 62.1933 85.4769 62.388C85.1662 62.5828 84.919 62.8694 84.7344 63.2486C84.5521 63.6279 84.4609 64.0932 84.4609 64.6438C84.4609 65.1952 84.5521 65.6605 84.7344 66.0397C84.919 66.419 85.1662 66.7056 85.4769 66.9003C85.7897 67.095 86.1391 67.1928 86.5242 67.1928C86.91 67.1928 87.2579 67.095 87.5686 66.9003C87.8814 66.7056 88.1294 66.419 88.3117 66.0397C88.4962 65.6605 88.5881 65.1952 88.5881 64.6438ZM91.264 64.9545V67.8265H90.5303V63.0532H91.2392V63.7985H91.3012C91.4135 63.5564 91.5834 63.3617 91.811 63.2143C92.0392 63.0656 92.3332 62.9904 92.6934 62.9904C93.0165 62.9904 93.2995 63.0568 93.5424 63.1895C93.7845 63.3201 93.9734 63.5192 94.1076 63.7861C94.2425 64.0516 94.3096 64.3871 94.3096 64.7933V67.8265H93.5766V64.8429C93.5766 64.468 93.4789 64.1756 93.2842 63.9663C93.0895 63.7555 92.8218 63.6497 92.4827 63.6497C92.2486 63.6497 92.0393 63.7001 91.8547 63.8022C91.6724 63.9035 91.528 64.0516 91.4223 64.2463C91.3172 64.4411 91.264 64.6773 91.264 64.9545ZM96.3838 61.4618V67.8265H95.6501V61.4618H96.3838ZM97.7272 67.8265V63.0532H98.4601V67.8265H97.7272ZM98.0999 62.2575C97.9569 62.2575 97.8337 62.2086 97.7301 62.1109C97.6287 62.0139 97.5777 61.8965 97.5777 61.7601C97.5777 61.623 97.6287 61.5063 97.7301 61.4086C97.8337 61.3116 97.9569 61.2627 98.0999 61.2627C98.2428 61.2627 98.3653 61.3116 98.4667 61.4086C98.5703 61.5063 98.6221 61.623 98.6221 61.7601C98.6221 61.8965 98.5703 62.0139 98.4667 62.1109C98.3653 62.2086 98.2428 62.2575 98.0999 62.2575ZM100.537 64.9545V67.8265H99.8035V63.0532H100.512V63.7985H100.574C100.686 63.5564 100.856 63.3617 101.084 63.2143C101.312 63.0656 101.606 62.9904 101.967 62.9904C102.29 62.9904 102.573 63.0568 102.815 63.1895C103.058 63.3201 103.246 63.5192 103.381 63.7861C103.516 64.0516 103.583 64.3871 103.583 64.7933V67.8265H102.849V64.8429C102.849 64.468 102.752 64.1756 102.557 63.9663C102.363 63.7555 102.095 63.6497 101.755 63.6497C101.521 63.6497 101.312 63.7001 101.128 63.8022C100.946 63.9035 100.801 64.0516 100.695 64.2463C100.59 64.4411 100.537 64.6773 100.537 64.9545ZM106.925 67.9257C106.464 67.9257 106.068 67.8243 105.734 67.6216C105.402 67.4167 105.147 67.13 104.966 66.7639C104.788 66.3949 104.699 65.9661 104.699 65.4767C104.699 64.988 104.788 64.557 104.966 64.1843C105.147 63.8087 105.397 63.517 105.719 63.3077C106.042 63.0962 106.419 62.9904 106.85 62.9904C107.099 62.9904 107.344 63.032 107.587 63.1152C107.829 63.1976 108.05 63.3325 108.248 63.5192C108.447 63.7037 108.606 63.948 108.724 64.2522C108.842 64.557 108.901 64.9319 108.901 65.3775V65.6882H105.222V65.0544H108.156C108.156 64.7853 108.102 64.5446 107.994 64.3331C107.888 64.1216 107.737 63.9553 107.54 63.8328C107.345 63.711 107.115 63.6497 106.85 63.6497C106.558 63.6497 106.305 63.7219 106.092 63.8671C105.88 64.01 105.718 64.1967 105.604 64.4265C105.49 64.6562 105.433 64.9027 105.433 65.166V65.589C105.433 65.9493 105.495 66.2549 105.619 66.5057C105.746 66.7544 105.921 66.9441 106.144 67.0746C106.368 67.203 106.628 67.2672 106.925 67.2672C107.117 67.2672 107.291 67.2402 107.447 67.1862C107.604 67.13 107.74 67.0476 107.854 66.9375C107.968 66.8259 108.056 66.6866 108.118 66.5211L108.827 66.7202C108.752 66.9601 108.627 67.1716 108.45 67.3539C108.275 67.5341 108.057 67.6756 107.798 67.7769C107.539 67.8761 107.248 67.9257 106.925 67.9257Z" fill="black" fill-opacity="0.54"/>
<path d="M93.3013 46.8114H91.6852C91.6232 46.4657 91.5072 46.1623 91.338 45.8997C91.1688 45.6372 90.9617 45.414 90.7166 45.231C90.4716 45.0486 90.1966 44.9101 89.8933 44.8167C89.5928 44.7233 89.2733 44.6774 88.9349 44.6774C88.3238 44.6774 87.7761 44.8306 87.2925 45.1383C86.8126 45.4454 86.4327 45.8961 86.1533 46.4898C85.8769 47.0841 85.7391 47.8091 85.7391 48.6653C85.7391 49.5288 85.8769 50.2574 86.1533 50.8511C86.4327 51.4455 86.8148 51.894 87.2976 52.1981C87.7812 52.5022 88.3252 52.6539 88.9298 52.6539C89.2646 52.6539 89.5826 52.6087 89.8823 52.519C90.1864 52.4264 90.4614 52.2893 90.7064 52.1099C90.9515 51.9304 91.1586 51.7109 91.3278 51.452C91.5007 51.1895 91.6195 50.8897 91.6852 50.5506L93.3013 50.5564C93.2153 51.0779 93.0475 51.5578 92.7989 51.9961C92.5538 52.4315 92.238 52.8078 91.8507 53.1251C91.4679 53.4394 91.0288 53.683 90.5351 53.8558C90.0413 54.028 89.5031 54.1147 88.9189 54.1147C88.0007 54.1147 87.1824 53.8974 86.464 53.462C85.7456 53.0237 85.1797 52.3965 84.7647 51.5818C84.3541 50.7665 84.1484 49.795 84.1484 48.6653C84.1484 47.5327 84.3556 46.5605 84.7705 45.7495C85.1848 44.9341 85.7507 44.3091 86.4691 43.8744C87.1875 43.4354 88.0043 43.2166 88.9189 43.2166C89.4819 43.2166 90.007 43.2975 90.4942 43.4595C90.9843 43.6184 91.4248 43.8533 91.815 44.164C92.2052 44.4717 92.5275 44.8481 92.7835 45.2937C93.0388 45.7356 93.2116 46.2411 93.3013 46.8114ZM96.6409 49.2458V53.9696H95.0925V43.3617H96.6205V47.308H96.7189C96.9049 46.8799 97.1901 46.5401 97.5737 46.2877C97.9566 46.0361 98.4576 45.91 99.0753 45.91C99.6209 45.91 100.098 46.0223 100.505 46.2469C100.916 46.4708 101.234 46.8063 101.458 47.2512C101.686 47.6931 101.8 48.2459 101.8 48.9089V53.9696H100.251V49.0956C100.251 48.5121 100.101 48.0592 99.801 47.7383C99.5005 47.4138 99.0826 47.2512 98.5473 47.2512C98.1812 47.2512 97.853 47.3292 97.5627 47.4845C97.2761 47.6399 97.05 47.8682 96.8845 48.1679C96.7218 48.4655 96.6409 48.8243 96.6409 49.2458ZM106.183 54.1454C105.678 54.1454 105.222 54.0528 104.815 53.8661C104.407 53.6764 104.084 53.4015 103.846 53.0427C103.611 52.6831 103.494 52.2433 103.494 51.7219C103.494 51.2726 103.58 50.9028 103.753 50.6133C103.925 50.323 104.159 50.0933 104.452 49.9241C104.746 49.7549 105.074 49.6273 105.436 49.5412C105.799 49.4544 106.169 49.3888 106.545 49.3443C107.021 49.2889 107.408 49.2437 107.705 49.2094C108.002 49.1715 108.218 49.1109 108.352 49.0278C108.487 48.9454 108.554 48.8104 108.554 48.6237V48.588C108.554 48.1351 108.427 47.785 108.171 47.5363C107.919 47.2876 107.543 47.1636 107.042 47.1636C106.521 47.1636 106.11 47.2789 105.809 47.5101C105.512 47.7383 105.307 47.9921 105.193 48.2722L103.737 47.9404C103.91 47.4568 104.162 47.0666 104.493 46.7698C104.828 46.4693 105.213 46.252 105.649 46.1171C106.084 45.9792 106.541 45.91 107.021 45.91C107.339 45.91 107.675 45.9479 108.031 46.0237C108.39 46.0966 108.726 46.2308 109.036 46.4278C109.351 46.6247 109.608 46.9062 109.808 47.2723C110.009 47.6348 110.108 48.1059 110.108 48.6864V53.9696H108.596V52.8822H108.534C108.434 53.082 108.284 53.2789 108.083 53.4722C107.883 53.6655 107.626 53.8267 107.312 53.9543C106.997 54.0819 106.621 54.1454 106.183 54.1454ZM106.519 52.9026C106.947 52.9026 107.313 52.818 107.617 52.6488C107.924 52.4796 108.158 52.2586 108.316 51.9859C108.478 51.7095 108.559 51.4141 108.559 51.0998V50.0743C108.505 50.1298 108.397 50.1815 108.238 50.2297C108.083 50.2749 107.905 50.3143 107.705 50.3493C107.505 50.3799 107.309 50.4091 107.12 50.4368C106.93 50.4609 106.771 50.482 106.643 50.4988C106.343 50.5375 106.068 50.6009 105.819 50.6906C105.574 50.7803 105.377 50.9101 105.229 51.0793C105.084 51.2449 105.011 51.4659 105.011 51.7423C105.011 52.1259 105.153 52.4154 105.436 52.6124C105.719 52.8056 106.08 52.9026 106.519 52.9026ZM112.172 53.9696V46.0135H113.668V47.2774H113.751C113.896 46.8493 114.152 46.5124 114.518 46.2673C114.888 46.0186 115.305 45.8946 115.772 45.8946C115.868 45.8946 115.982 45.8975 116.113 45.9048C116.248 45.9114 116.353 45.9202 116.429 45.9304V47.4123C116.367 47.3948 116.257 47.3759 116.098 47.3547C115.939 47.3306 115.78 47.319 115.621 47.319C115.255 47.319 114.928 47.3963 114.642 47.5516C114.359 47.7041 114.134 47.9163 113.969 48.1891C113.803 48.4582 113.72 48.7659 113.72 49.1109V53.9696H112.172ZM119.318 43.3617V53.9696H117.769V43.3617H119.318ZM121.402 53.9696V46.0135H122.95V53.9696H121.402ZM122.184 44.7861C121.915 44.7861 121.683 44.6964 121.49 44.5162C121.3 44.3332 121.205 44.1158 121.205 43.8635C121.205 43.6082 121.3 43.3909 121.49 43.2115C121.683 43.0284 121.915 42.9365 122.184 42.9365C122.454 42.9365 122.683 43.0284 122.873 43.2115C123.066 43.3909 123.163 43.6082 123.163 43.8635C123.163 44.1158 123.066 44.3332 122.873 44.5162C122.683 44.6964 122.454 44.7861 122.184 44.7861ZM128.463 54.1301C127.679 54.1301 127.004 53.9631 126.438 53.6276C125.875 53.2892 125.44 52.8144 125.132 52.2032C124.829 51.5884 124.676 50.8686 124.676 50.043C124.676 49.2283 124.829 48.51 125.132 47.8886C125.44 47.2672 125.868 46.7815 126.417 46.4329C126.969 46.0843 127.616 45.91 128.354 45.91C128.803 45.91 129.238 45.9843 129.66 46.1324C130.081 46.2812 130.459 46.5138 130.794 46.8318C131.129 47.1498 131.393 47.5618 131.587 48.0702C131.78 48.5741 131.876 49.1868 131.876 49.9088V50.458H125.552V49.2976H130.359C130.359 48.8899 130.276 48.5289 130.111 48.2146C129.944 47.8973 129.712 47.6464 129.411 47.4641C129.114 47.2811 128.765 47.1892 128.365 47.1892C127.929 47.1892 127.55 47.2964 127.225 47.5101C126.904 47.7208 126.655 47.9972 126.479 48.3393C126.307 48.6777 126.22 49.0453 126.22 49.4428V50.3493C126.22 50.881 126.314 51.3331 126.5 51.7058C126.69 52.0792 126.954 52.3637 127.293 52.5606C127.631 52.7538 128.026 52.8508 128.478 52.8508C128.772 52.8508 129.04 52.8093 129.281 52.7261C129.524 52.6401 129.732 52.5124 129.909 52.3432C130.084 52.174 130.219 51.9647 130.312 51.7168L131.778 51.9808C131.66 52.4125 131.45 52.7903 131.146 53.1149C130.846 53.4358 130.468 53.6866 130.012 53.8661C129.559 54.0418 129.043 54.1301 128.463 54.1301Z" fill="black"/>
<path d="M0 102.834C0 90.75 9.7958 80.9546 21.8795 80.9546H262.554C274.638 80.9546 284.433 90.75 284.433 102.834V607.52C284.433 615.576 277.903 622.107 269.847 622.107H14.5863C6.53051 622.107 0 615.576 0 607.52V102.834Z" fill="white"/>
<path d="M262.554 52.6444C262.554 52.8026 262.478 52.9543 262.341 53.0659C262.204 53.1782 262.018 53.241 261.825 53.241C261.632 53.241 261.446 53.1782 261.309 53.0659C261.172 52.9543 261.096 52.8026 261.096 52.6444C261.096 52.4861 261.172 52.3344 261.309 52.2221C261.446 52.1105 261.632 52.0478 261.825 52.0478C262.018 52.0478 262.204 52.1105 262.341 52.2221C262.478 52.3344 262.554 52.4861 262.554 52.6444ZM262.554 46.6771C262.554 46.8354 262.478 46.9871 262.341 47.0994C262.204 47.211 262.018 47.2737 261.825 47.2737C261.632 47.2737 261.446 47.211 261.309 47.0994C261.172 46.9871 261.096 46.8354 261.096 46.6771C261.096 46.5189 261.172 46.3672 261.309 46.2549C261.446 46.1433 261.632 46.0805 261.825 46.0805C262.018 46.0805 262.204 46.1433 262.341 46.2549C262.478 46.3672 262.554 46.5189 262.554 46.6771ZM262.554 40.7099C262.554 40.8681 262.478 41.0198 262.341 41.1321C262.204 41.2437 262.018 41.3064 261.825 41.3064C261.632 41.3064 261.446 41.2437 261.309 41.1321C261.172 41.0198 261.096 40.8681 261.096 40.7099C261.096 40.5516 261.172 40.3999 261.309 40.2883C261.446 40.176 261.632 40.1133 261.825 40.1133C262.018 40.1133 262.204 40.176 262.341 40.2883C262.478 40.3999 262.554 40.5516 262.554 40.7099Z" fill="#926E5A" stroke="#585858" stroke-width="1.45863" stroke-linecap="round" stroke-linejoin="round"/>
<path d="M120.916 100.07V99.3867H125.69V100.07H123.689V105.751H122.918V100.07H120.916ZM128.027 105.851C127.596 105.851 127.218 105.749 126.893 105.543C126.57 105.338 126.317 105.051 126.134 104.682C125.954 104.313 125.864 103.882 125.864 103.389C125.864 102.893 125.954 102.458 126.134 102.087C126.317 101.716 126.57 101.428 126.893 101.223C127.218 101.018 127.596 100.915 128.027 100.915C128.458 100.915 128.835 101.018 129.159 101.223C129.484 101.428 129.736 101.716 129.916 102.087C130.099 102.458 130.19 102.893 130.19 103.389C130.19 103.882 130.099 104.313 129.916 104.682C129.736 105.051 129.484 105.338 129.159 105.543C128.835 105.749 128.458 105.851 128.027 105.851ZM128.027 105.192C128.354 105.192 128.624 105.108 128.835 104.94C129.046 104.773 129.203 104.552 129.305 104.278C129.406 104.005 129.457 103.709 129.457 103.389C129.457 103.07 129.406 102.773 129.305 102.497C129.203 102.222 129.046 101.999 128.835 101.829C128.624 101.659 128.354 101.575 128.027 101.575C127.7 101.575 127.43 101.659 127.219 101.829C127.008 101.999 126.851 102.222 126.75 102.497C126.648 102.773 126.597 103.07 126.597 103.389C126.597 103.709 126.648 104.005 126.75 104.278C126.851 104.552 127.008 104.773 127.219 104.94C127.43 105.108 127.7 105.192 128.027 105.192ZM133.112 105.851C132.715 105.851 132.363 105.751 132.058 105.549C131.754 105.347 131.516 105.061 131.344 104.692C131.172 104.321 131.086 103.883 131.086 103.377C131.086 102.876 131.172 102.44 131.344 102.072C131.516 101.703 131.755 101.418 132.062 101.217C132.368 101.016 132.723 100.915 133.125 100.915C133.435 100.915 133.681 100.967 133.861 101.071C134.044 101.173 134.182 101.289 134.278 101.419C134.376 101.548 134.451 101.653 134.505 101.736H134.567V99.3867H135.3V105.751H134.591V105.018H134.505C134.451 105.105 134.374 105.215 134.275 105.347C134.175 105.478 134.033 105.595 133.849 105.699C133.664 105.8 133.419 105.851 133.112 105.851ZM133.212 105.192C133.506 105.192 133.755 105.115 133.958 104.962C134.161 104.807 134.315 104.593 134.421 104.319C134.526 104.043 134.579 103.725 134.579 103.364C134.579 103.009 134.527 102.696 134.424 102.429C134.32 102.16 134.167 101.95 133.964 101.801C133.761 101.65 133.511 101.575 133.212 101.575C132.901 101.575 132.642 101.654 132.435 101.814C132.23 101.971 132.075 102.186 131.972 102.457C131.87 102.726 131.819 103.029 131.819 103.364C131.819 103.704 131.871 104.013 131.975 104.291C132.08 104.566 132.236 104.786 132.441 104.95C132.648 105.111 132.905 105.192 133.212 105.192ZM138.15 105.863C137.848 105.863 137.574 105.806 137.326 105.692C137.08 105.576 136.884 105.409 136.739 105.192C136.594 104.973 136.522 104.707 136.522 104.396C136.522 104.123 136.576 103.901 136.683 103.731C136.791 103.559 136.935 103.425 137.116 103.327C137.296 103.23 137.495 103.157 137.712 103.11C137.932 103.06 138.153 103.021 138.374 102.992C138.664 102.955 138.899 102.926 139.08 102.908C139.262 102.887 139.395 102.853 139.477 102.805C139.562 102.758 139.605 102.674 139.605 102.556V102.532C139.605 102.225 139.521 101.987 139.353 101.817C139.188 101.647 138.935 101.562 138.598 101.562C138.247 101.562 137.973 101.639 137.774 101.792C137.575 101.945 137.436 102.109 137.355 102.283L136.658 102.034C136.783 101.745 136.949 101.519 137.156 101.357C137.365 101.193 137.593 101.079 137.84 101.015C138.088 100.949 138.333 100.915 138.573 100.915C138.726 100.915 138.902 100.934 139.101 100.972C139.302 101.007 139.496 101.08 139.683 101.193C139.871 101.304 140.028 101.473 140.152 101.699C140.276 101.925 140.338 102.227 140.338 102.607V105.751H139.605V105.105H139.568C139.518 105.209 139.435 105.32 139.319 105.438C139.203 105.556 139.048 105.656 138.856 105.739C138.663 105.822 138.428 105.863 138.15 105.863ZM138.262 105.204C138.552 105.204 138.797 105.148 138.996 105.034C139.196 104.919 139.348 104.773 139.449 104.593C139.553 104.412 139.605 104.222 139.605 104.024V103.352C139.573 103.389 139.506 103.423 139.4 103.455C139.296 103.484 139.176 103.51 139.039 103.532C138.905 103.553 138.773 103.572 138.644 103.588C138.518 103.603 138.415 103.615 138.336 103.626C138.146 103.65 137.968 103.691 137.802 103.747C137.638 103.801 137.506 103.882 137.404 103.992C137.305 104.1 137.255 104.247 137.255 104.434C137.255 104.689 137.35 104.881 137.538 105.012C137.729 105.14 137.97 105.204 138.262 105.204ZM141.979 107.542C141.854 107.542 141.743 107.531 141.646 107.511C141.548 107.492 141.481 107.473 141.444 107.454L141.63 106.808C141.809 106.853 141.966 106.87 142.103 106.858C142.24 106.845 142.361 106.784 142.467 106.675C142.574 106.567 142.672 106.392 142.762 106.149L142.898 105.776L141.133 100.978H141.928L143.246 104.781H143.296L144.614 100.978H145.409L143.383 106.448C143.292 106.694 143.179 106.898 143.044 107.06C142.91 107.223 142.753 107.345 142.575 107.424C142.399 107.503 142.2 107.542 141.979 107.542Z" fill="#585858"/>
<path d="M253.802 142.946H88.9767C78.1013 142.946 69.2852 151.762 69.2852 162.638C69.2852 173.513 78.1013 182.329 88.9767 182.329H253.802C264.677 182.329 273.493 173.513 273.493 162.638C273.493 151.762 264.677 142.946 253.802 142.946Z" fill="#D9D9D9" fill-opacity="0.55"/>
<path d="M79.793 159.721V151.235H80.8206V155.013H85.346V151.235H86.3736V159.721H85.346V155.925H80.8206V159.721H79.793ZM90.9668 159.854C90.3535 159.854 89.8247 159.718 89.3798 159.447C88.9379 159.174 88.5965 158.793 88.3566 158.304C88.1188 157.812 88 157.24 88 156.589C88 155.937 88.1188 155.362 88.3566 154.864C88.5965 154.364 88.9306 153.975 89.3594 153.696C89.7897 153.414 90.2929 153.273 90.8676 153.273C91.1987 153.273 91.5262 153.328 91.8493 153.439C92.1731 153.549 92.467 153.729 92.7325 153.978C92.9972 154.223 93.2087 154.549 93.3663 154.956C93.5238 155.362 93.6026 155.861 93.6026 156.456V156.87H88.6957V156.025H92.6078C92.6078 155.665 92.5363 155.345 92.3926 155.064C92.2511 154.781 92.0498 154.559 91.7873 154.396C91.5277 154.233 91.2213 154.152 90.8676 154.152C90.4782 154.152 90.1412 154.248 89.8561 154.441C89.5746 154.632 89.3579 154.881 89.2055 155.188C89.0538 155.495 88.978 155.823 88.978 156.174V156.737C88.978 157.218 89.0604 157.626 89.2267 157.96C89.3951 158.291 89.6285 158.544 89.9268 158.718C90.2251 158.89 90.5715 158.975 90.9668 158.975C91.2235 158.975 91.4562 158.939 91.6633 158.868C91.8734 158.793 92.0542 158.682 92.2059 158.536C92.3576 158.386 92.475 158.202 92.5582 157.981L93.5026 158.246C93.4035 158.566 93.2364 158.848 93.0016 159.091C92.7668 159.331 92.4765 159.519 92.1315 159.655C91.7858 159.787 91.3978 159.854 90.9668 159.854ZM95.5265 162.108C95.3602 162.108 95.2129 162.094 95.0831 162.066C94.9532 162.042 94.8628 162.017 94.8132 161.992L95.0619 161.13C95.2997 161.191 95.5097 161.212 95.692 161.196C95.8744 161.18 96.0356 161.098 96.177 160.952C96.3207 160.808 96.4513 160.574 96.5701 160.251L96.7525 159.754L94.399 153.356H95.4601L97.217 158.428H97.2834L99.0403 153.356H100.101L97.3994 160.649C97.2776 160.978 97.1273 161.25 96.9472 161.465C96.7678 161.684 96.5592 161.845 96.3215 161.95C96.0866 162.055 95.8219 162.108 95.5265 162.108ZM102.685 151.235L102.602 157.334H101.64L101.557 151.235H102.685ZM102.121 159.787C101.917 159.787 101.741 159.714 101.595 159.568C101.449 159.421 101.375 159.245 101.375 159.041C101.375 158.837 101.449 158.661 101.595 158.515C101.741 158.369 101.917 158.295 102.121 158.295C102.325 158.295 102.501 158.369 102.648 158.515C102.793 158.661 102.867 158.837 102.867 159.041C102.867 159.177 102.833 159.301 102.763 159.415C102.697 159.528 102.607 159.619 102.494 159.688C102.384 159.754 102.26 159.787 102.121 159.787ZM108.054 159.721V151.235H109.082V155.013H113.607V151.235H114.635V159.721H113.607V155.925H109.082V159.721H108.054ZM119.145 159.854C118.571 159.854 118.066 159.717 117.633 159.443C117.202 159.17 116.865 158.787 116.621 158.295C116.381 157.804 116.261 157.229 116.261 156.572C116.261 155.909 116.381 155.33 116.621 154.835C116.865 154.341 117.202 153.957 117.633 153.684C118.066 153.41 118.571 153.273 119.145 153.273C119.719 153.273 120.223 153.41 120.654 153.684C121.087 153.957 121.424 154.341 121.664 154.835C121.907 155.33 122.029 155.909 122.029 156.572C122.029 157.229 121.907 157.804 121.664 158.295C121.424 158.787 121.087 159.17 120.654 159.443C120.223 159.717 119.719 159.854 119.145 159.854ZM119.145 158.975C119.582 158.975 119.94 158.863 120.223 158.639C120.504 158.415 120.713 158.122 120.848 157.757C120.983 157.392 121.051 156.997 121.051 156.572C121.051 156.146 120.983 155.75 120.848 155.382C120.713 155.015 120.504 154.718 120.223 154.492C119.94 154.265 119.582 154.152 119.145 154.152C118.709 154.152 118.35 154.265 118.067 154.492C117.786 154.718 117.577 155.015 117.442 155.382C117.307 155.75 117.239 156.146 117.239 156.572C117.239 156.997 117.307 157.392 117.442 157.757C117.577 158.122 117.786 158.415 118.067 158.639C118.35 158.863 118.709 158.975 119.145 158.975ZM124.747 159.721L122.808 153.356H123.836L125.212 158.229H125.278L126.637 153.356H127.681L129.024 158.213H129.09L130.466 153.356H131.493L129.554 159.721H128.593L127.201 154.831H127.101L125.708 159.721H124.747ZM136.068 159.721V153.356H137.013V154.317H137.079C137.195 154.002 137.405 153.747 137.709 153.551C138.014 153.355 138.356 153.256 138.737 153.256C138.809 153.256 138.899 153.258 139.006 153.261C139.114 153.264 139.196 153.268 139.251 153.273V154.268C139.218 154.259 139.142 154.247 139.023 154.231C138.907 154.211 138.784 154.201 138.654 154.201C138.345 154.201 138.068 154.266 137.825 154.396C137.585 154.523 137.394 154.7 137.254 154.926C137.116 155.15 137.046 155.406 137.046 155.693V159.721H136.068ZM147.703 157.119V153.356H148.681V159.721H147.703V158.644H147.637C147.488 158.967 147.256 159.242 146.941 159.468C146.626 159.692 146.228 159.804 145.747 159.804C145.35 159.804 144.996 159.717 144.687 159.543C144.378 159.366 144.134 159.101 143.957 158.747C143.78 158.391 143.692 157.942 143.692 157.4V153.356H144.67V157.334C144.67 157.798 144.8 158.168 145.059 158.445C145.322 158.721 145.656 158.859 146.062 158.859C146.305 158.859 146.552 158.797 146.804 158.672C147.058 158.548 147.271 158.358 147.442 158.1C147.616 157.844 147.703 157.516 147.703 157.119ZM151.749 157.334V157.284C151.755 156.757 151.809 156.337 151.914 156.025C152.019 155.713 152.169 155.46 152.362 155.266C152.555 155.073 152.787 154.895 153.058 154.732C153.221 154.633 153.368 154.515 153.498 154.379C153.627 154.242 153.73 154.083 153.804 153.903C153.881 153.724 153.92 153.525 153.92 153.307C153.92 153.035 153.856 152.8 153.73 152.602C153.603 152.403 153.433 152.25 153.22 152.142C153.007 152.034 152.771 151.98 152.511 151.98C152.285 151.98 152.067 152.027 151.857 152.121C151.647 152.215 151.471 152.363 151.33 152.565C151.189 152.766 151.108 153.03 151.086 153.356H150.041C150.063 152.887 150.185 152.485 150.406 152.15C150.63 151.816 150.924 151.561 151.288 151.383C151.656 151.207 152.064 151.119 152.511 151.119C152.997 151.119 153.42 151.215 153.779 151.408C154.141 151.601 154.42 151.867 154.616 152.204C154.815 152.541 154.915 152.925 154.915 153.356C154.915 153.66 154.868 153.935 154.774 154.18C154.683 154.427 154.55 154.646 154.376 154.84C154.204 155.033 153.997 155.204 153.754 155.353C153.511 155.505 153.317 155.665 153.17 155.834C153.024 156 152.917 156.198 152.851 156.427C152.784 156.656 152.749 156.942 152.743 157.284V157.334H151.749ZM152.279 159.787C152.075 159.787 151.899 159.714 151.753 159.568C151.606 159.421 151.534 159.245 151.534 159.041C151.534 158.837 151.606 158.661 151.753 158.515C151.899 158.369 152.075 158.295 152.279 158.295C152.484 158.295 152.659 158.369 152.805 158.515C152.952 158.661 153.025 158.837 153.025 159.041C153.025 159.177 152.991 159.301 152.921 159.415C152.855 159.528 152.765 159.619 152.652 159.688C152.541 159.754 152.417 159.787 152.279 159.787ZM80.8206 165.092V173.578H79.793V165.092H80.8206ZM83.6102 165.092V165.837C83.6102 166.064 83.5694 166.305 83.4862 166.563C83.406 166.816 83.2871 167.064 83.1296 167.304C82.975 167.541 82.7875 167.749 82.5666 167.926L82.0356 167.495C82.2099 167.246 82.3602 166.988 82.4878 166.72C82.6176 166.449 82.6825 166.161 82.6825 165.854V165.092H83.6102ZM84.6517 173.578V167.213H85.5961V168.207H85.6793C85.812 167.867 86.0257 167.604 86.3218 167.416C86.6172 167.226 86.9724 167.13 87.3866 167.13C87.8067 167.13 88.156 167.226 88.4354 167.416C88.7169 167.604 88.9364 167.867 89.0939 168.207H89.1603C89.3229 167.879 89.568 167.618 89.894 167.424C90.2193 167.229 90.6102 167.13 91.066 167.13C91.6356 167.13 92.1009 167.308 92.4626 167.665C92.8244 168.018 93.006 168.57 93.006 169.318V173.578H92.028V169.318C92.028 168.848 91.8996 168.513 91.6422 168.311C91.3854 168.11 91.0828 168.009 90.7349 168.009C90.2871 168.009 89.9407 168.144 89.6949 168.414C89.4491 168.683 89.3259 169.023 89.3259 169.434V173.578H88.3311V169.219C88.3311 168.857 88.2136 168.565 87.9795 168.344C87.7447 168.12 87.442 168.009 87.0715 168.009C86.8177 168.009 86.58 168.076 86.359 168.212C86.1409 168.347 85.9637 168.535 85.8288 168.775C85.696 169.013 85.6297 169.287 85.6297 169.6V173.578H84.6517ZM98.0755 175.965V167.213H99.0206V168.224H99.1366C99.2081 168.114 99.308 167.972 99.4349 167.802C99.5647 167.627 99.75 167.473 99.9899 167.337C100.233 167.199 100.562 167.13 100.977 167.13C101.512 167.13 101.985 167.264 102.394 167.532C102.802 167.8 103.122 168.18 103.351 168.672C103.58 169.163 103.695 169.743 103.695 170.412C103.695 171.086 103.58 171.67 103.351 172.165C103.122 172.657 102.804 173.038 102.397 173.309C101.992 173.576 101.524 173.711 100.993 173.711C100.584 173.711 100.257 173.643 100.011 173.507C99.7653 173.369 99.5757 173.213 99.4429 173.039C99.3102 172.862 99.2081 172.716 99.1366 172.6H99.0535V175.965H98.0755ZM99.0367 170.395C99.0367 170.876 99.1074 171.3 99.2482 171.668C99.389 172.033 99.5954 172.318 99.8659 172.526C100.137 172.73 100.468 172.832 100.86 172.832C101.269 172.832 101.61 172.725 101.884 172.509C102.16 172.291 102.367 171.997 102.505 171.631C102.646 171.26 102.717 170.849 102.717 170.395C102.717 169.948 102.648 169.545 102.51 169.185C102.374 168.824 102.168 168.538 101.892 168.328C101.618 168.115 101.275 168.009 100.86 168.009C100.462 168.009 100.128 168.11 99.8572 168.311C99.5866 168.51 99.3824 168.789 99.2445 169.148C99.106 169.505 99.0367 169.92 99.0367 170.395ZM106.164 165.092V173.578H105.186V165.092H106.164ZM109.828 173.727C109.425 173.727 109.059 173.651 108.731 173.499C108.402 173.345 108.141 173.122 107.947 172.832C107.754 172.539 107.657 172.186 107.657 171.771C107.657 171.407 107.729 171.111 107.873 170.885C108.016 170.655 108.209 170.475 108.449 170.346C108.689 170.216 108.954 170.12 109.244 170.055C109.537 169.99 109.831 169.937 110.127 169.899C110.514 169.848 110.828 169.811 111.067 169.786C111.311 169.759 111.488 169.713 111.598 169.65C111.711 169.586 111.768 169.476 111.768 169.318V169.285C111.768 168.876 111.656 168.558 111.432 168.332C111.211 168.105 110.876 167.992 110.426 167.992C109.958 167.992 109.592 168.094 109.327 168.298C109.062 168.503 108.876 168.721 108.768 168.953L107.84 168.622C108.005 168.235 108.226 167.934 108.502 167.719C108.782 167.501 109.085 167.348 109.414 167.263C109.746 167.175 110.072 167.13 110.392 167.13C110.596 167.13 110.831 167.155 111.097 167.204C111.364 167.252 111.623 167.35 111.871 167.499C112.123 167.648 112.331 167.873 112.497 168.174C112.663 168.476 112.746 168.879 112.746 169.384V173.578H111.768V172.716H111.718C111.652 172.854 111.542 173.002 111.387 173.159C111.232 173.317 111.026 173.451 110.769 173.561C110.512 173.672 110.199 173.727 109.828 173.727ZM109.978 172.849C110.364 172.849 110.69 172.773 110.956 172.621C111.224 172.469 111.426 172.272 111.56 172.033C111.699 171.792 111.768 171.539 111.768 171.274V170.379C111.727 170.429 111.636 170.474 111.494 170.516C111.356 170.554 111.196 170.589 111.014 170.619C110.834 170.647 110.659 170.672 110.488 170.693C110.319 170.713 110.182 170.73 110.077 170.744C109.823 170.777 109.586 170.831 109.365 170.905C109.146 170.977 108.969 171.086 108.834 171.232C108.702 171.376 108.635 171.572 108.635 171.821C108.635 172.161 108.761 172.418 109.012 172.592C109.266 172.763 109.588 172.849 109.978 172.849ZM115.509 169.749V173.578H114.531V167.213H115.475V168.207H115.559C115.707 167.884 115.934 167.625 116.238 167.428C116.542 167.229 116.934 167.13 117.415 167.13C117.846 167.13 118.223 167.218 118.546 167.396C118.87 167.569 119.121 167.835 119.301 168.191C119.48 168.544 119.57 168.992 119.57 169.534V173.578H118.592V169.6C118.592 169.1 118.462 168.71 118.202 168.431C117.943 168.15 117.586 168.009 117.133 168.009C116.821 168.009 116.542 168.076 116.296 168.212C116.053 168.347 115.861 168.544 115.72 168.805C115.579 169.064 115.509 169.379 115.509 169.749ZM122.335 169.749V173.578H121.357V167.213H122.302V168.207H122.384C122.534 167.884 122.76 167.625 123.064 167.428C123.368 167.229 123.76 167.13 124.241 167.13C124.672 167.13 125.049 167.218 125.372 167.396C125.695 167.569 125.947 167.835 126.126 168.191C126.306 168.544 126.396 168.992 126.396 169.534V173.578H125.417V169.6C125.417 169.1 125.288 168.71 125.028 168.431C124.768 168.15 124.412 168.009 123.959 168.009C123.647 168.009 123.368 168.076 123.122 168.212C122.879 168.347 122.687 168.544 122.546 168.805C122.405 169.064 122.335 169.379 122.335 169.749ZM128.183 173.578V167.213H129.16V173.578H128.183ZM128.68 166.152C128.489 166.152 128.325 166.087 128.187 165.957C128.052 165.827 127.984 165.671 127.984 165.489C127.984 165.307 128.052 165.151 128.187 165.021C128.325 164.891 128.489 164.826 128.68 164.826C128.871 164.826 129.033 164.891 129.169 165.021C129.307 165.151 129.376 165.307 129.376 165.489C129.376 165.671 129.307 165.827 129.169 165.957C129.033 166.087 128.871 166.152 128.68 166.152ZM131.93 169.749V173.578H130.952V167.213H131.897V168.207H131.979C132.129 167.884 132.355 167.625 132.659 167.428C132.963 167.229 133.355 167.13 133.836 167.13C134.267 167.13 134.644 167.218 134.967 167.396C135.29 167.569 135.542 167.835 135.721 168.191C135.901 168.544 135.99 168.992 135.99 169.534V173.578H135.013V169.6C135.013 169.1 134.883 168.71 134.623 168.431C134.363 168.15 134.007 168.009 133.554 168.009C133.242 168.009 132.963 168.076 132.717 168.212C132.474 168.347 132.282 168.544 132.141 168.805C132 169.064 131.93 169.379 131.93 169.749ZM140.347 176.098C139.875 176.098 139.468 176.036 139.129 175.915C138.789 175.796 138.506 175.639 138.279 175.443C138.055 175.25 137.877 175.042 137.744 174.821L138.524 174.274C138.612 174.39 138.724 174.522 138.86 174.672C138.994 174.824 139.18 174.955 139.415 175.066C139.652 175.179 139.963 175.236 140.347 175.236C140.861 175.236 141.284 175.111 141.619 174.862C141.953 174.614 142.12 174.224 142.12 173.694V172.401H142.038C141.966 172.517 141.864 172.66 141.731 172.832C141.601 173 141.414 173.151 141.167 173.284C140.924 173.414 140.595 173.479 140.181 173.479C139.668 173.479 139.206 173.357 138.797 173.114C138.391 172.871 138.069 172.517 137.832 172.053C137.597 171.589 137.48 171.025 137.48 170.362C137.48 169.71 137.594 169.143 137.823 168.659C138.053 168.173 138.372 167.797 138.781 167.532C139.189 167.264 139.662 167.13 140.198 167.13C140.612 167.13 140.941 167.199 141.184 167.337C141.43 167.473 141.618 167.627 141.748 167.802C141.88 167.972 141.982 168.114 142.054 168.224H142.154V167.213H143.098V173.76C143.098 174.307 142.974 174.752 142.726 175.095C142.48 175.44 142.148 175.693 141.731 175.853C141.317 176.016 140.855 176.098 140.347 176.098ZM140.314 172.6C140.706 172.6 141.037 172.51 141.309 172.331C141.579 172.151 141.785 171.892 141.926 171.556C142.066 171.219 142.137 170.815 142.137 170.346C142.137 169.887 142.068 169.482 141.93 169.131C141.792 168.781 141.587 168.506 141.317 168.307C141.046 168.108 140.712 168.009 140.314 168.009C139.9 168.009 139.554 168.114 139.278 168.323C139.005 168.533 138.798 168.815 138.66 169.169C138.525 169.522 138.458 169.915 138.458 170.346C138.458 170.788 138.526 171.178 138.665 171.518C138.806 171.855 139.013 172.121 139.286 172.314C139.563 172.504 139.905 172.6 140.314 172.6ZM150.938 167.213V168.042H147.64V167.213H150.938ZM148.602 165.688H149.58V171.755C149.58 172.031 149.62 172.238 149.699 172.376C149.782 172.512 149.887 172.603 150.014 172.65C150.144 172.694 150.281 172.716 150.425 172.716C150.532 172.716 150.621 172.711 150.69 172.699C150.759 172.686 150.814 172.674 150.856 172.666L151.054 173.545C150.988 173.57 150.896 173.595 150.777 173.62C150.658 173.647 150.507 173.661 150.325 173.661C150.049 173.661 149.778 173.601 149.513 173.482C149.251 173.364 149.033 173.183 148.858 172.94C148.687 172.697 148.602 172.39 148.602 172.02V165.688ZM154.927 173.711C154.352 173.711 153.848 173.574 153.414 173.3C152.983 173.027 152.646 172.644 152.404 172.152C152.163 171.661 152.043 171.086 152.043 170.429C152.043 169.766 152.163 169.187 152.404 168.692C152.646 168.198 152.983 167.814 153.414 167.541C153.848 167.267 154.352 167.13 154.927 167.13C155.502 167.13 156.004 167.267 156.435 167.541C156.869 167.814 157.206 168.198 157.447 168.692C157.69 169.187 157.811 169.766 157.811 170.429C157.811 171.086 157.69 171.661 157.447 172.152C157.206 172.644 156.869 173.027 156.435 173.3C156.004 173.574 155.502 173.711 154.927 173.711ZM154.927 172.832C155.363 172.832 155.723 172.72 156.004 172.496C156.286 172.272 156.495 171.979 156.63 171.614C156.766 171.249 156.833 170.854 156.833 170.429C156.833 170.003 156.766 169.607 156.63 169.239C156.495 168.872 156.286 168.575 156.004 168.349C155.723 168.122 155.363 168.009 154.927 168.009C154.49 168.009 154.131 168.122 153.85 168.349C153.568 168.575 153.359 168.872 153.224 169.239C153.088 169.607 153.021 170.003 153.021 170.429C153.021 170.854 153.088 171.249 153.224 171.614C153.359 171.979 153.568 172.272 153.85 172.496C154.131 172.72 154.49 172.832 154.927 172.832ZM162.586 173.578V167.213H163.531V168.207H163.613C163.746 167.867 163.96 167.604 164.256 167.416C164.551 167.226 164.906 167.13 165.321 167.13C165.741 167.13 166.09 167.226 166.369 167.416C166.651 167.604 166.87 167.867 167.028 168.207H167.094C167.258 167.879 167.502 167.618 167.828 167.424C168.154 167.229 168.545 167.13 169.001 167.13C169.57 167.13 170.035 167.308 170.397 167.665C170.759 168.018 170.94 168.57 170.94 169.318V173.578H169.962V169.318C169.962 168.848 169.834 168.513 169.577 168.311C169.319 168.11 169.017 168.009 168.669 168.009C168.222 168.009 167.875 168.144 167.629 168.414C167.383 168.683 167.26 169.023 167.26 169.434V173.578H166.266V169.219C166.266 168.857 166.148 168.565 165.913 168.344C165.679 168.12 165.376 168.009 165.006 168.009C164.752 168.009 164.514 168.076 164.293 168.212C164.075 168.347 163.898 168.535 163.763 168.775C163.63 169.013 163.564 169.287 163.564 169.6V173.578H162.586ZM175.314 173.711C174.739 173.711 174.235 173.574 173.801 173.3C173.37 173.027 173.033 172.644 172.79 172.152C172.549 171.661 172.43 171.086 172.43 170.429C172.43 169.766 172.549 169.187 172.79 168.692C173.033 168.198 173.37 167.814 173.801 167.541C174.235 167.267 174.739 167.13 175.314 167.13C175.888 167.13 176.391 167.267 176.822 167.541C177.256 167.814 177.593 168.198 177.833 168.692C178.076 169.187 178.198 169.766 178.198 170.429C178.198 171.086 178.076 171.661 177.833 172.152C177.593 172.644 177.256 173.027 176.822 173.3C176.391 173.574 175.888 173.711 175.314 173.711ZM175.314 172.832C175.75 172.832 176.109 172.72 176.391 172.496C176.673 172.272 176.882 171.979 177.017 171.614C177.152 171.249 177.22 170.854 177.22 170.429C177.22 170.003 177.152 169.607 177.017 169.239C176.882 168.872 176.673 168.575 176.391 168.349C176.109 168.122 175.75 168.009 175.314 168.009C174.877 168.009 174.518 168.122 174.236 168.349C173.954 168.575 173.746 168.872 173.611 169.239C173.475 169.607 173.407 170.003 173.407 170.429C173.407 170.854 173.475 171.249 173.611 171.614C173.746 171.979 173.954 172.272 174.236 172.496C174.518 172.72 174.877 172.832 175.314 172.832ZM184.667 167.213L182.314 173.578H181.319L178.965 167.213H180.026L181.783 172.285H181.85L183.607 167.213H184.667ZM188.399 173.711C187.786 173.711 187.257 173.575 186.812 173.304C186.37 173.031 186.029 172.65 185.788 172.161C185.551 171.669 185.432 171.097 185.432 170.446C185.432 169.794 185.551 169.219 185.788 168.721C186.029 168.221 186.363 167.832 186.791 167.553C187.222 167.271 187.725 167.13 188.3 167.13C188.631 167.13 188.958 167.185 189.281 167.296C189.605 167.406 189.899 167.586 190.164 167.835C190.429 168.08 190.641 168.406 190.798 168.813C190.956 169.219 191.035 169.718 191.035 170.313V170.727H186.128V169.882H190.04C190.04 169.522 189.968 169.202 189.824 168.921C189.683 168.638 189.482 168.416 189.219 168.253C188.96 168.09 188.653 168.009 188.3 168.009C187.91 168.009 187.573 168.105 187.288 168.298C187.007 168.489 186.789 168.738 186.638 169.045C186.486 169.352 186.41 169.68 186.41 170.031V170.594C186.41 171.075 186.493 171.483 186.659 171.817C186.827 172.148 187.061 172.401 187.359 172.575C187.657 172.747 188.004 172.832 188.399 172.832C188.656 172.832 188.888 172.796 189.095 172.725C189.305 172.65 189.486 172.539 189.638 172.393C189.79 172.243 189.907 172.059 189.99 171.838L190.935 172.103C190.836 172.423 190.669 172.705 190.434 172.948C190.199 173.188 189.909 173.376 189.563 173.512C189.218 173.644 188.83 173.711 188.399 173.711ZM198.572 167.213V168.042H195.274V167.213H198.572ZM196.235 165.688H197.213V171.755C197.213 172.031 197.253 172.238 197.333 172.376C197.416 172.512 197.521 172.603 197.648 172.65C197.778 172.694 197.914 172.716 198.058 172.716C198.166 172.716 198.254 172.711 198.324 172.699C198.393 172.686 198.447 172.674 198.489 172.666L198.688 173.545C198.622 173.57 198.529 173.595 198.41 173.62C198.291 173.647 198.141 173.661 197.959 173.661C197.682 173.661 197.412 173.601 197.146 173.482C196.884 173.364 196.666 173.183 196.491 172.94C196.321 172.697 196.235 172.39 196.235 172.02V165.688ZM201.158 169.749V173.578H200.18V165.092H201.158V168.207H201.241C201.39 167.879 201.613 167.618 201.912 167.424C202.213 167.229 202.613 167.13 203.114 167.13C203.548 167.13 203.928 167.217 204.253 167.391C204.579 167.563 204.832 167.827 205.011 168.182C205.194 168.536 205.285 168.987 205.285 169.534V173.578H204.307V169.6C204.307 169.094 204.176 168.703 203.914 168.427C203.654 168.148 203.293 168.009 202.832 168.009C202.511 168.009 202.224 168.076 201.97 168.212C201.718 168.347 201.519 168.544 201.374 168.805C201.23 169.064 201.158 169.379 201.158 169.749ZM207.074 173.578V167.213H208.052V173.578H207.074ZM207.571 166.152C207.381 166.152 207.216 166.087 207.078 165.957C206.943 165.827 206.875 165.671 206.875 165.489C206.875 165.307 206.943 165.151 207.078 165.021C207.216 164.891 207.381 164.826 207.571 164.826C207.762 164.826 207.925 164.891 208.061 165.021C208.198 165.151 208.268 165.307 208.268 165.489C208.268 165.671 208.198 165.827 208.061 165.957C207.925 166.087 207.762 166.152 207.571 166.152ZM214.352 168.638L213.474 168.887C213.418 168.74 213.336 168.598 213.229 168.46C213.124 168.32 212.98 168.204 212.798 168.112C212.615 168.021 212.382 167.975 212.097 167.975C211.708 167.975 211.383 168.065 211.124 168.245C210.867 168.422 210.739 168.647 210.739 168.921C210.739 169.163 210.827 169.355 211.003 169.496C211.181 169.637 211.456 169.755 211.833 169.848L212.777 170.081C213.346 170.219 213.77 170.43 214.049 170.715C214.328 170.996 214.468 171.359 214.468 171.804C214.468 172.169 214.363 172.495 214.153 172.782C213.945 173.07 213.656 173.296 213.282 173.462C212.91 173.628 212.476 173.711 211.981 173.711C211.332 173.711 210.795 173.57 210.37 173.288C209.944 173.006 209.675 172.595 209.562 172.053L210.49 171.821C210.578 172.164 210.745 172.421 210.991 172.592C211.24 172.763 211.564 172.849 211.965 172.849C212.42 172.849 212.783 172.752 213.051 172.558C213.321 172.362 213.457 172.127 213.457 171.854C213.457 171.633 213.38 171.448 213.225 171.299C213.07 171.147 212.833 171.033 212.512 170.959L211.451 170.71C210.868 170.572 210.44 170.358 210.166 170.068C209.896 169.775 209.761 169.409 209.761 168.97C209.761 168.611 209.861 168.293 210.063 168.017C210.268 167.74 210.545 167.524 210.895 167.366C211.249 167.209 211.65 167.13 212.097 167.13C212.727 167.13 213.222 167.268 213.581 167.544C213.943 167.821 214.2 168.185 214.352 168.638ZM219.222 173.578V167.213H220.167V168.207H220.25C220.382 167.867 220.596 167.604 220.891 167.416C221.188 167.226 221.542 167.13 221.957 167.13C222.376 167.13 222.726 167.226 223.005 167.416C223.287 167.604 223.507 167.867 223.664 168.207H223.73C223.893 167.879 224.138 167.618 224.464 167.424C224.79 167.229 225.181 167.13 225.636 167.13C226.205 167.13 226.671 167.308 227.033 167.665C227.395 168.018 227.576 168.57 227.576 169.318V173.578H226.598V169.318C226.598 168.848 226.469 168.513 226.213 168.311C225.956 168.11 225.653 168.009 225.305 168.009C224.857 168.009 224.511 168.144 224.265 168.414C224.019 168.683 223.896 169.023 223.896 169.434V173.578H222.901V169.219C222.901 168.857 222.784 168.565 222.549 168.344C222.314 168.12 222.012 168.009 221.642 168.009C221.387 168.009 221.15 168.076 220.929 168.212C220.711 168.347 220.534 168.535 220.398 168.775C220.266 169.013 220.2 169.287 220.2 169.6V173.578H219.222ZM231.949 173.711C231.375 173.711 230.871 173.574 230.437 173.3C230.006 173.027 229.669 172.644 229.426 172.152C229.186 171.661 229.066 171.086 229.066 170.429C229.066 169.766 229.186 169.187 229.426 168.692C229.669 168.198 230.006 167.814 230.437 167.541C230.871 167.267 231.375 167.13 231.949 167.13C232.524 167.13 233.027 167.267 233.458 167.541C233.891 167.814 234.228 168.198 234.469 168.692C234.712 169.187 234.834 169.766 234.834 170.429C234.834 171.086 234.712 171.661 234.469 172.152C234.228 172.644 233.891 173.027 233.458 173.3C233.027 173.574 232.524 173.711 231.949 173.711ZM231.949 172.832C232.386 172.832 232.745 172.72 233.027 172.496C233.309 172.272 233.517 171.979 233.653 171.614C233.788 171.249 233.856 170.854 233.856 170.429C233.856 170.003 233.788 169.607 233.653 169.239C233.517 168.872 233.309 168.575 233.027 168.349C232.745 168.122 232.386 168.009 231.949 168.009C231.513 168.009 231.154 168.122 230.872 168.349C230.591 168.575 230.382 168.872 230.246 169.239C230.111 169.607 230.044 170.003 230.044 170.429C230.044 170.854 230.111 171.249 230.246 171.614C230.382 171.979 230.591 172.272 230.872 172.496C231.154 172.72 231.513 172.832 231.949 172.832ZM237.305 169.749V173.578H236.327V167.213H237.271V168.207H237.354C237.503 167.884 237.73 167.625 238.034 167.428C238.337 167.229 238.73 167.13 239.21 167.13C239.641 167.13 240.018 167.218 240.342 167.396C240.665 167.569 240.916 167.835 241.096 168.191C241.276 168.544 241.366 168.992 241.366 169.534V173.578H240.388V169.6C240.388 169.1 240.258 168.71 239.998 168.431C239.738 168.15 239.382 168.009 238.929 168.009C238.617 168.009 238.337 168.076 238.092 168.212C237.849 168.347 237.657 168.544 237.515 168.805C237.375 169.064 237.305 169.379 237.305 169.749ZM245.921 167.213V168.042H242.622V167.213H245.921ZM243.583 165.688H244.561V171.755C244.561 172.031 244.601 172.238 244.682 172.376C244.764 172.512 244.869 172.603 244.997 172.65C245.127 172.694 245.263 172.716 245.407 172.716C245.515 172.716 245.603 172.711 245.672 172.699C245.741 172.686 245.796 172.674 245.838 172.666L246.037 173.545C245.97 173.57 245.878 173.595 245.759 173.62C245.64 173.647 245.49 173.661 245.307 173.661C245.031 173.661 244.76 173.601 244.495 173.482C244.232 173.364 244.014 173.183 243.84 172.94C243.669 172.697 243.583 172.39 243.583 172.02V165.688ZM248.506 169.749V173.578H247.528V165.092H248.506V168.207H248.589C248.738 167.879 248.962 167.618 249.26 167.424C249.562 167.229 249.962 167.13 250.462 167.13C250.896 167.13 251.275 167.217 251.601 167.391C251.927 167.563 252.181 167.827 252.36 168.182C252.542 168.536 252.633 168.987 252.633 169.534V173.578H251.655V169.6C251.655 169.094 251.524 168.703 251.262 168.427C251.002 168.148 250.642 168.009 250.181 168.009C249.86 168.009 249.573 168.076 249.319 168.212C249.067 168.347 248.868 168.544 248.722 168.805C248.578 169.064 248.506 169.379 248.506 169.749ZM255.136 173.644C254.931 173.644 254.756 173.571 254.609 173.425C254.463 173.278 254.39 173.102 254.39 172.898C254.39 172.694 254.463 172.518 254.609 172.372C254.756 172.226 254.931 172.152 255.136 172.152C255.34 172.152 255.515 172.226 255.662 172.372C255.808 172.518 255.881 172.694 255.881 172.898C255.881 173.034 255.847 173.158 255.778 173.272C255.711 173.385 255.621 173.476 255.508 173.545C255.398 173.611 255.274 173.644 255.136 173.644ZM258.349 173.644C258.144 173.644 257.969 173.571 257.823 173.425C257.676 173.278 257.603 173.102 257.603 172.898C257.603 172.694 257.676 172.518 257.823 172.372C257.969 172.226 258.144 172.152 258.349 172.152C258.553 172.152 258.729 172.226 258.875 172.372C259.022 172.518 259.095 172.694 259.095 172.898C259.095 173.034 259.06 173.158 258.991 173.272C258.925 173.385 258.835 173.476 258.722 173.545C258.612 173.611 258.487 173.644 258.349 173.644ZM261.562 173.644C261.358 173.644 261.182 173.571 261.036 173.425C260.89 173.278 260.816 173.102 260.816 172.898C260.816 172.694 260.89 172.518 261.036 172.372C261.182 172.226 261.358 172.152 261.562 172.152C261.767 172.152 261.942 172.226 262.089 172.372C262.235 172.518 262.309 172.694 262.309 172.898C262.309 173.034 262.274 173.158 262.205 173.272C262.139 173.385 262.049 173.476 261.935 173.545C261.825 173.611 261.7 173.644 261.562 173.644Z" fill="black"/>
<path d="M18.597 226.088C25.6458 226.088 31.36 220.374 31.36 213.325C31.36 206.276 25.6458 200.562 18.597 200.562C11.5482 200.562 5.83398 206.276 5.83398 213.325C5.83398 220.374 11.5482 226.088 18.597 226.088Z" fill="#D9D9D9"/>
<path d="M14.3535 215.683C14.3535 215.653 14.3535 215.622 14.3535 215.589V211.063C14.3535 210.535 14.3535 210.271 14.4563 210.069C14.5467 209.892 14.6908 209.747 14.8683 209.657C15.07 209.554 15.3342 209.554 15.8623 209.554H21.3318C21.8598 209.554 22.1239 209.554 22.3252 209.657C22.5031 209.747 22.6475 209.892 22.7372 210.069C22.84 210.27 22.84 210.534 22.84 211.062V215.591C22.84 215.82 22.84 215.998 22.832 216.144M14.3535 215.683C14.3539 216.149 14.3598 216.394 14.4563 216.583C14.5467 216.761 14.6908 216.905 14.8683 216.995C15.0698 217.098 15.3337 217.098 15.8608 217.098H21.3333C21.8606 217.098 22.1239 217.098 22.3252 216.995C22.5031 216.905 22.6475 216.761 22.7372 216.583C22.7956 216.469 22.8211 216.335 22.832 216.144M14.3535 215.683L16.6016 213.061L16.6022 213.06C16.8013 212.827 16.9012 212.711 17.0201 212.669C17.1237 212.633 17.2374 212.633 17.341 212.671C17.4592 212.715 17.5576 212.833 17.7538 213.069L19.0133 214.58C19.1949 214.799 19.2868 214.908 19.3977 214.953C19.4954 214.991 19.6041 214.996 19.7047 214.966C19.82 214.931 19.9213 214.831 20.1241 214.628L20.3582 214.393C20.5646 214.188 20.6674 214.084 20.7841 214.05C20.8869 214.021 20.9963 214.027 21.0955 214.068C21.2078 214.115 21.2983 214.228 21.4806 214.456L22.832 216.144M22.832 216.144L22.84 216.155M20.011 212.383C19.7507 212.383 19.5399 212.172 19.5399 211.912C19.5399 211.652 19.7507 211.44 20.011 211.44C20.2714 211.44 20.4829 211.652 20.4829 211.912C20.4829 212.172 20.2714 212.383 20.011 212.383Z" stroke="#BDBDBD" stroke-width="1.45863" stroke-linecap="round" stroke-linejoin="round"/>
<path d="M227.912 200.562H47.7708C40.722 200.562 35.0078 206.276 35.0078 213.325C35.0078 220.374 40.722 226.088 47.7708 226.088H227.912C234.961 226.088 240.675 220.374 240.675 213.325C240.675 206.276 234.961 200.562 227.912 200.562Z" fill="#D9D9D9" fill-opacity="0.55"/>
<path d="M46.9746 217.336V208.85H48.0022V212.629H52.5276V208.85H53.5552V217.336H52.5276V213.54H48.0022V217.336H46.9746ZM55.4799 217.336V210.972H56.4579V217.336H55.4799ZM55.9773 209.91C55.7862 209.91 55.6221 209.845 55.4843 209.716C55.3486 209.586 55.2808 209.43 55.2808 209.247C55.2808 209.065 55.3486 208.909 55.4843 208.779C55.6221 208.649 55.7862 208.584 55.9773 208.584C56.1676 208.584 56.331 208.649 56.4659 208.779C56.6045 208.909 56.673 209.065 56.673 209.247C56.673 209.43 56.6045 209.586 56.4659 209.716C56.331 209.845 56.1676 209.91 55.9773 209.91ZM59.7077 216.176L59.6414 216.624C59.5947 216.939 59.5225 217.276 59.4262 217.635C59.3321 217.994 59.2337 218.332 59.1316 218.65C59.0295 218.968 58.9449 219.22 58.8792 219.408H58.1331C58.1689 219.231 58.2155 218.998 58.2739 218.708C58.3322 218.418 58.3899 218.093 58.4482 217.734C58.5087 217.378 58.5583 217.013 58.597 216.64L58.6466 216.176H59.7077ZM65.9616 208.85V217.336H64.934V208.85H65.9616ZM68.7512 208.85V209.595C68.7512 209.822 68.7104 210.064 68.6273 210.321C68.547 210.575 68.4281 210.822 68.2706 211.063C68.116 211.3 67.9286 211.508 67.7076 211.684L67.1766 211.253C67.351 211.004 67.5012 210.746 67.6288 210.478C67.7586 210.207 67.8236 209.919 67.8236 209.612V208.85H68.7512ZM69.7927 217.336V210.972H70.7372V211.966H70.8203C70.953 211.626 71.1667 211.362 71.4628 211.174C71.7582 210.984 72.1134 210.888 72.5276 210.888C72.9477 210.888 73.2971 210.984 73.5764 211.174C73.8579 211.362 74.0774 211.626 74.235 211.966H74.3013C74.464 211.637 74.709 211.376 75.035 211.182C75.3603 210.987 75.7512 210.888 76.207 210.888C76.7766 210.888 77.2419 211.066 77.6037 211.423C77.9654 211.777 78.147 212.328 78.147 213.076V217.336H77.169V213.076C77.169 212.607 77.0406 212.271 76.7832 212.069C76.5265 211.868 76.2238 211.767 75.8759 211.767C75.4281 211.767 75.0817 211.902 74.8359 212.173C74.5901 212.441 74.4669 212.781 74.4669 213.192V217.336H73.4721V212.977C73.4721 212.615 73.3547 212.324 73.1206 212.103C72.8857 211.879 72.5831 211.767 72.2126 211.767C71.9588 211.767 71.721 211.834 71.5 211.97C71.282 212.106 71.1047 212.293 70.9698 212.534C70.8371 212.771 70.7707 213.046 70.7707 213.358V217.336H69.7927ZM85.7859 219.856C85.3133 219.856 84.907 219.795 84.5679 219.674C84.228 219.555 83.9443 219.397 83.7182 219.201C83.4943 219.008 83.3164 218.801 83.1837 218.58L83.9626 218.033C84.0508 218.149 84.1631 218.281 84.2981 218.43C84.4337 218.582 84.619 218.713 84.8538 218.824C85.0908 218.937 85.4015 218.994 85.7859 218.994C86.3 218.994 86.7238 218.869 87.0578 218.621C87.3925 218.372 87.5596 217.982 87.5596 217.452V216.159H87.4764C87.4049 216.275 87.3028 216.419 87.1701 216.59C87.0403 216.759 86.8521 216.91 86.6063 217.042C86.3635 217.172 86.0346 217.237 85.6203 217.237C85.1061 217.237 84.6452 217.115 84.2361 216.872C83.8298 216.629 83.5082 216.275 83.2704 215.811C83.0356 215.347 82.9182 214.784 82.9182 214.121C82.9182 213.469 83.0327 212.901 83.2624 212.418C83.4914 211.931 83.8109 211.556 84.2193 211.29C84.6284 211.023 85.101 210.888 85.6363 210.888C86.0513 210.888 86.3795 210.958 86.6231 211.096C86.8689 211.231 87.0563 211.386 87.1861 211.56C87.3189 211.731 87.421 211.872 87.4932 211.982H87.5924V210.972H88.5376V217.519C88.5376 218.066 88.4129 218.51 88.1642 218.853C87.9184 219.198 87.5873 219.451 87.1701 219.611C86.7558 219.774 86.2942 219.856 85.7859 219.856ZM85.753 216.358C86.1447 216.358 86.4765 216.269 86.7471 216.089C87.0177 215.91 87.2241 215.651 87.3648 215.314C87.5056 214.977 87.5763 214.574 87.5763 214.104C87.5763 213.645 87.507 213.24 87.3685 212.89C87.2306 212.539 87.0264 212.264 86.7559 212.066C86.4845 211.866 86.1505 211.767 85.753 211.767C85.3381 211.767 84.9931 211.872 84.7167 212.082C84.4432 212.292 84.2375 212.574 84.0989 212.928C83.964 213.281 83.8962 213.673 83.8962 214.104C83.8962 214.546 83.9655 214.937 84.1033 215.277C84.2441 215.614 84.4512 215.879 84.7247 216.072C85.0011 216.263 85.3439 216.358 85.753 216.358ZM92.9135 217.469C92.3388 217.469 91.8348 217.332 91.4009 217.058C90.9698 216.785 90.6329 216.403 90.39 215.91C90.1494 215.419 90.029 214.844 90.029 214.187C90.029 213.524 90.1494 212.945 90.39 212.451C90.6329 211.956 90.9698 211.572 91.4009 211.299C91.8348 211.025 92.3388 210.888 92.9135 210.888C93.4882 210.888 93.9907 211.025 94.4217 211.299C94.8556 211.572 95.1926 211.956 95.4325 212.451C95.6761 212.945 95.7972 213.524 95.7972 214.187C95.7972 214.844 95.6761 215.419 95.4325 215.91C95.1926 216.403 94.8556 216.785 94.4217 217.058C93.9907 217.332 93.4882 217.469 92.9135 217.469ZM92.9135 216.59C93.3496 216.59 93.7091 216.479 93.9907 216.255C94.2722 216.031 94.4808 215.737 94.6164 215.372C94.7521 215.008 94.8192 214.612 94.8192 214.187C94.8192 213.761 94.7521 213.365 94.6164 212.998C94.4808 212.63 94.2722 212.333 93.9907 212.107C93.7091 211.88 93.3496 211.767 92.9135 211.767C92.4766 211.767 92.1178 211.88 91.8355 212.107C91.554 212.333 91.3454 212.63 91.2098 212.998C91.0749 213.365 91.007 213.761 91.007 214.187C91.007 214.612 91.0749 215.008 91.2098 215.372C91.3454 215.737 91.554 216.031 91.8355 216.255C92.1178 216.479 92.4766 216.59 92.9135 216.59ZM99.8762 217.469C99.3015 217.469 98.7968 217.332 98.3636 217.058C97.9326 216.785 97.5957 216.403 97.3521 215.91C97.1121 215.419 96.9918 214.844 96.9918 214.187C96.9918 213.524 97.1121 212.945 97.3521 212.451C97.5957 211.956 97.9326 211.572 98.3636 211.299C98.7968 211.025 99.3015 210.888 99.8762 210.888C100.45 210.888 100.953 211.025 101.384 211.299C101.818 211.572 102.155 211.956 102.395 212.451C102.638 212.945 102.76 213.524 102.76 214.187C102.76 214.844 102.638 215.419 102.395 215.91C102.155 216.403 101.818 216.785 101.384 217.058C100.953 217.332 100.45 217.469 99.8762 217.469ZM99.8762 216.59C100.312 216.59 100.672 216.479 100.953 216.255C101.235 216.031 101.444 215.737 101.579 215.372C101.714 215.008 101.782 214.612 101.782 214.187C101.782 213.761 101.714 213.365 101.579 212.998C101.444 212.63 101.235 212.333 100.953 212.107C100.672 211.88 100.312 211.767 99.8762 211.767C99.4394 211.767 99.0805 211.88 98.7983 212.107C98.5168 212.333 98.3082 212.63 98.1725 212.998C98.0376 213.365 97.9698 213.761 97.9698 214.187C97.9698 214.612 98.0376 215.008 98.1725 215.372C98.3082 215.737 98.5168 216.031 98.7983 216.255C99.0805 216.479 99.4394 216.59 99.8762 216.59ZM106.656 217.469C106.126 217.469 105.658 217.335 105.251 217.067C104.846 216.796 104.528 216.415 104.299 215.923C104.069 215.428 103.955 214.844 103.955 214.17C103.955 213.502 104.069 212.922 104.299 212.43C104.528 211.938 104.847 211.559 105.256 211.29C105.665 211.023 106.137 210.888 106.673 210.888C107.087 210.888 107.414 210.958 107.655 211.096C107.898 211.231 108.083 211.386 108.21 211.56C108.34 211.731 108.441 211.872 108.513 211.982H108.596V208.85H109.573V217.336H108.629V216.358H108.513C108.441 216.474 108.338 216.621 108.206 216.797C108.074 216.972 107.884 217.128 107.638 217.266C107.393 217.401 107.065 217.469 106.656 217.469ZM106.789 216.59C107.181 216.59 107.513 216.488 107.783 216.284C108.054 216.077 108.26 215.791 108.401 215.426C108.542 215.059 108.612 214.634 108.612 214.154C108.612 213.679 108.543 213.263 108.405 212.906C108.267 212.548 108.063 212.268 107.791 212.069C107.521 211.868 107.187 211.767 106.789 211.767C106.374 211.767 106.029 211.873 105.753 212.086C105.48 212.296 105.274 212.582 105.135 212.944C105 213.303 104.933 213.706 104.933 214.154C104.933 214.607 105.002 215.018 105.14 215.389C105.28 215.756 105.488 216.049 105.761 216.267C106.037 216.483 106.38 216.59 106.789 216.59ZM112.213 217.403C112.008 217.403 111.833 217.33 111.687 217.183C111.54 217.037 111.467 216.861 111.467 216.657C111.467 216.452 111.54 216.277 111.687 216.131C111.833 215.984 112.008 215.91 112.213 215.91C112.418 215.91 112.593 215.984 112.739 216.131C112.886 216.277 112.959 216.452 112.959 216.657C112.959 216.792 112.924 216.916 112.855 217.03C112.789 217.143 112.699 217.234 112.586 217.303C112.476 217.369 112.351 217.403 112.213 217.403ZM117.996 217.336V210.972H118.941V211.966H119.024C119.156 211.626 119.37 211.362 119.666 211.174C119.962 210.984 120.317 210.888 120.731 210.888C121.151 210.888 121.5 210.984 121.779 211.174C122.061 211.362 122.281 211.626 122.438 211.966H122.505C122.667 211.637 122.912 211.376 123.238 211.182C123.564 210.987 123.955 210.888 124.41 210.888C124.98 210.888 125.445 211.066 125.807 211.423C126.169 211.777 126.35 212.328 126.35 213.076V217.336H125.372V213.076C125.372 212.607 125.243 212.271 124.987 212.069C124.73 211.868 124.427 211.767 124.079 211.767C123.631 211.767 123.285 211.902 123.039 212.173C122.793 212.441 122.67 212.781 122.67 213.192V217.336H121.675V212.977C121.675 212.615 121.558 212.324 121.323 212.103C121.088 211.879 120.786 211.767 120.416 211.767C120.161 211.767 119.924 211.834 119.703 211.97C119.485 212.106 119.308 212.293 119.172 212.534C119.04 212.771 118.974 213.046 118.974 213.358V217.336H117.996ZM130.807 217.469C130.193 217.469 129.664 217.333 129.22 217.063C128.778 216.789 128.436 216.408 128.196 215.919C127.959 215.428 127.84 214.855 127.84 214.204C127.84 213.552 127.959 212.977 128.196 212.48C128.436 211.979 128.77 211.59 129.199 211.311C129.629 211.029 130.133 210.888 130.707 210.888C131.038 210.888 131.366 210.944 131.689 211.054C132.013 211.165 132.307 211.344 132.572 211.593C132.837 211.839 133.048 212.165 133.206 212.571C133.363 212.977 133.442 213.477 133.442 214.071V214.485H128.535V213.64H132.447C132.447 213.281 132.376 212.96 132.232 212.679C132.091 212.397 131.89 212.174 131.627 212.012C131.367 211.848 131.061 211.767 130.707 211.767C130.318 211.767 129.981 211.863 129.696 212.057C129.414 212.248 129.198 212.497 129.045 212.803C128.894 213.11 128.818 213.438 128.818 213.789V214.353C128.818 214.833 128.9 215.241 129.066 215.575C129.235 215.907 129.468 216.159 129.766 216.333C130.065 216.505 130.411 216.59 130.807 216.59C131.063 216.59 131.296 216.554 131.503 216.483C131.713 216.408 131.894 216.298 132.046 216.151C132.197 216.002 132.315 215.817 132.398 215.596L133.342 215.861C133.243 216.182 133.076 216.463 132.841 216.706C132.606 216.947 132.316 217.134 131.971 217.27C131.626 217.403 131.238 217.469 130.807 217.469ZM140.98 210.972V211.8H137.681V210.972H140.98ZM138.642 209.447H139.62V215.513C139.62 215.789 139.66 215.996 139.741 216.134C139.824 216.27 139.929 216.361 140.056 216.408C140.185 216.452 140.322 216.474 140.466 216.474C140.573 216.474 140.662 216.469 140.731 216.457C140.8 216.444 140.856 216.433 140.897 216.425L141.096 217.303C141.029 217.328 140.937 217.353 140.818 217.378C140.7 217.406 140.549 217.419 140.366 217.419C140.09 217.419 139.819 217.36 139.554 217.241C139.292 217.122 139.073 216.941 138.9 216.698C138.728 216.455 138.642 216.148 138.642 215.778V209.447ZM144.968 217.469C144.394 217.469 143.89 217.332 143.456 217.058C143.025 216.785 142.688 216.403 142.444 215.91C142.204 215.419 142.084 214.844 142.084 214.187C142.084 213.524 142.204 212.945 142.444 212.451C142.688 211.956 143.025 211.572 143.456 211.299C143.89 211.025 144.394 210.888 144.968 210.888C145.543 210.888 146.046 211.025 146.477 211.299C146.911 211.572 147.247 211.956 147.487 212.451C147.731 212.945 147.852 213.524 147.852 214.187C147.852 214.844 147.731 215.419 147.487 215.91C147.247 216.403 146.911 216.785 146.477 217.058C146.046 217.332 145.543 217.469 144.968 217.469ZM144.968 216.59C145.404 216.59 145.764 216.479 146.046 216.255C146.327 216.031 146.536 215.737 146.671 215.372C146.807 215.008 146.874 214.612 146.874 214.187C146.874 213.761 146.807 213.365 146.671 212.998C146.536 212.63 146.327 212.333 146.046 212.107C145.764 211.88 145.404 211.767 144.968 211.767C144.531 211.767 144.173 211.88 143.89 212.107C143.609 212.333 143.4 212.63 143.265 212.998C143.13 213.365 143.062 213.761 143.062 214.187C143.062 214.612 143.13 215.008 143.265 215.372C143.4 215.737 143.609 216.031 143.89 216.255C144.173 216.479 144.531 216.59 144.968 216.59ZM151.931 217.469C151.356 217.469 150.852 217.332 150.419 217.058C149.987 216.785 149.651 216.403 149.407 215.91C149.167 215.419 149.047 214.844 149.047 214.187C149.047 213.524 149.167 212.945 149.407 212.451C149.651 211.956 149.987 211.572 150.419 211.299C150.852 211.025 151.356 210.888 151.931 210.888C152.505 210.888 153.008 211.025 153.439 211.299C153.873 211.572 154.21 211.956 154.45 212.451C154.693 212.945 154.815 213.524 154.815 214.187C154.815 214.844 154.693 215.419 154.45 215.91C154.21 216.403 153.873 216.785 153.439 217.058C153.008 217.332 152.505 217.469 151.931 217.469ZM151.931 216.59C152.367 216.59 152.727 216.479 153.008 216.255C153.29 216.031 153.498 215.737 153.634 215.372C153.769 215.008 153.837 214.612 153.837 214.187C153.837 213.761 153.769 213.365 153.634 212.998C153.498 212.63 153.29 212.333 153.008 212.107C152.727 211.88 152.367 211.767 151.931 211.767C151.494 211.767 151.135 211.88 150.853 212.107C150.572 212.333 150.363 212.63 150.227 212.998C150.093 213.365 150.025 213.761 150.025 214.187C150.025 214.612 150.093 215.008 150.227 215.372C150.363 215.737 150.572 216.031 150.853 216.255C151.135 216.479 151.494 216.59 151.931 216.59ZM157.02 217.403C156.816 217.403 156.64 217.33 156.494 217.183C156.348 217.037 156.275 216.861 156.275 216.657C156.275 216.452 156.348 216.277 156.494 216.131C156.64 215.984 156.816 215.91 157.02 215.91C157.225 215.91 157.4 215.984 157.547 216.131C157.693 216.277 157.766 216.452 157.766 216.657C157.766 216.792 157.732 216.916 157.663 217.03C157.596 217.143 157.507 217.234 157.394 217.303C157.283 217.369 157.159 217.403 157.02 217.403ZM160.234 217.403C160.029 217.403 159.854 217.33 159.708 217.183C159.561 217.037 159.488 216.861 159.488 216.657C159.488 216.452 159.561 216.277 159.708 216.131C159.854 215.984 160.029 215.91 160.234 215.91C160.439 215.91 160.614 215.984 160.76 216.131C160.907 216.277 160.98 216.452 160.98 216.657C160.98 216.792 160.945 216.916 160.876 217.03C160.81 217.143 160.72 217.234 160.607 217.303C160.496 217.369 160.372 217.403 160.234 217.403ZM163.448 217.403C163.243 217.403 163.068 217.33 162.921 217.183C162.775 217.037 162.702 216.861 162.702 216.657C162.702 216.452 162.775 216.277 162.921 216.131C163.068 215.984 163.243 215.91 163.448 215.91C163.652 215.91 163.828 215.984 163.974 216.131C164.12 216.277 164.194 216.452 164.194 216.657C164.194 216.792 164.159 216.916 164.09 217.03C164.024 217.143 163.933 217.234 163.82 217.303C163.71 217.369 163.586 217.403 163.448 217.403ZM166.661 217.403C166.457 217.403 166.281 217.33 166.135 217.183C165.989 217.037 165.915 216.861 165.915 216.657C165.915 216.452 165.989 216.277 166.135 216.131C166.281 215.984 166.457 215.91 166.661 215.91C166.865 215.91 167.041 215.984 167.188 216.131C167.334 216.277 167.407 216.452 167.407 216.657C167.407 216.792 167.372 216.916 167.304 217.03C167.237 217.143 167.148 217.234 167.034 217.303C166.924 217.369 166.799 217.403 166.661 217.403Z" fill="black"/>
<g filter="url(#filter0_d_783_2123)">
<path d="M253.073 568.867H32.0902C24.0344 568.867 17.5039 575.398 17.5039 583.453V587.1C17.5039 595.156 24.0344 601.686 32.0902 601.686H253.073C261.129 601.686 267.659 595.156 267.659 587.1V583.453C267.659 575.398 261.129 568.867 253.073 568.867Z" fill="white"/>
<path d="M253.073 569.232H32.0908C24.2364 569.232 17.8691 575.599 17.8691 583.454V587.1C17.8691 594.955 24.2364 601.322 32.0908 601.322H253.073C260.928 601.322 267.295 594.955 267.295 587.1V583.454C267.295 575.599 260.928 569.232 253.073 569.232Z" stroke="#BDBDBD" stroke-width="0.729315"/>
</g>
<path d="M35.0073 574.702C29.3682 574.702 24.7969 579.273 24.7969 584.912C24.7969 590.551 29.3682 595.122 35.0073 595.122C40.6464 595.122 45.2177 590.551 45.2177 584.912C45.2177 579.273 40.6464 574.702 35.0073 574.702ZM37.4505 578.517C38.2527 578.524 39.0076 578.884 39.7172 579.594C40.5056 580.401 40.9578 581.43 40.6631 582.621C40.4954 583.252 40.0965 583.897 39.4656 584.555C37.5548 586.43 35.8365 588.176 33.6398 590.36C33.2197 590.773 32.4693 591.277 31.7057 591.307C31.0704 591.302 30.5585 591.041 30.0851 590.571C29.5819 590.061 29.21 589.398 29.2654 588.572C29.3354 587.984 29.6228 587.437 30.1274 586.932L35.0284 582.033C35.7526 581.315 36.7722 580.759 37.7408 581.591C38.6159 582.497 38.0573 583.48 37.2784 584.283L32.7566 588.783L31.8938 587.899L36.3944 583.399C36.6001 583.192 37.0202 582.831 36.8568 582.453C36.6446 582.261 36.1348 582.691 35.9109 582.915L31.0114 587.816C30.7663 588.063 30.5534 588.322 30.5067 588.699C30.4644 589.021 30.611 589.351 30.9479 589.687C31.5999 590.292 32.0543 590.119 32.7566 589.478C34.6244 587.609 36.1239 586.126 38.0464 584.209C38.6779 583.577 39.1345 583.179 39.4656 582.306C39.7267 581.322 38.7159 579.923 37.5723 579.762C36.8218 579.692 36.1669 580.185 35.617 580.708L30.2536 586.07L29.3711 585.209L34.7331 579.824C35.574 578.997 36.4258 578.563 37.2879 578.52C37.3418 578.518 37.3965 578.517 37.4505 578.517Z" fill="#BDBDBD"/>
<path d="M53.8207 589.287L51.5 580.801H52.5444L54.3181 587.713H54.4012L56.2077 580.801H57.3681L59.1746 587.713H59.2577L61.0314 580.801H62.0751L59.7551 589.287H58.694L56.8211 582.524H56.7547L54.8818 589.287H53.8207ZM62.8241 589.287V582.923H63.7693V583.884H63.8356C63.9516 583.569 64.1617 583.314 64.465 583.117C64.7692 582.921 65.1119 582.823 65.4926 582.823C65.5649 582.823 65.6546 582.824 65.7625 582.827C65.8697 582.83 65.9514 582.834 66.0068 582.84V583.834C65.974 583.826 65.8974 583.813 65.7785 583.797C65.6626 583.777 65.54 583.768 65.4102 583.768C65.101 583.768 64.8246 583.833 64.581 583.963C64.3411 584.09 64.1507 584.267 64.0092 584.493C63.8714 584.717 63.8021 584.972 63.8021 585.259V589.287H62.8241ZM67.1657 589.287V582.923H68.1437V589.287H67.1657ZM67.6631 581.862C67.4727 581.862 67.3086 581.797 67.1701 581.667C67.0352 581.537 66.9673 581.381 66.9673 581.199C66.9673 581.016 67.0352 580.86 67.1701 580.73C67.3086 580.601 67.4727 580.536 67.6631 580.536C67.8542 580.536 68.0168 580.601 68.1525 580.73C68.2903 580.86 68.3596 581.016 68.3596 581.199C68.3596 581.381 68.2903 581.537 68.1525 581.667C68.0168 581.797 67.8542 581.862 67.6631 581.862ZM72.7034 582.923V583.751H69.4047V582.923H72.7034ZM70.3659 581.398H71.3439V587.464C71.3439 587.741 71.3841 587.948 71.4643 588.086C71.5474 588.221 71.6524 588.312 71.7793 588.359C71.9092 588.403 72.0455 588.425 72.1892 588.425C72.2972 588.425 72.3854 588.42 72.4547 588.409C72.524 588.395 72.5787 588.384 72.6202 588.376L72.8193 589.255C72.753 589.279 72.6604 589.304 72.5415 589.329C72.4226 589.357 72.2724 589.371 72.09 589.371C71.8136 589.371 71.543 589.311 71.2776 589.192C71.015 589.073 70.797 588.892 70.6234 588.649C70.452 588.406 70.3659 588.099 70.3659 587.73V581.398ZM76.7744 589.42C76.1611 589.42 75.6323 589.285 75.1874 589.014C74.7455 588.74 74.4042 588.359 74.1642 587.87C73.9265 587.379 73.8076 586.806 73.8076 586.155C73.8076 585.503 73.9265 584.928 74.1642 584.431C74.4042 583.931 74.7389 583.541 75.167 583.263C75.598 582.98 76.1005 582.84 76.6752 582.84C77.0063 582.84 77.3338 582.895 77.6569 583.005C77.9807 583.116 78.2746 583.295 78.5401 583.544C78.8048 583.79 79.0163 584.116 79.1739 584.522C79.3314 584.928 79.4102 585.428 79.4102 586.022V586.437H74.5041V585.591H78.4154C78.4154 585.232 78.3439 584.912 78.2002 584.63C78.0595 584.348 77.8575 584.125 77.5949 583.963C77.3353 583.799 77.029 583.718 76.6752 583.718C76.2858 583.718 75.9488 583.815 75.6637 584.008C75.3822 584.199 75.1656 584.448 75.0131 584.754C74.8614 585.061 74.7856 585.389 74.7856 585.74V586.304C74.7856 586.784 74.8687 587.192 75.0343 587.526C75.2027 587.858 75.4361 588.11 75.7344 588.285C76.0327 588.456 76.3799 588.541 76.7744 588.541C77.0311 588.541 77.2638 588.506 77.4709 588.434C77.681 588.359 77.8618 588.249 78.0135 588.102C78.1652 587.953 78.2827 587.768 78.3658 587.547L79.3103 587.812C79.2111 588.133 79.0441 588.414 78.8092 588.657C78.5744 588.898 78.2841 589.085 77.9391 589.221C77.5934 589.354 77.2055 589.42 76.7744 589.42ZM86.0528 589.437C85.6495 589.437 85.2833 589.36 84.9544 589.209C84.6255 589.054 84.3644 588.832 84.1711 588.541C83.9779 588.249 83.8809 587.895 83.8809 587.481C83.8809 587.116 83.9531 586.82 84.0968 586.594C84.2404 586.364 84.4322 586.185 84.6729 586.055C84.9129 585.925 85.1783 585.829 85.4686 585.765C85.7611 585.699 86.0557 585.647 86.3511 585.608C86.7376 585.558 87.0512 585.521 87.2919 585.496C87.5347 585.468 87.7112 585.423 87.8221 585.359C87.9351 585.296 87.992 585.185 87.992 585.027V584.995C87.992 584.586 87.8797 584.268 87.6565 584.041C87.4356 583.815 87.0993 583.702 86.6494 583.702C86.1826 583.702 85.8165 583.804 85.551 584.008C85.2863 584.213 85.0996 584.431 84.9916 584.663L84.0632 584.332C84.2295 583.944 84.4505 583.643 84.7269 583.428C85.0055 583.21 85.3096 583.058 85.6385 582.972C85.9696 582.884 86.2956 582.84 86.6158 582.84C86.8207 582.84 87.0556 582.864 87.3203 582.914C87.5887 582.961 87.8469 583.059 88.0956 583.209C88.3472 583.357 88.5558 583.583 88.7213 583.884C88.8869 584.185 88.97 584.588 88.97 585.094V589.287H87.992V588.425H87.9424C87.8761 588.564 87.7652 588.711 87.6106 588.869C87.456 589.026 87.2503 589.161 86.9936 589.271C86.7361 589.382 86.4225 589.437 86.0528 589.437ZM86.2016 588.558C86.5888 588.558 86.9148 588.482 87.1796 588.331C87.448 588.178 87.6492 587.982 87.7849 587.742C87.9227 587.501 87.992 587.249 87.992 586.984V586.089C87.9505 586.138 87.8593 586.183 87.7185 586.225C87.58 586.264 87.4202 586.299 87.2379 586.329C87.0585 586.356 86.8827 586.381 86.7113 586.403C86.5429 586.423 86.4065 586.439 86.3015 586.453C86.0469 586.486 85.8092 586.54 85.5882 586.615C85.3701 586.687 85.1936 586.795 85.058 586.942C84.9253 587.086 84.8589 587.282 84.8589 587.531C84.8589 587.87 84.9851 588.127 85.2359 588.301C85.4905 588.473 85.8121 588.558 86.2016 588.558ZM94.0366 589.287V582.923H94.9818V583.917H95.0642C95.1969 583.577 95.4114 583.314 95.7067 583.125C96.0021 582.935 96.3573 582.84 96.7715 582.84C97.1916 582.84 97.541 582.935 97.8203 583.125C98.1018 583.314 98.3213 583.577 98.4789 583.917H98.5452C98.7086 583.589 98.9529 583.327 99.2789 583.133C99.6049 582.938 99.9958 582.84 100.452 582.84C101.021 582.84 101.486 583.018 101.848 583.374C102.21 583.728 102.391 584.279 102.391 585.027V589.287H101.413V585.027C101.413 584.558 101.285 584.222 101.027 584.02C100.77 583.819 100.468 583.718 100.12 583.718C99.672 583.718 99.3256 583.853 99.0798 584.124C98.834 584.392 98.7108 584.732 98.7108 585.143V589.287H97.7167V584.928C97.7167 584.567 97.5993 584.275 97.3645 584.054C97.1296 583.83 96.827 583.718 96.4565 583.718C96.2027 583.718 95.9649 583.785 95.7439 583.921C95.5259 584.057 95.3486 584.244 95.2137 584.485C95.081 584.723 95.0146 584.997 95.0146 585.309V589.287H94.0366ZM106.848 589.42C106.234 589.42 105.705 589.285 105.26 589.014C104.818 588.74 104.477 588.359 104.237 587.87C103.999 587.379 103.88 586.806 103.88 586.155C103.88 585.503 103.999 584.928 104.237 584.431C104.477 583.931 104.811 583.541 105.24 583.263C105.671 582.98 106.173 582.84 106.748 582.84C107.08 582.84 107.407 582.895 107.73 583.005C108.053 583.116 108.347 583.295 108.613 583.544C108.878 583.79 109.089 584.116 109.246 584.522C109.404 584.928 109.483 585.428 109.483 586.022V586.437H104.577V585.591H108.489C108.489 585.232 108.417 584.912 108.273 584.63C108.132 584.348 107.93 584.125 107.668 583.963C107.408 583.799 107.102 583.718 106.748 583.718C106.358 583.718 106.021 583.815 105.737 584.008C105.455 584.199 105.238 584.448 105.086 584.754C104.934 585.061 104.858 585.389 104.858 585.74V586.304C104.858 586.784 104.941 587.192 105.107 587.526C105.275 587.858 105.509 588.11 105.807 588.285C106.106 588.456 106.452 588.541 106.848 588.541C107.104 588.541 107.336 588.506 107.544 588.434C107.754 588.359 107.934 588.249 108.086 588.102C108.239 587.953 108.356 587.768 108.438 587.547L109.384 587.812C109.284 588.133 109.117 588.414 108.882 588.657C108.647 588.898 108.357 589.085 108.012 589.221C107.667 589.354 107.278 589.42 106.848 589.42ZM115.479 584.348L114.6 584.596C114.545 584.45 114.464 584.308 114.356 584.17C114.251 584.029 114.107 583.913 113.925 583.822C113.743 583.731 113.509 583.685 113.225 583.685C112.835 583.685 112.511 583.775 112.251 583.955C111.994 584.131 111.865 584.357 111.865 584.63C111.865 584.873 111.954 585.065 112.131 585.205C112.307 585.347 112.584 585.464 112.959 585.558L113.905 585.79C114.473 585.928 114.897 586.14 115.177 586.424C115.456 586.706 115.595 587.069 115.595 587.514C115.595 587.878 115.49 588.204 115.28 588.492C115.073 588.779 114.783 589.006 114.41 589.171C114.037 589.337 113.603 589.42 113.109 589.42C112.46 589.42 111.922 589.279 111.497 588.997C111.071 588.716 110.802 588.304 110.689 587.762L111.617 587.531C111.706 587.873 111.873 588.13 112.119 588.301C112.367 588.473 112.692 588.558 113.092 588.558C113.548 588.558 113.91 588.461 114.178 588.268C114.449 588.072 114.584 587.837 114.584 587.563C114.584 587.342 114.506 587.158 114.352 587.008C114.197 586.857 113.959 586.743 113.639 586.668L112.579 586.42C111.995 586.282 111.567 586.067 111.294 585.778C111.023 585.485 110.887 585.119 110.887 584.68C110.887 584.32 110.989 584.003 111.19 583.726C111.394 583.45 111.672 583.233 112.023 583.076C112.377 582.918 112.777 582.84 113.225 582.84C113.855 582.84 114.349 582.977 114.708 583.254C115.07 583.53 115.327 583.895 115.479 584.348ZM121.576 584.348L120.697 584.596C120.642 584.45 120.56 584.308 120.452 584.17C120.347 584.029 120.204 583.913 120.021 583.822C119.839 583.731 119.606 583.685 119.321 583.685C118.932 583.685 118.607 583.775 118.348 583.955C118.091 584.131 117.963 584.357 117.963 584.63C117.963 584.873 118.051 585.065 118.227 585.205C118.404 585.347 118.68 585.464 119.056 585.558L120.001 585.79C120.57 585.928 120.994 586.14 121.273 586.424C121.552 586.706 121.691 587.069 121.691 587.514C121.691 587.878 121.586 588.204 121.376 588.492C121.169 588.779 120.88 589.006 120.506 589.171C120.134 589.337 119.7 589.42 119.205 589.42C118.556 589.42 118.019 589.279 117.593 588.997C117.168 588.716 116.898 588.304 116.785 587.762L117.714 587.531C117.802 587.873 117.969 588.13 118.215 588.301C118.464 588.473 118.788 588.558 119.188 588.558C119.644 588.558 120.007 588.461 120.274 588.268C120.545 588.072 120.681 587.837 120.681 587.563C120.681 587.342 120.603 587.158 120.449 587.008C120.294 586.857 120.056 586.743 119.735 586.668L118.675 586.42C118.092 586.282 117.664 586.067 117.391 585.778C117.119 585.485 116.985 585.119 116.985 584.68C116.985 584.32 117.085 584.003 117.286 583.726C117.491 583.45 117.769 583.233 118.12 583.076C118.473 582.918 118.874 582.84 119.321 582.84C119.951 582.84 120.446 582.977 120.805 583.254C121.167 583.53 121.424 583.895 121.576 584.348ZM125.037 589.437C124.634 589.437 124.267 589.36 123.939 589.209C123.61 589.054 123.349 588.832 123.155 588.541C122.962 588.249 122.866 587.895 122.866 587.481C122.866 587.116 122.937 586.82 123.081 586.594C123.225 586.364 123.416 586.185 123.657 586.055C123.897 585.925 124.162 585.829 124.453 585.765C124.745 585.699 125.04 585.647 125.335 585.608C125.722 585.558 126.035 585.521 126.276 585.496C126.519 585.468 126.696 585.423 126.806 585.359C126.919 585.296 126.976 585.185 126.976 585.027V584.995C126.976 584.586 126.865 584.268 126.641 584.041C126.42 583.815 126.083 583.702 125.633 583.702C125.167 583.702 124.801 583.804 124.535 584.008C124.27 584.213 124.084 584.431 123.976 584.663L123.048 584.332C123.214 583.944 123.435 583.643 123.711 583.428C123.99 583.21 124.294 583.058 124.623 582.972C124.954 582.884 125.28 582.84 125.601 582.84C125.805 582.84 126.04 582.864 126.305 582.914C126.573 582.961 126.831 583.059 127.08 583.209C127.331 583.357 127.54 583.583 127.705 583.884C127.871 584.185 127.954 584.588 127.954 585.094V589.287H126.976V588.425H126.927C126.86 588.564 126.749 588.711 126.595 588.869C126.44 589.026 126.234 589.161 125.978 589.271C125.72 589.382 125.407 589.437 125.037 589.437ZM125.186 588.558C125.573 588.558 125.899 588.482 126.164 588.331C126.432 588.178 126.633 587.982 126.769 587.742C126.907 587.501 126.976 587.249 126.976 586.984V586.089C126.935 586.138 126.843 586.183 126.703 586.225C126.565 586.264 126.404 586.299 126.222 586.329C126.043 586.356 125.867 586.381 125.695 586.403C125.527 586.423 125.391 586.439 125.286 586.453C125.031 586.486 124.794 586.54 124.573 586.615C124.354 586.687 124.178 586.795 124.042 586.942C123.909 587.086 123.844 587.282 123.844 587.531C123.844 587.87 123.969 588.127 124.221 588.301C124.475 588.473 124.796 588.558 125.186 588.558ZM132.308 591.807C131.836 591.807 131.43 591.746 131.09 591.625C130.75 591.506 130.467 591.348 130.241 591.152C130.017 590.959 129.839 590.752 129.706 590.531L130.485 589.984C130.573 590.1 130.685 590.232 130.82 590.381C130.956 590.533 131.141 590.664 131.376 590.775C131.613 590.888 131.925 590.945 132.308 590.945C132.822 590.945 133.246 590.82 133.58 590.572C133.915 590.323 134.082 589.934 134.082 589.403V588.11H133.999C133.927 588.226 133.825 588.37 133.692 588.541C133.563 588.71 133.374 588.861 133.129 588.994C132.886 589.123 132.557 589.188 132.143 589.188C131.628 589.188 131.167 589.066 130.758 588.824C130.352 588.58 130.03 588.226 129.793 587.762C129.558 587.299 129.44 586.735 129.44 586.072C129.44 585.42 129.555 584.852 129.785 584.369C130.014 583.882 130.333 583.507 130.742 583.241C131.151 582.974 131.623 582.84 132.159 582.84C132.574 582.84 132.902 582.909 133.145 583.047C133.391 583.182 133.579 583.337 133.709 583.511C133.841 583.682 133.943 583.823 134.015 583.934H134.115V582.923H135.06V589.47C135.06 590.017 134.935 590.462 134.686 590.804C134.441 591.149 134.11 591.402 133.692 591.562C133.278 591.726 132.816 591.807 132.308 591.807ZM132.275 588.309C132.667 588.309 132.999 588.22 133.269 588.04C133.54 587.861 133.746 587.602 133.887 587.265C134.028 586.928 134.099 586.525 134.099 586.055C134.099 585.596 134.029 585.192 133.891 584.841C133.753 584.49 133.549 584.215 133.278 584.017C133.007 583.818 132.673 583.718 132.275 583.718C131.86 583.718 131.515 583.823 131.239 584.033C130.965 584.243 130.76 584.525 130.622 584.879C130.486 585.232 130.418 585.624 130.418 586.055C130.418 586.497 130.488 586.888 130.626 587.228C130.766 587.565 130.974 587.83 131.248 588.024C131.523 588.214 131.866 588.309 132.275 588.309ZM139.518 589.42C138.906 589.42 138.376 589.285 137.931 589.014C137.489 588.74 137.148 588.359 136.908 587.87C136.67 587.379 136.551 586.806 136.551 586.155C136.551 585.503 136.67 584.928 136.908 584.431C137.148 583.931 137.483 583.541 137.911 583.263C138.342 582.98 138.844 582.84 139.419 582.84C139.751 582.84 140.078 582.895 140.401 583.005C140.724 583.116 141.018 583.295 141.284 583.544C141.549 583.79 141.76 584.116 141.918 584.522C142.075 584.928 142.154 585.428 142.154 586.022V586.437H137.248V585.591H141.159C141.159 585.232 141.088 584.912 140.944 584.63C140.803 584.348 140.601 584.125 140.339 583.963C140.079 583.799 139.773 583.718 139.419 583.718C139.03 583.718 138.693 583.815 138.408 584.008C138.126 584.199 137.909 584.448 137.758 584.754C137.605 585.061 137.529 585.389 137.529 585.74V586.304C137.529 586.784 137.612 587.192 137.778 587.526C137.946 587.858 138.18 588.11 138.478 588.285C138.776 588.456 139.124 588.541 139.518 588.541C139.776 588.541 140.008 588.506 140.215 588.434C140.425 588.359 140.606 588.249 140.757 588.102C140.91 587.953 141.027 587.768 141.11 587.547L142.055 587.812C141.955 588.133 141.788 588.414 141.553 588.657C141.318 588.898 141.029 589.085 140.683 589.221C140.338 589.354 139.949 589.42 139.518 589.42Z" fill="#ACACAC"/>
<path d="M252.891 576.889C253.36 576.889 253.824 576.983 254.257 577.167C254.69 577.35 255.083 577.618 255.414 577.956C255.745 578.296 256.008 578.697 256.187 579.14C256.366 579.582 256.459 580.056 256.459 580.535V583.453C256.459 584.42 256.083 585.347 255.414 586.031C254.745 586.715 253.838 587.099 252.891 587.099C251.945 587.099 251.038 586.715 250.369 586.031C249.701 585.347 249.324 584.42 249.324 583.453V580.535C249.324 579.568 249.701 578.64 250.369 577.956C251.038 577.273 251.945 576.889 252.891 576.889ZM246.51 584.182H247.947C248.12 585.396 248.715 586.506 249.622 587.308C250.53 588.111 251.691 588.553 252.891 588.553C254.091 588.553 255.251 588.111 256.159 587.308C257.067 586.506 257.662 585.396 257.835 584.182H259.273C259.111 585.662 258.461 587.041 257.431 588.094C256.401 589.146 255.052 589.81 253.605 589.976V592.934H252.178V589.976C250.73 589.811 249.381 589.146 248.351 588.094C247.321 587.041 246.672 585.662 246.51 584.182Z" fill="#BDBDBD"/>
</g>
<defs>
<filter id="filter0_d_783_2123" x="14.5866" y="568.138" width="255.991" height="38.6539" filterUnits="userSpaceOnUse" color-interpolation-filters="sRGB">
<feFlood flood-opacity="0" result="BackgroundImageFix"/>
<feColorMatrix in="SourceAlpha" type="matrix" values="0 0 0 0 0 0 0 0 0 0 0 0 0 0 0 0 0 0 127 0" result="hardAlpha"/>
<feOffset dy="2.18795"/>
<feGaussianBlur stdDeviation="1.45863"/>
<feComposite in2="hardAlpha" operator="out"/>
<feColorMatrix type="matrix" values="0 0 0 0 0 0 0 0 0 0 0 0 0 0 0 0 0 0 0.25 0"/>
<feBlend mode="normal" in2="BackgroundImageFix" result="effect1_dropShadow_783_2123"/>
<feBlend mode="normal" in="SourceGraphic" in2="effect1_dropShadow_783_2123" result="shape"/>
</filter>
</defs>
</svg>
