<svg width="1372" height="766" viewBox="0 0 1372 766" fill="none" xmlns="http://www.w3.org/2000/svg">
<rect width="1372" height="766" rx="14.9131" fill="url(#paint0_linear_737_1688)"/>
<path d="M742.669 147.223C740.437 150.79 742.219 153.78 744.888 157.033C747.706 160.467 752.433 163.256 755.414 159.963C756.991 158.221 757.237 158.367 757.03 155.67C756.544 149.338 746.037 141.837 742.669 147.223Z" fill="url(#paint1_linear_737_1688)"/>
<path d="M759.722 155.67C759.722 149.655 770.984 148.191 779.361 147.223C788.53 146.162 804.803 147.828 801.646 156.501C799.063 163.597 790.913 161.257 781.92 161.257C768.976 161.257 759.722 164.227 759.722 155.67Z" fill="url(#paint2_linear_737_1688)"/>
<path d="M807.113 144.732V166.581H751.243L737.019 179.926H806.233V194.59H815.765L814.592 144.732C811.703 142.677 810.121 142.728 807.113 144.732Z" fill="url(#paint3_linear_737_1688)"/>
<path d="M735.325 148.623L737.019 179.926L751.243 166.581C740.978 165.555 737.095 162.604 735.325 148.623Z" fill="url(#paint4_linear_737_1688)"/>
<path d="M737.019 194.59L737.019 179.926L735.325 148.623V122.5C732.705 119.599 730.974 119.535 727.634 121.435V194.59H737.019Z" fill="url(#paint5_linear_737_1688)"/>
<path d="M553.024 193.801C551.565 193.732 550.35 193.176 549.377 192.134C548.405 191.092 547.953 189.842 548.023 188.383C548.092 187.271 548.474 186.264 549.169 185.361C549.169 181.957 549.134 176.678 549.065 169.523C548.995 162.437 548.96 157.053 548.96 153.371C548.96 151.357 548.96 149.03 548.96 146.39C549.03 143.681 549.065 141.215 549.065 138.992C548.995 137.463 548.891 135.449 548.752 132.948C548.613 130.378 548.405 128.085 548.127 126.071C547.849 124.612 548.127 123.327 548.96 122.215C549.864 121.034 551.01 120.34 552.399 120.131C553.511 119.923 554.553 120.062 555.525 120.548C555.872 120.409 556.255 120.34 556.671 120.34C564.452 119.853 570.565 119.819 575.011 120.235C583.486 120.93 589.842 123.083 594.08 126.696C596.858 129.058 598.803 131.941 599.915 135.345C600.957 138.748 601.131 142.187 600.436 145.66C599.741 149.134 598.317 152.225 596.164 154.934C597.484 155.56 598.63 156.289 599.602 157.123C602.381 159.415 604.257 162.055 605.229 165.042C606.271 168.029 606.514 171.051 605.959 174.107C605.472 177.164 604.291 180.047 602.416 182.756C600.61 185.396 598.248 187.584 595.33 189.321C593.246 190.432 590.919 191.37 588.349 192.134C585.778 192.898 583.382 193.454 581.159 193.801C579.005 194.149 576.435 194.357 573.448 194.427C570.391 194.496 567.995 194.496 566.258 194.427C565.077 194.357 563.549 194.288 561.673 194.218C559.867 194.149 558.13 194.079 556.463 194.01C554.796 193.94 553.65 193.871 553.024 193.801ZM559.589 183.694C563.549 183.833 567.265 183.937 570.739 184.006C574.142 184.145 577.581 183.902 581.054 183.277C584.597 182.652 587.619 181.61 590.12 180.151C592.204 178.97 593.698 177.442 594.601 175.566C595.573 173.691 595.92 171.815 595.643 169.939C595.434 167.994 594.531 166.362 592.933 165.042C591.266 163.653 587.445 162.784 581.471 162.437C579.248 162.784 576.782 162.958 574.073 162.958C571.989 162.888 568.898 162.715 564.799 162.437C563.827 162.367 562.993 162.333 562.298 162.333C561.742 162.263 561.187 162.124 560.631 161.916L559.381 161.812C559.381 163.132 559.415 166.396 559.485 171.607C559.554 176.817 559.589 180.846 559.589 183.694ZM565.528 152.017C566.223 152.017 567.856 151.982 570.426 151.913C574.733 151.843 578.033 151.878 580.325 152.017H580.95C582.965 151.669 584.563 151.114 585.744 150.349C587.55 149.307 588.835 147.779 589.599 145.765C590.363 143.75 590.571 141.736 590.224 139.721C589.877 137.637 588.939 135.935 587.411 134.615C584.84 132.462 580.395 131.107 574.073 130.551C570.322 130.273 565.32 130.308 559.068 130.655C559.346 134.129 559.45 141.006 559.381 151.287H559.693C562.402 151.635 564.348 151.878 565.528 152.017Z" fill="url(#paint6_linear_737_1688)"/>
<path d="M631.685 159.657C631.085 159.624 630.551 159.39 630.084 158.957C629.651 158.523 629.401 157.79 629.334 156.756C627.8 158.09 626.216 158.957 624.582 159.357C622.248 159.957 620.114 159.573 618.18 158.206C616.313 156.873 614.846 154.672 613.779 151.604C613.412 150.537 613.129 149.437 612.929 148.303C612.762 147.369 612.662 146.302 612.628 145.102C612.628 143.902 612.662 142.685 612.728 141.451C612.795 140.184 612.879 139.017 612.979 137.95C613.079 136.883 613.162 136.016 613.229 135.349C613.295 134.549 613.595 133.965 614.129 133.598C614.662 133.231 615.246 133.065 615.879 133.098C616.546 133.131 617.113 133.381 617.58 133.848C618.047 134.282 618.264 134.915 618.23 135.749C618.197 136.249 618.114 137.199 617.98 138.6C617.813 140 617.73 141.034 617.73 141.701C617.663 143.268 617.647 144.702 617.68 146.002C617.747 147.269 618.014 148.603 618.48 150.004C619.214 152.038 620.148 153.421 621.281 154.155C621.748 154.455 622.515 154.605 623.582 154.605C624.549 154.438 625.383 154.222 626.083 153.955C626.783 153.655 627.4 153.155 627.934 152.454C628.5 151.754 629.034 150.687 629.534 149.253C629.601 144.819 629.551 140.317 629.384 135.749C629.351 134.915 629.567 134.282 630.034 133.848C630.534 133.415 631.101 133.198 631.735 133.198C632.402 133.165 633.002 133.348 633.535 133.748C634.069 134.148 634.352 134.749 634.386 135.549C634.652 143.418 634.636 150.671 634.336 157.306C634.302 157.973 634.019 158.54 633.485 159.007C632.985 159.473 632.385 159.69 631.685 159.657ZM643.721 159.657C643.054 159.657 642.47 159.44 641.97 159.007C641.47 158.54 641.22 157.923 641.22 157.156C641.22 154.522 641.203 152.254 641.17 150.354C641.103 144.685 641.07 139.767 641.07 135.599C641.07 134.832 641.303 134.232 641.77 133.798C642.237 133.365 642.804 133.148 643.471 133.148C644.171 133.148 644.771 133.381 645.271 133.848C645.805 134.282 646.072 134.899 646.072 135.699V137.249C648.139 134.549 650.856 133.198 654.224 133.198C657.125 133.198 659.343 134.215 660.876 136.249C662.444 138.283 663.227 141.017 663.227 144.452C663.227 148.253 663.177 150.754 663.077 151.954L662.827 155.305L662.677 157.456C662.61 158.123 662.344 158.657 661.877 159.057C661.41 159.457 660.86 159.657 660.226 159.657C659.559 159.657 658.976 159.44 658.476 159.007C657.976 158.54 657.725 157.923 657.725 157.156C657.725 156.623 657.842 154.772 658.076 151.604C658.242 149.437 658.326 147.736 658.326 146.502C658.326 143.668 657.925 141.584 657.125 140.25C656.325 138.883 655.091 138.2 653.424 138.2C652.224 138.2 650.973 138.567 649.673 139.3C648.406 140.034 647.205 140.967 646.072 142.101L646.172 149.203L646.222 157.156C646.222 157.923 645.972 158.54 645.471 159.007C644.971 159.44 644.388 159.657 643.721 159.657ZM686.408 158.857C682.573 154.622 679.605 150.654 677.505 146.953L674.804 149.203C674.737 149.27 674.67 149.32 674.604 149.353C674.537 151.954 674.437 154.605 674.304 157.306C674.27 158.14 673.987 158.757 673.453 159.157C672.92 159.523 672.32 159.69 671.653 159.657C671.019 159.624 670.452 159.39 669.952 158.957C669.485 158.523 669.269 157.906 669.302 157.106C669.669 149.437 669.852 139.183 669.852 126.346C669.852 125.512 670.102 124.895 670.602 124.495C671.103 124.062 671.686 123.845 672.353 123.845C673.02 123.845 673.603 124.062 674.104 124.495C674.604 124.895 674.854 125.512 674.854 126.346C674.854 132.881 674.82 138.35 674.754 142.751C679.622 138.683 682.99 135.749 684.857 133.948C685.391 133.315 685.974 133.015 686.608 133.048C687.275 133.048 687.841 133.281 688.308 133.748C688.808 134.182 689.108 134.732 689.209 135.399C689.342 136.032 689.125 136.649 688.558 137.249C686.891 138.883 684.507 141.034 681.406 143.702C683.407 147.369 686.308 151.321 690.109 155.555C690.676 156.156 690.909 156.773 690.809 157.406C690.709 158.04 690.409 158.59 689.909 159.057C689.409 159.49 688.825 159.724 688.158 159.757C687.525 159.79 686.941 159.49 686.408 158.857Z" fill="url(#paint7_linear_737_1688)"/>
<path d="M631.685 191.557C631.085 191.524 630.551 191.29 630.084 190.857C629.651 190.423 629.401 189.69 629.334 188.656C627.8 189.99 626.216 190.857 624.582 191.257C622.248 191.857 620.114 191.474 618.18 190.107C616.313 188.773 614.846 186.572 613.779 183.504C613.412 182.437 613.129 181.337 612.929 180.203C612.762 179.27 612.662 178.203 612.628 177.002C612.628 175.802 612.662 174.585 612.728 173.351C612.795 172.084 612.879 170.917 612.979 169.85C613.079 168.783 613.162 167.916 613.229 167.249C613.295 166.449 613.595 165.865 614.129 165.498C614.662 165.132 615.246 164.965 615.879 164.998C616.546 165.032 617.113 165.282 617.58 165.748C618.047 166.182 618.264 166.816 618.23 167.649C618.197 168.149 618.114 169.1 617.98 170.5C617.813 171.901 617.73 172.934 617.73 173.601C617.663 175.168 617.647 176.602 617.68 177.903C617.747 179.17 618.014 180.503 618.48 181.904C619.214 183.938 620.148 185.322 621.281 186.055C621.748 186.355 622.515 186.505 623.582 186.505C624.549 186.339 625.383 186.122 626.083 185.855C626.783 185.555 627.4 185.055 627.934 184.355C628.5 183.654 629.034 182.587 629.534 181.154C629.601 176.719 629.551 172.217 629.384 167.649C629.351 166.816 629.567 166.182 630.034 165.748C630.534 165.315 631.101 165.098 631.735 165.098C632.402 165.065 633.002 165.248 633.535 165.648C634.069 166.049 634.352 166.649 634.386 167.449C634.652 175.318 634.636 182.571 634.336 189.206C634.302 189.873 634.019 190.44 633.485 190.907C632.985 191.374 632.385 191.59 631.685 191.557ZM660.726 191.557C660.193 191.557 659.709 191.407 659.276 191.107C658.842 190.807 658.542 190.24 658.376 189.406C656.942 190.44 655.441 191.107 653.874 191.407C651.707 191.807 649.723 191.69 647.922 191.057C646.122 190.423 644.604 189.373 643.371 187.906C641.137 185.305 640.036 182.004 640.07 178.003C640.103 174.401 641.27 171.3 643.571 168.699C646.338 165.598 649.973 164.448 654.474 165.248C656.008 165.515 657.175 165.865 657.976 166.299L657.875 158.296C657.875 157.462 658.126 156.846 658.626 156.445C659.126 156.012 659.709 155.795 660.376 155.795C661.043 155.762 661.627 155.962 662.127 156.395C662.627 156.796 662.877 157.396 662.877 158.196C663.111 173.401 663.227 183.688 663.227 189.056C663.227 189.756 662.977 190.357 662.477 190.857C662.01 191.324 661.427 191.557 660.726 191.557ZM652.974 186.505C653.607 186.372 654.274 186.139 654.975 185.805C655.675 185.472 656.175 185.188 656.475 184.955C656.775 184.721 657.092 184.421 657.425 184.055C657.759 183.654 658.009 183.238 658.176 182.804C658.176 178.569 658.142 175.202 658.076 172.701C658.042 172.701 658.009 172.684 657.976 172.651C656.575 171.45 655.875 170.834 655.875 170.8C655.508 170.567 654.741 170.35 653.574 170.15C650.906 169.683 648.822 170.317 647.322 172.051C645.821 173.684 645.071 175.668 645.071 178.003C645.038 179.837 645.338 181.454 645.972 182.854C646.638 184.255 647.555 185.288 648.722 185.955C649.923 186.622 651.34 186.805 652.974 186.505ZM689.398 191.557C688.865 191.557 688.381 191.407 687.948 191.107C687.514 190.807 687.214 190.24 687.047 189.406C685.613 190.44 684.113 191.107 682.546 191.407C680.378 191.807 678.394 191.69 676.594 191.057C674.793 190.423 673.276 189.373 672.042 187.906C669.808 185.305 668.708 182.004 668.741 178.003C668.775 174.401 669.942 171.3 672.242 168.699C675.01 165.598 678.644 164.448 683.146 165.248C684.68 165.515 685.847 165.865 686.647 166.299L686.547 158.296C686.547 157.462 686.797 156.846 687.297 156.445C687.798 156.012 688.381 155.795 689.048 155.795C689.715 155.762 690.298 155.962 690.799 156.395C691.299 156.796 691.549 157.396 691.549 158.196C691.782 173.401 691.899 183.688 691.899 189.056C691.899 189.756 691.649 190.357 691.149 190.857C690.682 191.324 690.098 191.557 689.398 191.557ZM681.645 186.505C682.279 186.372 682.946 186.139 683.646 185.805C684.346 185.472 684.847 185.188 685.147 184.955C685.447 184.721 685.764 184.421 686.097 184.055C686.43 183.654 686.68 183.238 686.847 182.804C686.847 178.569 686.814 175.202 686.747 172.701C686.714 172.701 686.68 172.684 686.647 172.651C685.247 171.45 684.546 170.834 684.546 170.8C684.18 170.567 683.413 170.35 682.246 170.15C679.578 169.683 677.494 170.317 675.994 172.051C674.493 173.684 673.743 175.668 673.743 178.003C673.71 179.837 674.01 181.454 674.643 182.854C675.31 184.255 676.227 185.288 677.394 185.955C678.594 186.622 680.012 186.805 681.645 186.505ZM697.813 201.61C696.979 201.677 696.329 201.477 695.862 201.01C695.395 200.577 695.145 200.027 695.112 199.36C695.045 198.693 695.195 198.076 695.562 197.509C695.929 196.976 696.513 196.675 697.313 196.609C697.78 196.575 698.38 196.525 699.113 196.459C699.847 196.392 700.33 196.275 700.564 196.109L701.064 195.808C701.864 195.408 702.581 194.291 703.215 192.457C703.415 191.891 703.615 191.49 703.815 191.257C703.582 190.99 703.398 190.673 703.265 190.307C702.665 187.739 701.431 183.938 699.564 178.903C697.896 174.468 696.663 170.917 695.862 168.249C695.629 167.449 695.696 166.782 696.062 166.249C696.429 165.715 696.929 165.365 697.563 165.198C698.196 164.998 698.813 165.032 699.413 165.298C700.014 165.532 700.43 166.049 700.664 166.849C701.297 168.983 702.498 172.417 704.265 177.152L706.166 182.354C708.5 175.218 710.634 169.867 712.568 166.299C712.968 165.565 713.485 165.148 714.118 165.048C714.785 164.915 715.402 165.015 715.969 165.348C716.536 165.648 716.936 166.099 717.169 166.699C717.436 167.299 717.369 167.966 716.969 168.699C716.102 170.3 715.202 172.251 714.268 174.551C713.635 176.085 713.101 177.436 712.668 178.603C712.268 179.736 711.851 180.937 711.417 182.204C711.017 183.471 710.534 185.038 709.967 186.906C709.767 187.572 709.634 188.039 709.567 188.306C709.4 188.739 709.167 189.606 708.867 190.907C708.5 192.141 708.2 193.141 707.966 193.908C707.033 196.509 705.766 198.443 704.165 199.71C703.698 200.077 703.231 200.377 702.765 200.61C702.298 200.877 701.814 201.06 701.314 201.16C701.114 201.227 700.747 201.277 700.214 201.31C699.68 201.377 699.147 201.444 698.613 201.51C698.113 201.577 697.846 201.61 697.813 201.61Z" fill="url(#paint8_linear_737_1688)"/>
<defs>
<linearGradient id="paint0_linear_737_1688" x1="686" y1="0" x2="686" y2="766" gradientUnits="userSpaceOnUse">
<stop stop-color="white"/>
<stop offset="0.278846" stop-color="#E2D6F1"/>
<stop offset="0.615385" stop-color="#BFB8E7"/>
<stop offset="0.807692" stop-color="#9476D1"/>
<stop offset="1" stop-color="#821EB3"/>
</linearGradient>
<linearGradient id="paint1_linear_737_1688" x1="713.233" y1="13.1235" x2="837.734" y2="21.1883" gradientUnits="userSpaceOnUse">
<stop offset="0.0390943" stop-color="#B218E5"/>
<stop offset="1" stop-color="#158EFF"/>
</linearGradient>
<linearGradient id="paint2_linear_737_1688" x1="713.233" y1="13.1235" x2="837.734" y2="21.1883" gradientUnits="userSpaceOnUse">
<stop offset="0.0390943" stop-color="#B218E5"/>
<stop offset="1" stop-color="#158EFF"/>
</linearGradient>
<linearGradient id="paint3_linear_737_1688" x1="713.233" y1="13.1235" x2="837.734" y2="21.1883" gradientUnits="userSpaceOnUse">
<stop offset="0.0390943" stop-color="#B218E5"/>
<stop offset="1" stop-color="#158EFF"/>
</linearGradient>
<linearGradient id="paint4_linear_737_1688" x1="713.233" y1="13.1235" x2="837.734" y2="21.1883" gradientUnits="userSpaceOnUse">
<stop offset="0.0390943" stop-color="#B218E5"/>
<stop offset="1" stop-color="#158EFF"/>
</linearGradient>
<linearGradient id="paint5_linear_737_1688" x1="713.233" y1="13.1235" x2="837.734" y2="21.1883" gradientUnits="userSpaceOnUse">
<stop offset="0.0390943" stop-color="#B218E5"/>
<stop offset="1" stop-color="#158EFF"/>
</linearGradient>
<linearGradient id="paint6_linear_737_1688" x1="526.88" y1="-79.5735" x2="628.918" y2="-76.3574" gradientUnits="userSpaceOnUse">
<stop offset="0.0390943" stop-color="#B218E5"/>
<stop offset="1" stop-color="#158EFF"/>
</linearGradient>
<linearGradient id="paint7_linear_737_1688" x1="596.742" y1="28.4069" x2="711.026" y2="36.8491" gradientUnits="userSpaceOnUse">
<stop offset="0.0390943" stop-color="#B218E5"/>
<stop offset="1" stop-color="#158EFF"/>
</linearGradient>
<linearGradient id="paint8_linear_737_1688" x1="592.33" y1="60.3071" x2="744.068" y2="75.2525" gradientUnits="userSpaceOnUse">
<stop offset="0.0390943" stop-color="#B218E5"/>
<stop offset="1" stop-color="#158EFF"/>
</linearGradient>
</defs>
</svg>
