<svg width="393" height="852" viewBox="0 0 393 852" fill="none" xmlns="http://www.w3.org/2000/svg">
<rect width="393" height="852" fill="#101010"/>
<path d="M74.44 84.168C73.272 84.168 72.216 83.968 71.272 83.568C70.344 83.168 69.608 82.592 69.064 81.84C68.52 81.088 68.24 80.2 68.224 79.176H71.824C71.872 79.864 72.112 80.408 72.544 80.808C72.992 81.208 73.6 81.408 74.368 81.408C75.152 81.408 75.768 81.224 76.216 80.856C76.664 80.472 76.888 79.976 76.888 79.368C76.888 78.872 76.736 78.464 76.432 78.144C76.128 77.824 75.744 77.576 75.28 77.4C74.832 77.208 74.208 77 73.408 76.776C72.32 76.456 71.432 76.144 70.744 75.84C70.072 75.52 69.488 75.048 68.992 74.424C68.512 73.784 68.272 72.936 68.272 71.88C68.272 70.888 68.52 70.024 69.016 69.288C69.512 68.552 70.208 67.992 71.104 67.608C72 67.208 73.024 67.008 74.176 67.008C75.904 67.008 77.304 67.432 78.376 68.28C79.464 69.112 80.064 70.28 80.176 71.784H76.48C76.448 71.208 76.2 70.736 75.736 70.368C75.288 69.984 74.688 69.792 73.936 69.792C73.28 69.792 72.752 69.96 72.352 70.296C71.968 70.632 71.776 71.12 71.776 71.76C71.776 72.208 71.92 72.584 72.208 72.888C72.512 73.176 72.88 73.416 73.312 73.608C73.76 73.784 74.384 73.992 75.184 74.232C76.272 74.552 77.16 74.872 77.848 75.192C78.536 75.512 79.128 75.992 79.624 76.632C80.12 77.272 80.368 78.112 80.368 79.152C80.368 80.048 80.136 80.88 79.672 81.648C79.208 82.416 78.528 83.032 77.632 83.496C76.736 83.944 75.672 84.168 74.44 84.168ZM95.641 77.064C95.641 77.544 95.609 77.976 95.545 78.36H85.825C85.905 79.32 86.241 80.072 86.833 80.616C87.425 81.16 88.153 81.432 89.017 81.432C90.265 81.432 91.153 80.896 91.681 79.824H95.305C94.921 81.104 94.185 82.16 93.097 82.992C92.009 83.808 90.673 84.216 89.089 84.216C87.809 84.216 86.657 83.936 85.633 83.376C84.625 82.8 83.833 81.992 83.257 80.952C82.697 79.912 82.417 78.712 82.417 77.352C82.417 75.976 82.697 74.768 83.257 73.728C83.817 72.688 84.601 71.888 85.609 71.328C86.617 70.768 87.777 70.488 89.089 70.488C90.353 70.488 91.481 70.76 92.473 71.304C93.481 71.848 94.257 72.624 94.801 73.632C95.361 74.624 95.641 75.768 95.641 77.064ZM92.161 76.104C92.145 75.24 91.833 74.552 91.225 74.04C90.617 73.512 89.873 73.248 88.993 73.248C88.161 73.248 87.457 73.504 86.881 74.016C86.321 74.512 85.977 75.208 85.849 76.104H92.161ZM101.454 66.24V84H98.0935V66.24H101.454ZM117.133 77.064C117.133 77.544 117.101 77.976 117.037 78.36H107.317C107.397 79.32 107.733 80.072 108.325 80.616C108.917 81.16 109.645 81.432 110.509 81.432C111.757 81.432 112.645 80.896 113.173 79.824H116.797C116.413 81.104 115.677 82.16 114.589 82.992C113.501 83.808 112.165 84.216 110.581 84.216C109.301 84.216 108.149 83.936 107.125 83.376C106.117 82.8 105.325 81.992 104.749 80.952C104.189 79.912 103.909 78.712 103.909 77.352C103.909 75.976 104.189 74.768 104.749 73.728C105.309 72.688 106.093 71.888 107.101 71.328C108.109 70.768 109.269 70.488 110.581 70.488C111.845 70.488 112.973 70.76 113.965 71.304C114.973 71.848 115.749 72.624 116.293 73.632C116.853 74.624 117.133 75.768 117.133 77.064ZM113.653 76.104C113.637 75.24 113.325 74.552 112.717 74.04C112.109 73.512 111.365 73.248 110.485 73.248C109.653 73.248 108.949 73.504 108.373 74.016C107.813 74.512 107.469 75.208 107.341 76.104H113.653ZM118.722 77.352C118.722 75.976 119.002 74.776 119.562 73.752C120.122 72.712 120.898 71.912 121.89 71.352C122.882 70.776 124.018 70.488 125.298 70.488C126.946 70.488 128.306 70.904 129.378 71.736C130.466 72.552 131.194 73.704 131.562 75.192H127.938C127.746 74.616 127.418 74.168 126.954 73.848C126.506 73.512 125.946 73.344 125.274 73.344C124.314 73.344 123.554 73.696 122.994 74.4C122.434 75.088 122.154 76.072 122.154 77.352C122.154 78.616 122.434 79.6 122.994 80.304C123.554 80.992 124.314 81.336 125.274 81.336C126.634 81.336 127.522 80.728 127.938 79.512H131.562C131.194 80.952 130.466 82.096 129.378 82.944C128.29 83.792 126.93 84.216 125.298 84.216C124.018 84.216 122.882 83.936 121.89 83.376C120.898 82.8 120.122 82 119.562 80.976C119.002 79.936 118.722 78.728 118.722 77.352ZM137.935 73.464V79.896C137.935 80.344 138.039 80.672 138.247 80.88C138.471 81.072 138.839 81.168 139.351 81.168H140.911V84H138.799C135.967 84 134.551 82.624 134.551 79.872V73.464H132.967V70.704H134.551V67.416H137.935V70.704H140.911V73.464H137.935ZM161.767 70.704L153.535 90.288H149.959L152.839 83.664L147.511 70.704H151.279L154.711 79.992L158.191 70.704H161.767ZM169.482 84.216C168.202 84.216 167.05 83.936 166.026 83.376C165.002 82.8 164.194 81.992 163.602 80.952C163.026 79.912 162.738 78.712 162.738 77.352C162.738 75.992 163.034 74.792 163.626 73.752C164.234 72.712 165.058 71.912 166.098 71.352C167.138 70.776 168.298 70.488 169.578 70.488C170.858 70.488 172.018 70.776 173.058 71.352C174.098 71.912 174.914 72.712 175.506 73.752C176.114 74.792 176.418 75.992 176.418 77.352C176.418 78.712 176.106 79.912 175.482 80.952C174.874 81.992 174.042 82.8 172.986 83.376C171.946 83.936 170.778 84.216 169.482 84.216ZM169.482 81.288C170.09 81.288 170.658 81.144 171.186 80.856C171.73 80.552 172.162 80.104 172.482 79.512C172.802 78.92 172.962 78.2 172.962 77.352C172.962 76.088 172.626 75.12 171.954 74.448C171.298 73.76 170.49 73.416 169.53 73.416C168.57 73.416 167.762 73.76 167.106 74.448C166.466 75.12 166.146 76.088 166.146 77.352C166.146 78.616 166.458 79.592 167.082 80.28C167.722 80.952 168.522 81.288 169.482 81.288ZM191.435 70.704V84H188.051V82.32C187.619 82.896 187.051 83.352 186.347 83.688C185.659 84.008 184.907 84.168 184.091 84.168C183.051 84.168 182.131 83.952 181.331 83.52C180.531 83.072 179.899 82.424 179.435 81.576C178.987 80.712 178.763 79.688 178.763 78.504V70.704H182.123V78.024C182.123 79.08 182.387 79.896 182.915 80.472C183.443 81.032 184.163 81.312 185.075 81.312C186.003 81.312 186.731 81.032 187.259 80.472C187.787 79.896 188.051 79.08 188.051 78.024V70.704H191.435ZM198.11 72.768C198.542 72.064 199.102 71.512 199.79 71.112C200.494 70.712 201.294 70.512 202.19 70.512V74.04H201.302C200.246 74.04 199.446 74.288 198.902 74.784C198.374 75.28 198.11 76.144 198.11 77.376V84H194.75V70.704H198.11V72.768ZM213.532 66.24V84H210.172V66.24H213.532ZM215.987 77.304C215.987 75.96 216.251 74.768 216.779 73.728C217.323 72.688 218.051 71.888 218.963 71.328C219.891 70.768 220.923 70.488 222.059 70.488C223.051 70.488 223.915 70.688 224.651 71.088C225.403 71.488 226.003 71.992 226.451 72.6V70.704H229.835V84H226.451V82.056C226.019 82.68 225.419 83.2 224.651 83.616C223.899 84.016 223.027 84.216 222.035 84.216C220.915 84.216 219.891 83.928 218.963 83.352C218.051 82.776 217.323 81.968 216.779 80.928C216.251 79.872 215.987 78.664 215.987 77.304ZM226.451 77.352C226.451 76.536 226.291 75.84 225.971 75.264C225.651 74.672 225.219 74.224 224.675 73.92C224.131 73.6 223.547 73.44 222.923 73.44C222.299 73.44 221.723 73.592 221.195 73.896C220.667 74.2 220.235 74.648 219.899 75.24C219.579 75.816 219.419 76.504 219.419 77.304C219.419 78.104 219.579 78.808 219.899 79.416C220.235 80.008 220.667 80.464 221.195 80.784C221.739 81.104 222.315 81.264 222.923 81.264C223.547 81.264 224.131 81.112 224.675 80.808C225.219 80.488 225.651 80.04 225.971 79.464C226.291 78.872 226.451 78.168 226.451 77.352ZM240.485 70.512C242.069 70.512 243.349 71.016 244.325 72.024C245.301 73.016 245.789 74.408 245.789 76.2V84H242.429V76.656C242.429 75.6 242.165 74.792 241.637 74.232C241.109 73.656 240.389 73.368 239.477 73.368C238.549 73.368 237.813 73.656 237.269 74.232C236.741 74.792 236.477 75.6 236.477 76.656V84H233.117V70.704H236.477V72.36C236.925 71.784 237.493 71.336 238.181 71.016C238.885 70.68 239.653 70.512 240.485 70.512ZM254.192 70.488C255.184 70.488 256.056 70.688 256.808 71.088C257.56 71.472 258.152 71.976 258.584 72.6V70.704H261.968V84.096C261.968 85.328 261.72 86.424 261.224 87.384C260.728 88.36 259.984 89.128 258.992 89.688C258 90.264 256.8 90.552 255.392 90.552C253.504 90.552 251.952 90.112 250.736 89.232C249.536 88.352 248.856 87.152 248.696 85.632H252.032C252.208 86.24 252.584 86.72 253.16 87.072C253.752 87.44 254.464 87.624 255.296 87.624C256.272 87.624 257.064 87.328 257.672 86.736C258.28 86.16 258.584 85.28 258.584 84.096V82.032C258.152 82.656 257.552 83.176 256.784 83.592C256.032 84.008 255.168 84.216 254.192 84.216C253.072 84.216 252.048 83.928 251.12 83.352C250.192 82.776 249.456 81.968 248.912 80.928C248.384 79.872 248.12 78.664 248.12 77.304C248.12 75.96 248.384 74.768 248.912 73.728C249.456 72.688 250.184 71.888 251.096 71.328C252.024 70.768 253.056 70.488 254.192 70.488ZM258.584 77.352C258.584 76.536 258.424 75.84 258.104 75.264C257.784 74.672 257.352 74.224 256.808 73.92C256.264 73.6 255.68 73.44 255.056 73.44C254.432 73.44 253.856 73.592 253.328 73.896C252.8 74.2 252.368 74.648 252.032 75.24C251.712 75.816 251.552 76.504 251.552 77.304C251.552 78.104 251.712 78.808 252.032 79.416C252.368 80.008 252.8 80.464 253.328 80.784C253.872 81.104 254.448 81.264 255.056 81.264C255.68 81.264 256.264 81.112 256.808 80.808C257.352 80.488 257.784 80.04 258.104 79.464C258.424 78.872 258.584 78.168 258.584 77.352ZM277.802 70.704V84H274.418V82.32C273.986 82.896 273.418 83.352 272.714 83.688C272.026 84.008 271.274 84.168 270.458 84.168C269.418 84.168 268.498 83.952 267.698 83.52C266.898 83.072 266.266 82.424 265.802 81.576C265.354 80.712 265.13 79.688 265.13 78.504V70.704H268.49V78.024C268.49 79.08 268.754 79.896 269.282 80.472C269.81 81.032 270.53 81.312 271.442 81.312C272.37 81.312 273.098 81.032 273.626 80.472C274.154 79.896 274.418 79.08 274.418 78.024V70.704H277.802ZM280.253 77.304C280.253 75.96 280.517 74.768 281.045 73.728C281.589 72.688 282.317 71.888 283.229 71.328C284.157 70.768 285.189 70.488 286.325 70.488C287.317 70.488 288.181 70.688 288.917 71.088C289.669 71.488 290.269 71.992 290.717 72.6V70.704H294.101V84H290.717V82.056C290.285 82.68 289.685 83.2 288.917 83.616C288.165 84.016 287.293 84.216 286.301 84.216C285.181 84.216 284.157 83.928 283.229 83.352C282.317 82.776 281.589 81.968 281.045 80.928C280.517 79.872 280.253 78.664 280.253 77.304ZM290.717 77.352C290.717 76.536 290.557 75.84 290.237 75.264C289.917 74.672 289.485 74.224 288.941 73.92C288.397 73.6 287.813 73.44 287.189 73.44C286.565 73.44 285.989 73.592 285.461 73.896C284.933 74.2 284.501 74.648 284.165 75.24C283.845 75.816 283.685 76.504 283.685 77.304C283.685 78.104 283.845 78.808 284.165 79.416C284.501 80.008 284.933 80.464 285.461 80.784C286.005 81.104 286.581 81.264 287.189 81.264C287.813 81.264 288.397 81.112 288.941 80.808C289.485 80.488 289.917 80.04 290.237 79.464C290.557 78.872 290.717 78.168 290.717 77.352ZM302.591 70.488C303.583 70.488 304.455 70.688 305.207 71.088C305.959 71.472 306.551 71.976 306.983 72.6V70.704H310.367V84.096C310.367 85.328 310.119 86.424 309.623 87.384C309.127 88.36 308.383 89.128 307.391 89.688C306.399 90.264 305.199 90.552 303.791 90.552C301.903 90.552 300.351 90.112 299.135 89.232C297.935 88.352 297.255 87.152 297.095 85.632H300.431C300.607 86.24 300.983 86.72 301.559 87.072C302.151 87.44 302.863 87.624 303.695 87.624C304.671 87.624 305.463 87.328 306.071 86.736C306.679 86.16 306.983 85.28 306.983 84.096V82.032C306.551 82.656 305.951 83.176 305.183 83.592C304.431 84.008 303.567 84.216 302.591 84.216C301.471 84.216 300.447 83.928 299.519 83.352C298.591 82.776 297.855 81.968 297.311 80.928C296.783 79.872 296.519 78.664 296.519 77.304C296.519 75.96 296.783 74.768 297.311 73.728C297.855 72.688 298.583 71.888 299.495 71.328C300.423 70.768 301.455 70.488 302.591 70.488ZM306.983 77.352C306.983 76.536 306.823 75.84 306.503 75.264C306.183 74.672 305.751 74.224 305.207 73.92C304.663 73.6 304.079 73.44 303.455 73.44C302.831 73.44 302.255 73.592 301.727 73.896C301.199 74.2 300.767 74.648 300.431 75.24C300.111 75.816 299.951 76.504 299.951 77.304C299.951 78.104 300.111 78.808 300.431 79.416C300.767 80.008 301.199 80.464 301.727 80.784C302.271 81.104 302.847 81.264 303.455 81.264C304.079 81.264 304.663 81.112 305.207 80.808C305.751 80.488 306.183 80.04 306.503 79.464C306.823 78.872 306.983 78.168 306.983 77.352ZM326.008 77.064C326.008 77.544 325.976 77.976 325.912 78.36H316.192C316.272 79.32 316.608 80.072 317.2 80.616C317.792 81.16 318.52 81.432 319.384 81.432C320.632 81.432 321.52 80.896 322.048 79.824H325.672C325.288 81.104 324.552 82.16 323.464 82.992C322.376 83.808 321.04 84.216 319.456 84.216C318.176 84.216 317.024 83.936 316 83.376C314.992 82.8 314.2 81.992 313.624 80.952C313.064 79.912 312.784 78.712 312.784 77.352C312.784 75.976 313.064 74.768 313.624 73.728C314.184 72.688 314.968 71.888 315.976 71.328C316.984 70.768 318.144 70.488 319.456 70.488C320.72 70.488 321.848 70.76 322.84 71.304C323.848 71.848 324.624 72.624 325.168 73.632C325.728 74.624 326.008 75.768 326.008 77.064ZM322.528 76.104C322.512 75.24 322.2 74.552 321.592 74.04C320.984 73.512 320.24 73.248 319.36 73.248C318.528 73.248 317.824 73.504 317.248 74.016C316.688 74.512 316.344 75.208 316.216 76.104H322.528Z" fill="white"/>
<path d="M55.475 790.545L52.07 797.055V801H50.705V797.055L47.285 790.545H48.8L51.38 795.84L53.96 790.545H55.475ZM60.4998 801.135C59.7298 801.135 59.0298 800.96 58.3998 800.61C57.7798 800.26 57.2898 799.765 56.9298 799.125C56.5798 798.475 56.4048 797.725 56.4048 796.875C56.4048 796.035 56.5848 795.295 56.9448 794.655C57.3148 794.005 57.8148 793.51 58.4448 793.17C59.0748 792.82 59.7798 792.645 60.5598 792.645C61.3398 792.645 62.0448 792.82 62.6748 793.17C63.3048 793.51 63.7998 794 64.1598 794.64C64.5298 795.28 64.7148 796.025 64.7148 796.875C64.7148 797.725 64.5248 798.475 64.1448 799.125C63.7748 799.765 63.2698 800.26 62.6298 800.61C61.9898 800.96 61.2798 801.135 60.4998 801.135ZM60.4998 799.935C60.9898 799.935 61.4498 799.82 61.8798 799.59C62.3098 799.36 62.6548 799.015 62.9148 798.555C63.1848 798.095 63.3198 797.535 63.3198 796.875C63.3198 796.215 63.1898 795.655 62.9298 795.195C62.6698 794.735 62.3298 794.395 61.9098 794.175C61.4898 793.945 61.0348 793.83 60.5448 793.83C60.0448 793.83 59.5848 793.945 59.1648 794.175C58.7548 794.395 58.4248 794.735 58.1748 795.195C57.9248 795.655 57.7998 796.215 57.7998 796.875C57.7998 797.545 57.9198 798.11 58.1598 798.57C58.4098 799.03 58.7398 799.375 59.1498 799.605C59.5598 799.825 60.0098 799.935 60.4998 799.935ZM73.7995 792.78V801H72.4345V799.785C72.1745 800.205 71.8095 800.535 71.3395 800.775C70.8795 801.005 70.3695 801.12 69.8095 801.12C69.1695 801.12 68.5945 800.99 68.0845 800.73C67.5745 800.46 67.1695 800.06 66.8695 799.53C66.5795 799 66.4345 798.355 66.4345 797.595V792.78H67.7845V797.415C67.7845 798.225 67.9895 798.85 68.3995 799.29C68.8095 799.72 69.3695 799.935 70.0795 799.935C70.8095 799.935 71.3845 799.71 71.8045 799.26C72.2245 798.81 72.4345 798.155 72.4345 797.295V792.78H73.7995ZM79.5932 796.875C79.5932 796.025 79.7632 795.285 80.1032 794.655C80.4432 794.015 80.9132 793.52 81.5132 793.17C82.1232 792.82 82.8182 792.645 83.5982 792.645C84.6082 792.645 85.4382 792.89 86.0882 793.38C86.7482 793.87 87.1832 794.55 87.3932 795.42H85.9232C85.7832 794.92 85.5082 794.525 85.0982 794.235C84.6982 793.945 84.1982 793.8 83.5982 793.8C82.8182 793.8 82.1882 794.07 81.7082 794.61C81.2282 795.14 80.9882 795.895 80.9882 796.875C80.9882 797.865 81.2282 798.63 81.7082 799.17C82.1882 799.71 82.8182 799.98 83.5982 799.98C84.1982 799.98 84.6982 799.84 85.0982 799.56C85.4982 799.28 85.7732 798.88 85.9232 798.36H87.3932C87.1732 799.2 86.7332 799.875 86.0732 800.385C85.4132 800.885 84.5882 801.135 83.5982 801.135C82.8182 801.135 82.1232 800.96 81.5132 800.61C80.9132 800.26 80.4432 799.765 80.1032 799.125C79.7632 798.485 79.5932 797.735 79.5932 796.875ZM88.7046 796.86C88.7046 796.02 88.8746 795.285 89.2146 794.655C89.5546 794.015 90.0196 793.52 90.6096 793.17C91.2096 792.82 91.8746 792.645 92.6046 792.645C93.3246 792.645 93.9496 792.8 94.4796 793.11C95.0096 793.42 95.4046 793.81 95.6646 794.28V792.78H97.0446V801H95.6646V799.47C95.3946 799.95 94.9896 800.35 94.4496 800.67C93.9196 800.98 93.2996 801.135 92.5896 801.135C91.8596 801.135 91.1996 800.955 90.6096 800.595C90.0196 800.235 89.5546 799.73 89.2146 799.08C88.8746 798.43 88.7046 797.69 88.7046 796.86ZM95.6646 796.875C95.6646 796.255 95.5396 795.715 95.2896 795.255C95.0396 794.795 94.6996 794.445 94.2696 794.205C93.8496 793.955 93.3846 793.83 92.8746 793.83C92.3646 793.83 91.8996 793.95 91.4796 794.19C91.0596 794.43 90.7246 794.78 90.4746 795.24C90.2246 795.7 90.0996 796.24 90.0996 796.86C90.0996 797.49 90.2246 798.04 90.4746 798.51C90.7246 798.97 91.0596 799.325 91.4796 799.575C91.8996 799.815 92.3646 799.935 92.8746 799.935C93.3846 799.935 93.8496 799.815 94.2696 799.575C94.6996 799.325 95.0396 798.97 95.2896 798.51C95.5396 798.04 95.6646 797.495 95.6646 796.875ZM103.356 792.63C104.356 792.63 105.166 792.935 105.786 793.545C106.406 794.145 106.716 795.015 106.716 796.155V801H105.366V796.35C105.366 795.53 105.161 794.905 104.751 794.475C104.341 794.035 103.781 793.815 103.071 793.815C102.351 793.815 101.776 794.04 101.346 794.49C100.926 794.94 100.716 795.595 100.716 796.455V801H99.3513V792.78H100.716V793.95C100.986 793.53 101.351 793.205 101.811 792.975C102.281 792.745 102.796 792.63 103.356 792.63ZM112.435 796.875C112.435 796.025 112.605 795.285 112.945 794.655C113.285 794.015 113.755 793.52 114.355 793.17C114.965 792.82 115.66 792.645 116.44 792.645C117.45 792.645 118.28 792.89 118.93 793.38C119.59 793.87 120.025 794.55 120.235 795.42H118.765C118.625 794.92 118.35 794.525 117.94 794.235C117.54 793.945 117.04 793.8 116.44 793.8C115.66 793.8 115.03 794.07 114.55 794.61C114.07 795.14 113.83 795.895 113.83 796.875C113.83 797.865 114.07 798.63 114.55 799.17C115.03 799.71 115.66 799.98 116.44 799.98C117.04 799.98 117.54 799.84 117.94 799.56C118.34 799.28 118.615 798.88 118.765 798.36H120.235C120.015 799.2 119.575 799.875 118.915 800.385C118.255 800.885 117.43 801.135 116.44 801.135C115.66 801.135 114.965 800.96 114.355 800.61C113.755 800.26 113.285 799.765 112.945 799.125C112.605 798.485 112.435 797.735 112.435 796.875ZM126.136 792.63C126.756 792.63 127.316 792.765 127.816 793.035C128.316 793.295 128.706 793.69 128.986 794.22C129.276 794.75 129.421 795.395 129.421 796.155V801H128.071V796.35C128.071 795.53 127.866 794.905 127.456 794.475C127.046 794.035 126.486 793.815 125.776 793.815C125.056 793.815 124.481 794.04 124.051 794.49C123.631 794.94 123.421 795.595 123.421 796.455V801H122.056V789.9H123.421V793.95C123.691 793.53 124.061 793.205 124.531 792.975C125.011 792.745 125.546 792.63 126.136 792.63ZM131.141 796.86C131.141 796.02 131.311 795.285 131.651 794.655C131.991 794.015 132.456 793.52 133.046 793.17C133.646 792.82 134.311 792.645 135.041 792.645C135.761 792.645 136.386 792.8 136.916 793.11C137.446 793.42 137.841 793.81 138.101 794.28V792.78H139.481V801H138.101V799.47C137.831 799.95 137.426 800.35 136.886 800.67C136.356 800.98 135.736 801.135 135.026 801.135C134.296 801.135 133.636 800.955 133.046 800.595C132.456 800.235 131.991 799.73 131.651 799.08C131.311 798.43 131.141 797.69 131.141 796.86ZM138.101 796.875C138.101 796.255 137.976 795.715 137.726 795.255C137.476 794.795 137.136 794.445 136.706 794.205C136.286 793.955 135.821 793.83 135.311 793.83C134.801 793.83 134.336 793.95 133.916 794.19C133.496 794.43 133.161 794.78 132.911 795.24C132.661 795.7 132.536 796.24 132.536 796.86C132.536 797.49 132.661 798.04 132.911 798.51C133.161 798.97 133.496 799.325 133.916 799.575C134.336 799.815 134.801 799.935 135.311 799.935C135.821 799.935 136.286 799.815 136.706 799.575C137.136 799.325 137.476 798.97 137.726 798.51C137.976 798.04 138.101 797.495 138.101 796.875ZM145.793 792.63C146.793 792.63 147.603 792.935 148.223 793.545C148.843 794.145 149.153 795.015 149.153 796.155V801H147.803V796.35C147.803 795.53 147.598 794.905 147.188 794.475C146.778 794.035 146.218 793.815 145.508 793.815C144.788 793.815 144.213 794.04 143.783 794.49C143.363 794.94 143.153 795.595 143.153 796.455V801H141.788V792.78H143.153V793.95C143.423 793.53 143.788 793.205 144.248 792.975C144.718 792.745 145.233 792.63 145.793 792.63ZM154.773 792.645C155.483 792.645 156.103 792.8 156.633 793.11C157.173 793.42 157.573 793.81 157.833 794.28V792.78H159.213V801.18C159.213 801.93 159.053 802.595 158.733 803.175C158.413 803.765 157.953 804.225 157.353 804.555C156.763 804.885 156.073 805.05 155.283 805.05C154.203 805.05 153.303 804.795 152.583 804.285C151.863 803.775 151.438 803.08 151.308 802.2H152.658C152.808 802.7 153.118 803.1 153.588 803.4C154.058 803.71 154.623 803.865 155.283 803.865C156.033 803.865 156.643 803.63 157.113 803.16C157.593 802.69 157.833 802.03 157.833 801.18V799.455C157.563 799.935 157.163 800.335 156.633 800.655C156.103 800.975 155.483 801.135 154.773 801.135C154.043 801.135 153.378 800.955 152.778 800.595C152.188 800.235 151.723 799.73 151.383 799.08C151.043 798.43 150.873 797.69 150.873 796.86C150.873 796.02 151.043 795.285 151.383 794.655C151.723 794.015 152.188 793.52 152.778 793.17C153.378 792.82 154.043 792.645 154.773 792.645ZM157.833 796.875C157.833 796.255 157.708 795.715 157.458 795.255C157.208 794.795 156.868 794.445 156.438 794.205C156.018 793.955 155.553 793.83 155.043 793.83C154.533 793.83 154.068 793.95 153.648 794.19C153.228 794.43 152.893 794.78 152.643 795.24C152.393 795.7 152.268 796.24 152.268 796.86C152.268 797.49 152.393 798.04 152.643 798.51C152.893 798.97 153.228 799.325 153.648 799.575C154.068 799.815 154.533 799.935 155.043 799.935C155.553 799.935 156.018 799.815 156.438 799.575C156.868 799.325 157.208 798.97 157.458 798.51C157.708 798.04 157.833 797.495 157.833 796.875ZM169.019 796.575C169.019 796.835 169.004 797.11 168.974 797.4H162.404C162.454 798.21 162.729 798.845 163.229 799.305C163.739 799.755 164.354 799.98 165.074 799.98C165.664 799.98 166.154 799.845 166.544 799.575C166.944 799.295 167.224 798.925 167.384 798.465H168.854C168.634 799.255 168.194 799.9 167.534 800.4C166.874 800.89 166.054 801.135 165.074 801.135C164.294 801.135 163.594 800.96 162.974 800.61C162.364 800.26 161.884 799.765 161.534 799.125C161.184 798.475 161.009 797.725 161.009 796.875C161.009 796.025 161.179 795.28 161.519 794.64C161.859 794 162.334 793.51 162.944 793.17C163.564 792.82 164.274 792.645 165.074 792.645C165.854 792.645 166.544 792.815 167.144 793.155C167.744 793.495 168.204 793.965 168.524 794.565C168.854 795.155 169.019 795.825 169.019 796.575ZM167.609 796.29C167.609 795.77 167.494 795.325 167.264 794.955C167.034 794.575 166.719 794.29 166.319 794.1C165.929 793.9 165.494 793.8 165.014 793.8C164.324 793.8 163.734 794.02 163.244 794.46C162.764 794.9 162.489 795.51 162.419 796.29H167.609ZM176.485 793.905V798.75C176.485 799.15 176.57 799.435 176.74 799.605C176.91 799.765 177.205 799.845 177.625 799.845H178.63V801H177.4C176.64 801 176.07 800.825 175.69 800.475C175.31 800.125 175.12 799.55 175.12 798.75V793.905H174.055V792.78H175.12V790.71H176.485V792.78H178.63V793.905H176.485ZM184.364 792.63C184.984 792.63 185.544 792.765 186.044 793.035C186.544 793.295 186.934 793.69 187.214 794.22C187.504 794.75 187.649 795.395 187.649 796.155V801H186.299V796.35C186.299 795.53 186.094 794.905 185.684 794.475C185.274 794.035 184.714 793.815 184.004 793.815C183.284 793.815 182.709 794.04 182.279 794.49C181.859 794.94 181.649 795.595 181.649 796.455V801H180.284V789.9H181.649V793.95C181.919 793.53 182.289 793.205 182.759 792.975C183.239 792.745 183.774 792.63 184.364 792.63ZM190.584 791.445C190.324 791.445 190.104 791.355 189.924 791.175C189.744 790.995 189.654 790.775 189.654 790.515C189.654 790.255 189.744 790.035 189.924 789.855C190.104 789.675 190.324 789.585 190.584 789.585C190.834 789.585 191.044 789.675 191.214 789.855C191.394 790.035 191.484 790.255 191.484 790.515C191.484 790.775 191.394 790.995 191.214 791.175C191.044 791.355 190.834 791.445 190.584 791.445ZM191.244 792.78V801H189.879V792.78H191.244ZM196.48 801.135C195.85 801.135 195.285 801.03 194.785 800.82C194.285 800.6 193.89 800.3 193.6 799.92C193.31 799.53 193.15 799.085 193.12 798.585H194.53C194.57 798.995 194.76 799.33 195.1 799.59C195.45 799.85 195.905 799.98 196.465 799.98C196.985 799.98 197.395 799.865 197.695 799.635C197.995 799.405 198.145 799.115 198.145 798.765C198.145 798.405 197.985 798.14 197.665 797.97C197.345 797.79 196.85 797.615 196.18 797.445C195.57 797.285 195.07 797.125 194.68 796.965C194.3 796.795 193.97 796.55 193.69 796.23C193.42 795.9 193.285 795.47 193.285 794.94C193.285 794.52 193.41 794.135 193.66 793.785C193.91 793.435 194.265 793.16 194.725 792.96C195.185 792.75 195.71 792.645 196.3 792.645C197.21 792.645 197.945 792.875 198.505 793.335C199.065 793.795 199.365 794.425 199.405 795.225H198.04C198.01 794.795 197.835 794.45 197.515 794.19C197.205 793.93 196.785 793.8 196.255 793.8C195.765 793.8 195.375 793.905 195.085 794.115C194.795 794.325 194.65 794.6 194.65 794.94C194.65 795.21 194.735 795.435 194.905 795.615C195.085 795.785 195.305 795.925 195.565 796.035C195.835 796.135 196.205 796.25 196.675 796.38C197.265 796.54 197.745 796.7 198.115 796.86C198.485 797.01 198.8 797.24 199.06 797.55C199.33 797.86 199.47 798.265 199.48 798.765C199.48 799.215 199.355 799.62 199.105 799.98C198.855 800.34 198.5 800.625 198.04 800.835C197.59 801.035 197.07 801.135 196.48 801.135ZM204.896 796.86C204.896 796.02 205.066 795.285 205.406 794.655C205.746 794.015 206.211 793.52 206.801 793.17C207.401 792.82 208.066 792.645 208.796 792.645C209.516 792.645 210.141 792.8 210.671 793.11C211.201 793.42 211.596 793.81 211.856 794.28V792.78H213.236V801H211.856V799.47C211.586 799.95 211.181 800.35 210.641 800.67C210.111 800.98 209.491 801.135 208.781 801.135C208.051 801.135 207.391 800.955 206.801 800.595C206.211 800.235 205.746 799.73 205.406 799.08C205.066 798.43 204.896 797.69 204.896 796.86ZM211.856 796.875C211.856 796.255 211.731 795.715 211.481 795.255C211.231 794.795 210.891 794.445 210.461 794.205C210.041 793.955 209.576 793.83 209.066 793.83C208.556 793.83 208.091 793.95 207.671 794.19C207.251 794.43 206.916 794.78 206.666 795.24C206.416 795.7 206.291 796.24 206.291 796.86C206.291 797.49 206.416 798.04 206.666 798.51C206.916 798.97 207.251 799.325 207.671 799.575C208.091 799.815 208.556 799.935 209.066 799.935C209.576 799.935 210.041 799.815 210.461 799.575C210.891 799.325 211.231 798.97 211.481 798.51C211.731 798.04 211.856 797.495 211.856 796.875ZM219.548 792.63C220.548 792.63 221.358 792.935 221.978 793.545C222.598 794.145 222.908 795.015 222.908 796.155V801H221.558V796.35C221.558 795.53 221.353 794.905 220.943 794.475C220.533 794.035 219.973 793.815 219.263 793.815C218.543 793.815 217.968 794.04 217.538 794.49C217.118 794.94 216.908 795.595 216.908 796.455V801H215.543V792.78H216.908V793.95C217.178 793.53 217.543 793.205 218.003 792.975C218.473 792.745 218.988 792.63 219.548 792.63ZM232.217 792.78L227.267 804.87H225.857L227.477 800.91L224.162 792.78H225.677L228.257 799.44L230.807 792.78H232.217ZM235.255 793.905V798.75C235.255 799.15 235.34 799.435 235.51 799.605C235.68 799.765 235.975 799.845 236.395 799.845H237.4V801H236.17C235.41 801 234.84 800.825 234.46 800.475C234.08 800.125 233.89 799.55 233.89 798.75V793.905H232.825V792.78H233.89V790.71H235.255V792.78H237.4V793.905H235.255ZM239.758 791.445C239.498 791.445 239.278 791.355 239.098 791.175C238.918 790.995 238.828 790.775 238.828 790.515C238.828 790.255 238.918 790.035 239.098 789.855C239.278 789.675 239.498 789.585 239.758 789.585C240.008 789.585 240.218 789.675 240.388 789.855C240.568 790.035 240.658 790.255 240.658 790.515C240.658 790.775 240.568 790.995 240.388 791.175C240.218 791.355 240.008 791.445 239.758 791.445ZM240.418 792.78V801H239.053V792.78H240.418ZM252.63 792.63C253.27 792.63 253.84 792.765 254.34 793.035C254.84 793.295 255.235 793.69 255.525 794.22C255.815 794.75 255.96 795.395 255.96 796.155V801H254.61V796.35C254.61 795.53 254.405 794.905 253.995 794.475C253.595 794.035 253.05 793.815 252.36 793.815C251.65 793.815 251.085 794.045 250.665 794.505C250.245 794.955 250.035 795.61 250.035 796.47V801H248.685V796.35C248.685 795.53 248.48 794.905 248.07 794.475C247.67 794.035 247.125 793.815 246.435 793.815C245.725 793.815 245.16 794.045 244.74 794.505C244.32 794.955 244.11 795.61 244.11 796.47V801H242.745V792.78H244.11V793.965C244.38 793.535 244.74 793.205 245.19 792.975C245.65 792.745 246.155 792.63 246.705 792.63C247.395 792.63 248.005 792.785 248.535 793.095C249.065 793.405 249.46 793.86 249.72 794.46C249.95 793.88 250.33 793.43 250.86 793.11C251.39 792.79 251.98 792.63 252.63 792.63ZM265.699 796.575C265.699 796.835 265.684 797.11 265.654 797.4H259.084C259.134 798.21 259.409 798.845 259.909 799.305C260.419 799.755 261.034 799.98 261.754 799.98C262.344 799.98 262.834 799.845 263.224 799.575C263.624 799.295 263.904 798.925 264.064 798.465H265.534C265.314 799.255 264.874 799.9 264.214 800.4C263.554 800.89 262.734 801.135 261.754 801.135C260.974 801.135 260.274 800.96 259.654 800.61C259.044 800.26 258.564 799.765 258.214 799.125C257.864 798.475 257.689 797.725 257.689 796.875C257.689 796.025 257.859 795.28 258.199 794.64C258.539 794 259.014 793.51 259.624 793.17C260.244 792.82 260.954 792.645 261.754 792.645C262.534 792.645 263.224 792.815 263.824 793.155C264.424 793.495 264.884 793.965 265.204 794.565C265.534 795.155 265.699 795.825 265.699 796.575ZM264.289 796.29C264.289 795.77 264.174 795.325 263.944 794.955C263.714 794.575 263.399 794.29 262.999 794.1C262.609 793.9 262.174 793.8 261.694 793.8C261.004 793.8 260.414 794.02 259.924 794.46C259.444 794.9 259.169 795.51 259.099 796.29H264.289ZM272.205 791.445C271.945 791.445 271.725 791.355 271.545 791.175C271.365 790.995 271.275 790.775 271.275 790.515C271.275 790.255 271.365 790.035 271.545 789.855C271.725 789.675 271.945 789.585 272.205 789.585C272.455 789.585 272.665 789.675 272.835 789.855C273.015 790.035 273.105 790.255 273.105 790.515C273.105 790.775 273.015 790.995 272.835 791.175C272.665 791.355 272.455 791.445 272.205 791.445ZM272.865 792.78V801H271.5V792.78H272.865ZM279.196 792.63C280.196 792.63 281.006 792.935 281.626 793.545C282.246 794.145 282.556 795.015 282.556 796.155V801H281.206V796.35C281.206 795.53 281.001 794.905 280.591 794.475C280.181 794.035 279.621 793.815 278.911 793.815C278.191 793.815 277.616 794.04 277.186 794.49C276.766 794.94 276.556 795.595 276.556 796.455V801H275.191V792.78H276.556V793.95C276.826 793.53 277.191 793.205 277.651 792.975C278.121 792.745 278.636 792.63 279.196 792.63ZM291.695 801.135C291.065 801.135 290.5 801.03 290 800.82C289.5 800.6 289.105 800.3 288.815 799.92C288.525 799.53 288.365 799.085 288.335 798.585H289.745C289.785 798.995 289.975 799.33 290.315 799.59C290.665 799.85 291.12 799.98 291.68 799.98C292.2 799.98 292.61 799.865 292.91 799.635C293.21 799.405 293.36 799.115 293.36 798.765C293.36 798.405 293.2 798.14 292.88 797.97C292.56 797.79 292.065 797.615 291.395 797.445C290.785 797.285 290.285 797.125 289.895 796.965C289.515 796.795 289.185 796.55 288.905 796.23C288.635 795.9 288.5 795.47 288.5 794.94C288.5 794.52 288.625 794.135 288.875 793.785C289.125 793.435 289.48 793.16 289.94 792.96C290.4 792.75 290.925 792.645 291.515 792.645C292.425 792.645 293.16 792.875 293.72 793.335C294.28 793.795 294.58 794.425 294.62 795.225H293.255C293.225 794.795 293.05 794.45 292.73 794.19C292.42 793.93 292 793.8 291.47 793.8C290.98 793.8 290.59 793.905 290.3 794.115C290.01 794.325 289.865 794.6 289.865 794.94C289.865 795.21 289.95 795.435 290.12 795.615C290.3 795.785 290.52 795.925 290.78 796.035C291.05 796.135 291.42 796.25 291.89 796.38C292.48 796.54 292.96 796.7 293.33 796.86C293.7 797.01 294.015 797.24 294.275 797.55C294.545 797.86 294.685 798.265 294.695 798.765C294.695 799.215 294.57 799.62 294.32 799.98C294.07 800.34 293.715 800.625 293.255 800.835C292.805 801.035 292.285 801.135 291.695 801.135ZM304.122 796.575C304.122 796.835 304.107 797.11 304.077 797.4H297.507C297.557 798.21 297.832 798.845 298.332 799.305C298.842 799.755 299.457 799.98 300.177 799.98C300.767 799.98 301.257 799.845 301.647 799.575C302.047 799.295 302.327 798.925 302.487 798.465H303.957C303.737 799.255 303.297 799.9 302.637 800.4C301.977 800.89 301.157 801.135 300.177 801.135C299.397 801.135 298.697 800.96 298.077 800.61C297.467 800.26 296.987 799.765 296.637 799.125C296.287 798.475 296.112 797.725 296.112 796.875C296.112 796.025 296.282 795.28 296.622 794.64C296.962 794 297.437 793.51 298.047 793.17C298.667 792.82 299.377 792.645 300.177 792.645C300.957 792.645 301.647 792.815 302.247 793.155C302.847 793.495 303.307 793.965 303.627 794.565C303.957 795.155 304.122 795.825 304.122 796.575ZM302.712 796.29C302.712 795.77 302.597 795.325 302.367 794.955C302.137 794.575 301.822 794.29 301.422 794.1C301.032 793.9 300.597 793.8 300.117 793.8C299.427 793.8 298.837 794.02 298.347 794.46C297.867 794.9 297.592 795.51 297.522 796.29H302.712ZM307.589 793.905V798.75C307.589 799.15 307.674 799.435 307.844 799.605C308.014 799.765 308.309 799.845 308.729 799.845H309.734V801H308.504C307.744 801 307.174 800.825 306.794 800.475C306.414 800.125 306.224 799.55 306.224 798.75V793.905H305.159V792.78H306.224V790.71H307.589V792.78H309.734V793.905H307.589ZM313.052 793.905V798.75C313.052 799.15 313.137 799.435 313.307 799.605C313.477 799.765 313.772 799.845 314.192 799.845H315.197V801H313.967C313.207 801 312.637 800.825 312.257 800.475C311.877 800.125 311.687 799.55 311.687 798.75V793.905H310.622V792.78H311.687V790.71H313.052V792.78H315.197V793.905H313.052ZM317.556 791.445C317.296 791.445 317.076 791.355 316.896 791.175C316.716 790.995 316.626 790.775 316.626 790.515C316.626 790.255 316.716 790.035 316.896 789.855C317.076 789.675 317.296 789.585 317.556 789.585C317.806 789.585 318.016 789.675 318.186 789.855C318.366 790.035 318.456 790.255 318.456 790.515C318.456 790.775 318.366 790.995 318.186 791.175C318.016 791.355 317.806 791.445 317.556 791.445ZM318.216 792.78V801H316.851V792.78H318.216ZM324.548 792.63C325.548 792.63 326.358 792.935 326.978 793.545C327.598 794.145 327.908 795.015 327.908 796.155V801H326.558V796.35C326.558 795.53 326.353 794.905 325.943 794.475C325.533 794.035 324.973 793.815 324.263 793.815C323.543 793.815 322.968 794.04 322.538 794.49C322.118 794.94 321.908 795.595 321.908 796.455V801H320.543V792.78H321.908V793.95C322.178 793.53 322.543 793.205 323.003 792.975C323.473 792.745 323.988 792.63 324.548 792.63ZM333.527 792.645C334.237 792.645 334.857 792.8 335.387 793.11C335.927 793.42 336.327 793.81 336.587 794.28V792.78H337.967V801.18C337.967 801.93 337.807 802.595 337.487 803.175C337.167 803.765 336.707 804.225 336.107 804.555C335.517 804.885 334.827 805.05 334.037 805.05C332.957 805.05 332.057 804.795 331.337 804.285C330.617 803.775 330.192 803.08 330.062 802.2H331.412C331.562 802.7 331.872 803.1 332.342 803.4C332.812 803.71 333.377 803.865 334.037 803.865C334.787 803.865 335.397 803.63 335.867 803.16C336.347 802.69 336.587 802.03 336.587 801.18V799.455C336.317 799.935 335.917 800.335 335.387 800.655C334.857 800.975 334.237 801.135 333.527 801.135C332.797 801.135 332.132 800.955 331.532 800.595C330.942 800.235 330.477 799.73 330.137 799.08C329.797 798.43 329.627 797.69 329.627 796.86C329.627 796.02 329.797 795.285 330.137 794.655C330.477 794.015 330.942 793.52 331.532 793.17C332.132 792.82 332.797 792.645 333.527 792.645ZM336.587 796.875C336.587 796.255 336.462 795.715 336.212 795.255C335.962 794.795 335.622 794.445 335.192 794.205C334.772 793.955 334.307 793.83 333.797 793.83C333.287 793.83 332.822 793.95 332.402 794.19C331.982 794.43 331.647 794.78 331.397 795.24C331.147 795.7 331.022 796.24 331.022 796.86C331.022 797.49 331.147 798.04 331.397 798.51C331.647 798.97 331.982 799.325 332.402 799.575C332.822 799.815 333.287 799.935 333.797 799.935C334.307 799.935 334.772 799.815 335.192 799.575C335.622 799.325 335.962 798.97 336.212 798.51C336.462 798.04 336.587 797.495 336.587 796.875ZM343.184 801.135C342.554 801.135 341.989 801.03 341.489 800.82C340.989 800.6 340.594 800.3 340.304 799.92C340.014 799.53 339.854 799.085 339.824 798.585H341.234C341.274 798.995 341.464 799.33 341.804 799.59C342.154 799.85 342.609 799.98 343.169 799.98C343.689 799.98 344.099 799.865 344.399 799.635C344.699 799.405 344.849 799.115 344.849 798.765C344.849 798.405 344.689 798.14 344.369 797.97C344.049 797.79 343.554 797.615 342.884 797.445C342.274 797.285 341.774 797.125 341.384 796.965C341.004 796.795 340.674 796.55 340.394 796.23C340.124 795.9 339.989 795.47 339.989 794.94C339.989 794.52 340.114 794.135 340.364 793.785C340.614 793.435 340.969 793.16 341.429 792.96C341.889 792.75 342.414 792.645 343.004 792.645C343.914 792.645 344.649 792.875 345.209 793.335C345.769 793.795 346.069 794.425 346.109 795.225H344.744C344.714 794.795 344.539 794.45 344.219 794.19C343.909 793.93 343.489 793.8 342.959 793.8C342.469 793.8 342.079 793.905 341.789 794.115C341.499 794.325 341.354 794.6 341.354 794.94C341.354 795.21 341.439 795.435 341.609 795.615C341.789 795.785 342.009 795.925 342.269 796.035C342.539 796.135 342.909 796.25 343.379 796.38C343.969 796.54 344.449 796.7 344.819 796.86C345.189 797.01 345.504 797.24 345.764 797.55C346.034 797.86 346.174 798.265 346.184 798.765C346.184 799.215 346.059 799.62 345.809 799.98C345.559 800.34 345.204 800.625 344.744 800.835C344.294 801.035 343.774 801.135 343.184 801.135Z" fill="white"/>
<rect x="77.5" y="717.5" width="239" height="49" rx="13.5" fill="white"/>
<rect x="77.5" y="717.5" width="239" height="49" rx="13.5" stroke="black"/>
<path d="M139.74 742.02C139.74 740.66 140.054 739.44 140.68 738.36C141.32 737.28 142.18 736.44 143.26 735.84C144.354 735.227 145.547 734.92 146.84 734.92C148.32 734.92 149.634 735.287 150.78 736.02C151.94 736.74 152.78 737.767 153.3 739.1H150.56C150.2 738.367 149.7 737.82 149.06 737.46C148.42 737.1 147.68 736.92 146.84 736.92C145.92 736.92 145.1 737.127 144.38 737.54C143.66 737.953 143.094 738.547 142.68 739.32C142.28 740.093 142.08 740.993 142.08 742.02C142.08 743.047 142.28 743.947 142.68 744.72C143.094 745.493 143.66 746.093 144.38 746.52C145.1 746.933 145.92 747.14 146.84 747.14C147.68 747.14 148.42 746.96 149.06 746.6C149.7 746.24 150.2 745.693 150.56 744.96H153.3C152.78 746.293 151.94 747.32 150.78 748.04C149.634 748.76 148.32 749.12 146.84 749.12C145.534 749.12 144.34 748.82 143.26 748.22C142.18 747.607 141.32 746.76 140.68 745.68C140.054 744.6 139.74 743.38 139.74 742.02ZM160.749 749.18C159.709 749.18 158.769 748.947 157.929 748.48C157.089 748 156.429 747.333 155.949 746.48C155.469 745.613 155.229 744.613 155.229 743.48C155.229 742.36 155.476 741.367 155.969 740.5C156.462 739.633 157.136 738.967 157.989 738.5C158.842 738.033 159.796 737.8 160.849 737.8C161.902 737.8 162.856 738.033 163.709 738.5C164.562 738.967 165.236 739.633 165.729 740.5C166.222 741.367 166.469 742.36 166.469 743.48C166.469 744.6 166.216 745.593 165.709 746.46C165.202 747.327 164.509 748 163.629 748.48C162.762 748.947 161.802 749.18 160.749 749.18ZM160.749 747.2C161.336 747.2 161.882 747.06 162.389 746.78C162.909 746.5 163.329 746.08 163.649 745.52C163.969 744.96 164.129 744.28 164.129 743.48C164.129 742.68 163.976 742.007 163.669 741.46C163.362 740.9 162.956 740.48 162.449 740.2C161.942 739.92 161.396 739.78 160.809 739.78C160.222 739.78 159.676 739.92 159.169 740.2C158.676 740.48 158.282 740.9 157.989 741.46C157.696 742.007 157.549 742.68 157.549 743.48C157.549 744.667 157.849 745.587 158.449 746.24C159.062 746.88 159.829 747.2 160.749 747.2ZM174.283 737.8C175.15 737.8 175.923 737.98 176.603 738.34C177.296 738.7 177.836 739.233 178.223 739.94C178.61 740.647 178.803 741.5 178.803 742.5V749H176.543V742.84C176.543 741.853 176.296 741.1 175.803 740.58C175.31 740.047 174.636 739.78 173.783 739.78C172.93 739.78 172.25 740.047 171.743 740.58C171.25 741.1 171.003 741.853 171.003 742.84V749H168.723V737.98H171.003V739.24C171.376 738.787 171.85 738.433 172.423 738.18C173.01 737.927 173.63 737.8 174.283 737.8ZM184.371 739.84V745.94C184.371 746.353 184.465 746.653 184.651 746.84C184.851 747.013 185.185 747.1 185.651 747.1H187.051V749H185.251C184.225 749 183.438 748.76 182.891 748.28C182.345 747.8 182.071 747.02 182.071 745.94V739.84H180.771V737.98H182.071V735.24H184.371V737.98H187.051V739.84H184.371ZM190.313 736.52C189.899 736.52 189.553 736.38 189.273 736.1C188.993 735.82 188.853 735.473 188.853 735.06C188.853 734.647 188.993 734.3 189.273 734.02C189.553 733.74 189.899 733.6 190.313 733.6C190.713 733.6 191.053 733.74 191.333 734.02C191.613 734.3 191.753 734.647 191.753 735.06C191.753 735.473 191.613 735.82 191.333 736.1C191.053 736.38 190.713 736.52 190.313 736.52ZM191.433 737.98V749H189.153V737.98H191.433ZM199.986 737.8C200.853 737.8 201.626 737.98 202.306 738.34C202.999 738.7 203.539 739.233 203.926 739.94C204.313 740.647 204.506 741.5 204.506 742.5V749H202.246V742.84C202.246 741.853 201.999 741.1 201.506 740.58C201.013 740.047 200.339 739.78 199.486 739.78C198.633 739.78 197.953 740.047 197.446 740.58C196.953 741.1 196.706 741.853 196.706 742.84V749H194.426V737.98H196.706V739.24C197.079 738.787 197.553 738.433 198.126 738.18C198.713 737.927 199.333 737.8 199.986 737.8ZM217.394 737.98V749H215.114V747.7C214.754 748.153 214.281 748.513 213.694 748.78C213.121 749.033 212.508 749.16 211.854 749.16C210.988 749.16 210.208 748.98 209.514 748.62C208.834 748.26 208.294 747.727 207.894 747.02C207.508 746.313 207.314 745.46 207.314 744.46V737.98H209.574V744.12C209.574 745.107 209.821 745.867 210.314 746.4C210.808 746.92 211.481 747.18 212.334 747.18C213.188 747.18 213.861 746.92 214.354 746.4C214.861 745.867 215.114 745.107 215.114 744.12V737.98H217.394ZM230.503 743.22C230.503 743.633 230.476 744.007 230.423 744.34H222.003C222.069 745.22 222.396 745.927 222.983 746.46C223.569 746.993 224.289 747.26 225.143 747.26C226.369 747.26 227.236 746.747 227.743 745.72H230.203C229.869 746.733 229.263 747.567 228.383 748.22C227.516 748.86 226.436 749.18 225.143 749.18C224.089 749.18 223.143 748.947 222.303 748.48C221.476 748 220.823 747.333 220.343 746.48C219.876 745.613 219.643 744.613 219.643 743.48C219.643 742.347 219.869 741.353 220.323 740.5C220.789 739.633 221.436 738.967 222.263 738.5C223.103 738.033 224.063 737.8 225.143 737.8C226.183 737.8 227.109 738.027 227.923 738.48C228.736 738.933 229.369 739.573 229.823 740.4C230.276 741.213 230.503 742.153 230.503 743.22ZM228.123 742.5C228.109 741.66 227.809 740.987 227.223 740.48C226.636 739.973 225.909 739.72 225.043 739.72C224.256 739.72 223.583 739.973 223.023 740.48C222.463 740.973 222.129 741.647 222.023 742.5H228.123Z" fill="#101010"/>
<path d="M249.72 738.53C249.647 738.461 249.588 738.379 249.547 738.287C249.506 738.195 249.484 738.095 249.482 737.995C249.48 737.894 249.498 737.794 249.536 737.7C249.574 737.607 249.63 737.522 249.701 737.451C249.773 737.38 249.857 737.324 249.951 737.286C250.044 737.248 250.144 737.23 250.245 737.231C250.346 737.233 250.445 737.255 250.537 737.296C250.629 737.337 250.712 737.396 250.78 737.47L254.78 741.47C254.921 741.611 255 741.801 255 742C255 742.199 254.921 742.389 254.78 742.53L250.78 746.53C250.712 746.604 250.629 746.663 250.537 746.704C250.445 746.745 250.346 746.767 250.245 746.769C250.144 746.77 250.044 746.752 249.951 746.714C249.857 746.676 249.773 746.62 249.701 746.549C249.63 746.478 249.574 746.393 249.536 746.3C249.498 746.206 249.48 746.106 249.482 746.006C249.484 745.905 249.506 745.805 249.547 745.713C249.588 745.621 249.647 745.539 249.72 745.47L252.44 742.75L242.75 742.75C242.551 742.75 242.361 742.671 242.22 742.53C242.079 742.39 242 742.199 242 742C242 741.801 242.079 741.61 242.22 741.47C242.361 741.329 242.551 741.25 242.75 741.25L252.44 741.25L249.72 738.53Z" fill="#101010"/>
<g clip-path="url(#clip0_381_488)">
<path d="M34 151C34 146.582 37.5817 143 42 143H357C361.418 143 365 146.582 365 151V205H34V151Z" fill="#F1F1F1"/>
<path d="M53.36 168.54V173.2H58.44V174.7H53.36V179.5H59.04V181H51.54V167.04H59.04V168.54H53.36ZM67.1339 169.84C68.4672 169.84 69.5472 170.247 70.3739 171.06C71.2006 171.86 71.6139 173.02 71.6139 174.54V181H69.8139V174.8C69.8139 173.707 69.5406 172.873 68.9939 172.3C68.4472 171.713 67.7006 171.42 66.7539 171.42C65.7939 171.42 65.0272 171.72 64.4539 172.32C63.8939 172.92 63.6139 173.793 63.6139 174.94V181H61.7939V170.04H63.6139V171.6C63.9739 171.04 64.4606 170.607 65.0739 170.3C65.7006 169.993 66.3872 169.84 67.1339 169.84ZM79.1069 169.86C80.0535 169.86 80.8802 170.067 81.5869 170.48C82.3069 170.893 82.8402 171.413 83.1869 172.04V170.04H85.0269V181.24C85.0269 182.24 84.8135 183.127 84.3869 183.9C83.9602 184.687 83.3469 185.3 82.5469 185.74C81.7602 186.18 80.8402 186.4 79.7869 186.4C78.3469 186.4 77.1469 186.06 76.1869 185.38C75.2269 184.7 74.6602 183.773 74.4869 182.6H76.2869C76.4869 183.267 76.9002 183.8 77.5269 184.2C78.1535 184.613 78.9069 184.82 79.7869 184.82C80.7869 184.82 81.6002 184.507 82.2269 183.88C82.8669 183.253 83.1869 182.373 83.1869 181.24V178.94C82.8269 179.58 82.2935 180.113 81.5869 180.54C80.8802 180.967 80.0535 181.18 79.1069 181.18C78.1335 181.18 77.2469 180.94 76.4469 180.46C75.6602 179.98 75.0402 179.307 74.5869 178.44C74.1335 177.573 73.9069 176.587 73.9069 175.48C73.9069 174.36 74.1335 173.38 74.5869 172.54C75.0402 171.687 75.6602 171.027 76.4469 170.56C77.2469 170.093 78.1335 169.86 79.1069 169.86ZM83.1869 175.5C83.1869 174.673 83.0202 173.953 82.6869 173.34C82.3535 172.727 81.9002 172.26 81.3269 171.94C80.7669 171.607 80.1469 171.44 79.4669 171.44C78.7869 171.44 78.1669 171.6 77.6069 171.92C77.0469 172.24 76.6002 172.707 76.2669 173.32C75.9335 173.933 75.7669 174.653 75.7669 175.48C75.7669 176.32 75.9335 177.053 76.2669 177.68C76.6002 178.293 77.0469 178.767 77.6069 179.1C78.1669 179.42 78.7869 179.58 79.4669 179.58C80.1469 179.58 80.7669 179.42 81.3269 179.1C81.9002 178.767 82.3535 178.293 82.6869 177.68C83.0202 177.053 83.1869 176.327 83.1869 175.5ZM89.9225 166.2V181H88.1025V166.2H89.9225ZM93.9644 168.26C93.6177 168.26 93.3244 168.14 93.0844 167.9C92.8444 167.66 92.7244 167.367 92.7244 167.02C92.7244 166.673 92.8444 166.38 93.0844 166.14C93.3244 165.9 93.6177 165.78 93.9644 165.78C94.2977 165.78 94.5777 165.9 94.8044 166.14C95.0444 166.38 95.1644 166.673 95.1644 167.02C95.1644 167.367 95.0444 167.66 94.8044 167.9C94.5777 168.14 94.2977 168.26 93.9644 168.26ZM94.8444 170.04V181H93.0244V170.04H94.8444ZM101.826 181.18C100.986 181.18 100.233 181.04 99.5663 180.76C98.8996 180.467 98.3729 180.067 97.9863 179.56C97.5996 179.04 97.3863 178.447 97.3463 177.78H99.2263C99.2796 178.327 99.5329 178.773 99.9863 179.12C100.453 179.467 101.06 179.64 101.806 179.64C102.5 179.64 103.046 179.487 103.446 179.18C103.846 178.873 104.046 178.487 104.046 178.02C104.046 177.54 103.833 177.187 103.406 176.96C102.98 176.72 102.32 176.487 101.426 176.26C100.613 176.047 99.9463 175.833 99.4263 175.62C98.9196 175.393 98.4796 175.067 98.1063 174.64C97.7463 174.2 97.5663 173.627 97.5663 172.92C97.5663 172.36 97.7329 171.847 98.0663 171.38C98.3996 170.913 98.8729 170.547 99.4863 170.28C100.1 170 100.8 169.86 101.586 169.86C102.8 169.86 103.78 170.167 104.526 170.78C105.273 171.393 105.673 172.233 105.726 173.3H103.906C103.866 172.727 103.633 172.267 103.206 171.92C102.793 171.573 102.233 171.4 101.526 171.4C100.873 171.4 100.353 171.54 99.9663 171.82C99.5796 172.1 99.3863 172.467 99.3863 172.92C99.3863 173.28 99.4996 173.58 99.7263 173.82C99.9663 174.047 100.26 174.233 100.606 174.38C100.966 174.513 101.46 174.667 102.086 174.84C102.873 175.053 103.513 175.267 104.006 175.48C104.5 175.68 104.92 175.987 105.266 176.4C105.626 176.813 105.813 177.353 105.826 178.02C105.826 178.62 105.66 179.16 105.326 179.64C104.993 180.12 104.52 180.5 103.906 180.78C103.306 181.047 102.613 181.18 101.826 181.18ZM113.835 169.84C114.662 169.84 115.409 170.02 116.075 170.38C116.742 170.727 117.262 171.253 117.635 171.96C118.022 172.667 118.215 173.527 118.215 174.54V181H116.415V174.8C116.415 173.707 116.142 172.873 115.595 172.3C115.049 171.713 114.302 171.42 113.355 171.42C112.395 171.42 111.629 171.72 111.055 172.32C110.495 172.92 110.215 173.793 110.215 174.94V181H108.395V166.2H110.215V171.6C110.575 171.04 111.069 170.607 111.695 170.3C112.335 169.993 113.049 169.84 113.835 169.84Z" fill="black"/>
<rect width="331" height="62" transform="translate(34 205)" fill="#F1F1F1"/>
<path d="M59.42 229.06V230.54H53.36V235.24H58.28V236.72H53.36V243H51.54V229.06H59.42ZM63.4381 233.82C63.7581 233.193 64.2115 232.707 64.7981 232.36C65.3981 232.013 66.1248 231.84 66.9781 231.84V233.72H66.4981C64.4581 233.72 63.4381 234.827 63.4381 237.04V243H61.6181V232.04H63.4381V233.82ZM79.0791 237.1C79.0791 237.447 79.0591 237.813 79.0191 238.2H70.2591C70.3257 239.28 70.6924 240.127 71.3591 240.74C72.0391 241.34 72.8591 241.64 73.8191 241.64C74.6057 241.64 75.2591 241.46 75.7791 241.1C76.3124 240.727 76.6857 240.233 76.8991 239.62H78.8591C78.5657 240.673 77.9791 241.533 77.0991 242.2C76.2191 242.853 75.1257 243.18 73.8191 243.18C72.7791 243.18 71.8457 242.947 71.0191 242.48C70.2057 242.013 69.5657 241.353 69.0991 240.5C68.6324 239.633 68.3991 238.633 68.3991 237.5C68.3991 236.367 68.6257 235.373 69.0791 234.52C69.5324 233.667 70.1657 233.013 70.9791 232.56C71.8057 232.093 72.7524 231.86 73.8191 231.86C74.8591 231.86 75.7791 232.087 76.5791 232.54C77.3791 232.993 77.9924 233.62 78.4191 234.42C78.8591 235.207 79.0791 236.1 79.0791 237.1ZM77.1991 236.72C77.1991 236.027 77.0457 235.433 76.7391 234.94C76.4324 234.433 76.0124 234.053 75.4791 233.8C74.9591 233.533 74.3791 233.4 73.7391 233.4C72.8191 233.4 72.0324 233.693 71.3791 234.28C70.7391 234.867 70.3724 235.68 70.2791 236.72H77.1991ZM86.8214 231.84C88.1547 231.84 89.2347 232.247 90.0614 233.06C90.8881 233.86 91.3014 235.02 91.3014 236.54V243H89.5014V236.8C89.5014 235.707 89.2281 234.873 88.6814 234.3C88.1347 233.713 87.3881 233.42 86.4414 233.42C85.4814 233.42 84.7147 233.72 84.1414 234.32C83.5814 234.92 83.3014 235.793 83.3014 236.94V243H81.4814V232.04H83.3014V233.6C83.6614 233.04 84.1481 232.607 84.7614 232.3C85.3881 231.993 86.0747 231.84 86.8214 231.84ZM93.5944 237.5C93.5944 236.367 93.821 235.38 94.2744 234.54C94.7277 233.687 95.3544 233.027 96.1544 232.56C96.9677 232.093 97.8944 231.86 98.9344 231.86C100.281 231.86 101.388 232.187 102.254 232.84C103.134 233.493 103.714 234.4 103.994 235.56H102.034C101.848 234.893 101.481 234.367 100.934 233.98C100.401 233.593 99.7344 233.4 98.9344 233.4C97.8944 233.4 97.0544 233.76 96.4144 234.48C95.7744 235.187 95.4544 236.193 95.4544 237.5C95.4544 238.82 95.7744 239.84 96.4144 240.56C97.0544 241.28 97.8944 241.64 98.9344 241.64C99.7344 241.64 100.401 241.453 100.934 241.08C101.468 240.707 101.834 240.173 102.034 239.48H103.994C103.701 240.6 103.114 241.5 102.234 242.18C101.354 242.847 100.254 243.18 98.9344 243.18C97.8944 243.18 96.9677 242.947 96.1544 242.48C95.3544 242.013 94.7277 241.353 94.2744 240.5C93.821 239.647 93.5944 238.647 93.5944 237.5ZM111.863 231.84C112.689 231.84 113.436 232.02 114.103 232.38C114.769 232.727 115.289 233.253 115.663 233.96C116.049 234.667 116.243 235.527 116.243 236.54V243H114.443V236.8C114.443 235.707 114.169 234.873 113.623 234.3C113.076 233.713 112.329 233.42 111.383 233.42C110.423 233.42 109.656 233.72 109.083 234.32C108.523 234.92 108.243 235.793 108.243 236.94V243H106.423V228.2H108.243V233.6C108.603 233.04 109.096 232.607 109.723 232.3C110.363 231.993 111.076 231.84 111.863 231.84Z" fill="black"/>
<rect width="331" height="62" transform="translate(34 267)" fill="#F1F1F1"/>
<path d="M50.86 298.02C50.86 296.66 51.1667 295.44 51.78 294.36C52.3933 293.267 53.2267 292.413 54.28 291.8C55.3467 291.187 56.5267 290.88 57.82 290.88C59.34 290.88 60.6667 291.247 61.8 291.98C62.9333 292.713 63.76 293.753 64.28 295.1H62.1C61.7133 294.26 61.1533 293.613 60.42 293.16C59.7 292.707 58.8333 292.48 57.82 292.48C56.8467 292.48 55.9733 292.707 55.2 293.16C54.4267 293.613 53.82 294.26 53.38 295.1C52.94 295.927 52.72 296.9 52.72 298.02C52.72 299.127 52.94 300.1 53.38 300.94C53.82 301.767 54.4267 302.407 55.2 302.86C55.9733 303.313 56.8467 303.54 57.82 303.54C58.8333 303.54 59.7 303.32 60.42 302.88C61.1533 302.427 61.7133 301.78 62.1 300.94H64.28C63.76 302.273 62.9333 303.307 61.8 304.04C60.6667 304.76 59.34 305.12 57.82 305.12C56.5267 305.12 55.3467 304.82 54.28 304.22C53.2267 303.607 52.3933 302.76 51.78 301.68C51.1667 300.6 50.86 299.38 50.86 298.02ZM72.4292 293.84C73.2559 293.84 74.0026 294.02 74.6692 294.38C75.3359 294.727 75.8559 295.253 76.2292 295.96C76.6159 296.667 76.8092 297.527 76.8092 298.54V305H75.0092V298.8C75.0092 297.707 74.7359 296.873 74.1892 296.3C73.6426 295.713 72.8959 295.42 71.9492 295.42C70.9892 295.42 70.2226 295.72 69.6492 296.32C69.0892 296.92 68.8092 297.793 68.8092 298.94V305H66.9892V290.2H68.8092V295.6C69.1692 295.04 69.6626 294.607 70.2892 294.3C70.9292 293.993 71.6426 293.84 72.4292 293.84ZM80.7222 292.26C80.3755 292.26 80.0822 292.14 79.8422 291.9C79.6022 291.66 79.4822 291.367 79.4822 291.02C79.4822 290.673 79.6022 290.38 79.8422 290.14C80.0822 289.9 80.3755 289.78 80.7222 289.78C81.0555 289.78 81.3355 289.9 81.5622 290.14C81.8022 290.38 81.9222 290.673 81.9222 291.02C81.9222 291.367 81.8022 291.66 81.5622 291.9C81.3355 292.14 81.0555 292.26 80.7222 292.26ZM81.6022 294.04V305H79.7822V294.04H81.6022ZM90.0441 293.84C91.3774 293.84 92.4574 294.247 93.2841 295.06C94.1107 295.86 94.5241 297.02 94.5241 298.54V305H92.7241V298.8C92.7241 297.707 92.4507 296.873 91.9041 296.3C91.3574 295.713 90.6107 295.42 89.6641 295.42C88.7041 295.42 87.9374 295.72 87.3641 296.32C86.8041 296.92 86.5241 297.793 86.5241 298.94V305H84.7041V294.04H86.5241V295.6C86.8841 295.04 87.3707 294.607 87.9841 294.3C88.6107 293.993 89.2974 293.84 90.0441 293.84ZM107.497 299.1C107.497 299.447 107.477 299.813 107.437 300.2H98.677C98.7437 301.28 99.1104 302.127 99.777 302.74C100.457 303.34 101.277 303.64 102.237 303.64C103.024 303.64 103.677 303.46 104.197 303.1C104.73 302.727 105.104 302.233 105.317 301.62H107.277C106.984 302.673 106.397 303.533 105.517 304.2C104.637 304.853 103.544 305.18 102.237 305.18C101.197 305.18 100.264 304.947 99.437 304.48C98.6237 304.013 97.9837 303.353 97.517 302.5C97.0504 301.633 96.817 300.633 96.817 299.5C96.817 298.367 97.0437 297.373 97.497 296.52C97.9504 295.667 98.5837 295.013 99.397 294.56C100.224 294.093 101.17 293.86 102.237 293.86C103.277 293.86 104.197 294.087 104.997 294.54C105.797 294.993 106.41 295.62 106.837 296.42C107.277 297.207 107.497 298.1 107.497 299.1ZM105.617 298.72C105.617 298.027 105.464 297.433 105.157 296.94C104.85 296.433 104.43 296.053 103.897 295.8C103.377 295.533 102.797 295.4 102.157 295.4C101.237 295.4 100.45 295.693 99.797 296.28C99.157 296.867 98.7904 297.68 98.697 298.72H105.617ZM113.779 305.18C112.939 305.18 112.186 305.04 111.519 304.76C110.853 304.467 110.326 304.067 109.939 303.56C109.553 303.04 109.339 302.447 109.299 301.78H111.179C111.233 302.327 111.486 302.773 111.939 303.12C112.406 303.467 113.013 303.64 113.759 303.64C114.453 303.64 114.999 303.487 115.399 303.18C115.799 302.873 115.999 302.487 115.999 302.02C115.999 301.54 115.786 301.187 115.359 300.96C114.933 300.72 114.273 300.487 113.379 300.26C112.566 300.047 111.899 299.833 111.379 299.62C110.873 299.393 110.433 299.067 110.059 298.64C109.699 298.2 109.519 297.627 109.519 296.92C109.519 296.36 109.686 295.847 110.019 295.38C110.353 294.913 110.826 294.547 111.439 294.28C112.053 294 112.753 293.86 113.539 293.86C114.753 293.86 115.733 294.167 116.479 294.78C117.226 295.393 117.626 296.233 117.679 297.3H115.859C115.819 296.727 115.586 296.267 115.159 295.92C114.746 295.573 114.186 295.4 113.479 295.4C112.826 295.4 112.306 295.54 111.919 295.82C111.533 296.1 111.339 296.467 111.339 296.92C111.339 297.28 111.453 297.58 111.679 297.82C111.919 298.047 112.213 298.233 112.559 298.38C112.919 298.513 113.413 298.667 114.039 298.84C114.826 299.053 115.466 299.267 115.959 299.48C116.453 299.68 116.873 299.987 117.219 300.4C117.579 300.813 117.766 301.353 117.779 302.02C117.779 302.62 117.613 303.16 117.279 303.64C116.946 304.12 116.473 304.5 115.859 304.78C115.259 305.047 114.566 305.18 113.779 305.18ZM130.349 299.1C130.349 299.447 130.329 299.813 130.289 300.2H121.529C121.595 301.28 121.962 302.127 122.629 302.74C123.309 303.34 124.129 303.64 125.089 303.64C125.875 303.64 126.529 303.46 127.049 303.1C127.582 302.727 127.955 302.233 128.169 301.62H130.129C129.835 302.673 129.249 303.533 128.369 304.2C127.489 304.853 126.395 305.18 125.089 305.18C124.049 305.18 123.115 304.947 122.289 304.48C121.475 304.013 120.835 303.353 120.369 302.5C119.902 301.633 119.669 300.633 119.669 299.5C119.669 298.367 119.895 297.373 120.349 296.52C120.802 295.667 121.435 295.013 122.249 294.56C123.075 294.093 124.022 293.86 125.089 293.86C126.129 293.86 127.049 294.087 127.849 294.54C128.649 294.993 129.262 295.62 129.689 296.42C130.129 297.207 130.349 298.1 130.349 299.1ZM128.469 298.72C128.469 298.027 128.315 297.433 128.009 296.94C127.702 296.433 127.282 296.053 126.749 295.8C126.229 295.533 125.649 295.4 125.009 295.4C124.089 295.4 123.302 295.693 122.649 296.28C122.009 296.867 121.642 297.68 121.549 298.72H128.469Z" fill="black"/>
<rect width="331" height="62" transform="translate(34 329)" fill="#F1F1F1"/>
<path d="M65.68 353.16V367H63.86V356.68L59.26 367H57.98L53.36 356.66V367H51.54V353.16H53.5L58.62 364.6L63.74 353.16H65.68ZM68.0866 361.48C68.0866 360.36 68.3132 359.38 68.7666 358.54C69.2199 357.687 69.8399 357.027 70.6266 356.56C71.4266 356.093 72.3132 355.86 73.2866 355.86C74.2466 355.86 75.0799 356.067 75.7866 356.48C76.4932 356.893 77.0199 357.413 77.3666 358.04V356.04H79.2066V367H77.3666V364.96C77.0066 365.6 76.4666 366.133 75.7466 366.56C75.0399 366.973 74.2132 367.18 73.2666 367.18C72.2932 367.18 71.4132 366.94 70.6266 366.46C69.8399 365.98 69.2199 365.307 68.7666 364.44C68.3132 363.573 68.0866 362.587 68.0866 361.48ZM77.3666 361.5C77.3666 360.673 77.1999 359.953 76.8666 359.34C76.5332 358.727 76.0799 358.26 75.5066 357.94C74.9466 357.607 74.3266 357.44 73.6466 357.44C72.9666 357.44 72.3466 357.6 71.7866 357.92C71.2266 358.24 70.7799 358.707 70.4466 359.32C70.1132 359.933 69.9466 360.653 69.9466 361.48C69.9466 362.32 70.1132 363.053 70.4466 363.68C70.7799 364.293 71.2266 364.767 71.7866 365.1C72.3466 365.42 72.9666 365.58 73.6466 365.58C74.3266 365.58 74.9466 365.42 75.5066 365.1C76.0799 364.767 76.5332 364.293 76.8666 363.68C77.1999 363.053 77.3666 362.327 77.3666 361.5ZM87.6222 355.84C88.9555 355.84 90.0355 356.247 90.8622 357.06C91.6889 357.86 92.1022 359.02 92.1022 360.54V367H90.3022V360.8C90.3022 359.707 90.0289 358.873 89.4822 358.3C88.9355 357.713 88.1889 357.42 87.2422 357.42C86.2822 357.42 85.5155 357.72 84.9422 358.32C84.3822 358.92 84.1022 359.793 84.1022 360.94V367H82.2822V356.04H84.1022V357.6C84.4622 357.04 84.9489 356.607 85.5622 356.3C86.1889 355.993 86.8755 355.84 87.6222 355.84ZM94.3952 361.48C94.3952 360.36 94.6218 359.38 95.0752 358.54C95.5285 357.687 96.1485 357.027 96.9352 356.56C97.7352 356.093 98.6285 355.86 99.6152 355.86C100.468 355.86 101.262 356.06 101.995 356.46C102.728 356.847 103.288 357.36 103.675 358V352.2H105.515V367H103.675V364.94C103.315 365.593 102.782 366.133 102.075 366.56C101.368 366.973 100.542 367.18 99.5952 367.18C98.6218 367.18 97.7352 366.94 96.9352 366.46C96.1485 365.98 95.5285 365.307 95.0752 364.44C94.6218 363.573 94.3952 362.587 94.3952 361.48ZM103.675 361.5C103.675 360.673 103.508 359.953 103.175 359.34C102.842 358.727 102.388 358.26 101.815 357.94C101.255 357.607 100.635 357.44 99.9552 357.44C99.2752 357.44 98.6552 357.6 98.0952 357.92C97.5352 358.24 97.0885 358.707 96.7552 359.32C96.4218 359.933 96.2552 360.653 96.2552 361.48C96.2552 362.32 96.4218 363.053 96.7552 363.68C97.0885 364.293 97.5352 364.767 98.0952 365.1C98.6552 365.42 99.2752 365.58 99.9552 365.58C100.635 365.58 101.255 365.42 101.815 365.1C102.388 364.767 102.842 364.293 103.175 363.68C103.508 363.053 103.675 362.327 103.675 361.5ZM107.911 361.48C107.911 360.36 108.137 359.38 108.591 358.54C109.044 357.687 109.664 357.027 110.451 356.56C111.251 356.093 112.137 355.86 113.111 355.86C114.071 355.86 114.904 356.067 115.611 356.48C116.317 356.893 116.844 357.413 117.191 358.04V356.04H119.031V367H117.191V364.96C116.831 365.6 116.291 366.133 115.571 366.56C114.864 366.973 114.037 367.18 113.091 367.18C112.117 367.18 111.237 366.94 110.451 366.46C109.664 365.98 109.044 365.307 108.591 364.44C108.137 363.573 107.911 362.587 107.911 361.48ZM117.191 361.5C117.191 360.673 117.024 359.953 116.691 359.34C116.357 358.727 115.904 358.26 115.331 357.94C114.771 357.607 114.151 357.44 113.471 357.44C112.791 357.44 112.171 357.6 111.611 357.92C111.051 358.24 110.604 358.707 110.271 359.32C109.937 359.933 109.771 360.653 109.771 361.48C109.771 362.32 109.937 363.053 110.271 363.68C110.604 364.293 111.051 364.767 111.611 365.1C112.171 365.42 112.791 365.58 113.471 365.58C114.151 365.58 114.771 365.42 115.331 365.1C115.904 364.767 116.357 364.293 116.691 363.68C117.024 363.053 117.191 362.327 117.191 361.5ZM123.926 357.82C124.246 357.193 124.7 356.707 125.286 356.36C125.886 356.013 126.613 355.84 127.466 355.84V357.72H126.986C124.946 357.72 123.926 358.827 123.926 361.04V367H122.106V356.04H123.926V357.82ZM130.507 354.26C130.161 354.26 129.867 354.14 129.627 353.9C129.387 353.66 129.267 353.367 129.267 353.02C129.267 352.673 129.387 352.38 129.627 352.14C129.867 351.9 130.161 351.78 130.507 351.78C130.841 351.78 131.121 351.9 131.347 352.14C131.587 352.38 131.707 352.673 131.707 353.02C131.707 353.367 131.587 353.66 131.347 353.9C131.121 354.14 130.841 354.26 130.507 354.26ZM131.387 356.04V367H129.567V356.04H131.387ZM139.829 355.84C141.163 355.84 142.243 356.247 143.069 357.06C143.896 357.86 144.309 359.02 144.309 360.54V367H142.509V360.8C142.509 359.707 142.236 358.873 141.689 358.3C141.143 357.713 140.396 357.42 139.449 357.42C138.489 357.42 137.723 357.72 137.149 358.32C136.589 358.92 136.309 359.793 136.309 360.94V367H134.489V356.04H136.309V357.6C136.669 357.04 137.156 356.607 137.769 356.3C138.396 355.993 139.083 355.84 139.829 355.84Z" fill="black"/>
<rect width="331" height="62" transform="translate(34 391)" fill="#F1F1F1"/>
<path d="M55.96 429.14C55.04 429.14 54.2133 428.98 53.48 428.66C52.76 428.327 52.1933 427.873 51.78 427.3C51.3667 426.713 51.1533 426.04 51.14 425.28H53.08C53.1467 425.933 53.4133 426.487 53.88 426.94C54.36 427.38 55.0533 427.6 55.96 427.6C56.8267 427.6 57.5067 427.387 58 426.96C58.5067 426.52 58.76 425.96 58.76 425.28C58.76 424.747 58.6133 424.313 58.32 423.98C58.0267 423.647 57.66 423.393 57.22 423.22C56.78 423.047 56.1867 422.86 55.44 422.66C54.52 422.42 53.78 422.18 53.22 421.94C52.6733 421.7 52.2 421.327 51.8 420.82C51.4133 420.3 51.22 419.607 51.22 418.74C51.22 417.98 51.4133 417.307 51.8 416.72C52.1867 416.133 52.7267 415.68 53.42 415.36C54.1267 415.04 54.9333 414.88 55.84 414.88C57.1467 414.88 58.2133 415.207 59.04 415.86C59.88 416.513 60.3533 417.38 60.46 418.46H58.46C58.3933 417.927 58.1133 417.46 57.62 417.06C57.1267 416.647 56.4733 416.44 55.66 416.44C54.9 416.44 54.28 416.64 53.8 417.04C53.32 417.427 53.08 417.973 53.08 418.68C53.08 419.187 53.22 419.6 53.5 419.92C53.7933 420.24 54.1467 420.487 54.56 420.66C54.9867 420.82 55.58 421.007 56.34 421.22C57.26 421.473 58 421.727 58.56 421.98C59.12 422.22 59.6 422.6 60 423.12C60.4 423.627 60.6 424.32 60.6 425.2C60.6 425.88 60.42 426.52 60.06 427.12C59.7 427.72 59.1667 428.207 58.46 428.58C57.7533 428.953 56.92 429.14 55.96 429.14ZM65.0983 420.06C65.4583 419.433 65.9916 418.913 66.6983 418.5C67.4183 418.073 68.2516 417.86 69.1983 417.86C70.1716 417.86 71.0516 418.093 71.8383 418.56C72.6383 419.027 73.2649 419.687 73.7183 420.54C74.1716 421.38 74.3983 422.36 74.3983 423.48C74.3983 424.587 74.1716 425.573 73.7183 426.44C73.2649 427.307 72.6383 427.98 71.8383 428.46C71.0516 428.94 70.1716 429.18 69.1983 429.18C68.2649 429.18 67.4383 428.973 66.7183 428.56C66.0116 428.133 65.4716 427.607 65.0983 426.98V434.2H63.2783V418.04H65.0983V420.06ZM72.5383 423.48C72.5383 422.653 72.3716 421.933 72.0383 421.32C71.7049 420.707 71.2516 420.24 70.6783 419.92C70.1183 419.6 69.4983 419.44 68.8183 419.44C68.1516 419.44 67.5316 419.607 66.9583 419.94C66.3983 420.26 65.9449 420.733 65.5983 421.36C65.2649 421.973 65.0983 422.687 65.0983 423.5C65.0983 424.327 65.2649 425.053 65.5983 425.68C65.9449 426.293 66.3983 426.767 66.9583 427.1C67.5316 427.42 68.1516 427.58 68.8183 427.58C69.4983 427.58 70.1183 427.42 70.6783 427.1C71.2516 426.767 71.7049 426.293 72.0383 425.68C72.3716 425.053 72.5383 424.32 72.5383 423.48ZM76.1139 423.48C76.1139 422.36 76.3406 421.38 76.7939 420.54C77.2472 419.687 77.8672 419.027 78.6539 418.56C79.4539 418.093 80.3406 417.86 81.3139 417.86C82.2739 417.86 83.1072 418.067 83.8139 418.48C84.5206 418.893 85.0472 419.413 85.3939 420.04V418.04H87.2339V429H85.3939V426.96C85.0339 427.6 84.4939 428.133 83.7739 428.56C83.0672 428.973 82.2406 429.18 81.2939 429.18C80.3206 429.18 79.4406 428.94 78.6539 428.46C77.8672 427.98 77.2472 427.307 76.7939 426.44C76.3406 425.573 76.1139 424.587 76.1139 423.48ZM85.3939 423.5C85.3939 422.673 85.2272 421.953 84.8939 421.34C84.5606 420.727 84.1072 420.26 83.5339 419.94C82.9739 419.607 82.3539 419.44 81.6739 419.44C80.9939 419.44 80.3739 419.6 79.8139 419.92C79.2539 420.24 78.8072 420.707 78.4739 421.32C78.1406 421.933 77.9739 422.653 77.9739 423.48C77.9739 424.32 78.1406 425.053 78.4739 425.68C78.8072 426.293 79.2539 426.767 79.8139 427.1C80.3739 427.42 80.9939 427.58 81.6739 427.58C82.3539 427.58 82.9739 427.42 83.5339 427.1C84.1072 426.767 84.5606 426.293 84.8939 425.68C85.2272 425.053 85.3939 424.327 85.3939 423.5ZM95.6495 417.84C96.9829 417.84 98.0629 418.247 98.8895 419.06C99.7162 419.86 100.13 421.02 100.13 422.54V429H98.3295V422.8C98.3295 421.707 98.0562 420.873 97.5095 420.3C96.9629 419.713 96.2162 419.42 95.2695 419.42C94.3095 419.42 93.5429 419.72 92.9695 420.32C92.4095 420.92 92.1295 421.793 92.1295 422.94V429H90.3095V418.04H92.1295V419.6C92.4895 419.04 92.9762 418.607 93.5895 418.3C94.2162 417.993 94.9029 417.84 95.6495 417.84ZM104.043 416.26C103.696 416.26 103.403 416.14 103.163 415.9C102.923 415.66 102.803 415.367 102.803 415.02C102.803 414.673 102.923 414.38 103.163 414.14C103.403 413.9 103.696 413.78 104.043 413.78C104.376 413.78 104.656 413.9 104.883 414.14C105.123 414.38 105.243 414.673 105.243 415.02C105.243 415.367 105.123 415.66 104.883 415.9C104.656 416.14 104.376 416.26 104.043 416.26ZM104.923 418.04V429H103.103V418.04H104.923ZM111.904 429.18C111.064 429.18 110.311 429.04 109.644 428.76C108.978 428.467 108.451 428.067 108.064 427.56C107.678 427.04 107.464 426.447 107.424 425.78H109.304C109.358 426.327 109.611 426.773 110.064 427.12C110.531 427.467 111.138 427.64 111.884 427.64C112.578 427.64 113.124 427.487 113.524 427.18C113.924 426.873 114.124 426.487 114.124 426.02C114.124 425.54 113.911 425.187 113.484 424.96C113.058 424.72 112.398 424.487 111.504 424.26C110.691 424.047 110.024 423.833 109.504 423.62C108.998 423.393 108.558 423.067 108.184 422.64C107.824 422.2 107.644 421.627 107.644 420.92C107.644 420.36 107.811 419.847 108.144 419.38C108.478 418.913 108.951 418.547 109.564 418.28C110.178 418 110.878 417.86 111.664 417.86C112.878 417.86 113.858 418.167 114.604 418.78C115.351 419.393 115.751 420.233 115.804 421.3H113.984C113.944 420.727 113.711 420.267 113.284 419.92C112.871 419.573 112.311 419.4 111.604 419.4C110.951 419.4 110.431 419.54 110.044 419.82C109.658 420.1 109.464 420.467 109.464 420.92C109.464 421.28 109.578 421.58 109.804 421.82C110.044 422.047 110.338 422.233 110.684 422.38C111.044 422.513 111.538 422.667 112.164 422.84C112.951 423.053 113.591 423.267 114.084 423.48C114.578 423.68 114.998 423.987 115.344 424.4C115.704 424.813 115.891 425.353 115.904 426.02C115.904 426.62 115.738 427.16 115.404 427.64C115.071 428.12 114.598 428.5 113.984 428.78C113.384 429.047 112.691 429.18 111.904 429.18ZM123.914 417.84C124.74 417.84 125.487 418.02 126.154 418.38C126.82 418.727 127.34 419.253 127.714 419.96C128.1 420.667 128.294 421.527 128.294 422.54V429H126.494V422.8C126.494 421.707 126.22 420.873 125.674 420.3C125.127 419.713 124.38 419.42 123.434 419.42C122.474 419.42 121.707 419.72 121.134 420.32C120.574 420.92 120.294 421.793 120.294 422.94V429H118.474V414.2H120.294V419.6C120.654 419.04 121.147 418.607 121.774 418.3C122.414 417.993 123.127 417.84 123.914 417.84Z" fill="black"/>
<rect width="331" height="62" transform="translate(34 453)" fill="#F1F1F1"/>
<path d="M59.78 487.9H53.7L52.58 491H50.66L55.7 477.14H57.8L62.82 491H60.9L59.78 487.9ZM59.26 486.42L56.74 479.38L54.22 486.42H59.26ZM66.8366 481.82C67.1566 481.193 67.6099 480.707 68.1966 480.36C68.7966 480.013 69.5232 479.84 70.3766 479.84V481.72H69.8966C67.8566 481.72 66.8366 482.827 66.8366 485.04V491H65.0166V480.04H66.8366V481.82ZM71.7975 485.48C71.7975 484.36 72.0242 483.38 72.4775 482.54C72.9308 481.687 73.5508 481.027 74.3375 480.56C75.1375 480.093 76.0242 479.86 76.9975 479.86C77.9575 479.86 78.7908 480.067 79.4975 480.48C80.2042 480.893 80.7308 481.413 81.0775 482.04V480.04H82.9175V491H81.0775V488.96C80.7175 489.6 80.1775 490.133 79.4575 490.56C78.7508 490.973 77.9242 491.18 76.9775 491.18C76.0042 491.18 75.1242 490.94 74.3375 490.46C73.5508 489.98 72.9308 489.307 72.4775 488.44C72.0242 487.573 71.7975 486.587 71.7975 485.48ZM81.0775 485.5C81.0775 484.673 80.9108 483.953 80.5775 483.34C80.2442 482.727 79.7908 482.26 79.2175 481.94C78.6575 481.607 78.0375 481.44 77.3575 481.44C76.6775 481.44 76.0575 481.6 75.4975 481.92C74.9375 482.24 74.4908 482.707 74.1575 483.32C73.8242 483.933 73.6575 484.653 73.6575 485.48C73.6575 486.32 73.8242 487.053 74.1575 487.68C74.4908 488.293 74.9375 488.767 75.4975 489.1C76.0575 489.42 76.6775 489.58 77.3575 489.58C78.0375 489.58 78.6575 489.42 79.2175 489.1C79.7908 488.767 80.2442 488.293 80.5775 487.68C80.9108 487.053 81.0775 486.327 81.0775 485.5ZM87.8131 482.08C88.1865 481.427 88.7331 480.893 89.4531 480.48C90.1731 480.067 90.9931 479.86 91.9131 479.86C92.8998 479.86 93.7865 480.093 94.5731 480.56C95.3598 481.027 95.9798 481.687 96.4331 482.54C96.8865 483.38 97.1131 484.36 97.1131 485.48C97.1131 486.587 96.8865 487.573 96.4331 488.44C95.9798 489.307 95.3531 489.98 94.5531 490.46C93.7665 490.94 92.8865 491.18 91.9131 491.18C90.9665 491.18 90.1331 490.973 89.4131 490.56C88.7065 490.147 88.1731 489.62 87.8131 488.98V491H85.9931V476.2H87.8131V482.08ZM95.2531 485.48C95.2531 484.653 95.0865 483.933 94.7531 483.32C94.4198 482.707 93.9665 482.24 93.3931 481.92C92.8331 481.6 92.2131 481.44 91.5331 481.44C90.8665 481.44 90.2465 481.607 89.6731 481.94C89.1131 482.26 88.6598 482.733 88.3131 483.36C87.9798 483.973 87.8131 484.687 87.8131 485.5C87.8131 486.327 87.9798 487.053 88.3131 487.68C88.6598 488.293 89.1131 488.767 89.6731 489.1C90.2465 489.42 90.8665 489.58 91.5331 489.58C92.2131 489.58 92.8331 489.42 93.3931 489.1C93.9665 488.767 94.4198 488.293 94.7531 487.68C95.0865 487.053 95.2531 486.32 95.2531 485.48ZM100.449 478.26C100.102 478.26 99.8088 478.14 99.5688 477.9C99.3288 477.66 99.2088 477.367 99.2088 477.02C99.2088 476.673 99.3288 476.38 99.5688 476.14C99.8088 475.9 100.102 475.78 100.449 475.78C100.782 475.78 101.062 475.9 101.289 476.14C101.529 476.38 101.649 476.673 101.649 477.02C101.649 477.367 101.529 477.66 101.289 477.9C101.062 478.14 100.782 478.26 100.449 478.26ZM101.329 480.04V491H99.5088V480.04H101.329ZM103.751 485.5C103.751 484.367 103.977 483.38 104.431 482.54C104.884 481.687 105.511 481.027 106.311 480.56C107.124 480.093 108.051 479.86 109.091 479.86C110.437 479.86 111.544 480.187 112.411 480.84C113.291 481.493 113.871 482.4 114.151 483.56H112.191C112.004 482.893 111.637 482.367 111.091 481.98C110.557 481.593 109.891 481.4 109.091 481.4C108.051 481.4 107.211 481.76 106.571 482.48C105.931 483.187 105.611 484.193 105.611 485.5C105.611 486.82 105.931 487.84 106.571 488.56C107.211 489.28 108.051 489.64 109.091 489.64C109.891 489.64 110.557 489.453 111.091 489.08C111.624 488.707 111.991 488.173 112.191 487.48H114.151C113.857 488.6 113.271 489.5 112.391 490.18C111.511 490.847 110.411 491.18 109.091 491.18C108.051 491.18 107.124 490.947 106.311 490.48C105.511 490.013 104.884 489.353 104.431 488.5C103.977 487.647 103.751 486.647 103.751 485.5Z" fill="black"/>
<rect width="331" height="62" transform="translate(34 515)" fill="#F1F1F1"/>
<path d="M62.28 539.06V553H60.46V546.68H53.36V553H51.54V539.06H53.36V545.18H60.46V539.06H62.28ZM66.3277 540.26C65.981 540.26 65.6877 540.14 65.4477 539.9C65.2077 539.66 65.0877 539.367 65.0877 539.02C65.0877 538.673 65.2077 538.38 65.4477 538.14C65.6877 537.9 65.981 537.78 66.3277 537.78C66.661 537.78 66.941 537.9 67.1677 538.14C67.4077 538.38 67.5277 538.673 67.5277 539.02C67.5277 539.367 67.4077 539.66 67.1677 539.9C66.941 540.14 66.661 540.26 66.3277 540.26ZM67.2077 542.04V553H65.3877V542.04H67.2077ZM75.6495 541.84C76.9829 541.84 78.0629 542.247 78.8895 543.06C79.7162 543.86 80.1295 545.02 80.1295 546.54V553H78.3295V546.8C78.3295 545.707 78.0562 544.873 77.5095 544.3C76.9629 543.713 76.2162 543.42 75.2695 543.42C74.3095 543.42 73.5429 543.72 72.9695 544.32C72.4095 544.92 72.1295 545.793 72.1295 546.94V553H70.3095V542.04H72.1295V543.6C72.4895 543.04 72.9762 542.607 73.5895 542.3C74.2162 541.993 74.9029 541.84 75.6495 541.84ZM82.4225 547.48C82.4225 546.36 82.6492 545.38 83.1025 544.54C83.5558 543.687 84.1758 543.027 84.9625 542.56C85.7625 542.093 86.6558 541.86 87.6425 541.86C88.4958 541.86 89.2892 542.06 90.0225 542.46C90.7558 542.847 91.3158 543.36 91.7025 544V538.2H93.5425V553H91.7025V550.94C91.3425 551.593 90.8092 552.133 90.1025 552.56C89.3958 552.973 88.5692 553.18 87.6225 553.18C86.6492 553.18 85.7625 552.94 84.9625 552.46C84.1758 551.98 83.5558 551.307 83.1025 550.44C82.6492 549.573 82.4225 548.587 82.4225 547.48ZM91.7025 547.5C91.7025 546.673 91.5358 545.953 91.2025 545.34C90.8692 544.727 90.4158 544.26 89.8425 543.94C89.2825 543.607 88.6625 543.44 87.9825 543.44C87.3025 543.44 86.6825 543.6 86.1225 543.92C85.5625 544.24 85.1158 544.707 84.7825 545.32C84.4492 545.933 84.2825 546.653 84.2825 547.48C84.2825 548.32 84.4492 549.053 84.7825 549.68C85.1158 550.293 85.5625 550.767 86.1225 551.1C86.6825 551.42 87.3025 551.58 87.9825 551.58C88.6625 551.58 89.2825 551.42 89.8425 551.1C90.4158 550.767 90.8692 550.293 91.2025 549.68C91.5358 549.053 91.7025 548.327 91.7025 547.5ZM97.5581 540.26C97.2115 540.26 96.9181 540.14 96.6781 539.9C96.4381 539.66 96.3181 539.367 96.3181 539.02C96.3181 538.673 96.4381 538.38 96.6781 538.14C96.9181 537.9 97.2115 537.78 97.5581 537.78C97.8915 537.78 98.1715 537.9 98.3981 538.14C98.6381 538.38 98.7581 538.673 98.7581 539.02C98.7581 539.367 98.6381 539.66 98.3981 539.9C98.1715 540.14 97.8915 540.26 97.5581 540.26ZM98.4381 542.04V553H96.6181V542.04H98.4381Z" fill="black"/>
<rect width="331" height="62" transform="translate(34 577)" fill="#F1F1F1"/>
<path d="M60.86 605.14C60.86 606.3 60.46 607.267 59.66 608.04C58.8733 608.8 57.6667 609.18 56.04 609.18H53.36V615H51.54V601.06H56.04C57.6133 601.06 58.8067 601.44 59.62 602.2C60.4467 602.96 60.86 603.94 60.86 605.14ZM56.04 607.68C57.0533 607.68 57.8 607.46 58.28 607.02C58.76 606.58 59 605.953 59 605.14C59 603.42 58.0133 602.56 56.04 602.56H53.36V607.68H56.04ZM67.902 615.18C66.8754 615.18 65.942 614.947 65.102 614.48C64.2754 614.013 63.622 613.353 63.142 612.5C62.6754 611.633 62.442 610.633 62.442 609.5C62.442 608.38 62.682 607.393 63.162 606.54C63.6554 605.673 64.322 605.013 65.162 604.56C66.002 604.093 66.942 603.86 67.982 603.86C69.022 603.86 69.962 604.093 70.802 604.56C71.642 605.013 72.302 605.667 72.782 606.52C73.2754 607.373 73.522 608.367 73.522 609.5C73.522 610.633 73.2687 611.633 72.762 612.5C72.2687 613.353 71.5954 614.013 70.742 614.48C69.8887 614.947 68.942 615.18 67.902 615.18ZM67.902 613.58C68.5554 613.58 69.1687 613.427 69.742 613.12C70.3154 612.813 70.7754 612.353 71.122 611.74C71.482 611.127 71.662 610.38 71.662 609.5C71.662 608.62 71.4887 607.873 71.142 607.26C70.7954 606.647 70.342 606.193 69.782 605.9C69.222 605.593 68.6154 605.44 67.962 605.44C67.2954 605.44 66.682 605.593 66.122 605.9C65.5754 606.193 65.1354 606.647 64.802 607.26C64.4687 607.873 64.302 608.62 64.302 609.5C64.302 610.393 64.462 611.147 64.782 611.76C65.1154 612.373 65.5554 612.833 66.102 613.14C66.6487 613.433 67.2487 613.58 67.902 613.58ZM77.735 605.82C78.055 605.193 78.5083 604.707 79.095 604.36C79.695 604.013 80.4217 603.84 81.275 603.84V605.72H80.795C78.755 605.72 77.735 606.827 77.735 609.04V615H75.915V604.04H77.735V605.82ZM85.5959 605.54V612C85.5959 612.533 85.7093 612.913 85.9359 613.14C86.1626 613.353 86.5559 613.46 87.1159 613.46H88.4559V615H86.8159C85.8026 615 85.0426 614.767 84.5359 614.3C84.0293 613.833 83.7759 613.067 83.7759 612V605.54H82.3559V604.04H83.7759V601.28H85.5959V604.04H88.4559V605.54H85.5959ZM100.381 604.04V615H98.5611V613.38C98.2144 613.94 97.7278 614.38 97.1011 614.7C96.4878 615.007 95.8078 615.16 95.0611 615.16C94.2078 615.16 93.4411 614.987 92.7611 614.64C92.0811 614.28 91.5411 613.747 91.1411 613.04C90.7544 612.333 90.5611 611.473 90.5611 610.46V604.04H92.3611V610.22C92.3611 611.3 92.6344 612.133 93.1811 612.72C93.7278 613.293 94.4744 613.58 95.4211 613.58C96.3944 613.58 97.1611 613.28 97.7211 612.68C98.2811 612.08 98.5611 611.207 98.5611 610.06V604.04H100.381ZM107.974 603.86C108.921 603.86 109.747 604.067 110.454 604.48C111.174 604.893 111.707 605.413 112.054 606.04V604.04H113.894V615.24C113.894 616.24 113.681 617.127 113.254 617.9C112.827 618.687 112.214 619.3 111.414 619.74C110.627 620.18 109.707 620.4 108.654 620.4C107.214 620.4 106.014 620.06 105.054 619.38C104.094 618.7 103.527 617.773 103.354 616.6H105.154C105.354 617.267 105.767 617.8 106.394 618.2C107.021 618.613 107.774 618.82 108.654 618.82C109.654 618.82 110.467 618.507 111.094 617.88C111.734 617.253 112.054 616.373 112.054 615.24V612.94C111.694 613.58 111.161 614.113 110.454 614.54C109.747 614.967 108.921 615.18 107.974 615.18C107.001 615.18 106.114 614.94 105.314 614.46C104.527 613.98 103.907 613.307 103.454 612.44C103.001 611.573 102.774 610.587 102.774 609.48C102.774 608.36 103.001 607.38 103.454 606.54C103.907 605.687 104.527 605.027 105.314 604.56C106.114 604.093 107.001 603.86 107.974 603.86ZM112.054 609.5C112.054 608.673 111.887 607.953 111.554 607.34C111.221 606.727 110.767 606.26 110.194 605.94C109.634 605.607 109.014 605.44 108.334 605.44C107.654 605.44 107.034 605.6 106.474 605.92C105.914 606.24 105.467 606.707 105.134 607.32C104.801 607.933 104.634 608.653 104.634 609.48C104.634 610.32 104.801 611.053 105.134 611.68C105.467 612.293 105.914 612.767 106.474 613.1C107.034 613.42 107.654 613.58 108.334 613.58C109.014 613.58 109.634 613.42 110.194 613.1C110.767 612.767 111.221 612.293 111.554 611.68C111.887 611.053 112.054 610.327 112.054 609.5ZM126.69 604.04V615H124.87V613.38C124.523 613.94 124.036 614.38 123.41 614.7C122.796 615.007 122.116 615.16 121.37 615.16C120.516 615.16 119.75 614.987 119.07 614.64C118.39 614.28 117.85 613.747 117.45 613.04C117.063 612.333 116.87 611.473 116.87 610.46V604.04H118.67V610.22C118.67 611.3 118.943 612.133 119.49 612.72C120.036 613.293 120.783 613.58 121.73 613.58C122.703 613.58 123.47 613.28 124.03 612.68C124.59 612.08 124.87 611.207 124.87 610.06V604.04H126.69ZM139.763 609.1C139.763 609.447 139.743 609.813 139.703 610.2H130.943C131.009 611.28 131.376 612.127 132.043 612.74C132.723 613.34 133.543 613.64 134.503 613.64C135.289 613.64 135.943 613.46 136.463 613.1C136.996 612.727 137.369 612.233 137.583 611.62H139.543C139.249 612.673 138.663 613.533 137.783 614.2C136.903 614.853 135.809 615.18 134.503 615.18C133.463 615.18 132.529 614.947 131.703 614.48C130.889 614.013 130.249 613.353 129.783 612.5C129.316 611.633 129.083 610.633 129.083 609.5C129.083 608.367 129.309 607.373 129.763 606.52C130.216 605.667 130.849 605.013 131.663 604.56C132.489 604.093 133.436 603.86 134.503 603.86C135.543 603.86 136.463 604.087 137.263 604.54C138.063 604.993 138.676 605.62 139.103 606.42C139.543 607.207 139.763 608.1 139.763 609.1ZM137.883 608.72C137.883 608.027 137.729 607.433 137.423 606.94C137.116 606.433 136.696 606.053 136.163 605.8C135.643 605.533 135.063 605.4 134.423 605.4C133.503 605.4 132.716 605.693 132.063 606.28C131.423 606.867 131.056 607.68 130.963 608.72H137.883ZM146.045 615.18C145.205 615.18 144.452 615.04 143.785 614.76C143.118 614.467 142.592 614.067 142.205 613.56C141.818 613.04 141.605 612.447 141.565 611.78H143.445C143.498 612.327 143.752 612.773 144.205 613.12C144.672 613.467 145.278 613.64 146.025 613.64C146.718 613.64 147.265 613.487 147.665 613.18C148.065 612.873 148.265 612.487 148.265 612.02C148.265 611.54 148.052 611.187 147.625 610.96C147.198 610.72 146.538 610.487 145.645 610.26C144.832 610.047 144.165 609.833 143.645 609.62C143.138 609.393 142.698 609.067 142.325 608.64C141.965 608.2 141.785 607.627 141.785 606.92C141.785 606.36 141.952 605.847 142.285 605.38C142.618 604.913 143.092 604.547 143.705 604.28C144.318 604 145.018 603.86 145.805 603.86C147.018 603.86 147.998 604.167 148.745 604.78C149.492 605.393 149.892 606.233 149.945 607.3H148.125C148.085 606.727 147.852 606.267 147.425 605.92C147.012 605.573 146.452 605.4 145.745 605.4C145.092 605.4 144.572 605.54 144.185 605.82C143.798 606.1 143.605 606.467 143.605 606.92C143.605 607.28 143.718 607.58 143.945 607.82C144.185 608.047 144.478 608.233 144.825 608.38C145.185 608.513 145.678 608.667 146.305 608.84C147.092 609.053 147.732 609.267 148.225 609.48C148.718 609.68 149.138 609.987 149.485 610.4C149.845 610.813 150.032 611.353 150.045 612.02C150.045 612.62 149.878 613.16 149.545 613.64C149.212 614.12 148.738 614.5 148.125 614.78C147.525 615.047 146.832 615.18 146.045 615.18ZM162.614 609.1C162.614 609.447 162.594 609.813 162.554 610.2H153.794C153.861 611.28 154.228 612.127 154.894 612.74C155.574 613.34 156.394 613.64 157.354 613.64C158.141 613.64 158.794 613.46 159.314 613.1C159.848 612.727 160.221 612.233 160.434 611.62H162.394C162.101 612.673 161.514 613.533 160.634 614.2C159.754 614.853 158.661 615.18 157.354 615.18C156.314 615.18 155.381 614.947 154.554 614.48C153.741 614.013 153.101 613.353 152.634 612.5C152.168 611.633 151.934 610.633 151.934 609.5C151.934 608.367 152.161 607.373 152.614 606.52C153.068 605.667 153.701 605.013 154.514 604.56C155.341 604.093 156.288 603.86 157.354 603.86C158.394 603.86 159.314 604.087 160.114 604.54C160.914 604.993 161.528 605.62 161.954 606.42C162.394 607.207 162.614 608.1 162.614 609.1ZM160.734 608.72C160.734 608.027 160.581 607.433 160.274 606.94C159.968 606.433 159.548 606.053 159.014 605.8C158.494 605.533 157.914 605.4 157.274 605.4C156.354 605.4 155.568 605.693 154.914 606.28C154.274 606.867 153.908 607.68 153.814 608.72H160.734Z" fill="black"/>
<rect width="331" height="62" transform="translate(34 639)" fill="#F1F1F1"/>
<path d="M58.52 669.82C59.0267 669.9 59.4867 670.107 59.9 670.44C60.3267 670.773 60.66 671.187 60.9 671.68C61.1533 672.173 61.28 672.7 61.28 673.26C61.28 673.967 61.1 674.607 60.74 675.18C60.38 675.74 59.8533 676.187 59.16 676.52C58.48 676.84 57.6733 677 56.74 677H51.54V663.06H56.54C57.4867 663.06 58.2933 663.22 58.96 663.54C59.6267 663.847 60.1267 664.267 60.46 664.8C60.7933 665.333 60.96 665.933 60.96 666.6C60.96 667.427 60.7333 668.113 60.28 668.66C59.84 669.193 59.2533 669.58 58.52 669.82ZM53.36 669.08H56.42C57.2733 669.08 57.9333 668.88 58.4 668.48C58.8667 668.08 59.1 667.527 59.1 666.82C59.1 666.113 58.8667 665.56 58.4 665.16C57.9333 664.76 57.26 664.56 56.38 664.56H53.36V669.08ZM56.58 675.5C57.4867 675.5 58.1933 675.287 58.7 674.86C59.2067 674.433 59.46 673.84 59.46 673.08C59.46 672.307 59.1933 671.7 58.66 671.26C58.1267 670.807 57.4133 670.58 56.52 670.58H53.36V675.5H56.58ZM73.8056 671.1C73.8056 671.447 73.7856 671.813 73.7456 672.2H64.9856C65.0523 673.28 65.419 674.127 66.0856 674.74C66.7656 675.34 67.5856 675.64 68.5456 675.64C69.3323 675.64 69.9856 675.46 70.5056 675.1C71.039 674.727 71.4123 674.233 71.6256 673.62H73.5856C73.2923 674.673 72.7056 675.533 71.8256 676.2C70.9456 676.853 69.8523 677.18 68.5456 677.18C67.5056 677.18 66.5723 676.947 65.7456 676.48C64.9323 676.013 64.2923 675.353 63.8256 674.5C63.359 673.633 63.1256 672.633 63.1256 671.5C63.1256 670.367 63.3523 669.373 63.8056 668.52C64.259 667.667 64.8923 667.013 65.7056 666.56C66.5323 666.093 67.479 665.86 68.5456 665.86C69.5856 665.86 70.5056 666.087 71.3056 666.54C72.1056 666.993 72.719 667.62 73.1456 668.42C73.5856 669.207 73.8056 670.1 73.8056 671.1ZM71.9256 670.72C71.9256 670.027 71.7723 669.433 71.4656 668.94C71.159 668.433 70.739 668.053 70.2056 667.8C69.6856 667.533 69.1056 667.4 68.4656 667.4C67.5456 667.4 66.759 667.693 66.1056 668.28C65.4656 668.867 65.099 669.68 65.0056 670.72H71.9256ZM81.548 665.84C82.8813 665.84 83.9613 666.247 84.788 667.06C85.6146 667.86 86.028 669.02 86.028 670.54V677H84.228V670.8C84.228 669.707 83.9546 668.873 83.408 668.3C82.8613 667.713 82.1146 667.42 81.168 667.42C80.208 667.42 79.4413 667.72 78.868 668.32C78.308 668.92 78.028 669.793 78.028 670.94V677H76.208V666.04H78.028V667.6C78.388 667.04 78.8746 666.607 79.488 666.3C80.1146 665.993 80.8013 665.84 81.548 665.84ZM93.5209 665.86C94.4676 665.86 95.2943 666.067 96.0009 666.48C96.7209 666.893 97.2543 667.413 97.6009 668.04V666.04H99.4409V677.24C99.4409 678.24 99.2276 679.127 98.8009 679.9C98.3743 680.687 97.7609 681.3 96.9609 681.74C96.1743 682.18 95.2543 682.4 94.2009 682.4C92.7609 682.4 91.5609 682.06 90.6009 681.38C89.6409 680.7 89.0743 679.773 88.9009 678.6H90.7009C90.9009 679.267 91.3143 679.8 91.9409 680.2C92.5676 680.613 93.3209 680.82 94.2009 680.82C95.2009 680.82 96.0143 680.507 96.6409 679.88C97.2809 679.253 97.6009 678.373 97.6009 677.24V674.94C97.2409 675.58 96.7076 676.113 96.0009 676.54C95.2943 676.967 94.4676 677.18 93.5209 677.18C92.5476 677.18 91.6609 676.94 90.8609 676.46C90.0743 675.98 89.4543 675.307 89.0009 674.44C88.5476 673.573 88.3209 672.587 88.3209 671.48C88.3209 670.36 88.5476 669.38 89.0009 668.54C89.4543 667.687 90.0743 667.027 90.8609 666.56C91.6609 666.093 92.5476 665.86 93.5209 665.86ZM97.6009 671.5C97.6009 670.673 97.4343 669.953 97.1009 669.34C96.7676 668.727 96.3143 668.26 95.7409 667.94C95.1809 667.607 94.5609 667.44 93.8809 667.44C93.2009 667.44 92.5809 667.6 92.0209 667.92C91.4609 668.24 91.0143 668.707 90.6809 669.32C90.3476 669.933 90.1809 670.653 90.1809 671.48C90.1809 672.32 90.3476 673.053 90.6809 673.68C91.0143 674.293 91.4609 674.767 92.0209 675.1C92.5809 675.42 93.2009 675.58 93.8809 675.58C94.5609 675.58 95.1809 675.42 95.7409 675.1C96.3143 674.767 96.7676 674.293 97.1009 673.68C97.4343 673.053 97.6009 672.327 97.6009 671.5ZM101.837 671.48C101.837 670.36 102.063 669.38 102.517 668.54C102.97 667.687 103.59 667.027 104.377 666.56C105.177 666.093 106.063 665.86 107.037 665.86C107.997 665.86 108.83 666.067 109.537 666.48C110.243 666.893 110.77 667.413 111.117 668.04V666.04H112.957V677H111.117V674.96C110.757 675.6 110.217 676.133 109.497 676.56C108.79 676.973 107.963 677.18 107.017 677.18C106.043 677.18 105.163 676.94 104.377 676.46C103.59 675.98 102.97 675.307 102.517 674.44C102.063 673.573 101.837 672.587 101.837 671.48ZM111.117 671.5C111.117 670.673 110.95 669.953 110.617 669.34C110.283 668.727 109.83 668.26 109.257 667.94C108.697 667.607 108.077 667.44 107.397 667.44C106.717 667.44 106.097 667.6 105.537 667.92C104.977 668.24 104.53 668.707 104.197 669.32C103.863 669.933 103.697 670.653 103.697 671.48C103.697 672.32 103.863 673.053 104.197 673.68C104.53 674.293 104.977 674.767 105.537 675.1C106.097 675.42 106.717 675.58 107.397 675.58C108.077 675.58 108.697 675.42 109.257 675.1C109.83 674.767 110.283 674.293 110.617 673.68C110.95 673.053 111.117 672.327 111.117 671.5ZM117.852 662.2V677H116.032V662.2H117.852ZM121.894 664.26C121.547 664.26 121.254 664.14 121.014 663.9C120.774 663.66 120.654 663.367 120.654 663.02C120.654 662.673 120.774 662.38 121.014 662.14C121.254 661.9 121.547 661.78 121.894 661.78C122.227 661.78 122.507 661.9 122.734 662.14C122.974 662.38 123.094 662.673 123.094 663.02C123.094 663.367 122.974 663.66 122.734 663.9C122.507 664.14 122.227 664.26 121.894 664.26ZM122.774 666.04V677H120.954V666.04H122.774Z" fill="black"/>
</g>
<defs>
<clipPath id="clip0_381_488">
<path d="M34 143H365V661C365 665.418 361.418 669 357 669H42C37.5817 669 34 665.418 34 661V143Z" fill="white"/>
</clipPath>
</defs>
</svg>
