<svg width="393" height="852" viewBox="0 0 393 852" fill="none" xmlns="http://www.w3.org/2000/svg">
<rect width="393" height="852" fill="#101010"/>
<g clip-path="url(#clip0_213_157)">
<path d="M229.762 96.4869C227.202 97.9586 225.086 100.083 223.637 102.639C222.129 105.254 221.364 108.237 221.364 111.5C221.364 114.762 222.128 117.744 223.637 120.36C225.085 122.917 227.201 125.041 229.762 126.512C232.327 127.984 235.224 128.73 238.374 128.73C241.479 128.73 244.349 128.004 246.91 126.574C241.745 128.335 237.224 126.922 236.714 126.751C233.377 125.425 230.602 123.003 228.856 119.891C227.409 117.364 226.685 114.567 226.685 111.5C226.685 108.433 227.409 105.636 228.856 103.109C230.684 99.8366 233.653 97.3337 237.208 96.0672C240.394 95.0493 243.841 95.1828 246.937 96.4441C244.367 95.0019 241.484 94.2695 238.37 94.2695C235.226 94.2695 232.329 95.015 229.762 96.4869Z" fill="#F0F0F0"/>
<path d="M262.936 100.125C260.931 96.7228 258.045 93.9119 254.575 91.9831C251.044 89.9944 247.172 89 242.96 89C240.202 88.981 237.462 89.4422 234.865 90.3626C236.026 90.1846 237.199 90.096 238.374 90.0974C242.27 90.0974 245.887 91.0308 249.127 92.8737C252.354 94.7046 255.022 97.3639 256.849 100.571C258.724 103.825 259.675 107.503 259.675 111.5C259.675 115.497 258.724 119.175 256.849 122.428C255.023 125.636 252.355 128.296 249.127 130.126C245.891 131.968 242.272 132.903 238.374 132.903C237.2 132.904 236.027 132.815 234.866 132.637C237.463 133.558 240.202 134.019 242.96 134C247.173 134 251.045 133.005 254.575 131.016C258.045 129.088 260.932 126.277 262.936 122.874C264.978 119.435 265.999 115.644 265.999 111.5C265.999 107.356 264.978 103.564 262.936 100.125Z" fill="#F0F0F0"/>
<path d="M145.188 90.4137L127 132.162H133.659L151.312 90.4137H145.188Z" fill="#F0F0F0"/>
<path d="M163.062 112.314L154.692 93.165L151.398 100.954L156.307 112.314H163.062Z" fill="#F0F0F0"/>
<path d="M164.876 116.463H141.447L143.528 121.225H160.139L164.818 132.162H171.738L164.876 116.463Z" fill="#F0F0F0"/>
<path d="M214.676 111.084C214.219 113.266 213.416 115.363 212.299 117.299C210.551 120.423 207.981 123.021 204.863 124.819C201.74 126.624 198.242 127.539 194.474 127.539C190.706 127.539 187.215 126.618 184.112 124.814C181.011 123.01 178.457 120.414 176.716 117.299C174.915 114.13 174.003 110.55 174.003 106.659C173.994 104.61 174.267 102.57 174.813 100.595C172.936 103.834 171.997 107.391 171.997 111.263C171.997 115.243 172.987 118.884 174.968 122.188C176.889 125.436 179.632 128.131 182.927 130.009C186.255 131.92 189.938 132.875 193.978 132.875C196.752 132.875 199.315 132.418 201.665 131.502C204.015 130.587 205.964 129.434 207.512 128.045C208.212 127.423 208.862 126.747 209.454 126.023L210.697 132.158H214.678V111.084H214.676Z" fill="#F0F0F0"/>
<path d="M180.506 103.144C181.893 100.716 183.761 98.8356 186.109 97.5023C188.458 96.1691 191.081 95.5025 193.978 95.5025C197.446 95.5025 200.294 96.2686 202.52 97.8008C204.746 99.3329 206.348 101.235 207.324 103.508H213.875C213.862 103.457 213.854 103.407 213.839 103.354C212.114 96.7568 206.458 91.6193 199.324 90.2484C197.981 89.9697 196.612 89.829 195.24 89.8287C194.072 89.8287 192.907 89.9289 191.757 90.1284C189.55 90.4994 187.444 91.3184 185.572 92.5338C183.7 93.7492 182.102 95.3347 180.878 97.1908C180.708 97.456 180.541 97.7247 180.383 98.0029C178.931 100.558 178.196 103.472 178.196 106.659C178.195 107.758 178.289 108.855 178.476 109.939C178.628 107.552 179.321 105.229 180.506 103.144Z" fill="#F0F0F0"/>
<path d="M193.335 116.457H207.917C208.168 116.087 208.41 115.709 208.637 115.313C209.388 113.986 209.949 112.563 210.304 111.084H193.335V116.457Z" fill="#F0F0F0"/>
</g>
<path d="M26.344 212.224H30.024V214H24.104V202.832H26.344V212.224ZM35.3838 214.144C34.5304 214.144 33.7624 213.957 33.0798 213.584C32.3971 213.2 31.8584 212.661 31.4638 211.968C31.0798 211.275 30.8878 210.475 30.8878 209.568C30.8878 208.661 31.0851 207.861 31.4798 207.168C31.8851 206.475 32.4344 205.941 33.1278 205.568C33.8211 205.184 34.5944 204.992 35.4478 204.992C36.3011 204.992 37.0744 205.184 37.7678 205.568C38.4611 205.941 39.0051 206.475 39.3998 207.168C39.8051 207.861 40.0078 208.661 40.0078 209.568C40.0078 210.475 39.7998 211.275 39.3837 211.968C38.9784 212.661 38.4238 213.2 37.7198 213.584C37.0264 213.957 36.2478 214.144 35.3838 214.144ZM35.3838 212.192C35.7891 212.192 36.1678 212.096 36.5198 211.904C36.8824 211.701 37.1704 211.403 37.3838 211.008C37.5971 210.613 37.7038 210.133 37.7038 209.568C37.7038 208.725 37.4798 208.08 37.0318 207.632C36.5944 207.173 36.0558 206.944 35.4158 206.944C34.7758 206.944 34.2371 207.173 33.7998 207.632C33.3731 208.08 33.1598 208.725 33.1598 209.568C33.1598 210.411 33.3678 211.061 33.7838 211.52C34.2104 211.968 34.7438 212.192 35.3838 212.192ZM45.1229 204.992C45.7842 204.992 46.3655 205.125 46.8669 205.392C47.3682 205.648 47.7629 205.984 48.0509 206.4V205.136H50.3069V214.064C50.3069 214.885 50.1415 215.616 49.8109 216.256C49.4802 216.907 48.9842 217.419 48.3229 217.792C47.6615 218.176 46.8615 218.368 45.9229 218.368C44.6642 218.368 43.6295 218.075 42.8189 217.488C42.0189 216.901 41.5655 216.101 41.4589 215.088H43.6829C43.8002 215.493 44.0509 215.813 44.4349 216.048C44.8295 216.293 45.3042 216.416 45.8589 216.416C46.5095 216.416 47.0375 216.219 47.4429 215.824C47.8482 215.44 48.0509 214.853 48.0509 214.064V212.688C47.7629 213.104 47.3629 213.451 46.8509 213.728C46.3495 214.005 45.7735 214.144 45.1229 214.144C44.3762 214.144 43.6935 213.952 43.0749 213.568C42.4562 213.184 41.9655 212.645 41.6029 211.952C41.2509 211.248 41.0749 210.443 41.0749 209.536C41.0749 208.64 41.2509 207.845 41.6029 207.152C41.9655 206.459 42.4509 205.925 43.0589 205.552C43.6775 205.179 44.3655 204.992 45.1229 204.992ZM48.0509 209.568C48.0509 209.024 47.9442 208.56 47.7309 208.176C47.5175 207.781 47.2295 207.483 46.8669 207.28C46.5042 207.067 46.1149 206.96 45.6989 206.96C45.2829 206.96 44.8989 207.061 44.5469 207.264C44.1949 207.467 43.9069 207.765 43.6829 208.16C43.4695 208.544 43.3629 209.003 43.3629 209.536C43.3629 210.069 43.4695 210.539 43.6829 210.944C43.9069 211.339 44.1949 211.643 44.5469 211.856C44.9095 212.069 45.2935 212.176 45.6989 212.176C46.1149 212.176 46.5042 212.075 46.8669 211.872C47.2295 211.659 47.5175 211.36 47.7309 210.976C47.9442 210.581 48.0509 210.112 48.0509 209.568ZM58.5471 202.832V214H56.3071V202.832H58.5471ZM65.6723 205.008C66.7283 205.008 67.5816 205.344 68.2323 206.016C68.8829 206.677 69.2083 207.605 69.2083 208.8V214H66.9683V209.104C66.9683 208.4 66.7923 207.861 66.4403 207.488C66.0883 207.104 65.6083 206.912 65.0003 206.912C64.3816 206.912 63.8909 207.104 63.5283 207.488C63.1763 207.861 63.0003 208.4 63.0003 209.104V214H60.7603V205.136H63.0003V206.24C63.2989 205.856 63.6776 205.557 64.1363 205.344C64.6056 205.12 65.1176 205.008 65.6723 205.008Z" fill="white"/>
<rect x="33.8" y="263.8" width="336.4" height="46.4" stroke="#EEEEEE" stroke-width="1.6"/>
<rect x="33.8" y="354.8" width="336.4" height="46.4" stroke="#EEEEEE" stroke-width="1.6"/>
<path d="M35.717 246.395V248.67H38.772V250.113H35.717V252.518H39.162V254H33.897V244.913H39.162V246.395H35.717ZM49.7599 246.694C50.6439 246.694 51.3546 246.967 51.8919 247.513C52.4379 248.05 52.7109 248.804 52.7109 249.775V254H50.8909V250.022C50.8909 249.459 50.7479 249.03 50.4619 248.735C50.1759 248.432 49.7859 248.28 49.2919 248.28C48.7979 248.28 48.4036 248.432 48.1089 248.735C47.8229 249.03 47.6799 249.459 47.6799 250.022V254H45.8599V250.022C45.8599 249.459 45.7169 249.03 45.4309 248.735C45.1449 248.432 44.7549 248.28 44.2609 248.28C43.7583 248.28 43.3596 248.432 43.0649 248.735C42.7789 249.03 42.6359 249.459 42.6359 250.022V254H40.8159V246.798H42.6359V247.669C42.8699 247.366 43.1689 247.127 43.5329 246.954C43.9056 246.781 44.3129 246.694 44.7549 246.694C45.3183 246.694 45.8209 246.815 46.2629 247.058C46.7049 247.292 47.0473 247.63 47.2899 248.072C47.5239 247.656 47.8619 247.322 48.3039 247.071C48.7546 246.82 49.2399 246.694 49.7599 246.694ZM53.97 250.373C53.97 249.645 54.113 248.999 54.399 248.436C54.6937 247.873 55.088 247.439 55.582 247.136C56.0847 246.833 56.6437 246.681 57.259 246.681C57.7963 246.681 58.2643 246.789 58.663 247.006C59.0703 247.223 59.3953 247.496 59.638 247.825V246.798H61.471V254H59.638V252.947C59.404 253.285 59.079 253.567 58.663 253.792C58.2557 254.009 57.7833 254.117 57.246 254.117C56.6393 254.117 56.0847 253.961 55.582 253.649C55.088 253.337 54.6937 252.899 54.399 252.336C54.113 251.764 53.97 251.11 53.97 250.373ZM59.638 250.399C59.638 249.957 59.5513 249.58 59.378 249.268C59.2047 248.947 58.9707 248.705 58.676 248.54C58.3813 248.367 58.065 248.28 57.727 248.28C57.389 248.28 57.077 248.362 56.791 248.527C56.505 248.692 56.271 248.934 56.089 249.255C55.9157 249.567 55.829 249.94 55.829 250.373C55.829 250.806 55.9157 251.188 56.089 251.517C56.271 251.838 56.505 252.085 56.791 252.258C57.0857 252.431 57.3977 252.518 57.727 252.518C58.065 252.518 58.3813 252.436 58.676 252.271C58.9707 252.098 59.2047 251.855 59.378 251.543C59.5513 251.222 59.638 250.841 59.638 250.399ZM64.1716 245.94C63.8509 245.94 63.5822 245.84 63.3656 245.641C63.1576 245.433 63.0536 245.177 63.0536 244.874C63.0536 244.571 63.1576 244.319 63.3656 244.12C63.5822 243.912 63.8509 243.808 64.1716 243.808C64.4922 243.808 64.7566 243.912 64.9646 244.12C65.1812 244.319 65.2896 244.571 65.2896 244.874C65.2896 245.177 65.1812 245.433 64.9646 245.641C64.7566 245.84 64.4922 245.94 64.1716 245.94ZM65.0686 246.798V254H63.2486V246.798H65.0686ZM68.6867 244.38V254H66.8667V244.38H68.6867Z" fill="white"/>
<path d="M40.514 338.734C40.514 339.219 40.397 339.674 40.163 340.099C39.9377 340.524 39.578 340.866 39.084 341.126C38.5987 341.386 37.9833 341.516 37.238 341.516H35.717V345H33.897V335.926H37.238C37.94 335.926 38.538 336.047 39.032 336.29C39.526 336.533 39.8943 336.866 40.137 337.291C40.3883 337.716 40.514 338.197 40.514 338.734ZM37.16 340.047C37.6627 340.047 38.0353 339.934 38.278 339.709C38.5207 339.475 38.642 339.15 38.642 338.734C38.642 337.85 38.148 337.408 37.16 337.408H35.717V340.047H37.16ZM41.3382 341.373C41.3382 340.645 41.4812 339.999 41.7672 339.436C42.0618 338.873 42.4562 338.439 42.9502 338.136C43.4528 337.833 44.0118 337.681 44.6272 337.681C45.1645 337.681 45.6325 337.789 46.0312 338.006C46.4385 338.223 46.7635 338.496 47.0062 338.825V337.798H48.8392V345H47.0062V343.947C46.7722 344.285 46.4472 344.567 46.0312 344.792C45.6238 345.009 45.1515 345.117 44.6142 345.117C44.0075 345.117 43.4528 344.961 42.9502 344.649C42.4562 344.337 42.0618 343.899 41.7672 343.336C41.4812 342.764 41.3382 342.11 41.3382 341.373ZM47.0062 341.399C47.0062 340.957 46.9195 340.58 46.7462 340.268C46.5728 339.947 46.3388 339.705 46.0442 339.54C45.7495 339.367 45.4332 339.28 45.0952 339.28C44.7572 339.28 44.4452 339.362 44.1592 339.527C43.8732 339.692 43.6392 339.934 43.4572 340.255C43.2838 340.567 43.1972 340.94 43.1972 341.373C43.1972 341.806 43.2838 342.188 43.4572 342.517C43.6392 342.838 43.8732 343.085 44.1592 343.258C44.4538 343.431 44.7658 343.518 45.0952 343.518C45.4332 343.518 45.7495 343.436 46.0442 343.271C46.3388 343.098 46.5728 342.855 46.7462 342.543C46.9195 342.222 47.0062 341.841 47.0062 341.399ZM53.3727 345.117C52.7834 345.117 52.2547 345.013 51.7867 344.805C51.3187 344.588 50.9461 344.298 50.6687 343.934C50.4001 343.57 50.2527 343.167 50.2267 342.725H52.0597C52.0944 343.002 52.2287 343.232 52.4627 343.414C52.7054 343.596 53.0044 343.687 53.3597 343.687C53.7064 343.687 53.9751 343.618 54.1657 343.479C54.3651 343.34 54.4647 343.163 54.4647 342.946C54.4647 342.712 54.3434 342.539 54.1007 342.426C53.8667 342.305 53.4897 342.175 52.9697 342.036C52.4324 341.906 51.9904 341.772 51.6437 341.633C51.3057 341.494 51.0111 341.282 50.7597 340.996C50.5171 340.71 50.3957 340.324 50.3957 339.839C50.3957 339.44 50.5084 339.076 50.7337 338.747C50.9677 338.418 51.2971 338.158 51.7217 337.967C52.1551 337.776 52.6621 337.681 53.2427 337.681C54.1007 337.681 54.7854 337.898 55.2967 338.331C55.8081 338.756 56.0897 339.332 56.1417 340.06H54.3997C54.3737 339.774 54.2524 339.549 54.0357 339.384C53.8277 339.211 53.5461 339.124 53.1907 339.124C52.8614 339.124 52.6057 339.185 52.4237 339.306C52.2504 339.427 52.1637 339.596 52.1637 339.813C52.1637 340.056 52.2851 340.242 52.5277 340.372C52.7704 340.493 53.1474 340.619 53.6587 340.749C54.1787 340.879 54.6077 341.013 54.9457 341.152C55.2837 341.291 55.5741 341.507 55.8167 341.802C56.0681 342.088 56.1981 342.469 56.2067 342.946C56.2067 343.362 56.0897 343.735 55.8557 344.064C55.6304 344.393 55.3011 344.653 54.8677 344.844C54.4431 345.026 53.9447 345.117 53.3727 345.117ZM60.4567 345.117C59.8674 345.117 59.3387 345.013 58.8707 344.805C58.4027 344.588 58.03 344.298 57.7527 343.934C57.484 343.57 57.3367 343.167 57.3107 342.725H59.1437C59.1784 343.002 59.3127 343.232 59.5467 343.414C59.7894 343.596 60.0884 343.687 60.4437 343.687C60.7904 343.687 61.059 343.618 61.2497 343.479C61.449 343.34 61.5487 343.163 61.5487 342.946C61.5487 342.712 61.4274 342.539 61.1847 342.426C60.9507 342.305 60.5737 342.175 60.0537 342.036C59.5164 341.906 59.0744 341.772 58.7277 341.633C58.3897 341.494 58.095 341.282 57.8437 340.996C57.601 340.71 57.4797 340.324 57.4797 339.839C57.4797 339.44 57.5924 339.076 57.8177 338.747C58.0517 338.418 58.381 338.158 58.8057 337.967C59.239 337.776 59.746 337.681 60.3267 337.681C61.1847 337.681 61.8694 337.898 62.3807 338.331C62.892 338.756 63.1737 339.332 63.2257 340.06H61.4837C61.4577 339.774 61.3364 339.549 61.1197 339.384C60.9117 339.211 60.63 339.124 60.2747 339.124C59.9454 339.124 59.6897 339.185 59.5077 339.306C59.3344 339.427 59.2477 339.596 59.2477 339.813C59.2477 340.056 59.369 340.242 59.6117 340.372C59.8544 340.493 60.2314 340.619 60.7427 340.749C61.2627 340.879 61.6917 341.013 62.0297 341.152C62.3677 341.291 62.658 341.507 62.9007 341.802C63.152 342.088 63.282 342.469 63.2907 342.946C63.2907 343.362 63.1737 343.735 62.9397 344.064C62.7144 344.393 62.385 344.653 61.9517 344.844C61.527 345.026 61.0287 345.117 60.4567 345.117ZM74.7687 337.798L72.6627 345H70.6997L69.3867 339.969L68.0737 345H66.0977L63.9787 337.798H65.8247L67.0987 343.284L68.4767 337.798H70.4007L71.7527 343.271L73.0267 337.798H74.7687ZM78.9514 345.117C78.2581 345.117 77.6341 344.965 77.0794 344.662C76.5248 344.35 76.0871 343.912 75.7664 343.349C75.4544 342.786 75.2984 342.136 75.2984 341.399C75.2984 340.662 75.4588 340.012 75.7794 339.449C76.1088 338.886 76.5551 338.452 77.1184 338.149C77.6818 337.837 78.3101 337.681 79.0034 337.681C79.6968 337.681 80.3251 337.837 80.8884 338.149C81.4518 338.452 81.8938 338.886 82.2144 339.449C82.5438 340.012 82.7084 340.662 82.7084 341.399C82.7084 342.136 82.5394 342.786 82.2014 343.349C81.8721 343.912 81.4214 344.35 80.8494 344.662C80.2861 344.965 79.6534 345.117 78.9514 345.117ZM78.9514 343.531C79.2808 343.531 79.5884 343.453 79.8744 343.297C80.1691 343.132 80.4031 342.89 80.5764 342.569C80.7498 342.248 80.8364 341.858 80.8364 341.399C80.8364 340.714 80.6544 340.19 80.2904 339.826C79.9351 339.453 79.4974 339.267 78.9774 339.267C78.4574 339.267 78.0198 339.453 77.6644 339.826C77.3178 340.19 77.1444 340.714 77.1444 341.399C77.1444 342.084 77.3134 342.612 77.6514 342.985C77.9981 343.349 78.4314 343.531 78.9514 343.531ZM85.8635 338.916C86.0975 338.535 86.4008 338.236 86.7735 338.019C87.1548 337.802 87.5882 337.694 88.0735 337.694V339.605H87.5925C87.0205 339.605 86.5872 339.739 86.2925 340.008C86.0065 340.277 85.8635 340.745 85.8635 341.412V345H84.0435V337.798H85.8635V338.916ZM88.8313 341.373C88.8313 340.645 88.9743 339.999 89.2603 339.436C89.555 338.873 89.9537 338.439 90.4563 338.136C90.959 337.833 91.518 337.681 92.1333 337.681C92.6013 337.681 93.0477 337.785 93.4723 337.993C93.897 338.192 94.235 338.461 94.4863 338.799V335.38H96.3323V345H94.4863V343.934C94.261 344.289 93.9447 344.575 93.5373 344.792C93.13 345.009 92.6577 345.117 92.1203 345.117C91.5137 345.117 90.959 344.961 90.4563 344.649C89.9537 344.337 89.555 343.899 89.2603 343.336C88.9743 342.764 88.8313 342.11 88.8313 341.373ZM94.4993 341.399C94.4993 340.957 94.4127 340.58 94.2393 340.268C94.066 339.947 93.832 339.705 93.5373 339.54C93.2427 339.367 92.9263 339.28 92.5883 339.28C92.2503 339.28 91.9383 339.362 91.6523 339.527C91.3663 339.692 91.1323 339.934 90.9503 340.255C90.777 340.567 90.6903 340.94 90.6903 341.373C90.6903 341.806 90.777 342.188 90.9503 342.517C91.1323 342.838 91.3663 343.085 91.6523 343.258C91.947 343.431 92.259 343.518 92.5883 343.518C92.9263 343.518 93.2427 343.436 93.5373 343.271C93.832 343.098 94.066 342.855 94.2393 342.543C94.4127 342.222 94.4993 341.841 94.4993 341.399Z" fill="white"/>
<path d="M62.6831 438V427.818H66.1235C66.9189 427.818 67.5719 427.954 68.0823 428.226C68.5927 428.494 68.9706 428.864 69.2158 429.335C69.4611 429.805 69.5837 430.34 69.5837 430.94C69.5837 431.54 69.4611 432.072 69.2158 432.536C68.9706 433 68.5944 433.365 68.0873 433.63C67.5802 433.892 66.9322 434.023 66.1434 434.023H63.3593V432.909H66.1036C66.6472 432.909 67.0847 432.83 67.4161 432.67C67.7509 432.511 67.9928 432.286 68.142 431.994C68.2944 431.699 68.3706 431.348 68.3706 430.94C68.3706 430.533 68.2944 430.176 68.142 429.871C67.9895 429.567 67.7459 429.331 67.4111 429.165C67.0764 428.996 66.6339 428.912 66.0837 428.912H63.9161V438H62.6831ZM67.4758 433.426L69.9814 438H68.5496L66.0837 433.426H67.4758ZM74.5988 438.159C73.863 438.159 73.2283 437.997 72.6947 437.672C72.1644 437.344 71.7551 436.886 71.4667 436.3C71.1817 435.71 71.0392 435.024 71.0392 434.241C71.0392 433.459 71.1817 432.77 71.4667 432.173C71.7551 431.573 72.1561 431.106 72.6698 430.771C73.1869 430.433 73.7901 430.264 74.4795 430.264C74.8772 430.264 75.27 430.33 75.6578 430.463C76.0455 430.596 76.3985 430.811 76.7167 431.109C77.0349 431.404 77.2884 431.795 77.4774 432.283C77.6663 432.77 77.7607 433.37 77.7607 434.082V434.58H71.8744V433.565H76.5676C76.5676 433.134 76.4814 432.75 76.309 432.412C76.14 432.074 75.8981 431.807 75.5832 431.612C75.2716 431.416 74.9037 431.318 74.4795 431.318C74.0122 431.318 73.6078 431.434 73.2664 431.666C72.9284 431.895 72.6682 432.193 72.4859 432.561C72.3036 432.929 72.2124 433.323 72.2124 433.744V434.42C72.2124 434.997 72.3119 435.486 72.5107 435.887C72.7129 436.285 72.993 436.588 73.3509 436.797C73.7089 437.002 74.1249 437.105 74.5988 437.105C74.907 437.105 75.1855 437.062 75.434 436.976C75.6859 436.886 75.903 436.754 76.0853 436.578C76.2676 436.399 76.4085 436.177 76.5079 435.912L77.6414 436.23C77.5221 436.615 77.3216 436.953 77.0399 437.244C76.7581 437.533 76.4101 437.758 75.9958 437.92C75.5815 438.08 75.1159 438.159 74.5988 438.159ZM79.5455 438V430.364H80.6791V431.557H80.7785C80.9376 431.149 81.1945 430.833 81.5491 430.607C81.9037 430.379 82.3296 430.264 82.8268 430.264C83.3306 430.264 83.7499 430.379 84.0846 430.607C84.4227 430.833 84.6862 431.149 84.8751 431.557H84.9546C85.1502 431.162 85.4435 430.849 85.8346 430.617C86.2257 430.382 86.6947 430.264 87.2416 430.264C87.9243 430.264 88.4828 430.478 88.917 430.906C89.3512 431.33 89.5683 431.991 89.5683 432.889V438H88.395V432.889C88.395 432.326 88.2409 431.923 87.9326 431.681C87.6244 431.439 87.2615 431.318 86.8438 431.318C86.3069 431.318 85.891 431.481 85.596 431.805C85.301 432.127 85.1535 432.535 85.1535 433.028V438H83.9603V432.77C83.9603 432.336 83.8195 431.986 83.5377 431.721C83.256 431.452 82.8931 431.318 82.449 431.318C82.144 431.318 81.859 431.399 81.5938 431.562C81.332 431.724 81.1199 431.95 80.9575 432.238C80.7984 432.523 80.7188 432.853 80.7188 433.227V438H79.5455ZM94.9152 438.159C94.1794 438.159 93.5447 437.997 93.0111 437.672C92.4808 437.344 92.0715 436.886 91.7831 436.3C91.4981 435.71 91.3556 435.024 91.3556 434.241C91.3556 433.459 91.4981 432.77 91.7831 432.173C92.0715 431.573 92.4725 431.106 92.9862 430.771C93.5033 430.433 94.1065 430.264 94.7959 430.264C95.1936 430.264 95.5864 430.33 95.9742 430.463C96.3619 430.596 96.7149 430.811 97.0331 431.109C97.3513 431.404 97.6048 431.795 97.7938 432.283C97.9827 432.77 98.0771 433.37 98.0771 434.082V434.58H92.1908V433.565H96.884C96.884 433.134 96.7978 432.75 96.6254 432.412C96.4564 432.074 96.2145 431.807 95.8996 431.612C95.588 431.416 95.2201 431.318 94.7959 431.318C94.3286 431.318 93.9242 431.434 93.5828 431.666C93.2448 431.895 92.9846 432.193 92.8023 432.561C92.62 432.929 92.5289 433.323 92.5289 433.744V434.42C92.5289 434.997 92.6283 435.486 92.8271 435.887C93.0293 436.285 93.3094 436.588 93.6673 436.797C94.0253 437.002 94.4413 437.105 94.9152 437.105C95.2235 437.105 95.5019 437.062 95.7504 436.976C96.0023 436.886 96.2194 436.754 96.4017 436.578C96.584 436.399 96.7249 436.177 96.8243 435.912L97.9578 436.23C97.8385 436.615 97.638 436.953 97.3563 437.244C97.0745 437.533 96.7265 437.758 96.3122 437.92C95.8979 438.08 95.4323 438.159 94.9152 438.159ZM99.8619 438V430.364H100.995V431.557H101.095C101.254 431.149 101.511 430.833 101.866 430.607C102.22 430.379 102.646 430.264 103.143 430.264C103.647 430.264 104.066 430.379 104.401 430.607C104.739 430.833 105.003 431.149 105.191 431.557H105.271C105.467 431.162 105.76 430.849 106.151 430.617C106.542 430.382 107.011 430.264 107.558 430.264C108.241 430.264 108.799 430.478 109.233 430.906C109.668 431.33 109.885 431.991 109.885 432.889V438H108.711V432.889C108.711 432.326 108.557 431.923 108.249 431.681C107.941 431.439 107.578 431.318 107.16 431.318C106.623 431.318 106.207 431.481 105.912 431.805C105.617 432.127 105.47 432.535 105.47 433.028V438H104.277V432.77C104.277 432.336 104.136 431.986 103.854 431.721C103.572 431.452 103.209 431.318 102.765 431.318C102.46 431.318 102.175 431.399 101.91 431.562C101.648 431.724 101.436 431.95 101.274 432.238C101.115 432.523 101.035 432.853 101.035 433.227V438H99.8619ZM112.189 438V427.818H113.362V431.577H113.462C113.548 431.444 113.667 431.275 113.82 431.07C113.975 430.861 114.198 430.675 114.486 430.513C114.778 430.347 115.172 430.264 115.669 430.264C116.312 430.264 116.879 430.425 117.369 430.746C117.86 431.068 118.243 431.524 118.518 432.114C118.793 432.704 118.93 433.4 118.93 434.202C118.93 435.01 118.793 435.711 118.518 436.305C118.243 436.895 117.862 437.352 117.374 437.677C116.887 437.998 116.325 438.159 115.689 438.159C115.198 438.159 114.806 438.078 114.511 437.915C114.216 437.75 113.989 437.562 113.83 437.354C113.671 437.142 113.548 436.966 113.462 436.827H113.323V438H112.189ZM113.342 434.182C113.342 434.759 113.427 435.267 113.596 435.708C113.765 436.146 114.012 436.489 114.337 436.737C114.662 436.982 115.059 437.105 115.53 437.105C116.02 437.105 116.43 436.976 116.758 436.717C117.089 436.455 117.338 436.104 117.504 435.663C117.673 435.219 117.757 434.725 117.757 434.182C117.757 433.645 117.674 433.161 117.509 432.73C117.346 432.296 117.099 431.953 116.768 431.701C116.44 431.446 116.027 431.318 115.53 431.318C115.053 431.318 114.652 431.439 114.327 431.681C114.002 431.92 113.757 432.254 113.591 432.685C113.425 433.113 113.342 433.612 113.342 434.182ZM123.927 438.159C123.191 438.159 122.556 437.997 122.023 437.672C121.493 437.344 121.083 436.886 120.795 436.3C120.51 435.71 120.367 435.024 120.367 434.241C120.367 433.459 120.51 432.77 120.795 432.173C121.083 431.573 121.484 431.106 121.998 430.771C122.515 430.433 123.118 430.264 123.808 430.264C124.205 430.264 124.598 430.33 124.986 430.463C125.374 430.596 125.727 430.811 126.045 431.109C126.363 431.404 126.617 431.795 126.805 432.283C126.994 432.77 127.089 433.37 127.089 434.082V434.58H121.203V433.565H125.896C125.896 433.134 125.81 432.75 125.637 432.412C125.468 432.074 125.226 431.807 124.911 431.612C124.6 431.416 124.232 431.318 123.808 431.318C123.34 431.318 122.936 431.434 122.595 431.666C122.256 431.895 121.996 432.193 121.814 432.561C121.632 432.929 121.541 433.323 121.541 433.744V434.42C121.541 434.997 121.64 435.486 121.839 435.887C122.041 436.285 122.321 436.588 122.679 436.797C123.037 437.002 123.453 437.105 123.927 437.105C124.235 437.105 124.514 437.062 124.762 436.976C125.014 436.886 125.231 436.754 125.413 436.578C125.596 436.399 125.737 436.177 125.836 435.912L126.97 436.23C126.85 436.615 126.65 436.953 126.368 437.244C126.086 437.533 125.738 437.758 125.324 437.92C124.91 438.08 124.444 438.159 123.927 438.159ZM128.874 438V430.364H130.007V431.517H130.087C130.226 431.139 130.478 430.833 130.842 430.597C131.207 430.362 131.618 430.244 132.075 430.244C132.162 430.244 132.269 430.246 132.399 430.249C132.528 430.253 132.626 430.258 132.692 430.264V431.457C132.652 431.447 132.561 431.433 132.418 431.413C132.279 431.389 132.132 431.378 131.976 431.378C131.605 431.378 131.273 431.456 130.982 431.612C130.693 431.764 130.465 431.976 130.296 432.248C130.13 432.516 130.047 432.823 130.047 433.168V438H128.874ZM138.179 427.818H139.651L143.111 436.27H143.23L146.691 427.818H148.162V438H147.009V430.264H146.909L143.728 438H142.614L139.432 430.264H139.333V438H138.179V427.818ZM153.677 438.159C152.941 438.159 152.306 437.997 151.773 437.672C151.243 437.344 150.833 436.886 150.545 436.3C150.26 435.71 150.117 435.024 150.117 434.241C150.117 433.459 150.26 432.77 150.545 432.173C150.833 431.573 151.234 431.106 151.748 430.771C152.265 430.433 152.868 430.264 153.558 430.264C153.955 430.264 154.348 430.33 154.736 430.463C155.124 430.596 155.477 430.811 155.795 431.109C156.113 431.404 156.367 431.795 156.555 432.283C156.744 432.77 156.839 433.37 156.839 434.082V434.58H150.953V433.565H155.646C155.646 433.134 155.56 432.75 155.387 432.412C155.218 432.074 154.976 431.807 154.661 431.612C154.35 431.416 153.982 431.318 153.558 431.318C153.09 431.318 152.686 431.434 152.345 431.666C152.006 431.895 151.746 432.193 151.564 432.561C151.382 432.929 151.291 433.323 151.291 433.744V434.42C151.291 434.997 151.39 435.486 151.589 435.887C151.791 436.285 152.071 436.588 152.429 436.797C152.787 437.002 153.203 437.105 153.677 437.105C153.985 437.105 154.264 437.062 154.512 436.976C154.764 436.886 154.981 436.754 155.163 436.578C155.346 436.399 155.487 436.177 155.586 435.912L156.72 436.23C156.6 436.615 156.4 436.953 156.118 437.244C155.836 437.533 155.488 437.758 155.074 437.92C154.66 438.08 154.194 438.159 153.677 438.159Z" fill="#FFFEFE"/>
<rect x="33.75" y="421.75" width="18.5" height="18.5" rx="4.25" stroke="white" stroke-width="1.5"/>
<rect x="77.5" y="702.5" width="239" height="43" rx="13.5" fill="white"/>
<rect x="77.5" y="702.5" width="239" height="43" rx="13.5" stroke="black"/>
<path d="M111.688 724.416C111.688 723.328 111.934 722.352 112.424 721.488C112.915 720.613 113.582 719.931 114.424 719.44C115.278 718.949 116.222 718.704 117.256 718.704C118.472 718.704 119.534 718.997 120.44 719.584C121.347 720.171 122.008 721.003 122.424 722.08H120.68C120.371 721.408 119.923 720.891 119.336 720.528C118.76 720.165 118.067 719.984 117.256 719.984C116.478 719.984 115.779 720.165 115.16 720.528C114.542 720.891 114.056 721.408 113.704 722.08C113.352 722.741 113.176 723.52 113.176 724.416C113.176 725.301 113.352 726.08 113.704 726.752C114.056 727.413 114.542 727.925 115.16 728.288C115.779 728.651 116.478 728.832 117.256 728.832C118.067 728.832 118.76 728.656 119.336 728.304C119.923 727.941 120.371 727.424 120.68 726.752H122.424C122.008 727.819 121.347 728.645 120.44 729.232C119.534 729.808 118.472 730.096 117.256 730.096C116.222 730.096 115.278 729.856 114.424 729.376C113.582 728.885 112.915 728.208 112.424 727.344C111.934 726.48 111.688 725.504 111.688 724.416ZM128.416 730.144C127.594 730.144 126.848 729.957 126.176 729.584C125.514 729.211 124.992 728.683 124.608 728C124.234 727.307 124.048 726.507 124.048 725.6C124.048 724.704 124.24 723.915 124.624 723.232C125.018 722.539 125.552 722.011 126.224 721.648C126.896 721.275 127.648 721.088 128.48 721.088C129.312 721.088 130.064 721.275 130.736 721.648C131.408 722.011 131.936 722.533 132.32 723.216C132.714 723.899 132.912 724.693 132.912 725.6C132.912 726.507 132.709 727.307 132.304 728C131.909 728.683 131.37 729.211 130.688 729.584C130.005 729.957 129.248 730.144 128.416 730.144ZM128.416 728.864C128.938 728.864 129.429 728.741 129.888 728.496C130.346 728.251 130.714 727.883 130.992 727.392C131.28 726.901 131.424 726.304 131.424 725.6C131.424 724.896 131.285 724.299 131.008 723.808C130.73 723.317 130.368 722.955 129.92 722.72C129.472 722.475 128.986 722.352 128.464 722.352C127.93 722.352 127.44 722.475 126.992 722.72C126.554 722.955 126.202 723.317 125.936 723.808C125.669 724.299 125.536 724.896 125.536 725.6C125.536 726.315 125.664 726.917 125.92 727.408C126.186 727.899 126.538 728.267 126.976 728.512C127.413 728.747 127.893 728.864 128.416 728.864ZM139.098 721.072C140.165 721.072 141.029 721.397 141.69 722.048C142.351 722.688 142.682 723.616 142.682 724.832V730H141.242V725.04C141.242 724.165 141.023 723.499 140.586 723.04C140.149 722.571 139.551 722.336 138.794 722.336C138.026 722.336 137.413 722.576 136.954 723.056C136.506 723.536 136.282 724.235 136.282 725.152V730H134.826V721.232H136.282V722.48C136.57 722.032 136.959 721.685 137.45 721.44C137.951 721.195 138.501 721.072 139.098 721.072ZM146.836 722.432V727.6C146.836 728.027 146.927 728.331 147.108 728.512C147.29 728.683 147.604 728.768 148.052 728.768H149.124V730H147.812C147.002 730 146.394 729.813 145.988 729.44C145.583 729.067 145.38 728.453 145.38 727.6V722.432H144.244V721.232H145.38V719.024H146.836V721.232H149.124V722.432H146.836ZM151.641 719.808C151.363 719.808 151.129 719.712 150.937 719.52C150.745 719.328 150.649 719.093 150.649 718.816C150.649 718.539 150.745 718.304 150.937 718.112C151.129 717.92 151.363 717.824 151.641 717.824C151.907 717.824 152.131 717.92 152.313 718.112C152.505 718.304 152.601 718.539 152.601 718.816C152.601 719.093 152.505 719.328 152.313 719.52C152.131 719.712 151.907 719.808 151.641 719.808ZM152.345 721.232V730H150.889V721.232H152.345ZM159.098 721.072C160.165 721.072 161.029 721.397 161.69 722.048C162.351 722.688 162.682 723.616 162.682 724.832V730H161.242V725.04C161.242 724.165 161.023 723.499 160.586 723.04C160.149 722.571 159.551 722.336 158.794 722.336C158.026 722.336 157.413 722.576 156.954 723.056C156.506 723.536 156.282 724.235 156.282 725.152V730H154.826V721.232H156.282V722.48C156.57 722.032 156.959 721.685 157.45 721.44C157.951 721.195 158.501 721.072 159.098 721.072ZM172.836 721.232V730H171.38V728.704C171.103 729.152 170.714 729.504 170.212 729.76C169.722 730.005 169.178 730.128 168.58 730.128C167.898 730.128 167.284 729.989 166.74 729.712C166.196 729.424 165.764 728.997 165.444 728.432C165.135 727.867 164.98 727.179 164.98 726.368V721.232H166.42V726.176C166.42 727.04 166.639 727.707 167.076 728.176C167.514 728.635 168.111 728.864 168.868 728.864C169.647 728.864 170.26 728.624 170.708 728.144C171.156 727.664 171.38 726.965 171.38 726.048V721.232H172.836ZM183.295 725.28C183.295 725.557 183.279 725.851 183.247 726.16H176.239C176.292 727.024 176.585 727.701 177.119 728.192C177.663 728.672 178.319 728.912 179.087 728.912C179.716 728.912 180.239 728.768 180.655 728.48C181.081 728.181 181.38 727.787 181.551 727.296H183.119C182.884 728.139 182.415 728.827 181.711 729.36C181.007 729.883 180.132 730.144 179.087 730.144C178.255 730.144 177.508 729.957 176.847 729.584C176.196 729.211 175.684 728.683 175.311 728C174.937 727.307 174.751 726.507 174.751 725.6C174.751 724.693 174.932 723.899 175.295 723.216C175.657 722.533 176.164 722.011 176.815 721.648C177.476 721.275 178.233 721.088 179.087 721.088C179.919 721.088 180.655 721.269 181.295 721.632C181.935 721.995 182.425 722.496 182.767 723.136C183.119 723.765 183.295 724.48 183.295 725.28ZM181.791 724.976C181.791 724.421 181.668 723.947 181.423 723.552C181.177 723.147 180.841 722.843 180.415 722.64C179.999 722.427 179.535 722.32 179.023 722.32C178.287 722.32 177.657 722.555 177.135 723.024C176.623 723.493 176.329 724.144 176.255 724.976H181.791ZM188.938 725.584C188.938 724.688 189.12 723.904 189.482 723.232C189.845 722.549 190.341 722.021 190.97 721.648C191.61 721.275 192.32 721.088 193.098 721.088C193.866 721.088 194.533 721.253 195.098 721.584C195.664 721.915 196.085 722.331 196.362 722.832V721.232H197.834V730H196.362V728.368C196.074 728.88 195.642 729.307 195.066 729.648C194.501 729.979 193.84 730.144 193.082 730.144C192.304 730.144 191.6 729.952 190.97 729.568C190.341 729.184 189.845 728.645 189.482 727.952C189.12 727.259 188.938 726.469 188.938 725.584ZM196.362 725.6C196.362 724.939 196.229 724.363 195.962 723.872C195.696 723.381 195.333 723.008 194.874 722.752C194.426 722.485 193.93 722.352 193.386 722.352C192.842 722.352 192.346 722.48 191.898 722.736C191.45 722.992 191.093 723.365 190.826 723.856C190.56 724.347 190.426 724.923 190.426 725.584C190.426 726.256 190.56 726.843 190.826 727.344C191.093 727.835 191.45 728.213 191.898 728.48C192.346 728.736 192.842 728.864 193.386 728.864C193.93 728.864 194.426 728.736 194.874 728.48C195.333 728.213 195.696 727.835 195.962 727.344C196.229 726.843 196.362 726.261 196.362 725.6ZM203.399 730.144C202.727 730.144 202.124 730.032 201.591 729.808C201.057 729.573 200.636 729.253 200.327 728.848C200.017 728.432 199.847 727.957 199.815 727.424H201.319C201.361 727.861 201.564 728.219 201.927 728.496C202.3 728.773 202.785 728.912 203.383 728.912C203.937 728.912 204.375 728.789 204.695 728.544C205.015 728.299 205.175 727.989 205.175 727.616C205.175 727.232 205.004 726.949 204.663 726.768C204.321 726.576 203.793 726.389 203.079 726.208C202.428 726.037 201.895 725.867 201.479 725.696C201.073 725.515 200.721 725.253 200.423 724.912C200.135 724.56 199.991 724.101 199.991 723.536C199.991 723.088 200.124 722.677 200.391 722.304C200.657 721.931 201.036 721.637 201.527 721.424C202.017 721.2 202.577 721.088 203.207 721.088C204.177 721.088 204.961 721.333 205.559 721.824C206.156 722.315 206.476 722.987 206.519 723.84H205.063C205.031 723.381 204.844 723.013 204.503 722.736C204.172 722.459 203.724 722.32 203.159 722.32C202.636 722.32 202.22 722.432 201.911 722.656C201.601 722.88 201.447 723.173 201.447 723.536C201.447 723.824 201.537 724.064 201.719 724.256C201.911 724.437 202.145 724.587 202.423 724.704C202.711 724.811 203.105 724.933 203.607 725.072C204.236 725.243 204.748 725.413 205.143 725.584C205.537 725.744 205.873 725.989 206.151 726.32C206.439 726.651 206.588 727.083 206.599 727.616C206.599 728.096 206.465 728.528 206.199 728.912C205.932 729.296 205.553 729.6 205.063 729.824C204.583 730.037 204.028 730.144 203.399 730.144ZM220.568 722.192C220.312 721.723 219.96 721.365 219.512 721.12C219.064 720.875 218.541 720.752 217.944 720.752C217.282 720.752 216.696 720.901 216.184 721.2C215.672 721.499 215.272 721.925 214.984 722.48C214.696 723.035 214.552 723.675 214.552 724.4C214.552 725.147 214.696 725.797 214.984 726.352C215.282 726.907 215.693 727.333 216.216 727.632C216.738 727.931 217.346 728.08 218.04 728.08C218.893 728.08 219.592 727.856 220.136 727.408C220.68 726.949 221.037 726.315 221.208 725.504H217.368V723.792H223.416V725.744C223.266 726.523 222.946 727.243 222.456 727.904C221.965 728.565 221.33 729.099 220.552 729.504C219.784 729.899 218.92 730.096 217.96 730.096C216.882 730.096 215.906 729.856 215.032 729.376C214.168 728.885 213.485 728.208 212.984 727.344C212.493 726.48 212.248 725.499 212.248 724.4C212.248 723.301 212.493 722.32 212.984 721.456C213.485 720.581 214.168 719.904 215.032 719.424C215.906 718.933 216.877 718.688 217.944 718.688C219.202 718.688 220.296 718.997 221.224 719.616C222.152 720.224 222.792 721.083 223.144 722.192H220.568ZM233.441 721.136V730H231.185V728.88C230.897 729.264 230.518 729.568 230.049 729.792C229.59 730.005 229.089 730.112 228.545 730.112C227.852 730.112 227.238 729.968 226.705 729.68C226.172 729.381 225.75 728.949 225.441 728.384C225.142 727.808 224.993 727.125 224.993 726.336V721.136H227.233V726.016C227.233 726.72 227.409 727.264 227.761 727.648C228.113 728.021 228.593 728.208 229.201 728.208C229.82 728.208 230.305 728.021 230.657 727.648C231.009 727.264 231.185 726.72 231.185 726.016V721.136H233.441ZM243.891 725.376C243.891 725.696 243.87 725.984 243.827 726.24H237.347C237.401 726.88 237.625 727.381 238.019 727.744C238.414 728.107 238.899 728.288 239.475 728.288C240.307 728.288 240.899 727.931 241.251 727.216H243.667C243.411 728.069 242.921 728.773 242.195 729.328C241.47 729.872 240.579 730.144 239.523 730.144C238.67 730.144 237.902 729.957 237.219 729.584C236.547 729.2 236.019 728.661 235.635 727.968C235.262 727.275 235.075 726.475 235.075 725.568C235.075 724.651 235.262 723.845 235.635 723.152C236.009 722.459 236.531 721.925 237.203 721.552C237.875 721.179 238.649 720.992 239.523 720.992C240.366 720.992 241.118 721.173 241.779 721.536C242.451 721.899 242.969 722.416 243.331 723.088C243.705 723.749 243.891 724.512 243.891 725.376ZM241.571 724.736C241.561 724.16 241.353 723.701 240.947 723.36C240.542 723.008 240.046 722.832 239.459 722.832C238.905 722.832 238.435 723.003 238.051 723.344C237.678 723.675 237.449 724.139 237.363 724.736H241.571ZM248.918 730.144C248.193 730.144 247.542 730.016 246.966 729.76C246.39 729.493 245.932 729.136 245.59 728.688C245.26 728.24 245.078 727.744 245.046 727.2H247.302C247.345 727.541 247.51 727.824 247.798 728.048C248.097 728.272 248.465 728.384 248.902 728.384C249.329 728.384 249.66 728.299 249.894 728.128C250.14 727.957 250.262 727.739 250.262 727.472C250.262 727.184 250.113 726.971 249.814 726.832C249.526 726.683 249.062 726.523 248.422 726.352C247.761 726.192 247.217 726.027 246.79 725.856C246.374 725.685 246.012 725.424 245.702 725.072C245.404 724.72 245.254 724.245 245.254 723.648C245.254 723.157 245.393 722.709 245.67 722.304C245.958 721.899 246.364 721.579 246.886 721.344C247.42 721.109 248.044 720.992 248.758 720.992C249.814 720.992 250.657 721.259 251.286 721.792C251.916 722.315 252.262 723.024 252.326 723.92H250.182C250.15 723.568 250.001 723.291 249.734 723.088C249.478 722.875 249.132 722.768 248.694 722.768C248.289 722.768 247.974 722.843 247.75 722.992C247.537 723.141 247.43 723.349 247.43 723.616C247.43 723.915 247.58 724.144 247.878 724.304C248.177 724.453 248.641 724.608 249.27 724.768C249.91 724.928 250.438 725.093 250.854 725.264C251.27 725.435 251.628 725.701 251.926 726.064C252.236 726.416 252.396 726.885 252.406 727.472C252.406 727.984 252.262 728.443 251.974 728.848C251.697 729.253 251.292 729.573 250.758 729.808C250.236 730.032 249.622 730.144 248.918 730.144ZM256.853 722.976V727.264C256.853 727.563 256.922 727.781 257.061 727.92C257.21 728.048 257.456 728.112 257.797 728.112H258.837V730H257.429C255.541 730 254.597 729.083 254.597 727.248V722.976H253.541V721.136H254.597V718.944H256.853V721.136H258.837V722.976H256.853Z" fill="#101010"/>
<path d="M277.72 720.53C277.647 720.461 277.588 720.379 277.547 720.287C277.506 720.195 277.484 720.095 277.482 719.995C277.48 719.894 277.499 719.794 277.536 719.7C277.574 719.607 277.63 719.522 277.701 719.451C277.773 719.38 277.857 719.324 277.951 719.286C278.044 719.248 278.144 719.23 278.245 719.231C278.346 719.233 278.445 719.255 278.537 719.296C278.629 719.337 278.712 719.396 278.78 719.47L282.78 723.47C282.921 723.611 283 723.801 283 724C283 724.199 282.921 724.389 282.78 724.53L278.78 728.53C278.712 728.604 278.629 728.663 278.537 728.704C278.445 728.745 278.346 728.767 278.245 728.769C278.144 728.77 278.044 728.752 277.951 728.714C277.857 728.676 277.773 728.62 277.701 728.549C277.63 728.478 277.574 728.393 277.536 728.3C277.499 728.206 277.48 728.106 277.482 728.006C277.484 727.905 277.506 727.805 277.547 727.713C277.588 727.621 277.647 727.539 277.72 727.47L280.44 724.75L270.75 724.75C270.551 724.75 270.361 724.671 270.22 724.53C270.079 724.39 270 724.199 270 724C270 723.801 270.079 723.61 270.22 723.47C270.361 723.329 270.551 723.25 270.75 723.25L280.44 723.25L277.72 720.53Z" fill="#101010"/>
<path d="M255.781 485.617C255.734 485.183 255.539 484.845 255.194 484.603C254.853 484.361 254.409 484.24 253.862 484.24C253.477 484.24 253.148 484.298 252.872 484.414C252.597 484.53 252.387 484.687 252.241 484.886C252.095 485.085 252.021 485.312 252.017 485.567C252.017 485.78 252.065 485.964 252.161 486.119C252.261 486.275 252.395 486.408 252.564 486.517C252.733 486.623 252.92 486.713 253.126 486.786C253.331 486.858 253.539 486.92 253.747 486.969L254.702 487.208C255.086 487.298 255.456 487.419 255.811 487.571C256.169 487.723 256.488 487.916 256.77 488.148C257.055 488.38 257.281 488.66 257.446 488.988C257.612 489.316 257.695 489.701 257.695 490.141C257.695 490.738 257.542 491.263 257.237 491.717C256.933 492.168 256.492 492.521 255.915 492.776C255.342 493.028 254.647 493.154 253.832 493.154C253.04 493.154 252.352 493.031 251.769 492.786C251.189 492.541 250.735 492.183 250.407 491.712C250.082 491.242 249.906 490.668 249.88 489.992H251.694C251.721 490.347 251.83 490.642 252.022 490.877C252.215 491.112 252.465 491.288 252.773 491.404C253.085 491.52 253.433 491.578 253.817 491.578C254.218 491.578 254.569 491.518 254.871 491.399C255.176 491.277 255.415 491.107 255.587 490.892C255.759 490.673 255.847 490.418 255.85 490.126C255.847 489.861 255.769 489.643 255.617 489.47C255.464 489.295 255.251 489.149 254.975 489.033C254.704 488.913 254.385 488.807 254.021 488.714L252.862 488.416C252.024 488.201 251.361 487.874 250.874 487.437C250.39 486.996 250.148 486.411 250.148 485.682C250.148 485.082 250.31 484.557 250.635 484.106C250.963 483.655 251.409 483.305 251.973 483.057C252.536 482.805 253.174 482.679 253.887 482.679C254.609 482.679 255.242 482.805 255.786 483.057C256.333 483.305 256.762 483.652 257.073 484.096C257.385 484.537 257.546 485.044 257.556 485.617H255.781ZM259.26 493V485.364H261.059V493H259.26ZM260.165 484.28C259.879 484.28 259.634 484.185 259.429 483.996C259.223 483.804 259.12 483.574 259.12 483.305C259.12 483.034 259.223 482.803 259.429 482.614C259.634 482.422 259.879 482.326 260.165 482.326C260.453 482.326 260.698 482.422 260.9 482.614C261.106 482.803 261.209 483.034 261.209 483.305C261.209 483.574 261.106 483.804 260.9 483.996C260.698 484.185 260.453 484.28 260.165 484.28ZM266.231 496.023C265.585 496.023 265.03 495.935 264.566 495.759C264.102 495.587 263.729 495.355 263.447 495.063C263.165 494.772 262.97 494.448 262.86 494.094L264.481 493.701C264.554 493.85 264.66 493.998 264.799 494.143C264.938 494.293 265.126 494.415 265.361 494.511C265.6 494.611 265.9 494.661 266.261 494.661C266.771 494.661 267.194 494.536 267.529 494.288C267.863 494.042 268.031 493.638 268.031 493.075V491.628H267.941C267.849 491.813 267.713 492.004 267.534 492.2C267.358 492.395 267.124 492.559 266.833 492.692C266.544 492.824 266.181 492.891 265.744 492.891C265.157 492.891 264.625 492.753 264.148 492.478C263.674 492.2 263.296 491.785 263.014 491.235C262.736 490.682 262.597 489.989 262.597 489.157C262.597 488.318 262.736 487.611 263.014 487.034C263.296 486.454 263.676 486.015 264.153 485.717C264.63 485.415 265.162 485.264 265.749 485.264C266.196 485.264 266.564 485.34 266.853 485.493C267.144 485.642 267.376 485.823 267.549 486.035C267.721 486.244 267.852 486.441 267.941 486.626H268.041V485.364H269.816V493.124C269.816 493.777 269.66 494.317 269.348 494.745C269.037 495.173 268.611 495.492 268.071 495.705C267.53 495.917 266.917 496.023 266.231 496.023ZM266.246 491.479C266.627 491.479 266.952 491.386 267.22 491.2C267.489 491.015 267.693 490.748 267.832 490.4C267.971 490.052 268.041 489.634 268.041 489.147C268.041 488.666 267.971 488.246 267.832 487.884C267.696 487.523 267.494 487.243 267.225 487.044C266.96 486.842 266.634 486.741 266.246 486.741C265.845 486.741 265.51 486.845 265.242 487.054C264.973 487.263 264.771 487.549 264.635 487.914C264.499 488.275 264.431 488.686 264.431 489.147C264.431 489.614 264.499 490.024 264.635 490.375C264.774 490.723 264.978 490.995 265.247 491.19C265.518 491.383 265.852 491.479 266.246 491.479ZM273.46 488.526V493H271.66V485.364H273.38V486.661H273.47C273.645 486.234 273.925 485.894 274.31 485.642C274.698 485.39 275.177 485.264 275.747 485.264C276.274 485.264 276.733 485.377 277.124 485.602C277.518 485.828 277.823 486.154 278.039 486.582C278.257 487.009 278.365 487.528 278.362 488.138V493H276.562V488.416C276.562 487.906 276.429 487.506 276.164 487.218C275.902 486.93 275.54 486.786 275.076 486.786C274.761 486.786 274.481 486.855 274.235 486.994C273.993 487.13 273.803 487.327 273.664 487.586C273.528 487.844 273.46 488.158 273.46 488.526ZM290.162 482.818H292.006V489.47C292.006 490.199 291.834 490.841 291.489 491.394C291.148 491.948 290.667 492.38 290.047 492.692C289.428 493 288.704 493.154 287.875 493.154C287.043 493.154 286.317 493 285.697 492.692C285.078 492.38 284.597 491.948 284.256 491.394C283.914 490.841 283.744 490.199 283.744 489.47V482.818H285.588V489.316C285.588 489.74 285.681 490.118 285.866 490.45C286.055 490.781 286.32 491.041 286.662 491.23C287.003 491.416 287.408 491.509 287.875 491.509C288.342 491.509 288.747 491.416 289.088 491.23C289.433 491.041 289.698 490.781 289.883 490.45C290.069 490.118 290.162 489.74 290.162 489.316V482.818ZM293.932 495.864V485.364H295.701V486.626H295.806C295.899 486.441 296.03 486.244 296.199 486.035C296.368 485.823 296.596 485.642 296.885 485.493C297.173 485.34 297.541 485.264 297.988 485.264C298.578 485.264 299.11 485.415 299.584 485.717C300.062 486.015 300.439 486.457 300.718 487.044C300.999 487.627 301.14 488.343 301.14 489.192C301.14 490.03 301.003 490.743 300.728 491.33C300.453 491.916 300.078 492.364 299.604 492.672C299.13 492.98 298.593 493.134 297.993 493.134C297.556 493.134 297.193 493.061 296.905 492.915C296.616 492.77 296.384 492.594 296.209 492.388C296.036 492.18 295.902 491.982 295.806 491.797H295.731V495.864H293.932ZM295.696 489.182C295.696 489.676 295.766 490.108 295.905 490.479C296.048 490.851 296.252 491.141 296.517 491.349C296.785 491.555 297.11 491.658 297.491 491.658C297.889 491.658 298.222 491.552 298.491 491.339C298.759 491.124 298.961 490.831 299.097 490.46C299.236 490.085 299.306 489.659 299.306 489.182C299.306 488.708 299.238 488.287 299.102 487.919C298.966 487.551 298.764 487.263 298.495 487.054C298.227 486.845 297.892 486.741 297.491 486.741C297.107 486.741 296.78 486.842 296.512 487.044C296.243 487.246 296.04 487.53 295.9 487.894C295.764 488.259 295.696 488.688 295.696 489.182Z" fill="white"/>
<path d="M96.6123 493H93.4703V482.818H96.7515C97.7392 482.818 98.5844 483.022 99.287 483.43C99.9897 483.834 100.528 484.416 100.903 485.175C101.277 485.93 101.465 486.835 101.465 487.889C101.465 488.95 101.276 489.863 100.898 490.629C100.52 491.391 99.9698 491.978 99.2472 492.388C98.5247 492.796 97.6464 493 96.6123 493ZM94.7032 491.906H96.5328C97.3746 491.906 98.0723 491.744 98.6258 491.419C99.1793 491.094 99.5919 490.632 99.8637 490.032C100.136 489.432 100.271 488.718 100.271 487.889C100.271 487.067 100.137 486.36 99.8687 485.766C99.6002 485.17 99.1992 484.712 98.6656 484.394C98.132 484.073 97.4674 483.912 96.672 483.912H94.7032V491.906ZM106.476 493.159C105.787 493.159 105.182 492.995 104.661 492.667C104.144 492.339 103.74 491.88 103.448 491.29C103.16 490.7 103.016 490.01 103.016 489.222C103.016 488.426 103.16 487.732 103.448 487.138C103.74 486.545 104.144 486.085 104.661 485.756C105.182 485.428 105.787 485.264 106.476 485.264C107.165 485.264 107.769 485.428 108.286 485.756C108.806 486.085 109.21 486.545 109.499 487.138C109.79 487.732 109.936 488.426 109.936 489.222C109.936 490.01 109.79 490.7 109.499 491.29C109.21 491.88 108.806 492.339 108.286 492.667C107.769 492.995 107.165 493.159 106.476 493.159ZM106.476 492.105C107 492.105 107.43 491.971 107.769 491.702C108.107 491.434 108.357 491.081 108.519 490.643C108.682 490.206 108.763 489.732 108.763 489.222C108.763 488.711 108.682 488.236 108.519 487.795C108.357 487.354 108.107 486.998 107.769 486.726C107.43 486.454 107 486.318 106.476 486.318C105.952 486.318 105.521 486.454 105.183 486.726C104.845 486.998 104.595 487.354 104.433 487.795C104.27 488.236 104.189 488.711 104.189 489.222C104.189 489.732 104.27 490.206 104.433 490.643C104.595 491.081 104.845 491.434 105.183 491.702C105.521 491.971 105.952 492.105 106.476 492.105ZM112.9 488.406V493H111.727V485.364H112.861V486.557H112.96C113.139 486.169 113.411 485.857 113.775 485.622C114.14 485.384 114.611 485.264 115.187 485.264C115.704 485.264 116.157 485.37 116.545 485.582C116.932 485.791 117.234 486.109 117.449 486.537C117.665 486.961 117.773 487.498 117.773 488.148V493H116.599V488.227C116.599 487.627 116.444 487.16 116.132 486.825C115.82 486.487 115.393 486.318 114.849 486.318C114.475 486.318 114.14 486.399 113.845 486.562C113.553 486.724 113.323 486.961 113.154 487.273C112.985 487.584 112.9 487.962 112.9 488.406ZM123.238 485.364V486.358H119.28V485.364H123.238ZM120.434 483.534H121.607V490.812C121.607 491.144 121.655 491.393 121.751 491.558C121.851 491.721 121.977 491.83 122.129 491.886C122.285 491.939 122.449 491.966 122.621 491.966C122.75 491.966 122.857 491.959 122.939 491.946C123.022 491.929 123.089 491.916 123.138 491.906L123.377 492.96C123.297 492.99 123.186 493.02 123.044 493.05C122.901 493.083 122.721 493.099 122.502 493.099C122.17 493.099 121.846 493.028 121.527 492.886C121.213 492.743 120.951 492.526 120.742 492.234C120.536 491.943 120.434 491.575 120.434 491.131V483.534ZM130.113 488.406V493H128.94V482.818H130.113V486.557H130.213C130.392 486.162 130.66 485.849 131.018 485.617C131.379 485.382 131.86 485.264 132.46 485.264C132.98 485.264 133.436 485.369 133.827 485.577C134.218 485.783 134.522 486.099 134.737 486.527C134.956 486.951 135.065 487.491 135.065 488.148V493H133.892V488.227C133.892 487.621 133.734 487.152 133.419 486.82C133.108 486.486 132.675 486.318 132.122 486.318C131.737 486.318 131.393 486.399 131.088 486.562C130.786 486.724 130.548 486.961 130.372 487.273C130.2 487.584 130.113 487.962 130.113 488.406ZM139.459 493.179C138.975 493.179 138.536 493.088 138.141 492.906C137.747 492.72 137.434 492.453 137.202 492.105C136.97 491.754 136.854 491.33 136.854 490.832C136.854 490.395 136.94 490.04 137.112 489.768C137.284 489.493 137.515 489.278 137.803 489.122C138.092 488.966 138.41 488.85 138.758 488.774C139.109 488.695 139.462 488.632 139.817 488.585C140.281 488.526 140.657 488.481 140.945 488.451C141.237 488.418 141.449 488.363 141.582 488.287C141.717 488.211 141.785 488.078 141.785 487.889V487.849C141.785 487.359 141.651 486.978 141.383 486.706C141.118 486.434 140.715 486.298 140.175 486.298C139.614 486.298 139.175 486.421 138.857 486.666C138.539 486.911 138.315 487.173 138.186 487.452L137.072 487.054C137.271 486.59 137.536 486.229 137.868 485.97C138.203 485.708 138.567 485.526 138.962 485.423C139.359 485.317 139.75 485.264 140.135 485.264C140.38 485.264 140.662 485.294 140.98 485.354C141.302 485.41 141.611 485.528 141.91 485.707C142.211 485.886 142.462 486.156 142.66 486.517C142.859 486.878 142.959 487.362 142.959 487.969V493H141.785V491.966H141.726C141.646 492.132 141.514 492.309 141.328 492.498C141.142 492.687 140.896 492.848 140.587 492.98C140.279 493.113 139.903 493.179 139.459 493.179ZM139.638 492.125C140.102 492.125 140.493 492.034 140.811 491.852C141.132 491.669 141.374 491.434 141.537 491.146C141.703 490.857 141.785 490.554 141.785 490.236V489.162C141.736 489.222 141.626 489.276 141.457 489.326C141.292 489.372 141.099 489.414 140.881 489.45C140.665 489.483 140.455 489.513 140.249 489.54C140.047 489.563 139.883 489.583 139.757 489.599C139.452 489.639 139.167 489.704 138.902 489.793C138.64 489.879 138.428 490.01 138.266 490.186C138.106 490.358 138.027 490.594 138.027 490.892C138.027 491.3 138.178 491.608 138.479 491.817C138.784 492.022 139.17 492.125 139.638 492.125ZM151.071 485.364L148.247 493H147.054L144.23 485.364H145.503L147.611 491.449H147.69L149.798 485.364H151.071ZM155.548 493.159C154.812 493.159 154.178 492.997 153.644 492.672C153.114 492.344 152.704 491.886 152.416 491.3C152.131 490.71 151.988 490.024 151.988 489.241C151.988 488.459 152.131 487.77 152.416 487.173C152.704 486.573 153.105 486.106 153.619 485.771C154.136 485.433 154.739 485.264 155.429 485.264C155.826 485.264 156.219 485.33 156.607 485.463C156.995 485.596 157.348 485.811 157.666 486.109C157.984 486.404 158.238 486.795 158.427 487.283C158.616 487.77 158.71 488.37 158.71 489.082V489.58H152.824V488.565H157.517C157.517 488.134 157.431 487.75 157.258 487.412C157.089 487.074 156.847 486.807 156.532 486.612C156.221 486.416 155.853 486.318 155.429 486.318C154.961 486.318 154.557 486.434 154.216 486.666C153.878 486.895 153.617 487.193 153.435 487.561C153.253 487.929 153.162 488.323 153.162 488.744V489.42C153.162 489.997 153.261 490.486 153.46 490.887C153.662 491.285 153.942 491.588 154.3 491.797C154.658 492.002 155.074 492.105 155.548 492.105C155.856 492.105 156.135 492.062 156.383 491.976C156.635 491.886 156.852 491.754 157.035 491.578C157.217 491.399 157.358 491.177 157.457 490.912L158.591 491.23C158.471 491.615 158.271 491.953 157.989 492.244C157.707 492.533 157.359 492.758 156.945 492.92C156.531 493.08 156.065 493.159 155.548 493.159ZM166.679 493.179C166.196 493.179 165.756 493.088 165.362 492.906C164.968 492.72 164.654 492.453 164.422 492.105C164.19 491.754 164.074 491.33 164.074 490.832C164.074 490.395 164.16 490.04 164.333 489.768C164.505 489.493 164.736 489.278 165.024 489.122C165.312 488.966 165.63 488.85 165.978 488.774C166.33 488.695 166.683 488.632 167.037 488.585C167.501 488.526 167.878 488.481 168.166 488.451C168.458 488.418 168.67 488.363 168.802 488.287C168.938 488.211 169.006 488.078 169.006 487.889V487.849C169.006 487.359 168.872 486.978 168.603 486.706C168.338 486.434 167.936 486.298 167.395 486.298C166.835 486.298 166.396 486.421 166.078 486.666C165.76 486.911 165.536 487.173 165.407 487.452L164.293 487.054C164.492 486.59 164.757 486.229 165.089 485.97C165.423 485.708 165.788 485.526 166.182 485.423C166.58 485.317 166.971 485.264 167.356 485.264C167.601 485.264 167.883 485.294 168.201 485.354C168.522 485.41 168.832 485.528 169.13 485.707C169.432 485.886 169.682 486.156 169.881 486.517C170.08 486.878 170.179 487.362 170.179 487.969V493H169.006V491.966H168.946C168.867 492.132 168.734 492.309 168.549 492.498C168.363 492.687 168.116 492.848 167.808 492.98C167.5 493.113 167.124 493.179 166.679 493.179ZM166.858 492.125C167.322 492.125 167.714 492.034 168.032 491.852C168.353 491.669 168.595 491.434 168.758 491.146C168.923 490.857 169.006 490.554 169.006 490.236V489.162C168.956 489.222 168.847 489.276 168.678 489.326C168.512 489.372 168.32 489.414 168.101 489.45C167.886 489.483 167.675 489.513 167.47 489.54C167.268 489.563 167.104 489.583 166.978 489.599C166.673 489.639 166.388 489.704 166.123 489.793C165.861 489.879 165.649 490.01 165.486 490.186C165.327 490.358 165.248 490.594 165.248 490.892C165.248 491.3 165.398 491.608 165.7 491.817C166.005 492.022 166.391 492.125 166.858 492.125ZM173.494 488.406V493H172.321V485.364H173.454V486.557H173.554C173.733 486.169 174.005 485.857 174.369 485.622C174.734 485.384 175.204 485.264 175.781 485.264C176.298 485.264 176.751 485.37 177.138 485.582C177.526 485.791 177.828 486.109 178.043 486.537C178.259 486.961 178.366 487.498 178.366 488.148V493H177.193V488.227C177.193 487.627 177.037 487.16 176.726 486.825C176.414 486.487 175.987 486.318 175.443 486.318C175.069 486.318 174.734 486.399 174.439 486.562C174.147 486.724 173.917 486.961 173.748 487.273C173.579 487.584 173.494 487.962 173.494 488.406ZM186.695 493.179C186.211 493.179 185.772 493.088 185.378 492.906C184.983 492.72 184.67 492.453 184.438 492.105C184.206 491.754 184.09 491.33 184.09 490.832C184.09 490.395 184.176 490.04 184.348 489.768C184.521 489.493 184.751 489.278 185.04 489.122C185.328 488.966 185.646 488.85 185.994 488.774C186.345 488.695 186.698 488.632 187.053 488.585C187.517 488.526 187.893 488.481 188.182 488.451C188.473 488.418 188.685 488.363 188.818 488.287C188.954 488.211 189.022 488.078 189.022 487.889V487.849C189.022 487.359 188.888 486.978 188.619 486.706C188.354 486.434 187.951 486.298 187.411 486.298C186.851 486.298 186.412 486.421 186.093 486.666C185.775 486.911 185.552 487.173 185.422 487.452L184.309 487.054C184.508 486.59 184.773 486.229 185.104 485.97C185.439 485.708 185.803 485.526 186.198 485.423C186.596 485.317 186.987 485.264 187.371 485.264C187.616 485.264 187.898 485.294 188.216 485.354C188.538 485.41 188.848 485.528 189.146 485.707C189.448 485.886 189.698 486.156 189.897 486.517C190.096 486.878 190.195 487.362 190.195 487.969V493H189.022V491.966H188.962C188.883 492.132 188.75 492.309 188.564 492.498C188.379 492.687 188.132 492.848 187.824 492.98C187.515 493.113 187.139 493.179 186.695 493.179ZM186.874 492.125C187.338 492.125 187.729 492.034 188.047 491.852C188.369 491.669 188.611 491.434 188.773 491.146C188.939 490.857 189.022 490.554 189.022 490.236V489.162C188.972 489.222 188.863 489.276 188.694 489.326C188.528 489.372 188.336 489.414 188.117 489.45C187.901 489.483 187.691 489.513 187.486 489.54C187.283 489.563 187.119 489.583 186.993 489.599C186.688 489.639 186.403 489.704 186.138 489.793C185.876 489.879 185.664 490.01 185.502 490.186C185.343 490.358 185.263 490.594 185.263 490.892C185.263 491.3 185.414 491.608 185.716 491.817C186.021 492.022 186.407 492.125 186.874 492.125ZM195.439 493.159C194.723 493.159 194.106 492.99 193.589 492.652C193.072 492.314 192.675 491.848 192.396 491.255C192.118 490.662 191.979 489.984 191.979 489.222C191.979 488.446 192.121 487.762 192.406 487.168C192.695 486.572 193.096 486.106 193.609 485.771C194.126 485.433 194.73 485.264 195.419 485.264C195.956 485.264 196.44 485.364 196.871 485.562C197.302 485.761 197.655 486.04 197.93 486.398C198.205 486.756 198.375 487.173 198.442 487.651H197.268C197.179 487.303 196.98 486.994 196.672 486.726C196.367 486.454 195.956 486.318 195.439 486.318C194.981 486.318 194.58 486.437 194.236 486.676C193.894 486.911 193.628 487.245 193.435 487.675C193.246 488.103 193.152 488.605 193.152 489.182C193.152 489.772 193.245 490.286 193.43 490.723C193.619 491.161 193.884 491.5 194.226 491.742C194.57 491.984 194.975 492.105 195.439 492.105C195.744 492.105 196.021 492.052 196.269 491.946C196.518 491.84 196.728 491.688 196.9 491.489C197.073 491.29 197.195 491.051 197.268 490.773H198.442C198.375 491.223 198.211 491.629 197.949 491.991C197.691 492.349 197.348 492.634 196.92 492.846C196.496 493.055 196.002 493.159 195.439 493.159ZM203.259 493.159C202.543 493.159 201.927 492.99 201.41 492.652C200.893 492.314 200.495 491.848 200.217 491.255C199.938 490.662 199.799 489.984 199.799 489.222C199.799 488.446 199.941 487.762 200.226 487.168C200.515 486.572 200.916 486.106 201.43 485.771C201.947 485.433 202.55 485.264 203.239 485.264C203.776 485.264 204.26 485.364 204.691 485.562C205.122 485.761 205.475 486.04 205.75 486.398C206.025 486.756 206.196 487.173 206.262 487.651H205.089C204.999 487.303 204.8 486.994 204.492 486.726C204.187 486.454 203.776 486.318 203.259 486.318C202.802 486.318 202.401 486.437 202.056 486.676C201.715 486.911 201.448 487.245 201.256 487.675C201.067 488.103 200.972 488.605 200.972 489.182C200.972 489.772 201.065 490.286 201.251 490.723C201.44 491.161 201.705 491.5 202.046 491.742C202.391 491.984 202.795 492.105 203.259 492.105C203.564 492.105 203.841 492.052 204.089 491.946C204.338 491.84 204.548 491.688 204.721 491.489C204.893 491.29 205.016 491.051 205.089 490.773H206.262C206.196 491.223 206.032 491.629 205.77 491.991C205.511 492.349 205.168 492.634 204.741 492.846C204.316 493.055 203.823 493.159 203.259 493.159ZM211.079 493.159C210.39 493.159 209.785 492.995 209.265 492.667C208.748 492.339 208.343 491.88 208.052 491.29C207.763 490.7 207.619 490.01 207.619 489.222C207.619 488.426 207.763 487.732 208.052 487.138C208.343 486.545 208.748 486.085 209.265 485.756C209.785 485.428 210.39 485.264 211.079 485.264C211.769 485.264 212.372 485.428 212.889 485.756C213.409 486.085 213.814 486.545 214.102 487.138C214.394 487.732 214.54 488.426 214.54 489.222C214.54 490.01 214.394 490.7 214.102 491.29C213.814 491.88 213.409 492.339 212.889 492.667C212.372 492.995 211.769 493.159 211.079 493.159ZM211.079 492.105C211.603 492.105 212.034 491.971 212.372 491.702C212.71 491.434 212.96 491.081 213.123 490.643C213.285 490.206 213.366 489.732 213.366 489.222C213.366 488.711 213.285 488.236 213.123 487.795C212.96 487.354 212.71 486.998 212.372 486.726C212.034 486.454 211.603 486.318 211.079 486.318C210.556 486.318 210.125 486.454 209.787 486.726C209.449 486.998 209.199 487.354 209.036 487.795C208.874 488.236 208.793 488.711 208.793 489.222C208.793 489.732 208.874 490.206 209.036 490.643C209.199 491.081 209.449 491.434 209.787 491.702C210.125 491.971 210.556 492.105 211.079 492.105ZM221.143 489.878V485.364H222.316V493H221.143V491.707H221.064C220.885 492.095 220.606 492.425 220.228 492.697C219.851 492.965 219.373 493.099 218.797 493.099C218.319 493.099 217.895 492.995 217.524 492.786C217.153 492.574 216.861 492.256 216.649 491.832C216.437 491.404 216.331 490.866 216.331 490.216V485.364H217.504V490.136C217.504 490.693 217.66 491.137 217.971 491.469C218.286 491.8 218.687 491.966 219.174 491.966C219.466 491.966 219.763 491.891 220.064 491.742C220.369 491.593 220.624 491.364 220.83 491.056C221.039 490.748 221.143 490.355 221.143 489.878ZM225.639 488.406V493H224.465V485.364H225.599V486.557H225.698C225.877 486.169 226.149 485.857 226.514 485.622C226.878 485.384 227.349 485.264 227.926 485.264C228.443 485.264 228.895 485.37 229.283 485.582C229.671 485.791 229.972 486.109 230.188 486.537C230.403 486.961 230.511 487.498 230.511 488.148V493H229.338V488.227C229.338 487.627 229.182 487.16 228.87 486.825C228.559 486.487 228.131 486.318 227.588 486.318C227.213 486.318 226.878 486.399 226.583 486.562C226.292 486.724 226.061 486.961 225.892 487.273C225.723 487.584 225.639 487.962 225.639 488.406ZM235.976 485.364V486.358H232.019V485.364H235.976ZM233.172 483.534H234.345V490.812C234.345 491.144 234.393 491.393 234.489 491.558C234.589 491.721 234.715 491.83 234.867 491.886C235.023 491.939 235.187 491.966 235.359 491.966C235.489 491.966 235.595 491.959 235.678 491.946C235.761 491.929 235.827 491.916 235.877 491.906L236.115 492.96C236.036 492.99 235.925 493.02 235.782 493.05C235.64 493.083 235.459 493.099 235.24 493.099C234.909 493.099 234.584 493.028 234.266 492.886C233.951 492.743 233.689 492.526 233.48 492.234C233.275 491.943 233.172 491.575 233.172 491.131V483.534ZM239.272 490.136V490.077C239.279 489.444 239.345 488.94 239.471 488.565C239.597 488.191 239.776 487.888 240.008 487.656C240.24 487.424 240.518 487.21 240.843 487.014C241.039 486.895 241.214 486.754 241.37 486.592C241.526 486.426 241.649 486.235 241.738 486.02C241.831 485.804 241.877 485.566 241.877 485.304C241.877 484.979 241.801 484.697 241.649 484.459C241.496 484.22 241.292 484.036 241.037 483.907C240.782 483.778 240.498 483.713 240.187 483.713C239.915 483.713 239.653 483.769 239.401 483.882C239.149 483.995 238.939 484.172 238.77 484.414C238.601 484.656 238.503 484.973 238.477 485.364H237.224C237.25 484.8 237.396 484.318 237.661 483.917C237.93 483.516 238.283 483.209 238.72 482.997C239.161 482.785 239.65 482.679 240.187 482.679C240.77 482.679 241.277 482.795 241.708 483.027C242.142 483.259 242.477 483.577 242.712 483.982C242.951 484.386 243.07 484.847 243.07 485.364C243.07 485.728 243.014 486.058 242.901 486.353C242.792 486.648 242.633 486.911 242.424 487.143C242.219 487.375 241.97 487.581 241.678 487.76C241.387 487.942 241.153 488.134 240.977 488.337C240.802 488.536 240.674 488.772 240.595 489.048C240.515 489.323 240.472 489.666 240.465 490.077V490.136H239.272ZM239.908 493.08C239.663 493.08 239.453 492.992 239.277 492.816C239.101 492.64 239.014 492.43 239.014 492.185C239.014 491.939 239.101 491.729 239.277 491.553C239.453 491.378 239.663 491.29 239.908 491.29C240.154 491.29 240.364 491.378 240.54 491.553C240.716 491.729 240.803 491.939 240.803 492.185C240.803 492.347 240.762 492.496 240.679 492.632C240.6 492.768 240.492 492.877 240.356 492.96C240.223 493.04 240.074 493.08 239.908 493.08Z" fill="#FFFEFE"/>
<path d="M286.751 417.03V417.77H283.721V420.12H286.181V420.86H283.721V424H282.811V417.03H286.751ZM290.24 424.09C289.727 424.09 289.26 423.973 288.84 423.74C288.427 423.507 288.1 423.177 287.86 422.75C287.627 422.317 287.51 421.817 287.51 421.25C287.51 420.69 287.63 420.197 287.87 419.77C288.117 419.337 288.45 419.007 288.87 418.78C289.29 418.547 289.76 418.43 290.28 418.43C290.8 418.43 291.27 418.547 291.69 418.78C292.11 419.007 292.44 419.333 292.68 419.76C292.927 420.187 293.05 420.683 293.05 421.25C293.05 421.817 292.923 422.317 292.67 422.75C292.423 423.177 292.087 423.507 291.66 423.74C291.233 423.973 290.76 424.09 290.24 424.09ZM290.24 423.29C290.567 423.29 290.873 423.213 291.16 423.06C291.447 422.907 291.677 422.677 291.85 422.37C292.03 422.063 292.12 421.69 292.12 421.25C292.12 420.81 292.033 420.437 291.86 420.13C291.687 419.823 291.46 419.597 291.18 419.45C290.9 419.297 290.597 419.22 290.27 419.22C289.937 419.22 289.63 419.297 289.35 419.45C289.077 419.597 288.857 419.823 288.69 420.13C288.523 420.437 288.44 420.81 288.44 421.25C288.44 421.697 288.52 422.073 288.68 422.38C288.847 422.687 289.067 422.917 289.34 423.07C289.613 423.217 289.913 423.29 290.24 423.29ZM295.157 419.41C295.317 419.097 295.543 418.853 295.837 418.68C296.137 418.507 296.5 418.42 296.927 418.42V419.36H296.687C295.667 419.36 295.157 419.913 295.157 421.02V424H294.247V418.52H295.157V419.41ZM300.237 418.43C300.71 418.43 301.124 418.533 301.477 418.74C301.837 418.947 302.104 419.207 302.277 419.52V418.52H303.197V424.12C303.197 424.62 303.09 425.063 302.877 425.45C302.664 425.843 302.357 426.15 301.957 426.37C301.564 426.59 301.104 426.7 300.577 426.7C299.857 426.7 299.257 426.53 298.777 426.19C298.297 425.85 298.014 425.387 297.927 424.8H298.827C298.927 425.133 299.134 425.4 299.447 425.6C299.76 425.807 300.137 425.91 300.577 425.91C301.077 425.91 301.484 425.753 301.797 425.44C302.117 425.127 302.277 424.687 302.277 424.12V422.97C302.097 423.29 301.83 423.557 301.477 423.77C301.124 423.983 300.71 424.09 300.237 424.09C299.75 424.09 299.307 423.97 298.907 423.73C298.514 423.49 298.204 423.153 297.977 422.72C297.75 422.287 297.637 421.793 297.637 421.24C297.637 420.68 297.75 420.19 297.977 419.77C298.204 419.343 298.514 419.013 298.907 418.78C299.307 418.547 299.75 418.43 300.237 418.43ZM302.277 421.25C302.277 420.837 302.194 420.477 302.027 420.17C301.86 419.863 301.634 419.63 301.347 419.47C301.067 419.303 300.757 419.22 300.417 419.22C300.077 419.22 299.767 419.3 299.487 419.46C299.207 419.62 298.984 419.853 298.817 420.16C298.65 420.467 298.567 420.827 298.567 421.24C298.567 421.66 298.65 422.027 298.817 422.34C298.984 422.647 299.207 422.883 299.487 423.05C299.767 423.21 300.077 423.29 300.417 423.29C300.757 423.29 301.067 423.21 301.347 423.05C301.634 422.883 301.86 422.647 302.027 422.34C302.194 422.027 302.277 421.663 302.277 421.25ZM307.125 424.09C306.612 424.09 306.145 423.973 305.725 423.74C305.312 423.507 304.985 423.177 304.745 422.75C304.512 422.317 304.395 421.817 304.395 421.25C304.395 420.69 304.515 420.197 304.755 419.77C305.002 419.337 305.335 419.007 305.755 418.78C306.175 418.547 306.645 418.43 307.165 418.43C307.685 418.43 308.155 418.547 308.575 418.78C308.995 419.007 309.325 419.333 309.565 419.76C309.812 420.187 309.935 420.683 309.935 421.25C309.935 421.817 309.808 422.317 309.555 422.75C309.308 423.177 308.972 423.507 308.545 423.74C308.118 423.973 307.645 424.09 307.125 424.09ZM307.125 423.29C307.452 423.29 307.758 423.213 308.045 423.06C308.332 422.907 308.562 422.677 308.735 422.37C308.915 422.063 309.005 421.69 309.005 421.25C309.005 420.81 308.918 420.437 308.745 420.13C308.572 419.823 308.345 419.597 308.065 419.45C307.785 419.297 307.482 419.22 307.155 419.22C306.822 419.22 306.515 419.297 306.235 419.45C305.962 419.597 305.742 419.823 305.575 420.13C305.408 420.437 305.325 420.81 305.325 421.25C305.325 421.697 305.405 422.073 305.565 422.38C305.732 422.687 305.952 422.917 306.225 423.07C306.498 423.217 306.798 423.29 307.125 423.29ZM312.241 419.27V422.5C312.241 422.767 312.298 422.957 312.411 423.07C312.525 423.177 312.721 423.23 313.001 423.23H313.671V424H312.851C312.345 424 311.965 423.883 311.711 423.65C311.458 423.417 311.331 423.033 311.331 422.5V419.27H310.621V418.52H311.331V417.14H312.241V418.52H313.671V419.27H312.241ZM322.1 419.07C322.1 419.65 321.9 420.133 321.5 420.52C321.107 420.9 320.503 421.09 319.69 421.09H318.35V424H317.44V417.03H319.69C320.477 417.03 321.073 417.22 321.48 417.6C321.893 417.98 322.1 418.47 322.1 419.07ZM319.69 420.34C320.197 420.34 320.57 420.23 320.81 420.01C321.05 419.79 321.17 419.477 321.17 419.07C321.17 418.21 320.677 417.78 319.69 417.78H318.35V420.34H319.69ZM322.891 421.24C322.891 420.68 323.004 420.19 323.231 419.77C323.458 419.343 323.768 419.013 324.161 418.78C324.561 418.547 325.004 418.43 325.491 418.43C325.971 418.43 326.388 418.533 326.741 418.74C327.094 418.947 327.358 419.207 327.531 419.52V418.52H328.451V424H327.531V422.98C327.351 423.3 327.081 423.567 326.721 423.78C326.368 423.987 325.954 424.09 325.481 424.09C324.994 424.09 324.554 423.97 324.161 423.73C323.768 423.49 323.458 423.153 323.231 422.72C323.004 422.287 322.891 421.793 322.891 421.24ZM327.531 421.25C327.531 420.837 327.448 420.477 327.281 420.17C327.114 419.863 326.888 419.63 326.601 419.47C326.321 419.303 326.011 419.22 325.671 419.22C325.331 419.22 325.021 419.3 324.741 419.46C324.461 419.62 324.238 419.853 324.071 420.16C323.904 420.467 323.821 420.827 323.821 421.24C323.821 421.66 323.904 422.027 324.071 422.34C324.238 422.647 324.461 422.883 324.741 423.05C325.021 423.21 325.331 423.29 325.671 423.29C326.011 423.29 326.321 423.21 326.601 423.05C326.888 422.883 327.114 422.647 327.281 422.34C327.448 422.027 327.531 421.663 327.531 421.25ZM331.929 424.09C331.509 424.09 331.132 424.02 330.799 423.88C330.465 423.733 330.202 423.533 330.009 423.28C329.815 423.02 329.709 422.723 329.689 422.39H330.629C330.655 422.663 330.782 422.887 331.009 423.06C331.242 423.233 331.545 423.32 331.919 423.32C332.265 423.32 332.539 423.243 332.739 423.09C332.939 422.937 333.039 422.743 333.039 422.51C333.039 422.27 332.932 422.093 332.719 421.98C332.505 421.86 332.175 421.743 331.729 421.63C331.322 421.523 330.989 421.417 330.729 421.31C330.475 421.197 330.255 421.033 330.069 420.82C329.889 420.6 329.799 420.313 329.799 419.96C329.799 419.68 329.882 419.423 330.049 419.19C330.215 418.957 330.452 418.773 330.759 418.64C331.065 418.5 331.415 418.43 331.809 418.43C332.415 418.43 332.905 418.583 333.279 418.89C333.652 419.197 333.852 419.617 333.879 420.15H332.969C332.949 419.863 332.832 419.633 332.619 419.46C332.412 419.287 332.132 419.2 331.779 419.2C331.452 419.2 331.192 419.27 330.999 419.41C330.805 419.55 330.709 419.733 330.709 419.96C330.709 420.14 330.765 420.29 330.879 420.41C330.999 420.523 331.145 420.617 331.319 420.69C331.499 420.757 331.745 420.833 332.059 420.92C332.452 421.027 332.772 421.133 333.019 421.24C333.265 421.34 333.475 421.493 333.649 421.7C333.829 421.907 333.922 422.177 333.929 422.51C333.929 422.81 333.845 423.08 333.679 423.32C333.512 423.56 333.275 423.75 332.969 423.89C332.669 424.023 332.322 424.09 331.929 424.09ZM337.153 424.09C336.733 424.09 336.357 424.02 336.023 423.88C335.69 423.733 335.427 423.533 335.233 423.28C335.04 423.02 334.933 422.723 334.913 422.39H335.853C335.88 422.663 336.007 422.887 336.233 423.06C336.467 423.233 336.77 423.32 337.143 423.32C337.49 423.32 337.763 423.243 337.963 423.09C338.163 422.937 338.263 422.743 338.263 422.51C338.263 422.27 338.157 422.093 337.943 421.98C337.73 421.86 337.4 421.743 336.953 421.63C336.547 421.523 336.213 421.417 335.953 421.31C335.7 421.197 335.48 421.033 335.293 420.82C335.113 420.6 335.023 420.313 335.023 419.96C335.023 419.68 335.107 419.423 335.273 419.19C335.44 418.957 335.677 418.773 335.983 418.64C336.29 418.5 336.64 418.43 337.033 418.43C337.64 418.43 338.13 418.583 338.503 418.89C338.877 419.197 339.077 419.617 339.103 420.15H338.193C338.173 419.863 338.057 419.633 337.843 419.46C337.637 419.287 337.357 419.2 337.003 419.2C336.677 419.2 336.417 419.27 336.223 419.41C336.03 419.55 335.933 419.733 335.933 419.96C335.933 420.14 335.99 420.29 336.103 420.41C336.223 420.523 336.37 420.617 336.543 420.69C336.723 420.757 336.97 420.833 337.283 420.92C337.677 421.027 337.997 421.133 338.243 421.24C338.49 421.34 338.7 421.493 338.873 421.7C339.053 421.907 339.147 422.177 339.153 422.51C339.153 422.81 339.07 423.08 338.903 423.32C338.737 423.56 338.5 423.75 338.193 423.89C337.893 424.023 337.547 424.09 337.153 424.09ZM347.738 418.52L346.028 424H345.088L343.768 419.65L342.448 424H341.508L339.788 418.52H340.718L341.978 423.12L343.338 418.52H344.268L345.598 423.13L346.838 418.52H347.738ZM351.031 424.09C350.518 424.09 350.051 423.973 349.631 423.74C349.218 423.507 348.891 423.177 348.651 422.75C348.418 422.317 348.301 421.817 348.301 421.25C348.301 420.69 348.421 420.197 348.661 419.77C348.908 419.337 349.241 419.007 349.661 418.78C350.081 418.547 350.551 418.43 351.071 418.43C351.591 418.43 352.061 418.547 352.481 418.78C352.901 419.007 353.231 419.333 353.471 419.76C353.718 420.187 353.841 420.683 353.841 421.25C353.841 421.817 353.714 422.317 353.461 422.75C353.214 423.177 352.878 423.507 352.451 423.74C352.024 423.973 351.551 424.09 351.031 424.09ZM351.031 423.29C351.358 423.29 351.664 423.213 351.951 423.06C352.238 422.907 352.468 422.677 352.641 422.37C352.821 422.063 352.911 421.69 352.911 421.25C352.911 420.81 352.824 420.437 352.651 420.13C352.478 419.823 352.251 419.597 351.971 419.45C351.691 419.297 351.388 419.22 351.061 419.22C350.728 419.22 350.421 419.297 350.141 419.45C349.868 419.597 349.648 419.823 349.481 420.13C349.314 420.437 349.231 420.81 349.231 421.25C349.231 421.697 349.311 422.073 349.471 422.38C349.638 422.687 349.858 422.917 350.131 423.07C350.404 423.217 350.704 423.29 351.031 423.29ZM355.948 419.41C356.108 419.097 356.334 418.853 356.628 418.68C356.928 418.507 357.291 418.42 357.718 418.42V419.36H357.478C356.458 419.36 355.948 419.913 355.948 421.02V424H355.038V418.52H355.948V419.41ZM358.428 421.24C358.428 420.68 358.541 420.19 358.768 419.77C358.995 419.343 359.305 419.013 359.698 418.78C360.098 418.547 360.545 418.43 361.038 418.43C361.465 418.43 361.861 418.53 362.228 418.73C362.595 418.923 362.875 419.18 363.068 419.5V416.6H363.988V424H363.068V422.97C362.888 423.297 362.621 423.567 362.268 423.78C361.915 423.987 361.501 424.09 361.028 424.09C360.541 424.09 360.098 423.97 359.698 423.73C359.305 423.49 358.995 423.153 358.768 422.72C358.541 422.287 358.428 421.793 358.428 421.24ZM363.068 421.25C363.068 420.837 362.985 420.477 362.818 420.17C362.651 419.863 362.425 419.63 362.138 419.47C361.858 419.303 361.548 419.22 361.208 419.22C360.868 419.22 360.558 419.3 360.278 419.46C359.998 419.62 359.775 419.853 359.608 420.16C359.441 420.467 359.358 420.827 359.358 421.24C359.358 421.66 359.441 422.027 359.608 422.34C359.775 422.647 359.998 422.883 360.278 423.05C360.558 423.21 360.868 423.29 361.208 423.29C361.548 423.29 361.858 423.21 362.138 423.05C362.425 422.883 362.651 422.647 362.818 422.34C362.985 422.027 363.068 421.663 363.068 421.25ZM367.306 416.94C367.966 416.94 368.499 417.127 368.906 417.5C369.313 417.873 369.516 418.373 369.516 419C369.516 419.7 369.299 420.22 368.866 420.56C368.433 420.893 367.846 421.06 367.106 421.06L367.076 422.01H366.286L366.246 420.43H366.536C367.196 420.43 367.713 420.33 368.086 420.13C368.459 419.93 368.646 419.553 368.646 419C368.646 418.6 368.526 418.283 368.286 418.05C368.046 417.817 367.723 417.7 367.316 417.7C366.903 417.7 366.576 417.813 366.336 418.04C366.103 418.26 365.986 418.563 365.986 418.95H365.126C365.126 418.55 365.216 418.2 365.396 417.9C365.576 417.593 365.829 417.357 366.156 417.19C366.489 417.023 366.873 416.94 367.306 416.94ZM366.676 424.06C366.503 424.06 366.356 424 366.236 423.88C366.116 423.76 366.056 423.613 366.056 423.44C366.056 423.267 366.116 423.12 366.236 423C366.356 422.88 366.503 422.82 366.676 422.82C366.843 422.82 366.983 422.88 367.096 423C367.216 423.12 367.276 423.267 367.276 423.44C367.276 423.613 367.216 423.76 367.096 423.88C366.983 424 366.843 424.06 366.676 424.06Z" fill="white"/>
<path d="M282.041 425H297.469V425.5H282.041V425ZM303.57 425H369.996V425.5H303.57V425Z" fill="white"/>
<defs>
<clipPath id="clip0_213_157">
<rect width="139" height="45" fill="white" transform="translate(127 89)"/>
</clipPath>
</defs>
</svg>
