<svg width="393" height="852" viewBox="0 0 393 852" fill="none" xmlns="http://www.w3.org/2000/svg">
<rect width="393" height="852" fill="#FDFDFD"/>
<path d="M73.656 80.288C72.76 80.288 71.808 80.168 70.8 79.928C69.792 79.688 68.84 79.36 67.944 78.944V75.872C70.024 76.992 71.88 77.552 73.512 77.552C74.328 77.552 74.984 77.376 75.48 77.024C75.992 76.672 76.248 76.176 76.248 75.536C76.248 75.088 76.104 74.712 75.816 74.408C75.544 74.088 75.2 73.832 74.784 73.64C74.368 73.432 73.776 73.184 73.008 72.896C71.968 72.512 71.12 72.144 70.464 71.792C69.808 71.44 69.248 70.944 68.784 70.304C68.32 69.648 68.088 68.808 68.088 67.784C68.088 66.28 68.608 65.112 69.648 64.28C70.688 63.432 72.112 63.008 73.92 63.008C74.768 63.008 75.6 63.104 76.416 63.296C77.232 63.472 77.984 63.736 78.672 64.088V67.088C77.056 66.192 75.496 65.744 73.992 65.744C73.16 65.744 72.504 65.896 72.024 66.2C71.56 66.488 71.328 66.904 71.328 67.448C71.328 67.992 71.568 68.424 72.048 68.744C72.544 69.048 73.304 69.384 74.328 69.752C75.4 70.152 76.28 70.536 76.968 70.904C77.656 71.272 78.248 71.808 78.744 72.512C79.256 73.2 79.528 74.096 79.56 75.2C79.56 76.784 79.024 78.032 77.952 78.944C76.88 79.84 75.448 80.288 73.656 80.288ZM94.5516 74.696H85.8396C85.9676 75.656 86.3196 76.392 86.8956 76.904C87.4876 77.416 88.2716 77.672 89.2476 77.672C89.9676 77.672 90.7436 77.544 91.5756 77.288C92.4236 77.016 93.2076 76.648 93.9276 76.184H94.0236V78.752C93.3836 79.248 92.6476 79.632 91.8156 79.904C90.9996 80.16 90.1356 80.288 89.2236 80.288C87.9116 80.288 86.7676 80.024 85.7916 79.496C84.8156 78.968 84.0636 78.208 83.5356 77.216C83.0076 76.224 82.7436 75.064 82.7436 73.736C82.7436 72.44 82.9916 71.296 83.4876 70.304C83.9996 69.312 84.7116 68.544 85.6236 68C86.5356 67.456 87.5916 67.184 88.7916 67.184C89.9596 67.184 90.9756 67.448 91.8396 67.976C92.7196 68.504 93.3916 69.264 93.8556 70.256C94.3196 71.248 94.5516 72.408 94.5516 73.736V74.696ZM88.7916 69.728C88.0396 69.728 87.4076 69.976 86.8956 70.472C86.3996 70.968 86.0636 71.656 85.8876 72.536H91.2876C91.1596 71.624 90.8876 70.928 90.4716 70.448C90.0556 69.968 89.4956 69.728 88.7916 69.728ZM97.5182 61.904H100.686V80H97.5182V61.904ZM115.669 74.696H106.957C107.085 75.656 107.437 76.392 108.013 76.904C108.605 77.416 109.389 77.672 110.365 77.672C111.085 77.672 111.861 77.544 112.693 77.288C113.541 77.016 114.325 76.648 115.045 76.184H115.141V78.752C114.501 79.248 113.765 79.632 112.933 79.904C112.117 80.16 111.253 80.288 110.341 80.288C109.029 80.288 107.885 80.024 106.909 79.496C105.933 78.968 105.181 78.208 104.653 77.216C104.125 76.224 103.861 75.064 103.861 73.736C103.861 72.44 104.109 71.296 104.605 70.304C105.117 69.312 105.829 68.544 106.741 68C107.653 67.456 108.709 67.184 109.909 67.184C111.077 67.184 112.093 67.448 112.957 67.976C113.837 68.504 114.509 69.264 114.973 70.256C115.437 71.248 115.669 72.408 115.669 73.736V74.696ZM109.909 69.728C109.157 69.728 108.525 69.976 108.013 70.472C107.517 70.968 107.181 71.656 107.005 72.536H112.405C112.277 71.624 112.005 70.928 111.589 70.448C111.173 69.968 110.613 69.728 109.909 69.728ZM124.731 80.288C123.419 80.288 122.267 80.024 121.275 79.496C120.299 78.952 119.547 78.192 119.019 77.216C118.491 76.24 118.227 75.096 118.227 73.784C118.227 72.472 118.499 71.32 119.043 70.328C119.587 69.32 120.347 68.544 121.323 68C122.315 67.456 123.451 67.184 124.731 67.184C126.171 67.184 127.387 67.48 128.379 68.072V70.856H128.283C127.755 70.536 127.179 70.296 126.555 70.136C125.947 69.976 125.379 69.896 124.851 69.896C123.747 69.896 122.915 70.224 122.355 70.88C121.795 71.536 121.515 72.504 121.515 73.784C121.515 76.312 122.611 77.576 124.803 77.576C125.379 77.576 125.963 77.488 126.555 77.312C127.163 77.12 127.739 76.856 128.283 76.52H128.379V79.352C127.355 79.976 126.139 80.288 124.731 80.288ZM135.46 67.472H138.34V69.824H135.46V75.872C135.46 77.088 135.924 77.696 136.852 77.696C137.284 77.696 137.788 77.544 138.364 77.24V79.856C137.964 80 137.588 80.104 137.236 80.168C136.9 80.248 136.516 80.288 136.084 80.288C133.556 80.288 132.292 78.816 132.292 75.872V69.824H130.468V67.472H132.292V64.112L135.46 63.008V67.472ZM159.476 67.472L152.3 85.568H149.3L151.34 80.408L146.276 67.472H149.492L152.972 76.64L156.308 67.472H159.476ZM167.266 80.288C166.002 80.288 164.89 80.024 163.93 79.496C162.97 78.952 162.226 78.184 161.698 77.192C161.186 76.2 160.93 75.048 160.93 73.736C160.93 72.424 161.186 71.272 161.698 70.28C162.226 69.288 162.97 68.528 163.93 68C164.89 67.456 166.002 67.184 167.266 67.184C168.53 67.184 169.642 67.456 170.602 68C171.562 68.528 172.298 69.288 172.81 70.28C173.338 71.272 173.602 72.424 173.602 73.736C173.602 75.048 173.338 76.2 172.81 77.192C172.298 78.184 171.562 78.952 170.602 79.496C169.642 80.024 168.53 80.288 167.266 80.288ZM167.266 77.672C168.21 77.672 168.946 77.336 169.474 76.664C170.002 75.976 170.266 75 170.266 73.736C170.266 72.456 170.002 71.48 169.474 70.808C168.946 70.136 168.21 69.8 167.266 69.8C166.322 69.8 165.586 70.136 165.058 70.808C164.53 71.48 164.266 72.456 164.266 73.736C164.266 75 164.53 75.976 165.058 76.664C165.586 77.336 166.322 77.672 167.266 77.672ZM185.69 80L185.234 78.368C184.418 79.088 183.698 79.592 183.074 79.88C182.466 80.152 181.77 80.288 180.986 80.288C180.234 80.288 179.546 80.112 178.922 79.76C178.314 79.408 177.834 78.928 177.482 78.32C177.146 77.696 176.978 77 176.978 76.232V67.472H180.146V74.432C180.146 75.44 180.306 76.2 180.626 76.712C180.946 77.224 181.41 77.48 182.018 77.48C182.53 77.48 183.01 77.368 183.458 77.144C183.906 76.92 184.386 76.56 184.898 76.064V67.472H188.066V77.216L188.594 80H185.69ZM199.097 67.184V70.304H198.689C197.441 70.304 196.425 70.648 195.641 71.336V80H192.473V70.256L191.945 67.472H195.113L195.425 69.128C195.953 68.408 196.433 67.904 196.865 67.616C197.297 67.328 197.777 67.184 198.305 67.184H199.097ZM208.87 61.904H212.038V80H208.87V61.904ZM223.612 80L223.3 78.488C222.164 79.688 220.796 80.288 219.196 80.288C217.932 80.288 216.9 79.96 216.1 79.304C215.316 78.648 214.924 77.784 214.924 76.712C214.924 75.32 215.436 74.24 216.46 73.472C217.5 72.688 218.996 72.296 220.948 72.296C221.652 72.296 222.356 72.328 223.06 72.392V71.936C223.06 71.232 222.86 70.712 222.46 70.376C222.06 70.024 221.428 69.848 220.564 69.848C219.716 69.848 218.924 69.992 218.188 70.28C217.468 70.552 216.684 71 215.836 71.624V68.792C216.572 68.232 217.34 67.824 218.14 67.568C218.94 67.312 219.82 67.184 220.78 67.184C222.556 67.184 223.908 67.568 224.836 68.336C225.78 69.088 226.252 70.192 226.252 71.648V77.216L226.78 80H223.612ZM218.092 76.472C218.092 77.4 218.62 77.864 219.676 77.864C220.284 77.864 220.86 77.744 221.404 77.504C221.948 77.248 222.5 76.848 223.06 76.304V74.6H220.756C219.828 74.6 219.148 74.736 218.716 75.008C218.3 75.28 218.092 75.768 218.092 76.472ZM236.742 67.184C238.006 67.184 239.022 67.56 239.79 68.312C240.574 69.048 240.966 70.024 240.966 71.24V80H237.798V73.04C237.798 71.952 237.63 71.176 237.294 70.712C236.974 70.232 236.438 69.992 235.686 69.992C234.854 69.992 233.974 70.456 233.046 71.384V80H229.878V70.256L229.35 67.472H232.254L232.71 69.08C233.398 68.408 234.062 67.928 234.702 67.64C235.342 67.336 236.022 67.184 236.742 67.184ZM256.822 67.472L256.294 70.232V80C256.294 81.904 255.734 83.352 254.614 84.344C253.494 85.352 251.966 85.856 250.03 85.856C249.006 85.856 248.086 85.72 247.27 85.448C246.454 85.176 245.67 84.808 244.918 84.344V81.368C246.422 82.52 248.038 83.096 249.766 83.096C252.006 83.096 253.126 82.064 253.126 80V79.016C252.134 79.56 251.046 79.832 249.862 79.832C248.182 79.832 246.854 79.28 245.878 78.176C244.918 77.056 244.438 75.52 244.438 73.568C244.438 71.584 244.942 70.024 245.95 68.888C246.974 67.752 248.358 67.184 250.102 67.184C250.662 67.184 251.198 67.248 251.71 67.376C252.222 67.488 252.83 67.688 253.534 67.976L253.654 67.472H256.822ZM249.982 77.096C250.99 77.096 252.038 76.776 253.126 76.136V70.136C252.71 70.008 252.294 69.928 251.878 69.896C251.478 69.864 250.99 69.848 250.414 69.848C249.486 69.848 248.814 70.144 248.398 70.736C247.982 71.328 247.774 72.272 247.774 73.568C247.774 74.8 247.95 75.696 248.302 76.256C248.654 76.816 249.214 77.096 249.982 77.096ZM268.729 80L268.273 78.368C267.457 79.088 266.737 79.592 266.113 79.88C265.505 80.152 264.809 80.288 264.025 80.288C263.273 80.288 262.585 80.112 261.961 79.76C261.353 79.408 260.873 78.928 260.521 78.32C260.185 77.696 260.017 77 260.017 76.232V67.472H263.185V74.432C263.185 75.44 263.345 76.2 263.665 76.712C263.985 77.224 264.449 77.48 265.057 77.48C265.569 77.48 266.049 77.368 266.497 77.144C266.945 76.92 267.425 76.56 267.937 76.064V67.472H271.105V77.216L271.633 80H268.729ZM283.12 80L282.808 78.488C281.672 79.688 280.304 80.288 278.704 80.288C277.44 80.288 276.408 79.96 275.608 79.304C274.824 78.648 274.432 77.784 274.432 76.712C274.432 75.32 274.944 74.24 275.968 73.472C277.008 72.688 278.504 72.296 280.456 72.296C281.16 72.296 281.864 72.328 282.568 72.392V71.936C282.568 71.232 282.368 70.712 281.968 70.376C281.568 70.024 280.936 69.848 280.072 69.848C279.224 69.848 278.432 69.992 277.696 70.28C276.976 70.552 276.192 71 275.344 71.624V68.792C276.08 68.232 276.848 67.824 277.648 67.568C278.448 67.312 279.328 67.184 280.288 67.184C282.064 67.184 283.416 67.568 284.344 68.336C285.288 69.088 285.76 70.192 285.76 71.648V77.216L286.288 80H283.12ZM277.6 76.472C277.6 77.4 278.128 77.864 279.184 77.864C279.792 77.864 280.368 77.744 280.912 77.504C281.456 77.248 282.008 76.848 282.568 76.304V74.6H280.264C279.336 74.6 278.656 74.736 278.224 75.008C277.808 75.28 277.6 75.768 277.6 76.472ZM300.978 67.472L300.45 70.232V80C300.45 81.904 299.89 83.352 298.77 84.344C297.65 85.352 296.122 85.856 294.186 85.856C293.162 85.856 292.242 85.72 291.426 85.448C290.61 85.176 289.826 84.808 289.074 84.344V81.368C290.578 82.52 292.194 83.096 293.922 83.096C296.162 83.096 297.282 82.064 297.282 80V79.016C296.29 79.56 295.202 79.832 294.018 79.832C292.338 79.832 291.01 79.28 290.034 78.176C289.074 77.056 288.594 75.52 288.594 73.568C288.594 71.584 289.098 70.024 290.106 68.888C291.13 67.752 292.514 67.184 294.258 67.184C294.818 67.184 295.354 67.248 295.866 67.376C296.378 67.488 296.986 67.688 297.69 67.976L297.81 67.472H300.978ZM294.138 77.096C295.146 77.096 296.194 76.776 297.282 76.136V70.136C296.866 70.008 296.45 69.928 296.034 69.896C295.634 69.864 295.146 69.848 294.57 69.848C293.642 69.848 292.97 70.144 292.554 70.736C292.138 71.328 291.93 72.272 291.93 73.568C291.93 74.8 292.106 75.696 292.458 76.256C292.81 76.816 293.37 77.096 294.138 77.096ZM315.333 74.696H306.621C306.749 75.656 307.101 76.392 307.677 76.904C308.269 77.416 309.053 77.672 310.029 77.672C310.749 77.672 311.525 77.544 312.357 77.288C313.205 77.016 313.989 76.648 314.709 76.184H314.805V78.752C314.165 79.248 313.429 79.632 312.597 79.904C311.781 80.16 310.917 80.288 310.005 80.288C308.693 80.288 307.549 80.024 306.573 79.496C305.597 78.968 304.845 78.208 304.317 77.216C303.789 76.224 303.525 75.064 303.525 73.736C303.525 72.44 303.773 71.296 304.269 70.304C304.781 69.312 305.493 68.544 306.405 68C307.317 67.456 308.373 67.184 309.573 67.184C310.741 67.184 311.757 67.448 312.621 67.976C313.501 68.504 314.173 69.264 314.637 70.256C315.101 71.248 315.333 72.408 315.333 73.736V74.696ZM309.573 69.728C308.821 69.728 308.189 69.976 307.677 70.472C307.181 70.968 306.845 71.656 306.669 72.536H312.069C311.941 71.624 311.669 70.928 311.253 70.448C310.837 69.968 310.277 69.728 309.573 69.728Z" fill="black"/>
<path d="M77 726C77 723.791 78.7909 722 81 722H313C315.209 722 317 723.791 317 726V767C317 769.209 315.209 771 313 771H81C78.7909 771 77 769.209 77 767V726Z" fill="#101010"/>
<path d="M166.16 751.64C166.16 751.707 166.127 751.8 166.06 751.92C165.993 752.04 165.947 752.133 165.92 752.2C165.747 752.507 165.48 752.827 165.12 753.16C164.76 753.493 164.427 753.767 164.12 753.98C163.493 754.42 162.833 754.707 162.14 754.84C161.447 754.973 160.727 755.04 159.98 755.04C158.527 755.04 157.287 754.74 156.26 754.14C155.233 753.527 154.447 752.68 153.9 751.6C153.367 750.507 153.1 749.247 153.1 747.82C153.1 746.407 153.36 745.133 153.88 744C154.4 742.867 155.167 741.967 156.18 741.3C157.207 740.62 158.46 740.28 159.94 740.28C160.607 740.28 161.173 740.36 161.64 740.52C162.107 740.68 162.633 740.867 163.22 741.08C163.5 741.173 163.78 741.247 164.06 741.3C164.34 741.34 164.627 741.373 164.92 741.4C164.933 741.693 164.953 741.993 164.98 742.3C165.007 742.593 165.04 742.893 165.08 743.2C165.107 743.453 165.153 743.713 165.22 743.98C165.287 744.247 165.32 744.513 165.32 744.78C165.32 745.033 165.227 745.22 165.04 745.34C164.867 745.46 164.667 745.52 164.44 745.52C164.067 745.52 163.807 745.367 163.66 745.06C163.62 744.953 163.593 744.84 163.58 744.72C163.567 744.587 163.547 744.473 163.52 744.38C163.427 743.953 163.26 743.493 163.02 743C162.793 742.493 162.52 742.093 162.2 741.8C161.947 741.573 161.6 741.373 161.16 741.2C160.72 741.013 160.327 740.92 159.98 740.92C159.647 740.92 159.333 740.993 159.04 741.14C158.76 741.287 158.487 741.467 158.22 741.68C157.647 742.16 157.193 742.733 156.86 743.4C156.527 744.067 156.293 744.78 156.16 745.54C156.027 746.287 155.96 747.02 155.96 747.74C155.96 748.22 155.987 748.7 156.04 749.18C156.107 749.647 156.207 750.113 156.34 750.58C156.527 751.207 156.793 751.8 157.14 752.36C157.5 752.907 157.94 753.353 158.46 753.7C158.993 754.033 159.607 754.2 160.3 754.2C161.287 754.2 162.18 753.953 162.98 753.46C163.793 752.967 164.467 752.32 165 751.52C165.08 751.387 165.16 751.273 165.24 751.18C165.333 751.073 165.467 751.02 165.64 751.02C165.813 751.02 165.94 751.087 166.02 751.22C166.113 751.353 166.16 751.493 166.16 751.64ZM175.272 749.74C175.272 749.3 175.239 748.8 175.172 748.24C175.119 747.667 174.999 747.113 174.812 746.58C174.626 746.047 174.352 745.607 173.992 745.26C173.646 744.9 173.172 744.72 172.572 744.72C172.026 744.72 171.586 744.893 171.252 745.24C170.919 745.587 170.659 746.02 170.472 746.54C170.299 747.06 170.179 747.6 170.112 748.16C170.046 748.707 170.012 749.18 170.012 749.58C170.012 750.02 170.039 750.527 170.092 751.1C170.159 751.66 170.286 752.207 170.472 752.74C170.659 753.273 170.932 753.713 171.292 754.06C171.652 754.407 172.132 754.58 172.732 754.58C173.292 754.58 173.739 754.413 174.072 754.08C174.419 753.733 174.679 753.307 174.852 752.8C175.026 752.28 175.139 751.747 175.192 751.2C175.246 750.64 175.272 750.153 175.272 749.74ZM177.992 749.84C177.992 750.867 177.759 751.78 177.292 752.58C176.826 753.367 176.186 753.987 175.372 754.44C174.572 754.893 173.659 755.12 172.632 755.12C171.606 755.12 170.699 754.88 169.912 754.4C169.126 753.92 168.506 753.273 168.052 752.46C167.612 751.647 167.392 750.733 167.392 749.72C167.392 748.667 167.612 747.727 168.052 746.9C168.492 746.06 169.112 745.4 169.912 744.92C170.712 744.427 171.646 744.18 172.712 744.18C173.886 744.18 174.859 744.42 175.632 744.9C176.419 745.367 177.006 746.027 177.392 746.88C177.792 747.72 177.992 748.707 177.992 749.84ZM191.075 754.72C191.075 754.933 190.968 755.04 190.755 755.04C190.368 755.04 189.975 755.027 189.575 755C189.188 754.987 188.801 754.98 188.415 754.98C188.041 754.98 187.661 754.987 187.275 755C186.888 755.027 186.501 755.04 186.115 755.04C186.021 755.04 185.955 755.007 185.915 754.94C185.875 754.86 185.855 754.78 185.855 754.7C185.855 754.5 185.961 754.4 186.175 754.4C186.295 754.4 186.415 754.407 186.535 754.42C186.655 754.42 186.775 754.42 186.895 754.42C187.095 754.42 187.195 754.333 187.195 754.16C187.195 753.04 187.195 751.92 187.195 750.8C187.208 749.68 187.215 748.56 187.215 747.44C187.215 747.08 187.181 746.707 187.115 746.32C187.061 745.933 186.928 745.607 186.715 745.34C186.515 745.073 186.181 744.94 185.715 744.94C185.421 744.94 185.115 745.047 184.795 745.26C184.488 745.473 184.208 745.727 183.955 746.02C183.715 746.313 183.541 746.587 183.435 746.84V753.92C183.435 754.04 183.448 754.153 183.475 754.26C183.515 754.367 183.608 754.42 183.755 754.42C183.861 754.42 183.968 754.42 184.075 754.42C184.195 754.407 184.308 754.4 184.415 754.4C184.481 754.4 184.548 754.427 184.615 754.48C184.681 754.533 184.715 754.593 184.715 754.66C184.715 754.913 184.608 755.04 184.395 755.04C184.021 755.04 183.648 755.027 183.275 755C182.915 754.96 182.541 754.94 182.155 754.94C181.755 754.94 181.348 754.96 180.935 755C180.535 755.027 180.128 755.04 179.715 755.04C179.621 755.04 179.555 755.007 179.515 754.94C179.475 754.86 179.455 754.78 179.455 754.7C179.455 754.5 179.561 754.4 179.775 754.4C179.895 754.4 180.015 754.407 180.135 754.42C180.255 754.42 180.381 754.42 180.515 754.42C180.701 754.42 180.808 754.38 180.835 754.3C180.861 754.22 180.875 754.093 180.875 753.92V751.02C180.875 750.207 180.875 749.393 180.875 748.58C180.875 747.767 180.875 746.953 180.875 746.14C180.875 745.993 180.855 745.833 180.815 745.66C180.775 745.473 180.655 745.38 180.455 745.38C180.321 745.38 180.188 745.387 180.055 745.4C179.935 745.413 179.808 745.42 179.675 745.42C179.595 745.42 179.501 745.407 179.395 745.38C179.301 745.34 179.255 745.267 179.255 745.16C179.255 745.08 179.281 745.02 179.335 744.98C179.388 744.94 179.448 744.913 179.515 744.9C179.648 744.86 179.788 744.833 179.935 744.82C180.081 744.807 180.221 744.787 180.355 744.76C180.701 744.693 181.041 744.62 181.375 744.54C181.721 744.447 182.061 744.353 182.395 744.26C182.448 744.233 182.501 744.213 182.555 744.2C182.608 744.173 182.661 744.16 182.715 744.16C182.821 744.16 182.915 744.26 182.995 744.46C183.088 744.66 183.161 744.873 183.215 745.1C183.281 745.327 183.321 745.487 183.335 745.58C183.721 745.233 184.188 744.927 184.735 744.66C185.281 744.38 185.821 744.24 186.355 744.24C187.248 744.24 187.941 744.353 188.435 744.58C188.941 744.807 189.301 745.187 189.515 745.72C189.728 746.24 189.835 746.94 189.835 747.82C189.835 748.86 189.828 749.9 189.815 750.94C189.801 751.98 189.795 753.02 189.795 754.06C189.795 754.193 189.835 754.293 189.915 754.36C190.008 754.413 190.121 754.44 190.255 754.44C190.348 754.44 190.435 754.433 190.515 754.42C190.608 754.407 190.701 754.4 190.795 754.4C190.981 754.4 191.075 754.507 191.075 754.72ZM198.951 754.04C198.951 754.227 198.851 754.393 198.651 754.54C198.465 754.673 198.225 754.787 197.931 754.88C197.651 754.96 197.365 755.02 197.071 755.06C196.778 755.1 196.531 755.12 196.331 755.12C195.331 755.12 194.638 754.92 194.251 754.52C193.865 754.107 193.671 753.427 193.671 752.48C193.671 751.333 193.678 750.187 193.691 749.04C193.705 747.893 193.711 746.747 193.711 745.6H192.791C192.658 745.6 192.545 745.647 192.451 745.74C192.358 745.82 192.271 745.86 192.191 745.86C192.058 745.86 191.991 745.793 191.991 745.66C191.991 745.607 192.018 745.507 192.071 745.36C192.125 745.213 192.165 745.12 192.191 745.08C192.231 745 192.271 744.953 192.311 744.94C192.351 744.927 192.411 744.92 192.491 744.92H193.731V742.78C194.065 742.593 194.431 742.32 194.831 741.96C195.231 741.6 195.538 741.267 195.751 740.96C195.791 740.893 195.845 740.827 195.911 740.76C195.978 740.68 196.058 740.64 196.151 740.64C196.365 740.64 196.465 740.733 196.451 740.92L196.391 744.92H198.451C198.558 744.92 198.651 744.947 198.731 745C198.825 745.04 198.871 745.12 198.871 745.24C198.871 745.493 198.731 745.62 198.451 745.62H196.391L196.351 753.34C196.351 753.553 196.391 753.76 196.471 753.96C196.565 754.147 196.738 754.24 196.991 754.24C197.218 754.24 197.445 754.22 197.671 754.18C197.911 754.14 198.131 754.073 198.331 753.98C198.398 753.953 198.458 753.927 198.511 753.9C198.578 753.86 198.645 753.84 198.711 753.84C198.871 753.84 198.951 753.907 198.951 754.04ZM205.253 754.76C205.253 754.973 205.146 755.08 204.933 755.08C204.546 755.08 204.153 755.06 203.753 755.02C203.353 754.993 202.953 754.98 202.553 754.98C202.153 754.98 201.746 754.993 201.333 755.02C200.933 755.06 200.533 755.08 200.133 755.08C200.039 755.08 199.973 755.047 199.933 754.98C199.893 754.9 199.873 754.827 199.873 754.76C199.873 754.547 199.973 754.44 200.173 754.44C200.306 754.44 200.433 754.447 200.553 754.46C200.673 754.473 200.793 754.48 200.913 754.48C201.073 754.48 201.173 754.427 201.213 754.32C201.266 754.213 201.293 754.093 201.293 753.96V746.02C201.293 745.887 201.279 745.74 201.253 745.58C201.226 745.407 201.119 745.32 200.933 745.32C200.759 745.32 200.579 745.333 200.393 745.36C200.206 745.387 200.019 745.4 199.833 745.4C199.753 745.4 199.673 745.38 199.593 745.34C199.526 745.3 199.493 745.233 199.493 745.14C199.493 744.967 199.579 744.853 199.753 744.8C199.899 744.773 200.053 744.753 200.213 744.74C200.386 744.713 200.546 744.693 200.693 744.68C201.159 744.613 201.613 744.533 202.053 744.44C202.506 744.333 202.959 744.227 203.413 744.12C203.453 744.12 203.493 744.12 203.533 744.12C203.573 744.107 203.606 744.1 203.633 744.1C203.833 744.1 203.933 744.18 203.933 744.34C203.933 745.94 203.926 747.547 203.913 749.16C203.899 750.76 203.893 752.36 203.893 753.96C203.893 754.2 203.946 754.353 204.053 754.42C204.159 754.473 204.293 754.493 204.453 754.48C204.626 754.467 204.799 754.46 204.973 754.46C205.159 754.46 205.253 754.56 205.253 754.76ZM203.993 741.02C203.993 741.433 203.839 741.793 203.533 742.1C203.239 742.407 202.879 742.56 202.453 742.56C202.039 742.56 201.679 742.407 201.373 742.1C201.066 741.793 200.913 741.433 200.913 741.02C200.913 740.593 201.066 740.233 201.373 739.94C201.679 739.633 202.039 739.48 202.453 739.48C202.879 739.48 203.239 739.633 203.533 739.94C203.839 740.233 203.993 740.593 203.993 741.02ZM218.028 754.72C218.028 754.933 217.921 755.04 217.708 755.04C217.321 755.04 216.928 755.027 216.528 755C216.141 754.987 215.754 754.98 215.368 754.98C214.994 754.98 214.614 754.987 214.228 755C213.841 755.027 213.454 755.04 213.068 755.04C212.974 755.04 212.908 755.007 212.868 754.94C212.828 754.86 212.808 754.78 212.808 754.7C212.808 754.5 212.914 754.4 213.128 754.4C213.248 754.4 213.368 754.407 213.488 754.42C213.608 754.42 213.728 754.42 213.848 754.42C214.048 754.42 214.148 754.333 214.148 754.16C214.148 753.04 214.148 751.92 214.148 750.8C214.161 749.68 214.168 748.56 214.168 747.44C214.168 747.08 214.134 746.707 214.068 746.32C214.014 745.933 213.881 745.607 213.668 745.34C213.468 745.073 213.134 744.94 212.668 744.94C212.374 744.94 212.068 745.047 211.748 745.26C211.441 745.473 211.161 745.727 210.908 746.02C210.668 746.313 210.494 746.587 210.388 746.84V753.92C210.388 754.04 210.401 754.153 210.428 754.26C210.468 754.367 210.561 754.42 210.708 754.42C210.814 754.42 210.921 754.42 211.028 754.42C211.148 754.407 211.261 754.4 211.368 754.4C211.434 754.4 211.501 754.427 211.568 754.48C211.634 754.533 211.668 754.593 211.668 754.66C211.668 754.913 211.561 755.04 211.348 755.04C210.974 755.04 210.601 755.027 210.228 755C209.868 754.96 209.494 754.94 209.108 754.94C208.708 754.94 208.301 754.96 207.888 755C207.488 755.027 207.081 755.04 206.668 755.04C206.574 755.04 206.508 755.007 206.468 754.94C206.428 754.86 206.408 754.78 206.408 754.7C206.408 754.5 206.514 754.4 206.728 754.4C206.848 754.4 206.968 754.407 207.088 754.42C207.208 754.42 207.334 754.42 207.468 754.42C207.654 754.42 207.761 754.38 207.788 754.3C207.814 754.22 207.828 754.093 207.828 753.92V751.02C207.828 750.207 207.828 749.393 207.828 748.58C207.828 747.767 207.828 746.953 207.828 746.14C207.828 745.993 207.808 745.833 207.768 745.66C207.728 745.473 207.608 745.38 207.408 745.38C207.274 745.38 207.141 745.387 207.008 745.4C206.888 745.413 206.761 745.42 206.628 745.42C206.548 745.42 206.454 745.407 206.348 745.38C206.254 745.34 206.208 745.267 206.208 745.16C206.208 745.08 206.234 745.02 206.288 744.98C206.341 744.94 206.401 744.913 206.468 744.9C206.601 744.86 206.741 744.833 206.888 744.82C207.034 744.807 207.174 744.787 207.308 744.76C207.654 744.693 207.994 744.62 208.328 744.54C208.674 744.447 209.014 744.353 209.348 744.26C209.401 744.233 209.454 744.213 209.508 744.2C209.561 744.173 209.614 744.16 209.668 744.16C209.774 744.16 209.868 744.26 209.948 744.46C210.041 744.66 210.114 744.873 210.168 745.1C210.234 745.327 210.274 745.487 210.288 745.58C210.674 745.233 211.141 744.927 211.688 744.66C212.234 744.38 212.774 744.24 213.308 744.24C214.201 744.24 214.894 744.353 215.388 744.58C215.894 744.807 216.254 745.187 216.468 745.72C216.681 746.24 216.788 746.94 216.788 747.82C216.788 748.86 216.781 749.9 216.768 750.94C216.754 751.98 216.748 753.02 216.748 754.06C216.748 754.193 216.788 754.293 216.868 754.36C216.961 754.413 217.074 754.44 217.208 754.44C217.301 754.44 217.388 754.433 217.468 754.42C217.561 754.407 217.654 754.4 217.748 754.4C217.934 754.4 218.028 754.507 218.028 754.72ZM230.824 754.26C230.824 754.367 230.758 754.46 230.624 754.54C230.264 754.793 229.931 754.947 229.624 755C229.318 755.053 228.951 755.08 228.524 755.08C228.111 755.08 227.758 754.907 227.464 754.56C227.184 754.213 227.011 753.853 226.944 753.48C226.558 754.013 226.098 754.427 225.564 754.72C225.044 755 224.451 755.14 223.784 755.14C222.504 755.14 221.598 754.847 221.064 754.26C220.531 753.66 220.264 752.733 220.264 751.48V750.14C220.264 749.447 220.264 748.76 220.264 748.08C220.278 747.387 220.284 746.693 220.284 746C220.284 745.853 220.264 745.693 220.224 745.52C220.184 745.347 220.064 745.26 219.864 745.26C219.784 745.26 219.704 745.267 219.624 745.28C219.558 745.293 219.484 745.3 219.404 745.3C219.311 745.3 219.204 745.287 219.084 745.26C218.964 745.233 218.904 745.16 218.904 745.04C218.904 744.933 218.924 744.86 218.964 744.82C219.018 744.78 219.084 744.753 219.164 744.74C219.311 744.7 219.471 744.673 219.644 744.66C219.818 744.647 219.978 744.633 220.124 744.62C220.858 744.527 221.611 744.387 222.384 744.2C222.464 744.173 222.538 744.16 222.604 744.16C222.791 744.16 222.884 744.247 222.884 744.42C222.884 745.567 222.871 746.72 222.844 747.88C222.818 749.027 222.804 750.173 222.804 751.32C222.804 751.64 222.811 751.98 222.824 752.34C222.851 752.687 222.911 753.013 223.004 753.32C223.111 753.627 223.284 753.873 223.524 754.06C223.764 754.247 224.098 754.34 224.524 754.34C224.978 754.34 225.391 754.167 225.764 753.82C226.138 753.46 226.411 753.093 226.584 752.72C226.598 752.693 226.624 752.633 226.664 752.54C226.704 752.433 226.724 752.373 226.724 752.36C226.724 751.293 226.718 750.233 226.704 749.18C226.704 748.113 226.704 747.053 226.704 746C226.704 745.853 226.684 745.693 226.644 745.52C226.604 745.347 226.484 745.26 226.284 745.26C226.204 745.26 226.124 745.267 226.044 745.28C225.964 745.293 225.878 745.3 225.784 745.3C225.691 745.3 225.584 745.287 225.464 745.26C225.358 745.233 225.304 745.16 225.304 745.04C225.304 744.933 225.324 744.86 225.364 744.82C225.418 744.78 225.484 744.753 225.564 744.74C225.711 744.7 225.871 744.673 226.044 744.66C226.218 744.647 226.384 744.633 226.544 744.62C227.291 744.513 228.031 744.373 228.764 744.2C228.804 744.187 228.838 744.18 228.864 744.18C228.904 744.167 228.944 744.16 228.984 744.16C229.184 744.16 229.284 744.247 229.284 744.42C229.284 745.873 229.278 747.333 229.264 748.8C229.251 750.253 229.244 751.713 229.244 753.18C229.244 753.313 229.251 753.467 229.264 753.64C229.278 753.8 229.324 753.947 229.404 754.08C229.484 754.2 229.618 754.26 229.804 754.26C229.951 754.26 230.098 754.227 230.244 754.16C230.391 754.08 230.518 754.04 230.624 754.04C230.691 754.04 230.738 754.067 230.764 754.12C230.804 754.16 230.824 754.207 230.824 754.26ZM238.603 747.98C238.603 747.713 238.59 747.393 238.563 747.02C238.536 746.647 238.47 746.287 238.363 745.94C238.27 745.58 238.116 745.28 237.903 745.04C237.69 744.8 237.396 744.68 237.023 744.68C236.663 744.68 236.343 744.8 236.063 745.04C235.796 745.267 235.57 745.56 235.383 745.92C235.196 746.267 235.05 746.633 234.943 747.02C234.836 747.393 234.756 747.727 234.703 748.02C234.93 748.02 235.15 748.027 235.363 748.04C235.59 748.04 235.81 748.04 236.023 748.04C236.89 748.04 237.75 748.02 238.603 747.98ZM241.483 752.4C241.483 752.44 241.47 752.5 241.443 752.58C241.43 752.647 241.41 752.7 241.383 752.74C241.29 752.953 241.116 753.2 240.863 753.48C240.61 753.747 240.383 753.953 240.183 754.1C239.29 754.78 238.256 755.12 237.083 755.12C236.03 755.12 235.116 754.9 234.343 754.46C233.57 754.007 232.976 753.38 232.563 752.58C232.15 751.78 231.943 750.86 231.943 749.82C231.943 748.78 232.143 747.84 232.543 747C232.956 746.147 233.543 745.473 234.303 744.98C235.076 744.473 236.003 744.22 237.083 744.22C238.323 744.22 239.316 744.56 240.063 745.24C240.81 745.92 241.183 746.893 241.183 748.16C241.183 748.507 241.023 748.68 240.703 748.68C240.116 748.68 239.53 748.673 238.943 748.66C238.356 748.647 237.77 748.64 237.183 748.64C236.756 748.64 236.33 748.64 235.903 748.64C235.476 748.64 235.05 748.647 234.623 748.66C234.583 749.06 234.563 749.467 234.563 749.88C234.563 750.253 234.61 750.693 234.703 751.2C234.81 751.707 234.963 752.2 235.163 752.68C235.376 753.16 235.65 753.56 235.983 753.88C236.316 754.187 236.723 754.34 237.203 754.34C237.803 754.34 238.303 754.253 238.703 754.08C239.116 753.907 239.483 753.66 239.803 753.34C240.123 753.02 240.45 752.64 240.783 752.2C240.823 752.147 240.863 752.107 240.903 752.08C240.956 752.04 241.016 752.02 241.083 752.02C241.176 752.02 241.263 752.06 241.343 752.14C241.436 752.207 241.483 752.293 241.483 752.4Z" fill="white"/>
<rect x="27" y="125" width="339" height="562" rx="9" fill="#D9D9D9" fill-opacity="0.34"/>
<path d="M58.46 156.06V160.04H64.52V161.9H58.46V166.02H64.96V168H56.3V154.08H64.96V156.06H58.46ZM74.333 157.32C75.3463 157.32 76.1396 157.627 76.713 158.24C77.2863 158.853 77.573 159.687 77.573 160.74V168H75.413V161.54C75.413 160.767 75.273 160.193 74.993 159.82C74.713 159.433 74.2796 159.24 73.693 159.24C73.173 159.24 72.6996 159.347 72.273 159.56C71.8596 159.76 71.4263 160.08 70.973 160.52V168H68.813V159.88L68.373 157.56H70.433L70.753 158.96C71.3663 158.373 71.9396 157.953 72.473 157.7C73.0063 157.447 73.6263 157.32 74.333 157.32ZM90.7859 157.54L90.3459 159.86V167.62C90.3459 169.3 89.9059 170.593 89.0259 171.5C88.1593 172.42 86.9259 172.88 85.3259 172.88C84.4593 172.88 83.7059 172.78 83.0659 172.58C82.4393 172.38 81.8259 172.053 81.2259 171.6V169.5C81.8659 170.007 82.4926 170.373 83.1059 170.6C83.7326 170.827 84.4393 170.94 85.2259 170.94C86.2393 170.94 86.9859 170.66 87.4659 170.1C87.9459 169.553 88.1859 168.773 88.1859 167.76V167.12C87.7859 167.373 87.3526 167.56 86.8859 167.68C86.4326 167.8 85.9259 167.86 85.3659 167.86C83.9126 167.86 82.7859 167.4 81.9859 166.48C81.1993 165.56 80.8059 164.287 80.8059 162.66C80.8059 160.98 81.2193 159.673 82.0459 158.74C82.8726 157.793 84.0459 157.32 85.5659 157.32C86.0993 157.32 86.5726 157.373 86.9859 157.48C87.4126 157.587 87.9193 157.767 88.5059 158.02L88.6259 157.54H90.7859ZM85.4059 165.94C85.9126 165.94 86.3859 165.873 86.8259 165.74C87.2659 165.593 87.7193 165.373 88.1859 165.08V159.5C87.5326 159.287 86.7326 159.18 85.7859 159.18C83.9993 159.18 83.1059 160.34 83.1059 162.66C83.1059 163.74 83.2859 164.56 83.6459 165.12C84.0193 165.667 84.6059 165.94 85.4059 165.94ZM93.7083 152.92H95.8683V168H93.7083V152.92ZM100.394 155.56C99.9938 155.56 99.6538 155.427 99.3738 155.16C99.0938 154.88 98.9538 154.533 98.9538 154.12C98.9538 153.693 99.0938 153.347 99.3738 153.08C99.6538 152.8 99.9938 152.66 100.394 152.66C100.794 152.66 101.134 152.8 101.414 153.08C101.694 153.347 101.834 153.693 101.834 154.12C101.834 154.533 101.694 154.88 101.414 155.16C101.134 155.427 100.794 155.56 100.394 155.56ZM101.474 157.56V168H99.3138V157.56H101.474ZM107.999 168.24C107.346 168.24 106.693 168.147 106.039 167.96C105.399 167.76 104.799 167.48 104.239 167.12V164.98C104.866 165.46 105.466 165.813 106.039 166.04C106.626 166.267 107.239 166.38 107.879 166.38C108.559 166.38 109.093 166.26 109.479 166.02C109.866 165.78 110.059 165.453 110.059 165.04C110.059 164.613 109.879 164.3 109.519 164.1C109.173 163.9 108.619 163.7 107.859 163.5C107.126 163.313 106.526 163.12 106.059 162.92C105.606 162.72 105.213 162.42 104.879 162.02C104.546 161.62 104.379 161.08 104.379 160.4C104.379 159.467 104.746 158.72 105.479 158.16C106.226 157.6 107.206 157.32 108.419 157.32C109.593 157.32 110.666 157.62 111.639 158.22V160.3C111.106 159.9 110.593 159.613 110.099 159.44C109.619 159.267 109.099 159.18 108.539 159.18C107.899 159.18 107.399 159.28 107.039 159.48C106.679 159.68 106.499 159.967 106.499 160.34C106.499 160.713 106.666 160.993 106.999 161.18C107.333 161.353 107.873 161.54 108.619 161.74C109.366 161.94 109.973 162.14 110.439 162.34C110.906 162.527 111.306 162.833 111.639 163.26C111.986 163.687 112.159 164.253 112.159 164.96C112.159 165.6 111.979 166.167 111.619 166.66C111.273 167.153 110.779 167.54 110.139 167.82C109.513 168.1 108.799 168.24 107.999 168.24ZM120.739 157.32C121.753 157.32 122.546 157.627 123.119 158.24C123.693 158.853 123.979 159.687 123.979 160.74V168H121.819V161.54C121.819 160.767 121.679 160.193 121.399 159.82C121.119 159.433 120.686 159.24 120.099 159.24C119.579 159.24 119.106 159.347 118.679 159.56C118.266 159.76 117.833 160.08 117.379 160.52V168H115.219V152.92H117.379V158.76C117.939 158.253 118.473 157.887 118.979 157.66C119.486 157.433 120.073 157.32 120.739 157.32Z" fill="black"/>
<path d="M67.7 212.08V226H65.54V219.7H58.46V226H56.3V212.08H58.46V217.74H65.54V212.08H67.7ZM72.7961 213.56C72.3961 213.56 72.0561 213.427 71.7761 213.16C71.4961 212.88 71.3561 212.533 71.3561 212.12C71.3561 211.693 71.4961 211.347 71.7761 211.08C72.0561 210.8 72.3961 210.66 72.7961 210.66C73.1961 210.66 73.5361 210.8 73.8161 211.08C74.0961 211.347 74.2361 211.693 74.2361 212.12C74.2361 212.533 74.0961 212.88 73.8161 213.16C73.5361 213.427 73.1961 213.56 72.7961 213.56ZM73.8761 215.56V226H71.7161V215.56H73.8761ZM83.1416 215.32C84.1549 215.32 84.9482 215.627 85.5216 216.24C86.0949 216.853 86.3816 217.687 86.3816 218.74V226H84.2216V219.54C84.2216 218.767 84.0816 218.193 83.8016 217.82C83.5216 217.433 83.0882 217.24 82.5016 217.24C81.9816 217.24 81.5082 217.347 81.0816 217.56C80.6682 217.76 80.2349 218.08 79.7816 218.52V226H77.6216V217.88L77.1816 215.56H79.2416L79.5616 216.96C80.1749 216.373 80.7482 215.953 81.2816 215.7C81.8149 215.447 82.4349 215.32 83.1416 215.32ZM97.6745 226L97.3545 224.62C96.3545 225.687 95.1345 226.22 93.6945 226.22C92.4279 226.22 91.4412 225.733 90.7345 224.76C90.0412 223.773 89.6945 222.48 89.6945 220.88C89.6945 219.187 90.1079 217.84 90.9345 216.84C91.7745 215.827 92.9412 215.32 94.4345 215.32C95.3679 215.32 96.2679 215.54 97.1345 215.98V210.92H99.2945V223.68L99.7345 226H97.6745ZM94.1745 224.36C94.7079 224.36 95.2145 224.24 95.6945 224C96.1745 223.76 96.6545 223.4 97.1345 222.92V217.52C96.3345 217.28 95.5545 217.16 94.7945 217.16C93.8745 217.16 93.1745 217.487 92.6945 218.14C92.2279 218.793 91.9945 219.693 91.9945 220.84C91.9945 221.92 92.1679 222.78 92.5145 223.42C92.8745 224.047 93.4279 224.36 94.1745 224.36ZM103.988 213.56C103.588 213.56 103.248 213.427 102.968 213.16C102.688 212.88 102.548 212.533 102.548 212.12C102.548 211.693 102.688 211.347 102.968 211.08C103.248 210.8 103.588 210.66 103.988 210.66C104.388 210.66 104.728 210.8 105.008 211.08C105.288 211.347 105.428 211.693 105.428 212.12C105.428 212.533 105.288 212.88 105.008 213.16C104.728 213.427 104.388 213.56 103.988 213.56ZM105.068 215.56V226H102.908V215.56H105.068Z" fill="black"/>
<path d="M62.58 284.24C61.14 284.24 59.9133 283.947 58.9 283.36C57.8867 282.76 57.12 281.92 56.6 280.84C56.08 279.76 55.82 278.493 55.82 277.04C55.82 275.587 56.08 274.32 56.6 273.24C57.1333 272.16 57.9067 271.327 58.92 270.74C59.9467 270.14 61.18 269.84 62.62 269.84C63.3133 269.84 63.9933 269.92 64.66 270.08C65.3267 270.227 65.9267 270.453 66.46 270.76V272.96H66.38C65.9 272.6 65.34 272.313 64.7 272.1C64.0733 271.887 63.4267 271.78 62.76 271.78C61.2533 271.78 60.1 272.247 59.3 273.18C58.5133 274.1 58.12 275.387 58.12 277.04C58.12 278.693 58.5067 279.987 59.28 280.92C60.0667 281.84 61.2067 282.3 62.7 282.3C63.3667 282.3 64.02 282.193 64.66 281.98C65.3 281.753 65.8733 281.44 66.38 281.04H66.46V283.24C65.3533 283.907 64.06 284.24 62.58 284.24ZM75.9345 273.32C76.9479 273.32 77.7412 273.627 78.3145 274.24C78.8879 274.853 79.1745 275.687 79.1745 276.74V284H77.0145V277.54C77.0145 276.767 76.8745 276.193 76.5945 275.82C76.3145 275.433 75.8812 275.24 75.2945 275.24C74.7745 275.24 74.3012 275.347 73.8745 275.56C73.4612 275.76 73.0279 276.08 72.5745 276.52V284H70.4145V268.92H72.5745V274.76C73.1345 274.253 73.6679 273.887 74.1745 273.66C74.6812 273.433 75.2679 273.32 75.9345 273.32ZM83.9875 271.56C83.5875 271.56 83.2475 271.427 82.9675 271.16C82.6875 270.88 82.5475 270.533 82.5475 270.12C82.5475 269.693 82.6875 269.347 82.9675 269.08C83.2475 268.8 83.5875 268.66 83.9875 268.66C84.3875 268.66 84.7275 268.8 85.0075 269.08C85.2875 269.347 85.4275 269.693 85.4275 270.12C85.4275 270.533 85.2875 270.88 85.0075 271.16C84.7275 271.427 84.3875 271.56 83.9875 271.56ZM85.0675 273.56V284H82.9075V273.56H85.0675ZM94.333 273.32C95.3463 273.32 96.1396 273.627 96.713 274.24C97.2863 274.853 97.573 275.687 97.573 276.74V284H95.413V277.54C95.413 276.767 95.273 276.193 94.993 275.82C94.713 275.433 94.2796 275.24 93.693 275.24C93.173 275.24 92.6996 275.347 92.273 275.56C91.8596 275.76 91.4263 276.08 90.973 276.52V284H88.813V275.88L88.373 273.56H90.433L90.753 274.96C91.3663 274.373 91.9396 273.953 92.473 273.7C93.0063 273.447 93.6263 273.32 94.333 273.32ZM110.386 279.46H103.046C103.153 280.38 103.473 281.107 104.006 281.64C104.553 282.16 105.286 282.42 106.206 282.42C106.806 282.42 107.419 282.307 108.046 282.08C108.673 281.84 109.279 281.5 109.866 281.06H109.946V283C108.839 283.827 107.586 284.24 106.186 284.24C105.106 284.24 104.166 284.013 103.366 283.56C102.566 283.107 101.953 282.467 101.526 281.64C101.099 280.8 100.886 279.833 100.886 278.74C100.886 277.687 101.079 276.753 101.466 275.94C101.866 275.113 102.433 274.473 103.166 274.02C103.899 273.553 104.753 273.32 105.726 273.32C106.686 273.32 107.513 273.553 108.206 274.02C108.913 274.473 109.453 275.113 109.826 275.94C110.199 276.767 110.386 277.713 110.386 278.78V279.46ZM105.726 275.08C104.993 275.08 104.393 275.34 103.926 275.86C103.459 276.367 103.173 277.047 103.066 277.9H108.166C108.059 277.02 107.799 276.333 107.386 275.84C106.986 275.333 106.433 275.08 105.726 275.08ZM116.378 284.24C115.725 284.24 115.071 284.147 114.418 283.96C113.778 283.76 113.178 283.48 112.618 283.12V280.98C113.245 281.46 113.845 281.813 114.418 282.04C115.005 282.267 115.618 282.38 116.258 282.38C116.938 282.38 117.471 282.26 117.858 282.02C118.245 281.78 118.438 281.453 118.438 281.04C118.438 280.613 118.258 280.3 117.898 280.1C117.551 279.9 116.998 279.7 116.238 279.5C115.505 279.313 114.905 279.12 114.438 278.92C113.985 278.72 113.591 278.42 113.258 278.02C112.925 277.62 112.758 277.08 112.758 276.4C112.758 275.467 113.125 274.72 113.858 274.16C114.605 273.6 115.585 273.32 116.798 273.32C117.971 273.32 119.045 273.62 120.018 274.22V276.3C119.485 275.9 118.971 275.613 118.478 275.44C117.998 275.267 117.478 275.18 116.918 275.18C116.278 275.18 115.778 275.28 115.418 275.48C115.058 275.68 114.878 275.967 114.878 276.34C114.878 276.713 115.045 276.993 115.378 277.18C115.711 277.353 116.251 277.54 116.998 277.74C117.745 277.94 118.351 278.14 118.818 278.34C119.285 278.527 119.685 278.833 120.018 279.26C120.365 279.687 120.538 280.253 120.538 280.96C120.538 281.6 120.358 282.167 119.998 282.66C119.651 283.153 119.158 283.54 118.518 283.82C117.891 284.1 117.178 284.24 116.378 284.24ZM132.378 279.46H125.038C125.145 280.38 125.465 281.107 125.998 281.64C126.545 282.16 127.278 282.42 128.198 282.42C128.798 282.42 129.411 282.307 130.038 282.08C130.665 281.84 131.271 281.5 131.858 281.06H131.938V283C130.831 283.827 129.578 284.24 128.178 284.24C127.098 284.24 126.158 284.013 125.358 283.56C124.558 283.107 123.945 282.467 123.518 281.64C123.091 280.8 122.878 279.833 122.878 278.74C122.878 277.687 123.071 276.753 123.458 275.94C123.858 275.113 124.425 274.473 125.158 274.02C125.891 273.553 126.745 273.32 127.718 273.32C128.678 273.32 129.505 273.553 130.198 274.02C130.905 274.473 131.445 275.113 131.818 275.94C132.191 276.767 132.378 277.713 132.378 278.78V279.46ZM127.718 275.08C126.985 275.08 126.385 275.34 125.918 275.86C125.451 276.367 125.165 277.047 125.058 277.9H130.158C130.051 277.02 129.791 276.333 129.378 275.84C128.978 275.333 128.425 275.08 127.718 275.08Z" fill="black"/>
<path d="M60.46 342.24C59.7 342.24 58.9 342.14 58.06 341.94C57.22 341.74 56.4267 341.467 55.68 341.12V338.92C57.3733 339.853 58.9267 340.32 60.34 340.32C61.14 340.32 61.7733 340.14 62.24 339.78C62.72 339.42 62.96 338.927 62.96 338.3C62.96 337.847 62.8267 337.473 62.56 337.18C62.3067 336.873 61.98 336.633 61.58 336.46C61.1933 336.273 60.66 336.06 59.98 335.82C59.1133 335.513 58.4133 335.22 57.88 334.94C57.3467 334.66 56.8867 334.267 56.5 333.76C56.1267 333.24 55.94 332.573 55.94 331.76C55.94 330.547 56.3667 329.593 57.22 328.9C58.0867 328.193 59.2533 327.84 60.72 327.84C61.4133 327.84 62.0933 327.92 62.76 328.08C63.4267 328.227 64.0467 328.447 64.62 328.74V330.88C63.2867 330.133 61.9933 329.76 60.74 329.76C59.9267 329.76 59.2867 329.92 58.82 330.24C58.3667 330.547 58.14 330.973 58.14 331.52C58.14 331.907 58.26 332.233 58.5 332.5C58.74 332.767 59.04 332.987 59.4 333.16C59.7733 333.32 60.28 333.513 60.92 333.74C61.8133 334.06 62.54 334.367 63.1 334.66C63.66 334.953 64.14 335.38 64.54 335.94C64.9533 336.487 65.1667 337.193 65.18 338.06C65.18 339.34 64.7467 340.36 63.88 341.12C63.0267 341.867 61.8867 342.24 60.46 342.24ZM74.093 331.32C74.9463 331.32 75.6863 331.553 76.313 332.02C76.9396 332.487 77.4196 333.133 77.753 333.96C78.0863 334.773 78.253 335.7 78.253 336.74C78.253 337.78 78.053 338.72 77.653 339.56C77.2663 340.387 76.7196 341.04 76.013 341.52C75.3063 341.987 74.4863 342.22 73.553 342.22C72.6063 342.22 71.6796 342.013 70.773 341.6V346.64H68.613V333.88L68.173 331.56H70.233L70.553 332.96C71.0196 332.427 71.553 332.02 72.153 331.74C72.753 331.46 73.3996 331.32 74.093 331.32ZM73.213 340.38C74.1063 340.38 74.7863 340.06 75.253 339.42C75.7196 338.767 75.953 337.88 75.953 336.76C75.953 335.68 75.7663 334.82 75.393 334.18C75.033 333.527 74.4796 333.2 73.733 333.2C72.6796 333.2 71.693 333.68 70.773 334.64V340.02C71.5996 340.26 72.413 340.38 73.213 340.38ZM87.9259 342L87.6659 340.62C86.6659 341.7 85.4659 342.24 84.0659 342.24C83.0793 342.24 82.2726 341.973 81.6459 341.44C81.0193 340.893 80.7059 340.173 80.7059 339.28C80.7059 338.12 81.1593 337.247 82.0659 336.66C82.9726 336.06 84.1926 335.76 85.7259 335.76C86.3526 335.76 86.9393 335.787 87.4859 335.84V335.28C87.4859 334.613 87.2993 334.1 86.9259 333.74C86.5659 333.38 86.0526 333.2 85.3859 333.2C84.6526 333.2 83.9793 333.307 83.3659 333.52C82.7659 333.733 82.1326 334.073 81.4659 334.54V332.54C82.0793 332.1 82.7126 331.787 83.3659 331.6C84.0326 331.413 84.7793 331.32 85.6059 331.32C86.8593 331.32 87.8459 331.653 88.5659 332.32C89.2859 332.973 89.6459 333.88 89.6459 335.04V339.68L90.0859 342H87.9259ZM84.4459 340.52C85.0193 340.52 85.5459 340.4 86.0259 340.16C86.5193 339.907 87.0059 339.54 87.4859 339.06V337.36H85.6059C84.7659 337.36 84.1126 337.493 83.6459 337.76C83.1793 338.027 82.9459 338.48 82.9459 339.12C82.9459 339.56 83.0793 339.907 83.3459 340.16C83.6126 340.4 83.9793 340.52 84.4459 340.52ZM98.7275 331.32C99.7408 331.32 100.534 331.627 101.108 332.24C101.681 332.853 101.968 333.687 101.968 334.74V342H99.8075V335.54C99.8075 334.767 99.6675 334.193 99.3875 333.82C99.1075 333.433 98.6742 333.24 98.0875 333.24C97.5675 333.24 97.0942 333.347 96.6675 333.56C96.2542 333.76 95.8208 334.08 95.3675 334.52V342H93.2075V333.88L92.7675 331.56H94.8275L95.1475 332.96C95.7608 332.373 96.3342 331.953 96.8675 331.7C97.4008 331.447 98.0208 331.32 98.7275 331.32ZM106.78 329.56C106.38 329.56 106.04 329.427 105.76 329.16C105.48 328.88 105.34 328.533 105.34 328.12C105.34 327.693 105.48 327.347 105.76 327.08C106.04 326.8 106.38 326.66 106.78 326.66C107.18 326.66 107.52 326.8 107.8 327.08C108.08 327.347 108.22 327.693 108.22 328.12C108.22 328.533 108.08 328.88 107.8 329.16C107.52 329.427 107.18 329.56 106.78 329.56ZM107.86 331.56V342H105.7V331.56H107.86ZM114.386 342.24C113.733 342.24 113.079 342.147 112.426 341.96C111.786 341.76 111.186 341.48 110.626 341.12V338.98C111.253 339.46 111.853 339.813 112.426 340.04C113.013 340.267 113.626 340.38 114.266 340.38C114.946 340.38 115.479 340.26 115.866 340.02C116.253 339.78 116.446 339.453 116.446 339.04C116.446 338.613 116.266 338.3 115.906 338.1C115.559 337.9 115.006 337.7 114.246 337.5C113.513 337.313 112.913 337.12 112.446 336.92C111.993 336.72 111.599 336.42 111.266 336.02C110.933 335.62 110.766 335.08 110.766 334.4C110.766 333.467 111.133 332.72 111.866 332.16C112.613 331.6 113.593 331.32 114.806 331.32C115.979 331.32 117.053 331.62 118.026 332.22V334.3C117.493 333.9 116.979 333.613 116.486 333.44C116.006 333.267 115.486 333.18 114.926 333.18C114.286 333.18 113.786 333.28 113.426 333.48C113.066 333.68 112.886 333.967 112.886 334.34C112.886 334.713 113.053 334.993 113.386 335.18C113.719 335.353 114.259 335.54 115.006 335.74C115.753 335.94 116.359 336.14 116.826 336.34C117.293 336.527 117.693 336.833 118.026 337.26C118.373 337.687 118.546 338.253 118.546 338.96C118.546 339.6 118.366 340.167 118.006 340.66C117.659 341.153 117.166 341.54 116.526 341.82C115.899 342.1 115.186 342.24 114.386 342.24ZM127.126 331.32C128.139 331.32 128.933 331.627 129.506 332.24C130.079 332.853 130.366 333.687 130.366 334.74V342H128.206V335.54C128.206 334.767 128.066 334.193 127.786 333.82C127.506 333.433 127.073 333.24 126.486 333.24C125.966 333.24 125.493 333.347 125.066 333.56C124.653 333.76 124.219 334.08 123.766 334.52V342H121.606V326.92H123.766V332.76C124.326 332.253 124.859 331.887 125.366 331.66C125.873 331.433 126.459 331.32 127.126 331.32Z" fill="black"/>
<path d="M58.46 388.06V392.26H63.56V394.14H58.46V400H56.3V386.08H64.88V388.06H58.46ZM73.2722 389.32V391.56H72.9522C71.8055 391.56 70.8855 391.92 70.1922 392.64V400H68.0322V391.88L67.5922 389.56H69.7522L70.0722 391.2C70.5655 390.493 70.9989 390.007 71.3722 389.74C71.7455 389.46 72.1655 389.32 72.6322 389.32H73.2722ZM84.8 395.46H77.46C77.5667 396.38 77.8867 397.107 78.42 397.64C78.9667 398.16 79.7 398.42 80.62 398.42C81.22 398.42 81.8333 398.307 82.46 398.08C83.0867 397.84 83.6933 397.5 84.28 397.06H84.36V399C83.2533 399.827 82 400.24 80.6 400.24C79.52 400.24 78.58 400.013 77.78 399.56C76.98 399.107 76.3667 398.467 75.94 397.64C75.5133 396.8 75.3 395.833 75.3 394.74C75.3 393.687 75.4933 392.753 75.88 391.94C76.28 391.113 76.8467 390.473 77.58 390.02C78.3133 389.553 79.1667 389.32 80.14 389.32C81.1 389.32 81.9267 389.553 82.62 390.02C83.3267 390.473 83.8667 391.113 84.24 391.94C84.6133 392.767 84.8 393.713 84.8 394.78V395.46ZM80.14 391.08C79.4067 391.08 78.8067 391.34 78.34 391.86C77.8733 392.367 77.5867 393.047 77.48 393.9H82.58C82.4733 393.02 82.2133 392.333 81.8 391.84C81.4 391.333 80.8467 391.08 80.14 391.08ZM93.5322 389.32C94.5455 389.32 95.3389 389.627 95.9122 390.24C96.4855 390.853 96.7722 391.687 96.7722 392.74V400H94.6122V393.54C94.6122 392.767 94.4722 392.193 94.1922 391.82C93.9122 391.433 93.4789 391.24 92.8922 391.24C92.3722 391.24 91.8989 391.347 91.4722 391.56C91.0589 391.76 90.6255 392.08 90.1722 392.52V400H88.0122V391.88L87.5722 389.56H89.6322L89.9522 390.96C90.5655 390.373 91.1389 389.953 91.6722 389.7C92.2055 389.447 92.8255 389.32 93.5322 389.32ZM105.045 400.24C104.005 400.24 103.098 400.013 102.325 399.56C101.565 399.107 100.978 398.473 100.565 397.66C100.152 396.833 99.9452 395.887 99.9452 394.82C99.9452 393.74 100.152 392.787 100.565 391.96C100.992 391.133 101.585 390.487 102.345 390.02C103.118 389.553 104.018 389.32 105.045 389.32C106.365 389.32 107.425 389.62 108.225 390.22V392.2H108.145C107.265 391.547 106.245 391.22 105.085 391.22C104.152 391.22 103.438 391.547 102.945 392.2C102.452 392.853 102.205 393.733 102.205 394.84C102.205 395.92 102.445 396.773 102.925 397.4C103.418 398.027 104.132 398.34 105.065 398.34C106.225 398.34 107.292 397.953 108.265 397.18H108.345V399.18C107.492 399.887 106.392 400.24 105.045 400.24ZM117.126 389.32C118.139 389.32 118.933 389.627 119.506 390.24C120.079 390.853 120.366 391.687 120.366 392.74V400H118.206V393.54C118.206 392.767 118.066 392.193 117.786 391.82C117.506 391.433 117.073 391.24 116.486 391.24C115.966 391.24 115.493 391.347 115.066 391.56C114.653 391.76 114.219 392.08 113.766 392.52V400H111.606V384.92H113.766V390.76C114.326 390.253 114.859 389.887 115.366 389.66C115.873 389.433 116.459 389.32 117.126 389.32Z" fill="black"/>
<path d="M56.12 444.08H58.28V458H56.12V444.08ZM64.8663 447.56H67.5263V449.28H64.8663V454.84C64.8663 455.333 64.9663 455.72 65.1663 456C65.3796 456.28 65.6929 456.42 66.1063 456.42C66.5329 456.42 67.0129 456.293 67.5463 456.04V457.88C66.9863 458.12 66.3529 458.24 65.6463 458.24C64.6996 458.24 63.9729 457.953 63.4663 457.38C62.9596 456.807 62.7063 455.993 62.7063 454.94V449.28H60.9263V447.56H62.7063V444.76L64.8663 443.84V447.56ZM76.7541 458L76.4941 456.62C75.4941 457.7 74.2941 458.24 72.8941 458.24C71.9074 458.24 71.1007 457.973 70.4741 457.44C69.8474 456.893 69.5341 456.173 69.5341 455.28C69.5341 454.12 69.9874 453.247 70.8941 452.66C71.8007 452.06 73.0207 451.76 74.5541 451.76C75.1807 451.76 75.7674 451.787 76.3141 451.84V451.28C76.3141 450.613 76.1274 450.1 75.7541 449.74C75.3941 449.38 74.8807 449.2 74.2141 449.2C73.4807 449.2 72.8074 449.307 72.1941 449.52C71.5941 449.733 70.9607 450.073 70.2941 450.54V448.54C70.9074 448.1 71.5407 447.787 72.1941 447.6C72.8607 447.413 73.6074 447.32 74.4341 447.32C75.6874 447.32 76.6741 447.653 77.3941 448.32C78.1141 448.973 78.4741 449.88 78.4741 451.04V455.68L78.9141 458H76.7541ZM73.2741 456.52C73.8474 456.52 74.3741 456.4 74.8541 456.16C75.3474 455.907 75.8341 455.54 76.3141 455.06V453.36H74.4341C73.5941 453.36 72.9407 453.493 72.4741 453.76C72.0074 454.027 71.7741 454.48 71.7741 455.12C71.7741 455.56 71.9074 455.907 72.1741 456.16C72.4407 456.4 72.8074 456.52 73.2741 456.52ZM81.7356 442.92H83.8956V458H81.7356V442.92ZM88.4211 445.56C88.0211 445.56 87.6811 445.427 87.4011 445.16C87.1211 444.88 86.9811 444.533 86.9811 444.12C86.9811 443.693 87.1211 443.347 87.4011 443.08C87.6811 442.8 88.0211 442.66 88.4211 442.66C88.8211 442.66 89.1611 442.8 89.4411 443.08C89.7211 443.347 89.8611 443.693 89.8611 444.12C89.8611 444.533 89.7211 444.88 89.4411 445.16C89.1611 445.427 88.8211 445.56 88.4211 445.56ZM89.5011 447.56V458H87.3411V447.56H89.5011ZM99.5666 458L99.3066 456.62C98.3066 457.7 97.1066 458.24 95.7066 458.24C94.7199 458.24 93.9132 457.973 93.2866 457.44C92.6599 456.893 92.3466 456.173 92.3466 455.28C92.3466 454.12 92.7999 453.247 93.7066 452.66C94.6132 452.06 95.8332 451.76 97.3666 451.76C97.9932 451.76 98.5799 451.787 99.1266 451.84V451.28C99.1266 450.613 98.9399 450.1 98.5666 449.74C98.2066 449.38 97.6932 449.2 97.0266 449.2C96.2932 449.2 95.6199 449.307 95.0066 449.52C94.4066 449.733 93.7732 450.073 93.1066 450.54V448.54C93.7199 448.1 94.3532 447.787 95.0066 447.6C95.6732 447.413 96.4199 447.32 97.2466 447.32C98.4999 447.32 99.4866 447.653 100.207 448.32C100.927 448.973 101.287 449.88 101.287 451.04V455.68L101.727 458H99.5666ZM96.0866 456.52C96.6599 456.52 97.1866 456.4 97.6666 456.16C98.1599 455.907 98.6466 455.54 99.1266 455.06V453.36H97.2466C96.4066 453.36 95.7532 453.493 95.2866 453.76C94.8199 454.027 94.5866 454.48 94.5866 455.12C94.5866 455.56 94.7199 455.907 94.9866 456.16C95.2532 456.4 95.6199 456.52 96.0866 456.52ZM110.368 447.32C111.381 447.32 112.175 447.627 112.748 448.24C113.321 448.853 113.608 449.687 113.608 450.74V458H111.448V451.54C111.448 450.767 111.308 450.193 111.028 449.82C110.748 449.433 110.315 449.24 109.728 449.24C109.208 449.24 108.735 449.347 108.308 449.56C107.895 449.76 107.461 450.08 107.008 450.52V458H104.848V449.88L104.408 447.56H106.468L106.788 448.96C107.401 448.373 107.975 447.953 108.508 447.7C109.041 447.447 109.661 447.32 110.368 447.32Z" fill="black"/>
<path d="M55.82 509.08C55.82 507.613 56.0867 506.34 56.62 505.26C57.1533 504.167 57.9333 503.327 58.96 502.74C59.9867 502.14 61.22 501.84 62.66 501.84C64.18 501.84 65.5733 502.187 66.84 502.88L66.82 505.08H66.74C66.2467 504.707 65.6467 504.407 64.94 504.18C64.2467 503.94 63.5067 503.82 62.72 503.82C61.2 503.82 60.0533 504.273 59.28 505.18C58.5067 506.087 58.12 507.38 58.12 509.06C58.12 510.7 58.4867 511.98 59.22 512.9C59.9667 513.807 61.0667 514.26 62.52 514.26C63.08 514.26 63.6 514.193 64.08 514.06C64.5733 513.913 64.9933 513.7 65.34 513.42V510.84H62.54V509H67.5V514.56C66.5667 515.147 65.72 515.573 64.96 515.84C64.2 516.107 63.3733 516.24 62.48 516.24C61.0667 516.24 59.86 515.947 58.86 515.36C57.86 514.76 57.1 513.927 56.58 512.86C56.0733 511.78 55.82 510.52 55.82 509.08ZM80.4055 511.46H73.0655C73.1721 512.38 73.4921 513.107 74.0255 513.64C74.5721 514.16 75.3055 514.42 76.2255 514.42C76.8255 514.42 77.4388 514.307 78.0655 514.08C78.6921 513.84 79.2988 513.5 79.8855 513.06H79.9655V515C78.8588 515.827 77.6055 516.24 76.2055 516.24C75.1255 516.24 74.1855 516.013 73.3855 515.56C72.5855 515.107 71.9721 514.467 71.5455 513.64C71.1188 512.8 70.9055 511.833 70.9055 510.74C70.9055 509.687 71.0988 508.753 71.4855 507.94C71.8855 507.113 72.4521 506.473 73.1855 506.02C73.9188 505.553 74.7721 505.32 75.7455 505.32C76.7055 505.32 77.5321 505.553 78.2255 506.02C78.9321 506.473 79.4721 507.113 79.8455 507.94C80.2188 508.767 80.4055 509.713 80.4055 510.78V511.46ZM75.7455 507.08C75.0121 507.08 74.4121 507.34 73.9455 507.86C73.4788 508.367 73.1921 509.047 73.0855 509.9H78.1855C78.0788 509.02 77.8188 508.333 77.4055 507.84C77.0055 507.333 76.4521 507.08 75.7455 507.08ZM88.8777 505.32V507.56H88.5577C87.411 507.56 86.491 507.92 85.7977 508.64V516H83.6377V507.88L83.1977 505.56H85.3577L85.6777 507.2C86.171 506.493 86.6043 506.007 86.9777 505.74C87.351 505.46 87.771 505.32 88.2377 505.32H88.8777ZM103.636 505.32C104.623 505.32 105.389 505.627 105.936 506.24C106.496 506.853 106.776 507.687 106.776 508.74V516H104.616V509.54C104.616 508.767 104.483 508.193 104.216 507.82C103.963 507.433 103.549 507.24 102.976 507.24C102.496 507.24 102.063 507.347 101.676 507.56C101.303 507.76 100.903 508.073 100.476 508.5V508.74V516H98.3161V509.54C98.3161 508.767 98.1828 508.193 97.9161 507.82C97.6628 507.433 97.2494 507.24 96.6761 507.24C96.1961 507.24 95.7628 507.347 95.3761 507.56C95.0028 507.76 94.6028 508.073 94.1761 508.5V516H92.0161V507.88L91.5761 505.56H93.6361L93.9561 506.96C94.5294 506.373 95.0628 505.953 95.5561 505.7C96.0628 505.447 96.6561 505.32 97.3361 505.32C98.0161 505.32 98.5961 505.473 99.0761 505.78C99.5694 506.073 99.9294 506.493 100.156 507.04C100.756 506.427 101.309 505.987 101.816 505.72C102.336 505.453 102.943 505.32 103.636 505.32ZM117.145 516L116.885 514.62C115.885 515.7 114.685 516.24 113.285 516.24C112.298 516.24 111.491 515.973 110.865 515.44C110.238 514.893 109.925 514.173 109.925 513.28C109.925 512.12 110.378 511.247 111.285 510.66C112.191 510.06 113.411 509.76 114.945 509.76C115.571 509.76 116.158 509.787 116.705 509.84V509.28C116.705 508.613 116.518 508.1 116.145 507.74C115.785 507.38 115.271 507.2 114.605 507.2C113.871 507.2 113.198 507.307 112.585 507.52C111.985 507.733 111.351 508.073 110.685 508.54V506.54C111.298 506.1 111.931 505.787 112.585 505.6C113.251 505.413 113.998 505.32 114.825 505.32C116.078 505.32 117.065 505.653 117.785 506.32C118.505 506.973 118.865 507.88 118.865 509.04V513.68L119.305 516H117.145ZM113.665 514.52C114.238 514.52 114.765 514.4 115.245 514.16C115.738 513.907 116.225 513.54 116.705 513.06V511.36H114.825C113.985 511.36 113.331 511.493 112.865 511.76C112.398 512.027 112.165 512.48 112.165 513.12C112.165 513.56 112.298 513.907 112.565 514.16C112.831 514.4 113.198 514.52 113.665 514.52ZM127.946 505.32C128.96 505.32 129.753 505.627 130.326 506.24C130.9 506.853 131.186 507.687 131.186 508.74V516H129.026V509.54C129.026 508.767 128.886 508.193 128.606 507.82C128.326 507.433 127.893 507.24 127.306 507.24C126.786 507.24 126.313 507.347 125.886 507.56C125.473 507.76 125.04 508.08 124.586 508.52V516H122.426V507.88L121.986 505.56H124.046L124.366 506.96C124.98 506.373 125.553 505.953 126.086 505.7C126.62 505.447 127.24 505.32 127.946 505.32Z" fill="black"/>
<path d="M64.28 574L61.44 568.62H61.4H58.46V574H56.3V560.08H61.16C62.88 560.08 64.1667 560.44 65.02 561.16C65.8733 561.867 66.3 562.893 66.3 564.24C66.3 565.227 66.08 566.067 65.64 566.76C65.2 567.44 64.5467 567.94 63.68 568.26L66.74 574H64.28ZM61.18 566.66C62.14 566.66 62.8467 566.48 63.3 566.12C63.7667 565.76 64 565.147 64 564.28C64 563.467 63.7733 562.893 63.32 562.56C62.8667 562.227 62.1467 562.06 61.16 562.06H58.46V566.66H61.18ZM77.0839 574L76.7639 572.6C76.1106 573.187 75.5106 573.607 74.9639 573.86C74.4306 574.113 73.8106 574.24 73.1039 574.24C72.1439 574.24 71.3772 573.927 70.8039 573.3C70.2306 572.66 69.9439 571.833 69.9439 570.82V563.56H72.1039V570.02C72.1039 570.74 72.2439 571.307 72.5239 571.72C72.8039 572.12 73.2106 572.32 73.7439 572.32C74.2639 572.32 74.7372 572.213 75.1639 572C75.6039 571.787 76.0639 571.46 76.5439 571.02V563.56H78.7039V571.68L79.1439 574H77.0839ZM85.5969 574.24C84.9435 574.24 84.2902 574.147 83.6369 573.96C82.9969 573.76 82.3969 573.48 81.8369 573.12V570.98C82.4635 571.46 83.0635 571.813 83.6369 572.04C84.2235 572.267 84.8369 572.38 85.4769 572.38C86.1569 572.38 86.6902 572.26 87.0769 572.02C87.4635 571.78 87.6569 571.453 87.6569 571.04C87.6569 570.613 87.4769 570.3 87.1169 570.1C86.7702 569.9 86.2169 569.7 85.4569 569.5C84.7235 569.313 84.1235 569.12 83.6569 568.92C83.2035 568.72 82.8102 568.42 82.4769 568.02C82.1435 567.62 81.9769 567.08 81.9769 566.4C81.9769 565.467 82.3435 564.72 83.0769 564.16C83.8235 563.6 84.8035 563.32 86.0169 563.32C87.1902 563.32 88.2635 563.62 89.2369 564.22V566.3C88.7035 565.9 88.1902 565.613 87.6969 565.44C87.2169 565.267 86.6969 565.18 86.1369 565.18C85.4969 565.18 84.9969 565.28 84.6369 565.48C84.2769 565.68 84.0969 565.967 84.0969 566.34C84.0969 566.713 84.2635 566.993 84.5969 567.18C84.9302 567.353 85.4702 567.54 86.2169 567.74C86.9635 567.94 87.5702 568.14 88.0369 568.34C88.5035 568.527 88.9035 568.833 89.2369 569.26C89.5835 569.687 89.7569 570.253 89.7569 570.96C89.7569 571.6 89.5769 572.167 89.2169 572.66C88.8702 573.153 88.3769 573.54 87.7369 573.82C87.1102 574.1 86.3969 574.24 85.5969 574.24ZM95.5969 574.24C94.9435 574.24 94.2902 574.147 93.6369 573.96C92.9969 573.76 92.3969 573.48 91.8369 573.12V570.98C92.4635 571.46 93.0635 571.813 93.6369 572.04C94.2235 572.267 94.8369 572.38 95.4769 572.38C96.1569 572.38 96.6902 572.26 97.0769 572.02C97.4635 571.78 97.6569 571.453 97.6569 571.04C97.6569 570.613 97.4769 570.3 97.1169 570.1C96.7702 569.9 96.2169 569.7 95.4569 569.5C94.7235 569.313 94.1235 569.12 93.6569 568.92C93.2035 568.72 92.8102 568.42 92.4769 568.02C92.1435 567.62 91.9769 567.08 91.9769 566.4C91.9769 565.467 92.3435 564.72 93.0769 564.16C93.8235 563.6 94.8035 563.32 96.0169 563.32C97.1902 563.32 98.2635 563.62 99.2369 564.22V566.3C98.7035 565.9 98.1902 565.613 97.6969 565.44C97.2169 565.267 96.6969 565.18 96.1369 565.18C95.4969 565.18 94.9969 565.28 94.6369 565.48C94.2769 565.68 94.0969 565.967 94.0969 566.34C94.0969 566.713 94.2635 566.993 94.5969 567.18C94.9302 567.353 95.4702 567.54 96.2169 567.74C96.9635 567.94 97.5702 568.14 98.0369 568.34C98.5035 568.527 98.9035 568.833 99.2369 569.26C99.5835 569.687 99.7569 570.253 99.7569 570.96C99.7569 571.6 99.5769 572.167 99.2169 572.66C98.8702 573.153 98.3769 573.54 97.7369 573.82C97.1102 574.1 96.3969 574.24 95.5969 574.24ZM103.597 561.56C103.197 561.56 102.857 561.427 102.577 561.16C102.297 560.88 102.157 560.533 102.157 560.12C102.157 559.693 102.297 559.347 102.577 559.08C102.857 558.8 103.197 558.66 103.597 558.66C103.997 558.66 104.337 558.8 104.617 559.08C104.897 559.347 105.037 559.693 105.037 560.12C105.037 560.533 104.897 560.88 104.617 561.16C104.337 561.427 103.997 561.56 103.597 561.56ZM104.677 563.56V574H102.517V563.56H104.677ZM114.742 574L114.482 572.62C113.482 573.7 112.282 574.24 110.882 574.24C109.896 574.24 109.089 573.973 108.462 573.44C107.836 572.893 107.522 572.173 107.522 571.28C107.522 570.12 107.976 569.247 108.882 568.66C109.789 568.06 111.009 567.76 112.542 567.76C113.169 567.76 113.756 567.787 114.302 567.84V567.28C114.302 566.613 114.116 566.1 113.742 565.74C113.382 565.38 112.869 565.2 112.202 565.2C111.469 565.2 110.796 565.307 110.182 565.52C109.582 565.733 108.949 566.073 108.282 566.54V564.54C108.896 564.1 109.529 563.787 110.182 563.6C110.849 563.413 111.596 563.32 112.422 563.32C113.676 563.32 114.662 563.653 115.382 564.32C116.102 564.973 116.462 565.88 116.462 567.04V571.68L116.902 574H114.742ZM111.262 572.52C111.836 572.52 112.362 572.4 112.842 572.16C113.336 571.907 113.822 571.54 114.302 571.06V569.36H112.422C111.582 569.36 110.929 569.493 110.462 569.76C109.996 570.027 109.762 570.48 109.762 571.12C109.762 571.56 109.896 571.907 110.162 572.16C110.429 572.4 110.796 572.52 111.262 572.52ZM125.544 563.32C126.557 563.32 127.351 563.627 127.924 564.24C128.497 564.853 128.784 565.687 128.784 566.74V574H126.624V567.54C126.624 566.767 126.484 566.193 126.204 565.82C125.924 565.433 125.491 565.24 124.904 565.24C124.384 565.24 123.911 565.347 123.484 565.56C123.071 565.76 122.637 566.08 122.184 566.52V574H120.024V565.88L119.584 563.56H121.644L121.964 564.96C122.577 564.373 123.151 563.953 123.684 563.7C124.217 563.447 124.837 563.32 125.544 563.32Z" fill="black"/>
<path d="M64.54 628.56H58.16L56.88 632H54.72L60.04 618.08H62.76L68.08 632H65.82L64.54 628.56ZM63.84 626.72L61.36 620.08L58.86 626.72H63.84ZM76.0847 621.32V623.56H75.7647C74.618 623.56 73.698 623.92 73.0047 624.64V632H70.8447V623.88L70.4047 621.56H72.5647L72.8847 623.2C73.378 622.493 73.8114 622.007 74.1847 621.74C74.558 621.46 74.978 621.32 75.4447 621.32H76.0847ZM85.5431 632L85.2831 630.62C84.2831 631.7 83.0831 632.24 81.6831 632.24C80.6965 632.24 79.8898 631.973 79.2631 631.44C78.6365 630.893 78.3231 630.173 78.3231 629.28C78.3231 628.12 78.7765 627.247 79.6831 626.66C80.5898 626.06 81.8098 625.76 83.3431 625.76C83.9698 625.76 84.5565 625.787 85.1031 625.84V625.28C85.1031 624.613 84.9165 624.1 84.5431 623.74C84.1831 623.38 83.6698 623.2 83.0031 623.2C82.2698 623.2 81.5965 623.307 80.9831 623.52C80.3831 623.733 79.7498 624.073 79.0831 624.54V622.54C79.6965 622.1 80.3298 621.787 80.9831 621.6C81.6498 621.413 82.3965 621.32 83.2231 621.32C84.4765 621.32 85.4631 621.653 86.1831 622.32C86.9031 622.973 87.2631 623.88 87.2631 625.04V629.68L87.7031 632H85.5431ZM82.0631 630.52C82.6365 630.52 83.1631 630.4 83.6431 630.16C84.1365 629.907 84.6231 629.54 85.1031 629.06V627.36H83.2231C82.3831 627.36 81.7298 627.493 81.2631 627.76C80.7965 628.027 80.5631 628.48 80.5631 629.12C80.5631 629.56 80.6965 629.907 80.9631 630.16C81.2298 630.4 81.5965 630.52 82.0631 630.52ZM95.9447 621.32C96.838 621.32 97.6047 621.553 98.2447 622.02C98.898 622.487 99.398 623.133 99.7447 623.96C100.091 624.787 100.265 625.733 100.265 626.8C100.265 627.88 100.071 628.827 99.6847 629.64C99.298 630.453 98.738 631.087 98.0047 631.54C97.2847 631.993 96.438 632.22 95.4647 632.22C94.998 632.22 94.558 632.167 94.1447 632.06C93.7314 631.967 93.2847 631.813 92.8047 631.6V632H90.6447V616.92H92.8047V622.64C93.6714 621.76 94.718 621.32 95.9447 621.32ZM95.2447 630.36C96.1514 630.36 96.8314 630.047 97.2847 629.42C97.738 628.793 97.9647 627.92 97.9647 626.8C97.9647 625.68 97.7847 624.807 97.4247 624.18C97.0647 623.553 96.498 623.24 95.7247 623.24C95.1914 623.24 94.6847 623.36 94.2047 623.6C93.738 623.827 93.2714 624.173 92.8047 624.64V630.02C93.5247 630.247 94.338 630.36 95.2447 630.36ZM104.398 619.56C103.998 619.56 103.658 619.427 103.378 619.16C103.098 618.88 102.958 618.533 102.958 618.12C102.958 617.693 103.098 617.347 103.378 617.08C103.658 616.8 103.998 616.66 104.398 616.66C104.798 616.66 105.138 616.8 105.418 617.08C105.698 617.347 105.838 617.693 105.838 618.12C105.838 618.533 105.698 618.88 105.418 619.16C105.138 619.427 104.798 619.56 104.398 619.56ZM105.478 621.56V632H103.318V621.56H105.478ZM113.463 632.24C112.423 632.24 111.516 632.013 110.743 631.56C109.983 631.107 109.396 630.473 108.983 629.66C108.57 628.833 108.363 627.887 108.363 626.82C108.363 625.74 108.57 624.787 108.983 623.96C109.41 623.133 110.003 622.487 110.763 622.02C111.536 621.553 112.436 621.32 113.463 621.32C114.783 621.32 115.843 621.62 116.643 622.22V624.2H116.563C115.683 623.547 114.663 623.22 113.503 623.22C112.57 623.22 111.856 623.547 111.363 624.2C110.87 624.853 110.623 625.733 110.623 626.84C110.623 627.92 110.863 628.773 111.343 629.4C111.836 630.027 112.55 630.34 113.483 630.34C114.643 630.34 115.71 629.953 116.683 629.18H116.763V631.18C115.91 631.887 114.81 632.24 113.463 632.24Z" fill="black"/>
<path d="M58.495 807.56L54.76 814.28V818H53.14V814.28L49.405 807.56H51.205L53.965 812.72L56.77 807.56H58.495ZM62.8088 818.18C62.0388 818.18 61.3688 818.01 60.7988 817.67C60.2288 817.33 59.7888 816.855 59.4788 816.245C59.1788 815.625 59.0288 814.905 59.0288 814.085C59.0288 813.265 59.1788 812.55 59.4788 811.94C59.7888 811.32 60.2288 810.84 60.7988 810.5C61.3688 810.16 62.0388 809.99 62.8088 809.99C63.5788 809.99 64.2488 810.16 64.8188 810.5C65.3888 810.84 65.8238 811.32 66.1238 811.94C66.4338 812.55 66.5888 813.265 66.5888 814.085C66.5888 814.905 66.4338 815.625 66.1238 816.245C65.8238 816.855 65.3888 817.33 64.8188 817.67C64.2488 818.01 63.5788 818.18 62.8088 818.18ZM62.8088 816.815C63.4788 816.815 63.9888 816.575 64.3388 816.095C64.6888 815.605 64.8638 814.935 64.8638 814.085C64.8638 813.235 64.6888 812.57 64.3388 812.09C63.9888 811.6 63.4788 811.355 62.8088 811.355C62.1388 811.355 61.6288 811.6 61.2788 812.09C60.9388 812.57 60.7688 813.235 60.7688 814.085C60.7688 814.935 60.9388 815.605 61.2788 816.095C61.6288 816.575 62.1388 816.815 62.8088 816.815ZM74.4135 818L74.1735 816.95C73.6835 817.39 73.2335 817.705 72.8235 817.895C72.4235 818.085 71.9585 818.18 71.4285 818.18C70.7085 818.18 70.1335 817.945 69.7035 817.475C69.2735 816.995 69.0585 816.375 69.0585 815.615V810.17H70.6785V815.015C70.6785 815.555 70.7835 815.98 70.9935 816.29C71.2035 816.59 71.5085 816.74 71.9085 816.74C72.2985 816.74 72.6535 816.66 72.9735 816.5C73.3035 816.34 73.6485 816.095 74.0085 815.765V810.17H75.6285V816.26L75.9585 818H74.4135ZM86.0973 818.18C85.3173 818.18 84.6373 818.01 84.0573 817.67C83.4873 817.33 83.0473 816.855 82.7373 816.245C82.4273 815.625 82.2723 814.915 82.2723 814.115C82.2723 813.305 82.4273 812.59 82.7373 811.97C83.0573 811.35 83.5023 810.865 84.0723 810.515C84.6523 810.165 85.3273 809.99 86.0973 809.99C87.0873 809.99 87.8823 810.215 88.4823 810.665V812.15H88.4223C87.7623 811.66 86.9973 811.415 86.1273 811.415C85.4273 811.415 84.8923 811.66 84.5223 812.15C84.1523 812.64 83.9673 813.3 83.9673 814.13C83.9673 814.94 84.1473 815.58 84.5073 816.05C84.8773 816.52 85.4123 816.755 86.1123 816.755C86.9823 816.755 87.7823 816.465 88.5123 815.885H88.5723V817.385C87.9323 817.915 87.1073 818.18 86.0973 818.18ZM95.7579 818L95.5629 816.965C94.8129 817.775 93.9129 818.18 92.8629 818.18C92.1229 818.18 91.5179 817.98 91.0479 817.58C90.5779 817.17 90.3429 816.63 90.3429 815.96C90.3429 815.09 90.6829 814.435 91.3629 813.995C92.0429 813.545 92.9579 813.32 94.1079 813.32C94.5779 813.32 95.0179 813.34 95.4279 813.38V812.96C95.4279 812.46 95.2879 812.075 95.0079 811.805C94.7379 811.535 94.3529 811.4 93.8529 811.4C93.3029 811.4 92.7979 811.48 92.3379 811.64C91.8879 811.8 91.4129 812.055 90.9129 812.405V810.905C91.3729 810.575 91.8479 810.34 92.3379 810.2C92.8379 810.06 93.3979 809.99 94.0179 809.99C94.9579 809.99 95.6979 810.24 96.2379 810.74C96.7779 811.23 97.0479 811.91 97.0479 812.78V816.26L97.3779 818H95.7579ZM93.1479 816.89C93.5779 816.89 93.9729 816.8 94.3329 816.62C94.7029 816.43 95.0679 816.155 95.4279 815.795V814.52H94.0179C93.3879 814.52 92.8979 814.62 92.5479 814.82C92.1979 815.02 92.0229 815.36 92.0229 815.84C92.0229 816.17 92.1229 816.43 92.3229 816.62C92.5229 816.8 92.7979 816.89 93.1479 816.89ZM103.859 809.99C104.619 809.99 105.214 810.22 105.644 810.68C106.074 811.14 106.289 811.765 106.289 812.555V818H104.669V813.155C104.669 812.575 104.564 812.145 104.354 811.865C104.144 811.575 103.819 811.43 103.379 811.43C102.989 811.43 102.634 811.51 102.314 811.67C102.004 811.82 101.679 812.06 101.339 812.39V818H99.7191V811.91L99.3891 810.17H100.934L101.174 811.22C101.634 810.78 102.064 810.465 102.464 810.275C102.864 810.085 103.329 809.99 103.859 809.99ZM116.698 818.18C115.918 818.18 115.238 818.01 114.658 817.67C114.088 817.33 113.648 816.855 113.338 816.245C113.028 815.625 112.873 814.915 112.873 814.115C112.873 813.305 113.028 812.59 113.338 811.97C113.658 811.35 114.103 810.865 114.673 810.515C115.253 810.165 115.928 809.99 116.698 809.99C117.688 809.99 118.483 810.215 119.083 810.665V812.15H119.023C118.363 811.66 117.598 811.415 116.728 811.415C116.028 811.415 115.493 811.66 115.123 812.15C114.753 812.64 114.568 813.3 114.568 814.13C114.568 814.94 114.748 815.58 115.108 816.05C115.478 816.52 116.013 816.755 116.713 816.755C117.583 816.755 118.383 816.465 119.113 815.885H119.173V817.385C118.533 817.915 117.708 818.18 116.698 818.18ZM125.759 809.99C126.519 809.99 127.114 810.22 127.544 810.68C127.974 811.14 128.189 811.765 128.189 812.555V818H126.569V813.155C126.569 812.575 126.464 812.145 126.254 811.865C126.044 811.575 125.719 811.43 125.279 811.43C124.889 811.43 124.534 811.51 124.214 811.67C123.904 811.82 123.579 812.06 123.239 812.39V818H121.619V806.69H123.239V811.07C123.659 810.69 124.059 810.415 124.439 810.245C124.819 810.075 125.259 809.99 125.759 809.99ZM135.953 818L135.758 816.965C135.008 817.775 134.108 818.18 133.058 818.18C132.318 818.18 131.713 817.98 131.243 817.58C130.773 817.17 130.538 816.63 130.538 815.96C130.538 815.09 130.878 814.435 131.558 813.995C132.238 813.545 133.153 813.32 134.303 813.32C134.773 813.32 135.213 813.34 135.623 813.38V812.96C135.623 812.46 135.483 812.075 135.203 811.805C134.933 811.535 134.548 811.4 134.048 811.4C133.498 811.4 132.993 811.48 132.533 811.64C132.083 811.8 131.608 812.055 131.108 812.405V810.905C131.568 810.575 132.043 810.34 132.533 810.2C133.033 810.06 133.593 809.99 134.213 809.99C135.153 809.99 135.893 810.24 136.433 810.74C136.973 811.23 137.243 811.91 137.243 812.78V816.26L137.573 818H135.953ZM133.343 816.89C133.773 816.89 134.168 816.8 134.528 816.62C134.898 816.43 135.263 816.155 135.623 815.795V814.52H134.213C133.583 814.52 133.093 814.62 132.743 814.82C132.393 815.02 132.218 815.36 132.218 815.84C132.218 816.17 132.318 816.43 132.518 816.62C132.718 816.8 132.993 816.89 133.343 816.89ZM144.054 809.99C144.814 809.99 145.409 810.22 145.839 810.68C146.269 811.14 146.484 811.765 146.484 812.555V818H144.864V813.155C144.864 812.575 144.759 812.145 144.549 811.865C144.339 811.575 144.014 811.43 143.574 811.43C143.184 811.43 142.829 811.51 142.509 811.67C142.199 811.82 141.874 812.06 141.534 812.39V818H139.914V811.91L139.584 810.17H141.129L141.369 811.22C141.829 810.78 142.259 810.465 142.659 810.275C143.059 810.085 143.524 809.99 144.054 809.99ZM156.394 810.155L156.064 811.895V817.715C156.064 818.975 155.734 819.945 155.074 820.625C154.424 821.315 153.499 821.66 152.299 821.66C151.649 821.66 151.084 821.585 150.604 821.435C150.134 821.285 149.674 821.04 149.224 820.7V819.125C149.704 819.505 150.174 819.78 150.634 819.95C151.104 820.12 151.634 820.205 152.224 820.205C152.984 820.205 153.544 819.995 153.904 819.575C154.264 819.165 154.444 818.58 154.444 817.82V817.34C154.144 817.53 153.819 817.67 153.469 817.76C153.129 817.85 152.749 817.895 152.329 817.895C151.239 817.895 150.394 817.55 149.794 816.86C149.204 816.17 148.909 815.215 148.909 813.995C148.909 812.735 149.219 811.755 149.839 811.055C150.459 810.345 151.339 809.99 152.479 809.99C152.879 809.99 153.234 810.03 153.544 810.11C153.864 810.19 154.244 810.325 154.684 810.515L154.774 810.155H156.394ZM152.359 816.455C152.739 816.455 153.094 816.405 153.424 816.305C153.754 816.195 154.094 816.03 154.444 815.81V811.625C153.954 811.465 153.354 811.385 152.644 811.385C151.304 811.385 150.634 812.255 150.634 813.995C150.634 814.805 150.769 815.42 151.039 815.84C151.319 816.25 151.759 816.455 152.359 816.455ZM165.396 814.595H159.891C159.971 815.285 160.211 815.83 160.611 816.23C161.021 816.62 161.571 816.815 162.261 816.815C162.711 816.815 163.171 816.73 163.641 816.56C164.111 816.38 164.566 816.125 165.006 815.795H165.066V817.25C164.236 817.87 163.296 818.18 162.246 818.18C161.436 818.18 160.731 818.01 160.131 817.67C159.531 817.33 159.071 816.85 158.751 816.23C158.431 815.6 158.271 814.875 158.271 814.055C158.271 813.265 158.416 812.565 158.706 811.955C159.006 811.335 159.431 810.855 159.981 810.515C160.531 810.165 161.171 809.99 161.901 809.99C162.621 809.99 163.241 810.165 163.761 810.515C164.291 810.855 164.696 811.335 164.976 811.955C165.256 812.575 165.396 813.285 165.396 814.085V814.595ZM161.901 811.31C161.351 811.31 160.901 811.505 160.551 811.895C160.201 812.275 159.986 812.785 159.906 813.425H163.731C163.651 812.765 163.456 812.25 163.146 811.88C162.846 811.5 162.431 811.31 161.901 811.31ZM173.839 810.17H175.834V811.46H173.839V815.63C173.839 816 173.914 816.29 174.064 816.5C174.224 816.71 174.459 816.815 174.769 816.815C175.089 816.815 175.449 816.72 175.849 816.53V817.91C175.429 818.09 174.954 818.18 174.424 818.18C173.714 818.18 173.169 817.965 172.789 817.535C172.409 817.105 172.219 816.495 172.219 815.705V811.46H170.884V810.17H172.219V808.07L173.839 807.38V810.17ZM182.155 809.99C182.915 809.99 183.51 810.22 183.94 810.68C184.37 811.14 184.585 811.765 184.585 812.555V818H182.965V813.155C182.965 812.575 182.86 812.145 182.65 811.865C182.44 811.575 182.115 811.43 181.675 811.43C181.285 811.43 180.93 811.51 180.61 811.67C180.3 811.82 179.975 812.06 179.635 812.39V818H178.015V806.69H179.635V811.07C180.055 810.69 180.455 810.415 180.835 810.245C181.215 810.075 181.655 809.99 182.155 809.99ZM188.195 808.67C187.895 808.67 187.64 808.57 187.43 808.37C187.22 808.16 187.115 807.9 187.115 807.59C187.115 807.27 187.22 807.01 187.43 806.81C187.64 806.6 187.895 806.495 188.195 806.495C188.495 806.495 188.75 806.6 188.96 806.81C189.17 807.01 189.275 807.27 189.275 807.59C189.275 807.9 189.17 808.16 188.96 808.37C188.75 808.57 188.495 808.67 188.195 808.67ZM189.005 810.17V818H187.385V810.17H189.005ZM193.899 818.18C193.409 818.18 192.919 818.11 192.429 817.97C191.949 817.82 191.499 817.61 191.079 817.34V815.735C191.549 816.095 191.999 816.36 192.429 816.53C192.869 816.7 193.329 816.785 193.809 816.785C194.319 816.785 194.719 816.695 195.009 816.515C195.299 816.335 195.444 816.09 195.444 815.78C195.444 815.46 195.309 815.225 195.039 815.075C194.779 814.925 194.364 814.775 193.794 814.625C193.244 814.485 192.794 814.34 192.444 814.19C192.104 814.04 191.809 813.815 191.559 813.515C191.309 813.215 191.184 812.81 191.184 812.3C191.184 811.6 191.459 811.04 192.009 810.62C192.569 810.2 193.304 809.99 194.214 809.99C195.094 809.99 195.899 810.215 196.629 810.665V812.225C196.229 811.925 195.844 811.71 195.474 811.58C195.114 811.45 194.724 811.385 194.304 811.385C193.824 811.385 193.449 811.46 193.179 811.61C192.909 811.76 192.774 811.975 192.774 812.255C192.774 812.535 192.899 812.745 193.149 812.885C193.399 813.015 193.804 813.155 194.364 813.305C194.924 813.455 195.379 813.605 195.729 813.755C196.079 813.895 196.379 814.125 196.629 814.445C196.889 814.765 197.019 815.19 197.019 815.72C197.019 816.2 196.884 816.625 196.614 816.995C196.354 817.365 195.984 817.655 195.504 817.865C195.034 818.075 194.499 818.18 193.899 818.18ZM208.258 818L208.063 816.965C207.313 817.775 206.413 818.18 205.363 818.18C204.623 818.18 204.018 817.98 203.548 817.58C203.078 817.17 202.843 816.63 202.843 815.96C202.843 815.09 203.183 814.435 203.863 813.995C204.543 813.545 205.458 813.32 206.608 813.32C207.078 813.32 207.518 813.34 207.928 813.38V812.96C207.928 812.46 207.788 812.075 207.508 811.805C207.238 811.535 206.853 811.4 206.353 811.4C205.803 811.4 205.298 811.48 204.838 811.64C204.388 811.8 203.913 812.055 203.413 812.405V810.905C203.873 810.575 204.348 810.34 204.838 810.2C205.338 810.06 205.898 809.99 206.518 809.99C207.458 809.99 208.198 810.24 208.738 810.74C209.278 811.23 209.548 811.91 209.548 812.78V816.26L209.878 818H208.258ZM205.648 816.89C206.078 816.89 206.473 816.8 206.833 816.62C207.203 816.43 207.568 816.155 207.928 815.795V814.52H206.518C205.888 814.52 205.398 814.62 205.048 814.82C204.698 815.02 204.523 815.36 204.523 815.84C204.523 816.17 204.623 816.43 204.823 816.62C205.023 816.8 205.298 816.89 205.648 816.89ZM216.359 809.99C217.119 809.99 217.714 810.22 218.144 810.68C218.574 811.14 218.789 811.765 218.789 812.555V818H217.169V813.155C217.169 812.575 217.064 812.145 216.854 811.865C216.644 811.575 216.319 811.43 215.879 811.43C215.489 811.43 215.134 811.51 214.814 811.67C214.504 811.82 214.179 812.06 213.839 812.39V818H212.219V811.91L211.889 810.17H213.434L213.674 811.22C214.134 810.78 214.564 810.465 214.964 810.275C215.364 810.085 215.829 809.99 216.359 809.99ZM228.444 810.17L223.959 821.48H222.369L223.689 818.165L220.554 810.17H222.204L224.529 816.275L226.779 810.17H228.444ZM232.037 810.17H234.032V811.46H232.037V815.63C232.037 816 232.112 816.29 232.262 816.5C232.422 816.71 232.657 816.815 232.967 816.815C233.287 816.815 233.647 816.72 234.047 816.53V817.91C233.627 818.09 233.152 818.18 232.622 818.18C231.912 818.18 231.367 817.965 230.987 817.535C230.607 817.105 230.417 816.495 230.417 815.705V811.46H229.082V810.17H230.417V808.07L232.037 807.38V810.17ZM236.798 808.67C236.498 808.67 236.243 808.57 236.033 808.37C235.823 808.16 235.718 807.9 235.718 807.59C235.718 807.27 235.823 807.01 236.033 806.81C236.243 806.6 236.498 806.495 236.798 806.495C237.098 806.495 237.353 806.6 237.563 806.81C237.773 807.01 237.878 807.27 237.878 807.59C237.878 807.9 237.773 808.16 237.563 808.37C237.353 808.57 237.098 808.67 236.798 808.67ZM237.608 810.17V818H235.988V810.17H237.608ZM249.132 809.99C249.872 809.99 250.447 810.22 250.857 810.68C251.277 811.14 251.487 811.765 251.487 812.555V818H249.867V813.155C249.867 812.575 249.767 812.145 249.567 811.865C249.377 811.575 249.067 811.43 248.637 811.43C248.277 811.43 247.952 811.51 247.662 811.67C247.382 811.82 247.082 812.055 246.762 812.375V812.555V818H245.142V813.155C245.142 812.575 245.042 812.145 244.842 811.865C244.652 811.575 244.342 811.43 243.912 811.43C243.552 811.43 243.227 811.51 242.937 811.67C242.657 811.82 242.357 812.055 242.037 812.375V818H240.417V811.91L240.087 810.17H241.632L241.872 811.22C242.302 810.78 242.702 810.465 243.072 810.275C243.452 810.085 243.897 809.99 244.407 809.99C244.917 809.99 245.352 810.105 245.712 810.335C246.082 810.555 246.352 810.87 246.522 811.28C246.972 810.82 247.387 810.49 247.767 810.29C248.157 810.09 248.612 809.99 249.132 809.99ZM261.109 814.595H255.604C255.684 815.285 255.924 815.83 256.324 816.23C256.734 816.62 257.284 816.815 257.974 816.815C258.424 816.815 258.884 816.73 259.354 816.56C259.824 816.38 260.279 816.125 260.719 815.795H260.779V817.25C259.949 817.87 259.009 818.18 257.959 818.18C257.149 818.18 256.444 818.01 255.844 817.67C255.244 817.33 254.784 816.85 254.464 816.23C254.144 815.6 253.984 814.875 253.984 814.055C253.984 813.265 254.129 812.565 254.419 811.955C254.719 811.335 255.144 810.855 255.694 810.515C256.244 810.165 256.884 809.99 257.614 809.99C258.334 809.99 258.954 810.165 259.474 810.515C260.004 810.855 260.409 811.335 260.689 811.955C260.969 812.575 261.109 813.285 261.109 814.085V814.595ZM257.614 811.31C257.064 811.31 256.614 811.505 256.264 811.895C255.914 812.275 255.699 812.785 255.619 813.425H259.444C259.364 812.765 259.169 812.25 258.859 811.88C258.559 811.5 258.144 811.31 257.614 811.31ZM268.307 808.67C268.007 808.67 267.752 808.57 267.542 808.37C267.332 808.16 267.227 807.9 267.227 807.59C267.227 807.27 267.332 807.01 267.542 806.81C267.752 806.6 268.007 806.495 268.307 806.495C268.607 806.495 268.862 806.6 269.072 806.81C269.282 807.01 269.387 807.27 269.387 807.59C269.387 807.9 269.282 808.16 269.072 808.37C268.862 808.57 268.607 808.67 268.307 808.67ZM269.117 810.17V818H267.497V810.17H269.117ZM276.066 809.99C276.826 809.99 277.421 810.22 277.851 810.68C278.281 811.14 278.496 811.765 278.496 812.555V818H276.876V813.155C276.876 812.575 276.771 812.145 276.561 811.865C276.351 811.575 276.026 811.43 275.586 811.43C275.196 811.43 274.841 811.51 274.521 811.67C274.211 811.82 273.886 812.06 273.546 812.39V818H271.926V811.91L271.596 810.17H273.141L273.381 811.22C273.841 810.78 274.271 810.465 274.671 810.275C275.071 810.085 275.536 809.99 276.066 809.99ZM287.81 818.18C287.32 818.18 286.83 818.11 286.34 817.97C285.86 817.82 285.41 817.61 284.99 817.34V815.735C285.46 816.095 285.91 816.36 286.34 816.53C286.78 816.7 287.24 816.785 287.72 816.785C288.23 816.785 288.63 816.695 288.92 816.515C289.21 816.335 289.355 816.09 289.355 815.78C289.355 815.46 289.22 815.225 288.95 815.075C288.69 814.925 288.275 814.775 287.705 814.625C287.155 814.485 286.705 814.34 286.355 814.19C286.015 814.04 285.72 813.815 285.47 813.515C285.22 813.215 285.095 812.81 285.095 812.3C285.095 811.6 285.37 811.04 285.92 810.62C286.48 810.2 287.215 809.99 288.125 809.99C289.005 809.99 289.81 810.215 290.54 810.665V812.225C290.14 811.925 289.755 811.71 289.385 811.58C289.025 811.45 288.635 811.385 288.215 811.385C287.735 811.385 287.36 811.46 287.09 811.61C286.82 811.76 286.685 811.975 286.685 812.255C286.685 812.535 286.81 812.745 287.06 812.885C287.31 813.015 287.715 813.155 288.275 813.305C288.835 813.455 289.29 813.605 289.64 813.755C289.99 813.895 290.29 814.125 290.54 814.445C290.8 814.765 290.93 815.19 290.93 815.72C290.93 816.2 290.795 816.625 290.525 816.995C290.265 817.365 289.895 817.655 289.415 817.865C288.945 818.075 288.41 818.18 287.81 818.18ZM299.81 814.595H294.305C294.385 815.285 294.625 815.83 295.025 816.23C295.435 816.62 295.985 816.815 296.675 816.815C297.125 816.815 297.585 816.73 298.055 816.56C298.525 816.38 298.98 816.125 299.42 815.795H299.48V817.25C298.65 817.87 297.71 818.18 296.66 818.18C295.85 818.18 295.145 818.01 294.545 817.67C293.945 817.33 293.485 816.85 293.165 816.23C292.845 815.6 292.685 814.875 292.685 814.055C292.685 813.265 292.83 812.565 293.12 811.955C293.42 811.335 293.845 810.855 294.395 810.515C294.945 810.165 295.585 809.99 296.315 809.99C297.035 809.99 297.655 810.165 298.175 810.515C298.705 810.855 299.11 811.335 299.39 811.955C299.67 812.575 299.81 813.285 299.81 814.085V814.595ZM296.315 811.31C295.765 811.31 295.315 811.505 294.965 811.895C294.615 812.275 294.4 812.785 294.32 813.425H298.145C298.065 812.765 297.87 812.25 297.56 811.88C297.26 811.5 296.845 811.31 296.315 811.31ZM304.049 810.17H306.044V811.46H304.049V815.63C304.049 816 304.124 816.29 304.274 816.5C304.434 816.71 304.669 816.815 304.979 816.815C305.299 816.815 305.659 816.72 306.059 816.53V817.91C305.639 818.09 305.164 818.18 304.634 818.18C303.924 818.18 303.379 817.965 302.999 817.535C302.619 817.105 302.429 816.495 302.429 815.705V811.46H301.094V810.17H302.429V808.07L304.049 807.38V810.17ZM310.055 810.17H312.05V811.46H310.055V815.63C310.055 816 310.13 816.29 310.28 816.5C310.44 816.71 310.675 816.815 310.985 816.815C311.305 816.815 311.665 816.72 312.065 816.53V817.91C311.645 818.09 311.17 818.18 310.64 818.18C309.93 818.18 309.385 817.965 309.005 817.535C308.625 817.105 308.435 816.495 308.435 815.705V811.46H307.1V810.17H308.435V808.07L310.055 807.38V810.17ZM314.816 808.67C314.516 808.67 314.261 808.57 314.051 808.37C313.841 808.16 313.736 807.9 313.736 807.59C313.736 807.27 313.841 807.01 314.051 806.81C314.261 806.6 314.516 806.495 314.816 806.495C315.116 806.495 315.371 806.6 315.581 806.81C315.791 807.01 315.896 807.27 315.896 807.59C315.896 807.9 315.791 808.16 315.581 808.37C315.371 808.57 315.116 808.67 314.816 808.67ZM315.626 810.17V818H314.006V810.17H315.626ZM322.575 809.99C323.335 809.99 323.93 810.22 324.36 810.68C324.79 811.14 325.005 811.765 325.005 812.555V818H323.385V813.155C323.385 812.575 323.28 812.145 323.07 811.865C322.86 811.575 322.535 811.43 322.095 811.43C321.705 811.43 321.35 811.51 321.03 811.67C320.72 811.82 320.395 812.06 320.055 812.39V818H318.435V811.91L318.105 810.17H319.65L319.89 811.22C320.35 810.78 320.78 810.465 321.18 810.275C321.58 810.085 322.045 809.99 322.575 809.99ZM334.915 810.155L334.585 811.895V817.715C334.585 818.975 334.255 819.945 333.595 820.625C332.945 821.315 332.02 821.66 330.82 821.66C330.17 821.66 329.605 821.585 329.125 821.435C328.655 821.285 328.195 821.04 327.745 820.7V819.125C328.225 819.505 328.695 819.78 329.155 819.95C329.625 820.12 330.155 820.205 330.745 820.205C331.505 820.205 332.065 819.995 332.425 819.575C332.785 819.165 332.965 818.58 332.965 817.82V817.34C332.665 817.53 332.34 817.67 331.99 817.76C331.65 817.85 331.27 817.895 330.85 817.895C329.76 817.895 328.915 817.55 328.315 816.86C327.725 816.17 327.43 815.215 327.43 813.995C327.43 812.735 327.74 811.755 328.36 811.055C328.98 810.345 329.86 809.99 331 809.99C331.4 809.99 331.755 810.03 332.065 810.11C332.385 810.19 332.765 810.325 333.205 810.515L333.295 810.155H334.915ZM330.88 816.455C331.26 816.455 331.615 816.405 331.945 816.305C332.275 816.195 332.615 816.03 332.965 815.81V811.625C332.475 811.465 331.875 811.385 331.165 811.385C329.825 811.385 329.155 812.255 329.155 813.995C329.155 814.805 329.29 815.42 329.56 815.84C329.84 816.25 330.28 816.455 330.88 816.455ZM339.416 818.18C338.926 818.18 338.436 818.11 337.946 817.97C337.466 817.82 337.016 817.61 336.596 817.34V815.735C337.066 816.095 337.516 816.36 337.946 816.53C338.386 816.7 338.846 816.785 339.326 816.785C339.836 816.785 340.236 816.695 340.526 816.515C340.816 816.335 340.961 816.09 340.961 815.78C340.961 815.46 340.826 815.225 340.556 815.075C340.296 814.925 339.881 814.775 339.311 814.625C338.761 814.485 338.311 814.34 337.961 814.19C337.621 814.04 337.326 813.815 337.076 813.515C336.826 813.215 336.701 812.81 336.701 812.3C336.701 811.6 336.976 811.04 337.526 810.62C338.086 810.2 338.821 809.99 339.731 809.99C340.611 809.99 341.416 810.215 342.146 810.665V812.225C341.746 811.925 341.361 811.71 340.991 811.58C340.631 811.45 340.241 811.385 339.821 811.385C339.341 811.385 338.966 811.46 338.696 811.61C338.426 811.76 338.291 811.975 338.291 812.255C338.291 812.535 338.416 812.745 338.666 812.885C338.916 813.015 339.321 813.155 339.881 813.305C340.441 813.455 340.896 813.605 341.246 813.755C341.596 813.895 341.896 814.125 342.146 814.445C342.406 814.765 342.536 815.19 342.536 815.72C342.536 816.2 342.401 816.625 342.131 816.995C341.871 817.365 341.501 817.655 341.021 817.865C340.551 818.075 340.016 818.18 339.416 818.18Z" fill="black" fill-opacity="0.38"/>
<line x1="42" y1="245.5" x2="352" y2="245.5" stroke="black" stroke-opacity="0.18"/>
<line x1="42" y1="188.5" x2="352" y2="188.5" stroke="black" stroke-opacity="0.18"/>
<line x1="42" y1="304.5" x2="352" y2="304.5" stroke="black" stroke-opacity="0.18"/>
<line x1="42" y1="363.5" x2="352" y2="363.5" stroke="black" stroke-opacity="0.18"/>
<line x1="42" y1="422.5" x2="352" y2="422.5" stroke="black" stroke-opacity="0.18"/>
<line x1="42" y1="481.5" x2="352" y2="481.5" stroke="black" stroke-opacity="0.18"/>
<line x1="42" y1="540.5" x2="352" y2="540.5" stroke="black" stroke-opacity="0.18"/>
<line x1="42" y1="599.5" x2="352" y2="599.5" stroke="black" stroke-opacity="0.18"/>
<line x1="42" y1="658.5" x2="352" y2="658.5" stroke="black" stroke-opacity="0.18"/>
</svg>
