<svg width="393" height="852" viewBox="0 0 393 852" fill="none" xmlns="http://www.w3.org/2000/svg">
<g clip-path="url(#clip0_48_124)">
<rect width="393" height="852" fill="white"/>
<rect width="393" height="852" fill="#D9D9D9"/>
<path d="M158.422 399.688H160.859L165.98 413.094L171.078 399.688H173.516L167.094 416H164.844L158.422 399.688ZM177.547 400.391C177.547 400.836 177.398 401.18 177.102 401.422C176.812 401.656 176.449 401.773 176.012 401.773C175.574 401.773 175.211 401.656 174.922 401.422C174.641 401.18 174.5 400.836 174.5 400.391C174.5 399.938 174.641 399.594 174.922 399.359C175.211 399.125 175.574 399.008 176.012 399.008C176.449 399.008 176.812 399.125 177.102 399.359C177.398 399.594 177.547 399.938 177.547 400.391ZM174.805 403.906H177.148V416H174.805V403.906ZM188.527 406.051C188.098 405.926 187.582 405.863 186.98 405.863C186.387 405.863 185.898 405.926 185.516 406.051C185.133 406.168 184.797 406.312 184.508 406.484C183.977 406.797 183.59 407.148 183.348 407.539V416H181.004V403.906H183.254L183.348 405.582C183.934 404.848 184.789 404.297 185.914 403.93C186.32 403.789 186.785 403.719 187.309 403.719C187.832 403.719 188.238 403.758 188.527 403.836V406.051ZM195.195 414.148C195.453 414.242 195.844 414.289 196.367 414.289C196.891 414.289 197.328 414.227 197.68 414.102V415.977C197.516 416.016 197.277 416.039 196.965 416.047L196.227 416.07C196.062 416.07 195.938 416.07 195.852 416.07C194.344 416.07 193.23 415.578 192.512 414.594C191.934 413.797 191.645 412.742 191.645 411.43V405.699H189.91V404.598L191.645 403.906L192.207 400.906H193.988V403.906H197.738V405.699H193.988V411.418C193.988 412.949 194.391 413.859 195.195 414.148ZM208.742 413.035V403.906H211.086V416H208.977L208.766 414.723C207.609 415.699 206.332 416.188 204.934 416.188C203.449 416.188 202.398 415.777 201.781 414.957C201.141 414.121 200.82 412.68 200.82 410.633V403.906H203.164V410.516C203.164 411.961 203.371 412.945 203.785 413.469C204.152 413.938 204.852 414.172 205.883 414.172C206.922 414.172 207.875 413.793 208.742 413.035ZM215.41 413.844C215.152 413.398 214.945 412.875 214.789 412.273C214.641 411.672 214.566 410.887 214.566 409.918C214.566 408.949 214.773 408.059 215.188 407.246C215.609 406.426 216.156 405.754 216.828 405.23C218.133 404.223 219.754 403.719 221.691 403.719C222.699 403.719 223.461 403.742 223.977 403.789C223.977 403.789 224.355 403.828 225.113 403.906V416H223.004L222.91 414.605C222.441 415.23 221.727 415.695 220.766 416C220.398 416.117 220.02 416.176 219.629 416.176C219.246 416.176 218.867 416.137 218.492 416.059C218.117 415.98 217.742 415.852 217.367 415.672C217 415.492 216.648 415.254 216.312 414.957C215.977 414.652 215.676 414.281 215.41 413.844ZM222.77 405.629C222.27 405.566 221.77 405.535 221.27 405.535C220.777 405.535 220.25 405.625 219.688 405.805C219.125 405.977 218.645 406.25 218.246 406.625C217.418 407.406 217.004 408.598 217.004 410.199C217.004 411.715 217.359 412.836 218.07 413.562C218.609 414.102 219.258 414.371 220.016 414.371C220.992 414.371 221.797 414.016 222.43 413.305C222.586 413.125 222.699 412.965 222.77 412.824V405.629ZM229.367 398.562H231.711V411.418C231.711 412.965 232.062 413.875 232.766 414.148C233 414.242 233.25 414.289 233.516 414.289C233.781 414.289 234.02 414.258 234.23 414.195V416L233.797 416.047C233.656 416.062 233.52 416.07 233.387 416.07C231.887 416.07 230.805 415.578 230.141 414.594C229.625 413.82 229.367 412.766 229.367 411.43V398.562ZM155.059 444.688C154.512 445.125 153.801 445.473 152.926 445.73C152.051 445.98 150.816 446.105 149.223 446.105C147.637 446.105 146.422 446.004 145.578 445.801V443.586C146.508 443.883 147.82 444.031 149.516 444.031C151.211 444.031 152.414 443.789 153.125 443.305C153.844 442.812 154.203 442.129 154.203 441.254C154.203 440.379 153.816 439.734 153.043 439.32C152.207 438.875 150.793 438.652 148.801 438.652H147.629V437.715L152.305 432.125H145.918V430.062H156.102V431L151.191 436.648V436.684C154.355 436.887 156.145 438.062 156.559 440.211C156.621 440.555 156.652 440.984 156.652 441.5C156.652 442.008 156.523 442.555 156.266 443.141C156.016 443.727 155.613 444.242 155.059 444.688ZM170.762 432.465C170.012 432.23 169.102 432.113 168.031 432.113C166.961 432.113 166.059 432.25 165.324 432.523C164.59 432.789 163.98 433.164 163.496 433.648C162.543 434.594 162.066 435.883 162.066 437.516C162.973 436.852 164.051 436.398 165.301 436.156C165.738 436.078 166.277 436.039 166.918 436.039C167.559 436.039 168.219 436.148 168.898 436.367C169.586 436.578 170.176 436.891 170.668 437.305C171.691 438.188 172.203 439.43 172.203 441.031C172.203 442.695 171.551 443.996 170.246 444.934C169.082 445.77 167.691 446.188 166.074 446.188C164.004 446.188 162.418 445.508 161.316 444.148C160.254 442.852 159.723 441.047 159.723 438.734V438.02C159.723 435.613 160.48 433.68 161.996 432.219C163.496 430.781 165.477 430.062 167.938 430.062H168.652C169.59 430.062 170.293 430.105 170.762 430.191V432.465ZM162.09 439.285C162.09 441.629 162.828 443.195 164.305 443.984C164.82 444.266 165.391 444.406 166.016 444.406C166.641 444.406 167.18 444.336 167.633 444.195C168.094 444.047 168.496 443.836 168.84 443.562C169.566 442.961 169.93 442.156 169.93 441.148C169.93 440.141 169.586 439.34 168.898 438.746C168.211 438.145 167.281 437.844 166.109 437.844C164.898 437.844 163.77 438.164 162.723 438.805C162.449 438.977 162.238 439.137 162.09 439.285ZM175.402 438.148C175.402 435.586 176.004 433.59 177.207 432.16C178.387 430.762 179.996 430.062 182.035 430.062C184.043 430.062 185.621 430.762 186.77 432.16C187.957 433.598 188.551 435.594 188.551 438.148C188.551 440.703 187.957 442.691 186.77 444.113C185.621 445.496 184.043 446.188 182.035 446.188C179.996 446.188 178.387 445.496 177.207 444.113C176.004 442.699 175.402 440.711 175.402 438.148ZM182.012 444.406C182.816 444.406 183.48 444.242 184.004 443.914C184.527 443.586 184.941 443.141 185.246 442.578C185.809 441.547 186.09 440.074 186.09 438.16C186.09 435.16 185.395 433.219 184.004 432.336C183.48 432.008 182.824 431.844 182.035 431.844C180.559 431.844 179.473 432.461 178.777 433.695C178.168 434.773 177.863 436.254 177.863 438.137C177.863 442.316 179.246 444.406 182.012 444.406ZM197.434 429.688H199.871L204.992 443.094L210.09 429.688H212.527L206.105 446H203.855L197.434 429.688ZM216.559 430.391C216.559 430.836 216.41 431.18 216.113 431.422C215.824 431.656 215.461 431.773 215.023 431.773C214.586 431.773 214.223 431.656 213.934 431.422C213.652 431.18 213.512 430.836 213.512 430.391C213.512 429.938 213.652 429.594 213.934 429.359C214.223 429.125 214.586 429.008 215.023 429.008C215.461 429.008 215.824 429.125 216.113 429.359C216.41 429.594 216.559 429.938 216.559 430.391ZM213.816 433.906H216.16V446H213.816V433.906ZM225.5 446.188C221.078 446.188 218.867 444.027 218.867 439.707C218.867 437.848 219.48 436.359 220.707 435.242C221.809 434.227 223.066 433.719 224.48 433.719C226.02 433.719 227.223 434.234 228.09 435.266C228.895 436.227 229.297 437.512 229.297 439.121V440.035H221.305C221.305 442.246 222.207 443.598 224.012 444.09C224.441 444.207 225.102 444.266 225.992 444.266C226.891 444.266 227.77 444.145 228.629 443.902V445.883C227.77 446.086 226.727 446.188 225.5 446.188ZM226.953 438.312C226.953 437.562 226.746 436.93 226.332 436.414C225.848 435.82 225.18 435.523 224.328 435.523C223.43 435.523 222.699 435.809 222.137 436.379C221.621 436.91 221.363 437.555 221.363 438.312H226.953ZM230.246 433.906H232.742L235.848 443.516L238.988 433.906H241.426L244.602 443.48L247.555 433.906H249.875L245.809 446H243.395L240.137 436.836L237.055 446H234.641L230.246 433.906Z" fill="black" fill-opacity="0.23"/>
<path d="M64 149.062H46.5056L54.5413 141.027L52.5 139L41 150.5L52.5 162L54.5269 159.973L46.5056 151.938H64V149.062Z" fill="black"/>
<path d="M42 57V60.2H64V57H42ZM42 63.4V66.6H64V63.4H42ZM42 69.8V73H64V69.8H42Z" fill="black"/>
<rect x="152" y="98" width="95.5556" height="40" fill="black"/>
<g clip-path="url(#clip1_48_124)">
<path d="M219.217 109.062C217.721 109.926 216.484 111.173 215.637 112.674C214.756 114.21 214.309 115.961 214.309 117.877C214.309 119.792 214.755 121.543 215.637 123.078C216.484 124.579 217.72 125.827 219.217 126.69C220.716 127.554 222.409 127.993 224.25 127.993C226.065 127.993 227.742 127.566 229.238 126.726C226.22 127.76 223.578 126.931 223.28 126.83C221.329 126.052 219.708 124.63 218.687 122.803C217.841 121.319 217.419 119.677 217.419 117.877C217.419 116.076 217.841 114.434 218.687 112.95C219.756 111.029 221.491 109.559 223.568 108.816C225.43 108.218 227.445 108.297 229.254 109.037C227.752 108.19 226.067 107.76 224.247 107.76C222.41 107.76 220.717 108.198 219.217 109.062Z" fill="#F0F0F0"/>
<path d="M238.604 111.198C237.433 109.201 235.746 107.55 233.718 106.418C231.654 105.25 229.392 104.667 226.93 104.667C225.318 104.655 223.717 104.926 222.199 105.467C222.878 105.362 223.563 105.31 224.25 105.311C226.527 105.311 228.641 105.859 230.534 106.941C232.42 108.016 233.979 109.577 235.047 111.46C236.143 113.371 236.699 115.53 236.699 117.876C236.699 120.223 236.143 122.382 235.047 124.292C233.98 126.176 232.421 127.738 230.534 128.812C228.643 129.893 226.528 130.442 224.25 130.442C223.564 130.443 222.878 130.391 222.2 130.286C223.717 130.827 225.318 131.097 226.93 131.086C229.392 131.086 231.655 130.502 233.718 129.334C235.746 128.202 237.433 126.552 238.604 124.554C239.798 122.535 240.394 120.309 240.394 117.876C240.394 115.444 239.798 113.217 238.604 111.198Z" fill="#F0F0F0"/>
<path d="M169.79 105.497L159.161 130.007H163.052L173.369 105.497H169.79Z" fill="#F0F0F0"/>
<path d="M180.236 118.355L175.344 107.112L173.419 111.685L176.288 118.355H180.236Z" fill="#F0F0F0"/>
<path d="M181.296 120.79H167.604L168.82 123.586H178.527L181.262 130.007H185.306L181.296 120.79Z" fill="#F0F0F0"/>
<path d="M210.4 117.632C210.133 118.913 209.664 120.145 209.011 121.281C207.989 123.115 206.488 124.641 204.666 125.696C202.84 126.756 200.796 127.293 198.594 127.293C196.392 127.293 194.352 126.752 192.538 125.693C190.726 124.634 189.233 123.11 188.216 121.281C187.163 119.421 186.63 117.319 186.63 115.034C186.625 113.832 186.784 112.634 187.103 111.474C186.006 113.376 185.458 115.464 185.458 117.738C185.458 120.074 186.037 122.212 187.194 124.151C188.317 126.058 189.92 127.641 191.846 128.743C193.79 129.865 195.943 130.426 198.304 130.426C199.925 130.426 201.423 130.157 202.796 129.62C204.17 129.082 205.309 128.406 206.213 127.59C206.623 127.225 207.002 126.828 207.348 126.403L208.075 130.005H210.401V117.632H210.4Z" fill="#F0F0F0"/>
<path d="M190.431 112.971C191.241 111.545 192.333 110.441 193.705 109.658C195.078 108.876 196.611 108.484 198.304 108.484C200.331 108.484 201.995 108.934 203.296 109.833C204.597 110.733 205.533 111.85 206.104 113.184H209.932C209.925 113.154 209.92 113.125 209.911 113.094C208.903 109.221 205.598 106.204 201.428 105.399C200.643 105.236 199.843 105.153 199.041 105.153C198.359 105.153 197.678 105.212 197.006 105.329C195.716 105.547 194.485 106.028 193.391 106.741C192.297 107.455 191.363 108.386 190.648 109.475C190.548 109.631 190.451 109.789 190.359 109.952C189.51 111.452 189.081 113.163 189.081 115.034C189.08 115.679 189.135 116.324 189.244 116.96C189.333 115.558 189.738 114.195 190.431 112.971Z" fill="#F0F0F0"/>
<path d="M197.928 120.787H206.45C206.597 120.57 206.738 120.348 206.871 120.115C207.31 119.336 207.638 118.501 207.845 117.632H197.928V120.787Z" fill="#F0F0F0"/>
</g>
<rect width="393" height="106" transform="translate(0 746)" fill="#B8B8B8"/>
<path d="M24.375 787.667H27.9375V780.667H35.0625V787.667H38.625V777.167L31.5 771.917L24.375 777.167V787.667ZM22 790V776L31.5 769L41 776V790H32.6875V783H30.3125V790H22Z" fill="black"/>
<path d="M23.3 801.05V808H22.16V804.96H18.89V808H17.75V801.05H18.89V804.03H22.16V801.05H23.3ZM27.1908 808.09C26.6708 808.09 26.2008 807.973 25.7808 807.74C25.3608 807.5 25.0308 807.167 24.7908 806.74C24.5508 806.307 24.4308 805.807 24.4308 805.24C24.4308 804.68 24.5541 804.183 24.8008 803.75C25.0474 803.317 25.3841 802.983 25.8108 802.75C26.2374 802.517 26.7141 802.4 27.2408 802.4C27.7674 802.4 28.2441 802.517 28.6708 802.75C29.0974 802.983 29.4341 803.317 29.6808 803.75C29.9274 804.183 30.0508 804.68 30.0508 805.24C30.0508 805.8 29.9241 806.297 29.6708 806.73C29.4174 807.163 29.0708 807.5 28.6308 807.74C28.1974 807.973 27.7174 808.09 27.1908 808.09ZM27.1908 807.1C27.4841 807.1 27.7574 807.03 28.0108 806.89C28.2708 806.75 28.4808 806.54 28.6408 806.26C28.8008 805.98 28.8808 805.64 28.8808 805.24C28.8808 804.84 28.8041 804.503 28.6508 804.23C28.4974 803.95 28.2941 803.74 28.0408 803.6C27.7874 803.46 27.5141 803.39 27.2208 803.39C26.9274 803.39 26.6541 803.46 26.4008 803.6C26.1541 803.74 25.9574 803.95 25.8108 804.23C25.6641 804.503 25.5908 804.84 25.5908 805.24C25.5908 805.833 25.7408 806.293 26.0408 806.62C26.3474 806.94 26.7308 807.1 27.1908 807.1ZM37.8477 802.4C38.2811 802.4 38.6677 802.49 39.0077 802.67C39.3544 802.85 39.6244 803.117 39.8177 803.47C40.0177 803.823 40.1177 804.25 40.1177 804.75V808H38.9877V804.92C38.9877 804.427 38.8644 804.05 38.6177 803.79C38.3711 803.523 38.0344 803.39 37.6077 803.39C37.1811 803.39 36.8411 803.523 36.5877 803.79C36.3411 804.05 36.2177 804.427 36.2177 804.92V808H35.0877V804.92C35.0877 804.427 34.9644 804.05 34.7177 803.79C34.4711 803.523 34.1344 803.39 33.7077 803.39C33.2811 803.39 32.9411 803.523 32.6877 803.79C32.4411 804.05 32.3177 804.427 32.3177 804.92V808H31.1777V802.49H32.3177V803.12C32.5044 802.893 32.7411 802.717 33.0277 802.59C33.3144 802.463 33.6211 802.4 33.9477 802.4C34.3877 802.4 34.7811 802.493 35.1277 802.68C35.4744 802.867 35.7411 803.137 35.9277 803.49C36.0944 803.157 36.3544 802.893 36.7077 802.7C37.0611 802.5 37.4411 802.4 37.8477 802.4ZM46.6184 805.11C46.6184 805.317 46.605 805.503 46.5784 805.67H42.3684C42.4017 806.11 42.565 806.463 42.8584 806.73C43.1517 806.997 43.5117 807.13 43.9384 807.13C44.5517 807.13 44.985 806.873 45.2384 806.36H46.4684C46.3017 806.867 45.9984 807.283 45.5584 807.61C45.125 807.93 44.585 808.09 43.9384 808.09C43.4117 808.09 42.9384 807.973 42.5184 807.74C42.105 807.5 41.7784 807.167 41.5384 806.74C41.305 806.307 41.1884 805.807 41.1884 805.24C41.1884 804.673 41.3017 804.177 41.5284 803.75C41.7617 803.317 42.085 802.983 42.4984 802.75C42.9184 802.517 43.3984 802.4 43.9384 802.4C44.4584 802.4 44.9217 802.513 45.3284 802.74C45.735 802.967 46.0517 803.287 46.2784 803.7C46.505 804.107 46.6184 804.577 46.6184 805.11ZM45.4284 804.75C45.4217 804.33 45.2717 803.993 44.9784 803.74C44.685 803.487 44.3217 803.36 43.8884 803.36C43.495 803.36 43.1584 803.487 42.8784 803.74C42.5984 803.987 42.4317 804.323 42.3784 804.75H45.4284Z" fill="black"/>
<path d="M190 785.221C191.925 783.665 193.379 782.168 194.36 780.729C195.342 779.29 195.833 777.939 195.833 776.675C195.833 774.925 195.289 773.486 194.2 772.358C193.111 771.231 191.711 770.667 190 770.667C188.289 770.667 186.889 771.231 185.8 772.358C184.711 773.486 184.167 774.925 184.167 776.675C184.167 777.939 184.658 779.29 185.64 780.729C186.622 782.168 188.075 783.665 190 785.221ZM190 788.167C187.258 786.144 185.212 784.181 183.86 782.275C182.509 780.369 181.833 778.503 181.833 776.675C181.833 774.244 182.592 772.247 184.108 770.681C185.625 769.116 187.589 768.333 190 768.333C192.411 768.333 194.375 769.116 195.892 770.681C197.408 772.247 198.167 774.244 198.167 776.675C198.167 778.503 197.491 780.369 196.14 782.275C194.788 784.181 192.742 786.144 190 788.167ZM190 778.833C190.642 778.833 191.191 778.605 191.648 778.148C192.105 777.691 192.333 777.142 192.333 776.5C192.333 775.858 192.105 775.309 191.648 774.852C191.191 774.395 190.642 774.167 190 774.167C189.358 774.167 188.809 774.395 188.352 774.852C187.895 775.309 187.667 775.858 187.667 776.5C187.667 777.142 187.895 777.691 188.352 778.148C188.809 778.605 189.358 778.833 190 778.833ZM181.833 791.667V789.333H198.167V791.667H181.833Z" fill="black"/>
<path d="M185.07 801.05V808H183.93V803.24L181.81 808H181.02L178.89 803.24V808H177.75V801.05H178.98L181.42 806.5L183.85 801.05H185.07ZM186.188 805.22C186.188 804.667 186.302 804.177 186.528 803.75C186.762 803.323 187.075 802.993 187.468 802.76C187.868 802.52 188.308 802.4 188.788 802.4C189.222 802.4 189.598 802.487 189.918 802.66C190.245 802.827 190.505 803.037 190.698 803.29V802.49H191.848V808H190.698V807.18C190.505 807.44 190.242 807.657 189.908 807.83C189.575 808.003 189.195 808.09 188.768 808.09C188.295 808.09 187.862 807.97 187.468 807.73C187.075 807.483 186.762 807.143 186.528 806.71C186.302 806.27 186.188 805.773 186.188 805.22ZM190.698 805.24C190.698 804.86 190.618 804.53 190.458 804.25C190.305 803.97 190.102 803.757 189.848 803.61C189.595 803.463 189.322 803.39 189.028 803.39C188.735 803.39 188.462 803.463 188.208 803.61C187.955 803.75 187.748 803.96 187.588 804.24C187.435 804.513 187.358 804.84 187.358 805.22C187.358 805.6 187.435 805.933 187.588 806.22C187.748 806.507 187.955 806.727 188.208 806.88C188.468 807.027 188.742 807.1 189.028 807.1C189.322 807.1 189.595 807.027 189.848 806.88C190.102 806.733 190.305 806.52 190.458 806.24C190.618 805.953 190.698 805.62 190.698 805.24ZM194.486 803.3C194.679 803.047 194.942 802.833 195.276 802.66C195.609 802.487 195.986 802.4 196.406 802.4C196.886 802.4 197.322 802.52 197.716 802.76C198.116 802.993 198.429 803.323 198.656 803.75C198.882 804.177 198.996 804.667 198.996 805.22C198.996 805.773 198.882 806.27 198.656 806.71C198.429 807.143 198.116 807.483 197.716 807.73C197.322 807.97 196.886 808.09 196.406 808.09C195.986 808.09 195.612 808.007 195.286 807.84C194.959 807.667 194.692 807.453 194.486 807.2V810.62H193.346V802.49H194.486V803.3ZM197.836 805.22C197.836 804.84 197.756 804.513 197.596 804.24C197.442 803.96 197.236 803.75 196.976 803.61C196.722 803.463 196.449 803.39 196.156 803.39C195.869 803.39 195.596 803.463 195.336 803.61C195.082 803.757 194.876 803.97 194.716 804.25C194.562 804.53 194.486 804.86 194.486 805.24C194.486 805.62 194.562 805.953 194.716 806.24C194.876 806.52 195.082 806.733 195.336 806.88C195.596 807.027 195.869 807.1 196.156 807.1C196.449 807.1 196.722 807.027 196.976 806.88C197.236 806.727 197.442 806.507 197.596 806.22C197.756 805.933 197.836 805.6 197.836 805.22ZM202.123 808.09C201.69 808.09 201.3 808.013 200.953 807.86C200.613 807.7 200.343 807.487 200.143 807.22C199.943 806.947 199.836 806.643 199.823 806.31H201.003C201.023 806.543 201.133 806.74 201.333 806.9C201.54 807.053 201.796 807.13 202.103 807.13C202.423 807.13 202.67 807.07 202.843 806.95C203.023 806.823 203.113 806.663 203.113 806.47C203.113 806.263 203.013 806.11 202.813 806.01C202.62 805.91 202.31 805.8 201.883 805.68C201.47 805.567 201.133 805.457 200.873 805.35C200.613 805.243 200.386 805.08 200.193 804.86C200.006 804.64 199.913 804.35 199.913 803.99C199.913 803.697 200 803.43 200.173 803.19C200.346 802.943 200.593 802.75 200.913 802.61C201.24 802.47 201.613 802.4 202.033 802.4C202.66 802.4 203.163 802.56 203.543 802.88C203.93 803.193 204.136 803.623 204.163 804.17H203.023C203.003 803.923 202.903 803.727 202.723 803.58C202.543 803.433 202.3 803.36 201.993 803.36C201.693 803.36 201.463 803.417 201.303 803.53C201.143 803.643 201.063 803.793 201.063 803.98C201.063 804.127 201.116 804.25 201.223 804.35C201.33 804.45 201.46 804.53 201.613 804.59C201.766 804.643 201.993 804.713 202.293 804.8C202.693 804.907 203.02 805.017 203.273 805.13C203.533 805.237 203.756 805.397 203.943 805.61C204.13 805.823 204.226 806.107 204.233 806.46C204.233 806.773 204.146 807.053 203.973 807.3C203.8 807.547 203.553 807.74 203.233 807.88C202.92 808.02 202.55 808.09 202.123 808.09Z" fill="black"/>
<path d="M276.917 787C276.1 787 275.41 786.718 274.846 786.154C274.282 785.59 274 784.9 274 784.083C274 783.267 274.282 782.576 274.846 782.013C275.41 781.449 276.1 781.167 276.917 781.167C277.733 781.167 278.424 781.449 278.988 782.013C279.551 782.576 279.833 783.267 279.833 784.083C279.833 784.9 279.551 785.59 278.988 786.154C278.424 786.718 277.733 787 276.917 787ZM265.833 791.667C265.192 791.667 264.642 791.438 264.185 790.981C263.728 790.524 263.5 789.975 263.5 789.333V773C263.5 772.358 263.728 771.809 264.185 771.352C264.642 770.895 265.192 770.667 265.833 770.667H267V768.333H269.333V770.667H278.667V768.333H281V770.667H282.167C282.808 770.667 283.358 770.895 283.815 771.352C284.272 771.809 284.5 772.358 284.5 773V789.333C284.5 789.975 284.272 790.524 283.815 790.981C283.358 791.438 282.808 791.667 282.167 791.667H265.833ZM265.833 789.333H282.167V777.667H265.833V789.333ZM265.833 775.333H282.167V773H265.833V775.333Z" fill="black"/>
<path d="M259.89 801.97V804.01H262.29V804.94H259.89V807.07H262.59V808H258.75V801.04H262.59V801.97H259.89ZM266.124 806.98L267.684 802.49H268.894L266.794 808H265.434L263.344 802.49H264.564L266.124 806.98ZM274.806 805.11C274.806 805.317 274.793 805.503 274.766 805.67H270.556C270.589 806.11 270.753 806.463 271.046 806.73C271.339 806.997 271.699 807.13 272.126 807.13C272.739 807.13 273.173 806.873 273.426 806.36H274.656C274.489 806.867 274.186 807.283 273.746 807.61C273.313 807.93 272.773 808.09 272.126 808.09C271.599 808.09 271.126 807.973 270.706 807.74C270.293 807.5 269.966 807.167 269.726 806.74C269.493 806.307 269.376 805.807 269.376 805.24C269.376 804.673 269.489 804.177 269.716 803.75C269.949 803.317 270.273 802.983 270.686 802.75C271.106 802.517 271.586 802.4 272.126 802.4C272.646 802.4 273.109 802.513 273.516 802.74C273.923 802.967 274.239 803.287 274.466 803.7C274.693 804.107 274.806 804.577 274.806 805.11ZM273.616 804.75C273.609 804.33 273.459 803.993 273.166 803.74C272.873 803.487 272.509 803.36 272.076 803.36C271.683 803.36 271.346 803.487 271.066 803.74C270.786 803.987 270.619 804.323 270.566 804.75H273.616ZM278.708 802.4C279.141 802.4 279.528 802.49 279.868 802.67C280.214 802.85 280.484 803.117 280.678 803.47C280.871 803.823 280.968 804.25 280.968 804.75V808H279.838V804.92C279.838 804.427 279.714 804.05 279.468 803.79C279.221 803.523 278.884 803.39 278.458 803.39C278.031 803.39 277.691 803.523 277.438 803.79C277.191 804.05 277.068 804.427 277.068 804.92V808H275.928V802.49H277.068V803.12C277.254 802.893 277.491 802.717 277.778 802.59C278.071 802.463 278.381 802.4 278.708 802.4ZM283.752 803.42V806.47C283.752 806.677 283.799 806.827 283.892 806.92C283.992 807.007 284.159 807.05 284.392 807.05H285.092V808H284.192C283.679 808 283.285 807.88 283.012 807.64C282.739 807.4 282.602 807.01 282.602 806.47V803.42H281.952V802.49H282.602V801.12H283.752V802.49H285.092V803.42H283.752ZM288.143 808.09C287.709 808.09 287.319 808.013 286.973 807.86C286.633 807.7 286.363 807.487 286.163 807.22C285.963 806.947 285.856 806.643 285.843 806.31H287.023C287.043 806.543 287.153 806.74 287.353 806.9C287.559 807.053 287.816 807.13 288.123 807.13C288.443 807.13 288.689 807.07 288.863 806.95C289.043 806.823 289.133 806.663 289.133 806.47C289.133 806.263 289.033 806.11 288.833 806.01C288.639 805.91 288.329 805.8 287.903 805.68C287.489 805.567 287.153 805.457 286.893 805.35C286.633 805.243 286.406 805.08 286.213 804.86C286.026 804.64 285.933 804.35 285.933 803.99C285.933 803.697 286.019 803.43 286.193 803.19C286.366 802.943 286.613 802.75 286.933 802.61C287.259 802.47 287.633 802.4 288.053 802.4C288.679 802.4 289.183 802.56 289.563 802.88C289.949 803.193 290.156 803.623 290.183 804.17H289.043C289.023 803.923 288.923 803.727 288.743 803.58C288.563 803.433 288.319 803.36 288.013 803.36C287.713 803.36 287.483 803.417 287.323 803.53C287.163 803.643 287.083 803.793 287.083 803.98C287.083 804.127 287.136 804.25 287.243 804.35C287.349 804.45 287.479 804.53 287.633 804.59C287.786 804.643 288.013 804.713 288.313 804.8C288.713 804.907 289.039 805.017 289.293 805.13C289.553 805.237 289.776 805.397 289.963 805.61C290.149 805.823 290.246 806.107 290.253 806.46C290.253 806.773 290.166 807.053 289.993 807.3C289.819 807.547 289.573 807.74 289.253 807.88C288.939 808.02 288.569 808.09 288.143 808.09Z" fill="black"/>
<path d="M358 780C356.717 780 355.618 779.543 354.704 778.629C353.79 777.715 353.333 776.617 353.333 775.333C353.333 774.05 353.79 772.951 354.704 772.038C355.618 771.124 356.717 770.667 358 770.667C359.283 770.667 360.382 771.124 361.296 772.038C362.21 772.951 362.667 774.05 362.667 775.333C362.667 776.617 362.21 777.715 361.296 778.629C360.382 779.543 359.283 780 358 780ZM348.667 789.333V786.067C348.667 785.406 348.837 784.798 349.177 784.244C349.517 783.69 349.969 783.267 350.533 782.975C351.739 782.372 352.964 781.92 354.208 781.619C355.453 781.317 356.717 781.167 358 781.167C359.283 781.167 360.547 781.317 361.792 781.619C363.036 781.92 364.261 782.372 365.467 782.975C366.031 783.267 366.483 783.69 366.823 784.244C367.163 784.798 367.333 785.406 367.333 786.067V789.333H348.667ZM351 787H365V786.067C365 785.853 364.946 785.658 364.84 785.483C364.733 785.308 364.592 785.172 364.417 785.075C363.367 784.55 362.307 784.156 361.237 783.894C360.168 783.631 359.089 783.5 358 783.5C356.911 783.5 355.832 783.631 354.762 783.894C353.693 784.156 352.633 784.55 351.583 785.075C351.408 785.172 351.267 785.308 351.16 785.483C351.053 785.658 351 785.853 351 786.067V787ZM358 777.667C358.642 777.667 359.191 777.438 359.648 776.981C360.105 776.524 360.333 775.975 360.333 775.333C360.333 774.692 360.105 774.142 359.648 773.685C359.191 773.229 358.642 773 358 773C357.358 773 356.809 773.229 356.352 773.685C355.895 774.142 355.667 774.692 355.667 775.333C355.667 775.975 355.895 776.524 356.352 776.981C356.809 777.438 357.358 777.667 358 777.667Z" fill="black"/>
<path d="M347.61 803.12C347.61 803.473 347.527 803.807 347.36 804.12C347.193 804.433 346.927 804.69 346.56 804.89C346.193 805.083 345.723 805.18 345.15 805.18H343.89V808H342.75V801.05H345.15C345.683 801.05 346.133 801.143 346.5 801.33C346.873 801.51 347.15 801.757 347.33 802.07C347.517 802.383 347.61 802.733 347.61 803.12ZM345.15 804.25C345.583 804.25 345.907 804.153 346.12 803.96C346.333 803.76 346.44 803.48 346.44 803.12C346.44 802.36 346.01 801.98 345.15 801.98H343.89V804.25H345.15ZM349.837 803.29C350.004 803.01 350.224 802.793 350.497 802.64C350.777 802.48 351.107 802.4 351.487 802.4V803.58H351.197C350.751 803.58 350.411 803.693 350.177 803.92C349.951 804.147 349.837 804.54 349.837 805.1V808H348.697V802.49H349.837V803.29ZM354.925 808.09C354.405 808.09 353.935 807.973 353.515 807.74C353.095 807.5 352.765 807.167 352.525 806.74C352.285 806.307 352.165 805.807 352.165 805.24C352.165 804.68 352.288 804.183 352.535 803.75C352.782 803.317 353.118 802.983 353.545 802.75C353.972 802.517 354.448 802.4 354.975 802.4C355.502 802.4 355.978 802.517 356.405 802.75C356.832 802.983 357.168 803.317 357.415 803.75C357.662 804.183 357.785 804.68 357.785 805.24C357.785 805.8 357.658 806.297 357.405 806.73C357.152 807.163 356.805 807.5 356.365 807.74C355.932 807.973 355.452 808.09 354.925 808.09ZM354.925 807.1C355.218 807.1 355.492 807.03 355.745 806.89C356.005 806.75 356.215 806.54 356.375 806.26C356.535 805.98 356.615 805.64 356.615 805.24C356.615 804.84 356.538 804.503 356.385 804.23C356.232 803.95 356.028 803.74 355.775 803.6C355.522 803.46 355.248 803.39 354.955 803.39C354.662 803.39 354.388 803.46 354.135 803.6C353.888 803.74 353.692 803.95 353.545 804.23C353.398 804.503 353.325 804.84 353.325 805.24C353.325 805.833 353.475 806.293 353.775 806.62C354.082 806.94 354.465 807.1 354.925 807.1ZM361.222 803.42H360.202V808H359.052V803.42H358.402V802.49H359.052V802.1C359.052 801.467 359.219 801.007 359.552 800.72C359.892 800.427 360.422 800.28 361.142 800.28V801.23C360.795 801.23 360.552 801.297 360.412 801.43C360.272 801.557 360.202 801.78 360.202 802.1V802.49H361.222V803.42ZM362.812 801.76C362.606 801.76 362.432 801.69 362.292 801.55C362.152 801.41 362.082 801.237 362.082 801.03C362.082 800.823 362.152 800.65 362.292 800.51C362.432 800.37 362.606 800.3 362.812 800.3C363.012 800.3 363.182 800.37 363.322 800.51C363.462 800.65 363.532 800.823 363.532 801.03C363.532 801.237 363.462 801.41 363.322 801.55C363.182 801.69 363.012 801.76 362.812 801.76ZM363.372 802.49V808H362.232V802.49H363.372ZM366.009 800.6V808H364.869V800.6H366.009ZM372.556 805.11C372.556 805.317 372.543 805.503 372.516 805.67H368.306C368.339 806.11 368.503 806.463 368.796 806.73C369.089 806.997 369.449 807.13 369.876 807.13C370.489 807.13 370.923 806.873 371.176 806.36H372.406C372.239 806.867 371.936 807.283 371.496 807.61C371.063 807.93 370.523 808.09 369.876 808.09C369.349 808.09 368.876 807.973 368.456 807.74C368.043 807.5 367.716 807.167 367.476 806.74C367.243 806.307 367.126 805.807 367.126 805.24C367.126 804.673 367.239 804.177 367.466 803.75C367.699 803.317 368.023 802.983 368.436 802.75C368.856 802.517 369.336 802.4 369.876 802.4C370.396 802.4 370.859 802.513 371.266 802.74C371.673 802.967 371.989 803.287 372.216 803.7C372.443 804.107 372.556 804.577 372.556 805.11ZM371.366 804.75C371.359 804.33 371.209 803.993 370.916 803.74C370.623 803.487 370.259 803.36 369.826 803.36C369.433 803.36 369.096 803.487 368.816 803.74C368.536 803.987 368.369 804.323 368.316 804.75H371.366Z" fill="black"/>
<path d="M108.5 785.625C108.826 785.625 109.099 785.517 109.319 785.302C109.54 785.086 109.65 784.819 109.65 784.5C109.65 784.181 109.54 783.914 109.319 783.698C109.099 783.483 108.826 783.375 108.5 783.375C108.174 783.375 107.901 783.483 107.681 783.698C107.46 783.914 107.35 784.181 107.35 784.5C107.35 784.819 107.46 785.086 107.681 785.302C107.901 785.517 108.174 785.625 108.5 785.625ZM108.5 781.125C108.826 781.125 109.099 781.017 109.319 780.802C109.54 780.586 109.65 780.319 109.65 780C109.65 779.681 109.54 779.414 109.319 779.198C109.099 778.983 108.826 778.875 108.5 778.875C108.174 778.875 107.901 778.983 107.681 779.198C107.46 779.414 107.35 779.681 107.35 780C107.35 780.319 107.46 780.586 107.681 780.802C107.901 781.017 108.174 781.125 108.5 781.125ZM108.5 776.625C108.826 776.625 109.099 776.517 109.319 776.302C109.54 776.086 109.65 775.819 109.65 775.5C109.65 775.181 109.54 774.914 109.319 774.698C109.099 774.483 108.826 774.375 108.5 774.375C108.174 774.375 107.901 774.483 107.681 774.698C107.46 774.914 107.35 775.181 107.35 775.5C107.35 775.819 107.46 776.086 107.681 776.302C107.901 776.517 108.174 776.625 108.5 776.625ZM117.7 789H99.3C98.6675 789 98.126 788.78 97.6756 788.339C97.2252 787.898 97 787.369 97 786.75V782.25C97.6325 782.25 98.174 782.03 98.6244 781.589C99.0748 781.148 99.3 780.619 99.3 780C99.3 779.381 99.0748 778.852 98.6244 778.411C98.174 777.97 97.6325 777.75 97 777.75V773.25C97 772.631 97.2252 772.102 97.6756 771.661C98.126 771.22 98.6675 771 99.3 771H117.7C118.333 771 118.874 771.22 119.324 771.661C119.775 772.102 120 772.631 120 773.25V777.75C119.368 777.75 118.826 777.97 118.376 778.411C117.925 778.852 117.7 779.381 117.7 780C117.7 780.619 117.925 781.148 118.376 781.589C118.826 782.03 119.368 782.25 120 782.25V786.75C120 787.369 119.775 787.898 119.324 788.339C118.874 788.78 118.333 789 117.7 789ZM117.7 786.75V783.881C116.991 783.469 116.43 782.92 116.018 782.236C115.606 781.552 115.4 780.806 115.4 780C115.4 779.194 115.606 778.448 116.018 777.764C116.43 777.08 116.991 776.531 117.7 776.119V773.25H99.3V776.119C100.009 776.531 100.57 777.08 100.982 777.764C101.394 778.448 101.6 779.194 101.6 780C101.6 780.806 101.394 781.552 100.982 782.236C100.57 782.92 100.009 783.469 99.3 783.881V786.75H117.7Z" fill="black"/>
<path d="M96.24 801.05V801.98H94.39V808H93.25V801.98H91.39V801.05H96.24ZM97.9745 801.76C97.7679 801.76 97.5945 801.69 97.4545 801.55C97.3145 801.41 97.2445 801.237 97.2445 801.03C97.2445 800.823 97.3145 800.65 97.4545 800.51C97.5945 800.37 97.7679 800.3 97.9745 800.3C98.1745 800.3 98.3445 800.37 98.4845 800.51C98.6245 800.65 98.6945 800.823 98.6945 801.03C98.6945 801.237 98.6245 801.41 98.4845 801.55C98.3445 801.69 98.1745 801.76 97.9745 801.76ZM98.5345 802.49V808H97.3945V802.49H98.5345ZM99.6513 805.24C99.6513 804.673 99.7646 804.177 99.9913 803.75C100.225 803.317 100.545 802.983 100.951 802.75C101.358 802.517 101.825 802.4 102.351 802.4C103.018 802.4 103.568 802.56 104.001 802.88C104.441 803.193 104.738 803.643 104.891 804.23H103.661C103.561 803.957 103.401 803.743 103.181 803.59C102.961 803.437 102.685 803.36 102.351 803.36C101.885 803.36 101.511 803.527 101.231 803.86C100.958 804.187 100.821 804.647 100.821 805.24C100.821 805.833 100.958 806.297 101.231 806.63C101.511 806.963 101.885 807.13 102.351 807.13C103.011 807.13 103.448 806.84 103.661 806.26H104.891C104.731 806.82 104.431 807.267 103.991 807.6C103.551 807.927 103.005 808.09 102.351 808.09C101.825 808.09 101.358 807.973 100.951 807.74C100.545 807.5 100.225 807.167 99.9913 806.74C99.7646 806.307 99.6513 805.807 99.6513 805.24ZM108.207 805.25L110.747 808H109.207L107.167 805.63V808H106.027V800.6H107.167V804.9L109.167 802.49H110.747L108.207 805.25ZM116.614 805.11C116.614 805.317 116.601 805.503 116.574 805.67H112.364C112.398 806.11 112.561 806.463 112.854 806.73C113.148 806.997 113.508 807.13 113.934 807.13C114.548 807.13 114.981 806.873 115.234 806.36H116.464C116.298 806.867 115.994 807.283 115.554 807.61C115.121 807.93 114.581 808.09 113.934 808.09C113.408 808.09 112.934 807.973 112.514 807.74C112.101 807.5 111.774 807.167 111.534 806.74C111.301 806.307 111.184 805.807 111.184 805.24C111.184 804.673 111.298 804.177 111.524 803.75C111.758 803.317 112.081 802.983 112.494 802.75C112.914 802.517 113.394 802.4 113.934 802.4C114.454 802.4 114.918 802.513 115.324 802.74C115.731 802.967 116.048 803.287 116.274 803.7C116.501 804.107 116.614 804.577 116.614 805.11ZM115.424 804.75C115.418 804.33 115.268 803.993 114.974 803.74C114.681 803.487 114.318 803.36 113.884 803.36C113.491 803.36 113.154 803.487 112.874 803.74C112.594 803.987 112.428 804.323 112.374 804.75H115.424ZM119.066 803.42V806.47C119.066 806.677 119.113 806.827 119.206 806.92C119.306 807.007 119.473 807.05 119.706 807.05H120.406V808H119.506C118.993 808 118.6 807.88 118.326 807.64C118.053 807.4 117.916 807.01 117.916 806.47V803.42H117.266V802.49H117.916V801.12H119.066V802.49H120.406V803.42H119.066ZM123.457 808.09C123.024 808.09 122.634 808.013 122.287 807.86C121.947 807.7 121.677 807.487 121.477 807.22C121.277 806.947 121.17 806.643 121.157 806.31H122.337C122.357 806.543 122.467 806.74 122.667 806.9C122.874 807.053 123.13 807.13 123.437 807.13C123.757 807.13 124.004 807.07 124.177 806.95C124.357 806.823 124.447 806.663 124.447 806.47C124.447 806.263 124.347 806.11 124.147 806.01C123.954 805.91 123.644 805.8 123.217 805.68C122.804 805.567 122.467 805.457 122.207 805.35C121.947 805.243 121.72 805.08 121.527 804.86C121.34 804.64 121.247 804.35 121.247 803.99C121.247 803.697 121.334 803.43 121.507 803.19C121.68 802.943 121.927 802.75 122.247 802.61C122.574 802.47 122.947 802.4 123.367 802.4C123.994 802.4 124.497 802.56 124.877 802.88C125.264 803.193 125.47 803.623 125.497 804.17H124.357C124.337 803.923 124.237 803.727 124.057 803.58C123.877 803.433 123.634 803.36 123.327 803.36C123.027 803.36 122.797 803.417 122.637 803.53C122.477 803.643 122.397 803.793 122.397 803.98C122.397 804.127 122.45 804.25 122.557 804.35C122.664 804.45 122.794 804.53 122.947 804.59C123.1 804.643 123.327 804.713 123.627 804.8C124.027 804.907 124.354 805.017 124.607 805.13C124.867 805.237 125.09 805.397 125.277 805.61C125.464 805.823 125.56 806.107 125.567 806.46C125.567 806.773 125.48 807.053 125.307 807.3C125.134 807.547 124.887 807.74 124.567 807.88C124.254 808.02 123.884 808.09 123.457 808.09Z" fill="black"/>
<line x1="67.75" y1="804.012" x2="67.75" y2="763" stroke="black" stroke-opacity="0.3" stroke-width="0.5"/>
<line x1="151.75" y1="804.012" x2="151.75" y2="763" stroke="black" stroke-opacity="0.5" stroke-width="0.5"/>
<line x1="232.75" y1="804.012" x2="232.75" y2="763" stroke="black" stroke-opacity="0.5" stroke-width="0.5"/>
<line x1="316.75" y1="804.012" x2="316.75" y2="763" stroke="black" stroke-opacity="0.5" stroke-width="0.5"/>
</g>
<defs>
<clipPath id="clip0_48_124">
<rect width="393" height="852" fill="white"/>
</clipPath>
<clipPath id="clip1_48_124">
<rect width="81.2346" height="26.4198" fill="white" transform="translate(159.161 104.667)"/>
</clipPath>
</defs>
</svg>
